<svg width="151" height="16" viewBox="0 0 151 16" fill="none" xmlns="http://www.w3.org/2000/svg">
<path d="M150.354 8.35357C150.549 8.1583 150.549 7.84172 150.354 7.64646L147.172 4.46448C146.976 4.26922 146.66 4.26922 146.464 4.46448C146.269 4.65974 146.269 4.97632 146.464 5.17159L149.293 8.00001L146.464 10.8284C146.269 11.0237 146.269 11.3403 146.464 11.5355C146.66 11.7308 146.976 11.7308 147.172 11.5355L150.354 8.35357ZM-4.37114e-08 8.5L2.5 8.5L2.5 7.5L4.37114e-08 7.5L-4.37114e-08 8.5ZM7.5 8.5L12.5 8.5L12.5 7.5L7.5 7.5L7.5 8.5ZM17.5 8.5L22.5 8.5L22.5 7.5L17.5 7.5L17.5 8.5ZM27.5 8.5L32.5 8.5L32.5 7.5L27.5 7.5L27.5 8.5ZM37.5 8.5L42.5 8.5L42.5 7.5L37.5 7.5L37.5 8.5ZM47.5 8.5L52.5 8.5L52.5 7.5L47.5 7.5L47.5 8.5ZM57.5 8.50001L62.5 8.50001L62.5 7.50001L57.5 7.50001L57.5 8.50001ZM67.5 8.50001L72.5 8.50001L72.5 7.50001L67.5 7.50001L67.5 8.50001ZM77.5 8.50001L82.5 8.50001L82.5 7.50001L77.5 7.50001L77.5 8.50001ZM87.5 8.50001L92.5 8.50001L92.5 7.50001L87.5 7.50001L87.5 8.50001ZM97.5 8.50001L102.5 8.50001L102.5 7.50001L97.5 7.50001L97.5 8.50001ZM107.5 8.50001L112.5 8.50001L112.5 7.50001L107.5 7.50001L107.5 8.50001ZM117.5 8.50001L122.5 8.50001L122.5 7.50001L117.5 7.50001L117.5 8.50001ZM127.5 8.50001L132.5 8.50001L132.5 7.50001L127.5 7.50001L127.5 8.50001ZM137.5 8.50001L142.5 8.50001L142.5 7.50001L137.5 7.50001L137.5 8.50001ZM147.5 8.50001L150 8.50001L150 7.50001L147.5 7.50001L147.5 8.50001ZM150.707 8.70712C151.098 8.3166 151.098 7.68343 150.707 7.29291L144.343 0.928945C143.953 0.53842 143.319 0.53842 142.929 0.928945C142.538 1.31947 142.538 1.95263 142.929 2.34316L148.586 8.00001L142.929 13.6569C142.538 14.0474 142.538 14.6806 142.929 15.0711C143.319 15.4616 143.953 15.4616 144.343 15.0711L150.707 8.70712ZM-8.74228e-08 9L2.5 9L2.5 7L8.74228e-08 7L-8.74228e-08 9ZM7.5 9L12.5 9L12.5 7L7.5 7L7.5 9ZM17.5 9L22.5 9L22.5 7L17.5 7L17.5 9ZM27.5 9L32.5 9L32.5 7L27.5 7L27.5 9ZM37.5 9L42.5 9L42.5 7L37.5 7L37.5 9ZM47.5 9L52.5 9L52.5 7L47.5 7L47.5 9ZM57.5 9.00001L62.5 9.00001L62.5 7.00001L57.5 7.00001L57.5 9.00001ZM67.5 9.00001L72.5 9.00001L72.5 7.00001L67.5 7.00001L67.5 9.00001ZM77.5 9.00001L82.5 9.00001L82.5 7.00001L77.5 7.00001L77.5 9.00001ZM87.5 9.00001L92.5 9.00001L92.5 7.00001L87.5 7.00001L87.5 9.00001ZM97.5 9.00001L102.5 9.00001L102.5 7.00001L97.5 7.00001L97.5 9.00001ZM107.5 9.00001L112.5 9.00001L112.5 7.00001L107.5 7.00001L107.5 9.00001ZM117.5 9.00001L122.5 9.00001L122.5 7.00001L117.5 7.00001L117.5 9.00001ZM127.5 9.00001L132.5 9.00001L132.5 7.00001L127.5 7.00001L127.5 9.00001ZM137.5 9.00001L142.5 9.00001L142.5 7.00001L137.5 7.00001L137.5 9.00001ZM147.5 9.00001L150 9.00001L150 7.00001L147.5 7.00001L147.5 9.00001Z" fill="url(#paint0_linear)"/>
<defs>
<linearGradient id="paint0_linear" x1="1.21093" y1="8" x2="58.3235" y2="78.9553" gradientUnits="userSpaceOnUse">
<stop stop-color="#A5C436"/>
<stop offset="1" stop-color="#74AF35"/>
</linearGradient>
</defs>
</svg>
