<svg width="60" height="60" viewBox="0 0 60 60" fill="none" xmlns="http://www.w3.org/2000/svg">
<g clip-path="url(#clip0)">
<path d="M52.7205 12.1483L30.1698 0.13221C29.8353 -0.0463404 29.4343 -0.0438346 29.1023 0.138475L7.17566 12.1546C6.81605 12.352 6.59302 12.7291 6.59302 13.1395V28.8356C6.60617 41.7382 14.2506 53.4111 26.0726 58.5803L29.1161 59.9065C29.4005 60.0306 29.7244 60.0312 30.0095 59.9078L33.4389 58.4268C45.4801 53.3697 53.3137 41.5841 53.315 28.5243V13.1395C53.315 12.7247 53.0863 12.3432 52.7205 12.1483ZM51.0696 28.5243C51.0671 40.6839 43.7716 51.6556 32.5599 56.3612L32.5524 56.365L29.5659 57.6543L26.971 56.5222C15.9666 51.7108 8.85027 40.8461 8.83774 28.8356V13.8042L29.6492 2.39824L51.0696 13.8123V28.5243Z" fill="url(#paint0_linear)"/>
<path d="M21.3663 28.1077C20.9635 27.6359 20.2549 27.5801 19.7832 27.983C19.3114 28.3852 19.2557 29.0944 19.6585 29.5655L25.5889 36.5102C25.9848 36.9738 26.6784 37.0371 27.1507 36.6524L40.9624 25.4156C41.4436 25.0247 41.5162 24.3174 41.1247 23.8362C40.7337 23.3557 40.0264 23.2824 39.5453 23.674L26.5844 34.2178L21.3663 28.1077Z" fill="url(#paint1_linear)"/>
</g>
<defs>
<linearGradient id="paint0_linear" x1="6.9702" y1="0.000137532" x2="52.2156" y2="0.291952" gradientUnits="userSpaceOnUse">
<stop stop-color="#A5C436"/>
<stop offset="1" stop-color="#74AF35"/>
</linearGradient>
<linearGradient id="paint1_linear" x1="19.5669" y1="23.4222" x2="40.8564" y2="23.7097" gradientUnits="userSpaceOnUse">
<stop stop-color="#A5C436"/>
<stop offset="1" stop-color="#74AF35"/>
</linearGradient>
<clipPath id="clip0">
<rect width="60" height="60" fill="white"/>
</clipPath>
</defs>
</svg>
