<svg width="67" height="67" viewBox="0 0 67 67" fill="none" xmlns="http://www.w3.org/2000/svg">
<g clip-path="url(#clip0)">
<path d="M40.5498 33.2573C41.092 33.2573 41.5313 32.818 41.5313 32.2759C41.5313 31.7337 41.092 31.2944 40.5498 31.2944H27.9634C27.4212 31.2944 26.9819 31.7337 26.9819 32.2759V52.3594C26.9819 52.9015 27.4212 53.3408 27.9634 53.3408H40.5498C41.092 53.3408 41.5313 52.9015 41.5313 52.3594C41.5313 51.8172 41.092 51.3779 40.5498 51.3779H28.9448V43.2992H40.4432C40.9853 43.2992 41.4246 42.8599 41.4246 42.3178C41.4246 41.7756 40.9853 41.3363 40.4432 41.3363H28.9448V33.2575H40.5498V33.2573Z" fill="url(#paint0_linear)"/>
<path d="M54.4126 33.3358C53.2337 33.3358 52.0998 33.5301 51.0382 33.8835L45.7414 24.6945C45.4706 24.2247 44.8704 24.0636 44.401 24.3342C43.9313 24.6048 43.7701 25.2051 44.0407 25.6746L49.2299 34.6772C45.9363 36.5062 43.7017 40.0197 43.7017 44.0466C43.7017 48.8443 46.8724 52.9152 51.2283 54.2743C51.0061 54.7424 50.7661 55.2054 50.5031 55.6608C47.1108 61.5319 41.0372 65.037 34.2565 65.037C27.4757 65.037 21.4023 61.5319 18.01 55.6609C14.6178 49.7899 14.614 42.7775 18.0002 36.9029L34.2111 8.77935C34.2183 8.76705 34.2263 8.75317 34.2566 8.75317C34.287 8.75317 34.2951 8.76718 34.3022 8.77948L41.7536 21.7066C42.0242 22.1762 42.6243 22.3372 43.0939 22.0668C43.5636 21.7962 43.7248 21.1959 43.4542 20.7264L36.0028 7.79934C35.6386 7.16742 34.9858 6.79028 34.2565 6.79028C33.5272 6.79041 32.8743 7.16768 32.5104 7.79934L16.2994 35.9227C12.5591 42.4119 12.5631 50.1577 16.3104 56.643C20.0577 63.1283 26.7666 66.9999 34.2566 66.9999C41.7465 66.9999 48.4554 63.1281 52.2027 56.6429C52.5726 56.0026 52.9041 55.3496 53.2003 54.687C53.5985 54.7322 54.0026 54.7576 54.4128 54.7576C56.5004 54.7576 58.5258 54.1543 60.2698 53.0128C60.7233 52.7159 60.8504 52.1077 60.5535 51.6541C60.2565 51.2006 59.6483 51.0736 59.1948 51.3704C57.7711 52.3021 56.1175 52.7947 54.4128 52.7947C49.5891 52.7947 45.6647 48.8703 45.6647 44.0466C45.6647 39.2229 49.589 35.2985 54.4128 35.2985C59.2365 35.2985 63.1608 39.2229 63.1608 44.0466C63.1608 45.5603 62.7656 47.0544 62.0182 48.3674C61.7499 48.8385 61.9144 49.4377 62.3855 49.706C62.8568 49.9741 63.4558 49.8096 63.7241 49.3387C64.6398 47.7303 65.1239 45.9004 65.1239 44.0467C65.1236 38.1407 60.3187 33.3358 54.4126 33.3358Z" fill="url(#paint1_linear)"/>
<path d="M58.4519 40.811L53.8711 45.3921L50.8116 42.3327C50.4284 41.9495 49.807 41.9494 49.4237 42.3328C49.0404 42.7161 49.0404 43.3374 49.4238 43.7207L53.1772 47.474C53.3688 47.6656 53.6201 47.7614 53.8712 47.7614C54.1223 47.7614 54.3736 47.6656 54.5653 47.474L59.8402 42.1991C60.2235 41.8157 60.2235 41.1943 59.8402 40.811C59.4565 40.4279 58.8352 40.4279 58.4519 40.811Z" fill="url(#paint2_linear)"/>
<path d="M65.456 18.6236C60.7143 17.4971 59.4472 16.23 58.3206 11.4883C58.1489 10.7658 57.5094 10.261 56.7649 10.261C56.7648 10.261 56.7648 10.261 56.7647 10.261C56.0204 10.261 55.3806 10.7654 55.2088 11.4881V11.4882C54.0823 16.23 52.8153 17.4971 48.0734 18.6236C47.3509 18.7954 46.8461 19.4351 46.8462 20.1797C46.8463 20.9241 47.3509 21.5638 48.0735 21.7354C52.8152 22.8618 54.0823 24.1289 55.2088 28.8709C55.3806 29.5934 56.0203 30.0981 56.7649 30.098C57.5093 30.098 58.1489 29.5932 58.3206 28.8708C59.4472 24.1289 60.7143 22.8618 65.4558 21.7354C66.1784 21.5638 66.6832 20.9242 66.6833 20.1797C66.6834 19.4353 66.1786 18.7954 65.456 18.6236ZM57.1185 11.9419C57.1184 11.9424 57.1183 11.9428 57.1183 11.9432C57.1183 11.9429 57.1184 11.9423 57.1185 11.9419ZM56.7647 27.0696C55.5973 23.0719 53.8723 21.3469 49.8747 20.1795C53.8723 19.0121 55.5974 17.287 56.7647 13.2893C57.9321 17.2871 59.6572 19.0122 63.6548 20.1795C59.6573 21.3469 57.9322 23.072 56.7647 27.0696Z" fill="url(#paint3_linear)"/>
<path d="M10.9193 28.2825C13.8283 28.2825 16.474 27.0845 18.3688 24.9091C20.269 22.7273 21.1345 19.8573 20.7434 17.0344C20.6692 16.4974 20.1734 16.1221 19.6366 16.197C19.0995 16.2713 18.7248 16.7669 18.7992 17.3038C19.1125 19.5641 18.4161 21.8662 16.8887 23.6199C15.3723 25.3609 13.2523 26.3197 10.9194 26.3197C8.0499 26.3197 5.47982 24.8365 4.04417 22.352C2.60838 19.8673 2.60694 16.8997 4.03998 14.4135L10.9195 2.47848L17.2169 13.4035C17.4875 13.8732 18.0877 14.0341 18.5573 13.7638C19.0269 13.4932 19.1881 12.8929 18.9175 12.4234L12.1743 0.725092C11.9164 0.277814 11.4356 0 10.9194 0C10.4031 0 9.92224 0.277814 9.66418 0.725223L2.33907 13.4331C0.551792 16.5337 0.553755 20.235 2.3443 23.3337C4.13498 26.4325 7.34051 28.2825 10.9193 28.2825Z" fill="url(#paint4_linear)"/>
<path d="M42.9863 7.11433H44.8394V8.9673C44.8394 9.50945 45.2787 9.94874 45.8209 9.94874C46.363 9.94874 46.8023 9.50945 46.8023 8.9673V7.11433H48.6553C49.1974 7.11433 49.6367 6.67504 49.6367 6.13288C49.6367 5.59073 49.1974 5.15144 48.6553 5.15144H46.8023V3.29834C46.8023 2.75619 46.363 2.31689 45.8209 2.31689C45.2787 2.31689 44.8394 2.75619 44.8394 3.29834V5.15144H42.9863C42.4442 5.15144 42.0049 5.59073 42.0049 6.13288C42.0049 6.67504 42.4442 7.11433 42.9863 7.11433Z" fill="url(#paint5_linear)"/>
<path d="M11.6855 35.1357H9.26465V32.7148C9.26465 32.1727 8.82535 31.7334 8.2832 31.7334C7.74105 31.7334 7.30176 32.1727 7.30176 32.7148V35.1357H4.88086C4.33871 35.1357 3.89941 35.575 3.89941 36.1172C3.89941 36.6593 4.33871 37.0986 4.88086 37.0986H7.30176V39.5195C7.30176 40.0617 7.74105 40.501 8.2832 40.501C8.82535 40.501 9.26465 40.0617 9.26465 39.5195V37.0986H11.6855C12.2277 37.0986 12.667 36.6593 12.667 36.1172C12.667 35.575 12.2276 35.1357 11.6855 35.1357Z" fill="url(#paint6_linear)"/>
</g>
<defs>
<linearGradient id="paint0_linear" x1="27.0994" y1="31.2945" x2="41.1891" y2="31.3715" gradientUnits="userSpaceOnUse">
<stop stop-color="#A5C436"/>
<stop offset="1" stop-color="#74AF35"/>
</linearGradient>
<linearGradient id="paint1_linear" x1="13.9138" y1="6.79042" x2="63.9087" y2="7.14548" gradientUnits="userSpaceOnUse">
<stop stop-color="#A5C436"/>
<stop offset="1" stop-color="#74AF35"/>
</linearGradient>
<linearGradient id="paint2_linear" x1="49.225" y1="40.5237" x2="59.8678" y2="40.6576" gradientUnits="userSpaceOnUse">
<stop stop-color="#A5C436"/>
<stop offset="1" stop-color="#74AF35"/>
</linearGradient>
<linearGradient id="paint3_linear" x1="47.0063" y1="10.261" x2="66.216" y2="10.4201" gradientUnits="userSpaceOnUse">
<stop stop-color="#A5C436"/>
<stop offset="1" stop-color="#74AF35"/>
</linearGradient>
<linearGradient id="paint4_linear" x1="1.16013" y1="6.48293e-05" x2="20.369" y2="0.111646" gradientUnits="userSpaceOnUse">
<stop stop-color="#A5C436"/>
<stop offset="1" stop-color="#74AF35"/>
</linearGradient>
<linearGradient id="paint5_linear" x1="42.0665" y1="2.31691" x2="49.457" y2="2.37812" gradientUnits="userSpaceOnUse">
<stop stop-color="#A5C436"/>
<stop offset="1" stop-color="#74AF35"/>
</linearGradient>
<linearGradient id="paint6_linear" x1="3.97019" y1="31.7334" x2="12.4605" y2="31.8037" gradientUnits="userSpaceOnUse">
<stop stop-color="#A5C436"/>
<stop offset="1" stop-color="#74AF35"/>
</linearGradient>
<clipPath id="clip0">
<rect width="67" height="67" fill="white"/>
</clipPath>
</defs>
</svg>
