<svg width="55" height="64" viewBox="0 0 55 64" fill="none" xmlns="http://www.w3.org/2000/svg">
<path d="M37.0209 54.5873C40.4456 57.5554 44.4411 59.6102 48.4366 61.7792C49.3499 62.2359 51.9755 63.9482 53.117 63.834C54.1444 63.7199 54.2586 62.2358 54.3728 61.4367C54.3728 61.2084 48.0941 58.4686 47.4092 58.1262C42.0438 55.1581 36.9067 51.8475 33.0254 47.0529C31.0847 44.6556 29.144 42.1442 27.7741 39.2902C26.8609 37.4637 26.1759 35.6372 25.491 33.8107C25.0344 32.4408 24.806 30.386 23.6645 29.3586C22.7512 28.6736 22.5229 29.2444 22.5229 30.2718C22.4087 31.9842 23.0937 33.6965 23.5503 35.4089C25.1485 40.4318 28.3449 44.5415 31.313 48.6511C32.6829 50.4777 34.1669 51.8475 35.8793 53.4457C36.2218 53.9024 36.5642 54.2448 37.0209 54.5873Z" fill="#5A6D1D"/>
<path d="M25.7192 0.249071C28.3449 -0.321715 30.8563 1.04817 33.4819 1.96143C37.3633 3.21716 37.8199 6.41357 39.6464 9.72412C40.788 11.8931 42.272 15.2037 41.9296 17.7151C41.5871 20.4549 39.5323 20.1124 37.4774 20.2266C34.3952 20.3407 31.7696 21.9389 29.4864 23.9938C28.0024 25.3637 26.4042 27.9893 24.3494 28.7884C21.7237 29.7016 20.0114 27.4185 18.4132 25.8203C16.13 23.6513 13.3903 23.8796 10.6505 23.423C7.6824 22.9664 5.05678 21.3682 3.1161 19.1992C0.947115 16.6877 -0.651087 11.3223 0.262171 8.01177C0.832957 5.84278 3.23027 4.70121 4.94263 3.78795C9.73723 1.27649 18.299 1.39065 21.0388 7.21267C20.2397 5.38615 22.2945 2.18975 23.7786 1.2765C24.3494 0.70571 25.0343 0.363228 25.7192 0.249071Z" fill="url(#paint0_radial)"/>
<path opacity="0.52" d="M37.3633 20.2265C37.135 20.2265 37.0209 20.3406 36.9067 20.3406C36.7926 20.3406 36.6784 20.3406 36.5642 20.3406C35.5368 20.4548 34.6236 20.7973 33.7103 21.1397H33.5962C32.3404 20.7973 30.9705 20.9114 29.829 21.368C28.6874 21.8247 28.1166 23.1946 27.0892 23.537C29.3723 19.884 31.6555 18.7424 35.8793 17.715C36.7926 17.4867 40.2173 16.8018 40.4456 15.7744C41.0164 13.4912 35.0802 14.9752 36.7925 12.8063C36.9067 12.6921 34.5094 12.6921 34.1669 12.6921C33.2537 13.0346 32.6829 13.6054 32.1121 14.1761C30.6281 15.7743 29.9431 17.9433 28.1166 19.0849C29.0299 17.1442 30.1714 15.2036 31.7696 13.6054C33.1395 12.2355 35.3085 11.0939 35.9934 9.26739C34.7377 8.92492 33.8245 9.4957 32.797 10.0665C33.2537 8.92492 35.0802 7.66919 34.7377 6.41346C34.3953 4.81526 32.6829 5.5002 31.6555 5.72851C31.7696 3.90199 31.0847 3.78784 29.4865 3.55953C29.0299 3.44537 27.7741 3.55953 27.5458 3.55953C26.975 3.44537 26.7467 2.76042 26.0618 2.76042C23.5503 2.64626 24.6919 9.60985 23.8928 11.0939C23.6645 9.38154 23.4362 7.78333 22.9795 6.18513C22.7512 5.50019 22.1804 4.13031 21.4955 4.01615C21.4955 3.90199 21.4955 3.90199 21.6096 3.90199C21.6096 3.78783 21.7238 3.67369 21.838 3.55953C22.0663 3.1029 22.4087 2.64626 22.7512 2.18963L22.8654 2.07548C23.2078 1.61885 23.5503 1.27637 23.8928 1.04806C24.5777 0.591428 25.2627 0.363127 25.8335 0.134813C28.4591 -0.435973 30.9705 0.933914 33.5962 1.84717C37.4775 3.1029 37.9341 6.29929 39.7606 9.60985C40.9022 11.7788 42.3863 15.0894 42.0438 17.6009C41.5872 20.3406 39.5323 20.1123 37.3633 20.2265Z" fill="#F9FF76"/>
<path opacity="0.52" d="M7.56825 18.1715C5.74173 17.6007 -0.0802864 15.2034 4.486 14.4043C7.68241 13.9477 11.2213 14.6326 14.4177 15.0893C13.162 13.4911 9.28061 13.1486 7.33993 12.692C6.31252 12.4637 3.34443 12.2353 2.77364 11.2079C2.20286 10.0664 3.57274 9.95219 4.14353 9.15309C3.34443 8.5823 2.31701 8.12568 1.51791 7.55489C2.65948 6.98411 4.25768 6.75579 5.39925 6.98411C6.42666 7.09827 8.13904 8.12567 9.05229 7.44073C8.13904 6.64163 6.99745 6.07084 5.97003 5.3859C10.993 1.39039 14.9885 4.58681 18.299 8.69647C18.4132 6.29917 15.9017 4.70096 14.646 3.21692C14.4177 2.9886 14.1894 2.64613 13.961 2.30366C10.8788 1.84703 7.33993 2.41781 4.94263 3.67354C3.23027 4.5868 0.832958 5.84252 0.262171 7.89735C-0.651087 11.2079 0.947115 16.5733 3.1161 19.0848C4.7143 20.9113 6.76914 22.3953 9.16644 23.0803C9.39475 22.9661 9.62308 22.7378 9.85139 22.5095C11.6779 20.9113 13.3903 19.998 15.9017 19.7697C12.3629 18.7423 8.4815 21.3679 5.17094 19.3131C5.39925 18.2857 6.65499 18.2857 7.56825 18.1715Z" fill="#F9FF76"/>
<path d="M30.7421 13.1487C31.6554 11.5505 32.4545 9.83813 32.9111 7.89746C32.112 9.26735 31.1988 10.6372 30.1714 11.893C29.4864 12.6921 28.8015 13.4912 28.2307 14.4044C27.774 15.0894 27.6599 15.8885 27.0891 16.5734C26.5183 15.4318 26.5183 13.8336 26.1759 12.5779C26.1759 14.062 26.1759 15.546 25.8334 17.03C25.4909 18.5141 24.9201 21.9388 22.8653 21.368C21.2671 20.9114 20.1255 17.715 19.2123 16.4593C17.2716 13.377 14.0752 9.15319 10.1938 8.46825C12.2487 9.60982 15.2168 12.4638 16.4725 14.6327C17.1574 15.7743 17.1574 16.4593 16.3583 16.8017C15.7875 17.03 13.961 16.9159 13.3902 16.8017C16.0159 17.715 18.4132 18.9707 20.3538 21.2539C21.6096 22.7379 24.5776 26.7334 26.5183 24.3361C28.0024 22.3954 27.4316 19.3132 28.5732 17.1442C29.1439 15.8885 29.9431 14.5186 30.7421 13.1487Z" fill="#F9FF76"/>
<path d="M13.3903 23.7658C12.3629 23.4233 11.2213 23.195 10.1939 23.3091C10.0798 23.3091 9.9656 23.195 9.85144 23.195C11.5638 22.3959 13.7328 22.3959 15.6734 22.8525C16.0159 22.9667 19.8973 24.2224 19.8973 23.7658C19.7831 22.8525 18.984 21.8251 18.4132 21.1402C19.5548 21.5968 20.4681 22.6242 21.7238 22.7384C22.9795 19.4278 20.3539 15.8889 18.6415 13.4916C17.7283 12.2359 15.6735 9.2678 16.5867 7.6696C17.1575 9.83859 17.9566 10.866 19.3265 12.4642C20.5822 13.9482 21.7238 15.5465 22.2946 17.4871C23.2078 16.4597 22.7512 15.0898 22.1804 13.9482C21.9521 13.6058 21.838 13.2633 21.6096 12.9208C20.8105 11.3226 20.6964 9.61028 19.8973 8.01208C18.984 6.0714 16.7009 4.01657 15.1027 2.875C15.2168 2.875 15.331 2.87501 15.4451 2.98916C15.7876 3.10332 16.0159 3.21746 16.3584 3.33162C16.7009 3.44578 17.0433 3.55995 17.3858 3.78826C17.6141 3.90242 17.9566 4.13073 18.1849 4.24488C18.5274 4.4732 18.8699 4.81567 19.2123 5.04398C19.4406 5.15814 19.5548 5.38646 19.7831 5.50062C20.2397 5.95725 20.6964 6.64219 20.9247 7.21298C21.4955 8.46871 21.6096 9.49611 21.9521 10.7518C22.4087 12.6925 23.4361 14.519 23.6645 16.5739C24.0069 18.5145 23.4362 20.9118 23.8928 22.7384C24.3494 24.4507 25.1485 24.3366 25.8335 22.6242C26.5184 20.7977 26.7467 19.4278 28.4591 18.1721C27.8883 19.7703 26.2901 21.711 26.2901 23.5375C29.9431 21.9393 34.7377 18.0579 38.8474 20.2269C38.2766 20.2269 37.82 20.2269 37.2492 20.3411C34.1669 20.4552 31.5413 22.0534 29.2582 24.1083C27.7741 25.4781 26.1759 28.1038 24.1211 28.9029C21.4955 29.8161 19.7831 27.533 18.1849 25.9348C16.9292 24.3366 15.2168 23.9941 13.3903 23.7658Z" fill="#E2B705"/>
<path d="M24.121 33.9253C21.8379 34.0394 21.2671 31.1855 20.468 29.5873C20.1255 28.7882 16.13 25.5918 19.3264 25.5918C20.5822 25.5918 21.952 27.3042 23.2078 26.8475C24.3493 26.5051 25.9475 25.021 27.2033 26.2767C27.2033 27.5325 26.1759 28.5599 26.1759 30.0439C26.0617 31.6421 26.1759 33.9253 24.121 33.9253Z" fill="#5A6D1D"/>
<defs>
<radialGradient id="paint0_radial" cx="0" cy="0" r="1" gradientUnits="userSpaceOnUse" gradientTransform="translate(21.2263 12.6173) rotate(30.4754) scale(18.3033)">
<stop stop-color="#FFBC00"/>
<stop offset="0.0663925" stop-color="#FDC100"/>
<stop offset="0.3369" stop-color="#F6D100"/>
<stop offset="0.5515" stop-color="#F4D600"/>
<stop offset="1" stop-color="#FFF75A"/>
</radialGradient>
</defs>
</svg>
