<svg width="32" height="33" viewBox="0 0 32 33" fill="none" xmlns="http://www.w3.org/2000/svg">
<path d="M12.6537 16.1617C12.5537 16.6617 13.4537 17.6617 13.8537 17.7617C14.3537 17.8617 14.8537 17.5617 15.2537 17.2617C16.1537 16.6617 16.9537 15.9617 17.6537 15.1617C18.1537 14.6617 18.1537 14.0617 18.3537 13.4617C18.5537 12.7617 19.2537 12.5617 19.8537 12.4617C20.6537 12.2617 20.9537 11.3617 20.1537 10.9617C19.3537 10.5617 18.2537 10.8617 17.5537 11.3617C17.2537 11.5617 16.8537 11.8617 16.7537 12.3617C16.6537 12.8617 17.0537 12.9617 17.0537 13.2617C17.0537 13.8617 16.4537 14.3617 16.0537 14.6617C15.3537 15.1617 14.5537 15.5617 13.7537 15.7617C13.4537 15.8617 12.7537 15.8617 12.6537 16.1617Z" fill="#C3A00F"/>
<path d="M13.8537 17.7619C14.0537 17.7619 14.2537 17.7619 14.4537 17.6619C14.3537 17.6619 14.3537 17.5619 14.2537 17.5619C14.1537 17.4619 14.0537 17.3619 14.0537 17.1619C14.0537 17.0619 14.0537 16.9619 14.0537 16.8619C14.0537 16.6619 14.1537 16.5619 14.2537 16.4619C15.1537 15.6619 16.6537 15.5619 17.1537 14.2619C17.3537 13.6619 17.3537 13.0619 17.4537 12.4619C17.4537 12.3619 17.4537 12.2619 17.4537 12.1619C17.7537 11.0619 19.7537 10.2619 20.5537 11.1619C20.4537 10.9619 20.3537 10.8619 20.1537 10.6619C19.3537 10.2619 18.2537 10.5619 17.5537 11.0619C17.2537 11.2619 16.8537 11.5619 16.7537 12.0619C16.6537 12.5619 17.0537 12.6619 17.0537 12.9619C17.0537 13.5619 16.4537 14.0619 16.0537 14.3619C15.3537 14.8619 14.5537 15.2619 13.7537 15.4619C13.4537 15.5619 12.7537 15.5619 12.6537 15.8619C12.5537 16.6619 13.4537 17.6619 13.8537 17.7619Z" fill="#AF8E02"/>
<path d="M13.8537 17.7615C14.3537 17.8615 14.8537 17.5615 15.2537 17.2615C16.1537 16.6615 16.9537 15.9615 17.6537 15.1615C17.9537 14.8615 18.0537 14.5615 18.1537 14.1615C17.7537 14.1615 17.3537 13.8615 17.0537 13.5615C16.8537 14.0615 16.3537 14.4615 16.0537 14.6615C15.3537 15.1615 14.5537 15.5615 13.7537 15.7615C13.4537 15.8615 12.7537 15.8615 12.6537 16.1615C12.5537 16.6615 13.4537 17.6615 13.8537 17.7615Z" fill="#A1A300"/>
<path d="M13.8537 17.7619C14.3537 17.8619 14.8537 17.5619 15.2537 17.2619L15.3537 17.1619C14.9537 17.2619 14.1537 17.3619 14.1537 16.7619C14.2537 16.0619 15.0537 15.8619 15.6537 15.6619C16.2537 15.3619 17.2537 14.4619 17.2537 13.6619C17.1537 13.5619 17.1537 13.5619 17.0537 13.4619C16.8537 13.9619 16.3537 14.3619 16.0537 14.5619C15.3537 15.0619 14.5537 15.4619 13.7537 15.6619C13.4537 15.7619 12.7537 15.7619 12.6537 16.0619C12.5537 16.6619 13.4537 17.6619 13.8537 17.7619Z" fill="#808705"/>
<path opacity="0.72" d="M18.8536 11.5616C18.3536 11.7616 18.0536 12.0616 17.9536 12.5616C17.8536 12.7616 17.6536 13.3616 17.9536 13.4616C18.1536 12.9616 18.5536 12.2615 19.1536 12.1615C19.3536 12.0615 19.5536 12.1616 19.8536 12.0616C20.1536 11.9616 20.2536 11.6616 19.9536 11.4616C19.6536 11.2616 19.1536 11.4616 18.8536 11.5616Z" fill="#E5B623"/>
<path opacity="0.43" d="M20.4537 11.7615C20.0537 12.3615 19.1537 12.2615 18.6537 12.7615C17.8537 13.5615 17.9537 14.7615 16.9537 15.5615C16.3537 16.0615 15.9537 16.4615 15.5537 16.9615C16.2537 16.4615 16.9537 15.8615 17.5537 15.1615C18.0537 14.6615 18.0537 14.0615 18.2537 13.4615C18.4537 12.7615 19.1537 12.5615 19.7537 12.4615C20.2537 12.3615 20.5537 11.9615 20.4537 11.5615C20.5537 11.6615 20.5537 11.6615 20.4537 11.7615Z" fill="#F7F75C"/>
<path d="M12.6536 15.7623C12.7536 16.0623 13.7536 16.3623 14.0536 16.2623C14.3536 16.1623 14.5536 15.6623 14.7536 15.3623C15.0536 14.6623 15.2536 13.8623 15.3536 13.0623C15.4536 12.5623 15.2536 12.1623 15.0536 11.7623C14.9536 11.2623 15.2536 10.8623 15.5536 10.4623C15.9536 9.96231 15.7536 9.3623 15.0536 9.3623C14.4536 9.4623 13.8536 10.0623 13.6536 10.6623C13.5536 10.9623 13.4536 11.2623 13.5536 11.5623C13.6536 11.8623 13.9536 11.7623 14.1536 11.9623C14.4536 12.2623 14.2536 12.9623 14.0536 13.2623C13.8536 13.8623 13.5536 14.4623 13.0536 14.9623C13.0536 15.1623 12.5536 15.5623 12.6536 15.7623Z" fill="#C3A00F"/>
<path d="M14.0538 16.2623C14.1538 16.1623 14.3538 16.0623 14.4538 15.9623C14.3538 15.9623 14.3538 15.9623 14.2538 15.9623C14.1538 15.9623 14.0538 15.8623 13.9538 15.7623C13.8538 15.7623 13.8538 15.6623 13.8538 15.5623C13.8538 15.4623 13.7538 15.3623 13.8538 15.2623C14.0538 14.3623 14.9538 13.6623 14.7538 12.7623C14.6538 12.2623 14.3538 11.9623 14.2538 11.5623C14.2538 11.4623 14.1538 11.4623 14.1538 11.3623C13.8538 10.5623 14.7538 9.26231 15.6538 9.46231C15.5538 9.36231 15.3538 9.3623 15.1538 9.3623C14.5538 9.4623 13.9538 10.0623 13.7538 10.6623C13.6538 10.9623 13.5538 11.2623 13.6538 11.5623C13.7538 11.8623 14.0538 11.7623 14.2538 11.9623C14.5538 12.2623 14.3538 12.9623 14.1538 13.2623C13.9538 13.8623 13.6538 14.4623 13.1538 14.9623C13.0538 15.0623 12.5538 15.4623 12.6538 15.6623C12.7538 16.0623 13.7538 16.3623 14.0538 16.2623Z" fill="#AF8E02"/>
<path d="M14.0537 16.2627C14.3537 16.1627 14.5537 15.6627 14.7537 15.3627C15.0537 14.6627 15.2537 13.8627 15.3537 13.0627C15.3537 12.7627 15.3537 12.4627 15.2537 12.2627C14.9537 12.4627 14.5537 12.4627 14.2537 12.3627C14.3537 12.6627 14.2537 13.1627 14.0537 13.4627C13.8537 14.0627 13.5537 14.6627 13.0537 15.1627C12.9537 15.2627 12.4537 15.6627 12.5537 15.8627C12.7537 16.0627 13.7537 16.3627 14.0537 16.2627Z" fill="#A1A300"/>
<path d="M14.0537 16.2623C14.3537 16.1623 14.5537 15.6623 14.7537 15.3623V15.2623C14.5537 15.4623 14.0537 15.8623 13.8537 15.5623C13.6537 15.0623 14.0537 14.6623 14.2537 14.2623C14.5537 13.8623 14.7537 12.8623 14.4537 12.3623C14.3537 12.3623 14.3537 12.3623 14.2537 12.3623C14.3537 12.6623 14.2537 13.1623 14.0537 13.4623C13.8537 14.0623 13.5537 14.6623 13.0537 15.1623C12.9537 15.2623 12.4537 15.6623 12.5537 15.8623C12.7537 16.0623 13.7537 16.3623 14.0537 16.2623Z" fill="#808705"/>
<path opacity="0.72" d="M14.5537 10.2626C14.3537 10.5626 14.2537 10.8626 14.3537 11.2626C14.3537 11.4626 14.4537 11.8626 14.7537 11.8626C14.6537 11.4626 14.6537 10.8626 14.9537 10.5626C15.0537 10.4626 15.2537 10.3626 15.3537 10.2626C15.4537 10.0626 15.4537 9.86264 15.1537 9.86264C14.9537 9.76264 14.6537 10.0626 14.5537 10.2626Z" fill="#E5B623"/>
<path opacity="0.43" d="M15.6537 9.7625C15.6537 10.2625 15.0537 10.6625 14.9537 11.1625C14.7537 12.0625 15.3537 12.7625 15.0537 13.6625C14.8537 14.1625 14.8537 14.6625 14.7537 15.0625C14.9537 14.4625 15.1537 13.7625 15.2537 13.0625C15.3537 12.5625 15.1537 12.1625 14.9537 11.7625C14.8537 11.2625 15.1537 10.8625 15.4537 10.4625C15.7537 10.1625 15.7537 9.7625 15.5537 9.5625C15.6537 9.6625 15.6537 9.6625 15.6537 9.7625Z" fill="#F7F75C"/>
<path d="M14.0536 17.7628C13.6536 18.1628 14.5536 18.9628 14.9536 19.0628C15.4536 19.1628 15.9536 18.6628 16.3536 18.4628C16.6536 18.2628 16.9536 18.0628 17.2536 17.8628C17.7536 17.4628 18.2536 16.9628 18.7536 16.5628C19.2536 16.1628 19.8536 15.9628 20.5536 16.0628C20.9536 16.0628 22.2536 16.2628 21.8536 15.3628C21.5536 14.8628 20.6536 14.3628 20.0536 14.2628C19.4536 14.1628 18.5536 14.3628 18.1536 14.7628C17.7536 15.1628 17.4536 15.6628 17.0536 16.0628C16.2536 16.7628 15.7536 17.2628 14.6536 17.5628C14.5536 17.5628 14.1536 17.5628 14.0536 17.7628Z" fill="#D8B212"/>
<path d="M18.6537 15.2628C18.9537 14.8628 19.2537 14.5628 19.7537 14.4628C20.3537 14.3628 20.9537 14.5628 21.5537 14.8628C21.1537 14.5628 20.5537 14.3628 20.2537 14.2628C19.6537 14.1628 18.7537 14.3628 18.3537 14.7628C17.9537 15.1628 17.6537 15.6628 17.2537 16.0628C17.1537 16.0628 17.1537 16.1628 17.0537 16.1628C17.5537 16.2628 18.1537 15.8628 18.6537 15.2628Z" fill="#B7970F"/>
<path opacity="0.72" d="M19.5537 15.6629C19.7537 15.6629 20.0537 15.5629 20.2537 15.5629C20.4537 15.5629 20.9537 15.7629 21.1537 15.5629C21.6537 15.2629 20.5537 14.9629 20.3537 14.9629C20.1537 14.9629 18.7537 15.1629 19.2537 15.5629C19.3537 15.6629 19.4537 15.6629 19.5537 15.6629Z" fill="#F4C134"/>
<path d="M14.9536 19.0627C15.4536 19.1627 15.9536 18.6627 16.3536 18.4627C16.6536 18.2627 16.9536 18.0627 17.2536 17.8627C17.7536 17.4627 18.2536 16.9627 18.7536 16.5627C18.9536 16.4627 19.1536 16.3627 19.2536 16.2627C18.6536 16.1627 18.0536 15.7627 17.7536 15.2627C17.5536 15.5627 17.2536 15.8627 16.9536 16.1627C16.1536 16.8627 15.6536 17.3627 14.5536 17.6627C14.3536 17.6627 13.9536 17.7627 13.8536 17.8627C13.5536 18.1627 14.5536 18.9627 14.9536 19.0627Z" fill="#AFAF08"/>
<path d="M14.9536 19.0631C15.1536 19.0631 15.3536 19.0631 15.4536 18.9631C15.1536 18.9631 14.9536 18.8631 14.9536 18.5631C14.9536 18.0631 15.5536 17.7631 15.9536 17.5631C16.8536 17.1631 17.5536 16.3631 18.2536 15.6631C18.0536 15.5631 17.8536 15.3631 17.7536 15.1631C17.5536 15.4631 17.2536 15.7631 16.9536 16.0631C16.1536 16.7631 15.6536 17.2631 14.5536 17.5631C14.3536 17.5631 13.9536 17.6631 13.8536 17.7631C13.5536 18.1631 14.5536 18.9631 14.9536 19.0631Z" fill="#88990A"/>
<path opacity="0.34" d="M21.7537 15.1625C21.8537 15.7625 21.1537 15.8625 20.7537 15.8625C19.1537 15.9625 18.1537 16.3625 17.1537 17.6625C17.0537 17.8625 16.8537 18.0625 16.7537 18.2625C16.9537 18.1625 17.0537 17.9625 17.2537 17.8625C17.7537 17.4625 18.2537 16.9625 18.7537 16.5625C19.2537 16.1625 19.8537 15.9625 20.5537 16.0625C20.9537 16.0625 22.2537 16.2625 21.8537 15.3625C21.7537 15.2625 21.7537 15.1625 21.6537 15.0625C21.6537 15.0625 21.7537 15.0625 21.7537 15.1625Z" fill="#FFFB73"/>
<path d="M13.7537 17.1624C13.2537 17.4624 12.5537 16.4624 12.5537 16.0624C12.5537 15.5624 13.1537 15.0624 13.3537 14.7624C13.5537 14.4624 13.8537 14.2624 14.1537 13.9624C14.6537 13.5624 15.1537 13.0624 15.6537 12.5624C16.1537 12.0624 16.3537 11.5624 16.4537 10.8624C16.4537 10.3624 16.5537 9.16241 17.3537 9.66241C17.8537 9.96241 18.1537 11.0624 18.1537 11.5624C18.1537 12.1624 17.8537 13.0624 17.3537 13.3624C16.8537 13.6624 16.3537 13.8624 15.8537 14.2624C15.0537 14.9624 14.4537 15.3624 14.0537 16.3624C13.9537 16.6624 13.9537 17.0624 13.7537 17.1624Z" fill="#D8B212"/>
<path opacity="0.34" d="M16.8537 12.9627C17.2537 12.7627 17.6537 12.4627 17.7537 12.0627C17.9537 11.4627 17.8537 10.8627 17.6537 10.2627C17.8537 10.6627 18.0537 11.2627 18.0537 11.6627C18.0537 12.2627 17.7537 13.1627 17.2537 13.4627C16.7537 13.7627 16.2537 13.9627 15.7537 14.3627C15.6537 14.3627 15.6537 14.4627 15.5537 14.4627C15.7537 13.8627 16.1537 13.3627 16.8537 12.9627Z" fill="#FFFB73"/>
<path opacity="0.72" d="M16.5537 11.9621C16.6537 11.7621 16.7537 11.4621 16.7537 11.2621C16.7537 11.0621 16.6537 10.5621 16.8537 10.3621C17.2537 9.86209 17.3537 11.0621 17.3537 11.2621C17.3537 11.4621 16.9537 12.8621 16.5537 12.2621C16.5537 12.1621 16.5537 12.0621 16.5537 11.9621Z" fill="#F4C134"/>
<path d="M12.5537 16.0625C12.5537 15.5625 13.1537 15.0625 13.3537 14.7625C13.5537 14.4625 13.8537 14.2625 14.1537 13.9625C14.6537 13.5625 15.1537 13.0625 15.6537 12.5625C15.8537 12.3625 15.9537 12.2625 16.0537 12.0625C16.0537 12.6625 16.3537 13.2625 16.8537 13.6625C16.5537 13.8625 16.1537 14.0625 15.8537 14.2625C15.0537 14.9625 14.4537 15.3625 14.0537 16.3625C13.9537 16.5625 13.9537 16.8625 13.7537 17.0625C13.2537 17.5625 12.5537 16.4625 12.5537 16.0625Z" fill="#AFAF08"/>
<path opacity="0.34" d="M12.5537 16.0621C12.5537 15.8621 12.6537 15.6621 12.7537 15.5621C12.7537 15.8621 12.7537 16.0621 13.0537 16.0621C13.5537 16.1621 13.9537 15.5621 14.1537 15.1621C14.7537 14.3621 15.5537 13.7621 16.3537 13.1621C16.4537 13.3621 16.6537 13.5621 16.7537 13.6621C16.4537 13.8621 16.0537 14.0621 15.7537 14.2621C14.9537 14.9621 14.3537 15.3621 13.9537 16.3621C13.8537 16.5621 13.8537 16.8621 13.6537 17.0621C13.2537 17.5621 12.5537 16.4621 12.5537 16.0621Z" fill="#FFFB73"/>
<path opacity="0.41" d="M17.4537 9.96202C16.8537 9.76202 16.6537 10.462 16.6537 10.862C16.3537 12.462 15.8537 13.362 14.3537 14.162C14.1537 14.262 13.9537 14.362 13.7537 14.562C13.8537 14.362 14.0537 14.262 14.2537 14.062C14.7537 13.662 15.2537 13.162 15.7537 12.662C16.2537 12.162 16.4537 11.662 16.5537 10.962C16.5537 10.462 16.6537 9.26202 17.4537 9.76202C17.5537 9.86202 17.6537 9.96203 17.7537 10.062C17.5537 9.96203 17.4537 9.96202 17.4537 9.96202Z" fill="#8C7929"/>
<path d="M18.8537 0.0619484C20.6537 -0.138052 22.2537 0.961945 23.8537 1.76195C26.2537 2.96195 26.4537 5.06194 27.2537 7.36194C27.8537 8.96194 28.5537 11.1619 28.1537 12.8619C27.4537 15.9619 24.4537 12.9619 23.3537 14.9619C25.5537 15.4619 28.1537 17.1619 29.9537 18.7619C32.3537 20.9619 31.1537 24.5619 30.0537 26.9619C28.2537 30.8619 25.2537 33.2619 20.7537 32.3619C19.6537 32.1619 18.8537 31.6619 17.9537 30.9619C17.0537 30.2619 16.4537 29.1619 15.8537 28.1619C16.1537 28.7619 12.8537 31.1619 12.3537 31.3619C9.85367 32.6619 6.35367 33.1619 3.85367 31.6619C2.75367 30.9619 2.05366 29.9619 1.45366 28.8619C-0.846336 25.2619 -0.346336 19.8619 2.45366 16.9619C3.95366 15.3619 6.65366 14.0619 8.95366 14.3619C6.25366 14.5619 3.85366 12.9619 2.45366 10.7619C1.25366 8.96195 0.553664 5.26194 1.45366 3.16194C1.95366 1.76194 3.65366 1.16195 4.95366 0.761945C8.35366 -0.538055 13.9537 0.161945 15.3537 4.26195C14.9537 3.06195 16.5537 0.961942 17.6537 0.461942C17.9537 0.261942 18.3537 0.161948 18.8537 0.0619484Z" fill="url(#paint0_radial)"/>
<path opacity="0.52" d="M23.3536 14.9619C24.5536 12.9619 27.4536 15.9619 28.1536 12.8619C28.5536 11.1619 27.8536 8.96194 27.2536 7.36194C26.3536 5.06194 26.2536 2.96195 23.8536 1.76195C22.1536 0.961945 20.6536 -0.138052 18.8536 0.0619484C18.4536 0.0619484 17.9536 0.261942 17.4536 0.461942C16.9536 0.761942 16.1536 1.46195 15.6536 2.26195C16.0536 2.36195 16.3536 3.36194 16.4536 3.86194C16.6536 5.06194 16.6536 6.06194 16.6536 7.16194C17.3536 6.26194 17.0536 1.56195 18.7536 1.76195C19.1536 1.86195 19.2536 2.26194 19.6536 2.46194C19.7536 2.56194 20.6536 2.56194 20.9536 2.66194C22.0536 2.96194 22.4536 3.06195 22.2536 4.26195C22.9536 4.16195 24.1536 3.86194 24.2536 4.96194C24.3536 5.86194 23.0536 6.56195 22.6536 7.26195C23.3536 7.06195 24.0536 6.66195 24.8536 7.06195C24.2536 8.26195 22.7536 8.86194 21.7536 9.66194C20.6536 10.5619 19.7536 11.7619 18.9536 12.9619C20.2536 12.2619 20.9536 10.9619 21.9536 9.96194C22.4536 9.56194 22.8536 9.26194 23.4536 9.16194C23.6536 9.16194 25.2536 9.36194 25.1536 9.46194C23.8536 10.7619 27.9536 10.2619 27.3536 11.6619C27.0536 12.3619 24.8536 12.4619 24.1536 12.5619C21.2536 12.8619 19.7536 13.4619 17.8536 15.7619C18.5536 15.5619 19.0536 14.7619 19.8536 14.5619C20.6536 14.3619 21.6536 14.3619 22.3536 14.6619C22.7536 14.6619 23.0536 14.8619 23.3536 14.9619Z" fill="#F9FF76"/>
<path opacity="0.52" d="M5.45372 10.5623C4.25372 10.0623 0.653719 7.96227 3.65372 7.86227C5.75372 7.76227 8.15372 8.56229 10.1537 9.06229C9.45372 7.86229 6.95372 7.36228 5.65372 6.96228C5.05372 6.76228 3.05373 6.36228 2.75373 5.66228C2.45373 4.86228 3.35373 4.96227 3.85373 4.36227C3.35373 3.96227 2.75373 3.56229 2.25373 3.06229C3.05373 2.76229 4.05373 2.76228 4.85373 2.96228C5.55373 3.16228 6.55372 3.96228 7.15372 3.46228C6.55372 2.86228 5.95373 2.36227 5.25373 1.86227C8.85373 -0.337727 11.2537 2.06228 13.1537 4.96228C13.3537 3.36228 11.8537 2.16229 11.1537 1.06229C11.0537 0.862285 10.8537 0.662273 10.7537 0.362273C8.75373 -0.237727 6.35372 -0.0377148 4.65372 0.562285C3.45372 1.06229 1.75372 1.66228 1.15372 2.96228C0.253719 5.06228 0.953719 8.76229 2.15372 10.5623C3.05372 11.8623 4.35373 13.0623 5.85373 13.6623C6.05373 13.5623 6.25373 13.4623 6.35373 13.3623C7.65373 12.4623 8.85373 11.9623 10.5537 11.9623C8.25373 11.0623 5.55373 12.4623 3.55373 10.8623C4.05373 10.4623 4.75372 10.6623 5.45372 10.5623Z" fill="#F9FF76"/>
<path opacity="0.52" d="M1.45366 28.9621C2.15366 30.0621 2.75367 31.0621 3.85367 31.7621C4.55367 32.1621 5.35366 32.4621 6.15366 32.5621C6.85366 31.8621 7.45366 31.0621 7.95366 30.4621C7.25366 30.7621 6.55367 31.1621 5.85367 31.3621C6.35367 30.5621 6.85366 29.9621 7.15366 29.0621C6.45366 29.3621 4.25367 31.5621 3.55367 30.2621C3.75367 30.1621 3.85367 29.8621 4.05367 29.7621C3.65367 29.7621 3.55366 29.6621 3.15366 29.4621C3.45366 29.0621 3.85366 28.8621 4.15366 28.4621C3.65366 28.5621 3.15367 28.4621 2.75367 28.0621C3.85367 27.1621 5.05367 27.0621 6.05367 26.0621C7.15367 24.8621 8.15366 23.5621 9.15366 22.1621C8.25366 23.3621 6.75367 24.1621 5.55367 25.0621C4.75367 25.6621 3.35367 26.7621 2.35367 25.8621C1.35367 24.9621 2.55366 23.2621 3.15366 22.4621C2.75366 22.5621 2.25367 22.7621 1.85367 22.9621C3.15367 21.0621 4.85367 19.3621 6.75367 18.0621C5.55367 18.3621 4.95367 18.5621 4.05367 19.2621C3.25367 19.8621 1.95366 21.4621 1.15366 21.6621C0.853661 19.6621 2.85366 17.2621 4.45366 15.6621C3.65366 16.0621 2.95366 16.6621 2.45366 17.2621C-0.346336 19.9621 -0.846336 25.3621 1.45366 28.9621Z" fill="#F9FF76"/>
<path opacity="0.52" d="M29.9537 26.9625C30.5537 25.5625 31.2537 23.7625 31.2537 22.0625C30.6537 21.7625 29.9537 21.4625 29.2537 21.2625C29.2537 22.0625 29.9537 22.9625 29.7537 23.6625C28.0537 22.0625 26.6537 20.3625 24.1537 19.8625C25.4537 20.6625 26.6537 21.8625 27.5537 23.1625C27.7537 23.4625 29.8537 26.8625 29.3537 26.8625C28.2537 26.9625 27.1537 24.6625 25.6537 24.5625C26.8537 25.5625 29.4537 27.8625 27.8537 29.3625C26.9537 30.1625 26.2537 29.4625 25.5537 29.8625C25.1537 30.0625 25.1537 30.6625 24.5537 30.7625C24.1537 30.8625 23.5537 30.5625 23.2537 30.3625C23.5537 31.2625 22.2537 31.5625 21.6537 31.1625C20.8537 30.7625 20.9537 29.8625 20.9537 29.0625C20.8537 27.1625 20.5537 25.6625 19.4537 24.0625C19.4537 26.0625 19.4537 28.8625 19.9537 30.7625C17.7537 29.5625 17.6537 26.6625 17.4537 24.4625C17.2537 22.3625 16.8537 20.0625 17.4537 18.0625C15.4537 19.5625 15.4537 22.8625 15.7537 25.1625C16.0537 27.2625 16.8537 29.1625 17.9537 30.9625C18.7537 31.5625 19.5537 32.0625 20.6537 32.2625C25.1537 33.2625 28.1537 30.8625 29.9537 26.9625Z" fill="#F9FF76"/>
<path d="M2.45357 16.9619C1.15357 18.3619 0.353564 20.1619 0.153564 22.1619C0.553564 21.0619 3.15357 17.7619 3.95357 17.0619C6.55357 14.6619 9.35357 15.7619 10.4536 16.1619C10.8536 16.3619 12.0536 16.8619 12.2536 16.1619C12.4536 15.6619 11.8536 15.3619 11.5536 15.2619C10.3536 14.7619 9.05358 14.7619 7.85358 14.4619C5.75358 14.5619 3.65357 15.6619 2.45357 16.9619Z" fill="#F9FF76"/>
<path d="M17.6537 21.5619C18.1537 22.4619 18.6537 23.3619 19.1537 24.2619C18.7537 23.5619 18.4537 22.3619 18.2537 21.5619C18.0537 21.0619 17.4537 19.4619 17.9537 18.9619C19.2537 17.7619 21.9537 21.5619 22.6537 22.2619C23.2537 22.9619 23.8537 23.8619 24.6537 24.3619C24.4537 23.4619 23.9537 22.5619 23.3537 21.8619C23.2537 21.6619 21.5537 19.8619 21.4537 19.9619C21.9537 19.5619 23.6537 20.7619 24.0537 21.0619C23.3537 19.9619 21.6537 19.1619 20.6537 18.3619C19.6537 17.6619 18.6537 16.8619 17.4537 17.4619C16.1537 18.0619 15.1537 19.7619 14.9537 21.1619C14.4537 23.7619 15.2537 26.1619 15.7537 28.6619C15.9537 28.4619 16.0537 28.2619 15.9537 28.1619C16.4537 29.1619 17.1537 30.2619 18.0537 30.9619C18.8537 31.6619 19.7537 32.1619 20.8537 32.3619C23.1537 32.8619 25.1537 32.3619 26.7537 31.3619C25.7537 32.0619 20.0537 32.8619 17.4537 28.4619C14.9537 24.1619 16.6537 19.5619 16.5537 19.4619C16.8537 20.1619 17.2537 20.8619 17.6537 21.5619Z" fill="#F9FF76"/>
<path d="M26.8536 13.1623C26.0536 13.7623 23.9536 13.7623 22.9536 13.8623C22.1536 13.9623 21.3536 13.6623 20.5536 13.6623C21.1536 12.7623 22.5536 12.1623 23.4536 11.5623C22.1536 11.6623 20.9536 12.2623 19.9536 13.1623C19.5536 13.4623 18.9536 14.2623 18.5536 14.3623C17.2536 14.8623 19.0536 11.9623 19.2536 11.6623C20.6536 9.76231 22.2536 8.0623 22.9536 5.8623C22.3536 6.7623 21.5536 7.5623 20.8536 8.3623C20.3536 8.8623 19.7536 9.3623 19.3536 9.8623C18.9536 10.2623 18.8536 10.8623 18.4536 11.1623C18.1536 10.3623 18.2536 9.36231 18.1536 8.46231C18.0536 9.46231 17.8536 10.3623 17.5536 11.3623C17.1536 12.5623 14.5536 16.8623 17.2536 16.8623C18.1536 16.8623 18.9536 16.4623 19.7536 16.0623C20.9536 15.3623 22.1536 14.9623 23.5536 14.9623C24.7536 13.1623 27.6536 15.9623 28.3536 12.9623C28.5536 12.1623 28.5536 10.9623 28.2536 10.1623C28.0536 10.1623 28.4536 11.7623 26.8536 13.1623Z" fill="#F9FF76"/>
<path d="M16.5537 8.76231C15.8537 7.76231 15.6537 7.26231 15.5537 5.96231C15.4537 4.96231 15.1537 4.26231 15.0537 4.16231C14.4537 2.46231 13.0537 1.4623 11.5537 0.862305C12.4537 1.7623 13.9537 3.36231 14.3537 4.66231C14.7537 5.76231 14.6537 6.96232 15.0537 8.06232C15.3537 8.96232 15.9537 10.3623 15.1537 11.1623C14.9537 9.86231 14.2537 8.76231 13.5537 7.66231C12.7537 6.56231 12.3537 5.76231 12.1537 4.26231C11.3537 5.26231 12.5537 7.36231 13.0537 8.26231C13.7537 9.46231 14.6537 10.5623 14.2537 12.1623C13.6537 11.9623 12.9537 11.4623 12.4537 11.0623C12.6537 11.5623 13.2537 11.8623 13.3537 12.2623C13.5537 13.1623 11.4537 12.9623 10.7537 13.0623C9.35366 13.2623 8.05366 13.7623 6.75366 14.1623C7.05366 14.2623 7.45366 14.3623 7.75366 14.3623C8.75366 14.3623 9.95366 14.6623 10.9537 14.9623C11.8537 15.2623 12.5537 16.0623 13.5537 16.4623C14.9537 17.0623 16.2537 14.8623 16.7537 13.7623C17.3537 12.3623 17.4537 10.1623 16.5537 8.76231Z" fill="#E2B705"/>
<path d="M31.1537 20.9621C30.9537 20.1621 30.6537 19.3621 29.9537 18.7621C28.2537 17.1621 25.5537 15.4621 23.3537 14.9621C22.3537 14.5621 21.3537 14.2621 20.4537 14.4621C19.1537 14.7621 17.5537 16.4621 16.3537 17.2621C15.3537 17.9621 15.6537 17.9621 14.4537 17.5621C13.3537 17.1621 12.6537 15.9621 11.6537 15.6621C10.4537 15.2621 8.75371 16.2621 7.85371 16.8621C8.55371 16.6621 10.1537 16.3621 10.7537 16.6621C9.55371 20.0621 5.75371 20.4621 3.55371 22.8621C3.95371 22.4621 5.95371 22.0621 6.55371 21.7621C7.25371 21.4621 7.9537 21.2621 8.6537 20.7621C9.4537 20.1621 10.8537 18.3621 11.9537 19.0621C11.7537 19.7621 11.0537 20.3621 10.6537 21.0621C11.5537 20.9621 12.0537 20.1621 12.6537 19.4621C13.2537 21.4621 10.9537 24.2621 9.85371 25.7621C10.6537 24.6621 11.8537 24.0621 12.5537 22.7621C13.1537 21.7621 13.6537 20.4621 14.4537 19.6621C15.0537 20.7621 14.7537 22.3621 14.7537 23.6621C14.7537 25.0621 14.5537 26.5621 13.7537 27.7621C12.3537 29.7621 10.8537 32.2621 6.9537 32.6621C8.8537 32.8621 10.9537 32.3621 12.5537 31.4621C13.0537 31.1621 16.3537 28.8621 16.0537 28.2621C16.1537 28.5621 15.1537 24.6621 15.3537 22.2621C15.4537 20.5621 16.1537 18.1621 17.8537 17.3621C18.5537 17.0621 19.2537 17.1621 19.8537 17.5621C20.2537 17.7621 21.7537 18.6621 21.7537 19.0621C21.7537 18.3621 21.1537 17.2621 20.6537 16.7621C23.4537 17.0621 26.3537 19.4621 28.6537 21.2621C27.6537 18.7621 25.4537 17.6621 23.3537 16.2621C25.6537 16.3621 27.4537 17.1621 29.2537 18.5621C29.8537 19.1621 30.4537 20.0621 31.1537 20.9621Z" fill="#E2B705"/>
<path d="M16.3537 17.3627C16.1537 17.5627 15.8537 17.6627 15.5537 17.6627C15.3537 17.6627 14.9537 17.4627 14.7537 17.3627C14.2537 17.1627 13.7537 16.9627 13.2537 16.7627C12.8537 16.5627 12.5537 16.2627 12.1537 16.0627C11.3537 15.7627 10.2537 15.8627 9.55371 16.3627C10.3537 16.3627 11.4537 16.2627 12.0537 16.8627C11.8537 17.2627 11.4537 17.2627 11.2537 17.6627C11.5537 17.4627 12.0537 17.4627 12.4537 17.5627C13.1537 17.7627 12.9537 17.9627 12.7537 18.4627C12.5537 19.2627 12.7537 20.2627 12.6537 21.1627C12.8537 20.4627 13.2537 19.3627 13.7537 18.8627C14.8537 17.8627 15.0537 19.9627 14.9537 20.6627C15.5537 19.4627 16.1537 18.3627 17.2537 17.5627C17.1537 17.5627 17.0537 17.4627 16.9537 17.4627C17.3537 16.8627 17.8537 16.3627 18.2537 15.7627C17.9537 16.1627 17.2537 16.6627 16.7537 17.0627C16.7537 17.0627 16.5537 17.2627 16.3537 17.3627Z" fill="#CEA90F"/>
<path d="M12.7536 16.8623C12.8536 17.2623 14.1536 17.7624 14.5536 17.6623C15.0536 17.4623 15.3536 16.9624 15.5536 16.5624C16.0536 15.5624 16.3536 14.5624 16.5536 13.4624C16.6536 12.7624 16.4536 12.2623 16.2536 11.6623C16.0536 10.9623 16.5536 10.4624 16.9536 9.96235C17.5536 9.36235 17.2536 8.46236 16.3536 8.56236C15.4536 8.66236 14.6536 9.46235 14.3536 10.1623C14.1536 10.5623 14.0536 10.9624 14.2536 11.4624C14.4536 11.8624 14.7536 11.7624 15.0536 12.0624C15.3536 12.5624 15.1536 13.3623 14.8536 13.8623C14.4536 14.6623 14.0536 15.3624 13.4536 15.9624C13.2536 16.1624 12.6536 16.5623 12.7536 16.8623Z" fill="#C3A00F"/>
<path d="M14.5536 17.6621C14.7536 17.5621 14.9536 17.4621 15.0536 17.2621C14.9536 17.2621 14.9536 17.2621 14.8536 17.2621C14.6536 17.2621 14.5536 17.1621 14.4536 17.0621C14.3536 17.0621 14.3536 16.9621 14.3536 16.8621C14.2536 16.7621 14.2536 16.5621 14.3536 16.4621C14.6536 15.2621 15.9536 14.4621 15.6536 13.1621C15.5536 12.5621 15.1536 12.0621 14.9536 11.5621C14.8536 11.4621 14.8536 11.4621 14.8536 11.3621C14.4536 10.2621 15.8536 8.56211 16.9536 8.86211C16.8536 8.76211 16.6536 8.66211 16.3536 8.66211C15.4536 8.76211 14.6536 9.56212 14.3536 10.2621C14.1536 10.6621 14.0536 11.0621 14.2536 11.5621C14.4536 11.9621 14.7536 11.8621 15.0536 12.1621C15.3536 12.6621 15.1536 13.4621 14.8536 13.9621C14.4536 14.7621 14.0536 15.4621 13.4536 16.0621C13.2536 16.2621 12.6536 16.6621 12.7536 16.9621C12.8536 17.3621 14.1536 17.7621 14.5536 17.6621Z" fill="#AF8E02"/>
<path d="M14.5536 17.6623C15.0536 17.4623 15.3536 16.9623 15.5536 16.5623C16.0536 15.5623 16.3536 14.5623 16.5536 13.4623C16.6536 13.0623 16.5536 12.6623 16.4536 12.3623C16.0536 12.5623 15.5536 12.5623 15.1536 12.3623C15.2536 12.8623 15.0536 13.4623 14.8536 13.8623C14.4536 14.6623 14.0536 15.3623 13.4536 15.9623C13.2536 16.1623 12.6536 16.5623 12.7536 16.8623C12.8536 17.3623 14.1536 17.7623 14.5536 17.6623Z" fill="#A1A300"/>
<path d="M14.5536 17.6623C15.0536 17.4623 15.3536 16.9623 15.5536 16.5623C15.5536 16.4623 15.5536 16.4623 15.6536 16.3623C15.3536 16.6623 14.7536 17.1623 14.4536 16.6623C14.1536 16.0623 14.7536 15.4623 15.1536 14.9623C15.5536 14.3623 15.9536 13.1623 15.4536 12.4623C15.3536 12.4623 15.2536 12.4623 15.1536 12.3623C15.2536 12.8623 15.0536 13.4623 14.8536 13.8623C14.4536 14.6623 14.0536 15.3623 13.4536 15.9623C13.2536 16.1623 12.6536 16.5623 12.7536 16.8623C12.8536 17.3623 14.1536 17.7623 14.5536 17.6623Z" fill="#808705"/>
<path opacity="0.72" d="M15.5536 9.66249C15.2536 10.0625 15.1536 10.4625 15.2536 10.9625C15.3536 11.1625 15.3536 11.8625 15.7536 11.7625C15.6536 11.1625 15.6536 10.4625 16.0536 9.96249C16.2536 9.76249 16.4536 9.7625 16.5536 9.5625C16.7536 9.2625 16.6536 9.0625 16.3536 9.0625C16.1536 9.0625 15.7536 9.46249 15.5536 9.66249Z" fill="#E5B623"/>
<path opacity="0.43" d="M17.1537 8.96211C17.1537 9.66211 16.3537 10.0621 16.1537 10.7621C15.8537 11.8621 16.5537 12.8621 16.1537 14.0621C15.9537 14.7621 15.8537 15.3621 15.7537 15.9621C16.1537 15.1621 16.3537 14.2621 16.5537 13.3621C16.6537 12.6621 16.4537 12.1621 16.2537 11.5621C16.0537 10.8621 16.5537 10.3621 16.9537 9.86211C17.3537 9.46211 17.3537 8.96211 17.0537 8.66211C17.0537 8.86211 17.1537 8.96211 17.1537 8.96211Z" fill="#F7F75C"/>
<path d="M12.4537 16.4619C12.7537 16.6619 13.7537 16.4619 13.9537 16.1619C14.1537 15.8619 14.1537 15.3619 14.0537 15.0619C13.9537 14.2619 13.6537 13.4619 13.3537 12.7619C13.1537 12.2619 12.7537 12.0619 12.4537 11.7619C12.0537 11.4619 12.1537 10.8619 12.2537 10.4619C12.3537 9.86191 11.8537 9.36191 11.2537 9.76191C10.7537 10.1619 10.5537 11.0619 10.6537 11.6619C10.7537 11.9619 10.8537 12.2619 11.0537 12.4619C11.3537 12.6619 11.5537 12.4619 11.7537 12.5619C12.1537 12.7619 12.3537 13.3619 12.3537 13.7619C12.4537 14.3619 12.4537 15.0619 12.3537 15.6619C12.5537 15.8619 12.3537 16.3619 12.4537 16.4619Z" fill="#C3A00F"/>
<path d="M13.9537 16.2617C14.0537 16.1617 14.0537 15.9617 14.0537 15.8617L13.9537 15.9617C13.8537 15.9617 13.7537 16.0617 13.6537 15.9617C13.5537 15.9617 13.5537 15.9617 13.4537 15.8617C13.3537 15.7617 13.2537 15.6617 13.2537 15.5617C12.9537 14.6617 13.3537 13.6617 12.6537 12.9617C12.3537 12.6617 11.8537 12.4617 11.5537 12.2617C11.4537 12.2617 11.4537 12.1617 11.3537 12.1617C10.6537 11.6617 10.8537 10.0617 11.6537 9.76172C11.5537 9.76172 11.3537 9.76171 11.2537 9.86171C10.7537 10.2617 10.5537 11.1617 10.6537 11.7617C10.7537 12.0617 10.8537 12.3617 11.0537 12.5617C11.3537 12.7617 11.5537 12.5617 11.7537 12.6617C12.1537 12.8617 12.3537 13.4617 12.3537 13.8617C12.4537 14.4617 12.4537 15.1617 12.3537 15.7617C12.3537 15.9617 12.1537 16.4617 12.2537 16.6617C12.7537 16.7617 13.7537 16.4617 13.9537 16.2617Z" fill="#AF8E02"/>
<path d="M13.9537 16.2621C14.1537 15.9621 14.1537 15.4621 14.0537 15.1621C13.9537 14.3621 13.6537 13.5621 13.3537 12.8621C13.2537 12.5621 13.0537 12.3621 12.8537 12.1621C12.6537 12.4621 12.3537 12.6621 12.0537 12.7621C12.3537 12.9621 12.4537 13.4621 12.4537 13.7621C12.5537 14.3621 12.5537 15.0621 12.4537 15.6621C12.4537 15.8621 12.2537 16.3621 12.3537 16.5621C12.7537 16.7621 13.7537 16.4621 13.9537 16.2621Z" fill="#A1A300"/>
<path d="M13.9536 16.2617C14.1536 15.9617 14.1536 15.4617 14.0536 15.1617V15.0617C13.9536 15.3617 13.7536 15.9617 13.4536 15.7617C12.9536 15.4617 13.1536 14.8617 13.1536 14.4617C13.1536 13.9617 12.8536 12.9617 12.3536 12.7617C12.2536 12.7617 12.2536 12.7617 12.1536 12.8617C12.4536 13.0617 12.5536 13.5617 12.5536 13.8617C12.6536 14.4617 12.6536 15.1617 12.5536 15.7617C12.5536 15.9617 12.3536 16.4617 12.4536 16.6617C12.7536 16.7617 13.7536 16.4617 13.9536 16.2617Z" fill="#808705"/>
<path opacity="0.72" d="M11.2537 10.862C11.2537 11.262 11.3537 11.5621 11.6537 11.7621C11.7537 11.8621 12.0537 12.2621 12.2537 12.0621C11.9537 11.7621 11.6537 11.2621 11.7537 10.7621C11.7537 10.5621 11.8537 10.4621 11.8537 10.2621C11.8537 9.96206 11.7537 9.86206 11.4537 10.0621C11.3537 10.2621 11.2537 10.562 11.2537 10.862Z" fill="#E5B623"/>
<path opacity="0.43" d="M11.9536 9.76172C12.2536 10.2617 11.8536 10.7617 12.0536 11.2617C12.3536 12.0617 13.2536 12.3617 13.4536 13.3617C13.5536 13.8617 13.7536 14.3617 13.9536 14.7617C13.8536 14.0617 13.6536 13.4617 13.3536 12.8617C13.1536 12.3617 12.7536 12.1617 12.4536 11.8617C12.0536 11.5617 12.1536 10.9617 12.2536 10.5617C12.3536 10.0617 12.1536 9.76172 11.9536 9.76172C11.8536 9.76172 11.9536 9.76172 11.9536 9.76172Z" fill="#F7F75C"/>
<path d="M14.7537 17.4626C14.6537 18.0626 15.8537 18.2626 16.2537 18.1626C16.7537 17.9626 16.9537 17.2626 17.1537 16.8626C17.3537 16.5626 17.4537 16.1626 17.5537 15.8626C17.7537 15.2626 17.9537 14.5626 18.1537 13.9626C18.3537 13.3626 18.8537 12.8626 19.4537 12.5626C19.8537 12.3626 21.0537 11.8626 20.2537 11.2626C19.7537 10.9626 18.6537 11.0626 18.1537 11.2626C17.5537 11.4626 16.8537 12.0626 16.7537 12.6626C16.6537 13.2626 16.6537 13.7626 16.4537 14.3626C16.1537 15.3626 15.9537 16.1626 15.1537 16.8626C15.0537 17.0626 14.7537 17.2626 14.7537 17.4626Z" fill="#D8B212"/>
<path d="M17.3538 12.9621C17.3538 12.4621 17.4538 12.0621 17.8538 11.7621C18.3538 11.3621 18.9538 11.1621 19.5538 11.1621C19.0538 11.1621 18.4537 11.2621 18.1537 11.3621C17.5537 11.5621 16.8538 12.1621 16.7538 12.7621C16.6538 13.3621 16.6538 13.8621 16.4538 14.4621C16.4538 14.5621 16.4538 14.5621 16.3538 14.6621C16.9538 14.3621 17.2538 13.7621 17.3538 12.9621Z" fill="#B7970F"/>
<path opacity="0.72" d="M18.3538 12.8629C18.5538 12.7629 18.7538 12.4629 18.8538 12.3629C19.0538 12.2629 19.5538 12.163 19.6538 11.963C19.9538 11.363 18.8538 11.7629 18.6538 11.8629C18.4538 11.9629 17.3538 12.863 18.0538 12.963C18.1538 12.963 18.2538 12.9629 18.3538 12.8629Z" fill="#F4C134"/>
<path d="M16.1537 18.1627C16.6537 17.9627 16.8537 17.2627 17.0537 16.8627C17.2537 16.5627 17.3537 16.1627 17.4537 15.8627C17.6537 15.2627 17.8537 14.5627 18.0537 13.9627C18.1537 13.7627 18.2537 13.5627 18.3537 13.3627C17.7537 13.5627 17.0537 13.5627 16.5537 13.2627C16.5537 13.6627 16.4537 14.0627 16.3537 14.3627C16.0537 15.3627 15.8537 16.1627 15.0537 16.8627C14.9537 17.0627 14.6537 17.1627 14.5537 17.4627C14.5537 18.0627 15.7537 18.2627 16.1537 18.1627Z" fill="#AFAF08"/>
<path d="M16.1536 18.1627C16.3536 18.0627 16.4536 17.9627 16.5536 17.7627C16.3536 17.8627 16.0536 17.9627 15.9536 17.6627C15.6536 17.1627 16.0536 16.6627 16.3536 16.2627C16.9536 15.3627 17.1536 14.3627 17.3536 13.4627C17.1536 13.4627 16.8536 13.3627 16.6536 13.2627C16.6536 13.6627 16.5536 14.0627 16.4536 14.3627C16.1536 15.3627 15.9536 16.1627 15.1536 16.8627C15.0536 17.0627 14.7536 17.1627 14.6536 17.4627C14.5536 18.0627 15.7536 18.2627 16.1536 18.1627Z" fill="#88990A"/>
<path opacity="0.34" d="M19.9537 11.2622C20.3537 11.7622 19.8537 12.1622 19.4537 12.3622C18.1537 13.2622 17.4537 14.1622 17.3537 15.7622C17.3537 16.0622 17.3537 16.2622 17.2537 16.4622C17.3537 16.2622 17.4537 16.0622 17.4537 15.8622C17.6537 15.2622 17.8537 14.5622 18.0537 13.9622C18.2537 13.3622 18.7537 12.8622 19.3537 12.5622C19.7537 12.3622 20.9537 11.8622 20.1537 11.2622C20.0537 11.2622 19.9537 11.1622 19.9537 11.2622C19.8537 11.1622 19.8537 11.2622 19.9537 11.2622Z" fill="#FFFB73"/>
<path d="M14.1537 17.1623C13.9537 17.6623 12.8537 17.1623 12.5537 16.8623C12.2537 16.4623 12.5537 15.7623 12.5537 15.2623C12.5537 14.8623 12.6537 14.5623 12.7537 14.1623C12.9537 13.5623 13.1537 12.8623 13.3537 12.2623C13.5537 11.5623 13.4537 10.9623 13.1537 10.3623C12.9537 9.9623 12.2537 8.8623 13.2537 8.8623C13.8537 8.8623 14.6537 9.66232 14.9537 10.0623C15.2537 10.5623 15.4537 11.4623 15.2537 12.0623C15.0537 12.5623 14.6537 13.0623 14.4537 13.6623C14.1537 14.6623 13.8537 15.3623 14.0537 16.4623C14.1537 16.6623 14.2537 16.9623 14.1537 17.1623Z" fill="#D8B212"/>
<path opacity="0.34" d="M14.6536 11.9621C14.8536 11.5621 15.0536 11.1621 14.9536 10.6621C14.7536 10.0621 14.4536 9.56211 13.9536 9.16211C14.3536 9.46211 14.8536 9.86211 15.0536 10.1621C15.3536 10.6621 15.5536 11.5621 15.3536 12.1621C15.1536 12.6621 14.7536 13.1621 14.5536 13.7621C14.5536 13.8621 14.5536 13.8621 14.4536 13.9621C14.1536 13.2621 14.2536 12.5621 14.6536 11.9621Z" fill="#FFFB73"/>
<path opacity="0.72" d="M13.8537 11.2618C13.7537 11.0618 13.7537 10.7618 13.6537 10.5618C13.5537 10.3618 13.2537 9.96184 13.2537 9.76184C13.3537 9.16184 13.9537 10.0618 14.1537 10.2618C14.2537 10.4618 14.6537 11.8618 13.9537 11.4618C13.9537 11.4618 13.9537 11.3618 13.8537 11.2618Z" fill="#F4C134"/>
<path d="M12.5537 16.8621C12.2537 16.4621 12.5537 15.7621 12.5537 15.2621C12.5537 14.8621 12.6537 14.5621 12.7537 14.1621C12.9537 13.5621 13.1537 12.8621 13.3537 12.2621C13.4537 12.0621 13.4537 11.8621 13.4537 11.6621C13.7537 12.1621 14.3537 12.5621 14.9537 12.6621C14.7537 12.9621 14.5537 13.3621 14.4537 13.6621C14.1537 14.6621 13.8537 15.3621 14.0537 16.4621C14.0537 16.6621 14.2537 16.9621 14.1537 17.1621C13.9537 17.7621 12.8537 17.1621 12.5537 16.8621Z" fill="#AFAF08"/>
<path opacity="0.34" d="M12.5536 16.8619C12.4536 16.7619 12.4536 16.5619 12.4536 16.3619C12.5536 16.5619 12.7536 16.7619 12.9536 16.6619C13.4536 16.4619 13.4536 15.7619 13.4536 15.3619C13.4536 14.3619 13.9536 13.4619 14.2536 12.4619C14.4536 12.5619 14.6536 12.6619 14.9536 12.6619C14.7536 12.9619 14.5536 13.3619 14.4536 13.6619C14.1536 14.6619 13.8536 15.3619 14.0536 16.4619C14.0536 16.6619 14.2536 16.9619 14.1536 17.1619C13.9536 17.7619 12.8536 17.1619 12.5536 16.8619Z" fill="#FFFB73"/>
<path opacity="0.41" d="M13.5537 9.06192C12.9537 9.16192 13.1537 9.86192 13.2537 10.2619C13.8537 11.7619 13.8537 12.8619 12.9537 14.2619C12.8537 14.4619 12.6537 14.6619 12.5537 14.8619C12.5537 14.6619 12.6537 14.4619 12.7537 14.2619C12.9537 13.6619 13.1537 12.9619 13.3537 12.3619C13.5537 11.6619 13.4537 11.0619 13.1537 10.4619C12.9537 10.0619 12.2537 8.96191 13.2537 8.96191C13.3537 8.96191 13.4537 9.06192 13.6537 9.06192C13.6537 9.06192 13.6537 9.06192 13.5537 9.06192Z" fill="#8C7929"/>
<defs>
<radialGradient id="paint0_radial" cx="0" cy="0" r="1" gradientUnits="userSpaceOnUse" gradientTransform="translate(14.3057 17.0731) rotate(37.1117) scale(18.4023)">
<stop stop-color="#FFBC00"/>
<stop offset="0.0663925" stop-color="#FDC100"/>
<stop offset="0.3369" stop-color="#F6D100"/>
<stop offset="0.5515" stop-color="#F4D600"/>
<stop offset="1" stop-color="#FFF75A"/>
</radialGradient>
</defs>
</svg>
