<svg width="724" height="51" fill="none" xmlns="http://www.w3.org/2000/svg"><g clip-path="url(#clip0)" fill-opacity=".08"><path d="M194.418-57.622l-203.42 203.97v3.401L197.89-57.622h-3.472zm10.498 0L-9.003 156.874v3.401l217.31-217.897h-3.391zm-20.916 0L-9.003 135.903v3.4L187.392-57.622H184zm-20.996 0L-9.003 114.85v3.4l175.48-175.872h-3.473zm10.498 0L-9.003 125.376v3.401l185.897-186.4h-3.392zm-31.413 0L-9.003 93.878v3.4l154.483-154.9h-3.391zm73.325 0L-9.003 167.4v3.401L218.805-57.622h-3.391zm-62.827 0L-9.003 104.404v3.401L155.98-57.622h-3.392zm125.573 0L45.587 175.579h3.392L281.552-57.622h-3.392zm-10.417 0L35.17 175.579h3.392L271.134-57.622h-3.391zm20.915 0L56.085 175.579h3.392L292.05-57.622h-3.392zm-52.329 0L3.757 175.579h3.391L239.721-57.622h-3.392zm20.916 0L24.672 175.579h3.472L260.717-57.622h-3.472zm-31.414 0L-6.742 175.579h3.392L229.223-57.622h-3.392zm20.915 0L14.174 175.579h3.472L250.22-57.622h-3.473zm-146.569 0L-9.003 51.853v3.4L103.65-57.621h-3.473zm31.414 0L-9.003 83.35v3.401L135.063-57.622h-3.472zm-94.16 0l-46.434 46.56v3.4l49.826-49.96H37.43zm10.417 0L-9.002-.617v3.4L51.32-57.621h-3.473zm-52.328 0l-4.523 4.534v3.401l7.914-7.935H-4.48zm62.826 0L-9.003 9.909v3.401l70.741-70.932h-3.392zm-41.911 0L-9.003-32.116v3.401l28.91-28.907h-3.472zm-10.417 0l-15.02 15.06v3.402l18.41-18.462h-3.39zm20.915 0L-9.003-21.59v3.4l39.328-39.433h-3.392zm83.742 0L-9.003 62.379v3.401L114.148-57.622h-3.473zm10.498 0L-9.003 72.906v3.4L124.565-57.621h-3.392zm177.983 0L66.583 175.579h3.392L302.548-57.622h-3.392zm-209.396 0l-98.763 99.03v3.4L93.152-57.622H89.76zm-20.996 0L-9.003 20.355v3.4l81.24-81.377h-3.473zm10.498 0L-9.003 30.88v3.4l91.737-91.903h-3.472zm189.611 233.201L397.999 46.104v-3.401L265.481 175.579h3.392zm31.414 0l97.712-97.977v-3.4L296.895 175.578h3.392zm-10.418 0l108.13-108.422v-3.401L286.397 175.579h3.472zm20.916 0l87.214-87.45v-3.401l-90.606 90.851h3.392zm-1.212-233.201L77.001 175.579h3.391L312.965-57.622h-3.392zm-61.615 233.201L397.999 25.132v-3.4L244.566 175.578h3.392zm10.498 0l139.543-139.92v-3.401L254.983 175.579h3.473zm20.915 0L397.999 56.63v-3.4l-122.02 122.349h3.392zm41.912 0l76.716-76.924v-3.4l-80.189 80.324h3.473zm52.329 0l24.387-24.454v-3.4l-27.86 27.854h3.473zm10.498 0l13.889-13.927v-3.401l-17.362 17.328h3.473zm10.417 0l3.472-3.482v-3.401l-6.864 6.883h3.392zm-41.831 0l45.303-45.426v-3.4l-48.775 48.826h3.472zm10.417 0l34.886-34.98v-3.401l-38.277 38.381h3.391zm-20.915 0l55.801-55.952v-3.401l-59.193 59.353h3.392zm-10.498 0l66.299-66.478V105.7l-69.691 69.879h3.392zm-94.24 0L397.999 14.605v-3.4L234.068 175.579h3.392zM351.485-57.622L118.912 175.579h3.392L354.877-57.622h-3.392zm10.498 0L129.41 175.579h3.392L365.375-57.622h-3.392zm10.417 0L139.828 175.579h3.391L375.792-57.622H372.4zm-52.329 0L87.499 175.579h3.392L323.462-57.622h-3.392zm62.827 0L150.326 175.579h3.391L386.29-57.622h-3.392zm-41.911 0L108.414 175.579h3.392L344.378-57.622h-3.391zm-10.418 0L97.997 175.579h3.392L333.961-57.622h-3.392zM216.544 175.579L397.999-6.366v-3.401L213.153 175.579h3.391zm-10.417 0l191.872-192.39v-3.402L202.655 175.58h3.472zM393.396-57.622L160.824 175.579h3.391L396.788-57.622h-3.392zM195.629 175.579l202.37-202.917v-3.401L192.156 175.579h3.473zm31.413 0L397.999 4.16V.678L223.57 175.58h3.472zm-55.801 0h3.392l223.366-223.89v-3.481L171.241 175.579zm13.89 0L397.999-37.865v-3.4l-216.26 216.844h3.392z" fill="url(#paint0_radial)"/><path d="M600.32-57.622l-203.421 203.97v3.401L603.792-57.622h-3.472zm10.498 0L396.899 156.874v3.401l217.31-217.897h-3.391zm-20.916 0L396.899 135.903v3.4L593.294-57.622h-3.392zm-20.996 0L396.899 114.85v3.4l175.48-175.872h-3.473zm10.498 0L396.899 125.376v3.401l185.897-186.4h-3.392zm-31.413 0l-151.092 151.5v3.4l154.484-154.9h-3.392zm73.325 0L396.899 167.4v3.401L624.708-57.622h-3.392zm-62.827 0l-161.59 162.026v3.401L561.881-57.622h-3.392zm125.573 0L451.489 175.579h3.392L687.454-57.622h-3.392zm-10.417 0L441.072 175.579h3.392L677.036-57.622h-3.391zm20.915 0L461.987 175.579h3.392L697.952-57.622h-3.392zm-52.329 0L409.659 175.579h3.391L645.623-57.622h-3.392zm20.916 0L430.574 175.579h3.472L666.619-57.622h-3.472zm-31.414 0L399.161 175.579h3.391L635.125-57.622h-3.392zm20.916 0L420.076 175.579h3.472L656.121-57.622h-3.472zm-146.57 0L396.899 51.853v3.4L509.552-57.621h-3.473zm31.414 0L396.899 83.35v3.401L540.965-57.622h-3.472zm-94.16 0l-46.434 46.56v3.4l49.826-49.96h-3.392zm10.417 0L396.899-.617v3.4l60.324-60.405h-3.473zm-52.328 0l-4.523 4.534v3.401l7.914-7.935h-3.391zm62.827 0l-67.35 67.531v3.401l70.741-70.932h-3.391zm-41.912 0l-25.438 25.506v3.401l28.91-28.907h-3.472zm-10.417 0l-15.021 15.06v3.402l18.412-18.462h-3.391zm20.915 0L396.899-21.59v3.4l39.328-39.433h-3.392zm83.742 0L396.899 62.379v3.401L520.05-57.622h-3.473zm10.498 0L396.899 72.906v3.4L530.467-57.621h-3.392zm177.983 0L472.486 175.579h3.391L708.45-57.622h-3.392zm-209.396 0l-98.763 99.03v3.4l102.155-102.43h-3.392zm-20.996 0l-77.767 77.977v3.4l81.239-81.377h-3.472zm10.498 0L396.899 30.88v3.4l91.737-91.903h-3.472zm189.611 233.201L803.901 46.104v-3.401L671.384 175.579h3.391zm31.414 0l97.712-97.977v-3.4L702.797 175.578h3.392zm-10.418 0l108.13-108.422v-3.401L692.299 175.579h3.472zm20.916 0l87.214-87.45v-3.401l-90.606 90.851h3.392zm-1.212-233.201L482.903 175.579h3.392L718.867-57.622h-3.392zM653.86 175.579L803.901 25.132v-3.4L650.468 175.578h3.392zm10.498 0l139.543-139.92v-3.401L660.885 175.579h3.473zm20.915 0L803.901 56.63v-3.4L681.882 175.579h3.391zm41.912 0l76.716-76.924v-3.4l-80.189 80.324h3.473zm52.329 0l24.387-24.454v-3.4l-27.86 27.854h3.473zm10.498 0l13.889-13.927v-3.401l-17.362 17.328h3.473zm10.417 0l3.472-3.482v-3.401l-6.864 6.883h3.392zm-41.831 0l45.303-45.426v-3.4l-48.775 48.826h3.472zm10.418 0l34.885-34.98v-3.401l-38.277 38.381h3.392zm-20.916 0l55.801-55.952v-3.401l-59.192 59.353h3.391zm-10.498 0l66.299-66.478V105.7l-69.691 69.879h3.392zm-94.24 0L803.901 14.605v-3.4L639.97 175.579h3.392zM757.387-57.622L524.814 175.579h3.392L760.779-57.622h-3.392zm10.498 0L535.312 175.579h3.392L771.277-57.622h-3.392zm10.417 0L545.73 175.579h3.391L781.694-57.622h-3.392zm-52.328 0L493.401 175.579h3.392L729.365-57.622h-3.391zm62.826 0L556.228 175.579h3.391L792.192-57.622H788.8zm-41.911 0L514.316 175.579h3.392L750.281-57.622h-3.392zm-10.417 0L503.899 175.579h3.392L739.863-57.622h-3.391zM622.446 175.579L803.901-6.366v-3.401L619.055 175.579h3.391zm-10.417 0l191.872-192.39v-3.402L608.557 175.58h3.472zM799.298-57.622L566.726 175.579h3.392L802.69-57.622h-3.392zM601.531 175.579l202.37-202.917v-3.401L598.059 175.579h3.472zm31.413 0L803.901 4.16V.678L629.472 175.58h3.472zm-55.801 0h3.392l223.366-223.89v-3.481L577.143 175.579zm13.89 0L803.901-37.865v-3.4l-216.26 216.844h3.392z" fill="url(#paint1_radial)"/></g><g clip-path="url(#clip1)"><path d="M578.87-57.622l-203.421 203.97v3.401L582.342-57.622h-3.472zm10.498 0L375.449 156.874v3.401l217.31-217.897h-3.391zm-20.916 0L375.449 135.903v3.4L571.844-57.622h-3.392zm-20.996 0L375.449 114.85v3.4L550.928-57.622h-3.472zm10.498 0L375.449 125.376v3.401l185.897-186.4h-3.392zm-31.413 0l-151.092 151.5v3.4l154.483-154.9h-3.391zm73.325 0L375.449 167.4v3.401L603.257-57.622h-3.391zm-62.827 0l-161.59 162.026v3.401L540.43-57.622h-3.391zm125.573 0L430.039 175.579h3.392L666.003-57.622h-3.391zm-10.418 0L419.622 175.579h3.392L655.586-57.622h-3.392zm20.916 0L440.537 175.579h3.392L676.502-57.622h-3.392zm-52.329 0L388.208 175.579h3.392L624.173-57.622h-3.392zm20.915 0L409.124 175.579h3.472L645.169-57.622h-3.473zm-31.413 0L377.71 175.579h3.392L613.675-57.622h-3.392zm20.915 0L398.626 175.579h3.472L634.671-57.622h-3.473zm-146.569 0L375.449 51.853v3.4L488.102-57.621h-3.473zm31.414 0L375.449 83.35v3.401L519.515-57.622h-3.472zm-94.16 0l-46.434 46.56v3.4l49.826-49.96h-3.392zm10.417 0L375.449-.617v3.4l60.324-60.405H432.3zm-52.329 0l-4.522 4.534v3.401l7.914-7.935h-3.392zm62.827 0L375.449 9.909v3.401l70.741-70.932h-3.392zm-41.911 0l-25.438 25.506v3.401l28.91-28.907h-3.472zm-10.417 0l-15.021 15.06v3.402l18.412-18.462h-3.391zm20.915 0L375.449-21.59v3.4l39.328-39.433h-3.392zm83.742 0L375.449 62.379v3.401L498.6-57.622h-3.473zm10.498 0L375.449 72.906v3.4L509.017-57.621h-3.392zm177.983 0L451.035 175.579h3.392L687-57.622h-3.392zm-209.396 0l-98.763 99.03v3.4l102.155-102.43h-3.392zm-20.996 0l-77.767 77.977v3.4l81.239-81.377h-3.472zm10.498 0L375.449 30.88v3.4l91.737-91.903h-3.472zm189.611 233.201L782.451 46.104v-3.401L649.933 175.579h3.392zm31.413 0l97.713-97.977v-3.4L681.347 175.578h3.391zm-10.417 0l108.13-108.422v-3.401L670.849 175.579h3.472zm20.916 0l87.214-87.45v-3.401l-90.606 90.851h3.392zm-1.212-233.201L461.453 175.579h3.391L697.417-57.622h-3.392zM632.41 175.579L782.451 25.132v-3.4L629.018 175.578h3.392zm10.498 0l139.543-139.92v-3.401L639.435 175.579h3.473zm20.915 0L782.451 56.63v-3.4l-122.02 122.349h3.392zm41.912 0l76.716-76.924v-3.4l-80.189 80.324h3.473zm52.328 0l24.388-24.454v-3.4l-27.86 27.854h3.472zm10.499 0l13.889-13.927v-3.401l-17.362 17.328h3.473zm10.417 0l3.472-3.482v-3.401l-6.864 6.883h3.392zm-41.831 0l45.303-45.426v-3.4l-48.775 48.826h3.472zm10.417 0l34.886-34.98v-3.401l-38.277 38.381h3.391zm-20.915 0l55.801-55.952v-3.401l-59.193 59.353h3.392zm-10.498 0l66.299-66.478V105.7l-69.691 69.879h3.392zm-94.24 0L782.451 14.605v-3.4L618.52 175.579h3.392zM735.937-57.622L503.364 175.579h3.392L739.328-57.622h-3.391zm10.498 0L513.862 175.579h3.392L749.827-57.622h-3.392zm10.417 0L524.28 175.579h3.391L760.244-57.622h-3.392zm-52.329 0L471.951 175.579h3.391L707.915-57.622h-3.392zm62.827 0L534.778 175.579h3.391L770.742-57.622h-3.392zm-41.911 0L492.866 175.579h3.392L728.83-57.622h-3.391zm-10.418 0L482.449 175.579h3.391L718.413-57.622h-3.392zM600.996 175.579L782.451-6.366v-3.401L597.605 175.579h3.391zm-10.417 0l191.872-192.39v-3.402L587.106 175.58h3.473zM777.848-57.622L545.276 175.579h3.391L781.24-57.622h-3.392zM580.081 175.579l202.37-202.917v-3.401L576.608 175.579h3.473zm31.413 0L782.451 4.16V.678L608.022 175.58h3.472zm-55.801 0h3.392l223.366-223.89v-3.481L555.693 175.579zm13.89 0L782.451-37.865v-3.4l-216.26 216.844h3.392z" fill="url(#paint2_radial)" fill-opacity=".08"/></g><defs><radialGradient id="paint0_radial" cx="0" cy="0" r="1" gradientUnits="userSpaceOnUse" gradientTransform="matrix(345.226 0 0 346.159 192.438 -28.242)"><stop stop-color="#fff"/><stop offset="1" stop-color="#AEB6BD"/></radialGradient><radialGradient id="paint1_radial" cx="0" cy="0" r="1" gradientUnits="userSpaceOnUse" gradientTransform="matrix(345.226 0 0 346.159 598.34 -28.242)"><stop stop-color="#fff"/><stop offset="1" stop-color="#AEB6BD"/></radialGradient><radialGradient id="paint2_radial" cx="0" cy="0" r="1" gradientUnits="userSpaceOnUse" gradientTransform="matrix(345.226 0 0 346.159 576.89 -28.242)"><stop stop-color="#fff"/><stop offset="1" stop-color="#AEB6BD"/></radialGradient><clipPath id="clip0"><path fill="#fff" d="M0 0h557.329v51H0z"/></clipPath><clipPath id="clip1"><path fill="#fff" transform="translate(503.783)" d="M0 0h220.217v51H0z"/></clipPath></defs></svg>