<svg width="1216" height="189" fill="none" xmlns="http://www.w3.org/2000/svg"><g clip-path="url(#clip0)" fill="#D1CF9C" fill-opacity=".26"><path d="M187.74 162.82h-43.71l-21.85 37.85-5.08-8.84 21.86-37.85h43.7l5.08 8.84zm-65.56 33.28l20.54-35.57h41.07l-2.47-4.28h-41.08l-20.53 35.58 2.47 4.27zm97.75-31l-5.11 8.85-21.85-37.85h-43.71l5.11-8.85h43.73l21.83 37.85zm-5.11 4.29l2.47-4.29-20.53-35.59h-41.08l-2.47 4.29h41.07l20.54 35.59zm28.28-17.68l-21.86 37.85h-10.22l21.85-37.85-21.85-37.85h10.21l21.87 37.85zm-23.17 35.57l20.53-35.57-20.54-35.61h-4.95l20.54 35.57-20.54 35.57 4.96.04zm7.73-35.57l-5.11 8.85-21.86-37.85h-43.71l5.12-8.85h43.7l21.86 37.85zm-5.11 4.28l2.47-4.28-20.54-35.61H163.4l-2.47 4.28H202l20.55 35.61zm50.12-82.24l-5.11 8.84h-43.7l-21.87-37.85 5.11-8.84 21.85 37.85h43.72zm-6.42 6.56l2.47-4.28h-41.08L207.1 40.46l-2.47 4.28 20.54 35.57h41.08zm-7.71 71.4l-21.86 37.85h-10.22l21.86-37.85-21.86-37.85h10.21l21.87 37.85zm-23.17 35.57l20.53-35.57-20.54-35.61h-4.95l20.54 35.57-20.54 35.57 4.96.04zm38.61-35.57l-21.88 37.85h-10.2l21.86-37.85-21.86-37.85h10.2l21.88 37.85zm-23.18 35.57l20.53-35.57-20.53-35.61h-4.95l20.54 35.57-20.54 35.57 4.95.04zm30.89-22.18l-21.86 37.86H216.1l-5.08-8.86h43.71l21.85-37.85 5.11 8.85zm-23.17 35.57l20.58-35.57-2.47-4.28-20.53 35.55h-41.13l2.47 4.28 41.08.02zm-55.34-11.09h-43.71l-21.85 37.83-5.11-8.84 21.86-37.85h43.73l5.08 8.86zm-65.56 33.27l20.54-35.57h41.07l-2.47-4.28h-41.08l-20.53 35.57 2.47 4.28zm151.79-44.39l-21.86 37.85h-43.7l-5.11-8.85h43.71l21.85-37.85 5.11 8.85zm-23.17 35.57l20.53-35.57-2.47-4.29-20.53 35.57h-41.08l2.47 4.29h41.08zm-70.78-37.84h-43.71l-21.85 37.85-5.11-8.84 21.86-37.85h43.7l5.11 8.84zm-65.56 33.29l20.54-35.57h41.07l-2.47-4.28h-41.08l-20.53 35.57 2.47 4.28zm-10.33 22.46l-21.86 37.85H87.5l21.85-37.85L87.5 194.1h10.21l21.86 37.84zM96.4 267.51l20.53-35.57-20.53-35.57h-5l20.54 35.57-20.49 35.57h4.95zm168.54-19.93l-5.11 8.84H216.1l-21.86-37.85 5.11-8.84 21.85 37.85h43.74zm-6.42 6.52l2.47-4.28h-41.07l-20.54-35.57-2.47 4.28 20.54 35.57h41.07zm38.58-62.27l-21.86 37.85h-43.7l-5.11-8.85h43.71l21.85-37.85 5.11 8.85zm-23.14 35.57l20.53-35.57-2.47-4.28-20.54 35.55h-41.07l2.47 4.29 41.08.01zm68.14-118.07h-43.67l-21.85 37.85-5.11-8.84 21.86-37.85h43.7l5.07 8.84zm-65.52 33.29l20.52-35.52h41.07l-2.47-4.28h-41.05l-20.55 35.52 2.48 4.28zm65.52 46.94h-10.17l-21.83-37.85 21.85-37.85h10.15l-21.81 37.85 21.81 37.85zm-12.51-58.6l8.6-14.86h-4.94l-20.54 35.61 20.54 35.57h4.94l-20.54-35.57 11.94-20.75zM203.18 194.1l-21.85 37.85 21.85 37.85h-10.21l-21.87-37.86 21.87-37.84h10.21zm-24.49 37.84l20.54-35.57h-4.95l-20.53 35.57 20.53 35.57h4.95l-20.54-35.57zm-74.57 0l-21.85 37.85H72.1l21.85-37.85L72.1 194.1h10.17l21.85 37.84zm-23.16 35.57l20.53-35.57-20.53-35.57h-4.95l20.54 35.57-20.54 35.57h4.95zm54.05-35.57l-21.86 37.85h-10.21l21.85-37.85-21.85-37.84h10.21l21.86 37.84zm-23.18 35.57l20.54-35.57-20.54-35.57h-4.94l20.54 35.57-20.54 35.57h4.94zm60.47-73.41l-21.85 37.84 21.85 37.85h-10.2l-21.87-37.85 21.87-37.84h10.2zm-24.49 37.84l20.54-35.57h-5l-20.48 35.57 20.53 35.57h5l-20.59-35.57zm39.93 37.85h-10.21l-21.86-37.85 21.86-37.84h10.21l-21.85 37.84 21.85 37.85zm-24.49-37.85l20.54-35.57h-5l-20.48 35.57 20.53 35.57h5l-20.59-35.57zm49-53.48l-5.15 8.84-21.85-37.85h-43.71l5.11-8.84h43.7l21.9 37.85zm-5.15 4.28l2.47-4.28-20.53-35.57h-41.08l-2.47 4.28h41.07l20.54 35.57zM187.74 2.36h-43.71l-21.85 37.85-5.08-8.84 21.83-37.85h43.7l5.11 8.84zm-65.56 33.29L142.72.1h41.07l-2.47-4.28h-41.08l-20.53 35.55 2.47 4.28zm204.52 78.21l-21.85 37.85 21.85 37.85h-10.21l-21.86-37.85 21.86-37.85h10.21zm-8.89 73.42h4.94l-20.54-35.57 20.54-35.61h-4.94l-20.54 35.61 20.54 35.57zM289.41 18l-21.86 37.85h-43.7L218.74 47h43.71L284.3 9.15l5.11 8.85zm-23.17 35.57L286.77 18l-2.47-4.28-20.53 35.56h-41.08l2.47 4.29h41.08zM150.45 98.23l-21.86 37.87h-43.7l-5.11-8.85h43.71l21.85-37.87 5.11 8.85zm-23.17 35.57l20.53-35.57-2.47-4.29-20.54 35.57H83.73l2.47 4.29h41.08zm75.9-104.7h-43.71l-21.85 37.86-5.11-8.86 21.86-37.84h43.73l5.08 8.84zm-65.56 33.29l20.54-35.57h41.07l-2.47-4.28h-41.08L135.15 58.1l2.47 4.29zm57.84-46.66h-43.71L129.9 53.58l-5.11-8.84 21.86-37.85h43.7l5.11 8.84zM129.9 49.02l20.54-35.57h41.07l-2.47-4.28h-41.08l-20.53 35.57 2.47 4.28zm196.8 33.57h-43.71l-21.89 37.85-5.1-8.84 21.85-37.85h43.7l5.15 8.84zm-65.6 33.29l20.54-35.57h41.07l-2.47-4.28H279.2l-20.53 35.57 2.43 4.28zM133.7-6.48l-5.11 8.84h-43.7L67-28.64v-17.67L90-6.48h43.7zM127.28.1l2.47-4.28H88.67L69.28-37.8v8.57L86.2.1h41.08zm207.14 95.86h-43.71l-21.85 37.85-5.1-8.84 21.85-37.87h43.7l5.11 8.86zm-65.56 33.29l20.54-35.57h41.07L328 89.4h-41.07l-20.54 35.57 2.47 4.28zm3.8 105l-5.11 8.85h-43.7l-21.86-37.9 5.11-8.85 21.85 37.86 43.71.04zm-6.42 6.56l2.47-4.28h-41.07l-20.54-35.61-2.47 4.28 20.54 35.57 41.07.04zM158.17 111.6l-21.86 37.85h-43.7l-5.11-8.84h43.71l21.89-37.86 5.07 8.85zM135 147.17l20.53-35.57-2.43-4.28-20.58 35.57H91.45l2.47 4.28H135zM281.69 4.63l-21.86 37.85H216.1l-5.11-8.85h43.71l21.85-37.85 5.14 8.85zM258.52 40.2L279.1 4.63 276.63.34 256.1 35.91h-41.13l2.48 4.29h41.07zM119.57 71.48l-21.86 37.85H87.5l21.85-37.85L87.5 33.63h10.21l21.86 37.85zM96.4 107.1l20.53-35.62L96.4 35.91h-5l20.59 35.57-20.54 35.62h4.95zm7.7-35.62l-21.83 37.85H72.1l21.81-37.85L72.1 33.63h10.17l21.83 37.85zM80.96 107.1l20.53-35.62-20.53-35.57h-4.95l20.54 35.57-20.54 35.62h4.95zm183.98-20l-5.11 8.84H216.1L194.27 58.1l5.11-8.84 21.85 37.84h43.71zm-6.42 6.56l2.47-4.28h-41.07l-20.54-35.55-2.47 4.27 20.54 35.57 41.07-.01zm52.74 20.18l-21.85 37.87 21.85 37.85H301.1l-21.9-37.85 21.9-37.85 10.16-.02zm-8.9 73.42h5l-20.59-35.55 20.54-35.61h-5l-20.48 35.61 20.53 35.55zM135.01 71.48l-21.86 37.85h-10.21l21.85-37.85-21.85-37.85h10.21l21.86 37.85zm-23.18 35.62l20.54-35.62-20.54-35.57h-4.94l20.54 35.57-20.54 35.62h4.94zm30.9-22.19l-21.86 37.8h-43.7l-5.07-8.85h43.67l21.85-37.85 5.11 8.9zm-23.17 35.51l20.54-35.56-2.47-4.29-20.53 35.53H76.01l2.47 4.28 41.08.04zm52.74-86.79l-21.85 37.85 21.85 37.85h-10.2l-21.87-37.85 21.87-37.85h10.2zm-24.49 37.85l20.54-35.57h-5l-20.48 35.57 20.53 35.62h5l-20.59-35.62zm55.37-37.85l-21.85 37.85 21.85 37.85h-10.21L171.1 71.48l21.86-37.85h10.22zM191.1 50.1l8.18-14.17h-4.95l-20.58 35.55 20.53 35.62h4.95l-20.54-35.62L191.1 50.1zm66.17 50.41l-5.17 8.82h-43.7l-21.84-37.85 5.1-8.84 21.85 37.85 43.76.02zm-6.47 6.59l2.47-4.28H212.2L191.66 67.2l-2.47 4.28 20.53 35.62h41.08zm-63.06 2.28h-10.21l-21.86-37.9 21.86-37.85h10.21l-21.85 37.85 21.85 37.9zm-24.49-37.9l20.54-35.57h-5l-20.48 35.57 20.53 35.62h5l-20.59-35.62zm94 189.47l-5.15 8.84h-43.7l-21.85-37.85 5.1-8.84 21.85 37.85h43.75zm-6.42 6.56l2.47-4.28h-41.1l-20.54-35.57-2.47 4.28 20.53 35.57h41.11zm96.4-69.18v17.69l-7.55-13.08h-43.74l5.16-8.84h43.71l2.42 4.23zm-2.28 9.18v-8.57l-1.48-2.57h-41.11l-2.47 4.28h41.08l3.98 6.86zm2.28-35.92v17.69l-21.71-37.57 5.1-8.84 16.61 28.72zm-2.28 9.17v-8.56l-14.3-24.77-2.47 4.28 16.77 29.05zm2.28-35.92v17.69l-14-24.19 5.1-8.84 8.9 15.34zm-2.28 9.18v-8.56l-6.61-11.36-2.47 4.28 9.08 15.64zm2.28-62.66v17.74l-2.23-3.91-20.79-35.97H280.5l5.11-8.84h43.7l17.92 30.98zm-2.28 9.17v-8.56L328 62.66h-41.07l-2.48 4.28h41.07l19.43 33.59zm2.28 13.62v21.64l-6.24-10.82 6.24-10.82zm-2.28 13.13v-4.62l-1.33 2.31 1.33 2.31zm2.28-62.67V82.3l-15.3-26.45h-43.71l5.11-8.85h43.7l10.2 17.61zm-2.28 9.18v-8.56l-9.2-15.95h-41.1l-2.48 4.29h41.08l11.7 20.22zm-10.5 182.63h-43.74l-9.68 16.78h-10.21l14.79-25.62h43.7l5.14 8.84zm-54.71 14.5l9.66-16.82h41.07l-2.47-4.28h-41.07l-12.16 21.06 4.97.04zm47-27.87h-43.75l-17.4 30.15h-10.21l22.51-39h43.7l5.15 8.85zm-62.43 27.87l17.41-30.15h41.07l-2.47-4.28H279.2l-19.87 34.43h4.98zm82.89-45.82v17.69l-15.27-26.45h-43.71l5.11-8.85h43.7l10.17 17.61zm-2.28 9.18v-8.57l-9.2-15.94h-41.07l-2.48 4.29h41.08l11.67 20.22zm-2.82 35.51h-43.67l-2 3.41h-10.17l7.07-12.25h43.7l5.07 8.84zm-47 1.13l2-3.41h41.07l-2.47-4.28h-41.05l-4.44 7.69h4.89zm52.05-19.1v17.73l-2.23-3.92-20.76-35.95H280.5l5.11-8.85h43.7l17.84 30.99zm-2.28 9.17v-8.56L328 223.1h-41.07l-2.48 4.29h41.07l19.35 33.6zM347.2 11.1v17.69L325.52-8.75l5.1-8.84L347.2 11.1zm-2.28 9.17v-8.56l-14.3-24.77-2.47 4.28 16.77 29.05zM158.82-50l-22.51 39h-43.7l-5.11-8.85h43.71L148.61-50h10.21zM135-13.29l19.87-34.43h-4.94l-17.41 30.15H91.45l2.47 4.28H135zM266.9-50l-5.76 10-5.76-10h11.52zm-5.8 5.42l1.81-3.14h-3.62l1.81 3.14zM282.31-50l-13.45 23.35-5.1-8.84L272.1-50h10.21zm-13.45 18.79l9.54-16.51h-5l-7.06 12.23 2.52 4.28zM127.94-50l-7.07 12.25h-43.7L72.1-46.6h43.67l2-3.4h10.17zm-8.38 10l4.43-7.69h-4.89l-2 3.4H76.01L78.48-40h41.08zm23.82-10l-14.79 25.62h-43.7l-5.11-8.84h43.71L133.17-50h10.21zm-16.1 23.34l12.15-21.06h-4.94L124.8-30.9H83.73l2.47 4.24h41.08zM297.79-50l-21.21 36.73-5.11-8.85L287.57-50h10.22zm-21.21 32.16l17.26-29.88h-5l-14.74 25.6 2.48 4.28zM158.82 273.2H147.3l5.76-10 5.76 10zm-7.57-2.28h3.62l-1.77-3.15-1.85 3.15zm196-286.53V2.1l-14-24.19 5.1-8.84 8.9 15.32zm-2.28 9.17V-15l-6.58-11.4-2.47 4.28 9.05 15.68zm2.28-39.87v21.64l-6.24-10.82 6.24-10.82zm-2.28 13.13v-4.61l-1.33 2.3 1.33 2.31zm2.28 71.05v17.69l-7.6-13.08h-43.71l5.16-8.85h43.71l2.44 4.24zm-2.33 9.23v-8.57l-1.48-2.57h-41.08l-2.47 4.29h41.08l3.95 6.85zM297.1 31.37l-21.83 37.85h-43.7l-5.11-8.84h43.71l21.85-37.85 5.08 8.84zm-23.14 35.57l20.53-35.57-2.47-4.27-20.54 35.56h-41.07l2.47 4.28h41.08zm-54-62.31l-5.11 8.84-21.88-37.85h-43.71l5.11-8.84h43.73l21.86 37.85zm-5.11 4.28l2.47-4.28-20.56-35.53h-41.08l-2.47 4.28h41.07l20.57 35.53zm12.83-17.66L222.54.1l-21.85-37.85h-43.71l5.12-8.85h43.7l21.88 37.85zm-5.11 4.29l2.47-4.29-20.56-35.57H163.4l-2.47 4.29H202l20.57 35.57zm20.53-4.29L221.23 29.1h-10.21l21.85-37.86-21.85-37.84h10.21L243.1-8.75zm-23.18 35.57l20.53-35.57-20.53-35.57h-4.95l20.54 35.57-20.54 35.57h4.95zM125.98 6.89l-5.11 8.84h-43.7L67-1.9v-17.67L82.27 6.89h43.71zm-6.42 6.56l2.47-4.28H80.96L69.28-11.05v8.56l9.2 15.94h41.08zM212.21 18l-5.11 8.84-21.85-37.85h-43.71l5.11-8.84h43.7L212.21 18zm-5.11 4.28l2.47-4.28-20.53-35.57h-41.08l-2.47 4.28h41.07l20.54 35.57zm51.43-31L236.67 29.1h-10.21l21.86-37.86-21.86-37.84h10.21l21.86 37.88zm-23.17 35.54l20.53-35.57-20.53-35.57h-4.95l20.54 35.57-20.54 35.57h4.95zm-117.1-6.56l-5.11 8.84h-43.7L67 24.86V7.18l7.55 13.08h43.71zm-6.42 6.56l2.47-4.28H73.23l-3.95-6.85v8.56l1.48 2.57h41.08zM326.7-46.6L304.85-8.75 326.7 29.1h-10.21L294.63-8.75l21.86-37.85h10.21zM302.21-8.75l20.54-35.57h-4.94L297.27-8.75l20.54 35.57h4.94L302.21-8.75zM342.1 29.1h-10.17L310.1-8.75l21.83-37.85h10.17L320.29-8.75 342.1 29.1zm-12.47-58.6l8.56-14.82h-4.94L312.71-8.75l20.54 35.57h4.94L317.65-8.75l11.98-20.75zM273.97-8.75L252.1 29.1h-10.2l21.86-37.86L241.9-46.6h10.2l21.87 37.85zM250.8 26.82l20.53-35.57-20.53-35.57h-4.95l20.54 35.57-20.54 35.57h4.95zm60.46-73.42L289.41-8.75l21.85 37.85H301.1L279.2-8.75l21.9-37.85h10.16zM286.77-8.75l20.54-35.57h-5L281.83-8.75l20.53 35.57h5L286.77-8.75zM73.24 258.69L67 269.5v-21.64l6.24 10.83zm-4 2.3l1.33-2.3-1.33-2.31v4.61zm11.72-15.68l-5.1 8.85L67 238.81V221.1l13.96 24.21zm-4.53 3.29l1.9-3.29-9-15.68v8.57l6.58 11.4.52-1zm12.25-16.66l-5.1 8.85L67 212.1v-17.72l21.68 37.56zm-5.1 4.28l2.52-4.28-16.77-29.05v8.57l14.25 24.76zm34.68-55.5l-5.11 8.84h-43.7L67 185.32v-17.68l7.55 13.08h43.71zm-6.42 6.56l2.47-4.28H73.23l-3.95-6.85v8.56l1.48 2.57h41.08zm38.61 71.41l-8.35 14.51h-10.24l13.48-23.36 5.11 8.85zm-9.7 12.23l7.06-12.23-2.47-4.29-9.53 16.52h4.94zm2-25.61l-16.12 27.89h-10.22l21.21-36.73 5.13 8.84zm-17.44 25.61l14.79-25.61-2.47-4.28-17.26 29.89h4.94zM80.96 84.85l-5.1 8.85L67 78.35V60.66l13.96 24.19zm-4.53 3.25l1.9-3.29-9-15.67v8.56l6.53 11.4.57-1zm49.55 79.21l-5.11 8.84h-43.7L67 158.58v-17.69l15.27 26.46 43.71-.04zm-6.42 6.56l2.47-4.28H80.96L69.28 149.4v8.57l9.2 15.94 41.08-.04zM88.68 71.48l-5.1 8.85L67 51.61V33.92l21.68 37.56zm-5.1 4.29l2.52-4.29-16.77-29V51l14.25 24.77zM73.24 98.23L67 109.1V87.41l6.24 10.82zm-4 2.3l1.33-2.3-1.33-2.31v4.61zm64.46 53.45l-5.11 8.84h-43.7l-17.89-31v-17.67l23 39.83h43.7zm-6.42 6.56l2.47-4.28H88.67l-19.39-33.6v8.57l16.92 29.31h41.08zm628.46 2.28h-43.71l-21.85 37.85-5.08-8.84 21.86-37.85h43.7l5.08 8.84zm-65.56 33.28l20.54-35.57h41.07l-2.47-4.28h-41.08l-20.53 35.58 2.47 4.27zm97.75-31l-5.11 8.85-21.85-37.85h-43.71l5.11-8.85h43.73l21.83 37.85zm-5.11 4.29l2.47-4.29-20.53-35.59h-41.08l-2.47 4.29h41.07l20.54 35.59zm28.28-17.68l-21.86 37.85h-10.22l21.85-37.85-21.85-37.85h10.21l21.87 37.85zm-23.17 35.57l20.53-35.57-20.54-35.61h-4.95l20.54 35.57-20.54 35.57 4.96.04zm7.73-35.57l-5.11 8.85-21.86-37.85h-43.71l5.12-8.85h43.7l21.86 37.85zm-5.11 4.28l2.47-4.28-20.54-35.61H731.4l-2.47 4.28H770l20.55 35.61zm50.12-82.24l-5.11 8.84h-43.7l-21.87-37.85 5.11-8.84 21.85 37.85h43.72zm-6.42 6.56l2.47-4.28h-41.08L775.1 40.46l-2.47 4.28 20.54 35.57h41.08zm-7.71 71.4l-21.86 37.85h-10.22l21.86-37.85-21.86-37.85h10.21l21.87 37.85zm-23.17 35.57l20.53-35.57-20.54-35.61h-4.95l20.54 35.57-20.54 35.57 4.96.04zm38.61-35.57l-21.88 37.85h-10.2l21.86-37.85-21.86-37.85h10.2l21.88 37.85zm-23.18 35.57l20.53-35.57-20.53-35.61h-4.95l20.54 35.57-20.54 35.57 4.95.04zm30.89-22.18l-21.86 37.86H784.1l-5.08-8.86h43.71l21.85-37.85 5.11 8.85zm-23.17 35.57l20.58-35.57-2.47-4.28-20.53 35.55h-41.13l2.47 4.28 41.08.02zm-55.34-11.09h-43.71l-21.85 37.83-5.11-8.84 21.86-37.85h43.73l5.08 8.86zm-65.56 33.27l20.54-35.57h41.07l-2.47-4.28h-41.08l-20.53 35.57 2.47 4.28zm151.79-44.39l-21.86 37.85h-43.7l-5.11-8.85h43.71l21.85-37.85 5.11 8.85zm-23.17 35.57l20.53-35.57-2.47-4.29-20.53 35.57h-41.08l2.47 4.29h41.08zm-70.78-37.84h-43.71l-21.85 37.85-5.11-8.84 21.86-37.85h43.7l5.11 8.84zm-65.56 33.29l20.54-35.57h41.07l-2.47-4.28h-41.08l-20.53 35.57 2.47 4.28zm-10.33 22.46l-21.86 37.85H655.5l21.85-37.85-21.85-37.84h10.21l21.86 37.84zm-23.17 35.57l20.53-35.57-20.53-35.57h-5l20.54 35.57-20.49 35.57h4.95zm168.54-19.93l-5.11 8.84H784.1l-21.86-37.85 5.11-8.84 21.85 37.85h43.74zm-6.42 6.52l2.47-4.28h-41.07l-20.54-35.57-2.47 4.28 20.54 35.57h41.07zm38.58-62.27l-21.86 37.85h-43.7l-5.11-8.85h43.71l21.85-37.85 5.11 8.85zm-23.14 35.57l20.53-35.57-2.47-4.28-20.54 35.55h-41.07l2.47 4.29 41.08.01zm68.14-118.07h-43.67l-21.85 37.85-5.11-8.84 21.86-37.85h43.7l5.07 8.84zm-65.52 33.29l20.52-35.52h41.07l-2.47-4.28h-41.05l-20.55 35.52 2.48 4.28zm65.52 46.94h-10.17l-21.83-37.85 21.85-37.85h10.15l-21.81 37.85 21.81 37.85zm-12.51-58.6l8.6-14.86h-4.94l-20.54 35.61 20.54 35.57h4.94l-20.54-35.57 11.94-20.75zM771.18 194.1l-21.85 37.85 21.85 37.85h-10.21l-21.87-37.86 21.87-37.84h10.21zm-24.49 37.84l20.54-35.57h-4.95l-20.53 35.57 20.53 35.57h4.95l-20.54-35.57zm-74.57 0l-21.85 37.85H640.1l21.85-37.85-21.85-37.84h10.17l21.85 37.84zm-23.16 35.57l20.53-35.57-20.53-35.57h-4.95l20.54 35.57-20.54 35.57h4.95zm54.05-35.57l-21.86 37.85h-10.21l21.85-37.85-21.85-37.84h10.21l21.86 37.84zm-23.18 35.57l20.54-35.57-20.54-35.57h-4.94l20.54 35.57-20.54 35.57h4.94zm60.47-73.41l-21.85 37.84 21.85 37.85h-10.2l-21.87-37.85 21.87-37.84h10.2zm-24.49 37.84l20.54-35.57h-5l-20.48 35.57 20.53 35.57h5l-20.59-35.57zm39.93 37.85h-10.21l-21.86-37.85 21.86-37.84h10.21l-21.85 37.84 21.85 37.85zm-24.49-37.85l20.54-35.57h-5l-20.48 35.57 20.53 35.57h5l-20.59-35.57zm49-53.48l-5.15 8.84-21.85-37.85h-43.71l5.11-8.84h43.7l21.9 37.85zm-5.15 4.28l2.47-4.28-20.53-35.57h-41.08l-2.47 4.28h41.07l20.54 35.57zM755.74 2.36h-43.71l-21.85 37.85-5.08-8.84 21.83-37.85h43.7l5.11 8.84zm-65.56 33.29L710.72.1h41.07l-2.47-4.28h-41.08l-20.53 35.55 2.47 4.28zm204.52 78.21l-21.85 37.85 21.85 37.85h-10.21l-21.86-37.85 21.86-37.85h10.21zm-8.89 73.42h4.94l-20.54-35.57 20.54-35.61h-4.94l-20.54 35.61 20.54 35.57zM857.41 18l-21.86 37.85h-43.7L786.74 47h43.71L852.3 9.15l5.11 8.85zm-23.17 35.57L854.77 18l-2.47-4.28-20.53 35.56h-41.08l2.47 4.29h41.08zM718.45 98.23l-21.86 37.87h-43.7l-5.11-8.85h43.71l21.85-37.87 5.11 8.85zm-23.17 35.57l20.53-35.57-2.47-4.29-20.54 35.57h-41.07l2.47 4.29h41.08zm75.9-104.7h-43.71l-21.85 37.86-5.11-8.86 21.86-37.84h43.73l5.08 8.84zm-65.56 33.29l20.54-35.57h41.07l-2.47-4.28h-41.08L703.15 58.1l2.47 4.29zm57.84-46.66h-43.71L697.9 53.58l-5.11-8.84 21.86-37.85h43.7l5.11 8.84zM697.9 49.02l20.54-35.57h41.07l-2.47-4.28h-41.08l-20.53 35.57 2.47 4.28zm196.8 33.57h-43.71l-21.89 37.85-5.1-8.84 21.85-37.85h43.7l5.15 8.84zm-65.6 33.29l20.54-35.57h41.07l-2.47-4.28H847.2l-20.53 35.57 2.43 4.28zM701.7-6.48l-5.11 8.84h-43.7l-17.89-31v-17.67l23 39.83h43.7zM695.28.1l2.47-4.28h-41.08L637.28-37.8v8.57L654.2.1h41.08zm207.14 95.86h-43.71l-21.85 37.85-5.1-8.84 21.85-37.87h43.7l5.11 8.86zm-65.56 33.29l20.54-35.57h41.07L896 89.4h-41.07l-20.54 35.57 2.47 4.28zm3.8 105l-5.11 8.85h-43.7l-21.86-37.9 5.11-8.85 21.85 37.86 43.71.04zm-6.42 6.56l2.47-4.28h-41.07l-20.54-35.61-2.47 4.28 20.54 35.57 41.07.04zM726.17 111.6l-21.86 37.85h-43.7l-5.11-8.84h43.71l21.89-37.86 5.07 8.85zM703 147.17l20.53-35.57-2.43-4.28-20.58 35.57h-41.07l2.47 4.28H703zM849.69 4.63l-21.86 37.85H784.1l-5.11-8.85h43.71l21.85-37.85 5.14 8.85zM826.52 40.2L847.1 4.63 844.63.34 824.1 35.91h-41.13l2.48 4.29h41.07zM687.57 71.48l-21.86 37.85H655.5l21.85-37.85-21.85-37.85h10.21l21.86 37.85zM664.4 107.1l20.53-35.62-20.53-35.57h-5l20.59 35.57-20.54 35.62h4.95zm7.7-35.62l-21.83 37.85H640.1l21.81-37.85-21.81-37.85h10.17l21.83 37.85zm-23.14 35.62l20.53-35.62-20.53-35.57h-4.95l20.54 35.57-20.54 35.62h4.95zm183.98-20l-5.11 8.84H784.1L762.27 58.1l5.11-8.84 21.85 37.84h43.71zm-6.42 6.56l2.47-4.28h-41.07l-20.54-35.55-2.47 4.27 20.54 35.57 41.07-.01zm52.74 20.18l-21.85 37.87 21.85 37.85H869.1l-21.9-37.85 21.9-37.85 10.16-.02zm-8.9 73.42h5l-20.59-35.55 20.54-35.61h-5l-20.48 35.61 20.53 35.55zM703.01 71.48l-21.86 37.85h-10.21l21.85-37.85-21.85-37.85h10.21l21.86 37.85zm-23.18 35.62l20.54-35.62-20.54-35.57h-4.94l20.54 35.57-20.54 35.62h4.94zm30.9-22.19l-21.86 37.8h-43.7l-5.07-8.85h43.67l21.85-37.85 5.11 8.9zm-23.17 35.51l20.54-35.56-2.47-4.29-20.53 35.53h-41.09l2.47 4.28 41.08.04zm52.74-86.79l-21.85 37.85 21.85 37.85h-10.2l-21.87-37.85 21.87-37.85h10.2zm-24.49 37.85l20.54-35.57h-5l-20.48 35.57 20.53 35.62h5l-20.59-35.62zm55.37-37.85l-21.85 37.85 21.85 37.85h-10.21L739.1 71.48l21.86-37.85h10.22zM759.1 50.1l8.18-14.17h-4.95l-20.58 35.55 20.53 35.62h4.95l-20.54-35.62L759.1 50.1zm66.17 50.41l-5.17 8.82h-43.7l-21.84-37.85 5.1-8.84 21.85 37.85 43.76.02zm-6.47 6.59l2.47-4.28H780.2L759.66 67.2l-2.47 4.28 20.53 35.62h41.08zm-63.06 2.28h-10.21l-21.86-37.9 21.86-37.85h10.21l-21.85 37.85 21.85 37.9zm-24.49-37.9l20.54-35.57h-5l-20.48 35.57 20.53 35.62h5l-20.59-35.62zm94 189.47l-5.15 8.84h-43.7l-21.85-37.85 5.1-8.84 21.85 37.85h43.75zm-6.42 6.56l2.47-4.28h-41.1l-20.54-35.57-2.47 4.28 20.53 35.57h41.11zm96.4-69.18v17.69l-7.55-13.08h-43.74l5.16-8.84h43.71l2.42 4.23zm-2.28 9.18v-8.57l-1.48-2.57h-41.11l-2.47 4.28h41.08l3.98 6.86zm2.28-35.92v17.69l-21.71-37.57 5.1-8.84 16.61 28.72zm-2.28 9.17v-8.56l-14.3-24.77-2.47 4.28 16.77 29.05zm2.28-35.92v17.69l-14-24.19 5.1-8.84 8.9 15.34zm-2.28 9.18v-8.56l-6.61-11.36-2.47 4.28 9.08 15.64zm2.28-62.66v17.74l-2.23-3.91-20.79-35.97H848.5l5.11-8.84h43.7l17.92 30.98zm-2.28 9.17v-8.56L896 62.66h-41.07l-2.48 4.28h41.07l19.43 33.59zm2.28 13.62v21.64l-6.24-10.82 6.24-10.82zm-2.28 13.13v-4.62l-1.33 2.31 1.33 2.31zm2.28-62.67V82.3l-15.3-26.45h-43.71l5.11-8.85h43.7l10.2 17.61zm-2.28 9.18v-8.56l-9.2-15.95h-41.1l-2.48 4.29h41.08l11.7 20.22zm-10.5 182.63h-43.74l-9.68 16.78h-10.21l14.79-25.62h43.7l5.14 8.84zm-54.71 14.5l9.66-16.82h41.07l-2.47-4.28h-41.07l-12.16 21.06 4.97.04zm47-27.87h-43.75l-17.4 30.15h-10.21l22.51-39h43.7l5.15 8.85zm-62.43 27.87l17.41-30.15h41.07l-2.47-4.28H847.2l-19.87 34.43h4.98zm82.89-45.82v17.69l-15.27-26.45h-43.71l5.11-8.85h43.7l10.17 17.61zm-2.28 9.18v-8.57l-9.2-15.94h-41.07l-2.48 4.29h41.08l11.67 20.22zm-2.82 35.51h-43.67l-2 3.41h-10.17l7.07-12.25h43.7l5.07 8.84zm-47 1.13l2-3.41h41.07l-2.47-4.28h-41.05l-4.44 7.69h4.89zm52.05-19.1v17.73l-2.23-3.92-20.76-35.95H848.5l5.11-8.85h43.7l17.84 30.99zm-2.28 9.17v-8.56L896 223.1h-41.07l-2.48 4.29h41.07l19.35 33.6zM915.2 11.1v17.69L893.52-8.75l5.1-8.84L915.2 11.1zm-2.28 9.17v-8.56l-14.3-24.77-2.47 4.28 16.77 29.05zM726.82-50l-22.51 39h-43.7l-5.11-8.85h43.71L716.61-50h10.21zM703-13.29l19.87-34.43h-4.94l-17.41 30.15h-41.07l2.47 4.28H703zM834.9-50l-5.76 10-5.76-10h11.52zm-5.8 5.42l1.81-3.14h-3.62l1.81 3.14zM850.31-50l-13.45 23.35-5.1-8.84L840.1-50h10.21zm-13.45 18.79l9.54-16.51h-5l-7.06 12.23 2.52 4.28zM695.94-50l-7.07 12.25h-43.7l-5.07-8.85h43.67l2-3.4h10.17zm-8.38 10l4.43-7.69h-4.89l-2 3.4h-41.09l2.47 4.29h41.08zm23.82-10l-14.79 25.62h-43.7l-5.11-8.84h43.71L701.17-50h10.21zm-16.1 23.34l12.15-21.06h-4.94L692.8-30.9h-41.07l2.47 4.24h41.08zM865.79-50l-21.21 36.73-5.11-8.85L855.57-50h10.22zm-21.21 32.16l17.26-29.88h-5l-14.74 25.6 2.48 4.28zM726.82 273.2H715.3l5.76-10 5.76 10zm-7.57-2.28h3.62l-1.77-3.15-1.85 3.15zm196-286.53V2.1l-14-24.19 5.1-8.84 8.9 15.32zm-2.28 9.17V-15l-6.58-11.4-2.47 4.28 9.05 15.68zm2.28-39.87v21.64l-6.24-10.82 6.24-10.82zm-2.28 13.13v-4.61l-1.33 2.3 1.33 2.31zm2.28 71.05v17.69l-7.6-13.08h-43.71l5.16-8.85h43.71l2.44 4.24zm-2.33 9.23v-8.57l-1.48-2.57h-41.08l-2.47 4.29h41.08l3.95 6.85zM865.1 31.37l-21.83 37.85h-43.7l-5.11-8.84h43.71l21.85-37.85 5.08 8.84zm-23.14 35.57l20.53-35.57-2.47-4.27-20.54 35.56h-41.07l2.47 4.28h41.08zm-54-62.31l-5.11 8.84-21.88-37.85h-43.71l5.11-8.84h43.73l21.86 37.85zm-5.11 4.28l2.47-4.28-20.56-35.53h-41.08l-2.47 4.28h41.07l20.57 35.53zm12.83-17.66L790.54.1l-21.85-37.85h-43.71l5.12-8.85h43.7l21.88 37.85zm-5.11 4.29l2.47-4.29-20.56-35.57H731.4l-2.47 4.29H770l20.57 35.57zm20.53-4.29L789.23 29.1h-10.21l21.85-37.86-21.85-37.84h10.21L811.1-8.75zm-23.18 35.57l20.53-35.57-20.53-35.57h-4.95l20.54 35.57-20.54 35.57h4.95zM693.98 6.89l-5.11 8.84h-43.7L635-1.9v-17.67l15.27 26.46h43.71zm-6.42 6.56l2.47-4.28h-41.07l-11.68-20.22v8.56l9.2 15.94h41.08zM780.21 18l-5.11 8.84-21.85-37.85h-43.71l5.11-8.84h43.7L780.21 18zm-5.11 4.28l2.47-4.28-20.53-35.57h-41.08l-2.47 4.28h41.07l20.54 35.57zm51.43-31L804.67 29.1h-10.21l21.86-37.86-21.86-37.84h10.21l21.86 37.88zm-23.17 35.54l20.53-35.57-20.53-35.57h-4.95l20.54 35.57-20.54 35.57h4.95zm-117.1-6.56l-5.11 8.84h-43.7L635 24.86V7.18l7.55 13.08h43.71zm-6.42 6.56l2.47-4.28h-41.08l-3.95-6.85v8.56l1.48 2.57h41.08zM894.7-46.6L872.85-8.75 894.7 29.1h-10.21L862.63-8.75l21.86-37.85h10.21zM870.21-8.75l20.54-35.57h-4.94L865.27-8.75l20.54 35.57h4.94L870.21-8.75zM910.1 29.1h-10.17L878.1-8.75l21.83-37.85h10.17L888.29-8.75 910.1 29.1zm-12.47-58.6l8.56-14.82h-4.94L880.71-8.75l20.54 35.57h4.94L885.65-8.75l11.98-20.75zM841.97-8.75L820.1 29.1h-10.2l21.86-37.86L809.9-46.6h10.2l21.87 37.85zM818.8 26.82l20.53-35.57-20.53-35.57h-4.95l20.54 35.57-20.54 35.57h4.95zm60.46-73.42L857.41-8.75l21.85 37.85H869.1L847.2-8.75l21.9-37.85h10.16zM854.77-8.75l20.54-35.57h-5L849.83-8.75l20.53 35.57h5L854.77-8.75zM641.24 258.69L635 269.5v-21.64l6.24 10.83zm-4 2.3l1.33-2.3-1.33-2.31v4.61zm11.72-15.68l-5.1 8.85-8.86-15.35V221.1l13.96 24.21zm-4.53 3.29l1.9-3.29-9-15.68v8.57l6.58 11.4.52-1zm12.25-16.66l-5.1 8.85L635 212.1v-17.72l21.68 37.56zm-5.1 4.28l2.52-4.28-16.77-29.05v8.57l14.25 24.76zm34.68-55.5l-5.11 8.84h-43.7l-2.45-4.24v-17.68l7.55 13.08h43.71zm-6.42 6.56l2.47-4.28h-41.08l-3.95-6.85v8.56l1.48 2.57h41.08zm38.61 71.41l-8.35 14.51h-10.24l13.48-23.36 5.11 8.85zm-9.7 12.23l7.06-12.23-2.47-4.29-9.53 16.52h4.94zm2-25.61l-16.12 27.89h-10.22l21.21-36.73 5.13 8.84zm-17.44 25.61l14.79-25.61-2.47-4.28-17.26 29.89h4.94zM648.96 84.85l-5.1 8.85L635 78.35V60.66l13.96 24.19zm-4.53 3.25l1.9-3.29-9-15.67v8.56l6.53 11.4.57-1zm49.55 79.21l-5.11 8.84h-43.7L635 158.58v-17.69l15.27 26.46 43.71-.04zm-6.42 6.56l2.47-4.28h-41.07l-11.68-20.19v8.57l9.2 15.94 41.08-.04zM656.68 71.48l-5.1 8.85L635 51.61V33.92l21.68 37.56zm-5.1 4.29l2.52-4.29-16.77-29V51l14.25 24.77zm-10.34 22.46L635 109.1V87.41l6.24 10.82zm-4 2.3l1.33-2.3-1.33-2.31v4.61zm64.46 53.45l-5.11 8.84h-43.7l-17.89-31v-17.67l23 39.83h43.7zm-6.42 6.56l2.47-4.28h-41.08l-19.39-33.6v8.57l16.92 29.31h41.08zm-791.54 2.28h-43.71l-21.85 37.85-5.08-8.84 21.86-37.85h43.7l5.08 8.84zm-65.56 33.28l20.54-35.57h41.07l-2.47-4.28h-41.08l-20.53 35.58 2.47 4.27zm97.75-31l-5.11 8.85-21.85-37.85h-43.71l5.11-8.85h43.73l21.83 37.85zm-5.11 4.29l2.47-4.29-20.53-35.59h-41.08l-2.47 4.29h41.07l20.54 35.59zm28.28-17.68l-21.86 37.85h-10.22l21.85-37.85-21.85-37.85h10.21l21.87 37.85zm-23.17 35.57l20.53-35.57-20.54-35.61h-4.95l20.54 35.57-20.54 35.57 4.96.04zm7.73-35.57l-5.11 8.85-21.86-37.85h-43.71l5.12-8.85h43.7l21.86 37.85zm-5.11 4.28l2.47-4.28-20.54-35.61h-41.08l-2.47 4.28H-82l20.55 35.61zm50.12-82.24l-5.11 8.84h-43.7l-21.87-37.85 5.11-8.84 21.85 37.85h43.72zm-6.42 6.56l2.47-4.28h-41.08L-76.9 40.46l-2.47 4.28 20.54 35.57h41.08zm-7.71 71.4l-21.86 37.85h-10.22l21.86-37.85-21.86-37.85h10.21l21.87 37.85zm-23.17 35.57l20.53-35.57-20.54-35.61h-4.95l20.54 35.57-20.54 35.57 4.96.04zm38.61-35.57l-21.88 37.85h-10.2l21.86-37.85-21.86-37.85h10.2l21.88 37.85zm-23.18 35.57l20.53-35.57-20.53-35.61h-4.95l20.54 35.57-20.54 35.57 4.95.04zm30.89-22.18l-21.86 37.86H-67.9l-5.08-8.86h43.71l21.85-37.85 5.11 8.85zm-23.17 35.57L-4.9 165.1l-2.47-4.28-20.53 35.55h-41.13l2.47 4.28 41.08.02zm-55.34-11.09h-43.71l-21.85 37.83-5.11-8.84 21.86-37.85h43.73l5.08 8.86zm-65.56 33.27l20.54-35.57h41.07l-2.47-4.28h-41.08l-20.53 35.57 2.47 4.28zM5.41 178.46l-21.86 37.85h-43.7l-5.11-8.85h43.71L.3 169.61l5.11 8.85zm-23.17 35.57l20.53-35.57-2.47-4.29-20.53 35.57h-41.08l2.47 4.29h41.08zm-70.78-37.84h-43.71l-21.85 37.85-5.11-8.84 21.86-37.85h43.7l5.11 8.84zm-65.56 33.29l20.54-35.57h41.07l-2.47-4.28h-41.08l-20.53 35.57 2.47 4.28zm-10.33 22.46l-21.86 37.85h-10.21l21.85-37.85-21.85-37.84h10.21l21.86 37.84zm-23.17 35.57l20.53-35.57-20.53-35.57h-5l20.54 35.57-20.49 35.57h4.95zm168.54-19.93l-5.11 8.84H-67.9l-21.86-37.85 5.11-8.84 21.85 37.85h43.74zm-6.42 6.52l2.47-4.28h-41.07l-20.54-35.57-2.47 4.28 20.54 35.57h41.07zm38.58-62.27l-21.86 37.85h-43.7l-5.11-8.85h43.71l21.85-37.85 5.11 8.85zm-23.14 35.57l20.53-35.57-2.47-4.28-20.54 35.55h-41.07l2.47 4.29 41.08.01zM58.1 109.33H14.43l-21.85 37.85-5.11-8.84 21.86-37.85h43.7l5.07 8.84zm-65.52 33.29L13.1 107.1h41.07l-2.47-4.28H10.65L-9.9 138.34l2.48 4.28zm65.52 46.94H47.93L26.1 151.71l21.85-37.85H58.1l-21.81 37.85 21.81 37.85zm-12.51-58.6l8.6-14.86h-4.94l-20.54 35.61 20.54 35.57h4.94l-20.54-35.57 11.94-20.75zM-80.82 194.1l-21.85 37.85 21.85 37.85h-10.21l-21.87-37.86 21.87-37.84h10.21zm-24.49 37.84l20.54-35.57h-4.95l-20.53 35.57 20.53 35.57h4.95l-20.54-35.57zm-74.57 0l-21.85 37.85h-10.17l21.85-37.85-21.85-37.84h10.17l21.85 37.84zm-23.16 35.57l20.53-35.57-20.53-35.57h-4.95l20.54 35.57-20.54 35.57h4.95zm54.05-35.57l-21.86 37.85h-10.21l21.85-37.85-21.85-37.84h10.21l21.86 37.84zm-23.18 35.57l20.54-35.57-20.54-35.57h-4.94l20.54 35.57-20.54 35.57h4.94zm60.47-73.41l-21.85 37.84 21.85 37.85h-10.2l-21.87-37.85 21.87-37.84h10.2zm-24.49 37.84l20.54-35.57h-5l-20.48 35.57 20.53 35.57h5l-20.59-35.57zm39.93 37.85h-10.21l-21.86-37.85 21.86-37.84h10.21l-21.85 37.84 21.85 37.85zm-24.49-37.85l20.54-35.57h-5l-20.48 35.57 20.53 35.57h5l-20.59-35.57zm49-53.48l-5.15 8.84-21.85-37.85h-43.71l5.11-8.84h43.7l21.9 37.85zm-5.15 4.28l2.47-4.28-20.53-35.57h-41.08l-2.47 4.28h41.07l20.54 35.57zM-96.26 2.36h-43.71l-21.85 37.85-5.08-8.84 21.83-37.85h43.7l5.11 8.84zm-65.56 33.29L-141.28.1h41.07l-2.47-4.28h-41.08l-20.53 35.55 2.47 4.28zM42.7 113.86l-21.85 37.85 21.85 37.85H32.49l-21.86-37.85 21.86-37.85H42.7zm-8.89 73.42h4.94l-20.54-35.57 20.54-35.61h-4.94l-20.54 35.61 20.54 35.57zM5.41 18l-21.86 37.85h-43.7L-65.26 47h43.71L.3 9.15 5.41 18zm-23.17 35.57L2.77 18 .3 13.72l-20.53 35.56h-41.08l2.47 4.29h41.08zm-115.79 44.66l-21.86 37.87h-43.7l-5.11-8.85h43.71l21.85-37.87 5.11 8.85zm-23.17 35.57l20.53-35.57-2.47-4.29-20.54 35.57h-41.07l2.47 4.29h41.08zm75.9-104.7h-43.71l-21.85 37.86-5.11-8.86 21.86-37.84h43.73l5.08 8.84zm-65.56 33.29l20.54-35.57h41.07l-2.47-4.28h-41.08l-20.53 35.56 2.47 4.29zm57.84-46.66h-43.71l-21.85 37.85-5.11-8.84 21.86-37.85h43.7l5.11 8.84zm-65.56 33.29l20.54-35.57h41.07l-2.47-4.28h-41.08l-20.53 35.57 2.47 4.28zM42.7 82.59H-1.01l-21.89 37.85-5.1-8.84 21.85-37.85h43.7l5.15 8.84zm-65.6 33.29l20.54-35.57h41.07l-2.47-4.28H-4.8l-20.53 35.57 2.43 4.28zM-150.3-6.48l-5.11 8.84h-43.7l-17.89-31v-17.67l23 39.83h43.7zM-156.72.1l2.47-4.28h-41.08l-19.39-33.62v8.57L-197.8.1h41.08zM50.42 95.96H6.71l-21.85 37.85-5.1-8.84L1.61 87.1h43.7l5.11 8.86zm-65.56 33.29L5.4 93.68h41.07L44 89.4H2.93l-20.54 35.57 2.47 4.28zm3.8 105l-5.11 8.85h-43.7l-21.86-37.9 5.11-8.85 21.85 37.86 43.71.04zm-6.42 6.56l2.47-4.28h-41.07l-20.54-35.61-2.47 4.28 20.54 35.57 41.07.04zM-125.83 111.6l-21.86 37.85h-43.7l-5.11-8.84h43.71l21.89-37.86 5.07 8.85zM-149 147.17l20.53-35.57-2.43-4.28-20.58 35.57h-41.07l2.47 4.28H-149zM-2.31 4.63l-21.86 37.85H-67.9l-5.11-8.85h43.71L-7.45-4.22l5.14 8.85zM-25.48 40.2L-4.9 4.63-7.37.34-27.9 35.91h-41.13l2.48 4.29h41.07zm-138.95 31.28l-21.86 37.85h-10.21l21.85-37.85-21.85-37.85h10.21l21.86 37.85zm-23.17 35.62l20.53-35.62-20.53-35.57h-5l20.59 35.57-20.54 35.62h4.95zm7.7-35.62l-21.83 37.85h-10.17l21.81-37.85-21.81-37.85h10.17l21.83 37.85zm-23.14 35.62l20.53-35.62-20.53-35.57h-4.95l20.54 35.57-20.54 35.62h4.95zm183.98-20l-5.11 8.84H-67.9L-89.73 58.1l5.11-8.84 21.85 37.84h43.71zm-6.42 6.56l2.47-4.28h-41.07l-20.54-35.55-2.47 4.27 20.54 35.57 41.07-.01zm52.74 20.18L5.41 151.71l21.85 37.85H17.1l-21.9-37.85 21.9-37.85 10.16-.02zm-8.9 73.42h5L2.77 151.71l20.54-35.61h-5l-20.48 35.61 20.53 35.55zM-148.99 71.48l-21.86 37.85h-10.21l21.85-37.85-21.85-37.85h10.21l21.86 37.85zm-23.18 35.62l20.54-35.62-20.54-35.57h-4.94l20.54 35.57-20.54 35.62h4.94zm30.9-22.19l-21.86 37.8h-43.7l-5.07-8.85h43.67l21.85-37.85 5.11 8.9zm-23.17 35.51l20.54-35.56-2.47-4.29-20.53 35.53h-41.09l2.47 4.28 41.08.04zm52.74-86.79l-21.85 37.85 21.85 37.85h-10.2l-21.87-37.85 21.87-37.85h10.2zm-24.49 37.85l20.54-35.57h-5l-20.48 35.57 20.53 35.62h5l-20.59-35.62zm55.37-37.85l-21.85 37.85 21.85 37.85h-10.21l-21.87-37.85 21.86-37.85h10.22zM-92.9 50.1l8.18-14.17h-4.95l-20.58 35.55 20.53 35.62h4.95l-20.54-35.62L-92.9 50.1zm66.17 50.41l-5.17 8.82h-43.7l-21.84-37.85 5.1-8.84 21.85 37.85 43.76.02zm-6.47 6.59l2.47-4.28H-71.8L-92.34 67.2l-2.47 4.28 20.53 35.62h41.08zm-63.06 2.28h-10.21l-21.86-37.9 21.86-37.85h10.21l-21.85 37.85 21.85 37.9zm-24.49-37.9l20.54-35.57h-5l-20.48 35.57 20.53 35.62h5l-20.59-35.62zm94 189.47l-5.15 8.84h-43.7l-21.85-37.85 5.1-8.84 21.85 37.85h43.75zm-6.42 6.56l2.47-4.28h-41.1l-20.54-35.57-2.47 4.28 20.53 35.57h41.11zm96.4-69.18v17.69l-7.55-13.08H11.94l5.16-8.84h43.71l2.42 4.23zm-2.28 9.18v-8.57l-1.48-2.57H18.36l-2.47 4.28h41.08l3.98 6.86zm2.28-35.92v17.69l-21.71-37.57 5.1-8.84 16.61 28.72zm-2.28 9.17v-8.56l-14.3-24.77-2.47 4.28 16.77 29.05zm2.28-35.92v17.69l-14-24.19 5.1-8.84 8.9 15.34zm-2.28 9.18v-8.56l-6.61-11.36-2.47 4.28 9.08 15.64zm2.28-62.66v17.74L61 105.19 40.21 69.22H-3.5l5.11-8.84h43.7l17.92 30.98zm-2.28 9.17v-8.56L44 62.66H2.93L.45 66.94h41.07l19.43 33.59zm2.28 13.62v21.64l-6.24-10.82 6.24-10.82zm-2.28 13.13v-4.62l-1.33 2.31 1.33 2.31zm2.28-62.67V82.3l-15.3-26.45H4.22L9.33 47h43.7l10.2 17.61zm-2.28 9.18v-8.56l-9.2-15.95h-41.1l-2.48 4.29h41.08l11.7 20.22zm-10.5 182.63H6.71l-9.68 16.78h-10.21l14.79-25.62h43.7l5.14 8.84zm-54.71 14.5L5.4 254.1h41.07L44 249.82H2.93l-12.16 21.06 4.97.04zm47-27.87H-1.01l-17.4 30.15h-10.21l22.51-39h43.7l5.15 8.85zm-62.43 27.87l17.41-30.15h41.07l-2.47-4.28H-4.8l-19.87 34.43h4.98zM63.2 225.1v17.69l-15.27-26.45H4.22l5.11-8.85h43.7L63.2 225.1zm-2.28 9.18v-8.57l-9.2-15.94H10.65l-2.48 4.29h41.08l11.67 20.22zm-2.82 35.51H14.43l-2 3.41H2.26l7.07-12.25h43.7l5.07 8.84zm-47 1.13l2-3.41h41.07l-2.47-4.28H10.65l-4.44 7.69h4.89zm52.05-19.1v17.73l-2.23-3.92-20.76-35.95H-3.5l5.11-8.85h43.7l17.84 30.99zm-2.28 9.17v-8.56L44 223.1H2.93l-2.48 4.29h41.07l19.35 33.6zM63.2 11.1v17.69L41.52-8.75l5.1-8.84L63.2 11.1zm-2.28 9.17v-8.56l-14.3-24.77-2.47 4.28 16.77 29.05zM-125.18-50l-22.51 39h-43.7l-5.11-8.85h43.71l17.4-30.15h10.21zM-149-13.29l19.87-34.43h-4.94l-17.41 30.15h-41.07l2.47 4.28H-149zM-17.1-50l-5.76 10-5.76-10h11.52zm-5.8 5.42l1.81-3.14h-3.62l1.81 3.14zM-1.69-50l-13.45 23.35-5.1-8.84L-11.9-50h10.21zm-13.45 18.79l9.54-16.51h-5l-7.06 12.23 2.52 4.28zM-156.06-50l-7.07 12.25h-43.7l-5.07-8.85h43.67l2-3.4h10.17zm-8.38 10l4.43-7.69h-4.89l-2 3.4h-41.09l2.47 4.29h41.08zm23.82-10l-14.79 25.62h-43.7l-5.11-8.84h43.71l9.68-16.78h10.21zm-16.1 23.34l12.15-21.06h-4.94l-9.69 16.82h-41.07l2.47 4.24h41.08zM13.79-50L-7.42-13.27l-5.11-8.85L3.57-50h10.22zM-7.42-17.84L9.84-47.72h-5L-9.9-22.12l2.48 4.28zM-125.18 273.2h-11.52l5.76-10 5.76 10zm-7.57-2.28h3.62l-1.77-3.15-1.85 3.15zm196-286.53V2.1l-14-24.19 5.1-8.84 8.9 15.32zm-2.28 9.17V-15l-6.58-11.4-2.47 4.28 9.05 15.68zm2.28-39.87v21.64l-6.24-10.82 6.24-10.82zm-2.28 13.13v-4.61l-1.33 2.3 1.33 2.31zm2.28 71.05v17.69l-7.6-13.08H11.94l5.16-8.85h43.71l2.44 4.24zm-2.33 9.23v-8.57l-1.48-2.57H18.36l-2.47 4.29h41.08l3.95 6.85zM13.1 31.37L-8.73 69.22h-43.7l-5.11-8.84h43.71L8.02 22.53l5.08 8.84zm-23.14 35.57l20.53-35.57-2.47-4.27-20.54 35.56h-41.07l2.47 4.28h41.08zm-54-62.31l-5.11 8.84-21.88-37.85h-43.71l5.11-8.84h43.73l21.86 37.85zm-5.11 4.28l2.47-4.28-20.56-35.53h-41.08l-2.47 4.28h41.07l20.57 35.53zm12.83-17.66L-61.46.1l-21.85-37.85h-43.71l5.12-8.85h43.7l21.88 37.85zm-5.11 4.29l2.47-4.29-20.56-35.57h-41.08l-2.47 4.29H-82l20.57 35.57zm20.53-4.29L-62.77 29.1h-10.21l21.85-37.86-21.85-37.84h10.21L-40.9-8.75zm-23.18 35.57l20.53-35.57-20.53-35.57h-4.95l20.54 35.57-20.54 35.57h4.95zm-93.94-19.93l-5.11 8.84h-43.7L-217-1.9v-17.67l15.27 26.46h43.71zm-6.42 6.56l2.47-4.28h-41.07l-11.68-20.22v8.56l9.2 15.94h41.08zM-71.79 18l-5.11 8.84-21.85-37.85h-43.71l5.11-8.84h43.7L-71.79 18zm-5.11 4.28l2.47-4.28-20.53-35.57h-41.08l-2.47 4.28h41.07l20.54 35.57zm51.43-31L-47.33 29.1h-10.21l21.86-37.86-21.86-37.84h10.21l21.86 37.88zm-23.17 35.54l20.53-35.57-20.53-35.57h-4.95l20.54 35.57-20.54 35.57h4.95zm-117.1-6.56l-5.11 8.84h-43.7l-2.45-4.24V7.18l7.55 13.08h43.71zm-6.42 6.56l2.47-4.28h-41.08l-3.95-6.85v8.56l1.48 2.57h41.08zM42.7-46.6L20.85-8.75 42.7 29.1H32.49L10.63-8.75 32.49-46.6H42.7zM18.21-8.75l20.54-35.57h-4.94L13.27-8.75l20.54 35.57h4.94L18.21-8.75zM58.1 29.1H47.93L26.1-8.75 47.93-46.6H58.1L36.29-8.75 58.1 29.1zM45.63-29.5l8.56-14.82h-4.94L28.71-8.75l20.54 35.57h4.94L33.65-8.75 45.63-29.5zM-10.03-8.75L-31.9 29.1h-10.2l21.86-37.86L-42.1-46.6h10.2l21.87 37.85zM-33.2 26.82l20.53-35.57-20.53-35.57h-4.95l20.54 35.57-20.54 35.57h4.95zM27.26-46.6L5.41-8.75 27.26 29.1H17.1L-4.8-8.75 17.1-46.6h10.16zM2.77-8.75l20.54-35.57h-5L-2.17-8.75l20.53 35.57h5L2.77-8.75zm-213.53 267.44L-217 269.5v-21.64l6.24 10.83zm-4 2.3l1.33-2.3-1.33-2.31v4.61zm11.72-15.68l-5.1 8.85-8.86-15.35V221.1l13.96 24.21zm-4.53 3.29l1.9-3.29-9-15.68v8.57l6.58 11.4.52-1zm12.25-16.66l-5.1 8.85L-217 212.1v-17.72l21.68 37.56zm-5.1 4.28l2.52-4.28-16.77-29.05v8.57l14.25 24.76zm34.68-55.5l-5.11 8.84h-43.7l-2.45-4.24v-17.68l7.55 13.08h43.71zm-6.42 6.56l2.47-4.28h-41.08l-3.95-6.85v8.56l1.48 2.57h41.08zm38.61 71.41l-8.35 14.51h-10.24l13.48-23.36 5.11 8.85zm-9.7 12.23l7.06-12.23-2.47-4.29-9.53 16.52h4.94zm2-25.61l-16.12 27.89h-10.22l21.21-36.73 5.13 8.84zm-17.44 25.61l14.79-25.61-2.47-4.28-17.26 29.89h4.94zm-44.35-186.07l-5.1 8.85-8.86-15.35V60.66l13.96 24.19zm-4.53 3.25l1.9-3.29-9-15.67v8.56l6.53 11.4.57-1zm49.55 79.21l-5.11 8.84h-43.7L-217 158.58v-17.69l15.27 26.46 43.71-.04zm-6.42 6.56l2.47-4.28h-41.07l-11.68-20.19v8.57l9.2 15.94 41.08-.04zm-30.88-102.39l-5.1 8.85L-217 51.61V33.92l21.68 37.56zm-5.1 4.29l2.52-4.29-16.77-29V51l14.25 24.77zm-10.34 22.46L-217 109.1V87.41l6.24 10.82zm-4 2.3l1.33-2.3-1.33-2.31v4.61zm64.46 53.45l-5.11 8.84h-43.7l-17.89-31v-17.67l23 39.83h43.7zm-6.42 6.56l2.47-4.28h-41.08l-19.39-33.6v8.57l16.92 29.31h41.08zm628.46 2.28h-43.71l-21.85 37.85-5.08-8.84 21.86-37.85h43.7l5.08 8.84zm-65.56 33.28l20.54-35.57h41.07l-2.47-4.28h-41.08l-20.53 35.58 2.47 4.27zm97.75-31l-5.11 8.85-21.85-37.85h-43.71l5.11-8.85h43.73l21.83 37.85zm-5.11 4.29l2.47-4.29-20.53-35.59h-41.08l-2.47 4.29h41.07l20.54 35.59zm28.28-17.68l-21.86 37.85h-10.22l21.85-37.85-21.85-37.85h10.21l21.87 37.85zm-23.17 35.57l20.53-35.57-20.54-35.61h-4.95l20.54 35.57-20.54 35.57 4.96.04zm7.73-35.57l-5.11 8.85-21.86-37.85h-43.71l5.12-8.85h43.7l21.86 37.85zm-5.11 4.28l2.47-4.28-20.54-35.61H447.4l-2.47 4.28H486l20.55 35.61zm50.12-82.24l-5.11 8.84h-43.7l-21.87-37.85 5.11-8.84 21.85 37.85h43.72zm-6.42 6.56l2.47-4.28h-41.08L491.1 40.46l-2.47 4.28 20.54 35.57h41.08zm-7.71 71.4l-21.86 37.85h-10.22l21.86-37.85-21.86-37.85h10.21l21.87 37.85zm-23.17 35.57l20.53-35.57-20.54-35.61h-4.95l20.54 35.57-20.54 35.57 4.96.04zm38.61-35.57l-21.88 37.85h-10.2l21.86-37.85-21.86-37.85h10.2l21.88 37.85zm-23.18 35.57l20.53-35.57-20.53-35.61h-4.95l20.54 35.57-20.54 35.57 4.95.04zm30.89-22.18l-21.86 37.86H500.1l-5.08-8.86h43.71l21.85-37.85 5.11 8.85zm-23.17 35.57l20.58-35.57-2.47-4.28-20.53 35.55h-41.13l2.47 4.28 41.08.02zm-55.34-11.09h-43.71l-21.85 37.83-5.11-8.84 21.86-37.85h43.73l5.08 8.86zm-65.56 33.27l20.54-35.57h41.07l-2.47-4.28h-41.08l-20.53 35.57 2.47 4.28zm151.79-44.39l-21.86 37.85h-43.7l-5.11-8.85h43.71l21.85-37.85 5.11 8.85zm-23.17 35.57l20.53-35.57-2.47-4.29-20.53 35.57h-41.08l2.47 4.29h41.08zm-70.78-37.84h-43.71l-21.85 37.85-5.11-8.84 21.86-37.85h43.7l5.11 8.84zm-65.56 33.29l20.54-35.57h41.07l-2.47-4.28h-41.08l-20.53 35.57 2.47 4.28zm-10.33 22.46l-21.86 37.85H371.5l21.85-37.85-21.85-37.84h10.21l21.86 37.84zm-23.17 35.57l20.53-35.57-20.53-35.57h-5l20.54 35.57-20.49 35.57h4.95zm168.54-19.93l-5.11 8.84H500.1l-21.86-37.85 5.11-8.84 21.85 37.85h43.74zm-6.42 6.52l2.47-4.28h-41.07l-20.54-35.57-2.47 4.28 20.54 35.57h41.07zm38.58-62.27l-21.86 37.85h-43.7l-5.11-8.85h43.71l21.85-37.85 5.11 8.85zm-23.14 35.57l20.53-35.57-2.47-4.28-20.54 35.55h-41.07l2.47 4.29 41.08.01zm68.14-118.07h-43.67l-21.85 37.85-5.11-8.84 21.86-37.85h43.7l5.07 8.84zm-65.52 33.29l20.52-35.52h41.07l-2.47-4.28h-41.05l-20.55 35.52 2.48 4.28zm65.52 46.94h-10.17l-21.83-37.85 21.85-37.85h10.15l-21.81 37.85 21.81 37.85zm-12.51-58.6l8.6-14.86h-4.94l-20.54 35.61 20.54 35.57h4.94l-20.54-35.57 11.94-20.75zM487.18 194.1l-21.85 37.85 21.85 37.85h-10.21l-21.87-37.86 21.87-37.84h10.21zm-24.49 37.84l20.54-35.57h-4.95l-20.53 35.57 20.53 35.57h4.95l-20.54-35.57zm-74.57 0l-21.85 37.85H356.1l21.85-37.85-21.85-37.84h10.17l21.85 37.84zm-23.16 35.57l20.53-35.57-20.53-35.57h-4.95l20.54 35.57-20.54 35.57h4.95zm54.05-35.57l-21.86 37.85h-10.21l21.85-37.85-21.85-37.84h10.21l21.86 37.84zm-23.18 35.57l20.54-35.57-20.54-35.57h-4.94l20.54 35.57-20.54 35.57h4.94zm60.47-73.41l-21.85 37.84 21.85 37.85h-10.2l-21.87-37.85 21.87-37.84h10.2zm-24.49 37.84l20.54-35.57h-5l-20.48 35.57 20.53 35.57h5l-20.59-35.57zm39.93 37.85h-10.21l-21.86-37.85 21.86-37.84h10.21l-21.85 37.84 21.85 37.85zm-24.49-37.85l20.54-35.57h-5l-20.48 35.57 20.53 35.57h5l-20.59-35.57zm49-53.48l-5.15 8.84-21.85-37.85h-43.71l5.11-8.84h43.7l21.9 37.85zm-5.15 4.28l2.47-4.28-20.53-35.57h-41.08l-2.47 4.28h41.07l20.54 35.57zM471.74 2.36h-43.71l-21.85 37.85-5.08-8.84 21.83-37.85h43.7l5.11 8.84zm-65.56 33.29L426.72.1h41.07l-2.47-4.28h-41.08l-20.53 35.55 2.47 4.28zm204.52 78.21l-21.85 37.85 21.85 37.85h-10.21l-21.86-37.85 21.86-37.85h10.21zm-8.89 73.42h4.94l-20.54-35.57 20.54-35.61h-4.94l-20.54 35.61 20.54 35.57zM573.41 18l-21.86 37.85h-43.7L502.74 47h43.71L568.3 9.15l5.11 8.85zm-23.17 35.57L570.77 18l-2.47-4.28-20.53 35.56h-41.08l2.47 4.29h41.08zM434.45 98.23l-21.86 37.87h-43.7l-5.11-8.85h43.71l21.85-37.87 5.11 8.85zm-23.17 35.57l20.53-35.57-2.47-4.29-20.54 35.57h-41.07l2.47 4.29h41.08zm75.9-104.7h-43.71l-21.85 37.86-5.11-8.86 21.86-37.84h43.73l5.08 8.84zm-65.56 33.29l20.54-35.57h41.07l-2.47-4.28h-41.08L419.15 58.1l2.47 4.29zm57.84-46.66h-43.71L413.9 53.58l-5.11-8.84 21.86-37.85h43.7l5.11 8.84zM413.9 49.02l20.54-35.57h41.07l-2.47-4.28h-41.08l-20.53 35.57 2.47 4.28zm196.8 33.57h-43.71l-21.89 37.85-5.1-8.84 21.85-37.85h43.7l5.15 8.84zm-65.6 33.29l20.54-35.57h41.07l-2.47-4.28H563.2l-20.53 35.57 2.43 4.28zM417.7-6.48l-5.11 8.84h-43.7l-17.89-31v-17.67l23 39.83h43.7zM411.28.1l2.47-4.28h-41.08L353.28-37.8v8.57L370.2.1h41.08zm207.14 95.86h-43.71l-21.85 37.85-5.1-8.84 21.85-37.87h43.7l5.11 8.86zm-65.56 33.29l20.54-35.57h41.07L612 89.4h-41.07l-20.54 35.57 2.47 4.28zm3.8 105l-5.11 8.85h-43.7l-21.86-37.9 5.11-8.85 21.85 37.86 43.71.04zm-6.42 6.56l2.47-4.28h-41.07l-20.54-35.61-2.47 4.28 20.54 35.57 41.07.04zM442.17 111.6l-21.86 37.85h-43.7l-5.11-8.84h43.71l21.89-37.86 5.07 8.85zM419 147.17l20.53-35.57-2.43-4.28-20.58 35.57h-41.07l2.47 4.28H419zM565.69 4.63l-21.86 37.85H500.1l-5.11-8.85h43.71l21.85-37.85 5.14 8.85zM542.52 40.2L563.1 4.63 560.63.34 540.1 35.91h-41.13l2.48 4.29h41.07zM403.57 71.48l-21.86 37.85H371.5l21.85-37.85-21.85-37.85h10.21l21.86 37.85zM380.4 107.1l20.53-35.62-20.53-35.57h-5l20.59 35.57-20.54 35.62h4.95zm7.7-35.62l-21.83 37.85H356.1l21.81-37.85-21.81-37.85h10.17l21.83 37.85zm-23.14 35.62l20.53-35.62-20.53-35.57h-4.95l20.54 35.57-20.54 35.62h4.95zm183.98-20l-5.11 8.84H500.1L478.27 58.1l5.11-8.84 21.85 37.84h43.71zm-6.42 6.56l2.47-4.28h-41.07l-20.54-35.55-2.47 4.27 20.54 35.57 41.07-.01zm52.74 20.18l-21.85 37.87 21.85 37.85H585.1l-21.9-37.85 21.9-37.85 10.16-.02zm-8.9 73.42h5l-20.59-35.55 20.54-35.61h-5l-20.48 35.61 20.53 35.55zM419.01 71.48l-21.86 37.85h-10.21l21.85-37.85-21.85-37.85h10.21l21.86 37.85zm-23.18 35.62l20.54-35.62-20.54-35.57h-4.94l20.54 35.57-20.54 35.62h4.94zm30.9-22.19l-21.86 37.8h-43.7l-5.07-8.85h43.67l21.85-37.85 5.11 8.9zm-23.17 35.51l20.54-35.56-2.47-4.29-20.53 35.53h-41.09l2.47 4.28 41.08.04zm52.74-86.79l-21.85 37.85 21.85 37.85h-10.2l-21.87-37.85 21.87-37.85h10.2zm-24.49 37.85l20.54-35.57h-5l-20.48 35.57 20.53 35.62h5l-20.59-35.62zm55.37-37.85l-21.85 37.85 21.85 37.85h-10.21L455.1 71.48l21.86-37.85h10.22zM475.1 50.1l8.18-14.17h-4.95l-20.58 35.55 20.53 35.62h4.95l-20.54-35.62L475.1 50.1zm66.17 50.41l-5.17 8.82h-43.7l-21.84-37.85 5.1-8.84 21.85 37.85 43.76.02zm-6.47 6.59l2.47-4.28H496.2L475.66 67.2l-2.47 4.28 20.53 35.62h41.08zm-63.06 2.28h-10.21l-21.86-37.9 21.86-37.85h10.21l-21.85 37.85 21.85 37.9zm-24.49-37.9l20.54-35.57h-5l-20.48 35.57 20.53 35.62h5l-20.59-35.62zm94 189.47l-5.15 8.84h-43.7l-21.85-37.85 5.1-8.84 21.85 37.85h43.75zm-6.42 6.56l2.47-4.28h-41.1l-20.54-35.57-2.47 4.28 20.53 35.57h41.11zm96.4-69.18v17.69l-7.55-13.08h-43.74l5.16-8.84h43.71l2.42 4.23zm-2.28 9.18v-8.57l-1.48-2.57h-41.11l-2.47 4.28h41.08l3.98 6.86zm2.28-35.92v17.69l-21.71-37.57 5.1-8.84 16.61 28.72zm-2.28 9.17v-8.56l-14.3-24.77-2.47 4.28 16.77 29.05zm2.28-35.92v17.69l-14-24.19 5.1-8.84 8.9 15.34zm-2.28 9.18v-8.56l-6.61-11.36-2.47 4.28 9.08 15.64zm2.28-62.66v17.74l-2.23-3.91-20.79-35.97H564.5l5.11-8.84h43.7l17.92 30.98zm-2.28 9.17v-8.56L612 62.66h-41.07l-2.48 4.28h41.07l19.43 33.59zm2.28 13.62v21.64l-6.24-10.82 6.24-10.82zm-2.28 13.13v-4.62l-1.33 2.31 1.33 2.31zm2.28-62.67V82.3l-15.3-26.45h-43.71l5.11-8.85h43.7l10.2 17.61zm-2.28 9.18v-8.56l-9.2-15.95h-41.1l-2.48 4.29h41.08l11.7 20.22zm-10.5 182.63h-43.74l-9.68 16.78h-10.21l14.79-25.62h43.7l5.14 8.84zm-54.71 14.5l9.66-16.82h41.07l-2.47-4.28h-41.07l-12.16 21.06 4.97.04zm47-27.87h-43.75l-17.4 30.15h-10.21l22.51-39h43.7l5.15 8.85zm-62.43 27.87l17.41-30.15h41.07l-2.47-4.28H563.2l-19.87 34.43h4.98zm82.89-45.82v17.69l-15.27-26.45h-43.71l5.11-8.85h43.7l10.17 17.61zm-2.28 9.18v-8.57l-9.2-15.94h-41.07l-2.48 4.29h41.08l11.67 20.22zm-2.82 35.51h-43.67l-2 3.41h-10.17l7.07-12.25h43.7l5.07 8.84zm-47 1.13l2-3.41h41.07l-2.47-4.28h-41.05l-4.44 7.69h4.89zm52.05-19.1v17.73l-2.23-3.92-20.76-35.95H564.5l5.11-8.85h43.7l17.84 30.99zm-2.28 9.17v-8.56L612 223.1h-41.07l-2.48 4.29h41.07l19.35 33.6zM631.2 11.1v17.69L609.52-8.75l5.1-8.84L631.2 11.1zm-2.28 9.17v-8.56l-14.3-24.77-2.47 4.28 16.77 29.05zM442.82-50l-22.51 39h-43.7l-5.11-8.85h43.71L432.61-50h10.21zM419-13.29l19.87-34.43h-4.94l-17.41 30.15h-41.07l2.47 4.28H419zM550.9-50l-5.76 10-5.76-10h11.52zm-5.8 5.42l1.81-3.14h-3.62l1.81 3.14zM566.31-50l-13.45 23.35-5.1-8.84L556.1-50h10.21zm-13.45 18.79l9.54-16.51h-5l-7.06 12.23 2.52 4.28zM411.94-50l-7.07 12.25h-43.7l-5.07-8.85h43.67l2-3.4h10.17zm-8.38 10l4.43-7.69h-4.89l-2 3.4h-41.09l2.47 4.29h41.08zm23.82-10l-14.79 25.62h-43.7l-5.11-8.84h43.71L417.17-50h10.21zm-16.1 23.34l12.15-21.06h-4.94L408.8-30.9h-41.07l2.47 4.24h41.08zM581.79-50l-21.21 36.73-5.11-8.85L571.57-50h10.22zm-21.21 32.16l17.26-29.88h-5l-14.74 25.6 2.48 4.28zM442.82 273.2H431.3l5.76-10 5.76 10zm-7.57-2.28h3.62l-1.77-3.15-1.85 3.15zm196-286.53V2.1l-14-24.19 5.1-8.84 8.9 15.32zm-2.28 9.17V-15l-6.58-11.4-2.47 4.28 9.05 15.68zm2.28-39.87v21.64l-6.24-10.82 6.24-10.82zm-2.28 13.13v-4.61l-1.33 2.3 1.33 2.31zm2.28 71.05v17.69l-7.6-13.08h-43.71l5.16-8.85h43.71l2.44 4.24zm-2.33 9.23v-8.57l-1.48-2.57h-41.08l-2.47 4.29h41.08l3.95 6.85zM581.1 31.37l-21.83 37.85h-43.7l-5.11-8.84h43.71l21.85-37.85 5.08 8.84zm-23.14 35.57l20.53-35.57-2.47-4.27-20.54 35.56h-41.07l2.47 4.28h41.08zm-54-62.31l-5.11 8.84-21.88-37.85h-43.71l5.11-8.84h43.73l21.86 37.85zm-5.11 4.28l2.47-4.28-20.56-35.53h-41.08l-2.47 4.28h41.07l20.57 35.53zm12.83-17.66L506.54.1l-21.85-37.85h-43.71l5.12-8.85h43.7l21.88 37.85zm-5.11 4.29l2.47-4.29-20.56-35.57H447.4l-2.47 4.29H486l20.57 35.57zm20.53-4.29L505.23 29.1h-10.21l21.85-37.86-21.85-37.84h10.21L527.1-8.75zm-23.18 35.57l20.53-35.57-20.53-35.57h-4.95l20.54 35.57-20.54 35.57h4.95zM409.98 6.89l-5.11 8.84h-43.7L351-1.9v-17.67l15.27 26.46h43.71zm-6.42 6.56l2.47-4.28h-41.07l-11.68-20.22v8.56l9.2 15.94h41.08zM496.21 18l-5.11 8.84-21.85-37.85h-43.71l5.11-8.84h43.7L496.21 18zm-5.11 4.28l2.47-4.28-20.53-35.57h-41.08l-2.47 4.28h41.07l20.54 35.57zm51.43-31L520.67 29.1h-10.21l21.86-37.86-21.86-37.84h10.21l21.86 37.88zm-23.17 35.54l20.53-35.57-20.53-35.57h-4.95l20.54 35.57-20.54 35.57h4.95zm-117.1-6.56l-5.11 8.84h-43.7L351 24.86V7.18l7.55 13.08h43.71zm-6.42 6.56l2.47-4.28h-41.08l-3.95-6.85v8.56l1.48 2.57h41.08zM610.7-46.6L588.85-8.75 610.7 29.1h-10.21L578.63-8.75l21.86-37.85h10.21zM586.21-8.75l20.54-35.57h-4.94L581.27-8.75l20.54 35.57h4.94L586.21-8.75zM626.1 29.1h-10.17L594.1-8.75l21.83-37.85h10.17L604.29-8.75 626.1 29.1zm-12.47-58.6l8.56-14.82h-4.94L596.71-8.75l20.54 35.57h4.94L601.65-8.75l11.98-20.75zM557.97-8.75L536.1 29.1h-10.2l21.86-37.86L525.9-46.6h10.2l21.87 37.85zM534.8 26.82l20.53-35.57-20.53-35.57h-4.95l20.54 35.57-20.54 35.57h4.95zm60.46-73.42L573.41-8.75l21.85 37.85H585.1L563.2-8.75l21.9-37.85h10.16zM570.77-8.75l20.54-35.57h-5L565.83-8.75l20.53 35.57h5L570.77-8.75zM357.24 258.69L351 269.5v-21.64l6.24 10.83zm-4 2.3l1.33-2.3-1.33-2.31v4.61zm11.72-15.68l-5.1 8.85-8.86-15.35V221.1l13.96 24.21zm-4.53 3.29l1.9-3.29-9-15.68v8.57l6.58 11.4.52-1zm12.25-16.66l-5.1 8.85L351 212.1v-17.72l21.68 37.56zm-5.1 4.28l2.52-4.28-16.77-29.05v8.57l14.25 24.76zm34.68-55.5l-5.11 8.84h-43.7l-2.45-4.24v-17.68l7.55 13.08h43.71zm-6.42 6.56l2.47-4.28h-41.08l-3.95-6.85v8.56l1.48 2.57h41.08zm38.61 71.41l-8.35 14.51h-10.24l13.48-23.36 5.11 8.85zm-9.7 12.23l7.06-12.23-2.47-4.29-9.53 16.52h4.94zm2-25.61l-16.12 27.89h-10.22l21.21-36.73 5.13 8.84zm-17.44 25.61l14.79-25.61-2.47-4.28-17.26 29.89h4.94zM364.96 84.85l-5.1 8.85L351 78.35V60.66l13.96 24.19zm-4.53 3.25l1.9-3.29-9-15.67v8.56l6.53 11.4.57-1zm49.55 79.21l-5.11 8.84h-43.7L351 158.58v-17.69l15.27 26.46 43.71-.04zm-6.42 6.56l2.47-4.28h-41.07l-11.68-20.19v8.57l9.2 15.94 41.08-.04zM372.68 71.48l-5.1 8.85L351 51.61V33.92l21.68 37.56zm-5.1 4.29l2.52-4.29-16.77-29V51l14.25 24.77zm-10.34 22.46L351 109.1V87.41l6.24 10.82zm-4 2.3l1.33-2.3-1.33-2.31v4.61zm64.46 53.45l-5.11 8.84h-43.7l-17.89-31v-17.67l23 39.83h43.7zm-6.42 6.56l2.47-4.28h-41.08l-19.39-33.6v8.57l16.92 29.31h41.08zm628.46 2.28h-43.71l-21.85 37.85-5.08-8.84 21.86-37.85h43.7l5.08 8.84zm-65.56 33.28l20.54-35.57h41.07l-2.47-4.28h-41.08l-20.53 35.58 2.47 4.27zm97.75-31l-5.11 8.85-21.85-37.85h-43.71l5.11-8.85h43.73l21.83 37.85zm-5.11 4.29l2.47-4.29-20.53-35.59h-41.08l-2.47 4.29h41.07l20.54 35.59zm28.28-17.68l-21.86 37.85h-10.22l21.85-37.85-21.85-37.85h10.21l21.87 37.85zm-23.17 35.57l20.53-35.57-20.54-35.61h-4.95l20.54 35.57-20.54 35.57 4.96.04zm7.73-35.57l-5.11 8.85-21.86-37.85h-43.71l5.12-8.85h43.7l21.86 37.85zm-5.11 4.28l2.47-4.28-20.54-35.61h-41.08l-2.47 4.28H1054l20.55 35.61zm50.12-82.24l-5.11 8.84h-43.7l-21.87-37.85 5.11-8.84 21.85 37.85h43.72zm-6.42 6.56l2.47-4.28h-41.08l-20.54-35.57-2.47 4.28 20.54 35.57h41.08zm-7.71 71.4l-21.86 37.85h-10.22l21.86-37.85-21.86-37.85h10.21l21.87 37.85zm-23.17 35.57l20.53-35.57-20.54-35.61h-4.95l20.54 35.57-20.54 35.57 4.96.04zm38.61-35.57l-21.88 37.85h-10.2l21.86-37.85-21.86-37.85h10.2l21.88 37.85zm-23.18 35.57l20.53-35.57-20.53-35.61h-4.95l20.54 35.57-20.54 35.57 4.95.04zm30.89-22.18l-21.86 37.86h-43.73l-5.08-8.86h43.71l21.85-37.85 5.11 8.85zm-23.17 35.57l20.58-35.57-2.47-4.28-20.53 35.55h-41.13l2.47 4.28 41.08.02zm-55.34-11.09h-43.71l-21.85 37.83-5.11-8.84 21.86-37.85h43.73l5.08 8.86zm-65.56 33.27l20.54-35.57h41.07l-2.47-4.28h-41.08l-20.53 35.57 2.47 4.28zm151.79-44.39l-21.86 37.85h-43.7l-5.11-8.85h43.71l21.85-37.85 5.11 8.85zm-23.17 35.57l20.53-35.57-2.47-4.29-20.53 35.57h-41.08l2.47 4.29h41.08zm-70.78-37.84h-43.71l-21.85 37.85-5.11-8.84 21.86-37.85h43.7l5.11 8.84zm-65.56 33.29l20.54-35.57h41.07l-2.47-4.28h-41.08l-20.53 35.57 2.47 4.28zm-10.33 22.46l-21.86 37.85H939.5l21.85-37.85-21.85-37.84h10.21l21.86 37.84zm-23.17 35.57l20.53-35.57-20.53-35.57h-5l20.54 35.57-20.49 35.57h4.95zm168.54-19.93l-5.11 8.84h-43.73l-21.86-37.85 5.11-8.84 21.85 37.85h43.74zm-6.42 6.52l2.47-4.28h-41.07l-20.54-35.57-2.47 4.28 20.54 35.57h41.07zm38.58-62.27l-21.86 37.85h-43.7l-5.11-8.85h43.71l21.85-37.85 5.11 8.85zm-23.14 35.57l20.53-35.57-2.47-4.28-20.54 35.55h-41.07l2.47 4.29 41.08.01zm68.14-118.07h-43.67l-21.85 37.85-5.11-8.84 21.86-37.85h43.7l5.07 8.84zm-65.52 33.29l20.52-35.52h41.07l-2.47-4.28h-41.05l-20.55 35.52 2.48 4.28zm65.52 46.94h-10.17l-21.83-37.85 21.85-37.85h10.15l-21.81 37.85 21.81 37.85zm-12.51-58.6l8.6-14.86h-4.94l-20.54 35.61 20.54 35.57h4.94l-20.54-35.57 11.94-20.75zm-126.41 63.14l-21.85 37.85 21.85 37.85h-10.21l-21.87-37.86 21.87-37.84h10.21zm-24.49 37.84l20.54-35.57h-4.95l-20.53 35.57 20.53 35.57h4.95l-20.54-35.57zm-74.57 0l-21.85 37.85H924.1l21.85-37.85-21.85-37.84h10.17l21.85 37.84zm-23.16 35.57l20.53-35.57-20.53-35.57h-4.95l20.54 35.57-20.54 35.57h4.95zm54.05-35.57l-21.86 37.85h-10.21l21.85-37.85-21.85-37.84h10.21l21.86 37.84zm-23.18 35.57l20.54-35.57-20.54-35.57h-4.94l20.54 35.57-20.54 35.57h4.94zm60.47-73.41l-21.85 37.84 21.85 37.85h-10.2l-21.87-37.85 21.87-37.84h10.2zm-24.49 37.84l20.54-35.57h-5l-20.48 35.57 20.53 35.57h5l-20.59-35.57zm39.93 37.85h-10.21l-21.86-37.85 21.86-37.84h10.21l-21.85 37.84 21.85 37.85zm-24.49-37.85l20.54-35.57h-5l-20.48 35.57 20.53 35.57h5l-20.59-35.57zm49-53.48l-5.15 8.84-21.85-37.85h-43.71l5.11-8.84h43.7l21.9 37.85zm-5.15 4.28l2.47-4.28-20.53-35.57h-41.08l-2.47 4.28h41.07l20.54 35.57zM1039.74 2.36h-43.71l-21.85 37.85-5.08-8.84 21.83-37.85h43.7l5.11 8.84zm-65.56 33.29L994.72.1h41.07l-2.47-4.28h-41.08l-20.53 35.55 2.47 4.28zm204.52 78.21l-21.85 37.85 21.85 37.85h-10.21l-21.86-37.85 21.86-37.85h10.21zm-8.89 73.42h4.94l-20.54-35.57 20.54-35.61h-4.94l-20.54 35.61 20.54 35.57zM1141.41 18l-21.86 37.85h-43.7l-5.11-8.85h43.71l21.85-37.85 5.11 8.85zm-23.17 35.57L1138.77 18l-2.47-4.28-20.53 35.56h-41.08l2.47 4.29h41.08zm-115.79 44.66l-21.86 37.87h-43.7l-5.11-8.85h43.71l21.85-37.87 5.11 8.85zm-23.17 35.57l20.53-35.57-2.47-4.29-20.54 35.57h-41.07l2.47 4.29h41.08zm75.9-104.7h-43.71l-21.85 37.86-5.11-8.86 21.86-37.84h43.73l5.08 8.84zm-65.56 33.29l20.54-35.57h41.07l-2.47-4.28h-41.08L987.15 58.1l2.47 4.29zm57.84-46.66h-43.71L981.9 53.58l-5.11-8.84 21.86-37.85h43.7l5.11 8.84zM981.9 49.02l20.54-35.57h41.07l-2.47-4.28h-41.08l-20.53 35.57 2.47 4.28zm196.8 33.57h-43.71l-21.89 37.85-5.1-8.84 21.85-37.85h43.7l5.15 8.84zm-65.6 33.29l20.54-35.57h41.07l-2.47-4.28h-41.04l-20.53 35.57 2.43 4.28zM985.7-6.48l-5.11 8.84h-43.7l-17.89-31v-17.67l23 39.83h43.7zM979.28.1l2.47-4.28h-41.08L921.28-37.8v8.57L938.2.1h41.08zm207.14 95.86h-43.71l-21.85 37.85-5.1-8.84 21.85-37.87h43.7l5.11 8.86zm-65.56 33.29l20.54-35.57h41.07L1180 89.4h-41.07l-20.54 35.57 2.47 4.28zm3.8 105l-5.11 8.85h-43.7l-21.86-37.9 5.11-8.85 21.85 37.86 43.71.04zm-6.42 6.56l2.47-4.28h-41.07l-20.54-35.61-2.47 4.28 20.54 35.57 41.07.04zM1010.17 111.6l-21.86 37.85h-43.7l-5.11-8.84h43.71l21.89-37.86 5.07 8.85zM987 147.17l20.53-35.57-2.43-4.28-20.58 35.57h-41.07l2.47 4.28H987zM1133.69 4.63l-21.86 37.85h-43.73l-5.11-8.85h43.71l21.85-37.85 5.14 8.85zm-23.17 35.57l20.58-35.57-2.47-4.29-20.53 35.57h-41.13l2.48 4.29h41.07zM971.57 71.48l-21.86 37.85H939.5l21.85-37.85-21.85-37.85h10.21l21.86 37.85zM948.4 107.1l20.53-35.62-20.53-35.57h-5l20.59 35.57-20.54 35.62h4.95zm7.7-35.62l-21.83 37.85H924.1l21.81-37.85-21.81-37.85h10.17l21.83 37.85zm-23.14 35.62l20.53-35.62-20.53-35.57h-4.95l20.54 35.57-20.54 35.62h4.95zm183.98-20l-5.11 8.84h-43.73l-21.83-37.84 5.11-8.84 21.85 37.84h43.71zm-6.42 6.56l2.47-4.28h-41.07l-20.54-35.55-2.47 4.27 20.54 35.57 41.07-.01zm52.74 20.18l-21.85 37.87 21.85 37.85h-10.16l-21.9-37.85 21.9-37.85 10.16-.02zm-8.9 73.42h5l-20.59-35.55 20.54-35.61h-5l-20.48 35.61 20.53 35.55zM987.01 71.48l-21.86 37.85h-10.21l21.85-37.85-21.85-37.85h10.21l21.86 37.85zm-23.18 35.62l20.54-35.62-20.54-35.57h-4.94l20.54 35.57-20.54 35.62h4.94zm30.9-22.19l-21.86 37.8h-43.7l-5.07-8.85h43.67l21.85-37.85 5.11 8.9zm-23.17 35.51l20.54-35.56-2.47-4.29-20.53 35.53h-41.09l2.47 4.28 41.08.04zm52.74-86.79l-21.85 37.85 21.85 37.85h-10.2l-21.87-37.85 21.87-37.85h10.2zm-24.49 37.85l20.54-35.57h-5l-20.48 35.57 20.53 35.62h5l-20.59-35.62zm55.37-37.85l-21.85 37.85 21.85 37.85h-10.21l-21.87-37.85 21.86-37.85h10.22zM1043.1 50.1l8.18-14.17h-4.95l-20.58 35.55 20.53 35.62h4.95l-20.54-35.62 12.41-21.38zm66.17 50.41l-5.17 8.82h-43.7l-21.84-37.85 5.1-8.84 21.85 37.85 43.76.02zm-6.47 6.59l2.47-4.28h-41.07l-20.54-35.62-2.47 4.28 20.53 35.62h41.08zm-63.06 2.28h-10.21l-21.86-37.9 21.86-37.85h10.21l-21.85 37.85 21.85 37.9zm-24.49-37.9l20.54-35.57h-5l-20.48 35.57 20.53 35.62h5l-20.59-35.62zm94 189.47l-5.15 8.84h-43.7l-21.85-37.85 5.1-8.84 21.85 37.85h43.75zm-6.42 6.56l2.47-4.28h-41.1l-20.54-35.57-2.47 4.28 20.53 35.57h41.11zm96.4-69.18v17.69l-7.55-13.08h-43.74l5.16-8.84h43.71l2.42 4.23zm-2.28 9.18v-8.57l-1.48-2.57h-41.11l-2.47 4.28h41.08l3.98 6.86zm2.28-35.92v17.69l-21.71-37.57 5.1-8.84 16.61 28.72zm-2.28 9.17v-8.56l-14.3-24.77-2.47 4.28 16.77 29.05zm2.28-35.92v17.69l-14-24.19 5.1-8.84 8.9 15.34zm-2.28 9.18v-8.56l-6.61-11.36-2.47 4.28 9.08 15.64zm2.28-62.66v17.74l-2.23-3.91-20.79-35.97h-43.71l5.11-8.84h43.7l17.92 30.98zm-2.28 9.17v-8.56L1180 62.66h-41.07l-2.48 4.28h41.07l19.43 33.59zm2.28 13.62v21.64l-6.24-10.82 6.24-10.82zm-2.28 13.13v-4.62l-1.33 2.31 1.33 2.31zm2.28-62.67V82.3l-15.3-26.45h-43.71l5.11-8.85h43.7l10.2 17.61zm-2.28 9.18v-8.56l-9.2-15.95h-41.1l-2.48 4.29h41.08l11.7 20.22zm-10.5 182.63h-43.74l-9.68 16.78h-10.21l14.79-25.62h43.7l5.14 8.84zm-54.71 14.5l9.66-16.82h41.07l-2.47-4.28h-41.07l-12.16 21.06 4.97.04zm47-27.87h-43.75l-17.4 30.15h-10.21l22.51-39h43.7l5.15 8.85zm-62.43 27.87l17.41-30.15h41.07l-2.47-4.28h-41.12l-19.87 34.43h4.98zm82.89-45.82v17.69l-15.27-26.45h-43.71l5.11-8.85h43.7l10.17 17.61zm-2.28 9.18v-8.57l-9.2-15.94h-41.07l-2.48 4.29h41.08l11.67 20.22zm-2.82 35.51h-43.67l-2 3.41h-10.17l7.07-12.25h43.7l5.07 8.84zm-47 1.13l2-3.41h41.07l-2.47-4.28h-41.05l-4.44 7.69h4.89zm52.05-19.1v17.73l-2.23-3.92-20.76-35.95h-43.66l5.11-8.85h43.7l17.84 30.99zm-2.28 9.17v-8.56L1180 223.1h-41.07l-2.48 4.29h41.07l19.35 33.6zm2.33-249.89v17.69l-21.68-37.54 5.1-8.84 16.58 28.69zm-2.28 9.17v-8.56l-14.3-24.77-2.47 4.28 16.77 29.05zM1010.82-50l-22.51 39h-43.7l-5.11-8.85h43.71l17.4-30.15h10.21zM987-13.29l19.87-34.43h-4.94l-17.41 30.15h-41.07l2.47 4.28H987zM1118.9-50l-5.76 10-5.76-10h11.52zm-5.8 5.42l1.81-3.14h-3.62l1.81 3.14zm21.21-5.42l-13.45 23.35-5.1-8.84L1124.1-50h10.21zm-13.45 18.79l9.54-16.51h-5l-7.06 12.23 2.52 4.28zM979.94-50l-7.07 12.25h-43.7l-5.07-8.85h43.67l2-3.4h10.17zm-8.38 10l4.43-7.69h-4.89l-2 3.4h-41.09l2.47 4.29h41.08zm23.82-10l-14.79 25.62h-43.7l-5.11-8.84h43.71L985.17-50h10.21zm-16.1 23.34l12.15-21.06h-4.94L976.8-30.9h-41.07l2.47 4.24h41.08zM1149.79-50l-21.21 36.73-5.11-8.85 16.1-27.88h10.22zm-21.21 32.16l17.26-29.88h-5l-14.74 25.6 2.48 4.28zM1010.82 273.2H999.3l5.76-10 5.76 10zm-7.57-2.28h3.62l-1.77-3.15-1.85 3.15zm196-286.53V2.1l-14-24.19 5.1-8.84 8.9 15.32zm-2.28 9.17V-15l-6.58-11.4-2.47 4.28 9.05 15.68zm2.28-39.87v21.64l-6.24-10.82 6.24-10.82zm-2.28 13.13v-4.61l-1.33 2.3 1.33 2.31zm2.28 71.05v17.69l-7.6-13.08h-43.71l5.16-8.85h43.71l2.44 4.24zm-2.33 9.23v-8.57l-1.48-2.57h-41.08l-2.47 4.29h41.08l3.95 6.85zm-47.82-15.73l-21.83 37.85h-43.7l-5.11-8.84h43.71l21.85-37.85 5.08 8.84zm-23.14 35.57l20.53-35.57-2.47-4.27-20.54 35.56h-41.07l2.47 4.28h41.08zm-54-62.31l-5.11 8.84-21.88-37.85h-43.71l5.11-8.84h43.73l21.86 37.85zm-5.11 4.28l2.47-4.28-20.56-35.53h-41.08l-2.47 4.28h41.07l20.57 35.53zm12.83-17.66L1074.54.1l-21.85-37.85h-43.71l5.12-8.85h43.7l21.88 37.85zm-5.11 4.29l2.47-4.29-20.56-35.57h-41.08l-2.47 4.29H1054l20.57 35.57zm20.53-4.29l-21.87 37.85h-10.21l21.85-37.86-21.85-37.84h10.21l21.87 37.85zm-23.18 35.57l20.53-35.57-20.53-35.57h-4.95l20.54 35.57-20.54 35.57h4.95zM977.98 6.89l-5.11 8.84h-43.7L919-1.9v-17.67l15.27 26.46h43.71zm-6.42 6.56l2.47-4.28h-41.07l-11.68-20.22v8.56l9.2 15.94h41.08zm92.65 4.55l-5.11 8.84-21.85-37.85h-43.71l5.11-8.84h43.7L1064.21 18zm-5.11 4.28l2.47-4.28-20.53-35.57h-41.08l-2.47 4.28h41.07l20.54 35.57zm51.43-31l-21.86 37.82h-10.21l21.86-37.86-21.86-37.84h10.21l21.86 37.88zm-23.17 35.54l20.53-35.57-20.53-35.57h-4.95l20.54 35.57-20.54 35.57h4.95zm-117.1-6.56l-5.11 8.84h-43.7L919 24.86V7.18l7.55 13.08h43.71zm-6.42 6.56l2.47-4.28h-41.08l-3.95-6.85v8.56l1.48 2.57h41.08zM1178.7-46.6l-21.85 37.85 21.85 37.85h-10.21l-21.86-37.85 21.86-37.85h10.21zm-24.49 37.85l20.54-35.57h-4.94l-20.54 35.57 20.54 35.57h4.94l-20.54-35.57zm39.89 37.85h-10.17L1162.1-8.75l21.83-37.85h10.17l-21.81 37.85 21.81 37.85zm-12.47-58.6l8.56-14.82h-4.94l-20.54 35.57 20.54 35.57h4.94l-20.54-35.57 11.98-20.75zm-55.66 20.75L1104.1 29.1h-10.2l21.86-37.86-21.86-37.84h10.2l21.87 37.85zm-23.17 35.57l20.53-35.57-20.53-35.57h-4.95l20.54 35.57-20.54 35.57h4.95zm60.46-73.42l-21.85 37.85 21.85 37.85h-10.16l-21.9-37.85 21.9-37.85h10.16zm-24.49 37.85l20.54-35.57h-5l-20.48 35.57 20.53 35.57h5l-20.59-35.57zM925.24 258.69L919 269.5v-21.64l6.24 10.83zm-4 2.3l1.33-2.3-1.33-2.31v4.61zm11.72-15.68l-5.1 8.85-8.86-15.35V221.1l13.96 24.21zm-4.53 3.29l1.9-3.29-9-15.68v8.57l6.58 11.4.52-1zm12.25-16.66l-5.1 8.85L919 212.1v-17.72l21.68 37.56zm-5.1 4.28l2.52-4.28-16.77-29.05v8.57l14.25 24.76zm34.68-55.5l-5.11 8.84h-43.7l-2.45-4.24v-17.68l7.55 13.08h43.71zm-6.42 6.56l2.47-4.28h-41.08l-3.95-6.85v8.56l1.48 2.57h41.08zm38.61 71.41l-8.35 14.51h-10.24l13.48-23.36 5.11 8.85zm-9.7 12.23l7.06-12.23-2.47-4.29-9.53 16.52h4.94zm2-25.61l-16.12 27.89h-10.22l21.21-36.73 5.13 8.84zm-17.44 25.61l14.79-25.61-2.47-4.28-17.26 29.89h4.94zM932.96 84.85l-5.1 8.85L919 78.35V60.66l13.96 24.19zm-4.53 3.25l1.9-3.29-9-15.67v8.56l6.53 11.4.57-1zm49.55 79.21l-5.11 8.84h-43.7L919 158.58v-17.69l15.27 26.46 43.71-.04zm-6.42 6.56l2.47-4.28h-41.07l-11.68-20.19v8.57l9.2 15.94 41.08-.04zM940.68 71.48l-5.1 8.85L919 51.61V33.92l21.68 37.56zm-5.1 4.29l2.52-4.29-16.77-29V51l14.25 24.77zm-10.34 22.46L919 109.1V87.41l6.24 10.82zm-4 2.3l1.33-2.3-1.33-2.31v4.61zm64.46 53.45l-5.11 8.84h-43.7l-17.89-31v-17.67l23 39.83h43.7zm-6.42 6.56l2.47-4.28h-41.08l-19.39-33.6v8.57l16.92 29.31h41.08zm344.46 2.28h-43.71l-21.85 37.85-5.08-8.84 21.86-37.85h43.7l5.08 8.84zm-65.56 33.28l20.54-35.57h41.07l-2.47-4.28h-41.08l-20.53 35.58 2.47 4.27zm97.75-31l-5.11 8.85-21.85-37.85h-43.71l5.11-8.85h43.73l21.83 37.85zm-5.11 4.29l2.47-4.29-20.53-35.59h-41.08l-2.47 4.29h41.07l20.54 35.59zm28.28-17.68l-21.86 37.85h-10.22l21.85-37.85-21.85-37.85h10.21l21.87 37.85zm-23.17 35.57l20.53-35.57-20.54-35.61h-4.95l20.54 35.57-20.54 35.57 4.96.04zm7.73-35.57l-5.11 8.85-21.86-37.85h-43.71l5.12-8.85h43.7l21.86 37.85zm-5.11 4.28l2.47-4.28-20.54-35.61h-41.08l-2.47 4.28H1338l20.55 35.61zm50.12-82.24l-5.11 8.84h-43.7l-21.87-37.85 5.11-8.84 21.85 37.85h43.72zm-6.42 6.56l2.47-4.28h-41.08l-20.54-35.57-2.47 4.28 20.54 35.57h41.08zm-7.71 71.4l-21.86 37.85h-10.22l21.86-37.85-21.86-37.85h10.21l21.87 37.85zm-23.17 35.57l20.53-35.57-20.54-35.61h-4.95l20.54 35.57-20.54 35.57 4.96.04zm38.61-35.57l-21.88 37.85h-10.2l21.86-37.85-21.86-37.85h10.2l21.88 37.85zm-23.18 35.57l20.53-35.57-20.53-35.61h-4.95l20.54 35.57-20.54 35.57 4.95.04zm30.89-22.18l-21.86 37.86h-43.73l-5.08-8.86h43.71l21.85-37.85 5.11 8.85zm-23.17 35.57l20.58-35.57-2.47-4.28-20.53 35.55h-41.13l2.47 4.28 41.08.02zm-55.34-11.09h-43.71l-21.85 37.83-5.11-8.84 21.86-37.85h43.73l5.08 8.86zm-65.56 33.27l20.54-35.57h41.07l-2.47-4.28h-41.08l-20.53 35.57 2.47 4.28zm151.79-44.39l-21.86 37.85h-43.7l-5.11-8.85h43.71l21.85-37.85 5.11 8.85zm-23.17 35.57l20.53-35.57-2.47-4.29-20.53 35.57h-41.08l2.47 4.29h41.08zm-70.78-37.84h-43.71l-21.85 37.85-5.11-8.84 21.86-37.85h43.7l5.11 8.84zm-65.56 33.29l20.54-35.57h41.07l-2.47-4.28h-41.08l-20.53 35.57 2.47 4.28zm-10.33 22.46l-21.86 37.85h-10.21l21.85-37.85-21.85-37.84h10.21l21.86 37.84zm-23.17 35.57l20.53-35.57-20.53-35.57h-5l20.54 35.57-20.49 35.57h4.95zm168.54-19.93l-5.11 8.84h-43.73l-21.86-37.85 5.11-8.84 21.85 37.85h43.74zm-6.42 6.52l2.47-4.28h-41.07l-20.54-35.57-2.47 4.28 20.54 35.57h41.07zm38.58-62.27l-21.86 37.85h-43.7l-5.11-8.85h43.71l21.85-37.85 5.11 8.85zm-23.14 35.57l20.53-35.57-2.47-4.28-20.54 35.55h-41.07l2.47 4.29 41.08.01zm68.14-118.07h-43.67l-21.85 37.85-5.11-8.84 21.86-37.85h43.7l5.07 8.84zm-65.52 33.29l20.52-35.52h41.07l-2.47-4.28h-41.05l-20.55 35.52 2.48 4.28zm65.52 46.94h-10.17l-21.83-37.85 21.85-37.85h10.15l-21.81 37.85 21.81 37.85zm-12.51-58.6l8.6-14.86h-4.94l-20.54 35.61 20.54 35.57h4.94l-20.54-35.57 11.94-20.75zm-126.41 63.14l-21.85 37.85 21.85 37.85h-10.21l-21.87-37.86 21.87-37.84h10.21zm-24.49 37.84l20.54-35.57h-4.95l-20.53 35.57 20.53 35.57h4.95l-20.54-35.57zm-74.57 0l-21.85 37.85h-10.17l21.85-37.85-21.85-37.84h10.17l21.85 37.84zm-23.16 35.57l20.53-35.57-20.53-35.57h-4.95l20.54 35.57-20.54 35.57h4.95zm54.05-35.57l-21.86 37.85h-10.21l21.85-37.85-21.85-37.84h10.21l21.86 37.84zm-23.18 35.57l20.54-35.57-20.54-35.57h-4.94l20.54 35.57-20.54 35.57h4.94zm60.47-73.41l-21.85 37.84 21.85 37.85h-10.2l-21.87-37.85 21.87-37.84h10.2zm-24.49 37.84l20.54-35.57h-5l-20.48 35.57 20.53 35.57h5l-20.59-35.57zm39.93 37.85h-10.21l-21.86-37.85 21.86-37.84h10.21l-21.85 37.84 21.85 37.85zm-24.49-37.85l20.54-35.57h-5l-20.48 35.57 20.53 35.57h5l-20.59-35.57zm49-53.48l-5.15 8.84-21.85-37.85h-43.71l5.11-8.84h43.7l21.9 37.85zm-5.15 4.28l2.47-4.28-20.53-35.57h-41.08l-2.47 4.28h41.07l20.54 35.57zM1323.74 2.36h-43.71l-21.85 37.85-5.08-8.84 21.83-37.85h43.7l5.11 8.84zm-65.56 33.29L1278.72.1h41.07l-2.47-4.28h-41.08l-20.53 35.55 2.47 4.28zm204.52 78.21l-21.85 37.85 21.85 37.85h-10.21l-21.86-37.85 21.86-37.85h10.21zm-8.89 73.42h4.94l-20.54-35.57 20.54-35.61h-4.94l-20.54 35.61 20.54 35.57zM1425.41 18l-21.86 37.85h-43.7l-5.11-8.85h43.71l21.85-37.85 5.11 8.85zm-23.17 35.57L1422.77 18l-2.47-4.28-20.53 35.56h-41.08l2.47 4.29h41.08zm-115.79 44.66l-21.86 37.87h-43.7l-5.11-8.85h43.71l21.85-37.87 5.11 8.85zm-23.17 35.57l20.53-35.57-2.47-4.29-20.54 35.57h-41.07l2.47 4.29h41.08zm75.9-104.7h-43.71l-21.85 37.86-5.11-8.86 21.86-37.84h43.73l5.08 8.84zm-65.56 33.29l20.54-35.57h41.07l-2.47-4.28h-41.08l-20.53 35.56 2.47 4.29zm57.84-46.66h-43.71l-21.85 37.85-5.11-8.84 21.86-37.85h43.7l5.11 8.84zm-65.56 33.29l20.54-35.57h41.07l-2.47-4.28h-41.08l-20.53 35.57 2.47 4.28zm196.8 33.57h-43.71l-21.89 37.85-5.1-8.84 21.85-37.85h43.7l5.15 8.84zm-65.6 33.29l20.54-35.57h41.07l-2.47-4.28h-41.04l-20.53 35.57 2.43 4.28zM1269.7-6.48l-5.11 8.84h-43.7l-17.89-31v-17.67l23 39.83h43.7zM1263.28.1l2.47-4.28h-41.08l-19.39-33.62v8.57L1222.2.1h41.08zm207.14 95.86h-43.71l-21.85 37.85-5.1-8.84 21.85-37.87h43.7l5.11 8.86zm-65.56 33.29l20.54-35.57h41.07L1464 89.4h-41.07l-20.54 35.57 2.47 4.28zm3.8 105l-5.11 8.85h-43.7l-21.86-37.9 5.11-8.85 21.85 37.86 43.71.04zm-6.42 6.56l2.47-4.28h-41.07l-20.54-35.61-2.47 4.28 20.54 35.57 41.07.04zM1294.17 111.6l-21.86 37.85h-43.7l-5.11-8.84h43.71l21.89-37.86 5.07 8.85zM1271 147.17l20.53-35.57-2.43-4.28-20.58 35.57h-41.07l2.47 4.28H1271zM1417.69 4.63l-21.86 37.85h-43.73l-5.11-8.85h43.71l21.85-37.85 5.14 8.85zm-23.17 35.57l20.58-35.57-2.47-4.29-20.53 35.57h-41.13l2.48 4.29h41.07zm-138.95 31.28l-21.86 37.85h-10.21l21.85-37.85-21.85-37.85h10.21l21.86 37.85zm-23.17 35.62l20.53-35.62-20.53-35.57h-5l20.59 35.57-20.54 35.62h4.95zm7.7-35.62l-21.83 37.85h-10.17l21.81-37.85-21.81-37.85h10.17l21.83 37.85zm-23.14 35.62l20.53-35.62-20.53-35.57h-4.95l20.54 35.57-20.54 35.62h4.95zm183.98-20l-5.11 8.84h-43.73l-21.83-37.84 5.11-8.84 21.85 37.84h43.71zm-6.42 6.56l2.47-4.28h-41.07l-20.54-35.55-2.47 4.27 20.54 35.57 41.07-.01zm52.74 20.18l-21.85 37.87 21.85 37.85h-10.16l-21.9-37.85 21.9-37.85 10.16-.02zm-8.9 73.42h5l-20.59-35.55 20.54-35.61h-5l-20.48 35.61 20.53 35.55zM1271.01 71.48l-21.86 37.85h-10.21l21.85-37.85-21.85-37.85h10.21l21.86 37.85zm-23.18 35.62l20.54-35.62-20.54-35.57h-4.94l20.54 35.57-20.54 35.62h4.94zm30.9-22.19l-21.86 37.8h-43.7l-5.07-8.85h43.67l21.85-37.85 5.11 8.9zm-23.17 35.51l20.54-35.56-2.47-4.29-20.53 35.53h-41.09l2.47 4.28 41.08.04zm52.74-86.79l-21.85 37.85 21.85 37.85h-10.2l-21.87-37.85 21.87-37.85h10.2zm-24.49 37.85l20.54-35.57h-5l-20.48 35.57 20.53 35.62h5l-20.59-35.62zm55.37-37.85l-21.85 37.85 21.85 37.85h-10.21l-21.87-37.85 21.86-37.85h10.22zM1327.1 50.1l8.18-14.17h-4.95l-20.58 35.55 20.53 35.62h4.95l-20.54-35.62 12.41-21.38zm66.17 50.41l-5.17 8.82h-43.7l-21.84-37.85 5.1-8.84 21.85 37.85 43.76.02zm-6.47 6.59l2.47-4.28h-41.07l-20.54-35.62-2.47 4.28 20.53 35.62h41.08zm-63.06 2.28h-10.21l-21.86-37.9 21.86-37.85h10.21l-21.85 37.85 21.85 37.9zm-24.49-37.9l20.54-35.57h-5l-20.48 35.57 20.53 35.62h5l-20.59-35.62zm94 189.47l-5.15 8.84h-43.7l-21.85-37.85 5.1-8.84 21.85 37.85h43.75zm-6.42 6.56l2.47-4.28h-41.1l-20.54-35.57-2.47 4.28 20.53 35.57h41.11zm96.4-69.18v17.69l-7.55-13.08h-43.74l5.16-8.84h43.71l2.42 4.23zm-2.28 9.18v-8.57l-1.48-2.57h-41.11l-2.47 4.28h41.08l3.98 6.86zm2.28-35.92v17.69l-21.71-37.57 5.1-8.84 16.61 28.72zm-2.28 9.17v-8.56l-14.3-24.77-2.47 4.28 16.77 29.05zm2.28-35.92v17.69l-14-24.19 5.1-8.84 8.9 15.34zm-2.28 9.18v-8.56l-6.61-11.36-2.47 4.28 9.08 15.64zm2.28-62.66v17.74l-2.23-3.91-20.79-35.97h-43.71l5.11-8.84h43.7l17.92 30.98zm-2.28 9.17v-8.56L1464 62.66h-41.07l-2.48 4.28h41.07l19.43 33.59zm2.28 13.62v21.64l-6.24-10.82 6.24-10.82zm-2.28 13.13v-4.62l-1.33 2.31 1.33 2.31zm2.28-62.67V82.3l-15.3-26.45h-43.71l5.11-8.85h43.7l10.2 17.61zm-2.28 9.18v-8.56l-9.2-15.95h-41.1l-2.48 4.29h41.08l11.7 20.22zm-10.5 182.63h-43.74l-9.68 16.78h-10.21l14.79-25.62h43.7l5.14 8.84zm-54.71 14.5l9.66-16.82h41.07l-2.47-4.28h-41.07l-12.16 21.06 4.97.04zm47-27.87h-43.75l-17.4 30.15h-10.21l22.51-39h43.7l5.15 8.85zm-62.43 27.87l17.41-30.15h41.07l-2.47-4.28h-41.12l-19.87 34.43h4.98zm82.89-45.82v17.69l-15.27-26.45h-43.71l5.11-8.85h43.7l10.17 17.61zm-2.28 9.18v-8.57l-9.2-15.94h-41.07l-2.48 4.29h41.08l11.67 20.22zm-2.82 35.51h-43.67l-2 3.41h-10.17l7.07-12.25h43.7l5.07 8.84zm-47 1.13l2-3.41h41.07l-2.47-4.28h-41.05l-4.44 7.69h4.89zm52.05-19.1v17.73l-2.23-3.92-20.76-35.95h-43.66l5.11-8.85h43.7l17.84 30.99zm-2.28 9.17v-8.56L1464 223.1h-41.07l-2.48 4.29h41.07l19.35 33.6zm2.33-249.89v17.69l-21.68-37.54 5.1-8.84 16.58 28.69zm-2.28 9.17v-8.56l-14.3-24.77-2.47 4.28 16.77 29.05zM1294.82-50l-22.51 39h-43.7l-5.11-8.85h43.71l17.4-30.15h10.21zM1271-13.29l19.87-34.43h-4.94l-17.41 30.15h-41.07l2.47 4.28H1271zM1402.9-50l-5.76 10-5.76-10h11.52zm-5.8 5.42l1.81-3.14h-3.62l1.81 3.14zm21.21-5.42l-13.45 23.35-5.1-8.84L1408.1-50h10.21zm-13.45 18.79l9.54-16.51h-5l-7.06 12.23 2.52 4.28zM1263.94-50l-7.07 12.25h-43.7l-5.07-8.85h43.67l2-3.4h10.17zm-8.38 10l4.43-7.69h-4.89l-2 3.4h-41.09l2.47 4.29h41.08zm23.82-10l-14.79 25.62h-43.7l-5.11-8.84h43.71l9.68-16.78h10.21zm-16.1 23.34l12.15-21.06h-4.94l-9.69 16.82h-41.07l2.47 4.24h41.08zM1433.79-50l-21.21 36.73-5.11-8.85 16.1-27.88h10.22zm-21.21 32.16l17.26-29.88h-5l-14.74 25.6 2.48 4.28zM1294.82 273.2h-11.52l5.76-10 5.76 10zm-7.57-2.28h3.62l-1.77-3.15-1.85 3.15zm196-286.53V2.1l-14-24.19 5.1-8.84 8.9 15.32zm-2.28 9.17V-15l-6.58-11.4-2.47 4.28 9.05 15.68zm2.28-39.87v21.64l-6.24-10.82 6.24-10.82zm-2.28 13.13v-4.61l-1.33 2.3 1.33 2.31zm2.28 71.05v17.69l-7.6-13.08h-43.71l5.16-8.85h43.71l2.44 4.24zm-2.33 9.23v-8.57l-1.48-2.57h-41.08l-2.47 4.29h41.08l3.95 6.85zm-47.82-15.73l-21.83 37.85h-43.7l-5.11-8.84h43.71l21.85-37.85 5.08 8.84zm-23.14 35.57l20.53-35.57-2.47-4.27-20.54 35.56h-41.07l2.47 4.28h41.08zm-54-62.31l-5.11 8.84-21.88-37.85h-43.71l5.11-8.84h43.73l21.86 37.85zm-5.11 4.28l2.47-4.28-20.56-35.53h-41.08l-2.47 4.28h41.07l20.57 35.53zm12.83-17.66L1358.54.1l-21.85-37.85h-43.71l5.12-8.85h43.7l21.88 37.85zm-5.11 4.29l2.47-4.29-20.56-35.57h-41.08l-2.47 4.29H1338l20.57 35.57zm20.53-4.29l-21.87 37.85h-10.21l21.85-37.86-21.85-37.84h10.21l21.87 37.85zm-23.18 35.57l20.53-35.57-20.53-35.57h-4.95l20.54 35.57-20.54 35.57h4.95zm-93.94-19.93l-5.11 8.84h-43.7L1203-1.9v-17.67l15.27 26.46h43.71zm-6.42 6.56l2.47-4.28h-41.07l-11.68-20.22v8.56l9.2 15.94h41.08zm92.65 4.55l-5.11 8.84-21.85-37.85h-43.71l5.11-8.84h43.7L1348.21 18zm-5.11 4.28l2.47-4.28-20.53-35.57h-41.08l-2.47 4.28h41.07l20.54 35.57zm51.43-31l-21.86 37.82h-10.21l21.86-37.86-21.86-37.84h10.21l21.86 37.88zm-23.17 35.54l20.53-35.57-20.53-35.57h-4.95l20.54 35.57-20.54 35.57h4.95zm-117.1-6.56l-5.11 8.84h-43.7l-2.45-4.24V7.18l7.55 13.08h43.71zm-6.42 6.56l2.47-4.28h-41.08l-3.95-6.85v8.56l1.48 2.57h41.08zM1462.7-46.6l-21.85 37.85 21.85 37.85h-10.21l-21.86-37.85 21.86-37.85h10.21zm-24.49 37.85l20.54-35.57h-4.94l-20.54 35.57 20.54 35.57h4.94l-20.54-35.57zm39.89 37.85h-10.17L1446.1-8.75l21.83-37.85h10.17l-21.81 37.85 21.81 37.85zm-12.47-58.6l8.56-14.82h-4.94l-20.54 35.57 20.54 35.57h4.94l-20.54-35.57 11.98-20.75zm-55.66 20.75L1388.1 29.1h-10.2l21.86-37.86-21.86-37.84h10.2l21.87 37.85zm-23.17 35.57l20.53-35.57-20.53-35.57h-4.95l20.54 35.57-20.54 35.57h4.95zm60.46-73.42l-21.85 37.85 21.85 37.85h-10.16l-21.9-37.85 21.9-37.85h10.16zm-24.49 37.85l20.54-35.57h-5l-20.48 35.57 20.53 35.57h5l-20.59-35.57zm-213.53 267.44L1203 269.5v-21.64l6.24 10.83zm-4 2.3l1.33-2.3-1.33-2.31v4.61zm11.72-15.68l-5.1 8.85-8.86-15.35V221.1l13.96 24.21zm-4.53 3.29l1.9-3.29-9-15.68v8.57l6.58 11.4.52-1zm12.25-16.66l-5.1 8.85L1203 212.1v-17.72l21.68 37.56zm-5.1 4.28l2.52-4.28-16.77-29.05v8.57l14.25 24.76zm34.68-55.5l-5.11 8.84h-43.7l-2.45-4.24v-17.68l7.55 13.08h43.71zm-6.42 6.56l2.47-4.28h-41.08l-3.95-6.85v8.56l1.48 2.57h41.08zm38.61 71.41l-8.35 14.51h-10.24l13.48-23.36 5.11 8.85zm-9.7 12.23l7.06-12.23-2.47-4.29-9.53 16.52h4.94zm2-25.61l-16.12 27.89h-10.22l21.21-36.73 5.13 8.84zm-17.44 25.61l14.79-25.61-2.47-4.28-17.26 29.89h4.94zm-44.35-186.07l-5.1 8.85-8.86-15.35V60.66l13.96 24.19zm-4.53 3.25l1.9-3.29-9-15.67v8.56l6.53 11.4.57-1zm49.55 79.21l-5.11 8.84h-43.7L1203 158.58v-17.69l15.27 26.46 43.71-.04zm-6.42 6.56l2.47-4.28h-41.07l-11.68-20.19v8.57l9.2 15.94 41.08-.04zm-30.88-102.39l-5.1 8.85L1203 51.61V33.92l21.68 37.56zm-5.1 4.29l2.52-4.29-16.77-29V51l14.25 24.77zm-10.34 22.46L1203 109.1V87.41l6.24 10.82zm-4 2.3l1.33-2.3-1.33-2.31v4.61zm64.46 53.45l-5.11 8.84h-43.7l-17.89-31v-17.67l23 39.83h43.7zm-6.42 6.56l2.47-4.28h-41.08l-19.39-33.6v8.57l16.92 29.31h41.08z"/></g><defs><clipPath id="clip0"><rect width="1216" height="189" rx="5" fill="#fff"/></clipPath></defs></svg>