<svg width="1212" height="51" fill="none" xmlns="http://www.w3.org/2000/svg"><g clip-path="url(#clip0)" fill="#D1CF9C" fill-opacity=".26"><path d="M183.74 24.82h-43.71l-21.85 37.85-5.08-8.84 21.86-37.85h43.7l5.08 8.84zM118.18 58.1l20.54-35.57h41.07l-2.47-4.28h-41.08l-20.53 35.58 2.47 4.27zm97.75-31l-5.11 8.85L188.97-1.9h-43.71l5.11-8.85h43.73l21.83 37.85zm-5.11 4.29l2.47-4.29-20.53-35.59h-41.08l-2.47 4.29h41.07l20.54 35.59zm28.28-17.68l-21.86 37.85h-10.22l21.85-37.85-21.85-37.85h10.21l21.87 37.85zm-23.17 35.57l20.53-35.57-20.54-35.61h-4.95l20.54 35.57-20.54 35.57 4.96.04zm7.73-35.57l-5.11 8.85-21.86-37.85h-43.71l5.12-8.85h43.7l21.86 37.85zm-5.11 4.28l2.47-4.28-20.54-35.61H159.4l-2.47 4.28H198l20.55 35.61zm50.12-82.24l-5.11 8.84h-43.7l-21.87-37.85 5.11-8.84 21.85 37.85h43.72zm-6.42 6.56l2.47-4.28h-41.08L203.1-97.54l-2.47 4.28 20.54 35.57h41.08zm-7.71 71.4l-21.86 37.85h-10.22l21.86-37.85-21.86-37.85h10.21l21.87 37.85zm-23.17 35.57l20.53-35.57-20.54-35.61h-4.95l20.54 35.57-20.54 35.57 4.96.04zm38.61-35.57L248.1 51.56h-10.2l21.86-37.85-21.86-37.85h10.2l21.88 37.85zM246.8 49.28l20.53-35.57L246.8-21.9h-4.95l20.54 35.57-20.54 35.57 4.95.04zm30.89-22.18l-21.86 37.86H212.1l-5.08-8.86h43.71l21.85-37.85 5.11 8.85zm-23.17 35.57L275.1 27.1l-2.47-4.28-20.53 35.55h-41.13l2.47 4.28 41.08.02zm-55.34-11.09h-43.71l-21.85 37.83-5.11-8.84 21.86-37.85h43.73l5.08 8.86zm-65.56 33.27l20.54-35.57h41.07L192.76 45h-41.08l-20.53 35.57 2.47 4.28zm151.79-44.39l-21.86 37.85h-43.7l-5.11-8.85h43.71l21.85-37.85 5.11 8.85zm-23.17 35.57l20.53-35.57-2.47-4.29-20.53 35.57h-41.08l2.47 4.29h41.08zm-70.78-37.84h-43.71L125.9 76.04l-5.11-8.84 21.86-37.85h43.7l5.11 8.84zM125.9 71.48l20.54-35.57h41.07l-2.47-4.28h-41.08L123.43 67.2l2.47 4.28zm-10.33 22.46l-21.86 37.85H83.5l21.85-37.85L83.5 56.1h10.21l21.86 37.84zM92.4 129.51l20.53-35.57L92.4 58.37h-5l20.54 35.57-20.49 35.57h4.95zm168.54-19.93l-5.11 8.84H212.1l-21.86-37.85 5.11-8.84 21.85 37.85h43.74zm-6.42 6.52l2.47-4.28h-41.07l-20.54-35.57-2.47 4.28 20.54 35.57h41.07zm38.58-62.27l-21.86 37.85h-43.7l-5.11-8.85h43.71l21.85-37.85 5.11 8.85zM269.96 89.4l20.53-35.57-2.47-4.28-20.54 35.55h-41.07l2.47 4.29 41.08.01zM338.1-28.67h-43.67L272.58 9.18 267.47.34l21.86-37.85h43.7l5.07 8.84zM272.58 4.62L293.1-30.9h41.07l-2.47-4.28h-41.05L270.1.34l2.48 4.28zm65.52 46.94h-10.17L306.1 13.71l21.85-37.85h10.15l-21.81 37.85 21.81 37.85zm-12.51-58.6l8.6-14.86h-4.94l-20.54 35.61 20.54 35.57h4.94l-20.54-35.57 11.94-20.75zM199.18 56.1l-21.85 37.85 21.85 37.85h-10.21L167.1 93.94l21.87-37.84h10.21zm-24.49 37.84l20.54-35.57h-4.95l-20.53 35.57 20.53 35.57h4.95l-20.54-35.57zm-74.57 0l-21.85 37.85H68.1l21.85-37.85L68.1 56.1h10.17l21.85 37.84zm-23.16 35.57l20.53-35.57-20.53-35.57h-4.95l20.54 35.57-20.54 35.57h4.95zm54.05-35.57l-21.86 37.85H98.94l21.85-37.85L98.94 56.1h10.21l21.86 37.84zm-23.18 35.57l20.54-35.57-20.54-35.57h-4.94l20.54 35.57-20.54 35.57h4.94zM168.3 56.1l-21.85 37.84 21.85 37.85h-10.2l-21.87-37.85L158.1 56.1h10.2zm-24.49 37.84l20.54-35.57h-5l-20.48 35.57 20.53 35.57h5l-20.59-35.57zm39.93 37.85h-10.21l-21.86-37.85 21.86-37.84h10.21l-21.85 37.84 21.85 37.85zm-24.49-37.85l20.54-35.57h-5l-20.48 35.57 20.53 35.57h5l-20.59-35.57zm49-53.48l-5.15 8.84-21.85-37.85h-43.71l5.11-8.84h43.7l21.9 37.85zm-5.15 4.28l2.47-4.28-20.53-35.57h-41.08l-2.47 4.28h41.07l20.54 35.57zm-19.36-180.38h-43.71l-21.85 37.85-5.08-8.84 21.83-37.85h43.7l5.11 8.84zm-65.56 33.29l20.54-35.55h41.07l-2.47-4.28h-41.08l-20.53 35.55 2.47 4.28zM322.7-24.14l-21.85 37.85 21.85 37.85h-10.21l-21.86-37.85 21.86-37.85h10.21zm-8.89 73.42h4.94l-20.54-35.57 20.54-35.61h-4.94l-20.54 35.61 20.54 35.57zM285.41-120l-21.86 37.85h-43.7L214.74-91h43.71l21.85-37.85 5.11 8.85zm-23.17 35.57L282.77-120l-2.47-4.28-20.53 35.56h-41.08l2.47 4.29h41.08zM146.45-39.77L124.59-1.9h-43.7l-5.11-8.85h43.71l21.85-37.87 5.11 8.85zM123.28-4.2l20.53-35.57-2.47-4.29L120.8-8.49H79.73L82.2-4.2h41.08zm75.9-104.7h-43.71l-21.85 37.86-5.11-8.86 21.86-37.84h43.73l5.08 8.84zm-65.56 33.29l20.54-35.57h41.07l-2.47-4.28h-41.08L131.15-79.9l2.47 4.29zm57.84-46.66h-43.71L125.9-84.42l-5.11-8.84 21.86-37.85h43.7l5.11 8.84zM125.9-88.98l20.54-35.57h41.07l-2.47-4.28h-41.08l-20.53 35.57 2.47 4.28zm196.8 33.57h-43.71L257.1-17.56 252-26.4l21.85-37.85h43.7l5.15 8.84zm-65.6 33.29l20.54-35.57h41.07l-2.47-4.28H275.2L254.67-26.4l2.43 4.28zM129.7-144.48l-5.11 8.84h-43.7l-17.89-31v-17.67l23 39.83h43.7zm-6.42 6.58l2.47-4.28H84.67L65.28-175.8v8.57L82.2-137.9h41.08zm207.14 95.86h-43.71L264.86-4.19l-5.1-8.84 21.85-37.87h43.7l5.11 8.86zM264.86-8.75l20.54-35.57h41.07L324-48.6h-41.07l-20.54 35.57 2.47 4.28zm3.8 105l-5.11 8.85h-43.7l-21.86-37.9 5.11-8.85 21.85 37.86 43.71.04zm-6.42 6.56l2.47-4.28h-41.07L203.1 62.92l-2.47 4.28 20.54 35.57 41.07.04zM154.17-26.4l-21.86 37.85h-43.7L83.5 2.61h43.71l21.89-37.86 5.07 8.85zM131 9.17l20.53-35.57-2.43-4.28-20.58 35.57H87.45l2.47 4.28H131zm146.69-142.54l-21.86 37.85H212.1l-5.11-8.85h43.71l21.85-37.85 5.14 8.85zM254.52-97.8l20.58-35.57-2.47-4.29-20.53 35.57h-41.13l2.48 4.29h41.07zM115.57-66.52L93.71-28.67H83.5l21.85-37.85-21.85-37.85h10.21l21.86 37.85zM92.4-30.9l20.53-35.62-20.53-35.57h-5l20.59 35.57L87.45-30.9h4.95zm7.7-35.62L78.27-28.67H68.1l21.81-37.85-21.81-37.85h10.17l21.83 37.85zM76.96-30.9l20.53-35.62-20.53-35.57h-4.95l20.54 35.57L72.01-30.9h4.95zm183.98-20l-5.11 8.84H212.1L190.27-79.9l5.11-8.84 21.85 37.84h43.71zm-6.42 6.56l2.47-4.28h-41.07l-20.54-35.55-2.47 4.27 20.54 35.57 41.07-.01zm52.74 20.18l-21.85 37.87 21.85 37.85H297.1l-21.9-37.85 21.9-37.85 10.16-.02zm-8.9 73.42h5l-20.59-35.55 20.54-35.61h-5l-20.48 35.61 20.53 35.55zM131.01-66.52l-21.86 37.85H98.94l21.85-37.85-21.85-37.85h10.21l21.86 37.85zM107.83-30.9l20.54-35.62-20.54-35.57h-4.94l20.54 35.57-20.54 35.62h4.94zm30.9-22.19l-21.86 37.8h-43.7l-5.07-8.85h43.67l21.85-37.85 5.11 8.9zm-23.17 35.51l20.54-35.56-2.47-4.29L113.1-21.9H72.01l2.47 4.28 41.08.04zm52.74-86.79l-21.85 37.85 21.85 37.85h-10.2l-21.87-37.85 21.87-37.85h10.2zm-24.49 37.85l20.54-35.57h-5l-20.48 35.57L159.4-30.9h5l-20.59-35.62zm55.37-37.85l-21.85 37.85 21.85 37.85h-10.21L167.1-66.52l21.86-37.85h10.22zM187.1-87.9l8.18-14.17h-4.95l-20.58 35.55 20.53 35.62h4.95l-20.54-35.62L187.1-87.9zm66.17 50.41l-5.17 8.82h-43.7l-21.84-37.85 5.1-8.84 21.85 37.85 43.76.02zm-6.47 6.59l2.47-4.28H208.2L187.66-70.8l-2.47 4.28 20.53 35.62h41.08zm-63.06 2.28h-10.21l-21.86-37.9 21.86-37.85h10.21l-21.85 37.85 21.85 37.9zm-24.49-37.9l20.54-35.57h-5l-20.48 35.57 20.53 35.62h5l-20.59-35.62zm94 189.47l-5.15 8.84h-43.7l-21.85-37.85 5.1-8.84 21.85 37.85h43.75zm-6.42 6.56l2.47-4.28h-41.1l-20.54-35.57-2.47 4.28 20.53 35.57h41.11zm96.4-69.18v17.69l-7.55-13.08h-43.74l5.16-8.84h43.71l2.42 4.23zm-2.28 9.18v-8.57l-1.48-2.57h-41.11l-2.47 4.28h41.08l3.98 6.86zm2.28-35.92v17.69l-21.71-37.57 5.1-8.84 16.61 28.72zm-2.28 9.17V34.2l-14.3-24.77-2.47 4.28 16.77 29.05zm2.28-35.92v17.69l-14-24.19 5.1-8.84 8.9 15.34zm-2.28 9.18V7.46L334.34-3.9 331.87.38l9.08 15.64zm2.28-62.66v17.74L341-32.81l-20.79-35.97H276.5l5.11-8.84h43.7l17.92 30.98zm-2.28 9.17v-8.56L324-75.34h-41.07l-2.48 4.28h41.07l19.43 33.59zm2.28 13.62v21.64l-6.24-10.82 6.24-10.82zm-2.28 13.13v-4.62l-1.33 2.31 1.33 2.31zm2.28-62.67v17.69l-15.3-26.45h-43.71l5.11-8.85h43.7l10.2 17.61zm-2.28 9.18v-8.56l-9.2-15.95h-41.1l-2.48 4.29h41.08l11.7 20.22zm-10.5 182.63h-43.74l-9.68 16.78h-10.21l14.79-25.62h43.7l5.14 8.84zm-54.71 14.5l9.66-16.82h41.07l-2.47-4.28h-41.07l-12.16 21.06 4.97.04zm47-27.87h-43.75l-17.4 30.15h-10.21l22.51-39h43.7l5.15 8.85zm-62.43 27.87l17.41-30.15h41.07l-2.47-4.28H275.2l-19.87 34.43h4.98zM343.2 87.1v17.69l-15.27-26.45h-43.71l5.11-8.85h43.7L343.2 87.1zm-2.28 9.18v-8.57l-9.2-15.94h-41.07l-2.48 4.29h41.08l11.67 20.22zm-2.82 35.51h-43.67l-2 3.41h-10.17l7.07-12.25h43.7l5.07 8.84zm-47 1.13l2-3.41h41.07l-2.47-4.28h-41.05l-4.44 7.69h4.89zm52.05-19.1v17.73l-2.23-3.92-20.76-35.95H276.5l5.11-8.85h43.7l17.84 30.99zm-2.28 9.17v-8.56L324 85.1h-41.07l-2.48 4.29h41.07l19.35 33.6zm2.33-249.89v17.69l-21.68-37.54 5.1-8.84 16.58 28.69zm-2.28 9.17v-8.56l-14.3-24.77-2.47 4.28 16.77 29.05zM154.82-188l-22.51 39h-43.7l-5.11-8.85h43.71l17.4-30.15h10.21zM131-151.29l19.87-34.43h-4.94l-17.41 30.15H87.45l2.47 4.28H131zM262.9-188l-5.76 10-5.76-10h11.52zm-5.8 5.42l1.81-3.14h-3.62l1.81 3.14zm21.21-5.42l-13.45 23.35-5.1-8.84L268.1-188h10.21zm-13.45 18.79l9.54-16.51h-5l-7.06 12.23 2.52 4.28zM123.94-188l-7.07 12.25h-43.7l-5.07-8.85h43.67l2-3.4h10.17zm-8.38 10l4.43-7.69h-4.89l-2 3.4H72.01l2.47 4.29h41.08zm23.82-10l-14.79 25.62h-43.7l-5.11-8.84h43.71l9.68-16.78h10.21zm-16.1 23.34l12.15-21.06h-4.94l-9.69 16.82H79.73l2.47 4.24h41.08zM293.79-188l-21.21 36.73-5.11-8.85 16.1-27.88h10.22zm-21.21 32.16l17.26-29.88h-5l-14.74 25.6 2.48 4.28zM154.82 135.2H143.3l5.76-10 5.76 10zm-7.57-2.28h3.62l-1.77-3.15-1.85 3.15zm196-286.53v17.71l-14-24.19 5.1-8.84 8.9 15.32zm-2.28 9.17V-153l-6.58-11.4-2.47 4.28 9.05 15.68zm2.28-39.87v21.64l-6.24-10.82 6.24-10.82zm-2.28 13.13v-4.61l-1.33 2.3 1.33 2.31zm2.28 71.05v17.69l-7.6-13.08h-43.71l5.16-8.85h43.71l2.44 4.24zm-2.33 9.23v-8.57l-1.48-2.57h-41.08l-2.47 4.29h41.08l3.95 6.85zm-47.82-15.73l-21.83 37.85h-43.7l-5.11-8.84h43.71l21.85-37.85 5.08 8.84zm-23.14 35.57l20.53-35.57-2.47-4.27-20.54 35.56h-41.07l2.47 4.28h41.08zm-54-62.31l-5.11 8.84-21.88-37.85h-43.71l5.11-8.84h43.73l21.86 37.85zm-5.11 4.28l2.47-4.28-20.56-35.53h-41.08l-2.47 4.28h41.07l20.57 35.53zm12.83-17.66l-5.14 8.85-21.85-37.85h-43.71l5.12-8.85h43.7l21.88 37.85zm-5.11 4.29l2.47-4.29-20.56-35.57H159.4l-2.47 4.29H198l20.57 35.57zm20.53-4.29l-21.87 37.85h-10.21l21.85-37.86-21.85-37.84h10.21l21.87 37.85zm-23.18 35.57l20.53-35.57-20.53-35.57h-4.95l20.54 35.57-20.54 35.57h4.95zm-93.94-19.93l-5.11 8.84h-43.7L63-139.9v-17.67l15.27 26.46h43.71zm-6.42 6.56l2.47-4.28H76.96l-11.68-20.22v8.56l9.2 15.94h41.08zm92.65 4.55l-5.11 8.84-21.85-37.85h-43.71l5.11-8.84h43.7L208.21-120zm-5.11 4.28l2.47-4.28-20.53-35.57h-41.08l-2.47 4.28h41.07l20.54 35.57zm51.43-31l-21.86 37.82h-10.21l21.86-37.86-21.86-37.84h10.21l21.86 37.88zm-23.17 35.54l20.53-35.57-20.53-35.57h-4.95l20.54 35.57-20.54 35.57h4.95zm-117.1-6.56l-5.11 8.84h-43.7L63-113.14v-17.68l7.55 13.08h43.71zm-6.42 6.56l2.47-4.28H69.23l-3.95-6.85v8.56l1.48 2.57h41.08zM322.7-184.6l-21.85 37.85 21.85 37.85h-10.21l-21.86-37.85 21.86-37.85h10.21zm-24.49 37.85l20.54-35.57h-4.94l-20.54 35.57 20.54 35.57h4.94l-20.54-35.57zm39.89 37.85h-10.17l-21.83-37.85 21.83-37.85h10.17l-21.81 37.85 21.81 37.85zm-12.47-58.6l8.56-14.82h-4.94l-20.54 35.57 20.54 35.57h4.94l-20.54-35.57 11.98-20.75zm-55.66 20.75L248.1-108.9h-10.2l21.86-37.86-21.86-37.84h10.2l21.87 37.85zm-23.17 35.57l20.53-35.57-20.53-35.57h-4.95l20.54 35.57-20.54 35.57h4.95zm60.46-73.42l-21.85 37.85 21.85 37.85H297.1l-21.9-37.85 21.9-37.85h10.16zm-24.49 37.85l20.54-35.57h-5l-20.48 35.57 20.53 35.57h5l-20.59-35.57zM69.24 120.69L63 131.5v-21.64l6.24 10.83zm-4 2.3l1.33-2.3-1.33-2.31v4.61zm11.72-15.68l-5.1 8.85L63 100.81V83.1l13.96 24.21zm-4.53 3.29l1.9-3.29-9-15.68v8.57l6.58 11.4.52-1zm12.25-16.66l-5.1 8.85L63 74.1V56.38l21.68 37.56zm-5.1 4.28l2.52-4.28-16.77-29.05v8.57l14.25 24.76zm34.68-55.5l-5.11 8.84h-43.7L63 47.32V29.64l7.55 13.08h43.71zm-6.42 6.56l2.47-4.28H69.23l-3.95-6.85v8.56l1.48 2.57h41.08zm38.61 71.41l-8.35 14.51h-10.24l13.48-23.36 5.11 8.85zm-9.7 12.23l7.06-12.23-2.47-4.29-9.53 16.52h4.94zm2-25.61l-16.12 27.89h-10.22l21.21-36.73 5.13 8.84zm-17.44 25.61l14.79-25.61-2.47-4.28-17.26 29.89h4.94zM76.96-53.15l-5.1 8.85L63-59.65v-17.69l13.96 24.19zm-4.53 3.25l1.9-3.29-9-15.67v8.56l6.53 11.4.57-1zm49.55 79.21l-5.11 8.84h-43.7L63 20.58V2.89l15.27 26.46 43.71-.04zm-6.42 6.56l2.47-4.28H76.96L65.28 11.4v8.57l9.2 15.94 41.08-.04zM84.68-66.52l-5.1 8.85L63-86.39v-17.69l21.68 37.56zm-5.1 4.29l2.52-4.29-16.77-29V-87l14.25 24.77zM69.24-39.77L63-28.9v-21.69l6.24 10.82zm-4 2.3l1.33-2.3-1.33-2.31v4.61zm64.46 53.45l-5.11 8.84h-43.7L63-6.18v-17.67l23 39.83h43.7zm-6.42 6.56l2.47-4.28H84.67l-19.39-33.6v8.57L82.2 22.54h41.08zm628.46 2.28h-43.71l-21.85 37.85-5.08-8.84 21.86-37.85h43.7l5.08 8.84zM686.18 58.1l20.54-35.57h41.07l-2.47-4.28h-41.08l-20.53 35.58 2.47 4.27zm97.75-31l-5.11 8.85L756.97-1.9h-43.71l5.11-8.85h43.73l21.83 37.85zm-5.11 4.29l2.47-4.29-20.53-35.59h-41.08l-2.47 4.29h41.07l20.54 35.59zm28.28-17.68l-21.86 37.85h-10.22l21.85-37.85-21.85-37.85h10.21l21.87 37.85zm-23.17 35.57l20.53-35.57-20.54-35.61h-4.95l20.54 35.57-20.54 35.57 4.96.04zm7.73-35.57l-5.11 8.85-21.86-37.85h-43.71l5.12-8.85h43.7l21.86 37.85zm-5.11 4.28l2.47-4.28-20.54-35.61H727.4l-2.47 4.28H766l20.55 35.61zm50.12-82.24l-5.11 8.84h-43.7l-21.87-37.85 5.11-8.84 21.85 37.85h43.72zm-6.42 6.56l2.47-4.28h-41.08L771.1-97.54l-2.47 4.28 20.54 35.57h41.08zm-7.71 71.4l-21.86 37.85h-10.22l21.86-37.85-21.86-37.85h10.21l21.87 37.85zm-23.17 35.57l20.53-35.57-20.54-35.61h-4.95l20.54 35.57-20.54 35.57 4.96.04zm38.61-35.57L816.1 51.56h-10.2l21.86-37.85-21.86-37.85h10.2l21.88 37.85zM814.8 49.28l20.53-35.57L814.8-21.9h-4.95l20.54 35.57-20.54 35.57 4.95.04zm30.89-22.18l-21.86 37.86H780.1l-5.08-8.86h43.71l21.85-37.85 5.11 8.85zm-23.17 35.57L843.1 27.1l-2.47-4.28-20.53 35.55h-41.13l2.47 4.28 41.08.02zm-55.34-11.09h-43.71l-21.85 37.83-5.11-8.84 21.86-37.85h43.73l5.08 8.86zm-65.56 33.27l20.54-35.57h41.07L760.76 45h-41.08l-20.53 35.57 2.47 4.28zm151.79-44.39l-21.86 37.85h-43.7l-5.11-8.85h43.71l21.85-37.85 5.11 8.85zm-23.17 35.57l20.53-35.57-2.47-4.29-20.53 35.57h-41.08l2.47 4.29h41.08zm-70.78-37.84h-43.71L693.9 76.04l-5.11-8.84 21.86-37.85h43.7l5.11 8.84zM693.9 71.48l20.54-35.57h41.07l-2.47-4.28h-41.08L691.43 67.2l2.47 4.28zm-10.33 22.46l-21.86 37.85H651.5l21.85-37.85L651.5 56.1h10.21l21.86 37.84zm-23.17 35.57l20.53-35.57-20.53-35.57h-5l20.54 35.57-20.49 35.57h4.95zm168.54-19.93l-5.11 8.84H780.1l-21.86-37.85 5.11-8.84 21.85 37.85h43.74zm-6.42 6.52l2.47-4.28h-41.07l-20.54-35.57-2.47 4.28 20.54 35.57h41.07zm38.58-62.27l-21.86 37.85h-43.7l-5.11-8.85h43.71l21.85-37.85 5.11 8.85zM837.96 89.4l20.53-35.57-2.47-4.28-20.54 35.55h-41.07l2.47 4.29 41.08.01zM906.1-28.67h-43.67L840.58 9.18 835.47.34l21.86-37.85h43.7l5.07 8.84zM840.58 4.62L861.1-30.9h41.07l-2.47-4.28h-41.05L838.1.34l2.48 4.28zm65.52 46.94h-10.17L874.1 13.71l21.85-37.85h10.15l-21.81 37.85 21.81 37.85zm-12.51-58.6l8.6-14.86h-4.94l-20.54 35.61 20.54 35.57h4.94l-20.54-35.57 11.94-20.75zM767.18 56.1l-21.85 37.85 21.85 37.85h-10.21L735.1 93.94l21.87-37.84h10.21zm-24.49 37.84l20.54-35.57h-4.95l-20.53 35.57 20.53 35.57h4.95l-20.54-35.57zm-74.57 0l-21.85 37.85H636.1l21.85-37.85L636.1 56.1h10.17l21.85 37.84zm-23.16 35.57l20.53-35.57-20.53-35.57h-4.95l20.54 35.57-20.54 35.57h4.95zm54.05-35.57l-21.86 37.85h-10.21l21.85-37.85-21.85-37.84h10.21l21.86 37.84zm-23.18 35.57l20.54-35.57-20.54-35.57h-4.94l20.54 35.57-20.54 35.57h4.94zM736.3 56.1l-21.85 37.84 21.85 37.85h-10.2l-21.87-37.85L726.1 56.1h10.2zm-24.49 37.84l20.54-35.57h-5l-20.48 35.57 20.53 35.57h5l-20.59-35.57zm39.93 37.85h-10.21l-21.86-37.85 21.86-37.84h10.21l-21.85 37.84 21.85 37.85zm-24.49-37.85l20.54-35.57h-5l-20.48 35.57 20.53 35.57h5l-20.59-35.57zm49-53.48l-5.15 8.84-21.85-37.85h-43.71l5.11-8.84h43.7l21.9 37.85zm-5.15 4.28l2.47-4.28-20.53-35.57h-41.08l-2.47 4.28h41.07l20.54 35.57zm-19.36-180.38h-43.71l-21.85 37.85-5.08-8.84 21.83-37.85h43.7l5.11 8.84zm-65.56 33.29l20.54-35.55h41.07l-2.47-4.28h-41.08l-20.53 35.55 2.47 4.28zM890.7-24.14l-21.85 37.85 21.85 37.85h-10.21l-21.86-37.85 21.86-37.85h10.21zm-8.89 73.42h4.94l-20.54-35.57 20.54-35.61h-4.94l-20.54 35.61 20.54 35.57zM853.41-120l-21.86 37.85h-43.7L782.74-91h43.71l21.85-37.85 5.11 8.85zm-23.17 35.57L850.77-120l-2.47-4.28-20.53 35.56h-41.08l2.47 4.29h41.08zM714.45-39.77L692.59-1.9h-43.7l-5.11-8.85h43.71l21.85-37.87 5.11 8.85zM691.28-4.2l20.53-35.57-2.47-4.29L688.8-8.49h-41.07l2.47 4.29h41.08zm75.9-104.7h-43.71l-21.85 37.86-5.11-8.86 21.86-37.84h43.73l5.08 8.84zm-65.56 33.29l20.54-35.57h41.07l-2.47-4.28h-41.08L699.15-79.9l2.47 4.29zm57.84-46.66h-43.71L693.9-84.42l-5.11-8.84 21.86-37.85h43.7l5.11 8.84zM693.9-88.98l20.54-35.57h41.07l-2.47-4.28h-41.08l-20.53 35.57 2.47 4.28zm196.8 33.57h-43.71L825.1-17.56 820-26.4l21.85-37.85h43.7l5.15 8.84zm-65.6 33.29l20.54-35.57h41.07l-2.47-4.28H843.2L822.67-26.4l2.43 4.28zM697.7-144.48l-5.11 8.84h-43.7l-17.89-31v-17.67l23 39.83h43.7zm-6.42 6.58l2.47-4.28h-41.08l-19.39-33.62v8.57l16.92 29.33h41.08zm207.14 95.86h-43.71L832.86-4.19l-5.1-8.84 21.85-37.87h43.7l5.11 8.86zM832.86-8.75l20.54-35.57h41.07L892-48.6h-41.07l-20.54 35.57 2.47 4.28zm3.8 105l-5.11 8.85h-43.7l-21.86-37.9 5.11-8.85 21.85 37.86 43.71.04zm-6.42 6.56l2.47-4.28h-41.07L771.1 62.92l-2.47 4.28 20.54 35.57 41.07.04zM722.17-26.4l-21.86 37.85h-43.7l-5.11-8.84h43.71l21.89-37.86 5.07 8.85zM699 9.17l20.53-35.57-2.43-4.28-20.58 35.57h-41.07l2.47 4.28H699zm146.69-142.54l-21.86 37.85H780.1l-5.11-8.85h43.71l21.85-37.85 5.14 8.85zM822.52-97.8l20.58-35.57-2.47-4.29-20.53 35.57h-41.13l2.48 4.29h41.07zM683.57-66.52l-21.86 37.85H651.5l21.85-37.85-21.85-37.85h10.21l21.86 37.85zM660.4-30.9l20.53-35.62-20.53-35.57h-5l20.59 35.57-20.54 35.62h4.95zm7.7-35.62l-21.83 37.85H636.1l21.81-37.85-21.81-37.85h10.17l21.83 37.85zM644.96-30.9l20.53-35.62-20.53-35.57h-4.95l20.54 35.57-20.54 35.62h4.95zm183.98-20l-5.11 8.84H780.1L758.27-79.9l5.11-8.84 21.85 37.84h43.71zm-6.42 6.56l2.47-4.28h-41.07l-20.54-35.55-2.47 4.27 20.54 35.57 41.07-.01zm52.74 20.18l-21.85 37.87 21.85 37.85H865.1l-21.9-37.85 21.9-37.85 10.16-.02zm-8.9 73.42h5l-20.59-35.55 20.54-35.61h-5l-20.48 35.61 20.53 35.55zM699.01-66.52l-21.86 37.85h-10.21l21.85-37.85-21.85-37.85h10.21l21.86 37.85zM675.83-30.9l20.54-35.62-20.54-35.57h-4.94l20.54 35.57-20.54 35.62h4.94zm30.9-22.19l-21.86 37.8h-43.7l-5.07-8.85h43.67l21.85-37.85 5.11 8.9zm-23.17 35.51l20.54-35.56-2.47-4.29L681.1-21.9h-41.09l2.47 4.28 41.08.04zm52.74-86.79l-21.85 37.85 21.85 37.85h-10.2l-21.87-37.85 21.87-37.85h10.2zm-24.49 37.85l20.54-35.57h-5l-20.48 35.57L727.4-30.9h5l-20.59-35.62zm55.37-37.85l-21.85 37.85 21.85 37.85h-10.21L735.1-66.52l21.86-37.85h10.22zM755.1-87.9l8.18-14.17h-4.95l-20.58 35.55 20.53 35.62h4.95l-20.54-35.62L755.1-87.9zm66.17 50.41l-5.17 8.82h-43.7l-21.84-37.85 5.1-8.84 21.85 37.85 43.76.02zm-6.47 6.59l2.47-4.28H776.2L755.66-70.8l-2.47 4.28 20.53 35.62h41.08zm-63.06 2.28h-10.21l-21.86-37.9 21.86-37.85h10.21l-21.85 37.85 21.85 37.9zm-24.49-37.9l20.54-35.57h-5l-20.48 35.57 20.53 35.62h5l-20.59-35.62zm94 189.47l-5.15 8.84h-43.7l-21.85-37.85 5.1-8.84 21.85 37.85h43.75zm-6.42 6.56l2.47-4.28h-41.1l-20.54-35.57-2.47 4.28 20.53 35.57h41.11zm96.4-69.18v17.69l-7.55-13.08h-43.74l5.16-8.84h43.71l2.42 4.23zm-2.28 9.18v-8.57l-1.48-2.57h-41.11l-2.47 4.28h41.08l3.98 6.86zm2.28-35.92v17.69l-21.71-37.57 5.1-8.84 16.61 28.72zm-2.28 9.17V34.2l-14.3-24.77-2.47 4.28 16.77 29.05zm2.28-35.92v17.69l-14-24.19 5.1-8.84 8.9 15.34zm-2.28 9.18V7.46L902.34-3.9 899.87.38l9.08 15.64zm2.28-62.66v17.74L909-32.81l-20.79-35.97H844.5l5.11-8.84h43.7l17.92 30.98zm-2.28 9.17v-8.56L892-75.34h-41.07l-2.48 4.28h41.07l19.43 33.59zm2.28 13.62v21.64l-6.24-10.82 6.24-10.82zm-2.28 13.13v-4.62l-1.33 2.31 1.33 2.31zm2.28-62.67v17.69l-15.3-26.45h-43.71l5.11-8.85h43.7l10.2 17.61zm-2.28 9.18v-8.56l-9.2-15.95h-41.1l-2.48 4.29h41.08l11.7 20.22zm-10.5 182.63h-43.74l-9.68 16.78h-10.21l14.79-25.62h43.7l5.14 8.84zm-54.71 14.5l9.66-16.82h41.07l-2.47-4.28h-41.07l-12.16 21.06 4.97.04zm47-27.87h-43.75l-17.4 30.15h-10.21l22.51-39h43.7l5.15 8.85zm-62.43 27.87l17.41-30.15h41.07l-2.47-4.28H843.2l-19.87 34.43h4.98zM911.2 87.1v17.69l-15.27-26.45h-43.71l5.11-8.85h43.7L911.2 87.1zm-2.28 9.18v-8.57l-9.2-15.94h-41.07l-2.48 4.29h41.08l11.67 20.22zm-2.82 35.51h-43.67l-2 3.41h-10.17l7.07-12.25h43.7l5.07 8.84zm-47 1.13l2-3.41h41.07l-2.47-4.28h-41.05l-4.44 7.69h4.89zm52.05-19.1v17.73l-2.23-3.92-20.76-35.95H844.5l5.11-8.85h43.7l17.84 30.99zm-2.28 9.17v-8.56L892 85.1h-41.07l-2.48 4.29h41.07l19.35 33.6zm2.33-249.89v17.69l-21.68-37.54 5.1-8.84 16.58 28.69zm-2.28 9.17v-8.56l-14.3-24.77-2.47 4.28 16.77 29.05zM722.82-188l-22.51 39h-43.7l-5.11-8.85h43.71l17.4-30.15h10.21zM699-151.29l19.87-34.43h-4.94l-17.41 30.15h-41.07l2.47 4.28H699zM830.9-188l-5.76 10-5.76-10h11.52zm-5.8 5.42l1.81-3.14h-3.62l1.81 3.14zm21.21-5.42l-13.45 23.35-5.1-8.84L836.1-188h10.21zm-13.45 18.79l9.54-16.51h-5l-7.06 12.23 2.52 4.28zM691.94-188l-7.07 12.25h-43.7l-5.07-8.85h43.67l2-3.4h10.17zm-8.38 10l4.43-7.69h-4.89l-2 3.4h-41.09l2.47 4.29h41.08zm23.82-10l-14.79 25.62h-43.7l-5.11-8.84h43.71l9.68-16.78h10.21zm-16.1 23.34l12.15-21.06h-4.94l-9.69 16.82h-41.07l2.47 4.24h41.08zM861.79-188l-21.21 36.73-5.11-8.85 16.1-27.88h10.22zm-21.21 32.16l17.26-29.88h-5l-14.74 25.6 2.48 4.28zM722.82 135.2H711.3l5.76-10 5.76 10zm-7.57-2.28h3.62l-1.77-3.15-1.85 3.15zm196-286.53v17.71l-14-24.19 5.1-8.84 8.9 15.32zm-2.28 9.17V-153l-6.58-11.4-2.47 4.28 9.05 15.68zm2.28-39.87v21.64l-6.24-10.82 6.24-10.82zm-2.28 13.13v-4.61l-1.33 2.3 1.33 2.31zm2.28 71.05v17.69l-7.6-13.08h-43.71l5.16-8.85h43.71l2.44 4.24zm-2.33 9.23v-8.57l-1.48-2.57h-41.08l-2.47 4.29h41.08l3.95 6.85zm-47.82-15.73l-21.83 37.85h-43.7l-5.11-8.84h43.71l21.85-37.85 5.08 8.84zm-23.14 35.57l20.53-35.57-2.47-4.27-20.54 35.56h-41.07l2.47 4.28h41.08zm-54-62.31l-5.11 8.84-21.88-37.85h-43.71l5.11-8.84h43.73l21.86 37.85zm-5.11 4.28l2.47-4.28-20.56-35.53h-41.08l-2.47 4.28h41.07l20.57 35.53zm12.83-17.66l-5.14 8.85-21.85-37.85h-43.71l5.12-8.85h43.7l21.88 37.85zm-5.11 4.29l2.47-4.29-20.56-35.57H727.4l-2.47 4.29H766l20.57 35.57zm20.53-4.29l-21.87 37.85h-10.21l21.85-37.86-21.85-37.84h10.21l21.87 37.85zm-23.18 35.57l20.53-35.57-20.53-35.57h-4.95l20.54 35.57-20.54 35.57h4.95zm-93.94-19.93l-5.11 8.84h-43.7L631-139.9v-17.67l15.27 26.46h43.71zm-6.42 6.56l2.47-4.28h-41.07l-11.68-20.22v8.56l9.2 15.94h41.08zm92.65 4.55l-5.11 8.84-21.85-37.85h-43.71l5.11-8.84h43.7L776.21-120zm-5.11 4.28l2.47-4.28-20.53-35.57h-41.08l-2.47 4.28h41.07l20.54 35.57zm51.43-31l-21.86 37.82h-10.21l21.86-37.86-21.86-37.84h10.21l21.86 37.88zm-23.17 35.54l20.53-35.57-20.53-35.57h-4.95l20.54 35.57-20.54 35.57h4.95zm-117.1-6.56l-5.11 8.84h-43.7l-2.45-4.24v-17.68l7.55 13.08h43.71zm-6.42 6.56l2.47-4.28h-41.08l-3.95-6.85v8.56l1.48 2.57h41.08zM890.7-184.6l-21.85 37.85 21.85 37.85h-10.21l-21.86-37.85 21.86-37.85h10.21zm-24.49 37.85l20.54-35.57h-4.94l-20.54 35.57 20.54 35.57h4.94l-20.54-35.57zm39.89 37.85h-10.17l-21.83-37.85 21.83-37.85h10.17l-21.81 37.85 21.81 37.85zm-12.47-58.6l8.56-14.82h-4.94l-20.54 35.57 20.54 35.57h4.94l-20.54-35.57 11.98-20.75zm-55.66 20.75L816.1-108.9h-10.2l21.86-37.86-21.86-37.84h10.2l21.87 37.85zm-23.17 35.57l20.53-35.57-20.53-35.57h-4.95l20.54 35.57-20.54 35.57h4.95zm60.46-73.42l-21.85 37.85 21.85 37.85H865.1l-21.9-37.85 21.9-37.85h10.16zm-24.49 37.85l20.54-35.57h-5l-20.48 35.57 20.53 35.57h5l-20.59-35.57zM637.24 120.69L631 131.5v-21.64l6.24 10.83zm-4 2.3l1.33-2.3-1.33-2.31v4.61zm11.72-15.68l-5.1 8.85-8.86-15.35V83.1l13.96 24.21zm-4.53 3.29l1.9-3.29-9-15.68v8.57l6.58 11.4.52-1zm12.25-16.66l-5.1 8.85L631 74.1V56.38l21.68 37.56zm-5.1 4.28l2.52-4.28-16.77-29.05v8.57l14.25 24.76zm34.68-55.5l-5.11 8.84h-43.7L631 47.32V29.64l7.55 13.08h43.71zm-6.42 6.56l2.47-4.28h-41.08l-3.95-6.85v8.56l1.48 2.57h41.08zm38.61 71.41l-8.35 14.51h-10.24l13.48-23.36 5.11 8.85zm-9.7 12.23l7.06-12.23-2.47-4.29-9.53 16.52h4.94zm2-25.61l-16.12 27.89h-10.22l21.21-36.73 5.13 8.84zm-17.44 25.61l14.79-25.61-2.47-4.28-17.26 29.89h4.94zM644.96-53.15l-5.1 8.85L631-59.65v-17.69l13.96 24.19zm-4.53 3.25l1.9-3.29-9-15.67v8.56l6.53 11.4.57-1zm49.55 79.21l-5.11 8.84h-43.7L631 20.58V2.89l15.27 26.46 43.71-.04zm-6.42 6.56l2.47-4.28h-41.07L633.28 11.4v8.57l9.2 15.94 41.08-.04zM652.68-66.52l-5.1 8.85L631-86.39v-17.69l21.68 37.56zm-5.1 4.29l2.52-4.29-16.77-29V-87l14.25 24.77zm-10.34 22.46L631-28.9v-21.69l6.24 10.82zm-4 2.3l1.33-2.3-1.33-2.31v4.61zm64.46 53.45l-5.11 8.84h-43.7L631-6.18v-17.67l23 39.83h43.7zm-6.42 6.56l2.47-4.28h-41.08l-19.39-33.6v8.57l16.92 29.31h41.08zm-791.54 2.28h-43.71l-21.85 37.85-5.08-8.84 21.86-37.85h43.7l5.08 8.84zm-65.56 33.28l20.54-35.57h41.07l-2.47-4.28h-41.08l-20.53 35.58 2.47 4.27zm97.75-31l-5.11 8.85L-95.03-1.9h-43.71l5.11-8.85h43.73l21.83 37.85zm-5.11 4.29l2.47-4.29-20.53-35.59h-41.08l-2.47 4.29h41.07l20.54 35.59zm28.28-17.68l-21.86 37.85h-10.22l21.85-37.85-21.85-37.85h10.21l21.87 37.85zm-23.17 35.57l20.53-35.57-20.54-35.61h-4.95l20.54 35.57-20.54 35.57 4.96.04zm7.73-35.57l-5.11 8.85-21.86-37.85h-43.71l5.12-8.85h43.7l21.86 37.85zm-5.11 4.28l2.47-4.28-20.54-35.61h-41.08l-2.47 4.28H-86l20.55 35.61zm50.12-82.24l-5.11 8.84h-43.7l-21.87-37.85 5.11-8.84 21.85 37.85h43.72zm-6.42 6.56l2.47-4.28h-41.08L-80.9-97.54l-2.47 4.28 20.54 35.57h41.08zm-7.71 71.4l-21.86 37.85h-10.22l21.86-37.85-21.86-37.85h10.21l21.87 37.85zm-23.17 35.57l20.53-35.57-20.54-35.61h-4.95l20.54 35.57-20.54 35.57 4.96.04zm38.61-35.57L-35.9 51.56h-10.2l21.86-37.85-21.86-37.85h10.2l21.88 37.85zM-37.2 49.28l20.53-35.57L-37.2-21.9h-4.95l20.54 35.57-20.54 35.57 4.95.04zM-6.31 27.1l-21.86 37.86H-71.9l-5.08-8.86h43.71l21.85-37.85 5.11 8.85zm-23.17 35.57L-8.9 27.1l-2.47-4.28-20.53 35.55h-41.13l2.47 4.28 41.08.02zm-55.34-11.09h-43.71l-21.85 37.83-5.11-8.84 21.86-37.85h43.73l5.08 8.86zm-65.56 33.27l20.54-35.57h41.07L-91.24 45h-41.08l-20.53 35.57 2.47 4.28zM1.41 40.46l-21.86 37.85h-43.7l-5.11-8.85h43.71L-3.7 31.61l5.11 8.85zm-23.17 35.57l20.53-35.57-2.47-4.29-20.53 35.57h-41.08l2.47 4.29h41.08zm-70.78-37.84h-43.71l-21.85 37.85-5.11-8.84 21.86-37.85h43.7l5.11 8.84zm-65.56 33.29l20.54-35.57h41.07l-2.47-4.28h-41.08l-20.53 35.57 2.47 4.28zm-10.33 22.46l-21.86 37.85h-10.21l21.85-37.85-21.85-37.84h10.21l21.86 37.84zm-23.17 35.57l20.53-35.57-20.53-35.57h-5l20.54 35.57-20.49 35.57h4.95zm168.54-19.93l-5.11 8.84H-71.9l-21.86-37.85 5.11-8.84 21.85 37.85h43.74zm-6.42 6.52l2.47-4.28h-41.07l-20.54-35.57-2.47 4.28 20.54 35.57h41.07zM9.1 53.83l-21.86 37.85h-43.7l-5.11-8.85h43.71L3.99 44.98l5.11 8.85zM-14.04 89.4L6.49 53.83l-2.47-4.28-20.54 35.55h-41.07l2.47 4.29 41.08.01zM54.1-28.67H10.43L-11.42 9.18-16.53.34 5.33-37.51h43.7l5.07 8.84zM-11.42 4.62L9.1-30.9h41.07l-2.47-4.28H6.65L-13.9.34l2.48 4.28zM54.1 51.56H43.93L22.1 13.71l21.85-37.85H54.1L32.29 13.71 54.1 51.56zM41.59-7.04l8.6-14.86h-4.94L24.71 13.71l20.54 35.57h4.94L29.65 13.71 41.59-7.04zM-84.82 56.1l-21.85 37.85 21.85 37.85h-10.21l-21.87-37.86 21.87-37.84h10.21zm-24.49 37.84l20.54-35.57h-4.95l-20.53 35.57 20.53 35.57h4.95l-20.54-35.57zm-74.57 0l-21.85 37.85h-10.17l21.85-37.85-21.85-37.84h10.17l21.85 37.84zm-23.16 35.57l20.53-35.57-20.53-35.57h-4.95l20.54 35.57-20.54 35.57h4.95zm54.05-35.57l-21.86 37.85h-10.21l21.85-37.85-21.85-37.84h10.21l21.86 37.84zm-23.18 35.57l20.54-35.57-20.54-35.57h-4.94l20.54 35.57-20.54 35.57h4.94zm60.47-73.41l-21.85 37.84 21.85 37.85h-10.2l-21.87-37.85 21.87-37.84h10.2zm-24.49 37.84l20.54-35.57h-5l-20.48 35.57 20.53 35.57h5l-20.59-35.57zm39.93 37.85h-10.21l-21.86-37.85 21.86-37.84h10.21l-21.85 37.84 21.85 37.85zm-24.49-37.85l20.54-35.57h-5l-20.48 35.57 20.53 35.57h5l-20.59-35.57zm49-53.48l-5.15 8.84-21.85-37.85h-43.71l5.11-8.84h43.7l21.9 37.85zm-5.15 4.28l2.47-4.28-20.53-35.57h-41.08l-2.47 4.28h41.07l20.54 35.57zm-19.36-180.38h-43.71l-21.85 37.85-5.08-8.84 21.83-37.85h43.7l5.11 8.84zm-65.56 33.29l20.54-35.55h41.07l-2.47-4.28h-41.08l-20.53 35.55 2.47 4.28zM38.7-24.14L16.85 13.71 38.7 51.56H28.49L6.63 13.71l21.86-37.85H38.7zm-8.89 73.42h4.94L14.21 13.71 34.75-21.9h-4.94L9.27 13.71l20.54 35.57zM1.41-120l-21.86 37.85h-43.7L-69.26-91h43.71l21.85-37.85L1.41-120zm-23.17 35.57L-1.23-120l-2.47-4.28-20.53 35.56h-41.08l2.47 4.29h41.08zm-115.79 44.66L-159.41-1.9h-43.7l-5.11-8.85h43.71l21.85-37.87 5.11 8.85zM-160.72-4.2l20.53-35.57-2.47-4.29-20.54 35.57h-41.07l2.47 4.29h41.08zm75.9-104.7h-43.71l-21.85 37.86-5.11-8.86 21.86-37.84h43.73l5.08 8.84zm-65.56 33.29l20.54-35.57h41.07l-2.47-4.28h-41.08l-20.53 35.56 2.47 4.29zm57.84-46.66h-43.71l-21.85 37.85-5.11-8.84 21.86-37.85h43.7l5.11 8.84zm-65.56 33.29l20.54-35.57h41.07l-2.47-4.28h-41.08l-20.53 35.57 2.47 4.28zM38.7-55.41H-5.01L-26.9-17.56-32-26.4l21.85-37.85h43.7l5.15 8.84zm-65.6 33.29l20.54-35.57h41.07l-2.47-4.28H-8.8L-29.33-26.4l2.43 4.28zm-127.4-122.36l-5.11 8.84h-43.7l-17.89-31v-17.67l23 39.83h43.7zm-6.42 6.58l2.47-4.28h-41.08l-19.39-33.62v8.57l16.92 29.33h41.08zM46.42-42.04H2.71L-19.14-4.19l-5.1-8.84L-2.39-50.9h43.7l5.11 8.86zM-19.14-8.75L1.4-44.32h41.07L40-48.6H-1.07l-20.54 35.57 2.47 4.28zm3.8 105l-5.11 8.85h-43.7l-21.86-37.9 5.11-8.85 21.85 37.86 43.71.04zm-6.42 6.56l2.47-4.28h-41.07L-80.9 62.92l-2.47 4.28 20.54 35.57 41.07.04zM-129.83-26.4l-21.86 37.85h-43.7l-5.11-8.84h43.71l21.89-37.86 5.07 8.85zM-153 9.17l20.53-35.57-2.43-4.28-20.58 35.57h-41.07l2.47 4.28H-153zM-6.31-133.37l-21.86 37.85H-71.9l-5.11-8.85h43.71l21.85-37.85 5.14 8.85zM-29.48-97.8l20.58-35.57-2.47-4.29-20.53 35.57h-41.13l2.48 4.29h41.07zm-138.95 31.28l-21.86 37.85h-10.21l21.85-37.85-21.85-37.85h10.21l21.86 37.85zM-191.6-30.9l20.53-35.62-20.53-35.57h-5l20.59 35.57-20.54 35.62h4.95zm7.7-35.62l-21.83 37.85h-10.17l21.81-37.85-21.81-37.85h10.17l21.83 37.85zm-23.14 35.62l20.53-35.62-20.53-35.57h-4.95l20.54 35.57-20.54 35.62h4.95zm183.98-20l-5.11 8.84H-71.9L-93.73-79.9l5.11-8.84 21.85 37.84h43.71zm-6.42 6.56l2.47-4.28h-41.07l-20.54-35.55-2.47 4.27 20.54 35.57 41.07-.01zm52.74 20.18L1.41 13.71l21.85 37.85H13.1L-8.8 13.71l21.9-37.85 10.16-.02zm-8.9 73.42h5L-1.23 13.71 19.31-21.9h-5L-6.17 13.71l20.53 35.55zM-152.99-66.52l-21.86 37.85h-10.21l21.85-37.85-21.85-37.85h10.21l21.86 37.85zm-23.18 35.62l20.54-35.62-20.54-35.57h-4.94l20.54 35.57-20.54 35.62h4.94zm30.9-22.19l-21.86 37.8h-43.7l-5.07-8.85h43.67l21.85-37.85 5.11 8.9zm-23.17 35.51l20.54-35.56-2.47-4.29-20.53 35.53h-41.09l2.47 4.28 41.08.04zm52.74-86.79l-21.85 37.85 21.85 37.85h-10.2l-21.87-37.85 21.87-37.85h10.2zm-24.49 37.85l20.54-35.57h-5l-20.48 35.57 20.53 35.62h5l-20.59-35.62zm55.37-37.85l-21.85 37.85 21.85 37.85h-10.21l-21.87-37.85 21.86-37.85h10.22zM-96.9-87.9l8.18-14.17h-4.95l-20.58 35.55 20.53 35.62h4.95l-20.54-35.62L-96.9-87.9zm66.17 50.41l-5.17 8.82h-43.7l-21.84-37.85 5.1-8.84 21.85 37.85 43.76.02zm-6.47 6.59l2.47-4.28H-75.8L-96.34-70.8l-2.47 4.28 20.53 35.62h41.08zm-63.06 2.28h-10.21l-21.86-37.9 21.86-37.85h10.21l-21.85 37.85 21.85 37.9zm-24.49-37.9l20.54-35.57h-5l-20.48 35.57 20.53 35.62h5l-20.59-35.62zm94 189.47l-5.15 8.84h-43.7l-21.85-37.85 5.1-8.84 21.85 37.85h43.75zm-6.42 6.56l2.47-4.28h-41.1l-20.54-35.57-2.47 4.28 20.53 35.57h41.11zm96.4-69.18v17.69l-7.55-13.08H7.94l5.16-8.84h43.71l2.42 4.23zm-2.28 9.18v-8.57l-1.48-2.57H14.36l-2.47 4.28h41.08l3.98 6.86zm2.28-35.92v17.69L37.52 13.71l5.1-8.84 16.61 28.72zm-2.28 9.17V34.2L42.65 9.43l-2.47 4.28 16.77 29.05zm2.28-35.92v17.69L45.23.34l5.1-8.84 8.9 15.34zm-2.28 9.18V7.46L50.34-3.9 47.87.38l9.08 15.64zm2.28-62.66v17.74L57-32.81 36.21-68.78H-7.5l5.11-8.84h43.7l17.92 30.98zm-2.28 9.17v-8.56L40-75.34H-1.07l-2.48 4.28h41.07l19.43 33.59zm2.28 13.62v21.64l-6.24-10.82 6.24-10.82zm-2.28 13.13v-4.62l-1.33 2.31 1.33 2.31zm2.28-62.67v17.69l-15.3-26.45H.22L5.33-91h43.7l10.2 17.61zm-2.28 9.18v-8.56l-9.2-15.95H6.65l-2.48 4.29h41.08l11.7 20.22zm-10.5 182.63H2.71l-9.68 16.78h-10.21l14.79-25.62h43.7l5.14 8.84zm-54.71 14.5L1.4 116.1h41.07L40 111.82H-1.07l-12.16 21.06 4.97.04zm47-27.87H-5.01l-17.4 30.15h-10.21l22.51-39h43.7l5.15 8.85zm-62.43 27.87l17.41-30.15h41.07l-2.47-4.28H-8.8l-19.87 34.43h4.98zM59.2 87.1v17.69L43.93 78.34H.22l5.11-8.85h43.7L59.2 87.1zm-2.28 9.18v-8.57l-9.2-15.94H6.65l-2.48 4.29h41.08l11.67 20.22zm-2.82 35.51H10.43l-2 3.41H-1.74l7.07-12.25h43.7l5.07 8.84zm-47 1.13l2-3.41h41.07l-2.47-4.28H6.65l-4.44 7.69H7.1zm52.05-19.1v17.73l-2.23-3.92-20.76-35.95H-7.5l5.11-8.85h43.7l17.84 30.99zm-2.28 9.17v-8.56L40 85.1H-1.07l-2.48 4.29h41.07l19.35 33.6zM59.2-126.9v17.69l-21.68-37.54 5.1-8.84L59.2-126.9zm-2.28 9.17v-8.56l-14.3-24.77-2.47 4.28 16.77 29.05zM-129.18-188l-22.51 39h-43.7l-5.11-8.85h43.71l17.4-30.15h10.21zM-153-151.29l19.87-34.43h-4.94l-17.41 30.15h-41.07l2.47 4.28H-153zM-21.1-188l-5.76 10-5.76-10h11.52zm-5.8 5.42l1.81-3.14h-3.62l1.81 3.14zM-5.69-188l-13.45 23.35-5.1-8.84L-15.9-188h10.21zm-13.45 18.79l9.54-16.51h-5l-7.06 12.23 2.52 4.28zM-160.06-188l-7.07 12.25h-43.7l-5.07-8.85h43.67l2-3.4h10.17zm-8.38 10l4.43-7.69h-4.89l-2 3.4h-41.09l2.47 4.29h41.08zm23.82-10l-14.79 25.62h-43.7l-5.11-8.84h43.71l9.68-16.78h10.21zm-16.1 23.34l12.15-21.06h-4.94l-9.69 16.82h-41.07l2.47 4.24h41.08zM9.79-188l-21.21 36.73-5.11-8.85L-.43-188H9.79zm-21.21 32.16l17.26-29.88h-5l-14.74 25.6 2.48 4.28zM-129.18 135.2h-11.52l5.76-10 5.76 10zm-7.57-2.28h3.62l-1.77-3.15-1.85 3.15zm196-286.53v17.71l-14-24.19 5.1-8.84 8.9 15.32zm-2.28 9.17V-153l-6.58-11.4-2.47 4.28 9.05 15.68zm2.28-39.87v21.64l-6.24-10.82 6.24-10.82zm-2.28 13.13v-4.61l-1.33 2.3 1.33 2.31zm2.28 71.05v17.69l-7.6-13.08H7.94l5.16-8.85h43.71l2.44 4.24zm-2.33 9.23v-8.57l-1.48-2.57H14.36l-2.47 4.29h41.08l3.95 6.85zM9.1-106.63l-21.83 37.85h-43.7l-5.11-8.84h43.71l21.85-37.85 5.08 8.84zm-23.14 35.57l20.53-35.57-2.47-4.27-20.54 35.56h-41.07l2.47 4.28h41.08zm-54-62.31l-5.11 8.84-21.88-37.85h-43.71l5.11-8.84h43.73l21.86 37.85zm-5.11 4.28l2.47-4.28-20.56-35.53h-41.08l-2.47 4.28h41.07l20.57 35.53zm12.83-17.66l-5.14 8.85-21.85-37.85h-43.71l5.12-8.85h43.7l21.88 37.85zm-5.11 4.29l2.47-4.29-20.56-35.57h-41.08l-2.47 4.29H-86l20.57 35.57zm20.53-4.29l-21.87 37.85h-10.21l21.85-37.86-21.85-37.84h10.21l21.87 37.85zm-23.18 35.57l20.53-35.57-20.53-35.57h-4.95l20.54 35.57-20.54 35.57h4.95zm-93.94-19.93l-5.11 8.84h-43.7L-221-139.9v-17.67l15.27 26.46h43.71zm-6.42 6.56l2.47-4.28h-41.07l-11.68-20.22v8.56l9.2 15.94h41.08zm92.65 4.55l-5.11 8.84-21.85-37.85h-43.71l5.11-8.84h43.7L-75.79-120zm-5.11 4.28l2.47-4.28-20.53-35.57h-41.08l-2.47 4.28h41.07l20.54 35.57zm51.43-31l-21.86 37.82h-10.21l21.86-37.86-21.86-37.84h10.21l21.86 37.88zm-23.17 35.54l20.53-35.57-20.53-35.57h-4.95l20.54 35.57-20.54 35.57h4.95zm-117.1-6.56l-5.11 8.84h-43.7l-2.45-4.24v-17.68l7.55 13.08h43.71zm-6.42 6.56l2.47-4.28h-41.08l-3.95-6.85v8.56l1.48 2.57h41.08zM38.7-184.6l-21.85 37.85L38.7-108.9H28.49L6.63-146.75l21.86-37.85H38.7zm-24.49 37.85l20.54-35.57h-4.94L9.27-146.75l20.54 35.57h4.94l-20.54-35.57zM54.1-108.9H43.93L22.1-146.75l21.83-37.85H54.1l-21.81 37.85L54.1-108.9zm-12.47-58.6l8.56-14.82h-4.94l-20.54 35.57 20.54 35.57h4.94l-20.54-35.57 11.98-20.75zm-55.66 20.75L-35.9-108.9h-10.2l21.86-37.86-21.86-37.84h10.2l21.87 37.85zm-23.17 35.57l20.53-35.57-20.53-35.57h-4.95l20.54 35.57-20.54 35.57h4.95zm60.46-73.42L1.41-146.75l21.85 37.85H13.1l-21.9-37.85 21.9-37.85h10.16zm-24.49 37.85l20.54-35.57h-5l-20.48 35.57 20.53 35.57h5l-20.59-35.57zm-213.53 267.44L-221 131.5v-21.64l6.24 10.83zm-4 2.3l1.33-2.3-1.33-2.31v4.61zm11.72-15.68l-5.1 8.85-8.86-15.35V83.1l13.96 24.21zm-4.53 3.29l1.9-3.29-9-15.68v8.57l6.58 11.4.52-1zm12.25-16.66l-5.1 8.85L-221 74.1V56.38l21.68 37.56zm-5.1 4.28l2.52-4.28-16.77-29.05v8.57l14.25 24.76zm34.68-55.5l-5.11 8.84h-43.7l-2.45-4.24V29.64l7.55 13.08h43.71zm-6.42 6.56l2.47-4.28h-41.08l-3.95-6.85v8.56l1.48 2.57h41.08zm38.61 71.41l-8.35 14.51h-10.24l13.48-23.36 5.11 8.85zm-9.7 12.23l7.06-12.23-2.47-4.29-9.53 16.52h4.94zm2-25.61l-16.12 27.89h-10.22l21.21-36.73 5.13 8.84zm-17.44 25.61l14.79-25.61-2.47-4.28-17.26 29.89h4.94zm-44.35-186.07l-5.1 8.85-8.86-15.35v-17.69l13.96 24.19zm-4.53 3.25l1.9-3.29-9-15.67v8.56l6.53 11.4.57-1zm49.55 79.21l-5.11 8.84h-43.7L-221 20.58V2.89l15.27 26.46 43.71-.04zm-6.42 6.56l2.47-4.28h-41.07l-11.68-20.19v8.57l9.2 15.94 41.08-.04zm-30.88-102.39l-5.1 8.85L-221-86.39v-17.69l21.68 37.56zm-5.1 4.29l2.52-4.29-16.77-29V-87l14.25 24.77zm-10.34 22.46L-221-28.9v-21.69l6.24 10.82zm-4 2.3l1.33-2.3-1.33-2.31v4.61zm64.46 53.45l-5.11 8.84h-43.7l-17.89-31v-17.67l23 39.83h43.7zm-6.42 6.56l2.47-4.28h-41.08l-19.39-33.6v8.57l16.92 29.31h41.08zm628.46 2.28h-43.71l-21.85 37.85-5.08-8.84 21.86-37.85h43.7l5.08 8.84zM402.18 58.1l20.54-35.57h41.07l-2.47-4.28h-41.08l-20.53 35.58 2.47 4.27zm97.75-31l-5.11 8.85L472.97-1.9h-43.71l5.11-8.85h43.73l21.83 37.85zm-5.11 4.29l2.47-4.29-20.53-35.59h-41.08l-2.47 4.29h41.07l20.54 35.59zm28.28-17.68l-21.86 37.85h-10.22l21.85-37.85-21.85-37.85h10.21l21.87 37.85zm-23.17 35.57l20.53-35.57-20.54-35.61h-4.95l20.54 35.57-20.54 35.57 4.96.04zm7.73-35.57l-5.11 8.85-21.86-37.85h-43.71l5.12-8.85h43.7l21.86 37.85zm-5.11 4.28l2.47-4.28-20.54-35.61H443.4l-2.47 4.28H482l20.55 35.61zm50.12-82.24l-5.11 8.84h-43.7l-21.87-37.85 5.11-8.84 21.85 37.85h43.72zm-6.42 6.56l2.47-4.28h-41.08L487.1-97.54l-2.47 4.28 20.54 35.57h41.08zm-7.71 71.4l-21.86 37.85h-10.22l21.86-37.85-21.86-37.85h10.21l21.87 37.85zm-23.17 35.57l20.53-35.57-20.54-35.61h-4.95l20.54 35.57-20.54 35.57 4.96.04zm38.61-35.57L532.1 51.56h-10.2l21.86-37.85-21.86-37.85h10.2l21.88 37.85zM530.8 49.28l20.53-35.57L530.8-21.9h-4.95l20.54 35.57-20.54 35.57 4.95.04zm30.89-22.18l-21.86 37.86H496.1l-5.08-8.86h43.71l21.85-37.85 5.11 8.85zm-23.17 35.57L559.1 27.1l-2.47-4.28-20.53 35.55h-41.13l2.47 4.28 41.08.02zm-55.34-11.09h-43.71l-21.85 37.83-5.11-8.84 21.86-37.85h43.73l5.08 8.86zm-65.56 33.27l20.54-35.57h41.07L476.76 45h-41.08l-20.53 35.57 2.47 4.28zm151.79-44.39l-21.86 37.85h-43.7l-5.11-8.85h43.71l21.85-37.85 5.11 8.85zm-23.17 35.57l20.53-35.57-2.47-4.29-20.53 35.57h-41.08l2.47 4.29h41.08zm-70.78-37.84h-43.71L409.9 76.04l-5.11-8.84 21.86-37.85h43.7l5.11 8.84zM409.9 71.48l20.54-35.57h41.07l-2.47-4.28h-41.08L407.43 67.2l2.47 4.28zm-10.33 22.46l-21.86 37.85H367.5l21.85-37.85L367.5 56.1h10.21l21.86 37.84zm-23.17 35.57l20.53-35.57-20.53-35.57h-5l20.54 35.57-20.49 35.57h4.95zm168.54-19.93l-5.11 8.84H496.1l-21.86-37.85 5.11-8.84 21.85 37.85h43.74zm-6.42 6.52l2.47-4.28h-41.07l-20.54-35.57-2.47 4.28 20.54 35.57h41.07zm38.58-62.27l-21.86 37.85h-43.7l-5.11-8.85h43.71l21.85-37.85 5.11 8.85zM553.96 89.4l20.53-35.57-2.47-4.28-20.54 35.55h-41.07l2.47 4.29 41.08.01zM622.1-28.67h-43.67L556.58 9.18 551.47.34l21.86-37.85h43.7l5.07 8.84zM556.58 4.62L577.1-30.9h41.07l-2.47-4.28h-41.05L554.1.34l2.48 4.28zm65.52 46.94h-10.17L590.1 13.71l21.85-37.85h10.15l-21.81 37.85 21.81 37.85zm-12.51-58.6l8.6-14.86h-4.94l-20.54 35.61 20.54 35.57h4.94l-20.54-35.57 11.94-20.75zM483.18 56.1l-21.85 37.85 21.85 37.85h-10.21L451.1 93.94l21.87-37.84h10.21zm-24.49 37.84l20.54-35.57h-4.95l-20.53 35.57 20.53 35.57h4.95l-20.54-35.57zm-74.57 0l-21.85 37.85H352.1l21.85-37.85L352.1 56.1h10.17l21.85 37.84zm-23.16 35.57l20.53-35.57-20.53-35.57h-4.95l20.54 35.57-20.54 35.57h4.95zm54.05-35.57l-21.86 37.85h-10.21l21.85-37.85-21.85-37.84h10.21l21.86 37.84zm-23.18 35.57l20.54-35.57-20.54-35.57h-4.94l20.54 35.57-20.54 35.57h4.94zM452.3 56.1l-21.85 37.84 21.85 37.85h-10.2l-21.87-37.85L442.1 56.1h10.2zm-24.49 37.84l20.54-35.57h-5l-20.48 35.57 20.53 35.57h5l-20.59-35.57zm39.93 37.85h-10.21l-21.86-37.85 21.86-37.84h10.21l-21.85 37.84 21.85 37.85zm-24.49-37.85l20.54-35.57h-5l-20.48 35.57 20.53 35.57h5l-20.59-35.57zm49-53.48l-5.15 8.84-21.85-37.85h-43.71l5.11-8.84h43.7l21.9 37.85zm-5.15 4.28l2.47-4.28-20.53-35.57h-41.08l-2.47 4.28h41.07l20.54 35.57zm-19.36-180.38h-43.71l-21.85 37.85-5.08-8.84 21.83-37.85h43.7l5.11 8.84zm-65.56 33.29l20.54-35.55h41.07l-2.47-4.28h-41.08l-20.53 35.55 2.47 4.28zM606.7-24.14l-21.85 37.85 21.85 37.85h-10.21l-21.86-37.85 21.86-37.85h10.21zm-8.89 73.42h4.94l-20.54-35.57 20.54-35.61h-4.94l-20.54 35.61 20.54 35.57zM569.41-120l-21.86 37.85h-43.7L498.74-91h43.71l21.85-37.85 5.11 8.85zm-23.17 35.57L566.77-120l-2.47-4.28-20.53 35.56h-41.08l2.47 4.29h41.08zM430.45-39.77L408.59-1.9h-43.7l-5.11-8.85h43.71l21.85-37.87 5.11 8.85zM407.28-4.2l20.53-35.57-2.47-4.29L404.8-8.49h-41.07l2.47 4.29h41.08zm75.9-104.7h-43.71l-21.85 37.86-5.11-8.86 21.86-37.84h43.73l5.08 8.84zm-65.56 33.29l20.54-35.57h41.07l-2.47-4.28h-41.08L415.15-79.9l2.47 4.29zm57.84-46.66h-43.71L409.9-84.42l-5.11-8.84 21.86-37.85h43.7l5.11 8.84zM409.9-88.98l20.54-35.57h41.07l-2.47-4.28h-41.08l-20.53 35.57 2.47 4.28zm196.8 33.57h-43.71L541.1-17.56 536-26.4l21.85-37.85h43.7l5.15 8.84zm-65.6 33.29l20.54-35.57h41.07l-2.47-4.28H559.2L538.67-26.4l2.43 4.28zM413.7-144.48l-5.11 8.84h-43.7l-17.89-31v-17.67l23 39.83h43.7zm-6.42 6.58l2.47-4.28h-41.08l-19.39-33.62v8.57l16.92 29.33h41.08zm207.14 95.86h-43.71L548.86-4.19l-5.1-8.84 21.85-37.87h43.7l5.11 8.86zM548.86-8.75l20.54-35.57h41.07L608-48.6h-41.07l-20.54 35.57 2.47 4.28zm3.8 105l-5.11 8.85h-43.7l-21.86-37.9 5.11-8.85 21.85 37.86 43.71.04zm-6.42 6.56l2.47-4.28h-41.07L487.1 62.92l-2.47 4.28 20.54 35.57 41.07.04zM438.17-26.4l-21.86 37.85h-43.7l-5.11-8.84h43.71l21.89-37.86 5.07 8.85zM415 9.17l20.53-35.57-2.43-4.28-20.58 35.57h-41.07l2.47 4.28H415zm146.69-142.54l-21.86 37.85H496.1l-5.11-8.85h43.71l21.85-37.85 5.14 8.85zM538.52-97.8l20.58-35.57-2.47-4.29-20.53 35.57h-41.13l2.48 4.29h41.07zM399.57-66.52l-21.86 37.85H367.5l21.85-37.85-21.85-37.85h10.21l21.86 37.85zM376.4-30.9l20.53-35.62-20.53-35.57h-5l20.59 35.57-20.54 35.62h4.95zm7.7-35.62l-21.83 37.85H352.1l21.81-37.85-21.81-37.85h10.17l21.83 37.85zM360.96-30.9l20.53-35.62-20.53-35.57h-4.95l20.54 35.57-20.54 35.62h4.95zm183.98-20l-5.11 8.84H496.1L474.27-79.9l5.11-8.84 21.85 37.84h43.71zm-6.42 6.56l2.47-4.28h-41.07l-20.54-35.55-2.47 4.27 20.54 35.57 41.07-.01zm52.74 20.18l-21.85 37.87 21.85 37.85H581.1l-21.9-37.85 21.9-37.85 10.16-.02zm-8.9 73.42h5l-20.59-35.55 20.54-35.61h-5l-20.48 35.61 20.53 35.55zM415.01-66.52l-21.86 37.85h-10.21l21.85-37.85-21.85-37.85h10.21l21.86 37.85zM391.83-30.9l20.54-35.62-20.54-35.57h-4.94l20.54 35.57-20.54 35.62h4.94zm30.9-22.19l-21.86 37.8h-43.7l-5.07-8.85h43.67l21.85-37.85 5.11 8.9zm-23.17 35.51l20.54-35.56-2.47-4.29L397.1-21.9h-41.09l2.47 4.28 41.08.04zm52.74-86.79l-21.85 37.85 21.85 37.85h-10.2l-21.87-37.85 21.87-37.85h10.2zm-24.49 37.85l20.54-35.57h-5l-20.48 35.57L443.4-30.9h5l-20.59-35.62zm55.37-37.85l-21.85 37.85 21.85 37.85h-10.21L451.1-66.52l21.86-37.85h10.22zM471.1-87.9l8.18-14.17h-4.95l-20.58 35.55 20.53 35.62h4.95l-20.54-35.62L471.1-87.9zm66.17 50.41l-5.17 8.82h-43.7l-21.84-37.85 5.1-8.84 21.85 37.85 43.76.02zm-6.47 6.59l2.47-4.28H492.2L471.66-70.8l-2.47 4.28 20.53 35.62h41.08zm-63.06 2.28h-10.21l-21.86-37.9 21.86-37.85h10.21l-21.85 37.85 21.85 37.9zm-24.49-37.9l20.54-35.57h-5l-20.48 35.57 20.53 35.62h5l-20.59-35.62zm94 189.47l-5.15 8.84h-43.7l-21.85-37.85 5.1-8.84 21.85 37.85h43.75zm-6.42 6.56l2.47-4.28h-41.1l-20.54-35.57-2.47 4.28 20.53 35.57h41.11zm96.4-69.18v17.69l-7.55-13.08h-43.74l5.16-8.84h43.71l2.42 4.23zm-2.28 9.18v-8.57l-1.48-2.57h-41.11l-2.47 4.28h41.08l3.98 6.86zm2.28-35.92v17.69l-21.71-37.57 5.1-8.84 16.61 28.72zm-2.28 9.17V34.2l-14.3-24.77-2.47 4.28 16.77 29.05zm2.28-35.92v17.69l-14-24.19 5.1-8.84 8.9 15.34zm-2.28 9.18V7.46L618.34-3.9 615.87.38l9.08 15.64zm2.28-62.66v17.74L625-32.81l-20.79-35.97H560.5l5.11-8.84h43.7l17.92 30.98zm-2.28 9.17v-8.56L608-75.34h-41.07l-2.48 4.28h41.07l19.43 33.59zm2.28 13.62v21.64l-6.24-10.82 6.24-10.82zm-2.28 13.13v-4.62l-1.33 2.31 1.33 2.31zm2.28-62.67v17.69l-15.3-26.45h-43.71l5.11-8.85h43.7l10.2 17.61zm-2.28 9.18v-8.56l-9.2-15.95h-41.1l-2.48 4.29h41.08l11.7 20.22zm-10.5 182.63h-43.74l-9.68 16.78h-10.21l14.79-25.62h43.7l5.14 8.84zm-54.71 14.5l9.66-16.82h41.07l-2.47-4.28h-41.07l-12.16 21.06 4.97.04zm47-27.87h-43.75l-17.4 30.15h-10.21l22.51-39h43.7l5.15 8.85zm-62.43 27.87l17.41-30.15h41.07l-2.47-4.28H559.2l-19.87 34.43h4.98zM627.2 87.1v17.69l-15.27-26.45h-43.71l5.11-8.85h43.7L627.2 87.1zm-2.28 9.18v-8.57l-9.2-15.94h-41.07l-2.48 4.29h41.08l11.67 20.22zm-2.82 35.51h-43.67l-2 3.41h-10.17l7.07-12.25h43.7l5.07 8.84zm-47 1.13l2-3.41h41.07l-2.47-4.28h-41.05l-4.44 7.69h4.89zm52.05-19.1v17.73l-2.23-3.92-20.76-35.95H560.5l5.11-8.85h43.7l17.84 30.99zm-2.28 9.17v-8.56L608 85.1h-41.07l-2.48 4.29h41.07l19.35 33.6zm2.33-249.89v17.69l-21.68-37.54 5.1-8.84 16.58 28.69zm-2.28 9.17v-8.56l-14.3-24.77-2.47 4.28 16.77 29.05zM438.82-188l-22.51 39h-43.7l-5.11-8.85h43.71l17.4-30.15h10.21zM415-151.29l19.87-34.43h-4.94l-17.41 30.15h-41.07l2.47 4.28H415zM546.9-188l-5.76 10-5.76-10h11.52zm-5.8 5.42l1.81-3.14h-3.62l1.81 3.14zm21.21-5.42l-13.45 23.35-5.1-8.84L552.1-188h10.21zm-13.45 18.79l9.54-16.51h-5l-7.06 12.23 2.52 4.28zM407.94-188l-7.07 12.25h-43.7l-5.07-8.85h43.67l2-3.4h10.17zm-8.38 10l4.43-7.69h-4.89l-2 3.4h-41.09l2.47 4.29h41.08zm23.82-10l-14.79 25.62h-43.7l-5.11-8.84h43.71l9.68-16.78h10.21zm-16.1 23.34l12.15-21.06h-4.94l-9.69 16.82h-41.07l2.47 4.24h41.08zM577.79-188l-21.21 36.73-5.11-8.85 16.1-27.88h10.22zm-21.21 32.16l17.26-29.88h-5l-14.74 25.6 2.48 4.28zM438.82 135.2H427.3l5.76-10 5.76 10zm-7.57-2.28h3.62l-1.77-3.15-1.85 3.15zm196-286.53v17.71l-14-24.19 5.1-8.84 8.9 15.32zm-2.28 9.17V-153l-6.58-11.4-2.47 4.28 9.05 15.68zm2.28-39.87v21.64l-6.24-10.82 6.24-10.82zm-2.28 13.13v-4.61l-1.33 2.3 1.33 2.31zm2.28 71.05v17.69l-7.6-13.08h-43.71l5.16-8.85h43.71l2.44 4.24zm-2.33 9.23v-8.57l-1.48-2.57h-41.08l-2.47 4.29h41.08l3.95 6.85zm-47.82-15.73l-21.83 37.85h-43.7l-5.11-8.84h43.71l21.85-37.85 5.08 8.84zm-23.14 35.57l20.53-35.57-2.47-4.27-20.54 35.56h-41.07l2.47 4.28h41.08zm-54-62.31l-5.11 8.84-21.88-37.85h-43.71l5.11-8.84h43.73l21.86 37.85zm-5.11 4.28l2.47-4.28-20.56-35.53h-41.08l-2.47 4.28h41.07l20.57 35.53zm12.83-17.66l-5.14 8.85-21.85-37.85h-43.71l5.12-8.85h43.7l21.88 37.85zm-5.11 4.29l2.47-4.29-20.56-35.57H443.4l-2.47 4.29H482l20.57 35.57zm20.53-4.29l-21.87 37.85h-10.21l21.85-37.86-21.85-37.84h10.21l21.87 37.85zm-23.18 35.57l20.53-35.57-20.53-35.57h-4.95l20.54 35.57-20.54 35.57h4.95zm-93.94-19.93l-5.11 8.84h-43.7L347-139.9v-17.67l15.27 26.46h43.71zm-6.42 6.56l2.47-4.28h-41.07l-11.68-20.22v8.56l9.2 15.94h41.08zm92.65 4.55l-5.11 8.84-21.85-37.85h-43.71l5.11-8.84h43.7L492.21-120zm-5.11 4.28l2.47-4.28-20.53-35.57h-41.08l-2.47 4.28h41.07l20.54 35.57zm51.43-31l-21.86 37.82h-10.21l21.86-37.86-21.86-37.84h10.21l21.86 37.88zm-23.17 35.54l20.53-35.57-20.53-35.57h-4.95l20.54 35.57-20.54 35.57h4.95zm-117.1-6.56l-5.11 8.84h-43.7l-2.45-4.24v-17.68l7.55 13.08h43.71zm-6.42 6.56l2.47-4.28h-41.08l-3.95-6.85v8.56l1.48 2.57h41.08zM606.7-184.6l-21.85 37.85 21.85 37.85h-10.21l-21.86-37.85 21.86-37.85h10.21zm-24.49 37.85l20.54-35.57h-4.94l-20.54 35.57 20.54 35.57h4.94l-20.54-35.57zm39.89 37.85h-10.17l-21.83-37.85 21.83-37.85h10.17l-21.81 37.85 21.81 37.85zm-12.47-58.6l8.56-14.82h-4.94l-20.54 35.57 20.54 35.57h4.94l-20.54-35.57 11.98-20.75zm-55.66 20.75L532.1-108.9h-10.2l21.86-37.86-21.86-37.84h10.2l21.87 37.85zm-23.17 35.57l20.53-35.57-20.53-35.57h-4.95l20.54 35.57-20.54 35.57h4.95zm60.46-73.42l-21.85 37.85 21.85 37.85H581.1l-21.9-37.85 21.9-37.85h10.16zm-24.49 37.85l20.54-35.57h-5l-20.48 35.57 20.53 35.57h5l-20.59-35.57zM353.24 120.69L347 131.5v-21.64l6.24 10.83zm-4 2.3l1.33-2.3-1.33-2.31v4.61zm11.72-15.68l-5.1 8.85-8.86-15.35V83.1l13.96 24.21zm-4.53 3.29l1.9-3.29-9-15.68v8.57l6.58 11.4.52-1zm12.25-16.66l-5.1 8.85L347 74.1V56.38l21.68 37.56zm-5.1 4.28l2.52-4.28-16.77-29.05v8.57l14.25 24.76zm34.68-55.5l-5.11 8.84h-43.7L347 47.32V29.64l7.55 13.08h43.71zm-6.42 6.56l2.47-4.28h-41.08l-3.95-6.85v8.56l1.48 2.57h41.08zm38.61 71.41l-8.35 14.51h-10.24l13.48-23.36 5.11 8.85zm-9.7 12.23l7.06-12.23-2.47-4.29-9.53 16.52h4.94zm2-25.61l-16.12 27.89h-10.22l21.21-36.73 5.13 8.84zm-17.44 25.61l14.79-25.61-2.47-4.28-17.26 29.89h4.94zM360.96-53.15l-5.1 8.85L347-59.65v-17.69l13.96 24.19zm-4.53 3.25l1.9-3.29-9-15.67v8.56l6.53 11.4.57-1zm49.55 79.21l-5.11 8.84h-43.7L347 20.58V2.89l15.27 26.46 43.71-.04zm-6.42 6.56l2.47-4.28h-41.07L349.28 11.4v8.57l9.2 15.94 41.08-.04zM368.68-66.52l-5.1 8.85L347-86.39v-17.69l21.68 37.56zm-5.1 4.29l2.52-4.29-16.77-29V-87l14.25 24.77zm-10.34 22.46L347-28.9v-21.69l6.24 10.82zm-4 2.3l1.33-2.3-1.33-2.31v4.61zm64.46 53.45l-5.11 8.84h-43.7L347-6.18v-17.67l23 39.83h43.7zm-6.42 6.56l2.47-4.28h-41.08l-19.39-33.6v8.57l16.92 29.31h41.08zm628.46 2.28h-43.71l-21.85 37.85-5.08-8.84 21.86-37.85h43.7l5.08 8.84zM970.18 58.1l20.54-35.57h41.07l-2.47-4.28h-41.08l-20.53 35.58 2.47 4.27zm97.75-31l-5.11 8.85-21.85-37.85h-43.71l5.11-8.85h43.73l21.83 37.85zm-5.11 4.29l2.47-4.29-20.53-35.59h-41.08l-2.47 4.29h41.07l20.54 35.59zm28.28-17.68l-21.86 37.85h-10.22l21.85-37.85-21.85-37.85h10.21l21.87 37.85zm-23.17 35.57l20.53-35.57-20.54-35.61h-4.95l20.54 35.57-20.54 35.57 4.96.04zm7.73-35.57l-5.11 8.85-21.86-37.85h-43.71l5.12-8.85h43.7l21.86 37.85zm-5.11 4.28l2.47-4.28-20.54-35.61h-41.08l-2.47 4.28H1050l20.55 35.61zm50.12-82.24l-5.11 8.84h-43.7l-21.87-37.85 5.11-8.84 21.85 37.85h43.72zm-6.42 6.56l2.47-4.28h-41.08l-20.54-35.57-2.47 4.28 20.54 35.57h41.08zm-7.71 71.4l-21.86 37.85h-10.22l21.86-37.85-21.86-37.85h10.21l21.87 37.85zm-23.17 35.57l20.53-35.57-20.54-35.61h-4.95l20.54 35.57-20.54 35.57 4.96.04zm38.61-35.57l-21.88 37.85h-10.2l21.86-37.85-21.86-37.85h10.2l21.88 37.85zm-23.18 35.57l20.53-35.57-20.53-35.61h-4.95l20.54 35.57-20.54 35.57 4.95.04zm30.89-22.18l-21.86 37.86h-43.73l-5.08-8.86h43.71l21.85-37.85 5.11 8.85zm-23.17 35.57l20.58-35.57-2.47-4.28-20.53 35.55h-41.13l2.47 4.28 41.08.02zm-55.34-11.09h-43.71l-21.85 37.83-5.11-8.84 21.86-37.85h43.73l5.08 8.86zm-65.56 33.27l20.54-35.57h41.07l-2.47-4.28h-41.08l-20.53 35.57 2.47 4.28zm151.79-44.39l-21.86 37.85h-43.7l-5.11-8.85h43.71l21.85-37.85 5.11 8.85zm-23.17 35.57l20.53-35.57-2.47-4.29-20.53 35.57h-41.08l2.47 4.29h41.08zm-70.78-37.84h-43.71L977.9 76.04l-5.11-8.84 21.86-37.85h43.7l5.11 8.84zM977.9 71.48l20.54-35.57h41.07l-2.47-4.28h-41.08L975.43 67.2l2.47 4.28zm-10.33 22.46l-21.86 37.85H935.5l21.85-37.85L935.5 56.1h10.21l21.86 37.84zm-23.17 35.57l20.53-35.57-20.53-35.57h-5l20.54 35.57-20.49 35.57h4.95zm168.54-19.93l-5.11 8.84h-43.73l-21.86-37.85 5.11-8.84 21.85 37.85h43.74zm-6.42 6.52l2.47-4.28h-41.07l-20.54-35.57-2.47 4.28 20.54 35.57h41.07zm38.58-62.27l-21.86 37.85h-43.7l-5.11-8.85h43.71l21.85-37.85 5.11 8.85zm-23.14 35.57l20.53-35.57-2.47-4.28-20.54 35.55h-41.07l2.47 4.29 41.08.01zm68.14-118.07h-43.67l-21.85 37.85-5.11-8.84 21.86-37.85h43.7l5.07 8.84zm-65.52 33.29l20.52-35.52h41.07l-2.47-4.28h-41.05L1122.1.34l2.48 4.28zm65.52 46.94h-10.17l-21.83-37.85 21.85-37.85h10.15l-21.81 37.85 21.81 37.85zm-12.51-58.6l8.6-14.86h-4.94l-20.54 35.61 20.54 35.57h4.94l-20.54-35.57 11.94-20.75zM1051.18 56.1l-21.85 37.85 21.85 37.85h-10.21l-21.87-37.86 21.87-37.84h10.21zm-24.49 37.84l20.54-35.57h-4.95l-20.53 35.57 20.53 35.57h4.95l-20.54-35.57zm-74.57 0l-21.85 37.85H920.1l21.85-37.85L920.1 56.1h10.17l21.85 37.84zm-23.16 35.57l20.53-35.57-20.53-35.57h-4.95l20.54 35.57-20.54 35.57h4.95zm54.05-35.57l-21.86 37.85h-10.21l21.85-37.85-21.85-37.84h10.21l21.86 37.84zm-23.18 35.57l20.54-35.57-20.54-35.57h-4.94l20.54 35.57-20.54 35.57h4.94zm60.47-73.41l-21.85 37.84 21.85 37.85h-10.2l-21.87-37.85 21.87-37.84h10.2zm-24.49 37.84l20.54-35.57h-5l-20.48 35.57 20.53 35.57h5l-20.59-35.57zm39.93 37.85h-10.21l-21.86-37.85 21.86-37.84h10.21l-21.85 37.84 21.85 37.85zm-24.49-37.85l20.54-35.57h-5l-20.48 35.57 20.53 35.57h5l-20.59-35.57zm49-53.48l-5.15 8.84-21.85-37.85h-43.71l5.11-8.84h43.7l21.9 37.85zm-5.15 4.28l2.47-4.28-20.53-35.57h-41.08l-2.47 4.28h41.07l20.54 35.57zm-19.36-180.38h-43.71l-21.85 37.85-5.08-8.84 21.83-37.85h43.7l5.11 8.84zm-65.56 33.29l20.54-35.55h41.07l-2.47-4.28h-41.08l-20.53 35.55 2.47 4.28zm204.52 78.21l-21.85 37.85 21.85 37.85h-10.21l-21.86-37.85 21.86-37.85h10.21zm-8.89 73.42h4.94l-20.54-35.57 20.54-35.61h-4.94l-20.54 35.61 20.54 35.57zM1137.41-120l-21.86 37.85h-43.7l-5.11-8.85h43.71l21.85-37.85 5.11 8.85zm-23.17 35.57l20.53-35.57-2.47-4.28-20.53 35.56h-41.08l2.47 4.29h41.08zM998.45-39.77L976.59-1.9h-43.7l-5.11-8.85h43.71l21.85-37.87 5.11 8.85zM975.28-4.2l20.53-35.57-2.47-4.29L972.8-8.49h-41.07l2.47 4.29h41.08zm75.9-104.7h-43.71l-21.85 37.86-5.11-8.86 21.86-37.84h43.73l5.08 8.84zm-65.56 33.29l20.54-35.57h41.07l-2.47-4.28h-41.08L983.15-79.9l2.47 4.29zm57.84-46.66h-43.71L977.9-84.42l-5.11-8.84 21.86-37.85h43.7l5.11 8.84zM977.9-88.98l20.54-35.57h41.07l-2.47-4.28h-41.08l-20.53 35.57 2.47 4.28zm196.8 33.57h-43.71l-21.89 37.85-5.1-8.84 21.85-37.85h43.7l5.15 8.84zm-65.6 33.29l20.54-35.57h41.07l-2.47-4.28h-41.04l-20.53 35.57 2.43 4.28zM981.7-144.48l-5.11 8.84h-43.7l-17.89-31v-17.67l23 39.83h43.7zm-6.42 6.58l2.47-4.28h-41.08l-19.39-33.62v8.57l16.92 29.33h41.08zm207.14 95.86h-43.71l-21.85 37.85-5.1-8.84 21.85-37.87h43.7l5.11 8.86zm-65.56 33.29l20.54-35.57h41.07L1176-48.6h-41.07l-20.54 35.57 2.47 4.28zm3.8 105l-5.11 8.85h-43.7l-21.86-37.9 5.11-8.85 21.85 37.86 43.71.04zm-6.42 6.56l2.47-4.28h-41.07l-20.54-35.61-2.47 4.28 20.54 35.57 41.07.04zM1006.17-26.4l-21.86 37.85h-43.7l-5.11-8.84h43.71l21.89-37.86 5.07 8.85zM983 9.17l20.53-35.57-2.43-4.28-20.58 35.57h-41.07l2.47 4.28H983zm146.69-142.54l-21.86 37.85h-43.73l-5.11-8.85h43.71l21.85-37.85 5.14 8.85zm-23.17 35.57l20.58-35.57-2.47-4.29-20.53 35.57h-41.13l2.48 4.29h41.07zM967.57-66.52l-21.86 37.85H935.5l21.85-37.85-21.85-37.85h10.21l21.86 37.85zM944.4-30.9l20.53-35.62-20.53-35.57h-5l20.59 35.57-20.54 35.62h4.95zm7.7-35.62l-21.83 37.85H920.1l21.81-37.85-21.81-37.85h10.17l21.83 37.85zM928.96-30.9l20.53-35.62-20.53-35.57h-4.95l20.54 35.57-20.54 35.62h4.95zm183.98-20l-5.11 8.84h-43.73l-21.83-37.84 5.11-8.84 21.85 37.84h43.71zm-6.42 6.56l2.47-4.28h-41.07l-20.54-35.55-2.47 4.27 20.54 35.57 41.07-.01zm52.74 20.18l-21.85 37.87 21.85 37.85h-10.16l-21.9-37.85 21.9-37.85 10.16-.02zm-8.9 73.42h5l-20.59-35.55 20.54-35.61h-5l-20.48 35.61 20.53 35.55zM983.01-66.52l-21.86 37.85h-10.21l21.85-37.85-21.85-37.85h10.21l21.86 37.85zM959.83-30.9l20.54-35.62-20.54-35.57h-4.94l20.54 35.57-20.54 35.62h4.94zm30.9-22.19l-21.86 37.8h-43.7l-5.07-8.85h43.67l21.85-37.85 5.11 8.9zm-23.17 35.51l20.54-35.56-2.47-4.29L965.1-21.9h-41.09l2.47 4.28 41.08.04zm52.74-86.79l-21.85 37.85 21.85 37.85h-10.2l-21.87-37.85 21.87-37.85h10.2zm-24.49 37.85l20.54-35.57h-5l-20.48 35.57 20.53 35.62h5l-20.59-35.62zm55.37-37.85l-21.85 37.85 21.85 37.85h-10.21l-21.87-37.85 21.86-37.85h10.22zM1039.1-87.9l8.18-14.17h-4.95l-20.58 35.55 20.53 35.62h4.95l-20.54-35.62 12.41-21.38zm66.17 50.41l-5.17 8.82h-43.7l-21.84-37.85 5.1-8.84 21.85 37.85 43.76.02zm-6.47 6.59l2.47-4.28h-41.07l-20.54-35.62-2.47 4.28 20.53 35.62h41.08zm-63.06 2.28h-10.21l-21.86-37.9 21.86-37.85h10.21l-21.85 37.85 21.85 37.9zm-24.49-37.9l20.54-35.57h-5l-20.48 35.57 20.53 35.62h5l-20.59-35.62zm94 189.47l-5.15 8.84h-43.7l-21.85-37.85 5.1-8.84 21.85 37.85h43.75zm-6.42 6.56l2.47-4.28h-41.1l-20.54-35.57-2.47 4.28 20.53 35.57h41.11zm96.4-69.18v17.69l-7.55-13.08h-43.74l5.16-8.84h43.71l2.42 4.23zm-2.28 9.18v-8.57l-1.48-2.57h-41.11l-2.47 4.28h41.08l3.98 6.86zm2.28-35.92v17.69l-21.71-37.57 5.1-8.84 16.61 28.72zm-2.28 9.17V34.2l-14.3-24.77-2.47 4.28 16.77 29.05zm2.28-35.92v17.69l-14-24.19 5.1-8.84 8.9 15.34zm-2.28 9.18V7.46l-6.61-11.36-2.47 4.28 9.08 15.64zm2.28-62.66v17.74l-2.23-3.91-20.79-35.97h-43.71l5.11-8.84h43.7l17.92 30.98zm-2.28 9.17v-8.56L1176-75.34h-41.07l-2.48 4.28h41.07l19.43 33.59zm2.28 13.62v21.64l-6.24-10.82 6.24-10.82zm-2.28 13.13v-4.62l-1.33 2.31 1.33 2.31zm2.28-62.67v17.69l-15.3-26.45h-43.71l5.11-8.85h43.7l10.2 17.61zm-2.28 9.18v-8.56l-9.2-15.95h-41.1l-2.48 4.29h41.08l11.7 20.22zm-10.5 182.63h-43.74l-9.68 16.78h-10.21l14.79-25.62h43.7l5.14 8.84zm-54.71 14.5l9.66-16.82h41.07l-2.47-4.28h-41.07l-12.16 21.06 4.97.04zm47-27.87h-43.75l-17.4 30.15h-10.21l22.51-39h43.7l5.15 8.85zm-62.43 27.87l17.41-30.15h41.07l-2.47-4.28h-41.12l-19.87 34.43h4.98zm82.89-45.82v17.69l-15.27-26.45h-43.71l5.11-8.85h43.7l10.17 17.61zm-2.28 9.18v-8.57l-9.2-15.94h-41.07l-2.48 4.29h41.08l11.67 20.22zm-2.82 35.51h-43.67l-2 3.41h-10.17l7.07-12.25h43.7l5.07 8.84zm-47 1.13l2-3.41h41.07l-2.47-4.28h-41.05l-4.44 7.69h4.89zm52.05-19.1v17.73l-2.23-3.92-20.76-35.95h-43.66l5.11-8.85h43.7l17.84 30.99zm-2.28 9.17v-8.56L1176 85.1h-41.07l-2.48 4.29h41.07l19.35 33.6zm2.33-249.89v17.69l-21.68-37.54 5.1-8.84 16.58 28.69zm-2.28 9.17v-8.56l-14.3-24.77-2.47 4.28 16.77 29.05zM1006.82-188l-22.51 39h-43.7l-5.11-8.85h43.71l17.4-30.15h10.21zM983-151.29l19.87-34.43h-4.94l-17.41 30.15h-41.07l2.47 4.28H983zM1114.9-188l-5.76 10-5.76-10h11.52zm-5.8 5.42l1.81-3.14h-3.62l1.81 3.14zm21.21-5.42l-13.45 23.35-5.1-8.84 8.34-14.51h10.21zm-13.45 18.79l9.54-16.51h-5l-7.06 12.23 2.52 4.28zM975.94-188l-7.07 12.25h-43.7l-5.07-8.85h43.67l2-3.4h10.17zm-8.38 10l4.43-7.69h-4.89l-2 3.4h-41.09l2.47 4.29h41.08zm23.82-10l-14.79 25.62h-43.7l-5.11-8.84h43.71l9.68-16.78h10.21zm-16.1 23.34l12.15-21.06h-4.94l-9.69 16.82h-41.07l2.47 4.24h41.08zM1145.79-188l-21.21 36.73-5.11-8.85 16.1-27.88h10.22zm-21.21 32.16l17.26-29.88h-5l-14.74 25.6 2.48 4.28zM1006.82 135.2H995.3l5.76-10 5.76 10zm-7.57-2.28h3.62l-1.77-3.15-1.85 3.15zm196-286.53v17.71l-14-24.19 5.1-8.84 8.9 15.32zm-2.28 9.17V-153l-6.58-11.4-2.47 4.28 9.05 15.68zm2.28-39.87v21.64l-6.24-10.82 6.24-10.82zm-2.28 13.13v-4.61l-1.33 2.3 1.33 2.31zm2.28 71.05v17.69l-7.6-13.08h-43.71l5.16-8.85h43.71l2.44 4.24zm-2.33 9.23v-8.57l-1.48-2.57h-41.08l-2.47 4.29h41.08l3.95 6.85zm-47.82-15.73l-21.83 37.85h-43.7l-5.11-8.84h43.71l21.85-37.85 5.08 8.84zm-23.14 35.57l20.53-35.57-2.47-4.27-20.54 35.56h-41.07l2.47 4.28h41.08zm-54-62.31l-5.11 8.84-21.88-37.85h-43.71l5.11-8.84h43.73l21.86 37.85zm-5.11 4.28l2.47-4.28-20.56-35.53h-41.08l-2.47 4.28h41.07l20.57 35.53zm12.83-17.66l-5.14 8.85-21.85-37.85h-43.71l5.12-8.85h43.7l21.88 37.85zm-5.11 4.29l2.47-4.29-20.56-35.57h-41.08l-2.47 4.29H1050l20.57 35.57zm20.53-4.29l-21.87 37.85h-10.21l21.85-37.86-21.85-37.84h10.21l21.87 37.85zm-23.18 35.57l20.53-35.57-20.53-35.57h-4.95l20.54 35.57-20.54 35.57h4.95zm-93.94-19.93l-5.11 8.84h-43.7L915-139.9v-17.67l15.27 26.46h43.71zm-6.42 6.56l2.47-4.28h-41.07l-11.68-20.22v8.56l9.2 15.94h41.08zm92.65 4.55l-5.11 8.84-21.85-37.85h-43.71l5.11-8.84h43.7l21.86 37.85zm-5.11 4.28l2.47-4.28-20.53-35.57h-41.08l-2.47 4.28h41.07l20.54 35.57zm51.43-31l-21.86 37.82h-10.21l21.86-37.86-21.86-37.84h10.21l21.86 37.88zm-23.17 35.54l20.53-35.57-20.53-35.57h-4.95l20.54 35.57-20.54 35.57h4.95zm-117.1-6.56l-5.11 8.84h-43.7l-2.45-4.24v-17.68l7.55 13.08h43.71zm-6.42 6.56l2.47-4.28h-41.08l-3.95-6.85v8.56l1.48 2.57h41.08zm214.86-73.42l-21.85 37.85 21.85 37.85h-10.21l-21.86-37.85 21.86-37.85h10.21zm-24.49 37.85l20.54-35.57h-4.94l-20.54 35.57 20.54 35.57h4.94l-20.54-35.57zm39.89 37.85h-10.17l-21.83-37.85 21.83-37.85h10.17l-21.81 37.85 21.81 37.85zm-12.47-58.6l8.56-14.82h-4.94l-20.54 35.57 20.54 35.57h4.94l-20.54-35.57 11.98-20.75zm-55.66 20.75l-21.87 37.85h-10.2l21.86-37.86-21.86-37.84h10.2l21.87 37.85zm-23.17 35.57l20.53-35.57-20.53-35.57h-4.95l20.54 35.57-20.54 35.57h4.95zm60.46-73.42l-21.85 37.85 21.85 37.85h-10.16l-21.9-37.85 21.9-37.85h10.16zm-24.49 37.85l20.54-35.57h-5l-20.48 35.57 20.53 35.57h5l-20.59-35.57zM921.24 120.69L915 131.5v-21.64l6.24 10.83zm-4 2.3l1.33-2.3-1.33-2.31v4.61zm11.72-15.68l-5.1 8.85-8.86-15.35V83.1l13.96 24.21zm-4.53 3.29l1.9-3.29-9-15.68v8.57l6.58 11.4.52-1zm12.25-16.66l-5.1 8.85L915 74.1V56.38l21.68 37.56zm-5.1 4.28l2.52-4.28-16.77-29.05v8.57l14.25 24.76zm34.68-55.5l-5.11 8.84h-43.7L915 47.32V29.64l7.55 13.08h43.71zm-6.42 6.56l2.47-4.28h-41.08l-3.95-6.85v8.56l1.48 2.57h41.08zm38.61 71.41l-8.35 14.51h-10.24l13.48-23.36 5.11 8.85zm-9.7 12.23l7.06-12.23-2.47-4.29-9.53 16.52h4.94zm2-25.61l-16.12 27.89h-10.22l21.21-36.73 5.13 8.84zm-17.44 25.61l14.79-25.61-2.47-4.28-17.26 29.89h4.94zM928.96-53.15l-5.1 8.85L915-59.65v-17.69l13.96 24.19zm-4.53 3.25l1.9-3.29-9-15.67v8.56l6.53 11.4.57-1zm49.55 79.21l-5.11 8.84h-43.7L915 20.58V2.89l15.27 26.46 43.71-.04zm-6.42 6.56l2.47-4.28h-41.07L917.28 11.4v8.57l9.2 15.94 41.08-.04zM936.68-66.52l-5.1 8.85L915-86.39v-17.69l21.68 37.56zm-5.1 4.29l2.52-4.29-16.77-29V-87l14.25 24.77zm-10.34 22.46L915-28.9v-21.69l6.24 10.82zm-4 2.3l1.33-2.3-1.33-2.31v4.61zm64.46 53.45l-5.11 8.84h-43.7L915-6.18v-17.67l23 39.83h43.7zm-6.42 6.56l2.47-4.28h-41.08l-19.39-33.6v8.57l16.92 29.31h41.08zm344.46 2.28h-43.71l-21.85 37.85-5.08-8.84 21.86-37.85h43.7l5.08 8.84zm-65.56 33.28l20.54-35.57h41.07l-2.47-4.28h-41.08l-20.53 35.58 2.47 4.27zm97.75-31l-5.11 8.85-21.85-37.85h-43.71l5.11-8.85h43.73l21.83 37.85zm-5.11 4.29l2.47-4.29-20.53-35.59h-41.08l-2.47 4.29h41.07l20.54 35.59zm28.28-17.68l-21.86 37.85h-10.22l21.85-37.85-21.85-37.85h10.21l21.87 37.85zm-23.17 35.57l20.53-35.57-20.54-35.61h-4.95l20.54 35.57-20.54 35.57 4.96.04zm7.73-35.57l-5.11 8.85-21.86-37.85h-43.71l5.12-8.85h43.7l21.86 37.85zm-5.11 4.28l2.47-4.28-20.54-35.61h-41.08l-2.47 4.28H1334l20.55 35.61zm50.12-82.24l-5.11 8.84h-43.7l-21.87-37.85 5.11-8.84 21.85 37.85h43.72zm-6.42 6.56l2.47-4.28h-41.08l-20.54-35.57-2.47 4.28 20.54 35.57h41.08zm-7.71 71.4l-21.86 37.85h-10.22l21.86-37.85-21.86-37.85h10.21l21.87 37.85zm-23.17 35.57l20.53-35.57-20.54-35.61h-4.95l20.54 35.57-20.54 35.57 4.96.04zm38.61-35.57l-21.88 37.85h-10.2l21.86-37.85-21.86-37.85h10.2l21.88 37.85zm-23.18 35.57l20.53-35.57-20.53-35.61h-4.95l20.54 35.57-20.54 35.57 4.95.04zm30.89-22.18l-21.86 37.86h-43.73l-5.08-8.86h43.71l21.85-37.85 5.11 8.85zm-23.17 35.57l20.58-35.57-2.47-4.28-20.53 35.55h-41.13l2.47 4.28 41.08.02zm-55.34-11.09h-43.71l-21.85 37.83-5.11-8.84 21.86-37.85h43.73l5.08 8.86zm-65.56 33.27l20.54-35.57h41.07l-2.47-4.28h-41.08l-20.53 35.57 2.47 4.28zm151.79-44.39l-21.86 37.85h-43.7l-5.11-8.85h43.71l21.85-37.85 5.11 8.85zm-23.17 35.57l20.53-35.57-2.47-4.29-20.53 35.57h-41.08l2.47 4.29h41.08zm-70.78-37.84h-43.71l-21.85 37.85-5.11-8.84 21.86-37.85h43.7l5.11 8.84zm-65.56 33.29l20.54-35.57h41.07l-2.47-4.28h-41.08l-20.53 35.57 2.47 4.28zm-10.33 22.46l-21.86 37.85h-10.21l21.85-37.85-21.85-37.84h10.21l21.86 37.84zm-23.17 35.57l20.53-35.57-20.53-35.57h-5l20.54 35.57-20.49 35.57h4.95zm168.54-19.93l-5.11 8.84h-43.73l-21.86-37.85 5.11-8.84 21.85 37.85h43.74zm-6.42 6.52l2.47-4.28h-41.07l-20.54-35.57-2.47 4.28 20.54 35.57h41.07zm38.58-62.27l-21.86 37.85h-43.7l-5.11-8.85h43.71l21.85-37.85 5.11 8.85zm-23.14 35.57l20.53-35.57-2.47-4.28-20.54 35.55h-41.07l2.47 4.29 41.08.01zm68.14-118.07h-43.67l-21.85 37.85-5.11-8.84 21.86-37.85h43.7l5.07 8.84zm-65.52 33.29l20.52-35.52h41.07l-2.47-4.28h-41.05L1406.1.34l2.48 4.28zm65.52 46.94h-10.17l-21.83-37.85 21.85-37.85h10.15l-21.81 37.85 21.81 37.85zm-12.51-58.6l8.6-14.86h-4.94l-20.54 35.61 20.54 35.57h4.94l-20.54-35.57 11.94-20.75zM1335.18 56.1l-21.85 37.85 21.85 37.85h-10.21l-21.87-37.86 21.87-37.84h10.21zm-24.49 37.84l20.54-35.57h-4.95l-20.53 35.57 20.53 35.57h4.95l-20.54-35.57zm-74.57 0l-21.85 37.85h-10.17l21.85-37.85-21.85-37.84h10.17l21.85 37.84zm-23.16 35.57l20.53-35.57-20.53-35.57h-4.95l20.54 35.57-20.54 35.57h4.95zm54.05-35.57l-21.86 37.85h-10.21l21.85-37.85-21.85-37.84h10.21l21.86 37.84zm-23.18 35.57l20.54-35.57-20.54-35.57h-4.94l20.54 35.57-20.54 35.57h4.94zm60.47-73.41l-21.85 37.84 21.85 37.85h-10.2l-21.87-37.85 21.87-37.84h10.2zm-24.49 37.84l20.54-35.57h-5l-20.48 35.57 20.53 35.57h5l-20.59-35.57zm39.93 37.85h-10.21l-21.86-37.85 21.86-37.84h10.21l-21.85 37.84 21.85 37.85zm-24.49-37.85l20.54-35.57h-5l-20.48 35.57 20.53 35.57h5l-20.59-35.57zm49-53.48l-5.15 8.84-21.85-37.85h-43.71l5.11-8.84h43.7l21.9 37.85zm-5.15 4.28l2.47-4.28-20.53-35.57h-41.08l-2.47 4.28h41.07l20.54 35.57zm-19.36-180.38h-43.71l-21.85 37.85-5.08-8.84 21.83-37.85h43.7l5.11 8.84zm-65.56 33.29l20.54-35.55h41.07l-2.47-4.28h-41.08l-20.53 35.55 2.47 4.28zm204.52 78.21l-21.85 37.85 21.85 37.85h-10.21l-21.86-37.85 21.86-37.85h10.21zm-8.89 73.42h4.94l-20.54-35.57 20.54-35.61h-4.94l-20.54 35.61 20.54 35.57zM1421.41-120l-21.86 37.85h-43.7l-5.11-8.85h43.71l21.85-37.85 5.11 8.85zm-23.17 35.57l20.53-35.57-2.47-4.28-20.53 35.56h-41.08l2.47 4.29h41.08zm-115.79 44.66L1260.59-1.9h-43.7l-5.11-8.85h43.71l21.85-37.87 5.11 8.85zM1259.28-4.2l20.53-35.57-2.47-4.29-20.54 35.57h-41.07l2.47 4.29h41.08zm75.9-104.7h-43.71l-21.85 37.86-5.11-8.86 21.86-37.84h43.73l5.08 8.84zm-65.56 33.29l20.54-35.57h41.07l-2.47-4.28h-41.08l-20.53 35.56 2.47 4.29zm57.84-46.66h-43.71l-21.85 37.85-5.11-8.84 21.86-37.85h43.7l5.11 8.84zm-65.56 33.29l20.54-35.57h41.07l-2.47-4.28h-41.08l-20.53 35.57 2.47 4.28zm196.8 33.57h-43.71l-21.89 37.85-5.1-8.84 21.85-37.85h43.7l5.15 8.84zm-65.6 33.29l20.54-35.57h41.07l-2.47-4.28h-41.04l-20.53 35.57 2.43 4.28zm-127.4-122.36l-5.11 8.84h-43.7l-17.89-31v-17.67l23 39.83h43.7zm-6.42 6.58l2.47-4.28h-41.08l-19.39-33.62v8.57l16.92 29.33h41.08zm207.14 95.86h-43.71l-21.85 37.85-5.1-8.84 21.85-37.87h43.7l5.11 8.86zm-65.56 33.29l20.54-35.57h41.07L1460-48.6h-41.07l-20.54 35.57 2.47 4.28zm3.8 105l-5.11 8.85h-43.7l-21.86-37.9 5.11-8.85 21.85 37.86 43.71.04zm-6.42 6.56l2.47-4.28h-41.07l-20.54-35.61-2.47 4.28 20.54 35.57 41.07.04zM1290.17-26.4l-21.86 37.85h-43.7l-5.11-8.84h43.71l21.89-37.86 5.07 8.85zM1267 9.17l20.53-35.57-2.43-4.28-20.58 35.57h-41.07l2.47 4.28H1267zm146.69-142.54l-21.86 37.85h-43.73l-5.11-8.85h43.71l21.85-37.85 5.14 8.85zm-23.17 35.57l20.58-35.57-2.47-4.29-20.53 35.57h-41.13l2.48 4.29h41.07zm-138.95 31.28l-21.86 37.85h-10.21l21.85-37.85-21.85-37.85h10.21l21.86 37.85zM1228.4-30.9l20.53-35.62-20.53-35.57h-5l20.59 35.57-20.54 35.62h4.95zm7.7-35.62l-21.83 37.85h-10.17l21.81-37.85-21.81-37.85h10.17l21.83 37.85zm-23.14 35.62l20.53-35.62-20.53-35.57h-4.95l20.54 35.57-20.54 35.62h4.95zm183.98-20l-5.11 8.84h-43.73l-21.83-37.84 5.11-8.84 21.85 37.84h43.71zm-6.42 6.56l2.47-4.28h-41.07l-20.54-35.55-2.47 4.27 20.54 35.57 41.07-.01zm52.74 20.18l-21.85 37.87 21.85 37.85h-10.16l-21.9-37.85 21.9-37.85 10.16-.02zm-8.9 73.42h5l-20.59-35.55 20.54-35.61h-5l-20.48 35.61 20.53 35.55zM1267.01-66.52l-21.86 37.85h-10.21l21.85-37.85-21.85-37.85h10.21l21.86 37.85zm-23.18 35.62l20.54-35.62-20.54-35.57h-4.94l20.54 35.57-20.54 35.62h4.94zm30.9-22.19l-21.86 37.8h-43.7l-5.07-8.85h43.67l21.85-37.85 5.11 8.9zm-23.17 35.51l20.54-35.56-2.47-4.29-20.53 35.53h-41.09l2.47 4.28 41.08.04zm52.74-86.79l-21.85 37.85 21.85 37.85h-10.2l-21.87-37.85 21.87-37.85h10.2zm-24.49 37.85l20.54-35.57h-5l-20.48 35.57 20.53 35.62h5l-20.59-35.62zm55.37-37.85l-21.85 37.85 21.85 37.85h-10.21l-21.87-37.85 21.86-37.85h10.22zM1323.1-87.9l8.18-14.17h-4.95l-20.58 35.55 20.53 35.62h4.95l-20.54-35.62 12.41-21.38zm66.17 50.41l-5.17 8.82h-43.7l-21.84-37.85 5.1-8.84 21.85 37.85 43.76.02zm-6.47 6.59l2.47-4.28h-41.07l-20.54-35.62-2.47 4.28 20.53 35.62h41.08zm-63.06 2.28h-10.21l-21.86-37.9 21.86-37.85h10.21l-21.85 37.85 21.85 37.9zm-24.49-37.9l20.54-35.57h-5l-20.48 35.57 20.53 35.62h5l-20.59-35.62zm94 189.47l-5.15 8.84h-43.7l-21.85-37.85 5.1-8.84 21.85 37.85h43.75zm-6.42 6.56l2.47-4.28h-41.1l-20.54-35.57-2.47 4.28 20.53 35.57h41.11zm96.4-69.18v17.69l-7.55-13.08h-43.74l5.16-8.84h43.71l2.42 4.23zm-2.28 9.18v-8.57l-1.48-2.57h-41.11l-2.47 4.28h41.08l3.98 6.86zm2.28-35.92v17.69l-21.71-37.57 5.1-8.84 16.61 28.72zm-2.28 9.17V34.2l-14.3-24.77-2.47 4.28 16.77 29.05zm2.28-35.92v17.69l-14-24.19 5.1-8.84 8.9 15.34zm-2.28 9.18V7.46l-6.61-11.36-2.47 4.28 9.08 15.64zm2.28-62.66v17.74l-2.23-3.91-20.79-35.97h-43.71l5.11-8.84h43.7l17.92 30.98zm-2.28 9.17v-8.56L1460-75.34h-41.07l-2.48 4.28h41.07l19.43 33.59zm2.28 13.62v21.64l-6.24-10.82 6.24-10.82zm-2.28 13.13v-4.62l-1.33 2.31 1.33 2.31zm2.28-62.67v17.69l-15.3-26.45h-43.71l5.11-8.85h43.7l10.2 17.61zm-2.28 9.18v-8.56l-9.2-15.95h-41.1l-2.48 4.29h41.08l11.7 20.22zm-10.5 182.63h-43.74l-9.68 16.78h-10.21l14.79-25.62h43.7l5.14 8.84zm-54.71 14.5l9.66-16.82h41.07l-2.47-4.28h-41.07l-12.16 21.06 4.97.04zm47-27.87h-43.75l-17.4 30.15h-10.21l22.51-39h43.7l5.15 8.85zm-62.43 27.87l17.41-30.15h41.07l-2.47-4.28h-41.12l-19.87 34.43h4.98zm82.89-45.82v17.69l-15.27-26.45h-43.71l5.11-8.85h43.7l10.17 17.61zm-2.28 9.18v-8.57l-9.2-15.94h-41.07l-2.48 4.29h41.08l11.67 20.22zm-2.82 35.51h-43.67l-2 3.41h-10.17l7.07-12.25h43.7l5.07 8.84zm-47 1.13l2-3.41h41.07l-2.47-4.28h-41.05l-4.44 7.69h4.89zm52.05-19.1v17.73l-2.23-3.92-20.76-35.95h-43.66l5.11-8.85h43.7l17.84 30.99zm-2.28 9.17v-8.56L1460 85.1h-41.07l-2.48 4.29h41.07l19.35 33.6zm2.33-249.89v17.69l-21.68-37.54 5.1-8.84 16.58 28.69zm-2.28 9.17v-8.56l-14.3-24.77-2.47 4.28 16.77 29.05zM1290.82-188l-22.51 39h-43.7l-5.11-8.85h43.71l17.4-30.15h10.21zM1267-151.29l19.87-34.43h-4.94l-17.41 30.15h-41.07l2.47 4.28H1267zM1398.9-188l-5.76 10-5.76-10h11.52zm-5.8 5.42l1.81-3.14h-3.62l1.81 3.14zm21.21-5.42l-13.45 23.35-5.1-8.84 8.34-14.51h10.21zm-13.45 18.79l9.54-16.51h-5l-7.06 12.23 2.52 4.28zM1259.94-188l-7.07 12.25h-43.7l-5.07-8.85h43.67l2-3.4h10.17zm-8.38 10l4.43-7.69h-4.89l-2 3.4h-41.09l2.47 4.29h41.08zm23.82-10l-14.79 25.62h-43.7l-5.11-8.84h43.71l9.68-16.78h10.21zm-16.1 23.34l12.15-21.06h-4.94l-9.69 16.82h-41.07l2.47 4.24h41.08zM1429.79-188l-21.21 36.73-5.11-8.85 16.1-27.88h10.22zm-21.21 32.16l17.26-29.88h-5l-14.74 25.6 2.48 4.28zM1290.82 135.2h-11.52l5.76-10 5.76 10zm-7.57-2.28h3.62l-1.77-3.15-1.85 3.15zm196-286.53v17.71l-14-24.19 5.1-8.84 8.9 15.32zm-2.28 9.17V-153l-6.58-11.4-2.47 4.28 9.05 15.68zm2.28-39.87v21.64l-6.24-10.82 6.24-10.82zm-2.28 13.13v-4.61l-1.33 2.3 1.33 2.31zm2.28 71.05v17.69l-7.6-13.08h-43.71l5.16-8.85h43.71l2.44 4.24zm-2.33 9.23v-8.57l-1.48-2.57h-41.08l-2.47 4.29h41.08l3.95 6.85zm-47.82-15.73l-21.83 37.85h-43.7l-5.11-8.84h43.71l21.85-37.85 5.08 8.84zm-23.14 35.57l20.53-35.57-2.47-4.27-20.54 35.56h-41.07l2.47 4.28h41.08zm-54-62.31l-5.11 8.84-21.88-37.85h-43.71l5.11-8.84h43.73l21.86 37.85zm-5.11 4.28l2.47-4.28-20.56-35.53h-41.08l-2.47 4.28h41.07l20.57 35.53zm12.83-17.66l-5.14 8.85-21.85-37.85h-43.71l5.12-8.85h43.7l21.88 37.85zm-5.11 4.29l2.47-4.29-20.56-35.57h-41.08l-2.47 4.29H1334l20.57 35.57zm20.53-4.29l-21.87 37.85h-10.21l21.85-37.86-21.85-37.84h10.21l21.87 37.85zm-23.18 35.57l20.53-35.57-20.53-35.57h-4.95l20.54 35.57-20.54 35.57h4.95zm-93.94-19.93l-5.11 8.84h-43.7L1199-139.9v-17.67l15.27 26.46h43.71zm-6.42 6.56l2.47-4.28h-41.07l-11.68-20.22v8.56l9.2 15.94h41.08zm92.65 4.55l-5.11 8.84-21.85-37.85h-43.71l5.11-8.84h43.7l21.86 37.85zm-5.11 4.28l2.47-4.28-20.53-35.57h-41.08l-2.47 4.28h41.07l20.54 35.57zm51.43-31l-21.86 37.82h-10.21l21.86-37.86-21.86-37.84h10.21l21.86 37.88zm-23.17 35.54l20.53-35.57-20.53-35.57h-4.95l20.54 35.57-20.54 35.57h4.95zm-117.1-6.56l-5.11 8.84h-43.7l-2.45-4.24v-17.68l7.55 13.08h43.71zm-6.42 6.56l2.47-4.28h-41.08l-3.95-6.85v8.56l1.48 2.57h41.08zm214.86-73.42l-21.85 37.85 21.85 37.85h-10.21l-21.86-37.85 21.86-37.85h10.21zm-24.49 37.85l20.54-35.57h-4.94l-20.54 35.57 20.54 35.57h4.94l-20.54-35.57zm39.89 37.85h-10.17l-21.83-37.85 21.83-37.85h10.17l-21.81 37.85 21.81 37.85zm-12.47-58.6l8.56-14.82h-4.94l-20.54 35.57 20.54 35.57h4.94l-20.54-35.57 11.98-20.75zm-55.66 20.75l-21.87 37.85h-10.2l21.86-37.86-21.86-37.84h10.2l21.87 37.85zm-23.17 35.57l20.53-35.57-20.53-35.57h-4.95l20.54 35.57-20.54 35.57h4.95zm60.46-73.42l-21.85 37.85 21.85 37.85h-10.16l-21.9-37.85 21.9-37.85h10.16zm-24.49 37.85l20.54-35.57h-5l-20.48 35.57 20.53 35.57h5l-20.59-35.57zm-213.53 267.44L1199 131.5v-21.64l6.24 10.83zm-4 2.3l1.33-2.3-1.33-2.31v4.61zm11.72-15.68l-5.1 8.85-8.86-15.35V83.1l13.96 24.21zm-4.53 3.29l1.9-3.29-9-15.68v8.57l6.58 11.4.52-1zm12.25-16.66l-5.1 8.85L1199 74.1V56.38l21.68 37.56zm-5.1 4.28l2.52-4.28-16.77-29.05v8.57l14.25 24.76zm34.68-55.5l-5.11 8.84h-43.7l-2.45-4.24V29.64l7.55 13.08h43.71zm-6.42 6.56l2.47-4.28h-41.08l-3.95-6.85v8.56l1.48 2.57h41.08zm38.61 71.41l-8.35 14.51h-10.24l13.48-23.36 5.11 8.85zm-9.7 12.23l7.06-12.23-2.47-4.29-9.53 16.52h4.94zm2-25.61l-16.12 27.89h-10.22l21.21-36.73 5.13 8.84zm-17.44 25.61l14.79-25.61-2.47-4.28-17.26 29.89h4.94zm-44.35-186.07l-5.1 8.85-8.86-15.35v-17.69l13.96 24.19zm-4.53 3.25l1.9-3.29-9-15.67v8.56l6.53 11.4.57-1zm49.55 79.21l-5.11 8.84h-43.7L1199 20.58V2.89l15.27 26.46 43.71-.04zm-6.42 6.56l2.47-4.28h-41.07l-11.68-20.19v8.57l9.2 15.94 41.08-.04zm-30.88-102.39l-5.1 8.85L1199-86.39v-17.69l21.68 37.56zm-5.1 4.29l2.52-4.29-16.77-29V-87l14.25 24.77zm-10.34 22.46L1199-28.9v-21.69l6.24 10.82zm-4 2.3l1.33-2.3-1.33-2.31v4.61zm64.46 53.45l-5.11 8.84h-43.7l-17.89-31v-17.67l23 39.83h43.7zm-6.42 6.56l2.47-4.28h-41.08l-19.39-33.6v8.57l16.92 29.31h41.08z"/></g><defs><clipPath id="clip0"><rect width="1212" height="51" rx="5" fill="#fff"/></clipPath></defs></svg>