<svg width="1212" height="189" fill="none" xmlns="http://www.w3.org/2000/svg"><g clip-path="url(#clip0)" fill="#D1CF9C" fill-opacity=".26"><path d="M183.74 162.82h-43.71l-21.85 37.85-5.08-8.84 21.86-37.85h43.7l5.08 8.84zm-65.56 33.28l20.54-35.57h41.07l-2.47-4.28h-41.08l-20.53 35.58 2.47 4.27zm97.75-31l-5.11 8.85-21.85-37.85h-43.71l5.11-8.85h43.73l21.83 37.85zm-5.11 4.29l2.47-4.29-20.53-35.59h-41.08l-2.47 4.29h41.07l20.54 35.59zm28.28-17.68l-21.86 37.85h-10.22l21.85-37.85-21.85-37.85h10.21l21.87 37.85zm-23.17 35.57l20.53-35.57-20.54-35.61h-4.95l20.54 35.57-20.54 35.57 4.96.04zm7.73-35.57l-5.11 8.85-21.86-37.85h-43.71l5.12-8.85h43.7l21.86 37.85zm-5.11 4.28l2.47-4.28-20.54-35.61H159.4l-2.47 4.28H198l20.55 35.61zm50.12-82.24l-5.11 8.84h-43.7l-21.87-37.85 5.11-8.84 21.85 37.85h43.72zm-6.42 6.56l2.47-4.28h-41.08L203.1 40.46l-2.47 4.28 20.54 35.57h41.08zm-7.71 71.4l-21.86 37.85h-10.22l21.86-37.85-21.86-37.85h10.21l21.87 37.85zm-23.17 35.57l20.53-35.57-20.54-35.61h-4.95l20.54 35.57-20.54 35.57 4.96.04zm38.61-35.57l-21.88 37.85h-10.2l21.86-37.85-21.86-37.85h10.2l21.88 37.85zm-23.18 35.57l20.53-35.57-20.53-35.61h-4.95l20.54 35.57-20.54 35.57 4.95.04zm30.89-22.18l-21.86 37.86H212.1l-5.08-8.86h43.71l21.85-37.85 5.11 8.85zm-23.17 35.57l20.58-35.57-2.47-4.28-20.53 35.55h-41.13l2.47 4.28 41.08.02zm-55.34-11.09h-43.71l-21.85 37.83-5.11-8.84 21.86-37.85h43.73l5.08 8.86zm-65.56 33.27l20.54-35.57h41.07l-2.47-4.28h-41.08l-20.53 35.57 2.47 4.28zm151.79-44.39l-21.86 37.85h-43.7l-5.11-8.85h43.71l21.85-37.85 5.11 8.85zm-23.17 35.57l20.53-35.57-2.47-4.29-20.53 35.57h-41.08l2.47 4.29h41.08zm-70.78-37.84h-43.71l-21.85 37.85-5.11-8.84 21.86-37.85h43.7l5.11 8.84zm-65.56 33.29l20.54-35.57h41.07l-2.47-4.28h-41.08l-20.53 35.57 2.47 4.28zm-10.33 22.46l-21.86 37.85H83.5l21.85-37.85L83.5 194.1h10.21l21.86 37.84zM92.4 267.51l20.53-35.57-20.53-35.57h-5l20.54 35.57-20.49 35.57h4.95zm168.54-19.93l-5.11 8.84H212.1l-21.86-37.85 5.11-8.84 21.85 37.85h43.74zm-6.42 6.52l2.47-4.28h-41.07l-20.54-35.57-2.47 4.28 20.54 35.57h41.07zm38.58-62.27l-21.86 37.85h-43.7l-5.11-8.85h43.71l21.85-37.85 5.11 8.85zm-23.14 35.57l20.53-35.57-2.47-4.28-20.54 35.55h-41.07l2.47 4.29 41.08.01zm68.14-118.07h-43.67l-21.85 37.85-5.11-8.84 21.86-37.85h43.7l5.07 8.84zm-65.52 33.29l20.52-35.52h41.07l-2.47-4.28h-41.05l-20.55 35.52 2.48 4.28zm65.52 46.94h-10.17l-21.83-37.85 21.85-37.85h10.15l-21.81 37.85 21.81 37.85zm-12.51-58.6l8.6-14.86h-4.94l-20.54 35.61 20.54 35.57h4.94l-20.54-35.57 11.94-20.75zM199.18 194.1l-21.85 37.85 21.85 37.85h-10.21l-21.87-37.86 21.87-37.84h10.21zm-24.49 37.84l20.54-35.57h-4.95l-20.53 35.57 20.53 35.57h4.95l-20.54-35.57zm-74.57 0l-21.85 37.85H68.1l21.85-37.85L68.1 194.1h10.17l21.85 37.84zm-23.16 35.57l20.53-35.57-20.53-35.57h-4.95l20.54 35.57-20.54 35.57h4.95zm54.05-35.57l-21.86 37.85H98.94l21.85-37.85-21.85-37.84h10.21l21.86 37.84zm-23.18 35.57l20.54-35.57-20.54-35.57h-4.94l20.54 35.57-20.54 35.57h4.94zm60.47-73.41l-21.85 37.84 21.85 37.85h-10.2l-21.87-37.85 21.87-37.84h10.2zm-24.49 37.84l20.54-35.57h-5l-20.48 35.57 20.53 35.57h5l-20.59-35.57zm39.93 37.85h-10.21l-21.86-37.85 21.86-37.84h10.21l-21.85 37.84 21.85 37.85zm-24.49-37.85l20.54-35.57h-5l-20.48 35.57 20.53 35.57h5l-20.59-35.57zm49-53.48l-5.15 8.84-21.85-37.85h-43.71l5.11-8.84h43.7l21.9 37.85zm-5.15 4.28l2.47-4.28-20.53-35.57h-41.08l-2.47 4.28h41.07l20.54 35.57zM183.74 2.36h-43.71l-21.85 37.85-5.08-8.84 21.83-37.85h43.7l5.11 8.84zm-65.56 33.29L138.72.1h41.07l-2.47-4.28h-41.08l-20.53 35.55 2.47 4.28zm204.52 78.21l-21.85 37.85 21.85 37.85h-10.21l-21.86-37.85 21.86-37.85h10.21zm-8.89 73.42h4.94l-20.54-35.57 20.54-35.61h-4.94l-20.54 35.61 20.54 35.57zM285.41 18l-21.86 37.85h-43.7L214.74 47h43.71L280.3 9.15l5.11 8.85zm-23.17 35.57L282.77 18l-2.47-4.28-20.53 35.56h-41.08l2.47 4.29h41.08zM146.45 98.23l-21.86 37.87h-43.7l-5.11-8.85h43.71l21.85-37.87 5.11 8.85zm-23.17 35.57l20.53-35.57-2.47-4.29-20.54 35.57H79.73l2.47 4.29h41.08zm75.9-104.7h-43.71l-21.85 37.86-5.11-8.86 21.86-37.84h43.73l5.08 8.84zm-65.56 33.29l20.54-35.57h41.07l-2.47-4.28h-41.08L131.15 58.1l2.47 4.29zm57.84-46.66h-43.71L125.9 53.58l-5.11-8.84 21.86-37.85h43.7l5.11 8.84zM125.9 49.02l20.54-35.57h41.07l-2.47-4.28h-41.08l-20.53 35.57 2.47 4.28zm196.8 33.57h-43.71l-21.89 37.85-5.1-8.84 21.85-37.85h43.7l5.15 8.84zm-65.6 33.29l20.54-35.57h41.07l-2.47-4.28H275.2l-20.53 35.57 2.43 4.28zM129.7-6.48l-5.11 8.84h-43.7L63-28.64v-17.67L86-6.48h43.7zM123.28.1l2.47-4.28H84.67L65.28-37.8v8.57L82.2.1h41.08zm207.14 95.86h-43.71l-21.85 37.85-5.1-8.84 21.85-37.87h43.7l5.11 8.86zm-65.56 33.29l20.54-35.57h41.07L324 89.4h-41.07l-20.54 35.57 2.47 4.28zm3.8 105l-5.11 8.85h-43.7l-21.86-37.9 5.11-8.85 21.85 37.86 43.71.04zm-6.42 6.56l2.47-4.28h-41.07l-20.54-35.61-2.47 4.28 20.54 35.57 41.07.04zM154.17 111.6l-21.86 37.85h-43.7l-5.11-8.84h43.71l21.89-37.86 5.07 8.85zM131 147.17l20.53-35.57-2.43-4.28-20.58 35.57H87.45l2.47 4.28H131zM277.69 4.63l-21.86 37.85H212.1l-5.11-8.85h43.71l21.85-37.85 5.14 8.85zM254.52 40.2L275.1 4.63 272.63.34 252.1 35.91h-41.13l2.48 4.29h41.07zM115.57 71.48l-21.86 37.85H83.5l21.85-37.85L83.5 33.63h10.21l21.86 37.85zM92.4 107.1l20.53-35.62L92.4 35.91h-5l20.59 35.57-20.54 35.62h4.95zm7.7-35.62l-21.83 37.85H68.1l21.81-37.85L68.1 33.63h10.17l21.83 37.85zM76.96 107.1l20.53-35.62-20.53-35.57h-4.95l20.54 35.57-20.54 35.62h4.95zm183.98-20l-5.11 8.84H212.1L190.27 58.1l5.11-8.84 21.85 37.84h43.71zm-6.42 6.56l2.47-4.28h-41.07l-20.54-35.55-2.47 4.27 20.54 35.57 41.07-.01zm52.74 20.18l-21.85 37.87 21.85 37.85H297.1l-21.9-37.85 21.9-37.85 10.16-.02zm-8.9 73.42h5l-20.59-35.55 20.54-35.61h-5l-20.48 35.61 20.53 35.55zM131.01 71.48l-21.86 37.85H98.94l21.85-37.85-21.85-37.85h10.21l21.86 37.85zm-23.18 35.62l20.54-35.62-20.54-35.57h-4.94l20.54 35.57-20.54 35.62h4.94zm30.9-22.19l-21.86 37.8h-43.7l-5.07-8.85h43.67l21.85-37.85 5.11 8.9zm-23.17 35.51l20.54-35.56-2.47-4.29-20.53 35.53H72.01l2.47 4.28 41.08.04zm52.74-86.79l-21.85 37.85 21.85 37.85h-10.2l-21.87-37.85 21.87-37.85h10.2zm-24.49 37.85l20.54-35.57h-5l-20.48 35.57 20.53 35.62h5l-20.59-35.62zm55.37-37.85l-21.85 37.85 21.85 37.85h-10.21L167.1 71.48l21.86-37.85h10.22zM187.1 50.1l8.18-14.17h-4.95l-20.58 35.55 20.53 35.62h4.95l-20.54-35.62L187.1 50.1zm66.17 50.41l-5.17 8.82h-43.7l-21.84-37.85 5.1-8.84 21.85 37.85 43.76.02zm-6.47 6.59l2.47-4.28H208.2L187.66 67.2l-2.47 4.28 20.53 35.62h41.08zm-63.06 2.28h-10.21l-21.86-37.9 21.86-37.85h10.21l-21.85 37.85 21.85 37.9zm-24.49-37.9l20.54-35.57h-5l-20.48 35.57 20.53 35.62h5l-20.59-35.62zm94 189.47l-5.15 8.84h-43.7l-21.85-37.85 5.1-8.84 21.85 37.85h43.75zm-6.42 6.56l2.47-4.28h-41.1l-20.54-35.57-2.47 4.28 20.53 35.57h41.11zm96.4-69.18v17.69l-7.55-13.08h-43.74l5.16-8.84h43.71l2.42 4.23zm-2.28 9.18v-8.57l-1.48-2.57h-41.11l-2.47 4.28h41.08l3.98 6.86zm2.28-35.92v17.69l-21.71-37.57 5.1-8.84 16.61 28.72zm-2.28 9.17v-8.56l-14.3-24.77-2.47 4.28 16.77 29.05zm2.28-35.92v17.69l-14-24.19 5.1-8.84 8.9 15.34zm-2.28 9.18v-8.56l-6.61-11.36-2.47 4.28 9.08 15.64zm2.28-62.66v17.74l-2.23-3.91-20.79-35.97H276.5l5.11-8.84h43.7l17.92 30.98zm-2.28 9.17v-8.56L324 62.66h-41.07l-2.48 4.28h41.07l19.43 33.59zm2.28 13.62v21.64l-6.24-10.82 6.24-10.82zm-2.28 13.13v-4.62l-1.33 2.31 1.33 2.31zm2.28-62.67V82.3l-15.3-26.45h-43.71l5.11-8.85h43.7l10.2 17.61zm-2.28 9.18v-8.56l-9.2-15.95h-41.1l-2.48 4.29h41.08l11.7 20.22zm-10.5 182.63h-43.74l-9.68 16.78h-10.21l14.79-25.62h43.7l5.14 8.84zm-54.71 14.5l9.66-16.82h41.07l-2.47-4.28h-41.07l-12.16 21.06 4.97.04zm47-27.87h-43.75l-17.4 30.15h-10.21l22.51-39h43.7l5.15 8.85zm-62.43 27.87l17.41-30.15h41.07l-2.47-4.28H275.2l-19.87 34.43h4.98zm82.89-45.82v17.69l-15.27-26.45h-43.71l5.11-8.85h43.7l10.17 17.61zm-2.28 9.18v-8.57l-9.2-15.94h-41.07l-2.48 4.29h41.08l11.67 20.22zm-2.82 35.51h-43.67l-2 3.41h-10.17l7.07-12.25h43.7l5.07 8.84zm-47 1.13l2-3.41h41.07l-2.47-4.28h-41.05l-4.44 7.69h4.89zm52.05-19.1v17.73l-2.23-3.92-20.76-35.95H276.5l5.11-8.85h43.7l17.84 30.99zm-2.28 9.17v-8.56L324 223.1h-41.07l-2.48 4.29h41.07l19.35 33.6zM343.2 11.1v17.69L321.52-8.75l5.1-8.84L343.2 11.1zm-2.28 9.17v-8.56l-14.3-24.77-2.47 4.28 16.77 29.05zM154.82-50l-22.51 39h-43.7l-5.11-8.85h43.71L144.61-50h10.21zM131-13.29l19.87-34.43h-4.94l-17.41 30.15H87.45l2.47 4.28H131zM262.9-50l-5.76 10-5.76-10h11.52zm-5.8 5.42l1.81-3.14h-3.62l1.81 3.14zM278.31-50l-13.45 23.35-5.1-8.84L268.1-50h10.21zm-13.45 18.79l9.54-16.51h-5l-7.06 12.23 2.52 4.28zM123.94-50l-7.07 12.25h-43.7L68.1-46.6h43.67l2-3.4h10.17zm-8.38 10l4.43-7.69h-4.89l-2 3.4H72.01L74.48-40h41.08zm23.82-10l-14.79 25.62h-43.7l-5.11-8.84h43.71L129.17-50h10.21zm-16.1 23.34l12.15-21.06h-4.94L120.8-30.9H79.73l2.47 4.24h41.08zM293.79-50l-21.21 36.73-5.11-8.85L283.57-50h10.22zm-21.21 32.16l17.26-29.88h-5l-14.74 25.6 2.48 4.28zM154.82 273.2H143.3l5.76-10 5.76 10zm-7.57-2.28h3.62l-1.77-3.15-1.85 3.15zm196-286.53V2.1l-14-24.19 5.1-8.84 8.9 15.32zm-2.28 9.17V-15l-6.58-11.4-2.47 4.28 9.05 15.68zm2.28-39.87v21.64l-6.24-10.82 6.24-10.82zm-2.28 13.13v-4.61l-1.33 2.3 1.33 2.31zm2.28 71.05v17.69l-7.6-13.08h-43.71l5.16-8.85h43.71l2.44 4.24zm-2.33 9.23v-8.57l-1.48-2.57h-41.08l-2.47 4.29h41.08l3.95 6.85zM293.1 31.37l-21.83 37.85h-43.7l-5.11-8.84h43.71l21.85-37.85 5.08 8.84zm-23.14 35.57l20.53-35.57-2.47-4.27-20.54 35.56h-41.07l2.47 4.28h41.08zm-54-62.31l-5.11 8.84-21.88-37.85h-43.71l5.11-8.84h43.73l21.86 37.85zm-5.11 4.28l2.47-4.28-20.56-35.53h-41.08l-2.47 4.28h41.07l20.57 35.53zm12.83-17.66L218.54.1l-21.85-37.85h-43.71l5.12-8.85h43.7l21.88 37.85zm-5.11 4.29l2.47-4.29-20.56-35.57H159.4l-2.47 4.29H198l20.57 35.57zm20.53-4.29L217.23 29.1h-10.21l21.85-37.86-21.85-37.84h10.21L239.1-8.75zm-23.18 35.57l20.53-35.57-20.53-35.57h-4.95l20.54 35.57-20.54 35.57h4.95zM121.98 6.89l-5.11 8.84h-43.7L63-1.9v-17.67L78.27 6.89h43.71zm-6.42 6.56l2.47-4.28H76.96L65.28-11.05v8.56l9.2 15.94h41.08zM208.21 18l-5.11 8.84-21.85-37.85h-43.71l5.11-8.84h43.7L208.21 18zm-5.11 4.28l2.47-4.28-20.53-35.57h-41.08l-2.47 4.28h41.07l20.54 35.57zm51.43-31L232.67 29.1h-10.21l21.86-37.86-21.86-37.84h10.21l21.86 37.88zm-23.17 35.54l20.53-35.57-20.53-35.57h-4.95l20.54 35.57-20.54 35.57h4.95zm-117.1-6.56l-5.11 8.84h-43.7L63 24.86V7.18l7.55 13.08h43.71zm-6.42 6.56l2.47-4.28H69.23l-3.95-6.85v8.56l1.48 2.57h41.08zM322.7-46.6L300.85-8.75 322.7 29.1h-10.21L290.63-8.75l21.86-37.85h10.21zM298.21-8.75l20.54-35.57h-4.94L293.27-8.75l20.54 35.57h4.94L298.21-8.75zM338.1 29.1h-10.17L306.1-8.75l21.83-37.85h10.17L316.29-8.75 338.1 29.1zm-12.47-58.6l8.56-14.82h-4.94L308.71-8.75l20.54 35.57h4.94L313.65-8.75l11.98-20.75zM269.97-8.75L248.1 29.1h-10.2l21.86-37.86L237.9-46.6h10.2l21.87 37.85zM246.8 26.82l20.53-35.57-20.53-35.57h-4.95l20.54 35.57-20.54 35.57h4.95zm60.46-73.42L285.41-8.75l21.85 37.85H297.1L275.2-8.75l21.9-37.85h10.16zM282.77-8.75l20.54-35.57h-5L277.83-8.75l20.53 35.57h5L282.77-8.75zM69.24 258.69L63 269.5v-21.64l6.24 10.83zm-4 2.3l1.33-2.3-1.33-2.31v4.61zm11.72-15.68l-5.1 8.85L63 238.81V221.1l13.96 24.21zm-4.53 3.29l1.9-3.29-9-15.68v8.57l6.58 11.4.52-1zm12.25-16.66l-5.1 8.85L63 212.1v-17.72l21.68 37.56zm-5.1 4.28l2.52-4.28-16.77-29.05v8.57l14.25 24.76zm34.68-55.5l-5.11 8.84h-43.7L63 185.32v-17.68l7.55 13.08h43.71zm-6.42 6.56l2.47-4.28H69.23l-3.95-6.85v8.56l1.48 2.57h41.08zm38.61 71.41l-8.35 14.51h-10.24l13.48-23.36 5.11 8.85zm-9.7 12.23l7.06-12.23-2.47-4.29-9.53 16.52h4.94zm2-25.61l-16.12 27.89h-10.22l21.21-36.73 5.13 8.84zm-17.44 25.61l14.79-25.61-2.47-4.28-17.26 29.89h4.94zM76.96 84.85l-5.1 8.85L63 78.35V60.66l13.96 24.19zm-4.53 3.25l1.9-3.29-9-15.67v8.56l6.53 11.4.57-1zm49.55 79.21l-5.11 8.84h-43.7L63 158.58v-17.69l15.27 26.46 43.71-.04zm-6.42 6.56l2.47-4.28H76.96L65.28 149.4v8.57l9.2 15.94 41.08-.04zM84.68 71.48l-5.1 8.85L63 51.61V33.92l21.68 37.56zm-5.1 4.29l2.52-4.29-16.77-29V51l14.25 24.77zM69.24 98.23L63 109.1V87.41l6.24 10.82zm-4 2.3l1.33-2.3-1.33-2.31v4.61zm64.46 53.45l-5.11 8.84h-43.7l-17.89-31v-17.67l23 39.83h43.7zm-6.42 6.56l2.47-4.28H84.67l-19.39-33.6v8.57l16.92 29.31h41.08zm628.46 2.28h-43.71l-21.85 37.85-5.08-8.84 21.86-37.85h43.7l5.08 8.84zm-65.56 33.28l20.54-35.57h41.07l-2.47-4.28h-41.08l-20.53 35.58 2.47 4.27zm97.75-31l-5.11 8.85-21.85-37.85h-43.71l5.11-8.85h43.73l21.83 37.85zm-5.11 4.29l2.47-4.29-20.53-35.59h-41.08l-2.47 4.29h41.07l20.54 35.59zm28.28-17.68l-21.86 37.85h-10.22l21.85-37.85-21.85-37.85h10.21l21.87 37.85zm-23.17 35.57l20.53-35.57-20.54-35.61h-4.95l20.54 35.57-20.54 35.57 4.96.04zm7.73-35.57l-5.11 8.85-21.86-37.85h-43.71l5.12-8.85h43.7l21.86 37.85zm-5.11 4.28l2.47-4.28-20.54-35.61H727.4l-2.47 4.28H766l20.55 35.61zm50.12-82.24l-5.11 8.84h-43.7l-21.87-37.85 5.11-8.84 21.85 37.85h43.72zm-6.42 6.56l2.47-4.28h-41.08L771.1 40.46l-2.47 4.28 20.54 35.57h41.08zm-7.71 71.4l-21.86 37.85h-10.22l21.86-37.85-21.86-37.85h10.21l21.87 37.85zm-23.17 35.57l20.53-35.57-20.54-35.61h-4.95l20.54 35.57-20.54 35.57 4.96.04zm38.61-35.57l-21.88 37.85h-10.2l21.86-37.85-21.86-37.85h10.2l21.88 37.85zm-23.18 35.57l20.53-35.57-20.53-35.61h-4.95l20.54 35.57-20.54 35.57 4.95.04zm30.89-22.18l-21.86 37.86H780.1l-5.08-8.86h43.71l21.85-37.85 5.11 8.85zm-23.17 35.57l20.58-35.57-2.47-4.28-20.53 35.55h-41.13l2.47 4.28 41.08.02zm-55.34-11.09h-43.71l-21.85 37.83-5.11-8.84 21.86-37.85h43.73l5.08 8.86zm-65.56 33.27l20.54-35.57h41.07l-2.47-4.28h-41.08l-20.53 35.57 2.47 4.28zm151.79-44.39l-21.86 37.85h-43.7l-5.11-8.85h43.71l21.85-37.85 5.11 8.85zm-23.17 35.57l20.53-35.57-2.47-4.29-20.53 35.57h-41.08l2.47 4.29h41.08zm-70.78-37.84h-43.71l-21.85 37.85-5.11-8.84 21.86-37.85h43.7l5.11 8.84zm-65.56 33.29l20.54-35.57h41.07l-2.47-4.28h-41.08l-20.53 35.57 2.47 4.28zm-10.33 22.46l-21.86 37.85H651.5l21.85-37.85-21.85-37.84h10.21l21.86 37.84zm-23.17 35.57l20.53-35.57-20.53-35.57h-5l20.54 35.57-20.49 35.57h4.95zm168.54-19.93l-5.11 8.84H780.1l-21.86-37.85 5.11-8.84 21.85 37.85h43.74zm-6.42 6.52l2.47-4.28h-41.07l-20.54-35.57-2.47 4.28 20.54 35.57h41.07zm38.58-62.27l-21.86 37.85h-43.7l-5.11-8.85h43.71l21.85-37.85 5.11 8.85zm-23.14 35.57l20.53-35.57-2.47-4.28-20.54 35.55h-41.07l2.47 4.29 41.08.01zm68.14-118.07h-43.67l-21.85 37.85-5.11-8.84 21.86-37.85h43.7l5.07 8.84zm-65.52 33.29l20.52-35.52h41.07l-2.47-4.28h-41.05l-20.55 35.52 2.48 4.28zm65.52 46.94h-10.17l-21.83-37.85 21.85-37.85h10.15l-21.81 37.85 21.81 37.85zm-12.51-58.6l8.6-14.86h-4.94l-20.54 35.61 20.54 35.57h4.94l-20.54-35.57 11.94-20.75zM767.18 194.1l-21.85 37.85 21.85 37.85h-10.21l-21.87-37.86 21.87-37.84h10.21zm-24.49 37.84l20.54-35.57h-4.95l-20.53 35.57 20.53 35.57h4.95l-20.54-35.57zm-74.57 0l-21.85 37.85H636.1l21.85-37.85-21.85-37.84h10.17l21.85 37.84zm-23.16 35.57l20.53-35.57-20.53-35.57h-4.95l20.54 35.57-20.54 35.57h4.95zm54.05-35.57l-21.86 37.85h-10.21l21.85-37.85-21.85-37.84h10.21l21.86 37.84zm-23.18 35.57l20.54-35.57-20.54-35.57h-4.94l20.54 35.57-20.54 35.57h4.94zm60.47-73.41l-21.85 37.84 21.85 37.85h-10.2l-21.87-37.85 21.87-37.84h10.2zm-24.49 37.84l20.54-35.57h-5l-20.48 35.57 20.53 35.57h5l-20.59-35.57zm39.93 37.85h-10.21l-21.86-37.85 21.86-37.84h10.21l-21.85 37.84 21.85 37.85zm-24.49-37.85l20.54-35.57h-5l-20.48 35.57 20.53 35.57h5l-20.59-35.57zm49-53.48l-5.15 8.84-21.85-37.85h-43.71l5.11-8.84h43.7l21.9 37.85zm-5.15 4.28l2.47-4.28-20.53-35.57h-41.08l-2.47 4.28h41.07l20.54 35.57zM751.74 2.36h-43.71l-21.85 37.85-5.08-8.84 21.83-37.85h43.7l5.11 8.84zm-65.56 33.29L706.72.1h41.07l-2.47-4.28h-41.08l-20.53 35.55 2.47 4.28zm204.52 78.21l-21.85 37.85 21.85 37.85h-10.21l-21.86-37.85 21.86-37.85h10.21zm-8.89 73.42h4.94l-20.54-35.57 20.54-35.61h-4.94l-20.54 35.61 20.54 35.57zM853.41 18l-21.86 37.85h-43.7L782.74 47h43.71L848.3 9.15l5.11 8.85zm-23.17 35.57L850.77 18l-2.47-4.28-20.53 35.56h-41.08l2.47 4.29h41.08zM714.45 98.23l-21.86 37.87h-43.7l-5.11-8.85h43.71l21.85-37.87 5.11 8.85zm-23.17 35.57l20.53-35.57-2.47-4.29-20.54 35.57h-41.07l2.47 4.29h41.08zm75.9-104.7h-43.71l-21.85 37.86-5.11-8.86 21.86-37.84h43.73l5.08 8.84zm-65.56 33.29l20.54-35.57h41.07l-2.47-4.28h-41.08L699.15 58.1l2.47 4.29zm57.84-46.66h-43.71L693.9 53.58l-5.11-8.84 21.86-37.85h43.7l5.11 8.84zM693.9 49.02l20.54-35.57h41.07l-2.47-4.28h-41.08l-20.53 35.57 2.47 4.28zm196.8 33.57h-43.71l-21.89 37.85-5.1-8.84 21.85-37.85h43.7l5.15 8.84zm-65.6 33.29l20.54-35.57h41.07l-2.47-4.28H843.2l-20.53 35.57 2.43 4.28zM697.7-6.48l-5.11 8.84h-43.7l-17.89-31v-17.67l23 39.83h43.7zM691.28.1l2.47-4.28h-41.08L633.28-37.8v8.57L650.2.1h41.08zm207.14 95.86h-43.71l-21.85 37.85-5.1-8.84 21.85-37.87h43.7l5.11 8.86zm-65.56 33.29l20.54-35.57h41.07L892 89.4h-41.07l-20.54 35.57 2.47 4.28zm3.8 105l-5.11 8.85h-43.7l-21.86-37.9 5.11-8.85 21.85 37.86 43.71.04zm-6.42 6.56l2.47-4.28h-41.07l-20.54-35.61-2.47 4.28 20.54 35.57 41.07.04zM722.17 111.6l-21.86 37.85h-43.7l-5.11-8.84h43.71l21.89-37.86 5.07 8.85zM699 147.17l20.53-35.57-2.43-4.28-20.58 35.57h-41.07l2.47 4.28H699zM845.69 4.63l-21.86 37.85H780.1l-5.11-8.85h43.71l21.85-37.85 5.14 8.85zM822.52 40.2L843.1 4.63 840.63.34 820.1 35.91h-41.13l2.48 4.29h41.07zM683.57 71.48l-21.86 37.85H651.5l21.85-37.85-21.85-37.85h10.21l21.86 37.85zM660.4 107.1l20.53-35.62-20.53-35.57h-5l20.59 35.57-20.54 35.62h4.95zm7.7-35.62l-21.83 37.85H636.1l21.81-37.85-21.81-37.85h10.17l21.83 37.85zm-23.14 35.62l20.53-35.62-20.53-35.57h-4.95l20.54 35.57-20.54 35.62h4.95zm183.98-20l-5.11 8.84H780.1L758.27 58.1l5.11-8.84 21.85 37.84h43.71zm-6.42 6.56l2.47-4.28h-41.07l-20.54-35.55-2.47 4.27 20.54 35.57 41.07-.01zm52.74 20.18l-21.85 37.87 21.85 37.85H865.1l-21.9-37.85 21.9-37.85 10.16-.02zm-8.9 73.42h5l-20.59-35.55 20.54-35.61h-5l-20.48 35.61 20.53 35.55zM699.01 71.48l-21.86 37.85h-10.21l21.85-37.85-21.85-37.85h10.21l21.86 37.85zm-23.18 35.62l20.54-35.62-20.54-35.57h-4.94l20.54 35.57-20.54 35.62h4.94zm30.9-22.19l-21.86 37.8h-43.7l-5.07-8.85h43.67l21.85-37.85 5.11 8.9zm-23.17 35.51l20.54-35.56-2.47-4.29-20.53 35.53h-41.09l2.47 4.28 41.08.04zm52.74-86.79l-21.85 37.85 21.85 37.85h-10.2l-21.87-37.85 21.87-37.85h10.2zm-24.49 37.85l20.54-35.57h-5l-20.48 35.57 20.53 35.62h5l-20.59-35.62zm55.37-37.85l-21.85 37.85 21.85 37.85h-10.21L735.1 71.48l21.86-37.85h10.22zM755.1 50.1l8.18-14.17h-4.95l-20.58 35.55 20.53 35.62h4.95l-20.54-35.62L755.1 50.1zm66.17 50.41l-5.17 8.82h-43.7l-21.84-37.85 5.1-8.84 21.85 37.85 43.76.02zm-6.47 6.59l2.47-4.28H776.2L755.66 67.2l-2.47 4.28 20.53 35.62h41.08zm-63.06 2.28h-10.21l-21.86-37.9 21.86-37.85h10.21l-21.85 37.85 21.85 37.9zm-24.49-37.9l20.54-35.57h-5l-20.48 35.57 20.53 35.62h5l-20.59-35.62zm94 189.47l-5.15 8.84h-43.7l-21.85-37.85 5.1-8.84 21.85 37.85h43.75zm-6.42 6.56l2.47-4.28h-41.1l-20.54-35.57-2.47 4.28 20.53 35.57h41.11zm96.4-69.18v17.69l-7.55-13.08h-43.74l5.16-8.84h43.71l2.42 4.23zm-2.28 9.18v-8.57l-1.48-2.57h-41.11l-2.47 4.28h41.08l3.98 6.86zm2.28-35.92v17.69l-21.71-37.57 5.1-8.84 16.61 28.72zm-2.28 9.17v-8.56l-14.3-24.77-2.47 4.28 16.77 29.05zm2.28-35.92v17.69l-14-24.19 5.1-8.84 8.9 15.34zm-2.28 9.18v-8.56l-6.61-11.36-2.47 4.28 9.08 15.64zm2.28-62.66v17.74l-2.23-3.91-20.79-35.97H844.5l5.11-8.84h43.7l17.92 30.98zm-2.28 9.17v-8.56L892 62.66h-41.07l-2.48 4.28h41.07l19.43 33.59zm2.28 13.62v21.64l-6.24-10.82 6.24-10.82zm-2.28 13.13v-4.62l-1.33 2.31 1.33 2.31zm2.28-62.67V82.3l-15.3-26.45h-43.71l5.11-8.85h43.7l10.2 17.61zm-2.28 9.18v-8.56l-9.2-15.95h-41.1l-2.48 4.29h41.08l11.7 20.22zm-10.5 182.63h-43.74l-9.68 16.78h-10.21l14.79-25.62h43.7l5.14 8.84zm-54.71 14.5l9.66-16.82h41.07l-2.47-4.28h-41.07l-12.16 21.06 4.97.04zm47-27.87h-43.75l-17.4 30.15h-10.21l22.51-39h43.7l5.15 8.85zm-62.43 27.87l17.41-30.15h41.07l-2.47-4.28H843.2l-19.87 34.43h4.98zm82.89-45.82v17.69l-15.27-26.45h-43.71l5.11-8.85h43.7l10.17 17.61zm-2.28 9.18v-8.57l-9.2-15.94h-41.07l-2.48 4.29h41.08l11.67 20.22zm-2.82 35.51h-43.67l-2 3.41h-10.17l7.07-12.25h43.7l5.07 8.84zm-47 1.13l2-3.41h41.07l-2.47-4.28h-41.05l-4.44 7.69h4.89zm52.05-19.1v17.73l-2.23-3.92-20.76-35.95H844.5l5.11-8.85h43.7l17.84 30.99zm-2.28 9.17v-8.56L892 223.1h-41.07l-2.48 4.29h41.07l19.35 33.6zM911.2 11.1v17.69L889.52-8.75l5.1-8.84L911.2 11.1zm-2.28 9.17v-8.56l-14.3-24.77-2.47 4.28 16.77 29.05zM722.82-50l-22.51 39h-43.7l-5.11-8.85h43.71L712.61-50h10.21zM699-13.29l19.87-34.43h-4.94l-17.41 30.15h-41.07l2.47 4.28H699zM830.9-50l-5.76 10-5.76-10h11.52zm-5.8 5.42l1.81-3.14h-3.62l1.81 3.14zM846.31-50l-13.45 23.35-5.1-8.84L836.1-50h10.21zm-13.45 18.79l9.54-16.51h-5l-7.06 12.23 2.52 4.28zM691.94-50l-7.07 12.25h-43.7l-5.07-8.85h43.67l2-3.4h10.17zm-8.38 10l4.43-7.69h-4.89l-2 3.4h-41.09l2.47 4.29h41.08zm23.82-10l-14.79 25.62h-43.7l-5.11-8.84h43.71L697.17-50h10.21zm-16.1 23.34l12.15-21.06h-4.94L688.8-30.9h-41.07l2.47 4.24h41.08zM861.79-50l-21.21 36.73-5.11-8.85L851.57-50h10.22zm-21.21 32.16l17.26-29.88h-5l-14.74 25.6 2.48 4.28zM722.82 273.2H711.3l5.76-10 5.76 10zm-7.57-2.28h3.62l-1.77-3.15-1.85 3.15zm196-286.53V2.1l-14-24.19 5.1-8.84 8.9 15.32zm-2.28 9.17V-15l-6.58-11.4-2.47 4.28 9.05 15.68zm2.28-39.87v21.64l-6.24-10.82 6.24-10.82zm-2.28 13.13v-4.61l-1.33 2.3 1.33 2.31zm2.28 71.05v17.69l-7.6-13.08h-43.71l5.16-8.85h43.71l2.44 4.24zm-2.33 9.23v-8.57l-1.48-2.57h-41.08l-2.47 4.29h41.08l3.95 6.85zM861.1 31.37l-21.83 37.85h-43.7l-5.11-8.84h43.71l21.85-37.85 5.08 8.84zm-23.14 35.57l20.53-35.57-2.47-4.27-20.54 35.56h-41.07l2.47 4.28h41.08zm-54-62.31l-5.11 8.84-21.88-37.85h-43.71l5.11-8.84h43.73l21.86 37.85zm-5.11 4.28l2.47-4.28-20.56-35.53h-41.08l-2.47 4.28h41.07l20.57 35.53zm12.83-17.66L786.54.1l-21.85-37.85h-43.71l5.12-8.85h43.7l21.88 37.85zm-5.11 4.29l2.47-4.29-20.56-35.57H727.4l-2.47 4.29H766l20.57 35.57zm20.53-4.29L785.23 29.1h-10.21l21.85-37.86-21.85-37.84h10.21L807.1-8.75zm-23.18 35.57l20.53-35.57-20.53-35.57h-4.95l20.54 35.57-20.54 35.57h4.95zM689.98 6.89l-5.11 8.84h-43.7L631-1.9v-17.67l15.27 26.46h43.71zm-6.42 6.56l2.47-4.28h-41.07l-11.68-20.22v8.56l9.2 15.94h41.08zM776.21 18l-5.11 8.84-21.85-37.85h-43.71l5.11-8.84h43.7L776.21 18zm-5.11 4.28l2.47-4.28-20.53-35.57h-41.08l-2.47 4.28h41.07l20.54 35.57zm51.43-31L800.67 29.1h-10.21l21.86-37.86-21.86-37.84h10.21l21.86 37.88zm-23.17 35.54l20.53-35.57-20.53-35.57h-4.95l20.54 35.57-20.54 35.57h4.95zm-117.1-6.56l-5.11 8.84h-43.7L631 24.86V7.18l7.55 13.08h43.71zm-6.42 6.56l2.47-4.28h-41.08l-3.95-6.85v8.56l1.48 2.57h41.08zM890.7-46.6L868.85-8.75 890.7 29.1h-10.21L858.63-8.75l21.86-37.85h10.21zM866.21-8.75l20.54-35.57h-4.94L861.27-8.75l20.54 35.57h4.94L866.21-8.75zM906.1 29.1h-10.17L874.1-8.75l21.83-37.85h10.17L884.29-8.75 906.1 29.1zm-12.47-58.6l8.56-14.82h-4.94L876.71-8.75l20.54 35.57h4.94L881.65-8.75l11.98-20.75zM837.97-8.75L816.1 29.1h-10.2l21.86-37.86L805.9-46.6h10.2l21.87 37.85zM814.8 26.82l20.53-35.57-20.53-35.57h-4.95l20.54 35.57-20.54 35.57h4.95zm60.46-73.42L853.41-8.75l21.85 37.85H865.1L843.2-8.75l21.9-37.85h10.16zM850.77-8.75l20.54-35.57h-5L845.83-8.75l20.53 35.57h5L850.77-8.75zM637.24 258.69L631 269.5v-21.64l6.24 10.83zm-4 2.3l1.33-2.3-1.33-2.31v4.61zm11.72-15.68l-5.1 8.85-8.86-15.35V221.1l13.96 24.21zm-4.53 3.29l1.9-3.29-9-15.68v8.57l6.58 11.4.52-1zm12.25-16.66l-5.1 8.85L631 212.1v-17.72l21.68 37.56zm-5.1 4.28l2.52-4.28-16.77-29.05v8.57l14.25 24.76zm34.68-55.5l-5.11 8.84h-43.7l-2.45-4.24v-17.68l7.55 13.08h43.71zm-6.42 6.56l2.47-4.28h-41.08l-3.95-6.85v8.56l1.48 2.57h41.08zm38.61 71.41l-8.35 14.51h-10.24l13.48-23.36 5.11 8.85zm-9.7 12.23l7.06-12.23-2.47-4.29-9.53 16.52h4.94zm2-25.61l-16.12 27.89h-10.22l21.21-36.73 5.13 8.84zm-17.44 25.61l14.79-25.61-2.47-4.28-17.26 29.89h4.94zM644.96 84.85l-5.1 8.85L631 78.35V60.66l13.96 24.19zm-4.53 3.25l1.9-3.29-9-15.67v8.56l6.53 11.4.57-1zm49.55 79.21l-5.11 8.84h-43.7L631 158.58v-17.69l15.27 26.46 43.71-.04zm-6.42 6.56l2.47-4.28h-41.07l-11.68-20.19v8.57l9.2 15.94 41.08-.04zM652.68 71.48l-5.1 8.85L631 51.61V33.92l21.68 37.56zm-5.1 4.29l2.52-4.29-16.77-29V51l14.25 24.77zm-10.34 22.46L631 109.1V87.41l6.24 10.82zm-4 2.3l1.33-2.3-1.33-2.31v4.61zm64.46 53.45l-5.11 8.84h-43.7l-17.89-31v-17.67l23 39.83h43.7zm-6.42 6.56l2.47-4.28h-41.08l-19.39-33.6v8.57l16.92 29.31h41.08zm-791.54 2.28h-43.71l-21.85 37.85-5.08-8.84 21.86-37.85h43.7l5.08 8.84zm-65.56 33.28l20.54-35.57h41.07l-2.47-4.28h-41.08l-20.53 35.58 2.47 4.27zm97.75-31l-5.11 8.85-21.85-37.85h-43.71l5.11-8.85h43.73l21.83 37.85zm-5.11 4.29l2.47-4.29-20.53-35.59h-41.08l-2.47 4.29h41.07l20.54 35.59zm28.28-17.68l-21.86 37.85h-10.22l21.85-37.85-21.85-37.85h10.21l21.87 37.85zm-23.17 35.57l20.53-35.57-20.54-35.61h-4.95l20.54 35.57-20.54 35.57 4.96.04zm7.73-35.57l-5.11 8.85-21.86-37.85h-43.71l5.12-8.85h43.7l21.86 37.85zm-5.11 4.28l2.47-4.28-20.54-35.61h-41.08l-2.47 4.28H-86l20.55 35.61zm50.12-82.24l-5.11 8.84h-43.7l-21.87-37.85 5.11-8.84 21.85 37.85h43.72zm-6.42 6.56l2.47-4.28h-41.08L-80.9 40.46l-2.47 4.28 20.54 35.57h41.08zm-7.71 71.4l-21.86 37.85h-10.22l21.86-37.85-21.86-37.85h10.21l21.87 37.85zm-23.17 35.57l20.53-35.57-20.54-35.61h-4.95l20.54 35.57-20.54 35.57 4.96.04zm38.61-35.57l-21.88 37.85h-10.2l21.86-37.85-21.86-37.85h10.2l21.88 37.85zm-23.18 35.57l20.53-35.57-20.53-35.61h-4.95l20.54 35.57-20.54 35.57 4.95.04zm30.89-22.18l-21.86 37.86H-71.9l-5.08-8.86h43.71l21.85-37.85 5.11 8.85zm-23.17 35.57L-8.9 165.1l-2.47-4.28-20.53 35.55h-41.13l2.47 4.28 41.08.02zm-55.34-11.09h-43.71l-21.85 37.83-5.11-8.84 21.86-37.85h43.73l5.08 8.86zm-65.56 33.27l20.54-35.57h41.07l-2.47-4.28h-41.08l-20.53 35.57 2.47 4.28zM1.41 178.46l-21.86 37.85h-43.7l-5.11-8.85h43.71l21.85-37.85 5.11 8.85zm-23.17 35.57l20.53-35.57-2.47-4.29-20.53 35.57h-41.08l2.47 4.29h41.08zm-70.78-37.84h-43.71l-21.85 37.85-5.11-8.84 21.86-37.85h43.7l5.11 8.84zm-65.56 33.29l20.54-35.57h41.07l-2.47-4.28h-41.08l-20.53 35.57 2.47 4.28zm-10.33 22.46l-21.86 37.85h-10.21l21.85-37.85-21.85-37.84h10.21l21.86 37.84zm-23.17 35.57l20.53-35.57-20.53-35.57h-5l20.54 35.57-20.49 35.57h4.95zm168.54-19.93l-5.11 8.84H-71.9l-21.86-37.85 5.11-8.84 21.85 37.85h43.74zm-6.42 6.52l2.47-4.28h-41.07l-20.54-35.57-2.47 4.28 20.54 35.57h41.07zM9.1 191.83l-21.86 37.85h-43.7l-5.11-8.85h43.71l21.85-37.85 5.11 8.85zm-23.14 35.57l20.53-35.57-2.47-4.28-20.54 35.55h-41.07l2.47 4.29 41.08.01zM54.1 109.33H10.43l-21.85 37.85-5.11-8.84 21.86-37.85h43.7l5.07 8.84zm-65.52 33.29L9.1 107.1h41.07l-2.47-4.28H6.65l-20.55 35.52 2.48 4.28zm65.52 46.94H43.93L22.1 151.71l21.85-37.85H54.1l-21.81 37.85 21.81 37.85zm-12.51-58.6l8.6-14.86h-4.94l-20.54 35.61 20.54 35.57h4.94l-20.54-35.57 11.94-20.75zM-84.82 194.1l-21.85 37.85 21.85 37.85h-10.21l-21.87-37.86 21.87-37.84h10.21zm-24.49 37.84l20.54-35.57h-4.95l-20.53 35.57 20.53 35.57h4.95l-20.54-35.57zm-74.57 0l-21.85 37.85h-10.17l21.85-37.85-21.85-37.84h10.17l21.85 37.84zm-23.16 35.57l20.53-35.57-20.53-35.57h-4.95l20.54 35.57-20.54 35.57h4.95zm54.05-35.57l-21.86 37.85h-10.21l21.85-37.85-21.85-37.84h10.21l21.86 37.84zm-23.18 35.57l20.54-35.57-20.54-35.57h-4.94l20.54 35.57-20.54 35.57h4.94zm60.47-73.41l-21.85 37.84 21.85 37.85h-10.2l-21.87-37.85 21.87-37.84h10.2zm-24.49 37.84l20.54-35.57h-5l-20.48 35.57 20.53 35.57h5l-20.59-35.57zm39.93 37.85h-10.21l-21.86-37.85 21.86-37.84h10.21l-21.85 37.84 21.85 37.85zm-24.49-37.85l20.54-35.57h-5l-20.48 35.57 20.53 35.57h5l-20.59-35.57zm49-53.48l-5.15 8.84-21.85-37.85h-43.71l5.11-8.84h43.7l21.9 37.85zm-5.15 4.28l2.47-4.28-20.53-35.57h-41.08l-2.47 4.28h41.07l20.54 35.57zM-100.26 2.36h-43.71l-21.85 37.85-5.08-8.84 21.83-37.85h43.7l5.11 8.84zm-65.56 33.29L-145.28.1h41.07l-2.47-4.28h-41.08l-20.53 35.55 2.47 4.28zM38.7 113.86l-21.85 37.85 21.85 37.85H28.49L6.63 151.71l21.86-37.85H38.7zm-8.89 73.42h4.94l-20.54-35.57 20.54-35.61h-4.94L9.27 151.71l20.54 35.57zM1.41 18l-21.86 37.85h-43.7L-69.26 47h43.71L-3.7 9.15 1.41 18zm-23.17 35.57L-1.23 18l-2.47-4.28-20.53 35.56h-41.08l2.47 4.29h41.08zm-115.79 44.66l-21.86 37.87h-43.7l-5.11-8.85h43.71l21.85-37.87 5.11 8.85zm-23.17 35.57l20.53-35.57-2.47-4.29-20.54 35.57h-41.07l2.47 4.29h41.08zm75.9-104.7h-43.71l-21.85 37.86-5.11-8.86 21.86-37.84h43.73l5.08 8.84zm-65.56 33.29l20.54-35.57h41.07l-2.47-4.28h-41.08l-20.53 35.56 2.47 4.29zm57.84-46.66h-43.71l-21.85 37.85-5.11-8.84 21.86-37.85h43.7l5.11 8.84zm-65.56 33.29l20.54-35.57h41.07l-2.47-4.28h-41.08l-20.53 35.57 2.47 4.28zM38.7 82.59H-5.01l-21.89 37.85-5.1-8.84 21.85-37.85h43.7l5.15 8.84zm-65.6 33.29l20.54-35.57h41.07l-2.47-4.28H-8.8l-20.53 35.57 2.43 4.28zM-154.3-6.48l-5.11 8.84h-43.7l-17.89-31v-17.67l23 39.83h43.7zM-160.72.1l2.47-4.28h-41.08l-19.39-33.62v8.57L-201.8.1h41.08zM46.42 95.96H2.71l-21.85 37.85-5.1-8.84L-2.39 87.1h43.7l5.11 8.86zm-65.56 33.29L1.4 93.68h41.07L40 89.4H-1.07l-20.54 35.57 2.47 4.28zm3.8 105l-5.11 8.85h-43.7l-21.86-37.9 5.11-8.85 21.85 37.86 43.71.04zm-6.42 6.56l2.47-4.28h-41.07l-20.54-35.61-2.47 4.28 20.54 35.57 41.07.04zM-129.83 111.6l-21.86 37.85h-43.7l-5.11-8.84h43.71l21.89-37.86 5.07 8.85zM-153 147.17l20.53-35.57-2.43-4.28-20.58 35.57h-41.07l2.47 4.28H-153zM-6.31 4.63l-21.86 37.85H-71.9l-5.11-8.85h43.71l21.85-37.85 5.14 8.85zM-29.48 40.2L-8.9 4.63-11.37.34-31.9 35.91h-41.13l2.48 4.29h41.07zm-138.95 31.28l-21.86 37.85h-10.21l21.85-37.85-21.85-37.85h10.21l21.86 37.85zm-23.17 35.62l20.53-35.62-20.53-35.57h-5l20.59 35.57-20.54 35.62h4.95zm7.7-35.62l-21.83 37.85h-10.17l21.81-37.85-21.81-37.85h10.17l21.83 37.85zm-23.14 35.62l20.53-35.62-20.53-35.57h-4.95l20.54 35.57-20.54 35.62h4.95zm183.98-20l-5.11 8.84H-71.9L-93.73 58.1l5.11-8.84 21.85 37.84h43.71zm-6.42 6.56l2.47-4.28h-41.07l-20.54-35.55-2.47 4.27 20.54 35.57 41.07-.01zm52.74 20.18L1.41 151.71l21.85 37.85H13.1l-21.9-37.85 21.9-37.85 10.16-.02zm-8.9 73.42h5l-20.59-35.55 20.54-35.61h-5l-20.48 35.61 20.53 35.55zM-152.99 71.48l-21.86 37.85h-10.21l21.85-37.85-21.85-37.85h10.21l21.86 37.85zm-23.18 35.62l20.54-35.62-20.54-35.57h-4.94l20.54 35.57-20.54 35.62h4.94zm30.9-22.19l-21.86 37.8h-43.7l-5.07-8.85h43.67l21.85-37.85 5.11 8.9zm-23.17 35.51l20.54-35.56-2.47-4.29-20.53 35.53h-41.09l2.47 4.28 41.08.04zm52.74-86.79l-21.85 37.85 21.85 37.85h-10.2l-21.87-37.85 21.87-37.85h10.2zm-24.49 37.85l20.54-35.57h-5l-20.48 35.57 20.53 35.62h5l-20.59-35.62zm55.37-37.85l-21.85 37.85 21.85 37.85h-10.21l-21.87-37.85 21.86-37.85h10.22zM-96.9 50.1l8.18-14.17h-4.95l-20.58 35.55 20.53 35.62h4.95l-20.54-35.62L-96.9 50.1zm66.17 50.41l-5.17 8.82h-43.7l-21.84-37.85 5.1-8.84 21.85 37.85 43.76.02zm-6.47 6.59l2.47-4.28H-75.8L-96.34 67.2l-2.47 4.28 20.53 35.62h41.08zm-63.06 2.28h-10.21l-21.86-37.9 21.86-37.85h10.21l-21.85 37.85 21.85 37.9zm-24.49-37.9l20.54-35.57h-5l-20.48 35.57 20.53 35.62h5l-20.59-35.62zm94 189.47l-5.15 8.84h-43.7l-21.85-37.85 5.1-8.84 21.85 37.85h43.75zm-6.42 6.56l2.47-4.28h-41.1l-20.54-35.57-2.47 4.28 20.53 35.57h41.11zm96.4-69.18v17.69l-7.55-13.08H7.94l5.16-8.84h43.71l2.42 4.23zm-2.28 9.18v-8.57l-1.48-2.57H14.36l-2.47 4.28h41.08l3.98 6.86zm2.28-35.92v17.69l-21.71-37.57 5.1-8.84 16.61 28.72zm-2.28 9.17v-8.56l-14.3-24.77-2.47 4.28 16.77 29.05zm2.28-35.92v17.69l-14-24.19 5.1-8.84 8.9 15.34zm-2.28 9.18v-8.56l-6.61-11.36-2.47 4.28 9.08 15.64zm2.28-62.66v17.74L57 105.19 36.21 69.22H-7.5l5.11-8.84h43.7l17.92 30.98zm-2.28 9.17v-8.56L40 62.66H-1.07l-2.48 4.28h41.07l19.43 33.59zm2.28 13.62v21.64l-6.24-10.82 6.24-10.82zm-2.28 13.13v-4.62l-1.33 2.31 1.33 2.31zm2.28-62.67V82.3l-15.3-26.45H.22L5.33 47h43.7l10.2 17.61zm-2.28 9.18v-8.56l-9.2-15.95H6.65l-2.48 4.29h41.08l11.7 20.22zm-10.5 182.63H2.71l-9.68 16.78h-10.21l14.79-25.62h43.7l5.14 8.84zm-54.71 14.5L1.4 254.1h41.07L40 249.82H-1.07l-12.16 21.06 4.97.04zm47-27.87H-5.01l-17.4 30.15h-10.21l22.51-39h43.7l5.15 8.85zm-62.43 27.87l17.41-30.15h41.07l-2.47-4.28H-8.8l-19.87 34.43h4.98zM59.2 225.1v17.69l-15.27-26.45H.22l5.11-8.85h43.7L59.2 225.1zm-2.28 9.18v-8.57l-9.2-15.94H6.65l-2.48 4.29h41.08l11.67 20.22zm-2.82 35.51H10.43l-2 3.41H-1.74l7.07-12.25h43.7l5.07 8.84zm-47 1.13l2-3.41h41.07l-2.47-4.28H6.65l-4.44 7.69H7.1zm52.05-19.1v17.73l-2.23-3.92-20.76-35.95H-7.5l5.11-8.85h43.7l17.84 30.99zm-2.28 9.17v-8.56L40 223.1H-1.07l-2.48 4.29h41.07l19.35 33.6zM59.2 11.1v17.69L37.52-8.75l5.1-8.84L59.2 11.1zm-2.28 9.17v-8.56l-14.3-24.77-2.47 4.28 16.77 29.05zM-129.18-50l-22.51 39h-43.7l-5.11-8.85h43.71l17.4-30.15h10.21zM-153-13.29l19.87-34.43h-4.94l-17.41 30.15h-41.07l2.47 4.28H-153zM-21.1-50l-5.76 10-5.76-10h11.52zm-5.8 5.42l1.81-3.14h-3.62l1.81 3.14zM-5.69-50l-13.45 23.35-5.1-8.84L-15.9-50h10.21zm-13.45 18.79l9.54-16.51h-5l-7.06 12.23 2.52 4.28zM-160.06-50l-7.07 12.25h-43.7l-5.07-8.85h43.67l2-3.4h10.17zm-8.38 10l4.43-7.69h-4.89l-2 3.4h-41.09l2.47 4.29h41.08zm23.82-10l-14.79 25.62h-43.7l-5.11-8.84h43.71l9.68-16.78h10.21zm-16.1 23.34l12.15-21.06h-4.94l-9.69 16.82h-41.07l2.47 4.24h41.08zM9.79-50l-21.21 36.73-5.11-8.85L-.43-50H9.79zm-21.21 32.16L5.84-47.72h-5l-14.74 25.6 2.48 4.28zM-129.18 273.2h-11.52l5.76-10 5.76 10zm-7.57-2.28h3.62l-1.77-3.15-1.85 3.15zm196-286.53V2.1l-14-24.19 5.1-8.84 8.9 15.32zm-2.28 9.17V-15l-6.58-11.4-2.47 4.28 9.05 15.68zm2.28-39.87v21.64l-6.24-10.82 6.24-10.82zm-2.28 13.13v-4.61l-1.33 2.3 1.33 2.31zm2.28 71.05v17.69l-7.6-13.08H7.94l5.16-8.85h43.71l2.44 4.24zm-2.33 9.23v-8.57l-1.48-2.57H14.36l-2.47 4.29h41.08l3.95 6.85zM9.1 31.37l-21.83 37.85h-43.7l-5.11-8.84h43.71L4.02 22.53l5.08 8.84zm-23.14 35.57L6.49 31.37 4.02 27.1l-20.54 35.56h-41.07l2.47 4.28h41.08zm-54-62.31l-5.11 8.84-21.88-37.85h-43.71l5.11-8.84h43.73l21.86 37.85zm-5.11 4.28l2.47-4.28-20.56-35.53h-41.08l-2.47 4.28h41.07l20.57 35.53zm12.83-17.66L-65.46.1l-21.85-37.85h-43.71l5.12-8.85h43.7l21.88 37.85zm-5.11 4.29l2.47-4.29-20.56-35.57h-41.08l-2.47 4.29H-86l20.57 35.57zm20.53-4.29L-66.77 29.1h-10.21l21.85-37.86-21.85-37.84h10.21L-44.9-8.75zm-23.18 35.57l20.53-35.57-20.53-35.57h-4.95l20.54 35.57-20.54 35.57h4.95zm-93.94-19.93l-5.11 8.84h-43.7L-221-1.9v-17.67l15.27 26.46h43.71zm-6.42 6.56l2.47-4.28h-41.07l-11.68-20.22v8.56l9.2 15.94h41.08zM-75.79 18l-5.11 8.84-21.85-37.85h-43.71l5.11-8.84h43.7L-75.79 18zm-5.11 4.28l2.47-4.28-20.53-35.57h-41.08l-2.47 4.28h41.07l20.54 35.57zm51.43-31L-51.33 29.1h-10.21l21.86-37.86-21.86-37.84h10.21l21.86 37.88zm-23.17 35.54l20.53-35.57-20.53-35.57h-4.95l20.54 35.57-20.54 35.57h4.95zm-117.1-6.56l-5.11 8.84h-43.7l-2.45-4.24V7.18l7.55 13.08h43.71zm-6.42 6.56l2.47-4.28h-41.08l-3.95-6.85v8.56l1.48 2.57h41.08zM38.7-46.6L16.85-8.75 38.7 29.1H28.49L6.63-8.75 28.49-46.6H38.7zM14.21-8.75l20.54-35.57h-4.94L9.27-8.75l20.54 35.57h4.94L14.21-8.75zM54.1 29.1H43.93L22.1-8.75 43.93-46.6H54.1L32.29-8.75 54.1 29.1zM41.63-29.5l8.56-14.82h-4.94L24.71-8.75l20.54 35.57h4.94L29.65-8.75 41.63-29.5zM-14.03-8.75L-35.9 29.1h-10.2l21.86-37.86L-46.1-46.6h10.2l21.87 37.85zM-37.2 26.82l20.53-35.57-20.53-35.57h-4.95l20.54 35.57-20.54 35.57h4.95zM23.26-46.6L1.41-8.75 23.26 29.1H13.1L-8.8-8.75 13.1-46.6h10.16zM-1.23-8.75l20.54-35.57h-5L-6.17-8.75l20.53 35.57h5L-1.23-8.75zm-213.53 267.44L-221 269.5v-21.64l6.24 10.83zm-4 2.3l1.33-2.3-1.33-2.31v4.61zm11.72-15.68l-5.1 8.85-8.86-15.35V221.1l13.96 24.21zm-4.53 3.29l1.9-3.29-9-15.68v8.57l6.58 11.4.52-1zm12.25-16.66l-5.1 8.85L-221 212.1v-17.72l21.68 37.56zm-5.1 4.28l2.52-4.28-16.77-29.05v8.57l14.25 24.76zm34.68-55.5l-5.11 8.84h-43.7l-2.45-4.24v-17.68l7.55 13.08h43.71zm-6.42 6.56l2.47-4.28h-41.08l-3.95-6.85v8.56l1.48 2.57h41.08zm38.61 71.41l-8.35 14.51h-10.24l13.48-23.36 5.11 8.85zm-9.7 12.23l7.06-12.23-2.47-4.29-9.53 16.52h4.94zm2-25.61l-16.12 27.89h-10.22l21.21-36.73 5.13 8.84zm-17.44 25.61l14.79-25.61-2.47-4.28-17.26 29.89h4.94zm-44.35-186.07l-5.1 8.85-8.86-15.35V60.66l13.96 24.19zm-4.53 3.25l1.9-3.29-9-15.67v8.56l6.53 11.4.57-1zm49.55 79.21l-5.11 8.84h-43.7L-221 158.58v-17.69l15.27 26.46 43.71-.04zm-6.42 6.56l2.47-4.28h-41.07l-11.68-20.19v8.57l9.2 15.94 41.08-.04zm-30.88-102.39l-5.1 8.85L-221 51.61V33.92l21.68 37.56zm-5.1 4.29l2.52-4.29-16.77-29V51l14.25 24.77zm-10.34 22.46L-221 109.1V87.41l6.24 10.82zm-4 2.3l1.33-2.3-1.33-2.31v4.61zm64.46 53.45l-5.11 8.84h-43.7l-17.89-31v-17.67l23 39.83h43.7zm-6.42 6.56l2.47-4.28h-41.08l-19.39-33.6v8.57l16.92 29.31h41.08zm628.46 2.28h-43.71l-21.85 37.85-5.08-8.84 21.86-37.85h43.7l5.08 8.84zm-65.56 33.28l20.54-35.57h41.07l-2.47-4.28h-41.08l-20.53 35.58 2.47 4.27zm97.75-31l-5.11 8.85-21.85-37.85h-43.71l5.11-8.85h43.73l21.83 37.85zm-5.11 4.29l2.47-4.29-20.53-35.59h-41.08l-2.47 4.29h41.07l20.54 35.59zm28.28-17.68l-21.86 37.85h-10.22l21.85-37.85-21.85-37.85h10.21l21.87 37.85zm-23.17 35.57l20.53-35.57-20.54-35.61h-4.95l20.54 35.57-20.54 35.57 4.96.04zm7.73-35.57l-5.11 8.85-21.86-37.85h-43.71l5.12-8.85h43.7l21.86 37.85zm-5.11 4.28l2.47-4.28-20.54-35.61H443.4l-2.47 4.28H482l20.55 35.61zm50.12-82.24l-5.11 8.84h-43.7l-21.87-37.85 5.11-8.84 21.85 37.85h43.72zm-6.42 6.56l2.47-4.28h-41.08L487.1 40.46l-2.47 4.28 20.54 35.57h41.08zm-7.71 71.4l-21.86 37.85h-10.22l21.86-37.85-21.86-37.85h10.21l21.87 37.85zm-23.17 35.57l20.53-35.57-20.54-35.61h-4.95l20.54 35.57-20.54 35.57 4.96.04zm38.61-35.57l-21.88 37.85h-10.2l21.86-37.85-21.86-37.85h10.2l21.88 37.85zm-23.18 35.57l20.53-35.57-20.53-35.61h-4.95l20.54 35.57-20.54 35.57 4.95.04zm30.89-22.18l-21.86 37.86H496.1l-5.08-8.86h43.71l21.85-37.85 5.11 8.85zm-23.17 35.57l20.58-35.57-2.47-4.28-20.53 35.55h-41.13l2.47 4.28 41.08.02zm-55.34-11.09h-43.71l-21.85 37.83-5.11-8.84 21.86-37.85h43.73l5.08 8.86zm-65.56 33.27l20.54-35.57h41.07l-2.47-4.28h-41.08l-20.53 35.57 2.47 4.28zm151.79-44.39l-21.86 37.85h-43.7l-5.11-8.85h43.71l21.85-37.85 5.11 8.85zm-23.17 35.57l20.53-35.57-2.47-4.29-20.53 35.57h-41.08l2.47 4.29h41.08zm-70.78-37.84h-43.71l-21.85 37.85-5.11-8.84 21.86-37.85h43.7l5.11 8.84zm-65.56 33.29l20.54-35.57h41.07l-2.47-4.28h-41.08l-20.53 35.57 2.47 4.28zm-10.33 22.46l-21.86 37.85H367.5l21.85-37.85-21.85-37.84h10.21l21.86 37.84zm-23.17 35.57l20.53-35.57-20.53-35.57h-5l20.54 35.57-20.49 35.57h4.95zm168.54-19.93l-5.11 8.84H496.1l-21.86-37.85 5.11-8.84 21.85 37.85h43.74zm-6.42 6.52l2.47-4.28h-41.07l-20.54-35.57-2.47 4.28 20.54 35.57h41.07zm38.58-62.27l-21.86 37.85h-43.7l-5.11-8.85h43.71l21.85-37.85 5.11 8.85zm-23.14 35.57l20.53-35.57-2.47-4.28-20.54 35.55h-41.07l2.47 4.29 41.08.01zm68.14-118.07h-43.67l-21.85 37.85-5.11-8.84 21.86-37.85h43.7l5.07 8.84zm-65.52 33.29l20.52-35.52h41.07l-2.47-4.28h-41.05l-20.55 35.52 2.48 4.28zm65.52 46.94h-10.17l-21.83-37.85 21.85-37.85h10.15l-21.81 37.85 21.81 37.85zm-12.51-58.6l8.6-14.86h-4.94l-20.54 35.61 20.54 35.57h4.94l-20.54-35.57 11.94-20.75zM483.18 194.1l-21.85 37.85 21.85 37.85h-10.21l-21.87-37.86 21.87-37.84h10.21zm-24.49 37.84l20.54-35.57h-4.95l-20.53 35.57 20.53 35.57h4.95l-20.54-35.57zm-74.57 0l-21.85 37.85H352.1l21.85-37.85-21.85-37.84h10.17l21.85 37.84zm-23.16 35.57l20.53-35.57-20.53-35.57h-4.95l20.54 35.57-20.54 35.57h4.95zm54.05-35.57l-21.86 37.85h-10.21l21.85-37.85-21.85-37.84h10.21l21.86 37.84zm-23.18 35.57l20.54-35.57-20.54-35.57h-4.94l20.54 35.57-20.54 35.57h4.94zm60.47-73.41l-21.85 37.84 21.85 37.85h-10.2l-21.87-37.85 21.87-37.84h10.2zm-24.49 37.84l20.54-35.57h-5l-20.48 35.57 20.53 35.57h5l-20.59-35.57zm39.93 37.85h-10.21l-21.86-37.85 21.86-37.84h10.21l-21.85 37.84 21.85 37.85zm-24.49-37.85l20.54-35.57h-5l-20.48 35.57 20.53 35.57h5l-20.59-35.57zm49-53.48l-5.15 8.84-21.85-37.85h-43.71l5.11-8.84h43.7l21.9 37.85zm-5.15 4.28l2.47-4.28-20.53-35.57h-41.08l-2.47 4.28h41.07l20.54 35.57zM467.74 2.36h-43.71l-21.85 37.85-5.08-8.84 21.83-37.85h43.7l5.11 8.84zm-65.56 33.29L422.72.1h41.07l-2.47-4.28h-41.08l-20.53 35.55 2.47 4.28zm204.52 78.21l-21.85 37.85 21.85 37.85h-10.21l-21.86-37.85 21.86-37.85h10.21zm-8.89 73.42h4.94l-20.54-35.57 20.54-35.61h-4.94l-20.54 35.61 20.54 35.57zM569.41 18l-21.86 37.85h-43.7L498.74 47h43.71L564.3 9.15l5.11 8.85zm-23.17 35.57L566.77 18l-2.47-4.28-20.53 35.56h-41.08l2.47 4.29h41.08zM430.45 98.23l-21.86 37.87h-43.7l-5.11-8.85h43.71l21.85-37.87 5.11 8.85zm-23.17 35.57l20.53-35.57-2.47-4.29-20.54 35.57h-41.07l2.47 4.29h41.08zm75.9-104.7h-43.71l-21.85 37.86-5.11-8.86 21.86-37.84h43.73l5.08 8.84zm-65.56 33.29l20.54-35.57h41.07l-2.47-4.28h-41.08L415.15 58.1l2.47 4.29zm57.84-46.66h-43.71L409.9 53.58l-5.11-8.84 21.86-37.85h43.7l5.11 8.84zM409.9 49.02l20.54-35.57h41.07l-2.47-4.28h-41.08l-20.53 35.57 2.47 4.28zm196.8 33.57h-43.71l-21.89 37.85-5.1-8.84 21.85-37.85h43.7l5.15 8.84zm-65.6 33.29l20.54-35.57h41.07l-2.47-4.28H559.2l-20.53 35.57 2.43 4.28zM413.7-6.48l-5.11 8.84h-43.7l-17.89-31v-17.67l23 39.83h43.7zM407.28.1l2.47-4.28h-41.08L349.28-37.8v8.57L366.2.1h41.08zm207.14 95.86h-43.71l-21.85 37.85-5.1-8.84 21.85-37.87h43.7l5.11 8.86zm-65.56 33.29l20.54-35.57h41.07L608 89.4h-41.07l-20.54 35.57 2.47 4.28zm3.8 105l-5.11 8.85h-43.7l-21.86-37.9 5.11-8.85 21.85 37.86 43.71.04zm-6.42 6.56l2.47-4.28h-41.07l-20.54-35.61-2.47 4.28 20.54 35.57 41.07.04zM438.17 111.6l-21.86 37.85h-43.7l-5.11-8.84h43.71l21.89-37.86 5.07 8.85zM415 147.17l20.53-35.57-2.43-4.28-20.58 35.57h-41.07l2.47 4.28H415zM561.69 4.63l-21.86 37.85H496.1l-5.11-8.85h43.71l21.85-37.85 5.14 8.85zM538.52 40.2L559.1 4.63 556.63.34 536.1 35.91h-41.13l2.48 4.29h41.07zM399.57 71.48l-21.86 37.85H367.5l21.85-37.85-21.85-37.85h10.21l21.86 37.85zM376.4 107.1l20.53-35.62-20.53-35.57h-5l20.59 35.57-20.54 35.62h4.95zm7.7-35.62l-21.83 37.85H352.1l21.81-37.85-21.81-37.85h10.17l21.83 37.85zm-23.14 35.62l20.53-35.62-20.53-35.57h-4.95l20.54 35.57-20.54 35.62h4.95zm183.98-20l-5.11 8.84H496.1L474.27 58.1l5.11-8.84 21.85 37.84h43.71zm-6.42 6.56l2.47-4.28h-41.07l-20.54-35.55-2.47 4.27 20.54 35.57 41.07-.01zm52.74 20.18l-21.85 37.87 21.85 37.85H581.1l-21.9-37.85 21.9-37.85 10.16-.02zm-8.9 73.42h5l-20.59-35.55 20.54-35.61h-5l-20.48 35.61 20.53 35.55zM415.01 71.48l-21.86 37.85h-10.21l21.85-37.85-21.85-37.85h10.21l21.86 37.85zm-23.18 35.62l20.54-35.62-20.54-35.57h-4.94l20.54 35.57-20.54 35.62h4.94zm30.9-22.19l-21.86 37.8h-43.7l-5.07-8.85h43.67l21.85-37.85 5.11 8.9zm-23.17 35.51l20.54-35.56-2.47-4.29-20.53 35.53h-41.09l2.47 4.28 41.08.04zm52.74-86.79l-21.85 37.85 21.85 37.85h-10.2l-21.87-37.85 21.87-37.85h10.2zm-24.49 37.85l20.54-35.57h-5l-20.48 35.57 20.53 35.62h5l-20.59-35.62zm55.37-37.85l-21.85 37.85 21.85 37.85h-10.21L451.1 71.48l21.86-37.85h10.22zM471.1 50.1l8.18-14.17h-4.95l-20.58 35.55 20.53 35.62h4.95l-20.54-35.62L471.1 50.1zm66.17 50.41l-5.17 8.82h-43.7l-21.84-37.85 5.1-8.84 21.85 37.85 43.76.02zm-6.47 6.59l2.47-4.28H492.2L471.66 67.2l-2.47 4.28 20.53 35.62h41.08zm-63.06 2.28h-10.21l-21.86-37.9 21.86-37.85h10.21l-21.85 37.85 21.85 37.9zm-24.49-37.9l20.54-35.57h-5l-20.48 35.57 20.53 35.62h5l-20.59-35.62zm94 189.47l-5.15 8.84h-43.7l-21.85-37.85 5.1-8.84 21.85 37.85h43.75zm-6.42 6.56l2.47-4.28h-41.1l-20.54-35.57-2.47 4.28 20.53 35.57h41.11zm96.4-69.18v17.69l-7.55-13.08h-43.74l5.16-8.84h43.71l2.42 4.23zm-2.28 9.18v-8.57l-1.48-2.57h-41.11l-2.47 4.28h41.08l3.98 6.86zm2.28-35.92v17.69l-21.71-37.57 5.1-8.84 16.61 28.72zm-2.28 9.17v-8.56l-14.3-24.77-2.47 4.28 16.77 29.05zm2.28-35.92v17.69l-14-24.19 5.1-8.84 8.9 15.34zm-2.28 9.18v-8.56l-6.61-11.36-2.47 4.28 9.08 15.64zm2.28-62.66v17.74l-2.23-3.91-20.79-35.97H560.5l5.11-8.84h43.7l17.92 30.98zm-2.28 9.17v-8.56L608 62.66h-41.07l-2.48 4.28h41.07l19.43 33.59zm2.28 13.62v21.64l-6.24-10.82 6.24-10.82zm-2.28 13.13v-4.62l-1.33 2.31 1.33 2.31zm2.28-62.67V82.3l-15.3-26.45h-43.71l5.11-8.85h43.7l10.2 17.61zm-2.28 9.18v-8.56l-9.2-15.95h-41.1l-2.48 4.29h41.08l11.7 20.22zm-10.5 182.63h-43.74l-9.68 16.78h-10.21l14.79-25.62h43.7l5.14 8.84zm-54.71 14.5l9.66-16.82h41.07l-2.47-4.28h-41.07l-12.16 21.06 4.97.04zm47-27.87h-43.75l-17.4 30.15h-10.21l22.51-39h43.7l5.15 8.85zm-62.43 27.87l17.41-30.15h41.07l-2.47-4.28H559.2l-19.87 34.43h4.98zm82.89-45.82v17.69l-15.27-26.45h-43.71l5.11-8.85h43.7l10.17 17.61zm-2.28 9.18v-8.57l-9.2-15.94h-41.07l-2.48 4.29h41.08l11.67 20.22zm-2.82 35.51h-43.67l-2 3.41h-10.17l7.07-12.25h43.7l5.07 8.84zm-47 1.13l2-3.41h41.07l-2.47-4.28h-41.05l-4.44 7.69h4.89zm52.05-19.1v17.73l-2.23-3.92-20.76-35.95H560.5l5.11-8.85h43.7l17.84 30.99zm-2.28 9.17v-8.56L608 223.1h-41.07l-2.48 4.29h41.07l19.35 33.6zM627.2 11.1v17.69L605.52-8.75l5.1-8.84L627.2 11.1zm-2.28 9.17v-8.56l-14.3-24.77-2.47 4.28 16.77 29.05zM438.82-50l-22.51 39h-43.7l-5.11-8.85h43.71L428.61-50h10.21zM415-13.29l19.87-34.43h-4.94l-17.41 30.15h-41.07l2.47 4.28H415zM546.9-50l-5.76 10-5.76-10h11.52zm-5.8 5.42l1.81-3.14h-3.62l1.81 3.14zM562.31-50l-13.45 23.35-5.1-8.84L552.1-50h10.21zm-13.45 18.79l9.54-16.51h-5l-7.06 12.23 2.52 4.28zM407.94-50l-7.07 12.25h-43.7l-5.07-8.85h43.67l2-3.4h10.17zm-8.38 10l4.43-7.69h-4.89l-2 3.4h-41.09l2.47 4.29h41.08zm23.82-10l-14.79 25.62h-43.7l-5.11-8.84h43.71L413.17-50h10.21zm-16.1 23.34l12.15-21.06h-4.94L404.8-30.9h-41.07l2.47 4.24h41.08zM577.79-50l-21.21 36.73-5.11-8.85L567.57-50h10.22zm-21.21 32.16l17.26-29.88h-5l-14.74 25.6 2.48 4.28zM438.82 273.2H427.3l5.76-10 5.76 10zm-7.57-2.28h3.62l-1.77-3.15-1.85 3.15zm196-286.53V2.1l-14-24.19 5.1-8.84 8.9 15.32zm-2.28 9.17V-15l-6.58-11.4-2.47 4.28 9.05 15.68zm2.28-39.87v21.64l-6.24-10.82 6.24-10.82zm-2.28 13.13v-4.61l-1.33 2.3 1.33 2.31zm2.28 71.05v17.69l-7.6-13.08h-43.71l5.16-8.85h43.71l2.44 4.24zm-2.33 9.23v-8.57l-1.48-2.57h-41.08l-2.47 4.29h41.08l3.95 6.85zM577.1 31.37l-21.83 37.85h-43.7l-5.11-8.84h43.71l21.85-37.85 5.08 8.84zm-23.14 35.57l20.53-35.57-2.47-4.27-20.54 35.56h-41.07l2.47 4.28h41.08zm-54-62.31l-5.11 8.84-21.88-37.85h-43.71l5.11-8.84h43.73l21.86 37.85zm-5.11 4.28l2.47-4.28-20.56-35.53h-41.08l-2.47 4.28h41.07l20.57 35.53zm12.83-17.66L502.54.1l-21.85-37.85h-43.71l5.12-8.85h43.7l21.88 37.85zm-5.11 4.29l2.47-4.29-20.56-35.57H443.4l-2.47 4.29H482l20.57 35.57zm20.53-4.29L501.23 29.1h-10.21l21.85-37.86-21.85-37.84h10.21L523.1-8.75zm-23.18 35.57l20.53-35.57-20.53-35.57h-4.95l20.54 35.57-20.54 35.57h4.95zM405.98 6.89l-5.11 8.84h-43.7L347-1.9v-17.67l15.27 26.46h43.71zm-6.42 6.56l2.47-4.28h-41.07l-11.68-20.22v8.56l9.2 15.94h41.08zM492.21 18l-5.11 8.84-21.85-37.85h-43.71l5.11-8.84h43.7L492.21 18zm-5.11 4.28l2.47-4.28-20.53-35.57h-41.08l-2.47 4.28h41.07l20.54 35.57zm51.43-31L516.67 29.1h-10.21l21.86-37.86-21.86-37.84h10.21l21.86 37.88zm-23.17 35.54l20.53-35.57-20.53-35.57h-4.95l20.54 35.57-20.54 35.57h4.95zm-117.1-6.56l-5.11 8.84h-43.7L347 24.86V7.18l7.55 13.08h43.71zm-6.42 6.56l2.47-4.28h-41.08l-3.95-6.85v8.56l1.48 2.57h41.08zM606.7-46.6L584.85-8.75 606.7 29.1h-10.21L574.63-8.75l21.86-37.85h10.21zM582.21-8.75l20.54-35.57h-4.94L577.27-8.75l20.54 35.57h4.94L582.21-8.75zM622.1 29.1h-10.17L590.1-8.75l21.83-37.85h10.17L600.29-8.75 622.1 29.1zm-12.47-58.6l8.56-14.82h-4.94L592.71-8.75l20.54 35.57h4.94L597.65-8.75l11.98-20.75zM553.97-8.75L532.1 29.1h-10.2l21.86-37.86L521.9-46.6h10.2l21.87 37.85zM530.8 26.82l20.53-35.57-20.53-35.57h-4.95l20.54 35.57-20.54 35.57h4.95zm60.46-73.42L569.41-8.75l21.85 37.85H581.1L559.2-8.75l21.9-37.85h10.16zM566.77-8.75l20.54-35.57h-5L561.83-8.75l20.53 35.57h5L566.77-8.75zM353.24 258.69L347 269.5v-21.64l6.24 10.83zm-4 2.3l1.33-2.3-1.33-2.31v4.61zm11.72-15.68l-5.1 8.85-8.86-15.35V221.1l13.96 24.21zm-4.53 3.29l1.9-3.29-9-15.68v8.57l6.58 11.4.52-1zm12.25-16.66l-5.1 8.85L347 212.1v-17.72l21.68 37.56zm-5.1 4.28l2.52-4.28-16.77-29.05v8.57l14.25 24.76zm34.68-55.5l-5.11 8.84h-43.7l-2.45-4.24v-17.68l7.55 13.08h43.71zm-6.42 6.56l2.47-4.28h-41.08l-3.95-6.85v8.56l1.48 2.57h41.08zm38.61 71.41l-8.35 14.51h-10.24l13.48-23.36 5.11 8.85zm-9.7 12.23l7.06-12.23-2.47-4.29-9.53 16.52h4.94zm2-25.61l-16.12 27.89h-10.22l21.21-36.73 5.13 8.84zm-17.44 25.61l14.79-25.61-2.47-4.28-17.26 29.89h4.94zM360.96 84.85l-5.1 8.85L347 78.35V60.66l13.96 24.19zm-4.53 3.25l1.9-3.29-9-15.67v8.56l6.53 11.4.57-1zm49.55 79.21l-5.11 8.84h-43.7L347 158.58v-17.69l15.27 26.46 43.71-.04zm-6.42 6.56l2.47-4.28h-41.07l-11.68-20.19v8.57l9.2 15.94 41.08-.04zM368.68 71.48l-5.1 8.85L347 51.61V33.92l21.68 37.56zm-5.1 4.29l2.52-4.29-16.77-29V51l14.25 24.77zm-10.34 22.46L347 109.1V87.41l6.24 10.82zm-4 2.3l1.33-2.3-1.33-2.31v4.61zm64.46 53.45l-5.11 8.84h-43.7l-17.89-31v-17.67l23 39.83h43.7zm-6.42 6.56l2.47-4.28h-41.08l-19.39-33.6v8.57l16.92 29.31h41.08zm628.46 2.28h-43.71l-21.85 37.85-5.08-8.84 21.86-37.85h43.7l5.08 8.84zm-65.56 33.28l20.54-35.57h41.07l-2.47-4.28h-41.08l-20.53 35.58 2.47 4.27zm97.75-31l-5.11 8.85-21.85-37.85h-43.71l5.11-8.85h43.73l21.83 37.85zm-5.11 4.29l2.47-4.29-20.53-35.59h-41.08l-2.47 4.29h41.07l20.54 35.59zm28.28-17.68l-21.86 37.85h-10.22l21.85-37.85-21.85-37.85h10.21l21.87 37.85zm-23.17 35.57l20.53-35.57-20.54-35.61h-4.95l20.54 35.57-20.54 35.57 4.96.04zm7.73-35.57l-5.11 8.85-21.86-37.85h-43.71l5.12-8.85h43.7l21.86 37.85zm-5.11 4.28l2.47-4.28-20.54-35.61h-41.08l-2.47 4.28H1050l20.55 35.61zm50.12-82.24l-5.11 8.84h-43.7l-21.87-37.85 5.11-8.84 21.85 37.85h43.72zm-6.42 6.56l2.47-4.28h-41.08l-20.54-35.57-2.47 4.28 20.54 35.57h41.08zm-7.71 71.4l-21.86 37.85h-10.22l21.86-37.85-21.86-37.85h10.21l21.87 37.85zm-23.17 35.57l20.53-35.57-20.54-35.61h-4.95l20.54 35.57-20.54 35.57 4.96.04zm38.61-35.57l-21.88 37.85h-10.2l21.86-37.85-21.86-37.85h10.2l21.88 37.85zm-23.18 35.57l20.53-35.57-20.53-35.61h-4.95l20.54 35.57-20.54 35.57 4.95.04zm30.89-22.18l-21.86 37.86h-43.73l-5.08-8.86h43.71l21.85-37.85 5.11 8.85zm-23.17 35.57l20.58-35.57-2.47-4.28-20.53 35.55h-41.13l2.47 4.28 41.08.02zm-55.34-11.09h-43.71l-21.85 37.83-5.11-8.84 21.86-37.85h43.73l5.08 8.86zm-65.56 33.27l20.54-35.57h41.07l-2.47-4.28h-41.08l-20.53 35.57 2.47 4.28zm151.79-44.39l-21.86 37.85h-43.7l-5.11-8.85h43.71l21.85-37.85 5.11 8.85zm-23.17 35.57l20.53-35.57-2.47-4.29-20.53 35.57h-41.08l2.47 4.29h41.08zm-70.78-37.84h-43.71l-21.85 37.85-5.11-8.84 21.86-37.85h43.7l5.11 8.84zm-65.56 33.29l20.54-35.57h41.07l-2.47-4.28h-41.08l-20.53 35.57 2.47 4.28zm-10.33 22.46l-21.86 37.85H935.5l21.85-37.85-21.85-37.84h10.21l21.86 37.84zm-23.17 35.57l20.53-35.57-20.53-35.57h-5l20.54 35.57-20.49 35.57h4.95zm168.54-19.93l-5.11 8.84h-43.73l-21.86-37.85 5.11-8.84 21.85 37.85h43.74zm-6.42 6.52l2.47-4.28h-41.07l-20.54-35.57-2.47 4.28 20.54 35.57h41.07zm38.58-62.27l-21.86 37.85h-43.7l-5.11-8.85h43.71l21.85-37.85 5.11 8.85zm-23.14 35.57l20.53-35.57-2.47-4.28-20.54 35.55h-41.07l2.47 4.29 41.08.01zm68.14-118.07h-43.67l-21.85 37.85-5.11-8.84 21.86-37.85h43.7l5.07 8.84zm-65.52 33.29l20.52-35.52h41.07l-2.47-4.28h-41.05l-20.55 35.52 2.48 4.28zm65.52 46.94h-10.17l-21.83-37.85 21.85-37.85h10.15l-21.81 37.85 21.81 37.85zm-12.51-58.6l8.6-14.86h-4.94l-20.54 35.61 20.54 35.57h4.94l-20.54-35.57 11.94-20.75zm-126.41 63.14l-21.85 37.85 21.85 37.85h-10.21l-21.87-37.86 21.87-37.84h10.21zm-24.49 37.84l20.54-35.57h-4.95l-20.53 35.57 20.53 35.57h4.95l-20.54-35.57zm-74.57 0l-21.85 37.85H920.1l21.85-37.85-21.85-37.84h10.17l21.85 37.84zm-23.16 35.57l20.53-35.57-20.53-35.57h-4.95l20.54 35.57-20.54 35.57h4.95zm54.05-35.57l-21.86 37.85h-10.21l21.85-37.85-21.85-37.84h10.21l21.86 37.84zm-23.18 35.57l20.54-35.57-20.54-35.57h-4.94l20.54 35.57-20.54 35.57h4.94zm60.47-73.41l-21.85 37.84 21.85 37.85h-10.2l-21.87-37.85 21.87-37.84h10.2zm-24.49 37.84l20.54-35.57h-5l-20.48 35.57 20.53 35.57h5l-20.59-35.57zm39.93 37.85h-10.21l-21.86-37.85 21.86-37.84h10.21l-21.85 37.84 21.85 37.85zm-24.49-37.85l20.54-35.57h-5l-20.48 35.57 20.53 35.57h5l-20.59-35.57zm49-53.48l-5.15 8.84-21.85-37.85h-43.71l5.11-8.84h43.7l21.9 37.85zm-5.15 4.28l2.47-4.28-20.53-35.57h-41.08l-2.47 4.28h41.07l20.54 35.57zM1035.74 2.36h-43.71l-21.85 37.85-5.08-8.84 21.83-37.85h43.7l5.11 8.84zm-65.56 33.29L990.72.1h41.07l-2.47-4.28h-41.08l-20.53 35.55 2.47 4.28zm204.52 78.21l-21.85 37.85 21.85 37.85h-10.21l-21.86-37.85 21.86-37.85h10.21zm-8.89 73.42h4.94l-20.54-35.57 20.54-35.61h-4.94l-20.54 35.61 20.54 35.57zM1137.41 18l-21.86 37.85h-43.7l-5.11-8.85h43.71l21.85-37.85 5.11 8.85zm-23.17 35.57L1134.77 18l-2.47-4.28-20.53 35.56h-41.08l2.47 4.29h41.08zM998.45 98.23l-21.86 37.87h-43.7l-5.11-8.85h43.71l21.85-37.87 5.11 8.85zm-23.17 35.57l20.53-35.57-2.47-4.29-20.54 35.57h-41.07l2.47 4.29h41.08zm75.9-104.7h-43.71l-21.85 37.86-5.11-8.86 21.86-37.84h43.73l5.08 8.84zm-65.56 33.29l20.54-35.57h41.07l-2.47-4.28h-41.08L983.15 58.1l2.47 4.29zm57.84-46.66h-43.71L977.9 53.58l-5.11-8.84 21.86-37.85h43.7l5.11 8.84zM977.9 49.02l20.54-35.57h41.07l-2.47-4.28h-41.08l-20.53 35.57 2.47 4.28zm196.8 33.57h-43.71l-21.89 37.85-5.1-8.84 21.85-37.85h43.7l5.15 8.84zm-65.6 33.29l20.54-35.57h41.07l-2.47-4.28h-41.04l-20.53 35.57 2.43 4.28zM981.7-6.48l-5.11 8.84h-43.7l-17.89-31v-17.67l23 39.83h43.7zM975.28.1l2.47-4.28h-41.08L917.28-37.8v8.57L934.2.1h41.08zm207.14 95.86h-43.71l-21.85 37.85-5.1-8.84 21.85-37.87h43.7l5.11 8.86zm-65.56 33.29l20.54-35.57h41.07L1176 89.4h-41.07l-20.54 35.57 2.47 4.28zm3.8 105l-5.11 8.85h-43.7l-21.86-37.9 5.11-8.85 21.85 37.86 43.71.04zm-6.42 6.56l2.47-4.28h-41.07l-20.54-35.61-2.47 4.28 20.54 35.57 41.07.04zM1006.17 111.6l-21.86 37.85h-43.7l-5.11-8.84h43.71l21.89-37.86 5.07 8.85zM983 147.17l20.53-35.57-2.43-4.28-20.58 35.57h-41.07l2.47 4.28H983zM1129.69 4.63l-21.86 37.85h-43.73l-5.11-8.85h43.71l21.85-37.85 5.14 8.85zm-23.17 35.57l20.58-35.57-2.47-4.29-20.53 35.57h-41.13l2.48 4.29h41.07zM967.57 71.48l-21.86 37.85H935.5l21.85-37.85-21.85-37.85h10.21l21.86 37.85zM944.4 107.1l20.53-35.62-20.53-35.57h-5l20.59 35.57-20.54 35.62h4.95zm7.7-35.62l-21.83 37.85H920.1l21.81-37.85-21.81-37.85h10.17l21.83 37.85zm-23.14 35.62l20.53-35.62-20.53-35.57h-4.95l20.54 35.57-20.54 35.62h4.95zm183.98-20l-5.11 8.84h-43.73l-21.83-37.84 5.11-8.84 21.85 37.84h43.71zm-6.42 6.56l2.47-4.28h-41.07l-20.54-35.55-2.47 4.27 20.54 35.57 41.07-.01zm52.74 20.18l-21.85 37.87 21.85 37.85h-10.16l-21.9-37.85 21.9-37.85 10.16-.02zm-8.9 73.42h5l-20.59-35.55 20.54-35.61h-5l-20.48 35.61 20.53 35.55zM983.01 71.48l-21.86 37.85h-10.21l21.85-37.85-21.85-37.85h10.21l21.86 37.85zm-23.18 35.62l20.54-35.62-20.54-35.57h-4.94l20.54 35.57-20.54 35.62h4.94zm30.9-22.19l-21.86 37.8h-43.7l-5.07-8.85h43.67l21.85-37.85 5.11 8.9zm-23.17 35.51l20.54-35.56-2.47-4.29-20.53 35.53h-41.09l2.47 4.28 41.08.04zm52.74-86.79l-21.85 37.85 21.85 37.85h-10.2l-21.87-37.85 21.87-37.85h10.2zm-24.49 37.85l20.54-35.57h-5l-20.48 35.57 20.53 35.62h5l-20.59-35.62zm55.37-37.85l-21.85 37.85 21.85 37.85h-10.21l-21.87-37.85 21.86-37.85h10.22zM1039.1 50.1l8.18-14.17h-4.95l-20.58 35.55 20.53 35.62h4.95l-20.54-35.62 12.41-21.38zm66.17 50.41l-5.17 8.82h-43.7l-21.84-37.85 5.1-8.84 21.85 37.85 43.76.02zm-6.47 6.59l2.47-4.28h-41.07l-20.54-35.62-2.47 4.28 20.53 35.62h41.08zm-63.06 2.28h-10.21l-21.86-37.9 21.86-37.85h10.21l-21.85 37.85 21.85 37.9zm-24.49-37.9l20.54-35.57h-5l-20.48 35.57 20.53 35.62h5l-20.59-35.62zm94 189.47l-5.15 8.84h-43.7l-21.85-37.85 5.1-8.84 21.85 37.85h43.75zm-6.42 6.56l2.47-4.28h-41.1l-20.54-35.57-2.47 4.28 20.53 35.57h41.11zm96.4-69.18v17.69l-7.55-13.08h-43.74l5.16-8.84h43.71l2.42 4.23zm-2.28 9.18v-8.57l-1.48-2.57h-41.11l-2.47 4.28h41.08l3.98 6.86zm2.28-35.92v17.69l-21.71-37.57 5.1-8.84 16.61 28.72zm-2.28 9.17v-8.56l-14.3-24.77-2.47 4.28 16.77 29.05zm2.28-35.92v17.69l-14-24.19 5.1-8.84 8.9 15.34zm-2.28 9.18v-8.56l-6.61-11.36-2.47 4.28 9.08 15.64zm2.28-62.66v17.74l-2.23-3.91-20.79-35.97h-43.71l5.11-8.84h43.7l17.92 30.98zm-2.28 9.17v-8.56L1176 62.66h-41.07l-2.48 4.28h41.07l19.43 33.59zm2.28 13.62v21.64l-6.24-10.82 6.24-10.82zm-2.28 13.13v-4.62l-1.33 2.31 1.33 2.31zm2.28-62.67V82.3l-15.3-26.45h-43.71l5.11-8.85h43.7l10.2 17.61zm-2.28 9.18v-8.56l-9.2-15.95h-41.1l-2.48 4.29h41.08l11.7 20.22zm-10.5 182.63h-43.74l-9.68 16.78h-10.21l14.79-25.62h43.7l5.14 8.84zm-54.71 14.5l9.66-16.82h41.07l-2.47-4.28h-41.07l-12.16 21.06 4.97.04zm47-27.87h-43.75l-17.4 30.15h-10.21l22.51-39h43.7l5.15 8.85zm-62.43 27.87l17.41-30.15h41.07l-2.47-4.28h-41.12l-19.87 34.43h4.98zm82.89-45.82v17.69l-15.27-26.45h-43.71l5.11-8.85h43.7l10.17 17.61zm-2.28 9.18v-8.57l-9.2-15.94h-41.07l-2.48 4.29h41.08l11.67 20.22zm-2.82 35.51h-43.67l-2 3.41h-10.17l7.07-12.25h43.7l5.07 8.84zm-47 1.13l2-3.41h41.07l-2.47-4.28h-41.05l-4.44 7.69h4.89zm52.05-19.1v17.73l-2.23-3.92-20.76-35.95h-43.66l5.11-8.85h43.7l17.84 30.99zm-2.28 9.17v-8.56L1176 223.1h-41.07l-2.48 4.29h41.07l19.35 33.6zm2.33-249.89v17.69l-21.68-37.54 5.1-8.84 16.58 28.69zm-2.28 9.17v-8.56l-14.3-24.77-2.47 4.28 16.77 29.05zM1006.82-50l-22.51 39h-43.7l-5.11-8.85h43.71L996.61-50h10.21zM983-13.29l19.87-34.43h-4.94l-17.41 30.15h-41.07l2.47 4.28H983zM1114.9-50l-5.76 10-5.76-10h11.52zm-5.8 5.42l1.81-3.14h-3.62l1.81 3.14zm21.21-5.42l-13.45 23.35-5.1-8.84L1120.1-50h10.21zm-13.45 18.79l9.54-16.51h-5l-7.06 12.23 2.52 4.28zM975.94-50l-7.07 12.25h-43.7l-5.07-8.85h43.67l2-3.4h10.17zm-8.38 10l4.43-7.69h-4.89l-2 3.4h-41.09l2.47 4.29h41.08zm23.82-10l-14.79 25.62h-43.7l-5.11-8.84h43.71L981.17-50h10.21zm-16.1 23.34l12.15-21.06h-4.94L972.8-30.9h-41.07l2.47 4.24h41.08zM1145.79-50l-21.21 36.73-5.11-8.85 16.1-27.88h10.22zm-21.21 32.16l17.26-29.88h-5l-14.74 25.6 2.48 4.28zM1006.82 273.2H995.3l5.76-10 5.76 10zm-7.57-2.28h3.62l-1.77-3.15-1.85 3.15zm196-286.53V2.1l-14-24.19 5.1-8.84 8.9 15.32zm-2.28 9.17V-15l-6.58-11.4-2.47 4.28 9.05 15.68zm2.28-39.87v21.64l-6.24-10.82 6.24-10.82zm-2.28 13.13v-4.61l-1.33 2.3 1.33 2.31zm2.28 71.05v17.69l-7.6-13.08h-43.71l5.16-8.85h43.71l2.44 4.24zm-2.33 9.23v-8.57l-1.48-2.57h-41.08l-2.47 4.29h41.08l3.95 6.85zm-47.82-15.73l-21.83 37.85h-43.7l-5.11-8.84h43.71l21.85-37.85 5.08 8.84zm-23.14 35.57l20.53-35.57-2.47-4.27-20.54 35.56h-41.07l2.47 4.28h41.08zm-54-62.31l-5.11 8.84-21.88-37.85h-43.71l5.11-8.84h43.73l21.86 37.85zm-5.11 4.28l2.47-4.28-20.56-35.53h-41.08l-2.47 4.28h41.07l20.57 35.53zm12.83-17.66L1070.54.1l-21.85-37.85h-43.71l5.12-8.85h43.7l21.88 37.85zm-5.11 4.29l2.47-4.29-20.56-35.57h-41.08l-2.47 4.29H1050l20.57 35.57zm20.53-4.29l-21.87 37.85h-10.21l21.85-37.86-21.85-37.84h10.21l21.87 37.85zm-23.18 35.57l20.53-35.57-20.53-35.57h-4.95l20.54 35.57-20.54 35.57h4.95zM973.98 6.89l-5.11 8.84h-43.7L915-1.9v-17.67l15.27 26.46h43.71zm-6.42 6.56l2.47-4.28h-41.07l-11.68-20.22v8.56l9.2 15.94h41.08zm92.65 4.55l-5.11 8.84-21.85-37.85h-43.71l5.11-8.84h43.7L1060.21 18zm-5.11 4.28l2.47-4.28-20.53-35.57h-41.08l-2.47 4.28h41.07l20.54 35.57zm51.43-31l-21.86 37.82h-10.21l21.86-37.86-21.86-37.84h10.21l21.86 37.88zm-23.17 35.54l20.53-35.57-20.53-35.57h-4.95l20.54 35.57-20.54 35.57h4.95zm-117.1-6.56l-5.11 8.84h-43.7L915 24.86V7.18l7.55 13.08h43.71zm-6.42 6.56l2.47-4.28h-41.08l-3.95-6.85v8.56l1.48 2.57h41.08zM1174.7-46.6l-21.85 37.85 21.85 37.85h-10.21l-21.86-37.85 21.86-37.85h10.21zm-24.49 37.85l20.54-35.57h-4.94l-20.54 35.57 20.54 35.57h4.94l-20.54-35.57zm39.89 37.85h-10.17L1158.1-8.75l21.83-37.85h10.17l-21.81 37.85 21.81 37.85zm-12.47-58.6l8.56-14.82h-4.94l-20.54 35.57 20.54 35.57h4.94l-20.54-35.57 11.98-20.75zm-55.66 20.75L1100.1 29.1h-10.2l21.86-37.86-21.86-37.84h10.2l21.87 37.85zm-23.17 35.57l20.53-35.57-20.53-35.57h-4.95l20.54 35.57-20.54 35.57h4.95zm60.46-73.42l-21.85 37.85 21.85 37.85h-10.16l-21.9-37.85 21.9-37.85h10.16zm-24.49 37.85l20.54-35.57h-5l-20.48 35.57 20.53 35.57h5l-20.59-35.57zM921.24 258.69L915 269.5v-21.64l6.24 10.83zm-4 2.3l1.33-2.3-1.33-2.31v4.61zm11.72-15.68l-5.1 8.85-8.86-15.35V221.1l13.96 24.21zm-4.53 3.29l1.9-3.29-9-15.68v8.57l6.58 11.4.52-1zm12.25-16.66l-5.1 8.85L915 212.1v-17.72l21.68 37.56zm-5.1 4.28l2.52-4.28-16.77-29.05v8.57l14.25 24.76zm34.68-55.5l-5.11 8.84h-43.7l-2.45-4.24v-17.68l7.55 13.08h43.71zm-6.42 6.56l2.47-4.28h-41.08l-3.95-6.85v8.56l1.48 2.57h41.08zm38.61 71.41l-8.35 14.51h-10.24l13.48-23.36 5.11 8.85zm-9.7 12.23l7.06-12.23-2.47-4.29-9.53 16.52h4.94zm2-25.61l-16.12 27.89h-10.22l21.21-36.73 5.13 8.84zm-17.44 25.61l14.79-25.61-2.47-4.28-17.26 29.89h4.94zM928.96 84.85l-5.1 8.85L915 78.35V60.66l13.96 24.19zm-4.53 3.25l1.9-3.29-9-15.67v8.56l6.53 11.4.57-1zm49.55 79.21l-5.11 8.84h-43.7L915 158.58v-17.69l15.27 26.46 43.71-.04zm-6.42 6.56l2.47-4.28h-41.07l-11.68-20.19v8.57l9.2 15.94 41.08-.04zM936.68 71.48l-5.1 8.85L915 51.61V33.92l21.68 37.56zm-5.1 4.29l2.52-4.29-16.77-29V51l14.25 24.77zm-10.34 22.46L915 109.1V87.41l6.24 10.82zm-4 2.3l1.33-2.3-1.33-2.31v4.61zm64.46 53.45l-5.11 8.84h-43.7l-17.89-31v-17.67l23 39.83h43.7zm-6.42 6.56l2.47-4.28h-41.08l-19.39-33.6v8.57l16.92 29.31h41.08zm344.46 2.28h-43.71l-21.85 37.85-5.08-8.84 21.86-37.85h43.7l5.08 8.84zm-65.56 33.28l20.54-35.57h41.07l-2.47-4.28h-41.08l-20.53 35.58 2.47 4.27zm97.75-31l-5.11 8.85-21.85-37.85h-43.71l5.11-8.85h43.73l21.83 37.85zm-5.11 4.29l2.47-4.29-20.53-35.59h-41.08l-2.47 4.29h41.07l20.54 35.59zm28.28-17.68l-21.86 37.85h-10.22l21.85-37.85-21.85-37.85h10.21l21.87 37.85zm-23.17 35.57l20.53-35.57-20.54-35.61h-4.95l20.54 35.57-20.54 35.57 4.96.04zm7.73-35.57l-5.11 8.85-21.86-37.85h-43.71l5.12-8.85h43.7l21.86 37.85zm-5.11 4.28l2.47-4.28-20.54-35.61h-41.08l-2.47 4.28H1334l20.55 35.61zm50.12-82.24l-5.11 8.84h-43.7l-21.87-37.85 5.11-8.84 21.85 37.85h43.72zm-6.42 6.56l2.47-4.28h-41.08l-20.54-35.57-2.47 4.28 20.54 35.57h41.08zm-7.71 71.4l-21.86 37.85h-10.22l21.86-37.85-21.86-37.85h10.21l21.87 37.85zm-23.17 35.57l20.53-35.57-20.54-35.61h-4.95l20.54 35.57-20.54 35.57 4.96.04zm38.61-35.57l-21.88 37.85h-10.2l21.86-37.85-21.86-37.85h10.2l21.88 37.85zm-23.18 35.57l20.53-35.57-20.53-35.61h-4.95l20.54 35.57-20.54 35.57 4.95.04zm30.89-22.18l-21.86 37.86h-43.73l-5.08-8.86h43.71l21.85-37.85 5.11 8.85zm-23.17 35.57l20.58-35.57-2.47-4.28-20.53 35.55h-41.13l2.47 4.28 41.08.02zm-55.34-11.09h-43.71l-21.85 37.83-5.11-8.84 21.86-37.85h43.73l5.08 8.86zm-65.56 33.27l20.54-35.57h41.07l-2.47-4.28h-41.08l-20.53 35.57 2.47 4.28zm151.79-44.39l-21.86 37.85h-43.7l-5.11-8.85h43.71l21.85-37.85 5.11 8.85zm-23.17 35.57l20.53-35.57-2.47-4.29-20.53 35.57h-41.08l2.47 4.29h41.08zm-70.78-37.84h-43.71l-21.85 37.85-5.11-8.84 21.86-37.85h43.7l5.11 8.84zm-65.56 33.29l20.54-35.57h41.07l-2.47-4.28h-41.08l-20.53 35.57 2.47 4.28zm-10.33 22.46l-21.86 37.85h-10.21l21.85-37.85-21.85-37.84h10.21l21.86 37.84zm-23.17 35.57l20.53-35.57-20.53-35.57h-5l20.54 35.57-20.49 35.57h4.95zm168.54-19.93l-5.11 8.84h-43.73l-21.86-37.85 5.11-8.84 21.85 37.85h43.74zm-6.42 6.52l2.47-4.28h-41.07l-20.54-35.57-2.47 4.28 20.54 35.57h41.07zm38.58-62.27l-21.86 37.85h-43.7l-5.11-8.85h43.71l21.85-37.85 5.11 8.85zm-23.14 35.57l20.53-35.57-2.47-4.28-20.54 35.55h-41.07l2.47 4.29 41.08.01zm68.14-118.07h-43.67l-21.85 37.85-5.11-8.84 21.86-37.85h43.7l5.07 8.84zm-65.52 33.29l20.52-35.52h41.07l-2.47-4.28h-41.05l-20.55 35.52 2.48 4.28zm65.52 46.94h-10.17l-21.83-37.85 21.85-37.85h10.15l-21.81 37.85 21.81 37.85zm-12.51-58.6l8.6-14.86h-4.94l-20.54 35.61 20.54 35.57h4.94l-20.54-35.57 11.94-20.75zm-126.41 63.14l-21.85 37.85 21.85 37.85h-10.21l-21.87-37.86 21.87-37.84h10.21zm-24.49 37.84l20.54-35.57h-4.95l-20.53 35.57 20.53 35.57h4.95l-20.54-35.57zm-74.57 0l-21.85 37.85h-10.17l21.85-37.85-21.85-37.84h10.17l21.85 37.84zm-23.16 35.57l20.53-35.57-20.53-35.57h-4.95l20.54 35.57-20.54 35.57h4.95zm54.05-35.57l-21.86 37.85h-10.21l21.85-37.85-21.85-37.84h10.21l21.86 37.84zm-23.18 35.57l20.54-35.57-20.54-35.57h-4.94l20.54 35.57-20.54 35.57h4.94zm60.47-73.41l-21.85 37.84 21.85 37.85h-10.2l-21.87-37.85 21.87-37.84h10.2zm-24.49 37.84l20.54-35.57h-5l-20.48 35.57 20.53 35.57h5l-20.59-35.57zm39.93 37.85h-10.21l-21.86-37.85 21.86-37.84h10.21l-21.85 37.84 21.85 37.85zm-24.49-37.85l20.54-35.57h-5l-20.48 35.57 20.53 35.57h5l-20.59-35.57zm49-53.48l-5.15 8.84-21.85-37.85h-43.71l5.11-8.84h43.7l21.9 37.85zm-5.15 4.28l2.47-4.28-20.53-35.57h-41.08l-2.47 4.28h41.07l20.54 35.57zM1319.74 2.36h-43.71l-21.85 37.85-5.08-8.84 21.83-37.85h43.7l5.11 8.84zm-65.56 33.29L1274.72.1h41.07l-2.47-4.28h-41.08l-20.53 35.55 2.47 4.28zm204.52 78.21l-21.85 37.85 21.85 37.85h-10.21l-21.86-37.85 21.86-37.85h10.21zm-8.89 73.42h4.94l-20.54-35.57 20.54-35.61h-4.94l-20.54 35.61 20.54 35.57zM1421.41 18l-21.86 37.85h-43.7l-5.11-8.85h43.71l21.85-37.85 5.11 8.85zm-23.17 35.57L1418.77 18l-2.47-4.28-20.53 35.56h-41.08l2.47 4.29h41.08zm-115.79 44.66l-21.86 37.87h-43.7l-5.11-8.85h43.71l21.85-37.87 5.11 8.85zm-23.17 35.57l20.53-35.57-2.47-4.29-20.54 35.57h-41.07l2.47 4.29h41.08zm75.9-104.7h-43.71l-21.85 37.86-5.11-8.86 21.86-37.84h43.73l5.08 8.84zm-65.56 33.29l20.54-35.57h41.07l-2.47-4.28h-41.08l-20.53 35.56 2.47 4.29zm57.84-46.66h-43.71l-21.85 37.85-5.11-8.84 21.86-37.85h43.7l5.11 8.84zm-65.56 33.29l20.54-35.57h41.07l-2.47-4.28h-41.08l-20.53 35.57 2.47 4.28zm196.8 33.57h-43.71l-21.89 37.85-5.1-8.84 21.85-37.85h43.7l5.15 8.84zm-65.6 33.29l20.54-35.57h41.07l-2.47-4.28h-41.04l-20.53 35.57 2.43 4.28zM1265.7-6.48l-5.11 8.84h-43.7l-17.89-31v-17.67l23 39.83h43.7zM1259.28.1l2.47-4.28h-41.08l-19.39-33.62v8.57L1218.2.1h41.08zm207.14 95.86h-43.71l-21.85 37.85-5.1-8.84 21.85-37.87h43.7l5.11 8.86zm-65.56 33.29l20.54-35.57h41.07L1460 89.4h-41.07l-20.54 35.57 2.47 4.28zm3.8 105l-5.11 8.85h-43.7l-21.86-37.9 5.11-8.85 21.85 37.86 43.71.04zm-6.42 6.56l2.47-4.28h-41.07l-20.54-35.61-2.47 4.28 20.54 35.57 41.07.04zM1290.17 111.6l-21.86 37.85h-43.7l-5.11-8.84h43.71l21.89-37.86 5.07 8.85zM1267 147.17l20.53-35.57-2.43-4.28-20.58 35.57h-41.07l2.47 4.28H1267zM1413.69 4.63l-21.86 37.85h-43.73l-5.11-8.85h43.71l21.85-37.85 5.14 8.85zm-23.17 35.57l20.58-35.57-2.47-4.29-20.53 35.57h-41.13l2.48 4.29h41.07zm-138.95 31.28l-21.86 37.85h-10.21l21.85-37.85-21.85-37.85h10.21l21.86 37.85zm-23.17 35.62l20.53-35.62-20.53-35.57h-5l20.59 35.57-20.54 35.62h4.95zm7.7-35.62l-21.83 37.85h-10.17l21.81-37.85-21.81-37.85h10.17l21.83 37.85zm-23.14 35.62l20.53-35.62-20.53-35.57h-4.95l20.54 35.57-20.54 35.62h4.95zm183.98-20l-5.11 8.84h-43.73l-21.83-37.84 5.11-8.84 21.85 37.84h43.71zm-6.42 6.56l2.47-4.28h-41.07l-20.54-35.55-2.47 4.27 20.54 35.57 41.07-.01zm52.74 20.18l-21.85 37.87 21.85 37.85h-10.16l-21.9-37.85 21.9-37.85 10.16-.02zm-8.9 73.42h5l-20.59-35.55 20.54-35.61h-5l-20.48 35.61 20.53 35.55zM1267.01 71.48l-21.86 37.85h-10.21l21.85-37.85-21.85-37.85h10.21l21.86 37.85zm-23.18 35.62l20.54-35.62-20.54-35.57h-4.94l20.54 35.57-20.54 35.62h4.94zm30.9-22.19l-21.86 37.8h-43.7l-5.07-8.85h43.67l21.85-37.85 5.11 8.9zm-23.17 35.51l20.54-35.56-2.47-4.29-20.53 35.53h-41.09l2.47 4.28 41.08.04zm52.74-86.79l-21.85 37.85 21.85 37.85h-10.2l-21.87-37.85 21.87-37.85h10.2zm-24.49 37.85l20.54-35.57h-5l-20.48 35.57 20.53 35.62h5l-20.59-35.62zm55.37-37.85l-21.85 37.85 21.85 37.85h-10.21l-21.87-37.85 21.86-37.85h10.22zM1323.1 50.1l8.18-14.17h-4.95l-20.58 35.55 20.53 35.62h4.95l-20.54-35.62 12.41-21.38zm66.17 50.41l-5.17 8.82h-43.7l-21.84-37.85 5.1-8.84 21.85 37.85 43.76.02zm-6.47 6.59l2.47-4.28h-41.07l-20.54-35.62-2.47 4.28 20.53 35.62h41.08zm-63.06 2.28h-10.21l-21.86-37.9 21.86-37.85h10.21l-21.85 37.85 21.85 37.9zm-24.49-37.9l20.54-35.57h-5l-20.48 35.57 20.53 35.62h5l-20.59-35.62zm94 189.47l-5.15 8.84h-43.7l-21.85-37.85 5.1-8.84 21.85 37.85h43.75zm-6.42 6.56l2.47-4.28h-41.1l-20.54-35.57-2.47 4.28 20.53 35.57h41.11zm96.4-69.18v17.69l-7.55-13.08h-43.74l5.16-8.84h43.71l2.42 4.23zm-2.28 9.18v-8.57l-1.48-2.57h-41.11l-2.47 4.28h41.08l3.98 6.86zm2.28-35.92v17.69l-21.71-37.57 5.1-8.84 16.61 28.72zm-2.28 9.17v-8.56l-14.3-24.77-2.47 4.28 16.77 29.05zm2.28-35.92v17.69l-14-24.19 5.1-8.84 8.9 15.34zm-2.28 9.18v-8.56l-6.61-11.36-2.47 4.28 9.08 15.64zm2.28-62.66v17.74l-2.23-3.91-20.79-35.97h-43.71l5.11-8.84h43.7l17.92 30.98zm-2.28 9.17v-8.56L1460 62.66h-41.07l-2.48 4.28h41.07l19.43 33.59zm2.28 13.62v21.64l-6.24-10.82 6.24-10.82zm-2.28 13.13v-4.62l-1.33 2.31 1.33 2.31zm2.28-62.67V82.3l-15.3-26.45h-43.71l5.11-8.85h43.7l10.2 17.61zm-2.28 9.18v-8.56l-9.2-15.95h-41.1l-2.48 4.29h41.08l11.7 20.22zm-10.5 182.63h-43.74l-9.68 16.78h-10.21l14.79-25.62h43.7l5.14 8.84zm-54.71 14.5l9.66-16.82h41.07l-2.47-4.28h-41.07l-12.16 21.06 4.97.04zm47-27.87h-43.75l-17.4 30.15h-10.21l22.51-39h43.7l5.15 8.85zm-62.43 27.87l17.41-30.15h41.07l-2.47-4.28h-41.12l-19.87 34.43h4.98zm82.89-45.82v17.69l-15.27-26.45h-43.71l5.11-8.85h43.7l10.17 17.61zm-2.28 9.18v-8.57l-9.2-15.94h-41.07l-2.48 4.29h41.08l11.67 20.22zm-2.82 35.51h-43.67l-2 3.41h-10.17l7.07-12.25h43.7l5.07 8.84zm-47 1.13l2-3.41h41.07l-2.47-4.28h-41.05l-4.44 7.69h4.89zm52.05-19.1v17.73l-2.23-3.92-20.76-35.95h-43.66l5.11-8.85h43.7l17.84 30.99zm-2.28 9.17v-8.56L1460 223.1h-41.07l-2.48 4.29h41.07l19.35 33.6zm2.33-249.89v17.69l-21.68-37.54 5.1-8.84 16.58 28.69zm-2.28 9.17v-8.56l-14.3-24.77-2.47 4.28 16.77 29.05zM1290.82-50l-22.51 39h-43.7l-5.11-8.85h43.71l17.4-30.15h10.21zM1267-13.29l19.87-34.43h-4.94l-17.41 30.15h-41.07l2.47 4.28H1267zM1398.9-50l-5.76 10-5.76-10h11.52zm-5.8 5.42l1.81-3.14h-3.62l1.81 3.14zm21.21-5.42l-13.45 23.35-5.1-8.84L1404.1-50h10.21zm-13.45 18.79l9.54-16.51h-5l-7.06 12.23 2.52 4.28zM1259.94-50l-7.07 12.25h-43.7l-5.07-8.85h43.67l2-3.4h10.17zm-8.38 10l4.43-7.69h-4.89l-2 3.4h-41.09l2.47 4.29h41.08zm23.82-10l-14.79 25.62h-43.7l-5.11-8.84h43.71l9.68-16.78h10.21zm-16.1 23.34l12.15-21.06h-4.94l-9.69 16.82h-41.07l2.47 4.24h41.08zM1429.79-50l-21.21 36.73-5.11-8.85 16.1-27.88h10.22zm-21.21 32.16l17.26-29.88h-5l-14.74 25.6 2.48 4.28zM1290.82 273.2h-11.52l5.76-10 5.76 10zm-7.57-2.28h3.62l-1.77-3.15-1.85 3.15zm196-286.53V2.1l-14-24.19 5.1-8.84 8.9 15.32zm-2.28 9.17V-15l-6.58-11.4-2.47 4.28 9.05 15.68zm2.28-39.87v21.64l-6.24-10.82 6.24-10.82zm-2.28 13.13v-4.61l-1.33 2.3 1.33 2.31zm2.28 71.05v17.69l-7.6-13.08h-43.71l5.16-8.85h43.71l2.44 4.24zm-2.33 9.23v-8.57l-1.48-2.57h-41.08l-2.47 4.29h41.08l3.95 6.85zm-47.82-15.73l-21.83 37.85h-43.7l-5.11-8.84h43.71l21.85-37.85 5.08 8.84zm-23.14 35.57l20.53-35.57-2.47-4.27-20.54 35.56h-41.07l2.47 4.28h41.08zm-54-62.31l-5.11 8.84-21.88-37.85h-43.71l5.11-8.84h43.73l21.86 37.85zm-5.11 4.28l2.47-4.28-20.56-35.53h-41.08l-2.47 4.28h41.07l20.57 35.53zm12.83-17.66L1354.54.1l-21.85-37.85h-43.71l5.12-8.85h43.7l21.88 37.85zm-5.11 4.29l2.47-4.29-20.56-35.57h-41.08l-2.47 4.29H1334l20.57 35.57zm20.53-4.29l-21.87 37.85h-10.21l21.85-37.86-21.85-37.84h10.21l21.87 37.85zm-23.18 35.57l20.53-35.57-20.53-35.57h-4.95l20.54 35.57-20.54 35.57h4.95zm-93.94-19.93l-5.11 8.84h-43.7L1199-1.9v-17.67l15.27 26.46h43.71zm-6.42 6.56l2.47-4.28h-41.07l-11.68-20.22v8.56l9.2 15.94h41.08zm92.65 4.55l-5.11 8.84-21.85-37.85h-43.71l5.11-8.84h43.7L1344.21 18zm-5.11 4.28l2.47-4.28-20.53-35.57h-41.08l-2.47 4.28h41.07l20.54 35.57zm51.43-31l-21.86 37.82h-10.21l21.86-37.86-21.86-37.84h10.21l21.86 37.88zm-23.17 35.54l20.53-35.57-20.53-35.57h-4.95l20.54 35.57-20.54 35.57h4.95zm-117.1-6.56l-5.11 8.84h-43.7l-2.45-4.24V7.18l7.55 13.08h43.71zm-6.42 6.56l2.47-4.28h-41.08l-3.95-6.85v8.56l1.48 2.57h41.08zM1458.7-46.6l-21.85 37.85 21.85 37.85h-10.21l-21.86-37.85 21.86-37.85h10.21zm-24.49 37.85l20.54-35.57h-4.94l-20.54 35.57 20.54 35.57h4.94l-20.54-35.57zm39.89 37.85h-10.17L1442.1-8.75l21.83-37.85h10.17l-21.81 37.85 21.81 37.85zm-12.47-58.6l8.56-14.82h-4.94l-20.54 35.57 20.54 35.57h4.94l-20.54-35.57 11.98-20.75zm-55.66 20.75L1384.1 29.1h-10.2l21.86-37.86-21.86-37.84h10.2l21.87 37.85zm-23.17 35.57l20.53-35.57-20.53-35.57h-4.95l20.54 35.57-20.54 35.57h4.95zm60.46-73.42l-21.85 37.85 21.85 37.85h-10.16l-21.9-37.85 21.9-37.85h10.16zm-24.49 37.85l20.54-35.57h-5l-20.48 35.57 20.53 35.57h5l-20.59-35.57zm-213.53 267.44L1199 269.5v-21.64l6.24 10.83zm-4 2.3l1.33-2.3-1.33-2.31v4.61zm11.72-15.68l-5.1 8.85-8.86-15.35V221.1l13.96 24.21zm-4.53 3.29l1.9-3.29-9-15.68v8.57l6.58 11.4.52-1zm12.25-16.66l-5.1 8.85L1199 212.1v-17.72l21.68 37.56zm-5.1 4.28l2.52-4.28-16.77-29.05v8.57l14.25 24.76zm34.68-55.5l-5.11 8.84h-43.7l-2.45-4.24v-17.68l7.55 13.08h43.71zm-6.42 6.56l2.47-4.28h-41.08l-3.95-6.85v8.56l1.48 2.57h41.08zm38.61 71.41l-8.35 14.51h-10.24l13.48-23.36 5.11 8.85zm-9.7 12.23l7.06-12.23-2.47-4.29-9.53 16.52h4.94zm2-25.61l-16.12 27.89h-10.22l21.21-36.73 5.13 8.84zm-17.44 25.61l14.79-25.61-2.47-4.28-17.26 29.89h4.94zm-44.35-186.07l-5.1 8.85-8.86-15.35V60.66l13.96 24.19zm-4.53 3.25l1.9-3.29-9-15.67v8.56l6.53 11.4.57-1zm49.55 79.21l-5.11 8.84h-43.7L1199 158.58v-17.69l15.27 26.46 43.71-.04zm-6.42 6.56l2.47-4.28h-41.07l-11.68-20.19v8.57l9.2 15.94 41.08-.04zm-30.88-102.39l-5.1 8.85L1199 51.61V33.92l21.68 37.56zm-5.1 4.29l2.52-4.29-16.77-29V51l14.25 24.77zm-10.34 22.46L1199 109.1V87.41l6.24 10.82zm-4 2.3l1.33-2.3-1.33-2.31v4.61zm64.46 53.45l-5.11 8.84h-43.7l-17.89-31v-17.67l23 39.83h43.7zm-6.42 6.56l2.47-4.28h-41.08l-19.39-33.6v8.57l16.92 29.31h41.08z"/></g><defs><clipPath id="clip0"><rect width="1212" height="189" rx="5" fill="#fff"/></clipPath></defs></svg>