<svg width="392" height="260" fill="none" xmlns="http://www.w3.org/2000/svg"><g clip-path="url(#clip0)"><path d="M362.853-164L-7 206.853v6.183L369.167-164h-6.314zm19.087 0L-7 225.992v6.183L388.107-164h-6.167zm-38.027 0L-7 187.861v6.183L350.079-164h-6.166zm-38.175 0L-7 149.583v6.184L312.052-164h-6.314zm19.087 0L-7 168.722v6.184L330.992-164h-6.167zm-57.115 0L-7 111.453v6.183L273.877-164h-6.167zm133.318 0L-7 245.131v6.183L407.194-164h-6.166zm-114.23 0L-7 130.592v6.183L292.964-164h-6.166zm228.313 0L92.254 260h6.167l422.857-424h-6.167zm-18.94 0L73.314 260h6.166l422.857-424h-6.166zm38.027 0L111.341 260h6.167l422.857-424h-6.167zm-95.142 0L16.198 260h6.167l422.857-424h-6.166zm38.027 0L54.226 260h6.314l422.857-424h-6.314zm-57.115 0L-2.889 260h6.167l422.857-424h-6.167zm38.028 0L35.139 260h6.313L464.31-164h-6.314zm-266.488 0L-7 35.044v6.184L197.821-164h-6.313zm57.115 0L-7 92.314v6.183L254.936-164h-6.313zm-171.198 0L-7-79.347v6.183L83.591-164h-6.166zm18.94 0L-7-60.356v6.184L102.679-164h-6.314zm-95.143 0L-7-155.756v6.184L7.389-164H1.222zm114.23 0L-7-41.217v6.184L121.619-164h-6.167zm-76.202 0L-7-117.625v6.183L45.563-164H39.25zm-18.94 0L-7-136.617v6.184L26.476-164H20.31zm38.027 0L-7-98.486v6.183L64.504-164h-6.167zm152.258 0L-7 54.183v6.184L216.909-164h-6.314zm19.088 0L-7 73.322v6.183L235.849-164h-6.166zm323.603 0L130.429 260h6.166l422.857-424h-6.166zm-380.719 0L-7 16.053v6.183L178.734-164h-6.167zm-38.174 0L-7-22.225v6.183L140.706-164h-6.313zm19.087 0L-7-3.086v6.183L159.794-164h-6.314zm344.746 424L733 24.592v-6.184L492.06 260h6.166zm57.115 0L733 81.861v-6.183L549.175 260h6.166zm-18.94 0L733 62.87v-6.184L530.087 260h6.314zm38.028 0L733 101v-6.183L568.262 260h6.167zm-2.203-424L149.369 260h6.167l422.857-424h-6.167zM460.198 260L733-13.539v-6.183L454.032 260h6.166zm19.088 0L733 5.6V-.583L472.972 260h6.314zm38.027 0L733 43.73v-6.183L511.147 260h6.166zm76.203 0L733 120.139v-6.183L587.202 260h6.314zm95.143 0L733 215.539v-6.183L682.345 260h6.314zm19.087 0L733 234.678v-6.184L701.433 260h6.313zm18.941 0l6.313-6.331v-6.183L720.52 260h6.167zm-76.056 0L733 177.408v-6.183L644.317 260h6.314zm18.94 0L733 196.4v-6.183L663.405 260h6.166zm-38.027 0L733 158.269v-6.183L625.377 260h6.167zm-19.088 0L733 139.131v-6.184L606.29 260h6.166zm-171.345 0L733-32.678v-6.183L434.944 260h6.167zm207.318-424L225.571 260h6.167l422.857-424h-6.166zm19.087 0L244.659 260h6.166l422.858-424h-6.167zm18.94 0L263.599 260h6.167l422.857-424h-6.167zm-95.143 0L168.456 260h6.167L597.48-164h-6.167zm114.231 0L282.687 260h6.166L711.71-164h-6.166zm-76.203 0L206.484 260h6.167l422.857-424h-6.167zm-18.94 0L187.544 260h6.166l422.858-424h-6.167zM403.083 260L733-70.808v-6.184L396.917 260h6.166zm-18.94 0L733-89.8v-6.183L377.829 260h6.314zm340.488-424L301.774 260h6.166l422.858-424h-6.167zM365.056 260L733-108.939v-6.183L358.742 260h6.314zm57.115 0L733-51.67V-58L415.857 260h6.314zm-101.457 0h6.167L733-147.069v-6.331L320.714 260zm25.254 0L733-128.078v-6.183L339.802 260h6.166z" fill="url(#paint0_radial)" fill-opacity=".1"/></g><defs><radialGradient id="paint0_radial" cx="0" cy="0" r="1" gradientUnits="userSpaceOnUse" gradientTransform="matrix(627.681 0 0 629.378 359.254 -110.583)"><stop stop-color="#fff"/><stop offset="1" stop-color="#AEB6BD"/></radialGradient><clipPath id="clip0"><rect width="392" height="260" rx="5" fill="#fff"/></clipPath></defs></svg>