<svg width="45" height="45" viewBox="0 0 45 45" fill="none" xmlns="http://www.w3.org/2000/svg">
<g clip-path="url(#clip0)">
<path d="M39.1426 25.3354C38.7491 24.9764 38.2229 24.7993 37.6924 24.8472L34.798 25.1065C33.6754 25.2122 32.5636 24.816 31.7607 24.0243L29.8909 22.7185C29.7831 22.6447 29.6708 22.5775 29.5547 22.5175L28.0591 21.5243C26.8051 20.6907 25.3324 20.2472 23.8266 20.2496H18.8624C18.0451 20.2475 17.2802 20.6515 16.8212 21.3277L16.381 21.9781L13.1197 22.3799C12.5631 22.4486 11.9995 22.4332 11.4476 22.3341L7.47502 21.6225C6.92158 21.5225 6.35224 21.6733 5.92088 22.0341C5.4962 22.3873 5.25064 22.9111 5.25073 23.4633V32.9993C5.2524 33.6636 5.6065 34.2772 6.18086 34.611C5.9062 35.5841 6.1341 36.6301 6.78878 37.4007L9.83482 40.4011C10.4196 40.9747 11.1286 41.4062 11.9068 41.6623L16.198 43.0714C17.2158 43.4118 18.3146 43.4263 19.341 43.1126L20.287 44.0293C20.9546 44.6535 21.8346 45.0005 22.7486 45.0001C23.0438 44.9999 23.3378 44.9641 23.6245 44.8936L27.6564 43.9008C28.6008 43.6698 29.4867 43.2449 30.2579 42.6531L32.3629 41.0404C33.3849 40.2574 33.9006 38.9809 33.7092 37.7078L38.2016 36.1314C39.1351 35.771 39.7505 34.873 39.7498 33.8723V26.7106C39.7487 26.1873 39.5285 25.6885 39.1426 25.3354ZM16.6651 41.646L12.3746 40.2369C11.8162 40.0535 11.3074 39.7441 10.8878 39.3323L7.84177 36.332C7.5876 35.9587 7.50455 35.4948 7.61326 35.0565L7.67646 34.87H10.4411C10.682 34.8682 10.9148 34.9572 11.0929 35.1194L18.0165 41.829C17.5587 41.8487 17.1011 41.7867 16.6651 41.646ZM31.4501 39.8494L31.4433 39.8546L27.1186 32.9318C26.977 32.7039 26.7245 32.5689 26.4562 32.578C26.188 32.5871 25.9451 32.7389 25.8194 32.9761C25.6936 33.2132 25.7042 33.4993 25.8471 33.7265L30.2476 40.7707L29.3451 41.4621C28.9589 41.7558 28.5356 41.9968 28.086 42.1791L24.8474 36.8623C24.6314 36.5099 24.1709 36.3985 23.8178 36.6134C23.4647 36.8283 23.3519 37.2884 23.5657 37.6422L26.5958 42.6166L24.5173 43.1284L21.9692 39.6143C21.7257 39.2802 21.2578 39.2063 20.9231 39.449C20.5884 39.6916 20.5132 40.1594 20.755 40.4947L22.9184 43.4783C22.3343 43.5323 21.7544 43.3378 21.3211 42.9423L12.1271 34.0326C11.6698 33.6056 11.0669 33.3687 10.4412 33.3701H7.13867C6.92914 33.3745 6.75556 33.2087 6.75046 32.9992V23.4633C6.75055 23.3552 6.79924 23.2529 6.883 23.1846C6.97379 23.1089 7.0934 23.0775 7.20968 23.0989L11.1829 23.8104C11.8826 23.9356 12.5971 23.9552 13.3026 23.8686L15.363 23.6147L15.2493 23.8012C14.5966 24.8671 14.8724 26.2556 15.8828 26.9912C16.7756 27.649 17.9976 27.6301 18.8695 26.9451L20.4847 25.6725H22.4202C22.6553 25.672 22.8826 25.757 23.0596 25.9117L27.4951 29.7948C27.5687 29.8592 27.6317 29.9347 27.6818 30.0186L31.9686 37.1965C32.4943 38.0843 32.2714 39.2251 31.4501 39.8494ZM38.2497 33.8723C38.2509 34.2465 38.0249 34.5841 37.6784 34.7255L33.1817 36.3029L28.9702 29.2504C28.8395 29.0313 28.6751 28.834 28.4831 28.6659L24.0476 24.7827C23.5969 24.389 23.0186 24.1722 22.4202 24.1726H20.9744V23.8016C20.9744 23.3874 20.6387 23.0517 20.2245 23.0517C19.8103 23.0517 19.4745 23.3874 19.4745 23.8016V24.5585L17.9409 25.767C17.5996 26.0356 17.1207 26.0423 16.772 25.7835C16.3909 25.5068 16.2857 24.9841 16.5303 24.5816L17.4396 23.0896L18.0632 22.1684C18.2434 21.9046 18.5428 21.7476 18.8623 21.7494H23.8265C25.0368 21.7471 26.2207 22.1035 27.2285 22.7737L28.7614 23.7917L28.8449 23.8397C28.9125 23.873 28.9776 23.9111 29.0398 23.9536L30.7558 25.1401C31.8707 26.2083 33.3937 26.741 34.9312 26.6005L37.8257 26.3413C37.9368 26.3316 38.047 26.3682 38.1304 26.4423C38.2062 26.5108 38.2496 26.6082 38.2497 26.7104V33.8723Z" fill="black"/>
<path d="M44.5373 0.0578307C44.4465 0.0199507 44.3491 0.000351554 44.2508 0H42.0008C41.5866 0 41.2509 0.335734 41.2509 0.749953C41.2509 1.16417 41.5866 1.49991 42.0008 1.49991H42.4403L35.2654 8.67478C34.3967 8.14402 33.3132 8.10798 32.4111 8.57995L30.9768 6.93968C31.8314 5.71091 31.6522 4.04059 30.5563 3.02108C29.4605 2.00157 27.7816 1.94322 26.6176 2.88424C25.4536 3.82526 25.1589 5.47906 25.9263 6.76426L18.7658 13.9247C17.8358 13.358 16.6671 13.358 15.737 13.9247L12.3264 10.5141C12.6018 10.0567 12.7486 9.53362 12.7514 8.99979C12.7514 7.343 11.4083 5.99989 9.75154 5.99989C8.09475 5.99989 6.75164 7.343 6.75164 8.99979C6.75506 9.48827 6.87925 9.96832 7.11312 10.3971L0.244982 16.697C0.0475844 16.878 -0.0382827 17.1507 0.0198116 17.4122C0.077906 17.6737 0.271085 17.8844 0.526665 17.9649C0.782157 18.0453 1.0612 17.9833 1.2586 17.8023L8.1183 11.5101C9.06662 12.1389 10.2926 12.164 11.2659 11.5747L14.6765 14.9854C14.4012 15.4427 14.2543 15.9658 14.2514 16.4997C14.2514 18.1565 15.5945 19.4996 17.2513 19.4996C18.9081 19.4996 20.2512 18.1565 20.2512 16.4997C20.2484 15.9658 20.1016 15.4426 19.8262 14.9854L26.9867 7.82489C27.8554 8.35565 28.9388 8.39169 29.8409 7.91973L31.2753 9.56008C30.4206 10.7888 30.5998 12.4592 31.6957 13.4787C32.7916 14.4982 34.4705 14.5565 35.6345 13.6155C36.7985 12.6745 37.0931 11.0207 36.3258 9.73551L43.5007 2.56063V3.00008C43.5007 3.41429 43.8364 3.75003 44.2506 3.75003C44.6648 3.75003 45.0006 3.41429 45.0006 3.00008V0.750129C44.9996 0.447001 44.8171 0.174283 44.5373 0.0578307ZM10.8128 10.0587L10.8114 10.0595L10.8104 10.061C10.3815 10.4896 9.7366 10.6176 9.17639 10.3854C8.61628 10.1531 8.25128 9.60613 8.25163 8.99979C8.2511 8.32085 8.70663 7.7262 9.36237 7.54998C10.0181 7.37376 10.7103 7.66002 11.0502 8.24782C11.39 8.83561 11.2926 9.57836 10.8128 10.0587ZM18.6371 17.0747C18.4048 17.6349 17.8578 17.9999 17.2514 17.9996C16.645 17.9999 16.0981 17.6349 15.8658 17.0747C15.6335 16.5146 15.7615 15.8696 16.1903 15.4407L16.1917 15.4398L16.1926 15.4384C16.4734 15.1575 16.8542 14.9997 17.2514 14.9997C17.6486 14.9997 18.0295 15.1575 18.3102 15.4384L18.3112 15.4398L18.3126 15.4407C18.7413 15.8697 18.8694 16.5146 18.6371 17.0747ZM29.4868 6.37148L29.4848 6.37262L29.4837 6.37403C28.8945 6.89846 27.9982 6.87086 27.4424 6.3111L27.4414 6.3097L27.44 6.30882C27.0002 5.87421 26.8712 5.21469 27.1148 4.64632C27.3585 4.07803 27.9251 3.71672 28.5432 3.7357C29.1612 3.75469 29.7047 4.14992 29.9131 4.7321C30.1215 5.31427 29.9524 5.96465 29.4868 6.37148ZM35.1367 11.8249C34.9044 12.385 34.3574 12.7501 33.751 12.7497C33.1266 12.7524 32.5664 12.3663 32.3466 11.7818C32.1268 11.1974 32.2938 10.5378 32.7652 10.1284L32.7674 10.127L32.7684 10.1256C33.3576 9.60121 34.254 9.62881 34.8098 10.1886L34.8108 10.19L34.8122 10.1909C35.2409 10.6198 35.3689 11.2647 35.1367 11.8249Z" fill="#F07C00"/>
</g>
<defs>
<clipPath id="clip0">
<rect width="45" height="45" fill="white"/>
</clipPath>
</defs>
</svg>
