<svg width="61" height="72" viewBox="0 0 61 72" fill="none" xmlns="http://www.w3.org/2000/svg">
<path d="M41.5332 61.2413C45.3753 64.5711 49.8578 66.8764 54.3403 69.3098C55.3649 69.8221 58.3105 71.7431 59.5912 71.615C60.7438 71.487 60.8719 69.8221 61 68.9256C61 68.6694 53.9561 65.5957 53.1876 65.2115C47.1683 61.8816 41.4051 58.1676 37.0507 52.7886C34.8734 50.0991 32.6962 47.2815 31.1594 44.0797C30.1348 42.0306 29.3664 39.9814 28.5979 37.9323C28.0857 36.3954 27.8295 34.0902 26.5488 32.9375C25.5242 32.1691 25.2681 32.8094 25.2681 33.9621C25.14 35.8832 25.9084 37.8042 26.4207 39.7253C28.2137 45.3604 31.7997 49.971 35.1296 54.5816C36.6664 56.6307 38.3314 58.1676 40.2524 59.9606C40.6367 60.4729 41.0209 60.8571 41.5332 61.2413Z" fill="#5A6D1D"/>
<path d="M28.854 0.279327C31.7997 -0.36103 34.6173 1.17583 37.5629 2.2004C41.9173 3.60918 42.4296 7.19518 44.4787 10.9093C45.7594 13.3426 47.4244 17.0567 47.0402 19.8742C46.6559 22.948 44.3507 22.5637 42.0454 22.6918C38.5875 22.8199 35.6418 24.6129 33.0804 26.9182C31.4155 28.455 29.6225 31.4007 27.3172 32.2972C24.3715 33.3217 22.4505 30.7603 20.6575 28.9673C18.0961 26.534 15.0223 26.7901 11.9486 26.2778C8.61877 25.7655 5.67312 23.9725 3.49591 21.5392C1.06255 18.7216 -0.730445 12.7022 0.294126 8.98818C0.934483 6.55483 3.62399 5.27412 5.54506 4.24955C10.9241 1.43198 20.5294 1.56005 23.6031 8.09169C22.7066 6.04254 25.0119 2.45655 26.6768 1.43198C27.3172 0.791624 28.0856 0.407398 28.854 0.279327Z" fill="url(#paint0_radial)"/>
<path opacity="0.52" d="M41.9174 22.6918C41.6612 22.6918 41.5332 22.8199 41.4051 22.8199C41.277 22.8199 41.149 22.8199 41.0209 22.8199C39.8682 22.9479 38.8437 23.3321 37.8191 23.7164H37.691C36.2823 23.3321 34.7454 23.4602 33.4647 23.9725C32.184 24.4848 31.5436 26.0217 30.391 26.4059C32.9524 22.3076 35.5138 21.0269 40.2525 19.8742C41.277 19.6181 45.1192 18.8497 45.3753 17.697C46.0157 15.1356 39.356 16.8005 41.277 14.3672C41.4051 14.2391 38.7156 14.2391 38.3314 14.2391C37.3068 14.6233 36.6665 15.2636 36.0261 15.904C34.3612 17.697 33.5928 20.1304 31.5436 21.4111C32.5682 19.2339 33.8489 17.0566 35.6419 15.2636C37.1788 13.7268 39.6121 12.4461 40.3805 10.397C38.9717 10.0127 37.9472 10.6531 36.7945 11.2934C37.3068 10.0127 39.356 8.60395 38.9718 7.19517C38.5875 5.40217 36.6665 6.17059 35.5138 6.42673C35.6419 4.37759 34.8735 4.24953 33.0805 3.99338C32.5682 3.86531 31.1594 3.99338 30.9033 3.99338C30.2629 3.86531 30.0068 3.09687 29.2383 3.09687C26.4208 2.9688 27.7015 10.7812 26.805 12.4461C26.5488 10.525 26.2927 8.73201 25.7804 6.93901C25.5243 6.17058 24.8839 4.63373 24.1155 4.50566C24.1155 4.37759 24.1155 4.37758 24.2436 4.37758C24.2436 4.24951 24.3716 4.12146 24.4997 3.99338C24.7558 3.4811 25.1401 2.9688 25.5243 2.45651L25.6523 2.32845C26.0365 1.81617 26.4208 1.43194 26.805 1.1758C27.5734 0.663514 28.3418 0.407387 28.9822 0.151245C31.9278 -0.489112 34.7454 1.04774 37.691 2.07231C42.0455 3.4811 42.5578 7.06708 44.6069 10.7812C45.8876 13.2145 47.5525 16.9286 47.1683 19.7461C46.656 22.8199 44.3507 22.5637 41.9174 22.6918Z" fill="#F9FF76"/>
<path opacity="0.52" d="M8.4907 20.3865C6.44156 19.7461 -0.0900721 17.0566 5.03278 16.1601C8.61878 15.6478 12.589 16.4163 16.175 16.9285C14.7662 15.1356 10.4118 14.7513 8.23456 14.2391C7.08192 13.9829 3.75207 13.7268 3.11171 12.5741C2.47135 11.2934 4.00821 11.1653 4.64856 10.2688C3.75206 9.62849 2.59942 9.11621 1.70292 8.47585C2.98363 7.8355 4.77662 7.57935 6.05734 7.8355C7.20998 7.96357 9.13106 9.1162 10.1556 8.34777C9.13106 7.45127 7.85033 6.81091 6.69769 6.04249C12.3328 1.55999 16.8153 5.146 20.5294 9.75657C20.6575 7.06707 17.8399 5.27407 16.4311 3.60914C16.175 3.353 15.9188 2.96878 15.6627 2.58456C12.2048 2.07228 8.23456 2.71263 5.54506 4.12142C3.62399 5.14599 0.934483 6.55477 0.294126 8.86005C-0.730445 12.5741 1.06255 18.5935 3.49591 21.411C5.28891 23.4602 7.5942 25.1251 10.2837 25.8935C10.5398 25.7655 10.796 25.5093 11.0521 25.2532C13.1013 23.4602 15.0223 22.4356 17.8399 22.1795C13.8697 21.0268 9.51527 23.9725 5.8012 21.6672C6.05734 20.5145 7.46613 20.5145 8.4907 20.3865Z" fill="#F9FF76"/>
<path d="M34.4891 14.7514C35.5137 12.9584 36.4102 11.0373 36.9225 8.86008C36.026 10.3969 35.0014 11.9338 33.8488 13.3426C33.0803 14.2391 32.3119 15.1356 31.6715 16.1602C31.1592 16.9286 31.0312 17.8251 30.3908 18.5935C29.7505 17.3128 29.7505 15.5198 29.3663 14.111C29.3663 15.7759 29.3663 17.4409 28.982 19.1058C28.5978 20.7707 27.9575 24.6129 25.6522 23.9725C23.8592 23.4602 22.5785 19.8742 21.5539 18.4654C19.3767 15.0075 15.7907 10.2689 11.4363 9.50043C13.7416 10.7811 17.0714 13.9829 18.4802 16.4163C19.2486 17.697 19.2486 18.4654 18.3521 18.8496C17.7118 19.1058 15.6626 18.9777 15.0223 18.8496C17.9679 19.8742 20.6574 21.283 22.8346 23.8444C24.2434 25.5094 27.5733 29.9919 29.7505 27.3024C31.4154 25.1251 30.775 21.6672 32.0558 19.2339C32.6961 17.8251 33.5926 16.2882 34.4891 14.7514Z" fill="#F9FF76"/>
<path d="M15.0224 26.662C13.8698 26.2778 12.5891 26.0216 11.4365 26.1497C11.3084 26.1497 11.1803 26.0216 11.0522 26.0216C12.9733 25.1251 15.4067 25.1251 17.5839 25.6374C17.9681 25.7655 22.3225 27.1743 22.3225 26.662C22.1945 25.6374 21.298 24.4848 20.6576 23.7164C21.9383 24.2286 22.9629 25.3813 24.3717 25.5093C25.7804 21.7953 22.8348 17.8251 20.9137 15.1356C19.8892 13.7268 17.5839 10.3969 18.6084 8.60394C19.2488 11.0373 20.1453 12.1899 21.6822 13.9829C23.091 15.6479 24.3717 17.4409 25.012 19.6181C26.0366 18.4654 25.5243 16.9286 24.884 15.6479C24.6278 15.2636 24.4997 14.8794 24.2436 14.4952C23.3471 12.7022 23.219 10.7812 22.3225 8.98815C21.298 6.81094 18.7365 4.50566 16.9435 3.22495C17.0716 3.22495 17.1997 3.22495 17.3277 3.35302C17.7119 3.4811 17.9681 3.60915 18.3523 3.73722C18.7365 3.86529 19.1207 3.99338 19.5049 4.24952C19.7611 4.37759 20.1453 4.63373 20.4015 4.7618C20.7857 5.01794 21.1699 5.40215 21.5541 5.65829C21.8102 5.78636 21.9383 6.04252 22.1944 6.17059C22.7067 6.68287 23.219 7.4513 23.4752 8.09166C24.1155 9.50044 24.2436 10.6531 24.6278 12.0619C25.1401 14.2391 26.2927 16.2882 26.5489 18.5935C26.9331 20.7707 26.2927 23.4602 26.805 25.5093C27.3173 27.4304 28.2138 27.3024 28.9822 25.3813C29.7507 23.3321 30.0068 21.7953 31.9279 20.3865C31.2875 22.1795 29.4945 24.3567 29.4945 26.4059C33.5928 24.6129 38.9718 20.2584 43.5824 22.6918C42.942 22.6918 42.4297 22.6918 41.7894 22.8199C38.3314 22.9479 35.3858 24.7409 32.8244 27.0462C31.1594 28.5831 29.3664 31.5287 27.0612 32.4252C24.1155 33.4498 22.1945 30.8883 20.4015 29.0953C18.9927 27.3023 17.0716 26.9181 15.0224 26.662Z" fill="#E2B705"/>
<path d="M27.061 38.0603C24.4995 38.1884 23.8592 34.9866 22.9627 33.1936C22.5785 32.2971 18.096 28.7111 21.682 28.7111C23.0908 28.7111 24.6276 30.6322 26.0364 30.1199C27.3171 29.7357 29.1101 28.0708 30.5189 29.4796C30.5189 30.8883 29.3663 32.041 29.3663 33.7059C29.2382 35.4989 29.3663 38.0603 27.061 38.0603Z" fill="#5A6D1D"/>
<defs>
<radialGradient id="paint0_radial" cx="0" cy="0" r="1" gradientUnits="userSpaceOnUse" gradientTransform="translate(23.8135 14.1551) rotate(30.4754) scale(20.5342)">
<stop stop-color="#FFBC00"/>
<stop offset="0.0663925" stop-color="#FDC100"/>
<stop offset="0.3369" stop-color="#F6D100"/>
<stop offset="0.5515" stop-color="#F4D600"/>
<stop offset="1" stop-color="#FFF75A"/>
</radialGradient>
</defs>
</svg>
