<svg width="105" height="23" viewBox="0 0 105 23" fill="none" xmlns="http://www.w3.org/2000/svg">
<path d="M1.134 18C1.002 18 0.894 17.958 0.81 17.874C0.726 17.778 0.684 17.664 0.684 17.532V15.786C0.684 15.534 0.774 15.318 0.954 15.138L6.75 8.082H1.296C1.176 8.082 1.068 8.04 0.972 7.956C0.888 7.86 0.846 7.752 0.846 7.632V5.85C0.846 5.718 0.888 5.61 0.972 5.526C1.068 5.442 1.176 5.4 1.296 5.4H10.386C10.518 5.4 10.626 5.442 10.71 5.526C10.794 5.61 10.836 5.718 10.836 5.85V7.596C10.836 7.8 10.758 8.004 10.602 8.208L4.968 15.282H10.584C10.716 15.282 10.824 15.33 10.908 15.426C11.004 15.51 11.052 15.618 11.052 15.75V17.55C11.052 17.682 11.004 17.79 10.908 17.874C10.824 17.958 10.716 18 10.584 18H1.134ZM13.417 18C13.297 18 13.189 17.958 13.093 17.874C13.009 17.778 12.967 17.67 12.967 17.55V5.85C12.967 5.718 13.009 5.61 13.093 5.526C13.189 5.442 13.297 5.4 13.417 5.4H15.361C15.649 5.4 15.859 5.532 15.991 5.796L19.159 11.466L22.327 5.796C22.459 5.532 22.669 5.4 22.957 5.4H24.883C25.015 5.4 25.123 5.442 25.207 5.526C25.303 5.61 25.351 5.718 25.351 5.85V17.55C25.351 17.682 25.303 17.79 25.207 17.874C25.123 17.958 25.015 18 24.883 18H22.741C22.609 18 22.495 17.958 22.399 17.874C22.315 17.79 22.273 17.682 22.273 17.55V10.8L20.257 14.562C20.101 14.838 19.891 14.976 19.627 14.976H18.691C18.535 14.976 18.409 14.94 18.313 14.868C18.217 14.796 18.133 14.694 18.061 14.562L16.027 10.8V17.55C16.027 17.67 15.985 17.778 15.901 17.874C15.817 17.958 15.709 18 15.577 18H13.417ZM31.0953 18C30.9753 18 30.8673 17.958 30.7713 17.874C30.6873 17.778 30.6453 17.67 30.6453 17.55V8.226H27.4413C27.3213 8.226 27.2133 8.184 27.1173 8.1C27.0333 8.004 26.9913 7.896 26.9913 7.776V5.85C26.9913 5.718 27.0333 5.61 27.1173 5.526C27.2133 5.442 27.3213 5.4 27.4413 5.4H37.1253C37.2573 5.4 37.3653 5.442 37.4493 5.526C37.5333 5.61 37.5753 5.718 37.5753 5.85V7.776C37.5753 7.908 37.5333 8.016 37.4493 8.1C37.3653 8.184 37.2573 8.226 37.1253 8.226H33.9213V17.55C33.9213 17.67 33.8793 17.778 33.7953 17.874C33.7113 17.958 33.6033 18 33.4713 18H31.0953ZM47.8233 18.18C46.0953 18.18 44.7453 17.76 43.7733 16.92C42.8013 16.068 42.2853 14.862 42.2253 13.302C42.2133 12.954 42.2073 12.402 42.2073 11.646C42.2073 10.89 42.2133 10.338 42.2253 9.99C42.2853 8.466 42.8073 7.29 43.7913 6.462C44.7873 5.634 46.1313 5.22 47.8233 5.22C48.9633 5.22 49.9533 5.406 50.7933 5.778C51.6453 6.15 52.2933 6.624 52.7373 7.2C53.1933 7.776 53.4333 8.37 53.4573 8.982C53.4573 9.09 53.4153 9.18 53.3313 9.252C53.2593 9.324 53.1693 9.36 53.0613 9.36H50.4333C50.3133 9.36 50.2173 9.342 50.1453 9.306C50.0733 9.27 50.0133 9.204 49.9653 9.108C49.8093 8.76 49.5633 8.46 49.2273 8.208C48.8913 7.944 48.4233 7.812 47.8233 7.812C46.3953 7.812 45.6453 8.568 45.5733 10.08C45.5613 10.416 45.5553 10.938 45.5553 11.646C45.5553 12.342 45.5613 12.864 45.5733 13.212C45.6453 14.796 46.4133 15.588 47.8773 15.588C48.5853 15.588 49.1493 15.408 49.5693 15.048C50.0013 14.676 50.2173 14.112 50.2173 13.356V13.014H48.5253C48.3933 13.014 48.2853 12.972 48.2013 12.888C48.1173 12.792 48.0753 12.678 48.0753 12.546V11.214C48.0753 11.082 48.1173 10.974 48.2013 10.89C48.2853 10.794 48.3933 10.746 48.5253 10.746H53.0613C53.1933 10.746 53.3013 10.794 53.3853 10.89C53.4693 10.974 53.5113 11.082 53.5113 11.214V13.266C53.5113 14.286 53.2773 15.168 52.8093 15.912C52.3413 16.644 51.6753 17.208 50.8113 17.604C49.9593 17.988 48.9633 18.18 47.8233 18.18ZM56.0264 18C55.9064 18 55.7984 17.958 55.7024 17.874C55.6184 17.778 55.5764 17.67 55.5764 17.55V5.85C55.5764 5.718 55.6184 5.61 55.7024 5.526C55.7984 5.442 55.9064 5.4 56.0264 5.4H60.9224C62.4944 5.4 63.7184 5.76 64.5944 6.48C65.4824 7.188 65.9264 8.196 65.9264 9.504C65.9264 10.344 65.7284 11.058 65.3324 11.646C64.9364 12.234 64.3904 12.684 63.6944 12.996L66.1604 17.424C66.1964 17.496 66.2144 17.562 66.2144 17.622C66.2144 17.718 66.1724 17.808 66.0884 17.892C66.0164 17.964 65.9324 18 65.8364 18H63.4424C63.0944 18 62.8484 17.838 62.7044 17.514L60.6524 13.554H58.8164V17.55C58.8164 17.682 58.7684 17.79 58.6724 17.874C58.5884 17.958 58.4804 18 58.3484 18H56.0264ZM60.8864 10.998C61.4384 10.998 61.8584 10.866 62.1464 10.602C62.4344 10.326 62.5784 9.948 62.5784 9.468C62.5784 8.988 62.4344 8.61 62.1464 8.334C61.8704 8.046 61.4504 7.902 60.8864 7.902H58.8164V10.998H60.8864ZM73.117 18.18C71.425 18.18 70.093 17.766 69.121 16.938C68.149 16.11 67.633 14.892 67.573 13.284C67.561 12.936 67.555 12.42 67.555 11.736C67.555 11.04 67.561 10.518 67.573 10.17C67.633 8.586 68.155 7.368 69.139 6.516C70.135 5.652 71.461 5.22 73.117 5.22C74.773 5.22 76.099 5.652 77.095 6.516C78.091 7.368 78.613 8.586 78.661 10.17C78.685 10.866 78.697 11.388 78.697 11.736C78.697 12.072 78.685 12.588 78.661 13.284C78.601 14.892 78.085 16.11 77.113 16.938C76.141 17.766 74.809 18.18 73.117 18.18ZM73.117 15.588C73.777 15.588 74.299 15.39 74.683 14.994C75.079 14.598 75.289 13.992 75.313 13.176C75.337 12.48 75.349 11.988 75.349 11.7C75.349 11.388 75.337 10.896 75.313 10.224C75.289 9.408 75.079 8.802 74.683 8.406C74.287 8.01 73.765 7.812 73.117 7.812C72.469 7.812 71.947 8.01 71.551 8.406C71.167 8.802 70.957 9.408 70.921 10.224C70.909 10.56 70.903 11.052 70.903 11.7C70.903 12.336 70.909 12.828 70.921 13.176C70.957 13.992 71.167 14.598 71.551 14.994C71.935 15.39 72.457 15.588 73.117 15.588ZM86.0754 18.18C84.3834 18.18 83.0574 17.766 82.0974 16.938C81.1494 16.11 80.6754 14.862 80.6754 13.194V5.85C80.6754 5.718 80.7174 5.61 80.8014 5.526C80.8974 5.442 81.0054 5.4 81.1254 5.4H83.4474C83.5794 5.4 83.6874 5.442 83.7714 5.526C83.8674 5.61 83.9154 5.718 83.9154 5.85V13.176C83.9154 13.956 84.0954 14.544 84.4554 14.94C84.8274 15.324 85.3614 15.516 86.0574 15.516C86.7414 15.516 87.2694 15.318 87.6414 14.922C88.0134 14.526 88.1994 13.944 88.1994 13.176V5.85C88.1994 5.718 88.2414 5.61 88.3254 5.526C88.4214 5.442 88.5294 5.4 88.6494 5.4H90.9894C91.1214 5.4 91.2294 5.442 91.3134 5.526C91.3974 5.61 91.4394 5.718 91.4394 5.85V13.194C91.4394 14.862 90.9594 16.11 89.9994 16.938C89.0514 17.766 87.7434 18.18 86.0754 18.18ZM94.2764 18C94.1564 18 94.0484 17.958 93.9524 17.874C93.8684 17.778 93.8264 17.67 93.8264 17.55V5.85C93.8264 5.718 93.8684 5.61 93.9524 5.526C94.0484 5.442 94.1564 5.4 94.2764 5.4H99.3164C100.852 5.4 102.058 5.754 102.934 6.462C103.822 7.17 104.266 8.202 104.266 9.558C104.266 10.902 103.828 11.916 102.952 12.6C102.076 13.272 100.864 13.608 99.3164 13.608H97.1744V17.55C97.1744 17.682 97.1264 17.79 97.0304 17.874C96.9464 17.958 96.8384 18 96.7064 18H94.2764ZM99.2264 11.124C99.7544 11.124 100.168 10.992 100.468 10.728C100.768 10.452 100.918 10.05 100.918 9.522C100.918 9.03 100.774 8.64 100.486 8.352C100.21 8.052 99.7904 7.902 99.2264 7.902H97.1204V11.124H99.2264Z" fill="white"/>
</svg>
