<svg width="78" height="70" viewBox="0 0 78 70" fill="none" xmlns="http://www.w3.org/2000/svg">
<path fill-rule="evenodd" clip-rule="evenodd" d="M18.7644 19.0469L18.8459 38.0939L22.2429 38.1844L25.6399 38.275V34.8417V31.4085L27.5533 33.5468C29.9239 36.1968 33.0309 37.8905 36.0231 38.1643L37.9639 38.3419V34.1943V30.0467L36.7081 29.8439C34.346 29.463 32.2759 26.914 32.2759 24.3865C32.2759 21.8484 34.2857 19.3788 36.6835 18.9701L37.9819 18.7489L37.8938 14.5544L37.8059 10.3603L36.3839 10.4562C33.0906 10.6787 29.2022 12.7964 27.1074 15.5085L25.9559 16.9998V8.49988V0H22.3194H18.6829L18.7644 19.0469ZM40.8079 19.1266V38.2533H44.4419H48.0759L48.0794 34.9858L48.0829 31.7183L48.938 32.8341C51.0343 35.5695 54.091 37.5676 57.1764 38.2185C59.9582 38.8057 59.7679 39.0958 59.7679 34.2686C59.7679 30.1002 59.7471 29.9651 59.0999 29.9651C58.7327 29.9651 57.9124 29.6705 57.2775 29.3106C52.9376 26.85 53.8603 20.2089 58.6822 19.2L59.9259 18.9395L60.0144 14.6845L60.1029 10.4294L58.2113 10.6025C55.2526 10.8732 52.2231 12.4463 49.9587 14.8882L48.0759 16.9185V8.45939V0H44.4419H40.8079V19.1266ZM63.3141 14.5739L63.4019 18.9574L64.5079 19.1423C66.0506 19.4005 66.8735 19.9108 67.868 21.2261C69.7444 23.7075 68.9269 27.69 66.2222 29.2427C65.54 29.6342 64.5866 29.9571 64.1038 29.96L63.2256 29.9651L63.3138 34.1761L63.4019 38.3875L64.3717 38.587C65.686 38.8577 67.1946 39.793 67.9135 40.7831C69.8777 43.4879 69.5864 46.6502 67.1554 49.012L65.7609 50.3668H33.0602H0.359924V51.1638V51.9607H11.2619H22.1639V52.917V53.8734H11.2619H0.359924V54.6703V55.4673H11.2619H22.1639V56.4236V57.3799H11.0831H0.00189601L0.102068 58.2565L0.201924 59.1332H33.7144H67.2268L69.6584 57.9209C78.0959 53.714 80.483 43.2246 74.7852 35.3942C73.7234 33.9354 73.7042 33.8596 74.2629 33.3495C75.8994 31.8557 77.4538 27.5695 77.4601 24.5331C77.4759 17.1792 72.3138 11.5107 64.5781 10.3867L63.2259 10.1904L63.3141 14.5739ZM0.570696 40.0598C0.454724 40.1765 0.359924 40.4634 0.359924 40.6973C0.359924 41.0384 1.7301 41.1223 7.31666 41.1223H14.2731L15.4537 42.2294L16.6339 43.3365L8.49693 43.3451C0.57354 43.3534 0.359924 43.3703 0.359924 43.9913C0.359924 44.6135 0.570696 44.6288 9.14883 44.6288H17.9377L18.8459 45.5852L19.7541 46.5415H10.057H0.359924V47.3384V48.1354H10.684C19.4842 48.1354 21.0867 48.2071 21.5395 48.6206C21.9844 49.0267 23.0689 49.0917 28.1784 49.019L34.2857 48.9323L29.9274 44.3897L25.5688 39.8472H13.175C6.35855 39.8472 0.686352 39.9428 0.570696 40.0598ZM27.9047 40.1452C27.9625 40.3091 29.9113 42.392 32.2348 44.7742L36.4598 49.1051L42.453 49.0187L48.4463 48.9323L44.1247 44.3897L39.8031 39.8472H33.8013C30.2147 39.8472 27.8415 39.967 27.9047 40.1452ZM42.3879 40.3766C42.3879 40.4927 43.8671 42.1067 45.675 43.9629C47.4828 45.8195 49.344 47.8048 49.8111 48.3745L50.6602 49.4105H56.8203C60.3108 49.4105 62.9349 49.2868 62.8752 49.1252C62.8173 48.9683 60.8885 46.8883 58.5893 44.5029L54.4083 40.1659H48.3983C45.0926 40.1659 42.3879 40.2609 42.3879 40.3766ZM10.7089 61.4443C1.52122 61.5202 0.043924 61.5983 0.043924 62.0063C0.043924 62.4156 1.4002 62.4804 9.99793 62.4804C15.4726 62.4804 19.9519 62.5801 19.9519 62.7019C19.9519 62.824 19.5699 63.3261 19.1028 63.8176L18.2537 64.7118H9.14883C0.254696 64.7118 0.043924 64.7265 0.043924 65.3493C0.043924 65.971 0.254696 65.9869 8.47702 65.9869H16.9101L16.0073 66.9375L15.1045 67.8884L7.6532 67.9735L0.201924 68.059L0.100804 68.7762L0 69.4934H13.0568L26.1139 69.4931L29.8269 65.533C31.8692 63.3551 33.5399 61.4902 33.5399 61.3892C33.5399 61.2881 30.8027 61.239 27.4569 61.2805C24.1111 61.3219 16.5748 61.3956 10.7089 61.4443ZM31.983 65.2697L28.1594 69.3341L34.2351 69.4208L40.3105 69.5078L44.1932 65.6002C46.3288 63.4513 48.0759 61.5833 48.0759 61.4491C48.0759 61.3149 45.3154 61.2052 41.9414 61.2052H35.8066L31.983 65.2697ZM46.6565 65.2697L42.7735 69.3341L49.0265 69.4201L55.2795 69.5065L59.0247 65.6515C61.0847 63.5314 62.8173 61.6636 62.8752 61.5011C62.9377 61.3257 60.4486 61.2052 56.7602 61.2052H50.5395L46.6565 65.2697Z" fill="white"/>
</svg>
