<svg width="156" height="38" viewBox="0 0 156 38" fill="none" xmlns="http://www.w3.org/2000/svg">
<path fill-rule="evenodd" clip-rule="evenodd" d="M27.2447 0.427962C26.4239 0.721877 24.2961 0.89812 19.6792 1.0544C16.1463 1.1742 12.5491 1.41354 11.6855 1.58658C9.12413 2.0996 6.56416 3.38149 4.83267 5.01852C1.95323 7.7407 0.824409 10.6412 0.237444 16.8262C-0.566206 25.2928 0.631133 30.2106 4.4267 34.0336C11.8203 41.481 25.5537 37.9016 28.3778 27.7911C30.5989 19.8394 23.332 12.1814 14.8699 13.5556C13.28 13.8139 13.0102 13.796 12.7102 13.4135C12.2517 12.8286 11.042 13.0109 10.7103 13.7146C10.5667 14.0199 10.1813 14.3793 9.85384 14.5133C9.45045 14.6786 9.22862 15.0534 9.16496 15.6772C9.11328 16.1833 8.82437 16.9208 8.52261 17.3158C7.78576 18.2806 7.81631 18.3512 8.96968 18.3512C9.83728 18.3512 10.0186 18.4707 10.3826 19.283C10.8782 20.3892 11.9622 20.5635 12.6505 19.6472C13.0761 19.0804 13.0773 19.0807 13.9603 19.98C14.8864 20.9237 15.6835 22.9356 15.6807 24.3232C15.6761 26.7243 13.8433 29.16 11.4751 29.9124C8.10951 30.9818 5.13043 29.7694 3.49601 26.6655C2.79342 25.3311 2.6935 24.8397 2.69978 22.7439C2.71206 18.5173 4.44269 14.8956 7.46915 12.7625C9.7839 11.1314 10.9284 10.871 17.4156 10.5004C24.0109 10.124 25.1429 9.83831 26.7328 8.14962C27.2364 7.61477 27.8522 6.5464 28.1014 5.77567C28.6301 4.14024 29.0213 -0.0272868 28.6433 0.000134672C28.502 0.0105175 27.8727 0.203 27.2447 0.427962ZM101.055 6.09382C100.748 6.38054 100.239 7.08445 99.9255 7.65817C99.2711 8.85433 98.9123 9.03323 97.1659 9.03323C96.4137 9.03323 95.9047 9.15543 95.9047 9.3362C95.9047 9.54732 96.3897 9.58592 97.508 9.46319C98.9111 9.30958 99.089 9.34126 98.934 9.7177C98.8366 9.95411 98.6796 10.436 98.5845 10.7885C98.4535 11.2762 98.2194 11.4293 97.6059 11.4293C96.9989 11.4293 96.5444 11.7195 95.7685 12.6025C95.2012 13.2479 94.2788 13.9787 93.7184 14.2268C92.7586 14.6514 92.6723 14.6512 92.2321 14.2196C91.8995 13.8932 91.8636 13.7274 92.1077 13.6424C92.7957 13.4036 93.9062 12.4457 93.9062 12.0911C93.9062 11.0007 92.1633 11.5424 91.6012 12.8081C90.8247 14.5564 92.5961 15.5854 94.2697 14.3578C94.6688 14.0649 95.0565 13.8253 95.1313 13.8253C95.2061 13.8253 95.3343 14.0649 95.4165 14.3578C95.5986 15.0074 96.3877 15.047 97.104 14.4424C97.6173 14.0093 97.629 14.0468 97.4597 15.5739C97.3632 16.4423 97.2365 17.2991 97.1779 17.4774C97.1194 17.6558 97.1799 17.864 97.3121 17.9404C97.621 18.1185 97.8942 17.1638 97.8991 15.8886C97.9028 14.997 97.981 14.8902 98.6305 14.8902C99.8869 14.8902 101.51 12.6151 100.905 11.7019C100.634 11.2938 99.8707 11.3728 99.2817 11.8699C98.6099 12.437 98.6211 12.0581 99.3282 10.3079C99.7679 9.21906 100.142 8.7702 100.978 8.32693C102.166 7.69704 102.928 6.63932 102.66 5.98945C102.426 5.42026 101.729 5.46525 101.055 6.09382ZM70.8667 6.47825C70.0448 7.12305 69.9503 7.13583 68.1064 6.85097C64.6288 6.31345 61.6246 7.47554 60.6043 9.75258C60.0713 10.9421 60.121 11.6045 60.7896 12.228C61.682 13.0602 62.6472 12.8922 64.0881 11.654L65.3754 10.5473L64.7895 11.8217C63.6978 14.1967 62.5428 18.9771 62.9972 19.2391C63.1343 19.3181 63.4694 18.282 63.7421 16.9367C64.0144 15.5915 64.6263 13.4726 65.1016 12.228C65.5766 10.9833 66.0443 9.72542 66.1405 9.43258C66.2367 9.13972 65.5504 9.64902 64.6154 10.564C63.3809 11.7722 62.712 12.228 62.173 12.228C59.3944 12.228 61.1798 8.2657 64.329 7.44332C65.5195 7.13264 68.9163 7.20478 69.2849 7.54875C69.3508 7.61025 69.0182 8.41851 68.546 9.34525C67.0164 12.3462 66.6749 15.3883 67.8217 15.7986C68.5049 16.0433 69.4818 15.3468 70.9812 13.5463C71.7069 12.6747 72.4264 11.9617 72.5797 11.9617C72.7498 11.9617 72.7887 12.5592 72.6796 13.4925C72.5006 15.0204 72.5014 15.0223 73.0416 14.4259C73.4581 13.9662 73.5469 13.5674 73.4276 12.6955C73.3422 12.0722 73.2357 11.5214 73.1906 11.4716C72.8951 11.1439 71.8183 11.9553 70.3988 13.5756C68.3556 15.9078 67.7601 15.9626 67.8343 13.812C67.8865 12.2943 68.6545 10.0555 69.6331 8.56734C70.1376 7.8006 70.3466 7.7021 71.4708 7.7021C72.2599 7.7021 72.9143 7.5389 73.2023 7.27054C74.5199 6.04164 72.3578 5.30818 70.8667 6.47825ZM72.9382 6.39412C73.208 6.80145 72.7724 7.13104 71.7007 7.33098C70.5507 7.54555 70.4731 7.07646 71.5668 6.52324C72.5229 6.03951 72.6924 6.02353 72.9382 6.39412ZM102.185 6.53043C102.185 6.98728 100.491 8.60647 100.249 8.38098C100.045 8.19036 101.561 6.10473 101.904 6.10473C102.059 6.10473 102.185 6.29615 102.185 6.53043ZM110.197 7.29903C108.715 7.66349 107.39 8.06629 107.253 8.19462C107.11 8.328 107.316 8.85779 107.734 9.43311C108.509 10.4978 108.692 11.4293 108.126 11.4293C107.94 11.4293 107.18 12.0416 106.438 12.7902C105.032 14.2092 104.476 14.2899 104.46 13.0775L104.45 12.3611L103.575 13.3594C102.659 14.4054 102.185 14.6166 102.185 13.9789C102.185 13.3291 103.596 12.0006 104.408 11.8853C105.032 11.7967 104.978 11.7674 104.133 11.7354C103.307 11.704 102.956 11.8467 102.485 12.4042C101.123 14.0199 101.509 15.457 103.025 14.4118C103.521 14.0692 103.94 13.9387 104.043 14.094C104.27 14.4374 105.526 14.4355 105.754 14.0916C106.037 13.6648 106.389 13.7827 106.551 14.3578C106.921 15.6777 108.794 14.4536 109.155 12.6555C109.326 11.8079 110.295 10.8968 111.026 10.8968C111.508 10.8968 111.347 12.183 110.477 15.2896C109.712 18.0205 109.606 18.9494 110.155 18.1217C110.281 17.9308 110.552 17.1257 110.756 16.3324C111.075 15.0915 111.221 14.8902 111.801 14.8902C112.185 14.8902 112.996 14.4478 113.683 13.8631C114.347 13.2982 115.166 12.7013 115.504 12.5365C116.094 12.2493 116.112 12.2804 115.966 13.2974C115.837 14.1988 115.892 14.3578 116.335 14.3578C116.622 14.3578 117.217 14.0359 117.657 13.6424L118.458 12.9271V13.7598C118.458 15.4291 119.973 15.2158 121.276 13.3629L122.168 12.0948L121.987 13.3594C121.796 14.6943 121.962 14.8815 122.749 14.218C123.18 13.8541 123.267 13.8541 123.591 14.218C124.043 14.7254 125.311 14.7435 126.031 14.2526C126.504 13.9302 126.621 13.939 126.919 14.3189C127.232 14.7188 127.334 14.7063 128.112 14.1704C128.94 13.5993 128.966 13.5974 129.108 14.1041C129.217 14.4941 129.502 14.624 130.247 14.624C131.437 14.624 133.958 13.1552 134.119 12.3688C134.203 11.9564 133.971 12.0589 133.036 12.8467C130.982 14.5774 129.592 14.7609 129.592 13.3011C129.592 12.2945 129.451 12.2932 128.549 13.2929C128.153 13.7321 127.712 14.0916 127.568 14.0916C127.025 14.0916 127.342 13.2207 128.163 12.4551C128.798 11.863 129.173 11.7046 129.626 11.8385C130.036 11.9599 130.171 11.9226 130.039 11.724C129.571 11.0169 128.417 11.449 126.917 12.8935C125.273 14.4763 124.808 14.6317 124.051 13.8517C123.58 13.3672 123.608 13.3094 124.72 12.4761C125.359 11.9977 125.881 11.4985 125.881 11.3667C125.881 11.0614 124.588 11.9258 123.373 13.0445L122.434 13.9076L122.624 12.8014C122.892 11.2389 122.197 11.3276 121.044 13.003C119.611 15.0856 118.842 15.0399 119.187 12.8927C119.293 12.2344 119.276 11.6955 119.149 11.6955C119.021 11.6955 118.36 12.2647 117.678 12.9601L116.439 14.2247L116.617 13.0932C116.829 11.7519 116.413 11.6162 114.852 12.516L113.89 13.07V12.5075C113.89 11.6982 113.114 11.5328 112.37 12.1838L111.736 12.7397L111.844 11.6851C111.943 10.7201 111.893 10.6306 111.263 10.6306C110.884 10.6306 110.324 10.8066 110.019 11.0214C109.283 11.5411 109.037 11.5254 109.037 10.9586C109.037 10.6998 108.715 10.046 108.321 9.50579L107.606 8.52341L109.392 8.01145C112.279 7.18402 114.063 7.03972 114.922 7.56419C115.77 8.08227 116.206 7.8834 115.554 7.27587C114.813 6.58527 113.071 6.59273 110.197 7.29903ZM76.2085 10.2597C75.3463 10.4759 74.5176 10.7674 74.3671 10.9077C73.9851 11.264 74.382 11.2291 76.0372 10.7608C76.808 10.5427 77.932 10.3644 78.5352 10.3644C79.1385 10.3644 79.6318 10.2446 79.6318 10.0981C79.6318 9.72276 78.0539 9.79731 76.2085 10.2597ZM88.5202 12.6175C87.1864 14.3495 86.9303 14.4089 87.147 12.9351C87.2532 12.2109 87.2164 11.6955 87.0579 11.6955C86.9089 11.6955 86.2594 12.3613 85.6148 13.1752C84.9699 13.9893 84.2915 14.6067 84.1068 14.5479C83.8902 14.4787 83.8059 13.9542 83.869 13.0679C83.9227 12.3132 83.8482 11.6955 83.7032 11.6955C83.5584 11.6955 83.0248 12.2346 82.5172 12.8935C81.3721 14.3807 80.9962 14.4195 81.2351 13.0266C81.3356 12.4409 81.3051 11.9593 81.1672 11.9564C81.0293 11.9535 80.3104 12.5826 79.5696 13.3541L78.2226 14.7571L78.2135 13.3594C78.2024 11.6692 77.7473 11.532 76.4466 12.827C75.78 13.4907 75.6175 13.565 75.7503 13.1459C75.8454 12.8451 75.7403 12.3661 75.5165 12.081C75.1177 11.5722 75.096 11.5746 74.3734 12.2077C73.968 12.5629 73.6365 12.9731 73.6365 13.1196C73.6365 13.266 73.9577 13.1044 74.3503 12.7604L75.064 12.1351V13.2465C75.064 13.8578 75.1773 14.3578 75.3155 14.3578C75.454 14.3578 75.9102 13.9385 76.3293 13.426C76.7484 12.9135 77.2134 12.4942 77.3625 12.4942C77.5115 12.4942 77.6334 13.0333 77.6334 13.6922C77.6334 14.6954 77.7225 14.8902 78.1807 14.8902C78.4816 14.8902 79.1685 14.3959 79.7069 13.7915L80.6855 12.6925L80.5545 13.5253C80.4437 14.2281 80.5151 14.3578 81.0124 14.3578C81.3362 14.3578 82.0045 13.9686 82.4973 13.4925C83.2701 12.7463 83.3674 12.7096 83.2061 13.2263C82.642 15.0343 84.2065 15.4709 85.5897 13.8919L86.4644 12.8935L86.4738 13.6257C86.487 14.6288 87.3594 14.5963 88.2964 13.5578L89.0184 12.758L89.1069 13.7574C89.1723 14.4925 89.3655 14.8266 89.838 15.0199C90.773 15.4025 90.6337 15.6317 89.267 15.9599C86.1678 16.7043 84.7706 17.2858 84.7706 17.831C84.7706 17.9774 85.0595 17.9223 85.4129 17.7085C85.7664 17.4945 87.0003 17.0765 88.1553 16.7797C91.0431 16.0371 91.8244 15.3343 90.409 14.7523C89.8335 14.5157 89.7758 14.329 89.854 12.9588C89.9023 12.1175 89.8278 11.4293 89.6884 11.4293C89.5491 11.4293 89.0235 11.9639 88.5202 12.6175ZM92.947 12.7042C92.2858 13.3208 92.0029 12.8653 92.6398 12.2091C92.9804 11.8582 93.2191 11.7695 93.2896 11.9673C93.3512 12.1396 93.1971 12.471 92.947 12.7042ZM97.8939 12.7985C97.4631 13.5761 96.4565 14.624 96.1405 14.624C95.5518 14.624 95.97 13.1909 96.7788 12.437C97.7909 11.4929 98.4912 11.72 97.8939 12.7985ZM100.184 13.0325C99.817 13.8599 98.6034 14.8333 98.2962 14.5471C98.0295 14.2981 98.4712 13.3371 99.2474 12.4766C100.171 11.4527 100.737 11.7882 100.184 13.0325ZM108.467 12.7556C108.241 13.906 107.695 14.7044 107.292 14.4723C106.651 14.103 107.519 11.6955 108.292 11.6955C108.583 11.6955 108.625 11.9506 108.467 12.7556ZM113.319 12.7245C113.319 13.3602 112.261 14.624 111.728 14.624C111.237 14.624 111.225 14.497 111.643 13.7412C112.403 12.3693 113.319 11.8137 113.319 12.7245ZM11.635 16.31C11.6884 16.5667 11.5451 16.7538 11.295 16.7538C10.7648 16.7538 10.4445 16.3199 10.6957 15.941C10.9538 15.5515 11.5239 15.7752 11.635 16.31ZM53.5835 20.5774C50.8971 21.5124 49.5964 23.1143 49.4194 25.7063C49.2353 28.4026 50.249 30.1626 52.6215 31.2651C55.568 32.6343 59.0966 31.9317 60.982 29.6001C63.2262 26.8249 62.2507 22.5235 59.0298 20.9911C57.5236 20.2747 55.0039 20.083 53.5835 20.5774ZM80.4554 20.5659C78.7142 21.1735 77.598 22.097 76.8894 23.5163C75.6841 25.9299 76.1711 28.7 78.097 30.3839C80.478 32.4658 84.7809 32.4658 87.1619 30.3839C89.5049 28.335 89.691 24.2726 87.5404 22.1226C85.9925 20.5753 82.5783 19.825 80.4554 20.5659ZM109.035 20.4634C106.099 21.2965 104.421 23.3145 104.394 26.0476C104.385 26.8673 104.53 27.9655 104.715 28.4878C105.125 29.6483 106.532 30.9613 107.957 31.5159C109.296 32.0366 112.452 32.0515 113.757 31.543C114.569 31.2268 114.747 31.0162 114.747 30.3738V29.5903L113.676 30.1107C112.846 30.5149 112.175 30.611 110.685 30.5396C108.957 30.4571 108.666 30.3583 107.779 29.5564C105.914 27.8715 105.806 25.0327 107.533 23.1191C108.913 21.5896 110.97 21.1721 113.319 21.9453C114.878 22.458 114.798 22.4849 114.694 21.4804C114.619 20.7629 114.459 20.5878 113.748 20.4472C112.554 20.2111 109.892 20.2204 109.035 20.4634ZM137.227 20.5441C136.964 20.7289 135.601 23.3062 134.2 26.2715L131.651 31.6626L132.549 31.6596C133.382 31.657 133.498 31.5374 134.163 29.9957L134.879 28.3347L137.277 28.2567C138.66 28.2117 139.799 28.2948 139.968 28.4532C140.13 28.6041 140.548 29.3581 140.896 30.1286C141.506 31.4789 141.573 31.5324 142.749 31.6136C143.763 31.6836 143.913 31.6357 143.639 31.3277C143.457 31.124 142.175 28.5781 140.789 25.6701C139.403 22.7621 138.143 20.3434 137.987 20.2952C137.832 20.247 137.49 20.3591 137.227 20.5441ZM38.6642 26.0718V31.6626H41.1765C44.9875 31.6626 46.2296 30.8389 46.2296 28.3113C46.2296 26.0327 44.8362 25.0122 41.7189 25.0085L40.4913 25.0069L40.577 23.4761L40.6626 21.9453L43.1606 21.9695L45.6587 21.994V21.2374V20.481H42.1614H38.6642V26.0718ZM65.7856 26.0718V31.6626H66.7135H67.6413V29.5327V27.4029L68.8546 27.3971C72.3282 27.3803 74.3677 24.6839 72.904 22.0443C72.2791 20.9174 70.9521 20.481 68.15 20.481H65.7856V26.0718ZM92.704 26.0715L92.7863 31.6626H95.6589H98.5312L99.5018 30.7574C100.343 29.9731 100.472 29.6773 100.472 28.5408C100.472 27.5145 100.329 27.1037 99.8119 26.6506C99.4484 26.3322 98.9665 26.0691 98.7413 26.0659C98.4592 26.0617 98.5214 25.9163 98.9403 25.6C100.207 24.6429 100.525 23.1941 99.7673 21.8279C99.2075 20.8181 98.0338 20.481 95.077 20.4807L92.6215 20.4805L92.704 26.0715ZM119.254 26.0715L119.337 31.6626H120.325H121.313V29.0003C121.313 26.3931 121.327 26.338 121.975 26.338C122.487 26.338 123.013 26.8534 124.286 28.6015C126.298 31.3631 127.019 31.9288 128.525 31.9288H129.665L128.552 30.7973C127.94 30.1749 126.685 28.6656 125.764 27.4431L124.089 25.2204L125.838 22.8507L127.587 20.481H126.306C125.379 20.481 125.024 20.5875 125.024 20.8654C125.024 21.0768 124.479 22.0952 123.813 23.1284C122.885 24.5663 122.45 25.0069 121.957 25.0069C121.339 25.0069 121.313 24.9148 121.313 22.7439V20.481L120.243 20.4807L119.172 20.4805L119.254 26.0715ZM150.61 20.7563C147.934 21.5036 147.086 25.115 149.31 26.2946C149.768 26.5382 150.143 26.7973 150.141 26.8705C150.14 26.9437 149.112 28.1116 147.856 29.4662L145.573 31.9288H146.696C148.121 31.9288 149.099 31.1852 150.714 28.873C151.875 27.2123 151.977 27.1367 153.072 27.1367H154.216L154.089 29.3996L153.961 31.6626H154.898H155.835L155.917 26.0715L156 20.4805L153.716 20.5036C152.46 20.5164 151.062 20.6301 150.61 20.7563ZM58.2205 22.4112C61.708 24.6312 60.4284 29.9989 56.288 30.5167C54.8765 30.6932 52.9483 29.9044 52.0876 28.7982C51.24 27.7091 51.1475 24.8908 51.9217 23.7399C53.2176 21.813 56.2691 21.1692 58.2205 22.4112ZM69.9069 22.0736C71.096 22.3915 71.3427 22.72 71.3484 23.9934C71.3538 25.2294 70.5636 25.8056 68.8623 25.8056H67.6413V23.9864C67.6413 22.9857 67.7269 22.0872 67.8317 21.9897C68.0978 21.7413 68.7661 21.7682 69.9069 22.0736ZM84.9873 22.3433C87.0579 23.5205 87.7228 26.3548 86.431 28.4982C85.6102 29.8602 83.776 30.722 82.135 30.5167C78.9903 30.1232 77.2117 26.7177 78.7045 23.9473C79.7917 21.9293 82.8747 21.1421 84.9873 22.3433ZM97.8317 22.4109C98.0281 22.5568 98.1886 23.0738 98.1886 23.5602C98.1886 24.66 97.3484 25.2731 95.841 25.2731H94.7627V23.5264V21.7794L96.1188 21.9626C96.8648 22.0632 97.6356 22.265 97.8317 22.4109ZM154.002 23.8089V25.6725L152.648 25.7534C151.517 25.8213 151.177 25.7246 150.578 25.1666C148.963 23.6603 150.3 21.7336 152.86 21.88L154.002 21.9453V23.8089ZM139.299 26.772C139.299 26.8263 138.455 26.8705 137.424 26.8705C135.284 26.8705 135.326 27.014 136.65 24.2484L137.37 22.7439L138.334 24.7087C138.865 25.7893 139.299 26.7179 139.299 26.772ZM43.7445 26.937C44.008 27.1202 44.3037 27.6513 44.402 28.1175C44.6686 29.3837 43.5623 30.3314 41.8174 30.3314H40.5199V28.4678V26.6042H41.8928C42.6479 26.6042 43.4813 26.7541 43.7445 26.937ZM98.0861 27.2831C99.477 28.5802 98.2876 30.3314 96.0157 30.3314H94.7627V28.4678V26.6042H96.0602C97.0709 26.6042 97.5194 26.7547 98.0861 27.2831Z" fill="white"/>
</svg>
