<svg width="145" height="50" viewBox="0 0 145 50" fill="none" xmlns="http://www.w3.org/2000/svg">
<path d="M51.256 25.26C48.812 25.26 46.888 24.662 45.484 23.466C44.08 22.27 43.3347 20.5107 43.248 18.188C43.2307 17.6853 43.222 16.94 43.222 15.952C43.222 14.9467 43.2307 14.1927 43.248 13.69C43.3347 11.402 44.0887 9.64267 45.51 8.412C46.9487 7.164 48.864 6.54 51.256 6.54C53.648 6.54 55.5633 7.164 57.002 8.412C58.4407 9.64267 59.1947 11.402 59.264 13.69C59.2987 14.6953 59.316 15.4493 59.316 15.952C59.316 16.4373 59.2987 17.1827 59.264 18.188C59.1773 20.5107 58.432 22.27 57.028 23.466C55.624 24.662 53.7 25.26 51.256 25.26ZM51.256 21.516C52.2093 21.516 52.9633 21.23 53.518 20.658C54.09 20.086 54.3933 19.2107 54.428 18.032C54.4627 17.0267 54.48 16.316 54.48 15.9C54.48 15.4493 54.4627 14.7387 54.428 13.768C54.3933 12.5893 54.09 11.714 53.518 11.142C52.946 10.57 52.192 10.284 51.256 10.284C50.32 10.284 49.566 10.57 48.994 11.142C48.4393 11.714 48.136 12.5893 48.084 13.768C48.0667 14.2533 48.058 14.964 48.058 15.9C48.058 16.8187 48.0667 17.5293 48.084 18.032C48.136 19.2107 48.4393 20.086 48.994 20.658C49.5487 21.23 50.3027 21.516 51.256 21.516ZM69.7658 25.26C67.3218 25.26 65.3978 24.662 63.9938 23.466C62.5898 22.27 61.8444 20.5107 61.7578 18.188C61.7404 17.6853 61.7318 16.94 61.7318 15.952C61.7318 14.9467 61.7404 14.1927 61.7578 13.69C61.8444 11.402 62.5984 9.64267 64.0198 8.412C65.4584 7.164 67.3738 6.54 69.7658 6.54C72.1578 6.54 74.0731 7.164 75.5118 8.412C76.9504 9.64267 77.7044 11.402 77.7738 13.69C77.8084 14.6953 77.8258 15.4493 77.8258 15.952C77.8258 16.4373 77.8084 17.1827 77.7738 18.188C77.6871 20.5107 76.9418 22.27 75.5378 23.466C74.1338 24.662 72.2098 25.26 69.7658 25.26ZM69.7658 21.516C70.7191 21.516 71.4731 21.23 72.0278 20.658C72.5998 20.086 72.9031 19.2107 72.9378 18.032C72.9724 17.0267 72.9898 16.316 72.9898 15.9C72.9898 15.4493 72.9724 14.7387 72.9378 13.768C72.9031 12.5893 72.5998 11.714 72.0278 11.142C71.4558 10.57 70.7018 10.284 69.7658 10.284C68.8298 10.284 68.0758 10.57 67.5038 11.142C66.9491 11.714 66.6458 12.5893 66.5938 13.768C66.5764 14.2533 66.5678 14.964 66.5678 15.9C66.5678 16.8187 66.5764 17.5293 66.5938 18.032C66.6458 19.2107 66.9491 20.086 67.5038 20.658C68.0584 21.23 68.8124 21.516 69.7658 21.516ZM88.2755 25.26C85.8315 25.26 83.9075 24.662 82.5035 23.466C81.0995 22.27 80.3542 20.5107 80.2675 18.188C80.2502 17.6853 80.2415 16.94 80.2415 15.952C80.2415 14.9467 80.2502 14.1927 80.2675 13.69C80.3542 11.402 81.1082 9.64267 82.5295 8.412C83.9682 7.164 85.8835 6.54 88.2755 6.54C90.6675 6.54 92.5829 7.164 94.0215 8.412C95.4602 9.64267 96.2142 11.402 96.2835 13.69C96.3182 14.6953 96.3355 15.4493 96.3355 15.952C96.3355 16.4373 96.3182 17.1827 96.2835 18.188C96.1969 20.5107 95.4515 22.27 94.0475 23.466C92.6435 24.662 90.7195 25.26 88.2755 25.26ZM88.2755 21.516C89.2289 21.516 89.9829 21.23 90.5375 20.658C91.1095 20.086 91.4129 19.2107 91.4475 18.032C91.4822 17.0267 91.4995 16.316 91.4995 15.9C91.4995 15.4493 91.4822 14.7387 91.4475 13.768C91.4129 12.5893 91.1095 11.714 90.5375 11.142C89.9655 10.57 89.2115 10.284 88.2755 10.284C87.3395 10.284 86.5855 10.57 86.0135 11.142C85.4589 11.714 85.1555 12.5893 85.1035 13.768C85.0862 14.2533 85.0775 14.964 85.0775 15.9C85.0775 16.8187 85.0862 17.5293 85.1035 18.032C85.1555 19.2107 85.4589 20.086 86.0135 20.658C86.5682 21.23 87.3222 21.516 88.2755 21.516Z" fill="white"/>
<path d="M3.87 45.18C3.234 45.18 2.652 45.06 2.124 44.82C1.608 44.568 1.2 44.232 0.9 43.812C0.612 43.38 0.468 42.906 0.468 42.39C0.468 41.562 0.804 40.896 1.476 40.392C2.16 39.888 3.096 39.54 4.284 39.348L6.534 39.006V38.754C6.534 38.298 6.438 37.962 6.246 37.746C6.054 37.53 5.73 37.422 5.274 37.422C4.998 37.422 4.77 37.47 4.59 37.566C4.41 37.662 4.224 37.794 4.032 37.962C3.864 38.106 3.738 38.202 3.654 38.25C3.618 38.346 3.552 38.394 3.456 38.394H1.494C1.374 38.394 1.272 38.358 1.188 38.286C1.116 38.202 1.086 38.106 1.098 37.998C1.11 37.674 1.266 37.314 1.566 36.918C1.878 36.522 2.346 36.18 2.97 35.892C3.606 35.604 4.386 35.46 5.31 35.46C6.786 35.46 7.878 35.79 8.586 36.45C9.294 37.098 9.648 37.974 9.648 39.078V44.55C9.648 44.67 9.606 44.778 9.522 44.874C9.438 44.958 9.33 45 9.198 45H7.11C6.99 45 6.882 44.958 6.786 44.874C6.702 44.778 6.66 44.67 6.66 44.55V43.92C6.396 44.292 6.024 44.598 5.544 44.838C5.076 45.066 4.518 45.18 3.87 45.18ZM4.716 43.128C5.268 43.128 5.712 42.948 6.048 42.588C6.396 42.228 6.57 41.7 6.57 41.004V40.752L5.04 41.022C3.96 41.214 3.42 41.592 3.42 42.156C3.42 42.456 3.546 42.696 3.798 42.876C4.05 43.044 4.356 43.128 4.716 43.128ZM12.1292 45C11.9972 45 11.8892 44.958 11.8052 44.874C11.7212 44.79 11.6792 44.682 11.6792 44.55V36.09C11.6792 35.958 11.7212 35.85 11.8052 35.766C11.8892 35.682 11.9972 35.64 12.1292 35.64H18.1412C18.2732 35.64 18.3812 35.682 18.4652 35.766C18.5492 35.85 18.5912 35.958 18.5912 36.09V37.548C18.5912 37.668 18.5492 37.776 18.4652 37.872C18.3812 37.956 18.2732 37.998 18.1412 37.998H14.7032V44.55C14.7032 44.67 14.6612 44.778 14.5772 44.874C14.4932 44.958 14.3852 45 14.2532 45H12.1292ZM20.3909 48.42C20.2709 48.42 20.1629 48.378 20.0669 48.294C19.9829 48.21 19.9409 48.102 19.9409 47.97V36.09C19.9409 35.958 19.9829 35.85 20.0669 35.766C20.1629 35.682 20.2709 35.64 20.3909 35.64H22.4249C22.5569 35.64 22.6649 35.682 22.7489 35.766C22.8329 35.85 22.8749 35.958 22.8749 36.09V36.738C23.5229 35.886 24.4529 35.46 25.6649 35.46C26.8409 35.46 27.7589 35.826 28.4189 36.558C29.0789 37.29 29.4389 38.322 29.4989 39.654C29.5109 39.81 29.5169 40.032 29.5169 40.32C29.5169 40.608 29.5109 40.83 29.4989 40.986C29.4509 42.282 29.0909 43.308 28.4189 44.064C27.7469 44.808 26.8289 45.18 25.6649 45.18C24.4889 45.18 23.6129 44.778 23.0369 43.974V47.97C23.0369 48.102 22.9949 48.21 22.9109 48.294C22.8269 48.378 22.7189 48.42 22.5869 48.42H20.3909ZM24.6929 42.768C25.2569 42.768 25.6589 42.6 25.8989 42.264C26.1509 41.928 26.2949 41.466 26.3309 40.878C26.3549 40.638 26.3669 40.452 26.3669 40.32C26.3669 40.188 26.3549 40.002 26.3309 39.762C26.2949 39.174 26.1509 38.712 25.8989 38.376C25.6589 38.04 25.2569 37.872 24.6929 37.872C24.1409 37.872 23.7329 38.046 23.4689 38.394C23.2169 38.73 23.0729 39.168 23.0369 39.708L23.0189 40.374L23.0369 41.058C23.0609 41.55 23.2109 41.958 23.4869 42.282C23.7629 42.606 24.1649 42.768 24.6929 42.768ZM35.7244 45.18C34.2364 45.18 33.0904 44.826 32.2864 44.118C31.4824 43.41 31.0444 42.414 30.9724 41.13C30.9604 40.974 30.9544 40.704 30.9544 40.32C30.9544 39.936 30.9604 39.666 30.9724 39.51C31.0444 38.238 31.4944 37.248 32.3224 36.54C33.1504 35.82 34.2844 35.46 35.7244 35.46C37.1764 35.46 38.3164 35.82 39.1444 36.54C39.9724 37.248 40.4224 38.238 40.4944 39.51C40.5064 39.666 40.5124 39.936 40.5124 40.32C40.5124 40.704 40.5064 40.974 40.4944 41.13C40.4224 42.414 39.9844 43.41 39.1804 44.118C38.3764 44.826 37.2244 45.18 35.7244 45.18ZM35.7244 42.984C36.2524 42.984 36.6424 42.828 36.8944 42.516C37.1464 42.192 37.2904 41.7 37.3264 41.04C37.3384 40.92 37.3444 40.68 37.3444 40.32C37.3444 39.96 37.3384 39.72 37.3264 39.6C37.2904 38.952 37.1404 38.466 36.8764 38.142C36.6244 37.818 36.2404 37.656 35.7244 37.656C34.7284 37.656 34.2004 38.304 34.1404 39.6L34.1224 40.32L34.1404 41.04C34.1644 41.7 34.3024 42.192 34.5544 42.516C34.8184 42.828 35.2084 42.984 35.7244 42.984ZM47.4303 48.42C47.3103 48.42 47.2023 48.378 47.1063 48.294C47.0223 48.21 46.9803 48.102 46.9803 47.97V45C45.3843 45 44.1663 44.658 43.3263 43.974C42.4983 43.29 42.0483 42.318 41.9763 41.058C41.9643 40.89 41.9583 40.644 41.9583 40.32C41.9583 39.984 41.9643 39.738 41.9763 39.582C42.0483 38.334 42.5103 37.368 43.3623 36.684C44.2263 35.988 45.4323 35.64 46.9803 35.64V32.67C46.9803 32.538 47.0223 32.43 47.1063 32.346C47.2023 32.262 47.3103 32.22 47.4303 32.22H49.5543C49.6863 32.22 49.7943 32.262 49.8783 32.346C49.9743 32.43 50.0223 32.538 50.0223 32.67V35.64C51.5703 35.64 52.7703 35.988 53.6223 36.684C54.4743 37.368 54.9423 38.334 55.0263 39.582C55.0383 39.738 55.0443 39.984 55.0443 40.32C55.0443 40.644 55.0383 40.89 55.0263 41.058C54.9423 42.318 54.4863 43.29 53.6583 43.974C52.8303 44.658 51.6183 45 50.0223 45V47.97C50.0223 48.102 49.9743 48.21 49.8783 48.294C49.7943 48.378 49.6863 48.42 49.5543 48.42H47.4303ZM46.9983 37.836C46.3143 37.836 45.8163 37.992 45.5043 38.304C45.1923 38.616 45.0183 39.108 44.9823 39.78L44.9643 40.32C44.9643 41.22 45.1143 41.862 45.4143 42.246C45.7263 42.618 46.2543 42.804 46.9983 42.804V37.836ZM49.9863 42.804C50.7543 42.804 51.2883 42.612 51.5883 42.228C51.8883 41.844 52.0383 41.208 52.0383 40.32C52.0383 40.068 52.0323 39.888 52.0203 39.78C51.9843 39.096 51.8043 38.604 51.4803 38.304C51.1683 37.992 50.6703 37.836 49.9863 37.836V42.804ZM65.9098 35.64C66.0298 35.64 66.1318 35.682 66.2158 35.766C66.2998 35.85 66.3418 35.952 66.3418 36.072V44.55C66.3418 44.67 66.2998 44.778 66.2158 44.874C66.1318 44.958 66.0238 45 65.8918 45H63.7678C63.6478 45 63.5398 44.958 63.4438 44.874C63.3598 44.778 63.3178 44.67 63.3178 44.55V39.51L59.6638 44.712C59.5318 44.904 59.3638 45 59.1598 45H57.2518C57.1318 45 57.0298 44.958 56.9458 44.874C56.8618 44.79 56.8198 44.688 56.8198 44.568V36.09C56.8198 35.958 56.8618 35.85 56.9458 35.766C57.0298 35.682 57.1378 35.64 57.2698 35.64H59.3938C59.5258 35.64 59.6338 35.682 59.7178 35.766C59.8018 35.85 59.8438 35.958 59.8438 36.09V41.112L63.4798 35.928C63.6118 35.736 63.7798 35.64 63.9838 35.64H65.9098ZM68.7483 48.42C68.6283 48.42 68.5203 48.378 68.4243 48.294C68.3403 48.21 68.2983 48.102 68.2983 47.97V36.09C68.2983 35.958 68.3403 35.85 68.4243 35.766C68.5203 35.682 68.6283 35.64 68.7483 35.64H70.7823C70.9143 35.64 71.0223 35.682 71.1063 35.766C71.1903 35.85 71.2323 35.958 71.2323 36.09V36.738C71.8803 35.886 72.8103 35.46 74.0223 35.46C75.1983 35.46 76.1163 35.826 76.7763 36.558C77.4363 37.29 77.7963 38.322 77.8563 39.654C77.8683 39.81 77.8743 40.032 77.8743 40.32C77.8743 40.608 77.8683 40.83 77.8563 40.986C77.8083 42.282 77.4483 43.308 76.7763 44.064C76.1043 44.808 75.1863 45.18 74.0223 45.18C72.8463 45.18 71.9703 44.778 71.3943 43.974V47.97C71.3943 48.102 71.3523 48.21 71.2683 48.294C71.1843 48.378 71.0763 48.42 70.9443 48.42H68.7483ZM73.0503 42.768C73.6143 42.768 74.0163 42.6 74.2563 42.264C74.5083 41.928 74.6523 41.466 74.6883 40.878C74.7123 40.638 74.7243 40.452 74.7243 40.32C74.7243 40.188 74.7123 40.002 74.6883 39.762C74.6523 39.174 74.5083 38.712 74.2563 38.376C74.0163 38.04 73.6143 37.872 73.0503 37.872C72.4983 37.872 72.0903 38.046 71.8263 38.394C71.5743 38.73 71.4303 39.168 71.3943 39.708L71.3763 40.374L71.3943 41.058C71.4183 41.55 71.5683 41.958 71.8443 42.282C72.1203 42.606 72.5223 42.768 73.0503 42.768ZM90.1298 35.64C90.2258 35.64 90.3098 35.676 90.3818 35.748C90.4538 35.82 90.4898 35.904 90.4898 36V44.622C90.4898 44.73 90.4538 44.82 90.3818 44.892C90.3098 44.964 90.2198 45 90.1118 45H87.8798C87.7718 45 87.6818 44.964 87.6098 44.892C87.5378 44.82 87.5018 44.73 87.5018 44.622V40.5L85.9538 43.2C85.8818 43.332 85.8038 43.434 85.7198 43.506C85.6478 43.566 85.5518 43.596 85.4318 43.596H84.7118C84.5918 43.596 84.4898 43.566 84.4058 43.506C84.3218 43.434 84.2378 43.332 84.1538 43.2L82.6238 40.518V44.622C82.6238 44.73 82.5878 44.82 82.5158 44.892C82.4438 44.964 82.3538 45 82.2458 45H80.0138C79.9178 45 79.8338 44.964 79.7618 44.892C79.6898 44.82 79.6538 44.73 79.6538 44.622V36C79.6538 35.904 79.6898 35.82 79.7618 35.748C79.8338 35.676 79.9178 35.64 80.0138 35.64H82.0838C82.2998 35.64 82.4738 35.748 82.6058 35.964L85.0718 40.338L87.5198 35.964C87.6518 35.748 87.8258 35.64 88.0418 35.64H90.1298ZM95.4872 45.18C94.8512 45.18 94.2692 45.06 93.7412 44.82C93.2252 44.568 92.8172 44.232 92.5172 43.812C92.2292 43.38 92.0852 42.906 92.0852 42.39C92.0852 41.562 92.4212 40.896 93.0932 40.392C93.7772 39.888 94.7132 39.54 95.9012 39.348L98.1512 39.006V38.754C98.1512 38.298 98.0552 37.962 97.8632 37.746C97.6712 37.53 97.3472 37.422 96.8912 37.422C96.6152 37.422 96.3872 37.47 96.2072 37.566C96.0272 37.662 95.8412 37.794 95.6492 37.962C95.4812 38.106 95.3552 38.202 95.2712 38.25C95.2352 38.346 95.1692 38.394 95.0732 38.394H93.1112C92.9912 38.394 92.8892 38.358 92.8052 38.286C92.7332 38.202 92.7032 38.106 92.7152 37.998C92.7272 37.674 92.8832 37.314 93.1832 36.918C93.4952 36.522 93.9632 36.18 94.5872 35.892C95.2232 35.604 96.0032 35.46 96.9272 35.46C98.4032 35.46 99.4952 35.79 100.203 36.45C100.911 37.098 101.265 37.974 101.265 39.078V44.55C101.265 44.67 101.223 44.778 101.139 44.874C101.055 44.958 100.947 45 100.815 45H98.7272C98.6072 45 98.4992 44.958 98.4032 44.874C98.3192 44.778 98.2772 44.67 98.2772 44.55V43.92C98.0132 44.292 97.6412 44.598 97.1612 44.838C96.6932 45.066 96.1352 45.18 95.4872 45.18ZM96.3332 43.128C96.8852 43.128 97.3292 42.948 97.6652 42.588C98.0132 42.228 98.1872 41.7 98.1872 41.004V40.752L96.6572 41.022C95.5772 41.214 95.0372 41.592 95.0372 42.156C95.0372 42.456 95.1632 42.696 95.4152 42.876C95.6672 43.044 95.9732 43.128 96.3332 43.128ZM115.768 45C115.648 45 115.54 44.958 115.444 44.874C115.36 44.778 115.318 44.67 115.318 44.55V35.28H111.97V36.918C111.97 38.946 111.838 40.53 111.574 41.67C111.31 42.798 110.824 43.632 110.116 44.172C109.42 44.7 108.406 44.976 107.074 45C106.942 45 106.828 44.958 106.732 44.874C106.636 44.778 106.588 44.664 106.588 44.532V42.642C106.588 42.39 106.738 42.234 107.038 42.174C107.686 42.066 108.148 41.538 108.424 40.59C108.7 39.63 108.838 38.268 108.838 36.504V32.85C108.838 32.718 108.88 32.61 108.964 32.526C109.06 32.442 109.174 32.4 109.306 32.4H118.09C118.222 32.4 118.33 32.442 118.414 32.526C118.51 32.61 118.558 32.718 118.558 32.85V44.55C118.558 44.682 118.51 44.79 118.414 44.874C118.33 44.958 118.222 45 118.09 45H115.768ZM131.117 32.4C131.225 32.4 131.315 32.442 131.387 32.526C131.471 32.598 131.513 32.682 131.513 32.778C131.513 32.838 131.483 32.946 131.423 33.102L127.841 41.328C127.421 42.3 127.019 43.044 126.635 43.56C126.263 44.064 125.807 44.43 125.267 44.658C124.739 44.886 124.031 45 123.143 45H122.189C122.069 45 121.961 44.958 121.865 44.874C121.781 44.778 121.739 44.67 121.739 44.55V42.642C121.739 42.51 121.781 42.402 121.865 42.318C121.961 42.234 122.069 42.192 122.189 42.192H122.873C123.221 42.192 123.521 42.12 123.773 41.976C124.025 41.82 124.253 41.574 124.457 41.238L119.993 32.958C119.969 32.91 119.957 32.856 119.957 32.796C119.957 32.7 119.999 32.61 120.083 32.526C120.167 32.442 120.269 32.4 120.389 32.4H122.873C123.101 32.4 123.275 32.526 123.395 32.778L126.005 37.854L128.219 32.778C128.315 32.526 128.495 32.4 128.759 32.4H131.117ZM139.926 45C139.806 45 139.698 44.958 139.602 44.874C139.518 44.778 139.476 44.67 139.476 44.55V40.68C139.2 40.908 138.822 41.082 138.342 41.202C137.862 41.322 137.358 41.382 136.83 41.382C135.306 41.382 134.172 41.01 133.428 40.266C132.684 39.51 132.312 38.358 132.312 36.81V32.85C132.312 32.718 132.354 32.61 132.438 32.526C132.534 32.442 132.642 32.4 132.762 32.4H135.102C135.234 32.4 135.342 32.442 135.426 32.526C135.51 32.61 135.552 32.718 135.552 32.85V36.666C135.552 37.278 135.702 37.722 136.002 37.998C136.302 38.274 136.8 38.412 137.496 38.412C137.988 38.412 138.438 38.328 138.846 38.16C139.266 37.98 139.476 37.698 139.476 37.314V32.85C139.476 32.718 139.518 32.61 139.602 32.526C139.698 32.442 139.806 32.4 139.926 32.4H142.248C142.38 32.4 142.488 32.442 142.572 32.526C142.668 32.61 142.716 32.718 142.716 32.85V44.55C142.716 44.682 142.668 44.79 142.572 44.874C142.488 44.958 142.38 45 142.248 45H139.926Z" fill="white"/>
</svg>
