<svg width="132" height="19" viewBox="0 0 132 19" fill="none" xmlns="http://www.w3.org/2000/svg">
<path fill-rule="evenodd" clip-rule="evenodd" d="M0 9.48351V18.967H1.47321C2.90459 18.967 2.94643 18.8485 2.94643 14.818C2.94643 11.1603 3.07666 10.669 4.04839 10.669C4.69248 10.669 6.57761 12.3926 8.58589 14.818C11.5989 18.4561 12.2678 18.967 14.0156 18.967H16.0091L14.9284 17.5463C14.3344 16.7651 12.5883 14.6692 11.0491 12.8893C9.5093 11.1087 8.25 9.46632 8.25 9.2399C8.25 9.01289 9.70848 7.01187 11.4911 4.79273C13.2737 2.57359 14.7321 0.587385 14.7321 0.378748C14.7321 0.170703 13.9832 0 13.0674 0C11.7297 0 10.791 0.757495 8.2942 3.85268C6.44384 6.14709 4.73373 7.70535 4.06666 7.70535C3.08079 7.70535 2.94643 7.24303 2.94643 3.85268C2.94643 0.138104 2.89339 0 1.47321 0H0V9.48351ZM18.6538 7.01128C17.2614 8.55828 17.4482 9.48351 19.1518 9.48351C19.9621 9.48351 20.625 9.21086 20.625 8.87834C20.625 8.54524 21.2544 7.98393 22.024 7.63186C24.0847 6.68706 25.9286 7.85175 25.9286 10.097C25.9286 12.095 25.9244 12.0974 23.8955 11.1674C21.6474 10.1373 17.9219 11.3909 17.4352 13.3409C16.929 15.3692 17.5978 17.6962 18.886 18.3897C20.2767 19.1383 23.3475 19.1294 24.7529 18.3725C25.4907 17.9754 25.9781 17.9754 26.222 18.3725C26.423 18.6997 27.1018 18.967 27.7312 18.967C28.7819 18.967 28.875 18.516 28.875 13.4281C28.875 6.56496 28.3906 5.92719 23.1743 5.92719C20.4883 5.92719 19.3928 6.18977 18.6538 7.01128ZM32.4107 12.4115C32.4107 18.5302 32.4879 18.967 33.5669 18.967C34.6205 18.967 34.739 18.4792 34.8928 13.4844L35.0625 8.00171L36.8793 13.3362C38.4703 18.0074 38.8675 18.6707 40.0714 18.6707C41.2753 18.6707 41.6725 18.0074 43.2636 13.3362L45.0804 8.00171L45.2501 13.4844C45.4039 18.4792 45.5223 18.967 46.576 18.967C47.6549 18.967 47.7321 18.5302 47.7321 12.4115V5.85548L45.5365 6.03981L43.3414 6.22355L41.8534 11.1058C41.0355 13.7914 40.2335 15.9886 40.0714 15.9886C39.9094 15.9886 39.1074 13.7914 38.2894 11.1058L36.8015 6.22355L34.6064 6.03981L32.4107 5.85548V12.4115ZM52.1571 7.10671C50.6933 8.73372 50.3291 13.4215 51.4553 16.1332C52.1913 17.9049 52.7499 18.3779 54.4971 18.7074C58.7453 19.5094 62.4643 18.056 62.4643 15.5939C62.4643 14.5175 59.7212 14.6153 59.3045 15.7071C59.0812 16.2927 58.159 16.5961 56.6009 16.5961C54.559 16.5961 54.1854 16.3905 53.8601 15.0865C53.6527 14.2567 53.6374 13.4227 53.8254 13.2336C54.0127 13.0446 55.9674 12.8531 58.1684 12.8081L62.1696 12.7263L62.1013 10.4982C61.997 7.099 60.5798 5.92719 56.5714 5.92719C53.9727 5.92719 52.9797 6.19273 52.1571 7.10671ZM65.4107 12.4886C65.4107 18.8912 65.4419 19.0447 66.6942 18.8603C67.7873 18.6985 67.9841 18.2741 68.0201 16.0034L68.0625 13.3362L70.828 13.1572L73.5935 12.9776L73.7744 15.8244C73.9294 18.2587 74.1475 18.6979 75.2812 18.8603C76.5877 19.0464 76.6071 18.9534 76.6071 12.4886V5.92719H75.1339C73.8045 5.92719 73.6607 6.16191 73.6607 8.33067V10.7341L70.8616 10.5534L68.0625 10.3726V8.1493C68.0625 6.23897 67.8763 5.9266 66.7366 5.9266C65.4414 5.92719 65.4107 6.07952 65.4107 12.4886ZM81.5571 6.38062C80.2554 7.25489 79.5536 9.48055 79.5536 12.7316C79.5536 15.5138 79.8011 16.3063 81.0692 17.5818C82.4234 18.9439 82.9367 19.0773 85.8719 18.8325C89.2862 18.548 90.75 17.487 90.75 15.2975C90.75 13.8441 88.8661 13.92 87.9403 15.4107C87.1135 16.7425 84.3362 17.0205 83.2071 15.8849C82.8182 15.4937 82.5 13.8133 82.5 12.1507C82.5 10.4882 82.8182 8.80781 83.2071 8.41662C84.3462 7.27089 87.0923 7.55421 87.8036 8.89079C88.6321 10.4473 90.75 10.4716 90.75 8.92458C90.75 7.14049 88.4818 5.92601 85.1677 5.93608C83.5383 5.94142 81.9137 6.14117 81.5571 6.38062ZM93.6964 12.4471C93.6964 18.5717 93.7677 18.967 94.875 18.967C95.8768 18.967 96.0536 18.5717 96.0536 16.3348C96.0536 13.1797 97.0748 12.2663 98.3701 14.2632C100.484 17.5238 102.276 19.0838 103.667 18.8769C105.002 18.6784 104.948 18.5385 102.257 15.2222L99.4591 11.7738L100.625 10.4805C101.266 9.7692 102.254 8.45396 102.82 7.55717C103.847 5.93134 103.846 5.92719 102.317 5.92719C101.182 5.92719 100.38 6.54184 99.2245 8.29807C98.3665 9.60205 97.2746 10.669 96.7972 10.669C96.1408 10.669 95.9846 10.0928 96.1543 8.29807C96.3571 6.16013 96.2475 5.92719 95.0376 5.92719C93.7235 5.92719 93.6964 6.05819 93.6964 12.4471ZM107.293 7.48901C104.904 10.5433 106.108 17.7697 109.142 18.5871C112.168 19.4027 114.939 18.9925 116.41 17.5119C117.652 16.2636 117.857 15.5067 117.857 12.1774C117.857 6.98816 116.864 5.92719 112.007 5.92719C108.935 5.92719 108.367 6.11568 107.293 7.48901ZM122.468 6.54244C119.723 8.15404 119.67 15.6134 122.39 17.765C125.359 20.1145 132 18.874 132 15.9696C132 15.1363 131.593 14.818 130.527 14.818C129.61 14.818 129.054 15.1541 129.054 15.7071C129.054 16.3442 128.407 16.5961 126.768 16.5961C124.295 16.5961 122.937 15.5138 123.273 13.8092C123.454 12.8928 124.081 12.7535 127.742 12.8152L132 12.8869V10.9689C132 9.91383 131.45 8.34786 130.778 7.48901C129.736 6.15539 129.112 5.92956 126.506 5.94498C124.828 5.95505 123.011 6.22415 122.468 6.54244ZM59.4094 9.63169C59.5915 11.2202 59.5196 11.2617 56.6103 11.2617C54.1283 11.2617 53.625 11.0815 53.625 10.1948C53.625 8.50612 54.922 7.6366 57.1584 7.82627C58.9209 7.97622 59.2503 8.23999 59.4094 9.63169ZM114.204 8.41662C114.94 9.15752 115.175 14.0285 114.553 15.6585C114.125 16.7805 110.772 16.9376 109.725 15.8849C108.68 14.8334 108.833 9.75438 109.944 8.63651C111.043 7.53109 113.212 7.41907 114.204 8.41662ZM129.06 8.90324C130.014 10.695 129.296 11.2617 126.072 11.2617C123.662 11.2617 123.161 11.0779 123.161 10.1948C123.161 8.59325 124.351 7.70535 126.499 7.70535C127.826 7.70535 128.62 8.07699 129.06 8.90324ZM25.093 13.0398C26.2763 13.0398 26.1914 16.3679 24.9963 16.8291C22.4158 17.8254 20.0357 16.7941 20.0357 14.6805C20.0357 13.5247 22.1636 12.3481 23.4724 12.7808C23.9038 12.9231 24.6333 13.0398 25.093 13.0398Z" fill="white"/>
</svg>
