<svg width="119" height="23" viewBox="0 0 119 23" fill="none" xmlns="http://www.w3.org/2000/svg">
<path d="M6.408 18.18C4.716 18.18 3.384 17.766 2.412 16.938C1.44 16.11 0.924 14.892 0.864 13.284C0.852 12.936 0.846 12.42 0.846 11.736C0.846 11.04 0.852 10.518 0.864 10.17C0.924 8.586 1.446 7.368 2.43 6.516C3.426 5.652 4.752 5.22 6.408 5.22C8.064 5.22 9.39 5.652 10.386 6.516C11.382 7.368 11.904 8.586 11.952 10.17C11.976 10.866 11.988 11.388 11.988 11.736C11.988 12.072 11.976 12.588 11.952 13.284C11.892 14.892 11.376 16.11 10.404 16.938C9.432 17.766 8.1 18.18 6.408 18.18ZM6.408 15.588C7.068 15.588 7.59 15.39 7.974 14.994C8.37 14.598 8.58 13.992 8.604 13.176C8.628 12.48 8.64 11.988 8.64 11.7C8.64 11.388 8.628 10.896 8.604 10.224C8.58 9.408 8.37 8.802 7.974 8.406C7.578 8.01 7.056 7.812 6.408 7.812C5.76 7.812 5.238 8.01 4.842 8.406C4.458 8.802 4.248 9.408 4.212 10.224C4.2 10.56 4.194 11.052 4.194 11.7C4.194 12.336 4.2 12.828 4.212 13.176C4.248 13.992 4.458 14.598 4.842 14.994C5.226 15.39 5.748 15.588 6.408 15.588ZM19.2225 18.18C17.5305 18.18 16.1985 17.766 15.2265 16.938C14.2545 16.11 13.7385 14.892 13.6785 13.284C13.6665 12.936 13.6605 12.42 13.6605 11.736C13.6605 11.04 13.6665 10.518 13.6785 10.17C13.7385 8.586 14.2605 7.368 15.2445 6.516C16.2405 5.652 17.5665 5.22 19.2225 5.22C20.8785 5.22 22.2045 5.652 23.2005 6.516C24.1965 7.368 24.7185 8.586 24.7665 10.17C24.7905 10.866 24.8025 11.388 24.8025 11.736C24.8025 12.072 24.7905 12.588 24.7665 13.284C24.7065 14.892 24.1905 16.11 23.2185 16.938C22.2465 17.766 20.9145 18.18 19.2225 18.18ZM19.2225 15.588C19.8825 15.588 20.4045 15.39 20.7885 14.994C21.1845 14.598 21.3945 13.992 21.4185 13.176C21.4425 12.48 21.4545 11.988 21.4545 11.7C21.4545 11.388 21.4425 10.896 21.4185 10.224C21.3945 9.408 21.1845 8.802 20.7885 8.406C20.3925 8.01 19.8705 7.812 19.2225 7.812C18.5745 7.812 18.0525 8.01 17.6565 8.406C17.2725 8.802 17.0625 9.408 17.0265 10.224C17.0145 10.56 17.0085 11.052 17.0085 11.7C17.0085 12.336 17.0145 12.828 17.0265 13.176C17.0625 13.992 17.2725 14.598 17.6565 14.994C18.0405 15.39 18.5625 15.588 19.2225 15.588ZM32.0369 18.18C30.3449 18.18 29.0129 17.766 28.0409 16.938C27.0689 16.11 26.5529 14.892 26.4929 13.284C26.4809 12.936 26.4749 12.42 26.4749 11.736C26.4749 11.04 26.4809 10.518 26.4929 10.17C26.5529 8.586 27.0749 7.368 28.0589 6.516C29.0549 5.652 30.3809 5.22 32.0369 5.22C33.6929 5.22 35.0189 5.652 36.0149 6.516C37.0109 7.368 37.5329 8.586 37.5809 10.17C37.6049 10.866 37.6169 11.388 37.6169 11.736C37.6169 12.072 37.6049 12.588 37.5809 13.284C37.5209 14.892 37.0049 16.11 36.0329 16.938C35.0609 17.766 33.7289 18.18 32.0369 18.18ZM32.0369 15.588C32.6969 15.588 33.2189 15.39 33.6029 14.994C33.9989 14.598 34.2089 13.992 34.2329 13.176C34.2569 12.48 34.2689 11.988 34.2689 11.7C34.2689 11.388 34.2569 10.896 34.2329 10.224C34.2089 9.408 33.9989 8.802 33.6029 8.406C33.2069 8.01 32.6849 7.812 32.0369 7.812C31.3889 7.812 30.8669 8.01 30.4709 8.406C30.0869 8.802 29.8769 9.408 29.8409 10.224C29.8289 10.56 29.8229 11.052 29.8229 11.7C29.8229 12.336 29.8289 12.828 29.8409 13.176C29.8769 13.992 30.0869 14.598 30.4709 14.994C30.8549 15.39 31.3769 15.588 32.0369 15.588ZM43.2654 20.52C43.1334 20.52 43.0194 20.478 42.9234 20.394C42.8394 20.31 42.7974 20.202 42.7974 20.07V15.57C42.7974 15.438 42.8394 15.33 42.9234 15.246C43.0194 15.162 43.1334 15.12 43.2654 15.12H43.5894C44.1294 15.12 44.5134 14.628 44.7414 13.644C44.9814 12.66 45.1014 11.28 45.1014 9.504V5.85C45.1014 5.718 45.1434 5.61 45.2274 5.526C45.3234 5.442 45.4314 5.4 45.5514 5.4H54.0114C54.1434 5.4 54.2514 5.442 54.3354 5.526C54.4194 5.61 54.4614 5.718 54.4614 5.85V15.12H55.3074C55.4394 15.12 55.5474 15.162 55.6314 15.246C55.7274 15.33 55.7754 15.438 55.7754 15.57V20.07C55.7754 20.202 55.7274 20.31 55.6314 20.394C55.5474 20.478 55.4394 20.52 55.3074 20.52H52.9854C52.8654 20.52 52.7574 20.478 52.6614 20.394C52.5774 20.31 52.5354 20.202 52.5354 20.07V18H46.0374V20.07C46.0374 20.202 45.9954 20.31 45.9114 20.394C45.8274 20.478 45.7194 20.52 45.5874 20.52H43.2654ZM51.2394 15.12V8.28H48.2334V9.918C48.2334 12.354 47.9574 14.088 47.4054 15.12H51.2394ZM58.0655 18C57.9455 18 57.8375 17.958 57.7415 17.874C57.6575 17.778 57.6155 17.67 57.6155 17.55V5.85C57.6155 5.718 57.6575 5.61 57.7415 5.526C57.8375 5.442 57.9455 5.4 58.0655 5.4H66.4715C66.6035 5.4 66.7115 5.442 66.7955 5.526C66.8795 5.61 66.9215 5.718 66.9215 5.85V7.542C66.9215 7.662 66.8795 7.77 66.7955 7.866C66.7115 7.95 66.6035 7.992 66.4715 7.992H60.7295V10.422H66.0755C66.2075 10.422 66.3155 10.47 66.3995 10.566C66.4835 10.65 66.5255 10.758 66.5255 10.89V12.456C66.5255 12.576 66.4835 12.684 66.3995 12.78C66.3155 12.864 66.2075 12.906 66.0755 12.906H60.7295V15.408H66.6155C66.7475 15.408 66.8555 15.45 66.9395 15.534C67.0235 15.618 67.0655 15.726 67.0655 15.858V17.55C67.0655 17.67 67.0235 17.778 66.9395 17.874C66.8555 17.958 66.7475 18 66.6155 18H58.0655ZM69.5616 18C69.4416 18 69.3336 17.958 69.2376 17.874C69.1536 17.778 69.1116 17.67 69.1116 17.55V5.85C69.1116 5.718 69.1536 5.61 69.2376 5.526C69.3336 5.442 69.4416 5.4 69.5616 5.4H74.6016C76.1376 5.4 77.3436 5.754 78.2196 6.462C79.1076 7.17 79.5516 8.202 79.5516 9.558C79.5516 10.902 79.1136 11.916 78.2376 12.6C77.3616 13.272 76.1496 13.608 74.6016 13.608H72.4596V17.55C72.4596 17.682 72.4116 17.79 72.3156 17.874C72.2316 17.958 72.1236 18 71.9916 18H69.5616ZM74.5116 11.124C75.0396 11.124 75.4536 10.992 75.7536 10.728C76.0536 10.452 76.2036 10.05 76.2036 9.522C76.2036 9.03 76.0596 8.64 75.7716 8.352C75.4956 8.052 75.0756 7.902 74.5116 7.902H72.4056V11.124H74.5116ZM81.7256 18C81.5936 18 81.4856 17.958 81.4016 17.874C81.3176 17.79 81.2756 17.682 81.2756 17.55V5.85C81.2756 5.718 81.3176 5.61 81.4016 5.526C81.4976 5.442 81.6056 5.4 81.7256 5.4H84.0476C84.1796 5.4 84.2876 5.442 84.3716 5.526C84.4676 5.61 84.5156 5.718 84.5156 5.85V10.188H88.9436V5.85C88.9436 5.718 88.9856 5.61 89.0696 5.526C89.1536 5.442 89.2616 5.4 89.3936 5.4H91.7156C91.8476 5.4 91.9556 5.442 92.0396 5.526C92.1236 5.61 92.1656 5.718 92.1656 5.85V17.55C92.1656 17.682 92.1236 17.79 92.0396 17.874C91.9556 17.958 91.8476 18 91.7156 18H89.3936C89.2616 18 89.1536 17.958 89.0696 17.874C88.9856 17.79 88.9436 17.682 88.9436 17.55V13.068H84.5156V17.55C84.5156 17.682 84.4676 17.79 84.3716 17.874C84.2876 17.958 84.1796 18 84.0476 18H81.7256ZM95.1377 18C95.0177 18 94.9097 17.958 94.8137 17.874C94.7297 17.778 94.6877 17.67 94.6877 17.55V5.85C94.6877 5.718 94.7297 5.61 94.8137 5.526C94.9097 5.442 95.0177 5.4 95.1377 5.4H103.544C103.676 5.4 103.784 5.442 103.868 5.526C103.952 5.61 103.994 5.718 103.994 5.85V7.542C103.994 7.662 103.952 7.77 103.868 7.866C103.784 7.95 103.676 7.992 103.544 7.992H97.8017V10.422H103.148C103.28 10.422 103.388 10.47 103.472 10.566C103.556 10.65 103.598 10.758 103.598 10.89V12.456C103.598 12.576 103.556 12.684 103.472 12.78C103.388 12.864 103.28 12.906 103.148 12.906H97.8017V15.408H103.688C103.82 15.408 103.928 15.45 104.012 15.534C104.096 15.618 104.138 15.726 104.138 15.858V17.55C104.138 17.67 104.096 17.778 104.012 17.874C103.928 17.958 103.82 18 103.688 18H95.1377ZM106.634 18C106.502 18 106.394 17.958 106.31 17.874C106.226 17.778 106.184 17.664 106.184 17.532V5.85C106.184 5.718 106.226 5.61 106.31 5.526C106.406 5.442 106.514 5.4 106.634 5.4H108.956C109.088 5.4 109.196 5.442 109.28 5.526C109.376 5.61 109.424 5.718 109.424 5.85V13.086L114.536 5.742C114.68 5.514 114.884 5.4 115.148 5.4H117.236C117.368 5.4 117.476 5.442 117.56 5.526C117.644 5.61 117.686 5.718 117.686 5.85V17.55C117.686 17.67 117.644 17.778 117.56 17.874C117.476 17.958 117.368 18 117.236 18H114.914C114.782 18 114.668 17.958 114.572 17.874C114.488 17.79 114.446 17.682 114.446 17.55V10.566L109.334 17.658C109.178 17.886 108.974 18 108.722 18H106.634ZM111.998 4.662C110.906 4.662 110.102 4.428 109.586 3.96C109.07 3.48 108.812 2.856 108.812 2.088C108.812 1.992 108.842 1.914 108.902 1.854C108.962 1.782 109.046 1.746 109.154 1.746H110.594C110.702 1.746 110.786 1.782 110.846 1.854C110.906 1.914 110.936 1.992 110.936 2.088C110.936 2.724 111.29 3.042 111.998 3.042C112.718 3.042 113.078 2.724 113.078 2.088C113.078 1.992 113.108 1.914 113.168 1.854C113.228 1.782 113.312 1.746 113.42 1.746H114.86C114.968 1.746 115.052 1.782 115.112 1.854C115.172 1.914 115.202 1.992 115.202 2.088C115.202 2.856 114.938 3.48 114.41 3.96C113.894 4.428 113.09 4.662 111.998 4.662Z" fill="white"/>
</svg>
