<svg width="140" height="40" viewBox="0 0 140 40" fill="none" xmlns="http://www.w3.org/2000/svg">
<path fill-rule="evenodd" clip-rule="evenodd" d="M16.5773 0.242488C11.6347 1.00233 5.94502 4.82608 3.1505 9.26594C1.47565 11.9272 -0.0069927 16.736 2.48106e-05 19.4848C0.0222469 28.4385 5.57271 36.3497 13.7364 39.0632C19.1227 40.8533 25.7578 40.0317 30.4548 36.9932C35.0852 33.997 38.6926 28.2338 39.5 22.5412C40.316 16.7887 38.3924 10.8525 34.2575 6.36318C29.7535 1.47312 23.2401 -0.781851 16.5773 0.242488ZM25.1402 2.0136C31.7827 3.88449 37.1796 10.2804 38.1788 17.4662C39.2556 25.2087 35.2295 33.0289 28.2841 36.6863C26.9032 37.4133 25.6962 37.9229 25.6018 37.8187C24.7925 36.9243 19.0974 27.7401 19.0974 27.3291C19.0974 26.4782 20.2397 25.5524 21.2892 25.5524C22.4958 25.5524 23.3859 27.4768 23.3859 30.0857C23.3859 32.153 23.8533 32.4191 27.1153 32.2092L29.0389 32.0857L29.1468 26.26L29.2544 20.4343L31.1936 18.774C32.2611 17.8594 33.1324 16.7764 33.1324 16.3631C33.1324 15.5019 30.8061 14.3334 29.8404 14.7099C29.417 14.8751 29.2338 14.7087 29.2338 14.1604C29.2338 12.7527 28.256 12.4201 23.4553 12.1956C19.4572 12.0083 18.4459 12.0935 16.1153 12.8125C9.39803 14.8846 4.49825 20.186 3.5926 26.3613L3.27603 28.5221L2.59806 26.7403C0.0401805 20.0177 1.75947 11.9668 6.85925 6.78764C11.6694 1.90194 18.4537 0.130432 25.1402 2.0136ZM89.0775 8.92462C87.5434 9.41323 85.8117 11.0842 85.1356 12.7278C82.6725 18.7154 89.1707 24.1567 95.1321 21.0979C97.5757 19.8439 98.6291 18.0851 98.6291 15.2575C98.6291 12.647 97.6533 10.8145 95.6225 9.60963C94.1656 8.74565 90.7582 8.38889 89.0775 8.92462ZM115.947 9.27702C110.559 11.7628 110.745 19.035 116.258 21.3739C120.353 23.1113 125.423 20.6041 126.105 16.5036C127.027 10.9559 121.238 6.83674 115.947 9.27702ZM132.352 9.2497C128.548 11.0937 127.177 15.0857 129.142 18.5935C130.763 21.4863 134.761 22.73 138.395 21.4717C139.473 21.0979 139.786 20.7594 139.888 19.8554C139.998 18.8774 139.914 18.757 139.303 19.0235C138.911 19.1945 137.8 19.5101 136.836 19.7243C132.289 20.7348 129.029 16.1481 131.697 12.495C133.077 10.6055 136.202 10.1909 139.272 11.49C140.333 11.939 140.192 9.87135 139.122 9.28969C137.566 8.44393 134.057 8.42334 132.352 9.2497ZM51.8777 14.1706C50.7163 17.0552 49.5296 19.994 49.2411 20.7019L48.7163 21.9888H49.9132C50.9565 21.9888 51.2091 21.7607 51.8859 20.207L52.6621 18.4252H55.5354H58.4091L59.0788 20.207C59.689 21.8288 59.866 21.9888 61.0555 21.9888H62.3623L61.3623 19.7121C60.8126 18.4596 59.5459 15.5201 58.5475 13.1788L56.7327 8.92225L55.3611 8.92422L53.99 8.9266L51.8777 14.1706ZM63.9315 15.4555V21.9888H65.0905H66.2492L66.3576 16.3464L66.4656 10.704L69.2921 10.5876C71.7985 10.4847 72.1185 10.3837 72.1185 9.69674C72.1185 8.97728 71.8281 8.92225 68.025 8.92225H63.9315V15.4555ZM74.0679 15.4817V22.0415L75.14 21.9159C76.1762 21.7952 76.216 21.7025 76.3263 19.1617L76.4406 16.5325L78.5809 16.2609C81.5162 15.8883 82.8222 14.7262 82.8222 12.4859C82.8222 11.1527 82.6043 10.6276 81.7372 9.87016C80.7778 9.03193 80.2706 8.92225 77.3598 8.92225H74.0679V15.4817ZM101.358 15.4555V21.9888H102.528H103.697V19.2682V16.5476L105.976 16.2858C109.248 15.9097 110.814 14.1239 110.167 11.507C109.661 9.45956 108.544 8.92225 104.793 8.92225H101.358V15.4555ZM79.5516 10.9159C80.0335 11.178 80.3056 11.7442 80.3056 12.4859C80.3056 13.8175 79.4206 14.4656 77.6023 14.4656C76.4281 14.4656 76.407 14.4312 76.407 12.4859C76.407 10.5405 76.4281 10.5061 77.6023 10.5061C78.2596 10.5061 79.1368 10.6906 79.5516 10.9159ZM94.5325 11.5304C97.3473 13.4033 96.6108 18.5254 93.3707 19.6115C91.426 20.2632 89.6268 19.834 88.2686 18.3943C87.3298 17.3989 87.1282 16.8473 87.1282 15.273C87.1282 13.1356 87.8935 11.9505 89.8572 11.0481C91.1695 10.4451 93.219 10.6561 94.5325 11.5304ZM107.119 11.1226C108.879 12.3742 107.676 14.4656 105.196 14.4656H103.697V12.4859C103.697 10.5128 103.702 10.5061 104.975 10.5061C105.678 10.5061 106.643 10.7836 107.119 11.1226ZM122.012 11.6199C122.553 12.0261 123.231 13.0968 123.518 13.9996C123.983 15.4619 123.962 15.8036 123.323 17.132C121.873 20.1464 118.058 20.7962 115.725 18.4264C114.808 17.4959 114.613 16.9613 114.613 15.3759C114.613 14.2411 114.873 13.077 115.248 12.5334C116.647 10.5057 119.935 10.0614 122.012 11.6199ZM56.5978 14.2708L57.6461 16.8414H55.4839C53.921 16.8414 53.3701 16.7044 53.4964 16.3464C53.5923 16.0744 53.9966 14.9162 54.3947 13.7727C54.7931 12.6292 55.2157 11.6951 55.3342 11.6971C55.4524 11.6987 56.0212 12.8569 56.5978 14.2708ZM24.9453 13.6737C24.9453 13.8915 24.7995 14.0697 24.6213 14.0697C24.4432 14.0697 24.0627 14.5151 23.7757 15.0596C23.4268 15.7216 22.9208 16.0502 22.2479 16.0518C20.564 16.0554 18.5941 16.7634 16.2077 18.2229C14.1411 19.4868 13.6666 19.6131 10.9816 19.6131H8.02844L9.32356 18.2557C10.922 16.5808 14.7419 14.4716 17.343 13.8277C19.7504 13.2318 24.9453 13.1265 24.9453 13.6737ZM27.6743 22.5827V31.0958H26.1691H24.6638L24.4494 28.6935C24.3075 27.1077 23.9157 25.7959 23.2958 24.833C21.4381 21.9484 21.5223 21.1767 23.8237 19.9841C24.6553 19.5533 25.3352 19.0041 25.3352 18.7637C25.3352 17.9944 22.8966 18.7701 21.7091 19.9172C20.7621 20.8314 20.6182 21.2282 20.78 22.4806C20.9481 23.7797 20.8463 24.0232 19.9512 24.4604C18.5991 25.1204 17.7418 26.7264 18.0584 28.0069C18.1964 28.5644 19.619 31.0439 21.2202 33.5171C24.5625 38.6795 24.5644 38.6708 20.1563 38.6776C17.0463 38.6819 14.1824 38.1327 12.3797 37.1856L11.1992 36.5659L11.3801 31.5539C11.5212 27.6462 11.7372 26.1392 12.3614 24.7122C14.0838 20.7724 17.9512 17.8744 22.1617 17.368C23.9067 17.1581 24.2896 16.955 24.7901 15.9715C25.297 14.9756 26.3972 14.1794 27.3819 14.0946C27.5426 14.0812 27.6743 17.9006 27.6743 22.5827ZM31.573 16.384C31.573 16.7277 30.5858 17.6907 29.7211 18.1904C29.3769 18.3892 29.2338 18.116 29.2338 17.2607C29.2338 16.1789 29.3585 16.0495 30.4034 16.0495C31.0466 16.0495 31.573 16.1999 31.573 16.384ZM12.8596 21.0369C12.8596 21.1664 12.5372 21.7457 12.1434 22.3238C11.7493 22.9019 11.3161 23.6863 11.1809 24.0676C10.9777 24.6393 10.4487 24.7605 8.15125 24.7605H5.36764L5.62261 23.7294C5.76257 23.1624 6.15282 22.2715 6.48927 21.7496C7.04365 20.8904 7.37308 20.8009 9.98048 20.8009C11.5641 20.8009 12.8596 20.907 12.8596 21.0369ZM135.666 24.9284C135.666 25.2424 136.025 25.615 136.464 25.7563C137.276 26.0181 138.395 25.3841 138.395 24.6635C138.395 24.4457 138.117 24.5015 137.779 24.787C137.293 25.1964 137.003 25.2059 136.414 24.8322C135.806 24.4469 135.666 24.4651 135.666 24.9284ZM10.3762 26.8393C10.2471 27.3291 10.1388 28.3985 10.136 29.215L10.1306 30.6998H7.40154H4.67251V28.5882C4.67251 27.4265 4.78947 26.3574 4.93255 26.2125C5.07524 26.0672 6.41169 25.9484 7.90174 25.9484C10.5216 25.9484 10.6035 25.9781 10.3762 26.8393ZM49.5066 29.314C49.5066 32.3834 50.1951 32.781 50.3635 29.8089C50.4734 27.8699 50.5534 27.7219 51.5534 27.605C53.2025 27.4122 52.8235 26.7403 51.066 26.7403H49.5066V29.314ZM54.1849 30.6484C54.1849 33.9499 54.2882 34.6594 54.7697 34.6594C55.1783 34.6594 55.3545 34.2413 55.3545 33.2736C55.3545 32.0144 55.4559 31.8877 56.4637 31.8877C57.795 31.8877 58.8633 30.8056 58.8633 29.4573C58.8633 27.8565 58.0102 27.0753 56.013 26.8464L54.1849 26.6373V30.6484ZM61.0438 28.7929L62.0679 30.8456L61.2453 32.5652C60.2827 34.577 60.2687 34.6649 60.91 34.6416C61.3361 34.6261 64.7459 27.822 64.7205 27.0372C64.6948 26.2295 63.8753 26.9026 63.3599 28.1546C62.7085 29.7381 62.3104 29.689 61.5958 27.9365C61.3276 27.2788 60.8629 26.7403 60.5638 26.7403C60.1599 26.7403 60.2839 27.2697 61.0438 28.7929ZM66.6605 29.314C66.6605 30.766 66.8305 31.8877 67.0503 31.8877C67.2648 31.8877 67.4402 30.8962 67.4402 29.685V27.4819L68.7073 27.6062C69.9427 27.727 69.9774 27.7816 70.092 29.8089C70.2605 32.781 70.949 32.3834 70.949 29.314V26.7403H68.8047H66.6605V29.314ZM73.2881 29.314C73.2881 30.766 73.4581 31.8877 73.678 31.8877C73.8924 31.8877 74.0679 30.9077 74.0679 29.7099V27.5322H75.4324H76.7969V29.7099C76.7969 30.9077 76.9723 31.8877 77.1867 31.8877C77.4066 31.8877 77.5766 30.766 77.5766 29.314V26.7403H75.4324H73.2881V29.314ZM79.786 27.0044C79.2437 27.5552 79.5637 27.8767 80.5828 27.8046C82.106 27.6973 82.1937 28.8163 80.7068 29.3865C79.821 29.7262 79.5259 30.0893 79.5259 30.8408C79.5259 31.7749 79.6515 31.8414 81.3941 31.8275L83.2627 31.8129L83.0273 29.6434C82.8939 28.4128 82.5493 27.3176 82.2312 27.1129C81.5723 26.6896 80.1579 26.6266 79.786 27.0044ZM88.8826 29.314C88.8826 31.2874 89.0132 31.8877 89.4428 31.8877C89.789 31.8877 90.0494 31.3987 90.1251 30.606C90.2545 29.2447 90.4444 29.3231 91.7878 31.293C92.0849 31.7285 92.4611 31.9491 92.6241 31.7832C92.7874 31.6177 92.559 30.9853 92.1169 30.3779L91.3134 29.2736L92.0935 28.1859C93.2541 26.5676 92.5543 26.3788 91.2296 27.9531L90.0837 29.314L90.0682 28.0271C90.0572 27.1544 89.8639 26.7403 89.4674 26.7403C89.0077 26.7403 88.8826 27.2903 88.8826 29.314ZM95.1356 27.607C93.4736 29.4185 94.589 31.8877 97.0697 31.8877C98.743 31.8877 99.7987 30.8578 99.7987 29.2257C99.7987 27.0083 96.6783 25.925 95.1356 27.607ZM101.743 28.4231C101.74 29.3488 101.626 30.5308 101.489 31.0499C101.303 31.7535 101.379 31.9471 101.786 31.8109C102.087 31.7103 102.425 30.9291 102.537 30.075L102.741 28.5221L103.569 30.1047L104.398 31.6874L105.095 30.2017C105.852 28.5906 106.41 28.842 106.421 30.7988C106.424 31.3979 106.602 31.8877 106.816 31.8877C107.255 31.8877 107.331 29.8485 106.962 27.9776C106.635 26.313 106.214 26.4192 105.209 28.4195L104.366 30.0984L103.565 28.4195C102.516 26.2192 101.75 26.2208 101.743 28.4231ZM109.155 29.314C109.155 32.3834 109.844 32.781 110.012 29.8089C110.127 27.7816 110.162 27.727 111.397 27.6062L112.664 27.4819V29.685C112.664 31.3789 112.799 31.8877 113.249 31.8877C113.709 31.8877 113.834 31.3377 113.834 29.314V26.7403H111.495H109.155V29.314ZM115.861 27.2154C115.114 27.9741 115.319 28.3918 116.203 27.9115C116.649 27.6692 117.263 27.5686 117.568 27.6874C118.502 28.0513 118.171 28.8872 116.847 29.512C116.043 29.8913 115.588 30.3922 115.588 30.8978C115.588 31.582 115.875 31.7008 117.697 31.7725C119.296 31.8354 119.696 31.7444 119.354 31.3963C119.105 31.1441 118.902 30.2069 118.902 29.314C118.902 27.5108 118.377 26.7403 117.148 26.7403C116.697 26.7403 116.118 26.9541 115.861 27.2154ZM121.241 29.314C121.241 31.3377 121.366 31.8877 121.826 31.8877C122.218 31.8877 122.411 31.489 122.411 30.6749C122.411 29.5448 122.497 29.4704 123.678 29.586C124.733 29.6894 124.965 29.8917 125.068 30.7988C125.308 32.9176 125.919 31.8513 125.919 29.314C125.919 27.862 125.749 26.7403 125.53 26.7403C125.315 26.7403 125.14 27.1857 125.14 27.7302C125.14 28.5973 124.971 28.7201 123.775 28.7201C122.579 28.7201 122.411 28.5973 122.411 27.7302C122.411 27.1141 122.19 26.7403 121.826 26.7403C121.366 26.7403 121.241 27.2903 121.241 29.314ZM128.259 29.314C128.259 30.7295 128.34 31.8877 128.439 31.8877C128.539 31.8877 129.324 31.1306 130.184 30.2049L131.748 28.5221L131.758 30.2049C131.763 31.1306 131.943 31.8877 132.157 31.8877C132.38 31.8877 132.54 30.7434 132.531 29.215L132.516 26.5423L130.777 28.4615L129.038 30.3803V28.5605C129.038 27.5595 128.863 26.7403 128.648 26.7403C128.429 26.7403 128.259 27.862 128.259 29.314ZM134.886 29.314C134.886 30.7295 134.994 31.8877 135.126 31.8877C135.257 31.8877 136.039 31.1306 136.864 30.2049L138.363 28.5221L138.379 30.2049C138.388 31.1306 138.57 31.8877 138.785 31.8877C139.008 31.8877 139.168 30.7434 139.159 29.215L139.144 26.5423L137.405 28.4615L135.666 30.3803V28.5605C135.666 27.5595 135.491 26.7403 135.276 26.7403C135.056 26.7403 134.886 27.862 134.886 29.314ZM57.5003 28.3257C58.473 29.4173 57.7685 31.0958 56.3373 31.0958C55.4325 31.0958 55.3545 30.9548 55.3545 29.314C55.3545 27.8462 55.4812 27.5322 56.0738 27.5322C56.4695 27.5322 57.1112 27.8893 57.5003 28.3257ZM98.4358 28.3257C99.0264 28.9885 99.0677 29.2859 98.688 30.1324C98.3149 30.9643 98.0077 31.1235 96.9695 31.0218C95.9091 30.9176 95.6849 30.7181 95.5796 29.7852C95.343 27.6882 97.0775 26.8016 98.4358 28.3257ZM81.7949 30.372C81.7263 30.8448 81.451 31.3053 81.1832 31.3947C80.476 31.6311 80.083 30.294 80.736 29.8739C81.6156 29.3085 81.9275 29.455 81.7949 30.372ZM118.052 30.3989C117.891 31.5448 116.563 31.8687 116.563 30.762C116.563 30.0449 117.007 29.6264 117.857 29.5433C118.033 29.5262 118.12 29.9111 118.052 30.3989ZM10.1306 33.8909C10.1306 35.3852 10.007 35.82 9.64325 35.6018C8.51811 34.9267 5.8421 32.5573 5.8421 32.2361C5.8421 32.0445 6.80701 31.8877 7.98634 31.8877H10.1306V33.8909Z" fill="white"/>
</svg>
