<svg width="740" height="240" viewBox="0 0 740 178" fill="none" xmlns="http://www.w3.org/2000/svg"><path d="M369.853-108L0 262.853v6.183L376.167-108h-6.314zm19.087 0L0 281.992v6.183L395.107-108h-6.167zm-38.027 0L0 243.861v6.183L357.079-108h-6.166zm-38.175 0L0 205.583v6.184L319.052-108h-6.314zm19.087 0L0 224.722v6.184L337.992-108h-6.167zm-57.115 0L0 167.453v6.183L280.877-108h-6.167zm133.318 0L0 301.131v6.183L414.194-108h-6.166zm-114.23 0L0 186.592v6.183L299.964-108h-6.166zm228.313 0L99.254 316h6.167l422.857-424h-6.167zm-18.94 0L80.314 316h6.166l422.857-424h-6.166zm38.027 0L118.341 316h6.167l422.857-424h-6.167zm-95.142 0L23.198 316h6.167l422.857-424h-6.166zm38.027 0L61.226 316h6.314l422.857-424h-6.314zm-57.115 0L4.111 316h6.167l422.857-424h-6.167zm38.028 0L42.139 316h6.313L471.31-108h-6.314zm-266.488 0L0 91.044v6.184L204.821-108h-6.313zm57.115 0L0 148.314v6.183L261.936-108h-6.313zm-171.198 0L0-23.347v6.183L90.591-108h-6.166zm18.94 0L0-4.356v6.184L109.679-108h-6.314zm-95.143 0L0-99.756v6.184L14.389-108H8.222zm114.23 0L0 14.783v6.184L128.619-108h-6.167zm-76.202 0L0-61.625v6.183L52.563-108H46.25zm-18.94 0L0-80.617v6.184L33.476-108H27.31zm38.027 0L0-42.486v6.183L71.504-108h-6.167zm152.258 0L0 110.183v6.184L223.909-108h-6.314zm19.088 0L0 129.322v6.184L242.849-108h-6.166zm323.603 0L137.429 316h6.166l422.857-424h-6.166zm-380.719 0L0 72.053v6.183L185.734-108h-6.167zm-38.174 0L0 33.775v6.183L147.706-108h-6.313zm19.087 0L0 52.914v6.183L166.794-108h-6.314zm344.746 424L740 80.592v-6.184L499.06 316h6.166zm57.115 0L740 137.861v-6.183L556.175 316h6.166zm-18.94 0L740 118.869v-6.183L537.087 316h6.314zm38.028 0L740 157v-6.183L575.262 316h6.167zm-2.203-424L156.369 316h6.167l422.857-424h-6.167zM467.198 316L740 42.461v-6.183L461.032 316h6.166zm19.088 0L740 61.6v-6.183L479.972 316h6.314zm38.027 0L740 99.73v-6.183L518.147 316h6.166zm76.203 0L740 176.139v-6.183L594.202 316h6.314zm95.143 0L740 271.539v-6.183L689.345 316h6.314zm19.087 0L740 290.678v-6.184L708.433 316h6.313zm18.941 0l6.313-6.331v-6.183L727.52 316h6.167zm-76.056 0L740 233.408v-6.183L651.317 316h6.314zm18.94 0L740 252.4v-6.183L670.405 316h6.166zm-38.027 0L740 214.269v-6.183L632.377 316h6.167zm-19.088 0L740 195.131v-6.184L613.29 316h6.166zm-171.345 0L740 23.322V17.14L441.944 316h6.167zm207.318-424L232.571 316h6.167l422.857-424h-6.166zm19.087 0L251.659 316h6.166l422.858-424h-6.167zm18.94 0L270.599 316h6.167l422.857-424h-6.167zm-95.143 0L175.456 316h6.167L604.48-108h-6.167zm114.231 0L289.687 316h6.166L718.71-108h-6.166zm-76.203 0L213.484 316h6.167l422.857-424h-6.167zm-18.94 0L194.544 316h6.166l422.858-424h-6.167zM410.083 316L740-14.808v-6.184L403.917 316h6.166zm-18.94 0L740-33.8v-6.183L384.829 316h6.314zm340.488-424L308.774 316h6.166l422.858-424h-6.167zM372.056 316L740-52.939v-6.183L365.742 316h6.314zm57.115 0L740 4.33V-2L422.857 316h6.314zm-101.457 0h6.167L740-91.07v-6.33L327.714 316zm25.254 0L740-72.078v-6.183L346.802 316h6.166z" fill="url(#paint0_radial)" fill-opacity=".08"/><defs><radialGradient id="paint0_radial" cx="0" cy="0" r="1" gradientUnits="userSpaceOnUse" gradientTransform="matrix(627.681 0 0 629.378 366.254 -54.583)"><stop stop-color="#fff"/><stop offset="1" stop-color="#AEB6BD"/></radialGradient></defs></svg>