<svg width="160" height="20" viewBox="0 0 127 20" fill="none" xmlns="http://www.w3.org/2000/svg"><path d="M50.969-36L-28 43.593v1.327L52.317-36h-1.348zm4.075 0L-28 47.701v1.327L56.36-36h-1.316zm-8.12 0L-28 39.517v1.327L48.241-36h-1.316zm-8.15 0L-28 31.302v1.327L40.122-36h-1.348zm4.075 0L-28 35.41v1.327L44.166-36h-1.317zm-12.195 0L-28 23.118v1.328L31.971-36h-1.317zm28.465 0L-28 51.809v1.327L60.436-36H59.12zm-24.39 0L-28 27.226v1.327L36.046-36H34.73zm48.749 0L-6.808 55h1.317l90.285-91h-1.316zm-4.044 0l-90.286 91h1.317L80.75-36h-1.316zm8.12 0L-2.734 55h1.317L88.87-36h-1.317zm-20.315 0l-90.286 91h1.317l90.286-91h-1.317zm8.12 0l-90.286 91h1.348l90.285-91h-1.348zm-12.195 0l-90.286 91h1.316L64.48-36h-1.317zm8.119 0l-90.286 91h1.348l90.286-91h-1.348zm-56.899 0L-28 6.72v1.327L15.732-36h-1.348zm12.195 0L-28 19.01v1.328L27.927-36h-1.348zm-36.553 0L-28-17.832v1.328L-8.658-36h-1.316zm4.044 0L-28-13.756v1.328L-4.582-36H-5.93zm-20.314 0L-28-34.23v1.326L-24.928-36h-1.316zm24.39 0L-28-9.648v1.327L-.538-36h-1.317zm-16.271 0L-28-26.047v1.327L-16.777-36h-1.348zm-4.044 0L-28-30.123v1.327L-20.852-36h-1.317zm8.12 0L-28-21.94v1.328L-12.733-36h-1.317zm32.508 0L-28 10.827v1.327L19.808-36h-1.349zm4.076 0L-28 14.935v1.327L23.852-36h-1.317zm69.094 0L1.343 55H2.66l90.285-91H91.63zM10.34-36L-28 2.643V3.97L11.657-36H10.34zm-8.15 0L-28-5.572v1.327L3.537-36H2.19zm4.075 0L-28-1.464v1.327L7.613-36H6.265zm73.608 91L130 4.476V3.149L78.556 55h1.317zm12.194 0L130 16.767V15.44L90.75 55h1.317zm-4.044 0L130 12.691v-1.327L86.675 55h1.348zm8.12 0L130 20.875v-1.327L94.826 55h1.317zm-.47-91L5.387 55h1.317l90.285-91h-1.316zm-23.92 91L130-3.708v-1.327L70.436 55h1.317zm4.076 0L130 .4V-.927L74.48 55h1.349zm8.119 0L130 8.584V7.257L82.631 55h1.317zm16.27 0L130 24.983v-1.327L98.87 55h1.348zm20.315 0L130 45.458V44.13L119.185 55h1.348zm4.075 0L130 49.565v-1.327L123.26 55h1.348zm4.044 0L130 53.641v-1.327L127.335 55h1.317zm-16.239 0L130 37.274v-1.327L111.065 55h1.348zm4.044 0L130 41.35v-1.327L115.14 55h1.317zm-8.119 0L130 33.166V31.84L107.021 55h1.317zm-4.076 0L130 29.059v-1.327L102.946 55h1.316zm-36.584 0L130-7.815v-1.327L66.361 55h1.317zm44.265-91L21.657 55h1.317l90.286-91h-1.317zm4.075 0L25.733 55h1.316l90.286-91h-1.317zm4.044 0L29.777 55h1.316l90.286-91h-1.317zm-20.314 0L9.462 55h1.317l90.286-91h-1.317zm24.39 0L33.852 55h1.317l90.285-91h-1.316zm-16.271 0L17.582 55h1.316l90.286-91h-1.317zm-4.044 0L13.538 55h1.316l90.286-91h-1.317zM59.558 55L130-15.999v-1.327L58.242 55h1.316zm-4.044 0L130-20.075v-1.327L54.166 55h1.348zm72.699-91L37.927 55h1.317l90.286-91h-1.317zM51.439 55L130-24.183v-1.327L50.09 55h1.349zm12.195 0L130-11.891v-1.359L62.286 55h1.348zM41.97 55h1.317L130-32.366v-1.359L41.971 55zm5.393 0L130-28.29v-1.327L46.047 55h1.317z" fill="url(#paint0_radial)" fill-opacity=".34"/><defs><radialGradient id="paint0_radial" cx="0" cy="0" r="1" gradientUnits="userSpaceOnUse" gradientTransform="matrix(134.018 0 0 135.079 50.2 -24.535)"><stop stop-color="#fff"/><stop offset="1" stop-color="#AEB6BD"/></radialGradient></defs></svg>