<svg width="280" height="335" fill="none" xmlns="http://www.w3.org/2000/svg"><g clip-path="url(#clip0)"><path d="M261.64 0L-31.728 294.161v4.904L266.648 0h-5.008zm15.14 0L-31.728 309.342v4.904L281.671 0h-4.891zm-30.164 0L-31.728 279.097v4.904L251.508 0h-4.892zm-30.28 0L-31.728 248.735v4.904L221.344 0h-5.008zm15.14 0L-31.728 263.916v4.904L236.368 0h-4.892zm-45.303 0L-31.728 218.489v4.905L191.064 0h-4.891zM291.92 0L-31.728 324.523v4.904L296.811 0h-4.891zm-90.607 0L-31.728 233.67v4.905L206.204 0h-4.891zm181.098 0L47.001 336.317h4.89L387.303 0h-4.891zm-15.024 0L31.977 336.317h4.891L372.28 0h-4.892zm30.164 0L62.141 336.317h4.89L402.444 0h-4.892zm-75.467 0L-13.327 336.317h4.891L326.975 0h-4.891zm30.163 0L16.837 336.317h5.008L357.255 0h-5.008zm-45.303 0L-28.467 336.317h4.891L311.835 0h-4.891zm30.163 0L1.697 336.317h5.007L342.115 0h-5.008zM125.729 0L-31.728 157.882v4.905L130.737 0h-5.008zm45.303 0l-202.76 203.308v4.905L176.04 0h-5.008zM35.238 0l-66.966 67.147v4.904L40.129 0h-4.891zM50.26 0l-81.989 82.21v4.906L55.269 0h-5.008zm-75.467 0l-6.522 6.54v4.904L-20.315 0h-4.891zM65.4 0l-97.129 97.392v4.905L70.292 0h-4.89zM4.958 0l-36.686 36.785v4.904L9.965 0H4.958zm-15.024 0l-21.662 21.72v4.905L-5.175 0h-4.891zm30.164 0l-51.826 51.966v4.904L24.989 0h-4.891zm120.771 0L-31.728 173.063v4.905L145.877 0h-5.008zm15.14 0L-31.728 188.244v4.905L160.9 0h-4.891zm256.682 0L77.281 336.317h4.89L417.584 0h-4.892zM110.705 0L-31.728 142.818v4.905L115.596 0h-4.891zm-30.28 0L-31.728 112.456v4.905L85.432 0h-5.007zm15.14 0L-31.728 127.637v4.905L100.573 0h-5.008zm273.453 336.317l186.223-186.726v-4.904l-191.114 191.63h4.891zm45.304 0l140.919-141.3v-4.904L409.43 336.317h4.892zm-15.024 0l155.943-156.364v-4.905L394.29 336.317h5.008zm30.164 0l125.779-126.119v-4.904L424.57 336.317h4.892zM427.715 0L92.305 336.317h4.89L432.606 0h-4.891zm-88.861 336.317l216.387-216.971v-4.905L333.963 336.317h4.891zm15.14 0l201.247-201.79v-4.905L348.986 336.317h5.008zm30.164 0l171.083-171.545v-4.905l-175.974 176.45h4.891zm60.444 0l110.639-110.938v-4.904L439.594 336.317h5.008zm75.467 0l35.172-35.266v-4.905l-40.18 40.171h5.008zm15.14 0l20.032-20.085v-4.905l-25.04 24.99h5.008zm15.024 0l5.008-5.021v-4.905l-9.9 9.926h4.892zm-60.327 0l65.335-65.512v-4.904l-70.343 70.416h5.008zm15.023 0l50.312-50.447v-4.905l-55.203 55.352h4.891zm-30.164 0l80.476-80.693v-4.904l-85.367 85.597h4.891zm-15.14 0l95.616-95.874v-4.904L454.734 336.317h4.891zm-135.911 0l231.527-232.152V99.26L318.823 336.317h4.891zM488.159 0L152.748 336.317h4.891L493.05 0h-4.891zm15.14 0L167.888 336.317h4.891L508.19 0h-4.891zm15.023 0l-335.41 336.317h4.891L523.214 0h-4.892zm-75.467 0L107.444 336.317h4.892L447.746 0h-4.891zm90.607 0l-335.41 336.317h4.891L538.354 0h-4.892zm-60.443 0L137.608 336.317h4.891L477.91 0h-4.891zm-15.024 0L122.584 336.317h4.892L462.886 0h-4.891zM293.551 336.317L555.241 73.92v-4.905L288.659 336.317h4.892zm-15.024 0L555.241 58.855v-4.904L273.519 336.317h5.008zM548.602 0l-335.41 336.317h4.891L553.494 0h-4.892zM263.387 336.317L555.241 43.675V38.77L258.379 336.317h5.008zm45.304 0l246.55-247.216v-5.022L303.683 336.317h5.008zm-80.476 0h4.892L555.241 13.429V8.408L228.215 336.317zm20.032 0L555.241 28.493V23.59L243.355 336.317h4.892z" fill="url(#paint0_radial)" fill-opacity=".08"/></g><defs><radialGradient id="paint0_radial" cx="0" cy="0" r="1" gradientUnits="userSpaceOnUse" gradientTransform="matrix(497.877 0 0 499.223 258.785 42.37)"><stop stop-color="#fff"/><stop offset="1" stop-color="#AEB6BD"/></radialGradient><clipPath id="clip0"><rect width="280" height="334.731" rx="5" fill="#fff"/></clipPath></defs></svg>