<svg width="353" height="422" fill="none" xmlns="http://www.w3.org/2000/svg"><g clip-path="url(#clip0)"><path d="M329.853 0L-40 370.853v6.183L336.167 0h-6.314zm19.087 0L-40 389.992v6.183L355.107 0h-6.167zm-38.027 0L-40 351.861v6.183L317.079 0h-6.166zm-38.175 0L-40 313.583v6.184L279.052 0h-6.314zm19.087 0L-40 332.722v6.184L297.992 0h-6.167zM234.71 0L-40 275.453v6.183L240.877 0h-6.167zm133.318 0L-40 409.131v6.183L374.194 0h-6.166zm-114.23 0L-40 294.592v6.183L259.964 0h-6.166zm228.313 0L59.254 424h6.167L488.278 0h-6.167zm-18.94 0L40.313 424h6.167L469.337 0h-6.166zm38.027 0L78.341 424h6.167L507.365 0h-6.167zm-95.142 0L-16.802 424h6.167L412.222 0h-6.166zm38.027 0L21.226 424h6.314L450.397 0h-6.314zm-57.115 0L-35.889 424h6.167L393.135 0h-6.167zm38.028 0L2.139 424h6.313L431.31 0h-6.314zM158.508 0L-40 199.044v6.184L164.821 0h-6.313zm57.115 0L-40 256.314v6.183L221.936 0h-6.313zM44.425 0L-40 84.653v6.183L50.591 0h-6.166zm18.94 0L-40 103.644v6.184L69.679 0h-6.314zm-95.143 0L-40 8.244v6.184L-25.611 0h-6.167zm114.23 0L-40 122.783v6.184L88.619 0h-6.167zM6.25 0L-40 46.375v6.183L12.563 0H6.25zm-18.94 0L-40 27.383v6.184L-6.524 0h-6.167zm38.027 0L-40 65.514v6.183L31.504 0h-6.167zm152.258 0L-40 218.183v6.184L183.909 0h-6.314zm19.088 0L-40 237.322v6.184L202.849 0h-6.166zm323.603 0L97.429 424h6.166L526.452 0h-6.166zM139.567 0L-40 180.053v6.183L145.734 0h-6.167zm-38.174 0L-40 141.775v6.183L107.706 0h-6.313zm19.087 0L-40 160.914v6.183L126.794 0h-6.314zm344.746 424L700 188.592v-6.184L459.06 424h6.166zm57.115 0L700 245.861v-6.183L516.175 424h6.166zm-18.94 0L700 226.869v-6.183L497.087 424h6.314zm38.028 0L700 265v-6.183L535.262 424h6.167zM539.226 0L116.369 424h6.167L545.393 0h-6.167zM427.198 424L700 150.461v-6.183L421.032 424h6.166zm19.088 0L700 169.6v-6.183L439.972 424h6.314zm38.027 0L700 207.731v-6.184L478.147 424h6.166zm76.203 0L700 284.139v-6.183L554.202 424h6.314zm95.143 0L700 379.539v-6.183L649.345 424h6.314zm19.087 0L700 398.678v-6.184L668.433 424h6.313zm18.941 0l6.313-6.331v-6.183L687.52 424h6.167zm-76.056 0L700 341.408v-6.183L611.317 424h6.314zm18.94 0L700 360.4v-6.183L630.405 424h6.166zm-38.027 0L700 322.269v-6.183L592.377 424h6.167zm-19.088 0L700 303.131v-6.184L573.29 424h6.166zm-171.345 0L700 131.322v-6.183L401.944 424h6.167zM615.429 0L192.571 424h6.167L621.595 0h-6.166zm19.087 0L211.659 424h6.166L640.683 0h-6.167zm18.94 0L230.599 424h6.167L659.623 0h-6.167zm-95.143 0L135.456 424h6.167L564.48 0h-6.167zm114.231 0L249.687 424h6.166L678.71 0h-6.166zm-76.203 0L173.484 424h6.167L602.508 0h-6.167zm-18.94 0L154.544 424h6.166L583.568 0h-6.167zM370.083 424L700 93.192v-6.184L363.917 424h6.166zm-18.94 0L700 74.2v-6.183L344.829 424h6.314zM691.631 0L268.774 424h6.166L697.798 0h-6.167zM332.056 424L700 55.061v-6.183L325.742 424h6.314zm57.115 0L700 112.331V106L382.857 424h6.314zm-101.457 0h6.167L700 16.93V10.6L287.714 424zm25.254 0L700 35.922V29.74L306.802 424h6.166z" fill="url(#paint0_radial)" fill-opacity=".08"/></g><defs><radialGradient id="paint0_radial" cx="0" cy="0" r="1" gradientUnits="userSpaceOnUse" gradientTransform="matrix(627.681 0 0 629.378 326.254 53.417)"><stop stop-color="#fff"/><stop offset="1" stop-color="#AEB6BD"/></radialGradient><clipPath id="clip0"><rect width="353" height="422" rx="5" fill="#fff"/></clipPath></defs></svg>