<svg width="16" height="16" viewBox="0 0 16 16" fill="none" xmlns="http://www.w3.org/2000/svg">
<path d="M15 7.36V8.004C14.9991 9.5135 14.5103 10.9823 13.6065 12.1913C12.7027 13.4003 11.4323 14.2847 9.98475 14.7127C8.5372 15.1407 6.99008 15.0893 5.57413 14.5662C4.15818 14.0431 2.94926 13.0763 2.12767 11.81C1.30609 10.5436 0.915854 9.04565 1.01517 7.53942C1.11449 6.0332 1.69804 4.59943 2.6788 3.45196C3.65955 2.30448 4.98495 1.50477 6.45733 1.17211C7.92971 0.839443 9.47019 0.991643 10.849 1.60601" stroke="url(#paint0_linear)" stroke-width="1.5" stroke-linecap="round" stroke-linejoin="round"/>
<path d="M15.0001 2.40405L8.00015 9.41105L5.90015 7.31105" stroke="url(#paint1_linear)" stroke-width="1.5" stroke-linecap="round" stroke-linejoin="round"/>
<defs>
<linearGradient id="paint0_linear" x1="1.11302" y1="1.00003" x2="14.6702" y2="1.11232" gradientUnits="userSpaceOnUse">
<stop stop-color="#A5C436"/>
<stop offset="1" stop-color="#74AF35"/>
</linearGradient>
<linearGradient id="paint1_linear" x1="5.97361" y1="2.40407" x2="14.7854" y2="2.49885" gradientUnits="userSpaceOnUse">
<stop stop-color="#A5C436"/>
<stop offset="1" stop-color="#74AF35"/>
</linearGradient>
</defs>
</svg>
