<svg width="724" height="51" viewBox="0 0 724 51" fill="none" xmlns="http://www.w3.org/2000/svg">
<g clip-path="url(#clip0)">
<path d="M194.418 -57.6221L-9.00269 146.348V149.749L197.89 -57.6221H194.418ZM204.916 -57.6221L-9.00269 156.874V160.275L208.307 -57.6221H204.916ZM184 -57.6221L-9.00269 135.903V139.303L187.392 -57.6221H184ZM163.004 -57.6221L-9.00269 114.85V118.25L166.477 -57.6221H163.004ZM173.502 -57.6221L-9.00269 125.376V128.777L176.894 -57.6221H173.502ZM142.089 -57.6221L-9.00269 93.8777V97.2786L145.48 -57.6221H142.089ZM215.414 -57.6221L-9.00269 167.401V170.802L218.805 -57.6221H215.414ZM152.587 -57.6221L-9.00269 104.404V107.805L155.979 -57.6221H152.587ZM278.16 -57.6221L45.5873 175.579H48.979L281.552 -57.6221H278.16ZM267.743 -57.6221L35.17 175.579H38.5616L271.134 -57.6221H267.743ZM288.658 -57.6221L56.0853 175.579H59.477L292.05 -57.6221H288.658ZM236.329 -57.6221L3.75651 175.579H7.14819L239.721 -57.6221H236.329ZM257.245 -57.6221L24.6719 175.579H28.1443L260.717 -57.6221H257.245ZM225.831 -57.6221L-6.74156 175.579H-3.34988L229.223 -57.6221H225.831ZM246.746 -57.6221L14.1738 175.579H17.6463L250.219 -57.6221H246.746ZM100.177 -57.6221L-9.00269 51.8529V55.2538L103.65 -57.6221H100.177ZM131.591 -57.6221L-9.00269 83.3513V86.7521L135.063 -57.6221H131.591ZM37.4311 -57.6221L-9.00269 -11.0628V-7.66195L40.8228 -57.6221H37.4311ZM47.8484 -57.6221L-9.00269 -0.617332V2.78352L51.3208 -57.6221H47.8484ZM-4.48044 -57.6221L-9.00269 -53.0876V-49.6868L-1.08876 -57.6221H-4.48044ZM58.3465 -57.6221L-9.00269 9.90911V13.31L61.7381 -57.6221H58.3465ZM16.4349 -57.6221L-9.00269 -32.1157V-28.7148L19.9074 -57.6221H16.4349ZM6.01763 -57.6221L-9.00269 -42.5612V-39.1603L9.40931 -57.6221H6.01763ZM26.933 -57.6221L-9.00269 -21.5892V-18.1884L30.3247 -57.6221H26.933ZM110.675 -57.6221L-9.00269 62.3794V65.7802L114.148 -57.6221H110.675ZM121.173 -57.6221L-9.00269 72.9058V76.3067L124.565 -57.6221H121.173ZM299.156 -57.6221L66.5834 175.579H69.9751L302.548 -57.6221H299.156ZM89.7599 -57.6221L-9.00269 41.4075V44.8083L93.1516 -57.6221H89.7599ZM68.7638 -57.6221L-9.00269 20.3546V23.7554L72.2362 -57.6221H68.7638ZM79.2618 -57.6221L-9.00269 30.881V34.2819L82.7343 -57.6221H79.2618ZM268.873 175.579L397.999 46.1039V42.703L265.481 175.579H268.873ZM300.287 175.579L397.999 77.6022V74.2014L296.895 175.579H300.287ZM289.869 175.579L397.999 67.1568V63.7559L286.397 175.579H289.869ZM310.785 175.579L397.999 88.1287V84.7278L307.393 175.579H310.785ZM309.573 -57.6221L77.0007 175.579H80.3924L312.965 -57.6221H309.573ZM247.958 175.579L397.999 25.132V21.7311L244.566 175.579H247.958ZM258.456 175.579L397.999 35.6584V32.2576L254.983 175.579H258.456ZM279.371 175.579L397.999 56.6303V53.2295L275.979 175.579H279.371ZM321.283 175.579L397.999 98.6551V95.2543L317.81 175.579H321.283ZM373.612 175.579L397.999 151.125V147.725L370.139 175.579H373.612ZM384.11 175.579L397.999 161.652V158.251L380.637 175.579H384.11ZM394.527 175.579L397.999 172.097V168.696L391.135 175.579H394.527ZM352.696 175.579L397.999 130.153V126.753L349.224 175.579H352.696ZM363.113 175.579L397.999 140.599V137.198L359.722 175.579H363.113ZM342.198 175.579L397.999 119.627V116.226L338.806 175.579H342.198ZM331.7 175.579L397.999 109.101V105.7L328.308 175.579H331.7ZM237.46 175.579L397.999 14.6055V11.2047L234.068 175.579H237.46ZM351.485 -57.6221L118.912 175.579H122.304L354.877 -57.6221H351.485ZM361.983 -57.6221L129.41 175.579H132.802L365.375 -57.6221H361.983ZM372.4 -57.6221L139.828 175.579H143.219L375.792 -57.6221H372.4ZM320.071 -57.6221L87.4988 175.579H90.8905L323.463 -57.6221H320.071ZM382.898 -57.6221L150.326 175.579H153.717L386.29 -57.6221H382.898ZM340.987 -57.6221L108.414 175.579H111.806L344.378 -57.6221H340.987ZM330.569 -57.6221L97.9969 175.579H101.389L333.961 -57.6221H330.569ZM216.544 175.579L397.999 -6.36639V-9.76724L213.153 175.579H216.544ZM206.127 175.579L397.999 -16.8119V-20.2127L202.655 175.579H206.127ZM393.396 -57.6221L160.824 175.579H164.215L396.788 -57.6221H393.396ZM195.629 175.579L397.999 -27.3383V-30.7392L192.156 175.579H195.629ZM227.042 175.579L397.999 4.16005V0.678226L223.57 175.579H227.042ZM171.241 175.579H174.633L397.999 -48.3102V-51.792L171.241 175.579ZM185.131 175.579L397.999 -37.8647V-41.2656L181.739 175.579H185.131Z" fill="url(#paint0_radial)" fill-opacity="0.08"/>
<path d="M600.32 -57.6221L396.899 146.348V149.749L603.792 -57.6221H600.32ZM610.818 -57.6221L396.899 156.874V160.275L614.209 -57.6221H610.818ZM589.902 -57.6221L396.899 135.903V139.303L593.294 -57.6221H589.902ZM568.906 -57.6221L396.899 114.85V118.25L572.379 -57.6221H568.906ZM579.404 -57.6221L396.899 125.376V128.777L582.796 -57.6221H579.404ZM547.991 -57.6221L396.899 93.8777V97.2786L551.383 -57.6221H547.991ZM621.316 -57.6221L396.899 167.401V170.802L624.708 -57.6221H621.316ZM558.489 -57.6221L396.899 104.404V107.805L561.881 -57.6221H558.489ZM684.062 -57.6221L451.489 175.579H454.881L687.454 -57.6221H684.062ZM673.645 -57.6221L441.072 175.579H444.464L677.036 -57.6221H673.645ZM694.56 -57.6221L461.987 175.579H465.379L697.952 -57.6221H694.56ZM642.231 -57.6221L409.659 175.579H413.05L645.623 -57.6221H642.231ZM663.147 -57.6221L430.574 175.579H434.046L666.619 -57.6221H663.147ZM631.733 -57.6221L399.161 175.579H402.552L635.125 -57.6221H631.733ZM652.649 -57.6221L420.076 175.579H423.548L656.121 -57.6221H652.649ZM506.079 -57.6221L396.899 51.8529V55.2538L509.552 -57.6221H506.079ZM537.493 -57.6221L396.899 83.3513V86.7521L540.965 -57.6221H537.493ZM443.333 -57.6221L396.899 -11.0628V-7.66195L446.725 -57.6221H443.333ZM453.75 -57.6221L396.899 -0.617332V2.78352L457.223 -57.6221H453.75ZM401.422 -57.6221L396.899 -53.0876V-49.6868L404.813 -57.6221H401.422ZM464.249 -57.6221L396.899 9.90911V13.31L467.64 -57.6221H464.249ZM422.337 -57.6221L396.899 -32.1157V-28.7148L425.809 -57.6221H422.337ZM411.92 -57.6221L396.899 -42.5612V-39.1603L415.311 -57.6221H411.92ZM432.835 -57.6221L396.899 -21.5892V-18.1884L436.227 -57.6221H432.835ZM516.577 -57.6221L396.899 62.3794V65.7802L520.05 -57.6221H516.577ZM527.075 -57.6221L396.899 72.9058V76.3067L530.467 -57.6221H527.075ZM705.058 -57.6221L472.486 175.579H475.877L708.45 -57.6221H705.058ZM495.662 -57.6221L396.899 41.4075V44.8083L499.054 -57.6221H495.662ZM474.666 -57.6221L396.899 20.3546V23.7554L478.138 -57.6221H474.666ZM485.164 -57.6221L396.899 30.881V34.2819L488.636 -57.6221H485.164ZM674.775 175.579L803.901 46.1039V42.703L671.384 175.579H674.775ZM706.189 175.579L803.901 77.6022V74.2014L702.797 175.579H706.189ZM695.771 175.579L803.901 67.1568V63.7559L692.299 175.579H695.771ZM716.687 175.579L803.901 88.1287V84.7278L713.295 175.579H716.687ZM715.475 -57.6221L482.903 175.579H486.295L718.867 -57.6221H715.475ZM653.86 175.579L803.901 25.132V21.7311L650.468 175.579H653.86ZM664.358 175.579L803.901 35.6584V32.2576L660.885 175.579H664.358ZM685.273 175.579L803.901 56.6303V53.2295L681.882 175.579H685.273ZM727.185 175.579L803.901 98.6551V95.2543L723.712 175.579H727.185ZM779.514 175.579L803.901 151.125V147.725L776.041 175.579H779.514ZM790.012 175.579L803.901 161.652V158.251L786.539 175.579H790.012ZM800.429 175.579L803.901 172.097V168.696L797.037 175.579H800.429ZM758.598 175.579L803.901 130.153V126.753L755.126 175.579H758.598ZM769.016 175.579L803.901 140.599V137.198L765.624 175.579H769.016ZM748.1 175.579L803.901 119.627V116.226L744.709 175.579H748.1ZM737.602 175.579L803.901 109.101V105.7L734.21 175.579H737.602ZM643.362 175.579L803.901 14.6055V11.2047L639.97 175.579H643.362ZM757.387 -57.6221L524.814 175.579H528.206L760.779 -57.6221H757.387ZM767.885 -57.6221L535.312 175.579H538.704L771.277 -57.6221H767.885ZM778.302 -57.6221L545.73 175.579H549.121L781.694 -57.6221H778.302ZM725.974 -57.6221L493.401 175.579H496.793L729.365 -57.6221H725.974ZM788.8 -57.6221L556.228 175.579H559.619L792.192 -57.6221H788.8ZM746.889 -57.6221L514.316 175.579H517.708L750.281 -57.6221H746.889ZM736.472 -57.6221L503.899 175.579H507.291L739.863 -57.6221H736.472ZM622.446 175.579L803.901 -6.36639V-9.76724L619.055 175.579H622.446ZM612.029 175.579L803.901 -16.8119V-20.2127L608.557 175.579H612.029ZM799.298 -57.6221L566.726 175.579H570.118L802.69 -57.6221H799.298ZM601.531 175.579L803.901 -27.3383V-30.7392L598.059 175.579H601.531ZM632.944 175.579L803.901 4.16005V0.678226L629.472 175.579H632.944ZM577.143 175.579H580.535L803.901 -48.3102V-51.792L577.143 175.579ZM591.033 175.579L803.901 -37.8647V-41.2656L587.641 175.579H591.033Z" fill="url(#paint1_radial)" fill-opacity="0.08"/>
</g>
<g clip-path="url(#clip1)">
<path d="M578.87 -57.6221L375.449 146.348V149.749L582.342 -57.6221H578.87ZM589.368 -57.6221L375.449 156.874V160.275L592.759 -57.6221H589.368ZM568.452 -57.6221L375.449 135.903V139.303L571.844 -57.6221H568.452ZM547.456 -57.6221L375.449 114.85V118.25L550.928 -57.6221H547.456ZM557.954 -57.6221L375.449 125.376V128.777L561.346 -57.6221H557.954ZM526.541 -57.6221L375.449 93.8777V97.2786L529.932 -57.6221H526.541ZM599.866 -57.6221L375.449 167.401V170.802L603.257 -57.6221H599.866ZM537.039 -57.6221L375.449 104.404V107.805L540.43 -57.6221H537.039ZM662.612 -57.6221L430.039 175.579H433.431L666.003 -57.6221H662.612ZM652.194 -57.6221L419.622 175.579H423.014L655.586 -57.6221H652.194ZM673.11 -57.6221L440.537 175.579H443.929L676.502 -57.6221H673.11ZM620.781 -57.6221L388.208 175.579H391.6L624.173 -57.6221H620.781ZM641.696 -57.6221L409.124 175.579H412.596L645.169 -57.6221H641.696ZM610.283 -57.6221L377.71 175.579H381.102L613.675 -57.6221H610.283ZM631.198 -57.6221L398.626 175.579H402.098L634.671 -57.6221H631.198ZM484.629 -57.6221L375.449 51.8529V55.2538L488.102 -57.6221H484.629ZM516.043 -57.6221L375.449 83.3513V86.7521L519.515 -57.6221H516.043ZM421.883 -57.6221L375.449 -11.0628V-7.66195L425.275 -57.6221H421.883ZM432.3 -57.6221L375.449 -0.617332V2.78352L435.773 -57.6221H432.3ZM379.971 -57.6221L375.449 -53.0876V-49.6868L383.363 -57.6221H379.971ZM442.798 -57.6221L375.449 9.90911V13.31L446.19 -57.6221H442.798ZM400.887 -57.6221L375.449 -32.1157V-28.7148L404.359 -57.6221H400.887ZM390.47 -57.6221L375.449 -42.5612V-39.1603L393.861 -57.6221H390.47ZM411.385 -57.6221L375.449 -21.5892V-18.1884L414.777 -57.6221H411.385ZM495.127 -57.6221L375.449 62.3794V65.7802L498.6 -57.6221H495.127ZM505.625 -57.6221L375.449 72.9058V76.3067L509.017 -57.6221H505.625ZM683.608 -57.6221L451.035 175.579H454.427L687 -57.6221H683.608ZM474.212 -57.6221L375.449 41.4075V44.8083L477.604 -57.6221H474.212ZM453.216 -57.6221L375.449 20.3546V23.7554L456.688 -57.6221H453.216ZM463.714 -57.6221L375.449 30.881V34.2819L467.186 -57.6221H463.714ZM653.325 175.579L782.451 46.1039V42.703L649.933 175.579H653.325ZM684.738 175.579L782.451 77.6022V74.2014L681.347 175.579H684.738ZM674.321 175.579L782.451 67.1568V63.7559L670.849 175.579H674.321ZM695.237 175.579L782.451 88.1287V84.7278L691.845 175.579H695.237ZM694.025 -57.6221L461.453 175.579H464.844L697.417 -57.6221H694.025ZM632.41 175.579L782.451 25.132V21.7311L629.018 175.579H632.41ZM642.908 175.579L782.451 35.6584V32.2576L639.435 175.579H642.908ZM663.823 175.579L782.451 56.6303V53.2295L660.431 175.579H663.823ZM705.735 175.579L782.451 98.6551V95.2543L702.262 175.579H705.735ZM758.063 175.579L782.451 151.125V147.725L754.591 175.579H758.063ZM768.562 175.579L782.451 161.652V158.251L765.089 175.579H768.562ZM778.979 175.579L782.451 172.097V168.696L775.587 175.579H778.979ZM737.148 175.579L782.451 130.153V126.753L733.676 175.579H737.148ZM747.565 175.579L782.451 140.599V137.198L744.174 175.579H747.565ZM726.65 175.579L782.451 119.627V116.226L723.258 175.579H726.65ZM716.152 175.579L782.451 109.101V105.7L712.76 175.579H716.152ZM621.912 175.579L782.451 14.6055V11.2047L618.52 175.579H621.912ZM735.937 -57.6221L503.364 175.579H506.756L739.328 -57.6221H735.937ZM746.435 -57.6221L513.862 175.579H517.254L749.827 -57.6221H746.435ZM756.852 -57.6221L524.28 175.579H527.671L760.244 -57.6221H756.852ZM704.523 -57.6221L471.951 175.579H475.342L707.915 -57.6221H704.523ZM767.35 -57.6221L534.778 175.579H538.169L770.742 -57.6221H767.35ZM725.439 -57.6221L492.866 175.579H496.258L728.83 -57.6221H725.439ZM715.021 -57.6221L482.449 175.579H485.84L718.413 -57.6221H715.021ZM600.996 175.579L782.451 -6.36639V-9.76724L597.605 175.579H600.996ZM590.579 175.579L782.451 -16.8119V-20.2127L587.106 175.579H590.579ZM777.848 -57.6221L545.276 175.579H548.667L781.24 -57.6221H777.848ZM580.081 175.579L782.451 -27.3383V-30.7392L576.608 175.579H580.081ZM611.494 175.579L782.451 4.16005V0.678226L608.022 175.579H611.494ZM555.693 175.579H559.085L782.451 -48.3102V-51.792L555.693 175.579ZM569.583 175.579L782.451 -37.8647V-41.2656L566.191 175.579H569.583Z" fill="url(#paint2_radial)" fill-opacity="0.08"/>
</g>
<defs>
<radialGradient id="paint0_radial" cx="0" cy="0" r="1" gradientUnits="userSpaceOnUse" gradientTransform="translate(192.438 -28.2425) scale(345.226 346.159)">
<stop stop-color="white"/>
<stop offset="1" stop-color="#AEB6BD"/>
</radialGradient>
<radialGradient id="paint1_radial" cx="0" cy="0" r="1" gradientUnits="userSpaceOnUse" gradientTransform="translate(598.34 -28.2425) scale(345.226 346.159)">
<stop stop-color="white"/>
<stop offset="1" stop-color="#AEB6BD"/>
</radialGradient>
<radialGradient id="paint2_radial" cx="0" cy="0" r="1" gradientUnits="userSpaceOnUse" gradientTransform="translate(576.89 -28.2425) scale(345.226 346.159)">
<stop stop-color="white"/>
<stop offset="1" stop-color="#AEB6BD"/>
</radialGradient>
<clipPath id="clip0">
<rect width="557.329" height="51" fill="white"/>
</clipPath>
<clipPath id="clip1">
<rect width="220.217" height="51" fill="white" transform="translate(503.783)"/>
</clipPath>
</defs>
</svg>
