<svg width="1216" height="189" viewBox="0 0 1216 189" fill="none" xmlns="http://www.w3.org/2000/svg">
<g clip-path="url(#clip0)">
<path d="M187.74 162.82H144.03L122.18 200.67L117.1 191.83L138.96 153.98H182.66L187.74 162.82ZM122.18 196.1L142.72 160.53H183.79L181.32 156.25H140.24L119.71 191.83L122.18 196.1ZM219.93 165.1L214.82 173.95L192.97 136.1H149.26L154.37 127.25H198.1L219.93 165.1ZM214.82 169.39L217.29 165.1L196.76 129.51H155.68L153.21 133.8H194.28L214.82 169.39ZM243.1 151.71L221.24 189.56H211.02L232.87 151.71L211.02 113.86H221.23L243.1 151.71ZM219.93 187.28L240.46 151.71L219.92 116.1H214.97L235.51 151.67L214.97 187.24L219.93 187.28ZM227.66 151.71L222.55 160.56L200.69 122.71H156.98L162.1 113.86H205.8L227.66 151.71ZM222.55 155.99L225.02 151.71L204.48 116.1H163.4L160.93 120.38H202L222.55 155.99ZM272.67 73.75L267.56 82.59H223.86L201.99 44.74L207.1 35.9L228.95 73.75H272.67ZM266.25 80.31L268.72 76.03H227.64L207.1 40.46L204.63 44.74L225.17 80.31H266.25ZM258.54 151.71L236.68 189.56H226.46L248.32 151.71L226.46 113.86H236.67L258.54 151.71ZM235.37 187.28L255.9 151.71L235.36 116.1H230.41L250.95 151.67L230.41 187.24L235.37 187.28ZM273.98 151.71L252.1 189.56H241.9L263.76 151.71L241.9 113.86H252.1L273.98 151.71ZM250.8 187.28L271.33 151.71L250.8 116.1H245.85L266.39 151.67L245.85 187.24L250.8 187.28ZM281.69 165.1L259.83 202.96H216.1L211.02 194.1H254.73L276.58 156.25L281.69 165.1ZM258.52 200.67L279.1 165.1L276.63 160.82L256.1 196.37H214.97L217.44 200.65L258.52 200.67ZM203.18 189.58H159.47L137.62 227.41L132.51 218.57L154.37 180.72H198.1L203.18 189.58ZM137.62 222.85L158.16 187.28H199.23L196.76 183H155.68L135.15 218.57L137.62 222.85ZM289.41 178.46L267.55 216.31H223.85L218.74 207.46H262.45L284.3 169.61L289.41 178.46ZM266.24 214.03L286.77 178.46L284.3 174.17L263.77 209.74H222.69L225.16 214.03H266.24ZM195.46 176.19H151.75L129.9 214.04L124.79 205.2L146.65 167.35H190.35L195.46 176.19ZM129.9 209.48L150.44 173.91H191.51L189.04 169.63H147.96L127.43 205.2L129.9 209.48ZM119.57 231.94L97.71 269.79H87.5L109.35 231.94L87.5 194.1H97.71L119.57 231.94ZM96.4 267.51L116.93 231.94L96.4 196.37H91.4L111.94 231.94L91.45 267.51H96.4ZM264.94 247.58L259.83 256.42H216.1L194.24 218.57L199.35 209.73L221.2 247.58H264.94ZM258.52 254.1L260.99 249.82H219.92L199.38 214.25L196.91 218.53L217.45 254.1H258.52ZM297.1 191.83L275.24 229.68H231.54L226.43 220.83H270.14L291.99 182.98L297.1 191.83ZM273.96 227.4L294.49 191.83L292.02 187.55L271.48 223.1H230.41L232.88 227.39L273.96 227.4ZM342.1 109.33H298.43L276.58 147.18L271.47 138.34L293.33 100.49H337.03L342.1 109.33ZM276.58 142.62L297.1 107.1H338.17L335.7 102.82H294.65L274.1 138.34L276.58 142.62ZM342.1 189.56H331.93L310.1 151.71L331.95 113.86H342.1L320.29 151.71L342.1 189.56ZM329.59 130.96L338.19 116.1H333.25L312.71 151.71L333.25 187.28H338.19L317.65 151.71L329.59 130.96ZM203.18 194.1L181.33 231.95L203.18 269.8H192.97L171.1 231.94L192.97 194.1H203.18ZM178.69 231.94L199.23 196.37H194.28L173.75 231.94L194.28 267.51H199.23L178.69 231.94ZM104.12 231.94L82.27 269.79H72.1L93.95 231.94L72.1 194.1H82.27L104.12 231.94ZM80.96 267.51L101.49 231.94L80.96 196.37H76.01L96.55 231.94L76.01 267.51H80.96ZM135.01 231.94L113.15 269.79H102.94L124.79 231.94L102.94 194.1H113.15L135.01 231.94ZM111.83 267.51L132.37 231.94L111.83 196.37H106.89L127.43 231.94L106.89 267.51H111.83ZM172.3 194.1L150.45 231.94L172.3 269.79H162.1L140.23 231.94L162.1 194.1H172.3ZM147.81 231.94L168.35 196.37H163.35L142.87 231.94L163.4 267.51H168.4L147.81 231.94ZM187.74 269.79H177.53L155.67 231.94L177.53 194.1H187.74L165.89 231.94L187.74 269.79ZM163.25 231.94L183.79 196.37H178.79L158.31 231.94L178.84 267.51H183.84L163.25 231.94ZM212.25 178.46L207.1 187.3L185.25 149.45H141.54L146.65 140.61H190.35L212.25 178.46ZM207.1 182.74L209.57 178.46L189.04 142.89H147.96L145.49 147.17H186.56L207.1 182.74ZM187.74 2.36H144.03L122.18 40.21L117.1 31.37L138.93 -6.48H182.63L187.74 2.36ZM122.18 35.65L142.72 0.0999985H183.79L181.32 -4.18H140.24L119.71 31.37L122.18 35.65ZM326.7 113.86L304.85 151.71L326.7 189.56H316.49L294.63 151.71L316.49 113.86H326.7ZM317.81 187.28H322.75L302.21 151.71L322.75 116.1H317.81L297.27 151.71L317.81 187.28ZM289.41 18L267.55 55.85H223.85L218.74 47H262.45L284.3 9.15L289.41 18ZM266.24 53.57L286.77 18L284.3 13.72L263.77 49.28H222.69L225.16 53.57H266.24ZM150.45 98.23L128.59 136.1H84.89L79.78 127.25H123.49L145.34 89.38L150.45 98.23ZM127.28 133.8L147.81 98.23L145.34 93.94L124.8 129.51H83.73L86.2 133.8H127.28ZM203.18 29.1H159.47L137.62 66.96L132.51 58.1L154.37 20.26H198.1L203.18 29.1ZM137.62 62.39L158.16 26.82H199.23L196.76 22.54H155.68L135.15 58.1L137.62 62.39ZM195.46 15.73H151.75L129.9 53.58L124.79 44.74L146.65 6.89H190.35L195.46 15.73ZM129.9 49.02L150.44 13.45H191.51L189.04 9.17H147.96L127.43 44.74L129.9 49.02ZM326.7 82.59H282.99L261.1 120.44L256 111.6L277.85 73.75H321.55L326.7 82.59ZM261.1 115.88L281.64 80.31H322.71L320.24 76.03H279.2L258.67 111.6L261.1 115.88ZM133.7 -6.48L128.59 2.36H84.89L67 -28.64V-46.31L90 -6.48H133.7ZM127.28 0.0999985L129.75 -4.18H88.67L69.28 -37.8V-29.23L86.2 0.0999985H127.28ZM334.42 95.96H290.71L268.86 133.81L263.76 124.97L285.61 87.1H329.31L334.42 95.96ZM268.86 129.25L289.4 93.68H330.47L328 89.4H286.93L266.39 124.97L268.86 129.25ZM272.66 234.25L267.55 243.1H223.85L201.99 205.2L207.1 196.35L228.95 234.21L272.66 234.25ZM266.24 240.81L268.71 236.53H227.64L207.1 200.92L204.63 205.2L225.17 240.77L266.24 240.81ZM158.17 111.6L136.31 149.45H92.61L87.5 140.61H131.21L153.1 102.75L158.17 111.6ZM135 147.17L155.53 111.6L153.1 107.32L132.52 142.89H91.45L93.92 147.17H135ZM281.69 4.63L259.83 42.48H216.1L210.99 33.63H254.7L276.55 -4.22L281.69 4.63ZM258.52 40.2L279.1 4.63L276.63 0.34L256.1 35.91H214.97L217.45 40.2H258.52ZM119.57 71.48L97.71 109.33H87.5L109.35 71.48L87.5 33.63H97.71L119.57 71.48ZM96.4 107.1L116.93 71.48L96.4 35.91H91.4L111.99 71.48L91.45 107.1H96.4ZM104.1 71.48L82.27 109.33H72.1L93.91 71.48L72.1 33.63H82.27L104.1 71.48ZM80.96 107.1L101.49 71.48L80.96 35.91H76.01L96.55 71.48L76.01 107.1H80.96ZM264.94 87.1L259.83 95.94H216.1L194.27 58.1L199.38 49.26L221.23 87.1H264.94ZM258.52 93.66L260.99 89.38H219.92L199.38 53.83L196.91 58.1L217.45 93.67L258.52 93.66ZM311.26 113.84L289.41 151.71L311.26 189.56H301.1L279.2 151.71L301.1 113.86L311.26 113.84ZM302.36 187.26H307.36L286.77 151.71L307.31 116.1H302.31L281.83 151.71L302.36 187.26ZM135.01 71.48L113.15 109.33H102.94L124.79 71.48L102.94 33.63H113.15L135.01 71.48ZM111.83 107.1L132.37 71.48L111.83 35.91H106.89L127.43 71.48L106.89 107.1H111.83ZM142.73 84.91L120.87 122.71H77.17L72.1 113.86H115.77L137.62 76.01L142.73 84.91ZM119.56 120.42L140.1 84.86L137.63 80.57L117.1 116.1H76.01L78.48 120.38L119.56 120.42ZM172.3 33.63L150.45 71.48L172.3 109.33H162.1L140.23 71.48L162.1 33.63H172.3ZM147.81 71.48L168.35 35.91H163.35L142.87 71.48L163.4 107.1H168.4L147.81 71.48ZM203.18 33.63L181.33 71.48L203.18 109.33H192.97L171.1 71.48L192.96 33.63H203.18ZM191.1 50.1L199.28 35.93H194.33L173.75 71.48L194.28 107.1H199.23L178.69 71.48L191.1 50.1ZM257.27 100.51L252.1 109.33H208.4L186.56 71.48L191.66 62.64L213.51 100.49L257.27 100.51ZM250.8 107.1L253.27 102.82H212.2L191.66 67.2L189.19 71.48L209.72 107.1H250.8ZM187.74 109.38H177.53L155.67 71.48L177.53 33.63H187.74L165.89 71.48L187.74 109.38ZM163.25 71.48L183.79 35.91H178.79L158.31 71.48L178.84 107.1H183.84L163.25 71.48ZM257.25 260.95L252.1 269.79H208.4L186.55 231.94L191.65 223.1L213.5 260.95H257.25ZM250.83 267.51L253.3 263.23H212.2L191.66 227.66L189.19 231.94L209.72 267.51H250.83ZM347.23 198.33V216.02L339.68 202.94H295.94L301.1 194.1H344.81L347.23 198.33ZM344.95 207.51V198.94L343.47 196.37H302.36L299.89 200.65H340.97L344.95 207.51ZM347.23 171.59V189.28L325.52 151.71L330.62 142.87L347.23 171.59ZM344.95 180.76V172.2L330.65 147.43L328.18 151.71L344.95 180.76ZM347.23 144.84V162.53L333.23 138.34L338.33 129.5L347.23 144.84ZM344.95 154.02V145.46L338.34 134.1L335.87 138.38L344.95 154.02ZM347.23 91.36V109.1L345 105.19L324.21 69.22H280.5L285.61 60.38H329.31L347.23 91.36ZM344.95 100.53V91.97L328 62.66H286.93L284.45 66.94H325.52L344.95 100.53ZM347.23 114.15V135.79L340.99 124.97L347.23 114.15ZM344.95 127.28V122.66L343.62 124.97L344.95 127.28ZM347.23 64.61V82.3L331.93 55.85H288.22L293.33 47H337.03L347.23 64.61ZM344.95 73.79V65.23L335.75 49.28H294.65L292.17 53.57H333.25L344.95 73.79ZM334.45 256.42H290.71L281.03 273.2H270.82L285.61 247.58H329.31L334.45 256.42ZM279.74 270.92L289.4 254.1H330.47L328 249.82H286.93L274.77 270.88L279.74 270.92ZM326.74 243.05H282.99L265.59 273.2H255.38L277.89 234.2H321.59L326.74 243.05ZM264.31 270.92L281.72 240.77H322.79L320.32 236.49H279.2L259.33 270.92H264.31ZM347.2 225.1V242.79L331.93 216.34H288.22L293.33 207.49H337.03L347.2 225.1ZM344.92 234.28V225.71L335.72 209.77H294.65L292.17 214.06H333.25L344.92 234.28ZM342.1 269.79H298.43L296.43 273.2H286.26L293.33 260.95H337.03L342.1 269.79ZM295.1 270.92L297.1 267.51H338.17L335.7 263.23H294.65L290.21 270.92H295.1ZM347.15 251.82V269.55L344.92 265.63L324.16 229.68H280.5L285.61 220.83H329.31L347.15 251.82ZM344.87 260.99V252.43L328 223.1H286.93L284.45 227.39H325.52L344.87 260.99ZM347.2 11.1V28.79L325.52 -8.75L330.62 -17.59L347.2 11.1ZM344.92 20.27V11.71L330.62 -13.06L328.15 -8.78L344.92 20.27ZM158.82 -50L136.31 -11H92.61L87.5 -19.85H131.21L148.61 -50H158.82ZM135 -13.29L154.87 -47.72H149.93L132.52 -17.57H91.45L93.92 -13.29H135ZM266.9 -50L261.14 -40L255.38 -50H266.9ZM261.1 -44.58L262.91 -47.72H259.29L261.1 -44.58ZM282.31 -50L268.86 -26.65L263.76 -35.49L272.1 -50H282.31ZM268.86 -31.21L278.4 -47.72H273.4L266.34 -35.49L268.86 -31.21ZM127.94 -50L120.87 -37.75H77.17L72.1 -46.6H115.77L117.77 -50H127.94ZM119.56 -40L123.99 -47.69H119.1L117.1 -44.29H76.01L78.48 -40H119.56ZM143.38 -50L128.59 -24.38H84.89L79.78 -33.22H123.49L133.17 -50H143.38ZM127.28 -26.66L139.43 -47.72H134.49L124.8 -30.9H83.73L86.2 -26.66H127.28ZM297.79 -50L276.58 -13.27L271.47 -22.12L287.57 -50H297.79ZM276.58 -17.84L293.84 -47.72H288.84L274.1 -22.12L276.58 -17.84ZM158.82 273.2H147.3L153.06 263.2L158.82 273.2ZM151.25 270.92H154.87L153.1 267.77L151.25 270.92ZM347.25 -15.61V2.1L333.25 -22.09L338.35 -30.93L347.25 -15.61ZM344.97 -6.44V-15L338.39 -26.4L335.92 -22.12L344.97 -6.44ZM347.25 -46.31V-24.67L341.01 -35.49L347.25 -46.31ZM344.97 -33.18V-37.79L343.64 -35.49L344.97 -33.18ZM347.25 37.87V55.56L339.65 42.48H295.94L301.1 33.63H344.81L347.25 37.87ZM344.92 47.1V38.53L343.44 35.96H302.36L299.89 40.25H340.97L344.92 47.1ZM297.1 31.37L275.27 69.22H231.57L226.46 60.38H270.17L292.02 22.53L297.1 31.37ZM273.96 66.94L294.49 31.37L292.02 27.1L271.48 62.66H230.41L232.88 66.94H273.96ZM219.96 4.63L214.85 13.47L192.97 -24.38H149.26L154.37 -33.22H198.1L219.96 4.63ZM214.85 8.91L217.32 4.63L196.76 -30.9H155.68L153.21 -26.62H194.28L214.85 8.91ZM227.68 -8.75L222.54 0.0999985L200.69 -37.75H156.98L162.1 -46.6H205.8L227.68 -8.75ZM222.57 -4.46L225.04 -8.75L204.48 -44.32H163.4L160.93 -40.03H202L222.57 -4.46ZM243.1 -8.75L221.23 29.1H211.02L232.87 -8.76L211.02 -46.6H221.23L243.1 -8.75ZM219.92 26.82L240.45 -8.75L219.92 -44.32H214.97L235.51 -8.75L214.97 26.82H219.92ZM125.98 6.89L120.87 15.73H77.17L67 -1.9V-19.57L82.27 6.89H125.98ZM119.56 13.45L122.03 9.17H80.96L69.28 -11.05V-2.49L78.48 13.45H119.56ZM212.21 18L207.1 26.84L185.25 -11.01H141.54L146.65 -19.85H190.35L212.21 18ZM207.1 22.28L209.57 18L189.04 -17.57H147.96L145.49 -13.29H186.56L207.1 22.28ZM258.53 -8.72L236.67 29.1H226.46L248.32 -8.76L226.46 -46.6H236.67L258.53 -8.72ZM235.36 26.82L255.89 -8.75L235.36 -44.32H230.41L250.95 -8.75L230.41 26.82H235.36ZM118.26 20.26L113.15 29.1H69.45L67 24.86V7.18L74.55 20.26H118.26ZM111.84 26.82L114.31 22.54H73.23L69.28 15.69V24.25L70.76 26.82H111.84ZM326.7 -46.6L304.85 -8.75L326.7 29.1H316.49L294.63 -8.75L316.49 -46.6H326.7ZM302.21 -8.75L322.75 -44.32H317.81L297.27 -8.75L317.81 26.82H322.75L302.21 -8.75ZM342.1 29.1H331.93L310.1 -8.75L331.93 -46.6H342.1L320.29 -8.75L342.1 29.1ZM329.63 -29.5L338.19 -44.32H333.25L312.71 -8.75L333.25 26.82H338.19L317.65 -8.75L329.63 -29.5ZM273.97 -8.75L252.1 29.1H241.9L263.76 -8.76L241.9 -46.6H252.1L273.97 -8.75ZM250.8 26.82L271.33 -8.75L250.8 -44.32H245.85L266.39 -8.75L245.85 26.82H250.8ZM311.26 -46.6L289.41 -8.75L311.26 29.1H301.1L279.2 -8.75L301.1 -46.6H311.26ZM286.77 -8.75L307.31 -44.32H302.31L281.83 -8.75L302.36 26.82H307.36L286.77 -8.75ZM73.24 258.69L67 269.5V247.86L73.24 258.69ZM69.24 260.99L70.57 258.69L69.24 256.38V260.99ZM80.96 245.31L75.86 254.16L67 238.81V221.1L80.96 245.31ZM76.43 248.6L78.33 245.31L69.33 229.63V238.2L75.91 249.6L76.43 248.6ZM88.68 231.94L83.58 240.79L67 212.1V194.38L88.68 231.94ZM83.58 236.22L86.1 231.94L69.33 202.89V211.46L83.58 236.22ZM118.26 180.72L113.15 189.56H69.45L67 185.32V167.64L74.55 180.72H118.26ZM111.84 187.28L114.31 183H73.23L69.28 176.15V184.71L70.76 187.28H111.84ZM150.45 258.69L142.1 273.2H131.86L145.34 249.84L150.45 258.69ZM140.75 270.92L147.81 258.69L145.34 254.4L135.81 270.92H140.75ZM142.75 245.31L126.63 273.2H116.41L137.62 236.47L142.75 245.31ZM125.31 270.92L140.1 245.31L137.63 241.03L120.37 270.92H125.31ZM80.96 84.85L75.86 93.7L67 78.35V60.66L80.96 84.85ZM76.43 88.1L78.33 84.81L69.33 69.14V77.7L75.86 89.1L76.43 88.1ZM125.98 167.31L120.87 176.15H77.17L67 158.58V140.89L82.27 167.35L125.98 167.31ZM119.56 173.87L122.03 169.59H80.96L69.28 149.4V157.97L78.48 173.91L119.56 173.87ZM88.68 71.48L83.58 80.33L67 51.61V33.92L88.68 71.48ZM83.58 75.77L86.1 71.48L69.33 42.48V51L83.58 75.77ZM73.24 98.23L67 109.1V87.41L73.24 98.23ZM69.24 100.53L70.57 98.23L69.24 95.92V100.53ZM133.7 153.98L128.59 162.82H84.89L67 131.82V114.15L90 153.98H133.7ZM127.28 160.54L129.75 156.26H88.67L69.28 122.66V131.23L86.2 160.54H127.28Z" fill="#D1CF9C" fill-opacity="0.26"/>
<path d="M755.74 162.82H712.03L690.18 200.67L685.1 191.83L706.96 153.98H750.66L755.74 162.82ZM690.18 196.1L710.72 160.53H751.79L749.32 156.25H708.24L687.71 191.83L690.18 196.1ZM787.93 165.1L782.82 173.95L760.97 136.1H717.26L722.37 127.25H766.1L787.93 165.1ZM782.82 169.39L785.29 165.1L764.76 129.51H723.68L721.21 133.8H762.28L782.82 169.39ZM811.1 151.71L789.24 189.56H779.02L800.87 151.71L779.02 113.86H789.23L811.1 151.71ZM787.93 187.28L808.46 151.71L787.92 116.1H782.97L803.51 151.67L782.97 187.24L787.93 187.28ZM795.66 151.71L790.55 160.56L768.69 122.71H724.98L730.1 113.86H773.8L795.66 151.71ZM790.55 155.99L793.02 151.71L772.48 116.1H731.4L728.93 120.38H770L790.55 155.99ZM840.67 73.75L835.56 82.59H791.86L769.99 44.74L775.1 35.9L796.95 73.75H840.67ZM834.25 80.31L836.72 76.03H795.64L775.1 40.46L772.63 44.74L793.17 80.31H834.25ZM826.54 151.71L804.68 189.56H794.46L816.32 151.71L794.46 113.86H804.67L826.54 151.71ZM803.37 187.28L823.9 151.71L803.36 116.1H798.41L818.95 151.67L798.41 187.24L803.37 187.28ZM841.98 151.71L820.1 189.56H809.9L831.76 151.71L809.9 113.86H820.1L841.98 151.71ZM818.8 187.28L839.33 151.71L818.8 116.1H813.85L834.39 151.67L813.85 187.24L818.8 187.28ZM849.69 165.1L827.83 202.96H784.1L779.02 194.1H822.73L844.58 156.25L849.69 165.1ZM826.52 200.67L847.1 165.1L844.63 160.82L824.1 196.37H782.97L785.44 200.65L826.52 200.67ZM771.18 189.58H727.47L705.62 227.41L700.51 218.57L722.37 180.72H766.1L771.18 189.58ZM705.62 222.85L726.16 187.28H767.23L764.76 183H723.68L703.15 218.57L705.62 222.85ZM857.41 178.46L835.55 216.31H791.85L786.74 207.46H830.45L852.3 169.61L857.41 178.46ZM834.24 214.03L854.77 178.46L852.3 174.17L831.77 209.74H790.69L793.16 214.03H834.24ZM763.46 176.19H719.75L697.9 214.04L692.79 205.2L714.65 167.35H758.35L763.46 176.19ZM697.9 209.48L718.44 173.91H759.51L757.04 169.63H715.96L695.43 205.2L697.9 209.48ZM687.57 231.94L665.71 269.79H655.5L677.35 231.94L655.5 194.1H665.71L687.57 231.94ZM664.4 267.51L684.93 231.94L664.4 196.37H659.4L679.94 231.94L659.45 267.51H664.4ZM832.94 247.58L827.83 256.42H784.1L762.24 218.57L767.35 209.73L789.2 247.58H832.94ZM826.52 254.1L828.99 249.82H787.92L767.38 214.25L764.91 218.53L785.45 254.1H826.52ZM865.1 191.83L843.24 229.68H799.54L794.43 220.83H838.14L859.99 182.98L865.1 191.83ZM841.96 227.4L862.49 191.83L860.02 187.55L839.48 223.1H798.41L800.88 227.39L841.96 227.4ZM910.1 109.33H866.43L844.58 147.18L839.47 138.34L861.33 100.49H905.03L910.1 109.33ZM844.58 142.62L865.1 107.1H906.17L903.7 102.82H862.65L842.1 138.34L844.58 142.62ZM910.1 189.56H899.93L878.1 151.71L899.95 113.86H910.1L888.29 151.71L910.1 189.56ZM897.59 130.96L906.19 116.1H901.25L880.71 151.71L901.25 187.28H906.19L885.65 151.71L897.59 130.96ZM771.18 194.1L749.33 231.95L771.18 269.8H760.97L739.1 231.94L760.97 194.1H771.18ZM746.69 231.94L767.23 196.37H762.28L741.75 231.94L762.28 267.51H767.23L746.69 231.94ZM672.12 231.94L650.27 269.79H640.1L661.95 231.94L640.1 194.1H650.27L672.12 231.94ZM648.96 267.51L669.49 231.94L648.96 196.37H644.01L664.55 231.94L644.01 267.51H648.96ZM703.01 231.94L681.15 269.79H670.94L692.79 231.94L670.94 194.1H681.15L703.01 231.94ZM679.83 267.51L700.37 231.94L679.83 196.37H674.89L695.43 231.94L674.89 267.51H679.83ZM740.3 194.1L718.45 231.94L740.3 269.79H730.1L708.23 231.94L730.1 194.1H740.3ZM715.81 231.94L736.35 196.37H731.35L710.87 231.94L731.4 267.51H736.4L715.81 231.94ZM755.74 269.79H745.53L723.67 231.94L745.53 194.1H755.74L733.89 231.94L755.74 269.79ZM731.25 231.94L751.79 196.37H746.79L726.31 231.94L746.84 267.51H751.84L731.25 231.94ZM780.25 178.46L775.1 187.3L753.25 149.45H709.54L714.65 140.61H758.35L780.25 178.46ZM775.1 182.74L777.57 178.46L757.04 142.89H715.96L713.49 147.17H754.56L775.1 182.74ZM755.74 2.36H712.03L690.18 40.21L685.1 31.37L706.93 -6.48H750.63L755.74 2.36ZM690.18 35.65L710.72 0.0999985H751.79L749.32 -4.18H708.24L687.71 31.37L690.18 35.65ZM894.7 113.86L872.85 151.71L894.7 189.56H884.49L862.63 151.71L884.49 113.86H894.7ZM885.81 187.28H890.75L870.21 151.71L890.75 116.1H885.81L865.27 151.71L885.81 187.28ZM857.41 18L835.55 55.85H791.85L786.74 47H830.45L852.3 9.15L857.41 18ZM834.24 53.57L854.77 18L852.3 13.72L831.77 49.28H790.69L793.16 53.57H834.24ZM718.45 98.23L696.59 136.1H652.89L647.78 127.25H691.49L713.34 89.38L718.45 98.23ZM695.28 133.8L715.81 98.23L713.34 93.94L692.8 129.51H651.73L654.2 133.8H695.28ZM771.18 29.1H727.47L705.62 66.96L700.51 58.1L722.37 20.26H766.1L771.18 29.1ZM705.62 62.39L726.16 26.82H767.23L764.76 22.54H723.68L703.15 58.1L705.62 62.39ZM763.46 15.73H719.75L697.9 53.58L692.79 44.74L714.65 6.89H758.35L763.46 15.73ZM697.9 49.02L718.44 13.45H759.51L757.04 9.17H715.96L695.43 44.74L697.9 49.02ZM894.7 82.59H850.99L829.1 120.44L824 111.6L845.85 73.75H889.55L894.7 82.59ZM829.1 115.88L849.64 80.31H890.71L888.24 76.03H847.2L826.67 111.6L829.1 115.88ZM701.7 -6.48L696.59 2.36H652.89L635 -28.64V-46.31L658 -6.48H701.7ZM695.28 0.0999985L697.75 -4.18H656.67L637.28 -37.8V-29.23L654.2 0.0999985H695.28ZM902.42 95.96H858.71L836.86 133.81L831.76 124.97L853.61 87.1H897.31L902.42 95.96ZM836.86 129.25L857.4 93.68H898.47L896 89.4H854.93L834.39 124.97L836.86 129.25ZM840.66 234.25L835.55 243.1H791.85L769.99 205.2L775.1 196.35L796.95 234.21L840.66 234.25ZM834.24 240.81L836.71 236.53H795.64L775.1 200.92L772.63 205.2L793.17 240.77L834.24 240.81ZM726.17 111.6L704.31 149.45H660.61L655.5 140.61H699.21L721.1 102.75L726.17 111.6ZM703 147.17L723.53 111.6L721.1 107.32L700.52 142.89H659.45L661.92 147.17H703ZM849.69 4.63L827.83 42.48H784.1L778.99 33.63H822.7L844.55 -4.22L849.69 4.63ZM826.52 40.2L847.1 4.63L844.63 0.34L824.1 35.91H782.97L785.45 40.2H826.52ZM687.57 71.48L665.71 109.33H655.5L677.35 71.48L655.5 33.63H665.71L687.57 71.48ZM664.4 107.1L684.93 71.48L664.4 35.91H659.4L679.99 71.48L659.45 107.1H664.4ZM672.1 71.48L650.27 109.33H640.1L661.91 71.48L640.1 33.63H650.27L672.1 71.48ZM648.96 107.1L669.49 71.48L648.96 35.91H644.01L664.55 71.48L644.01 107.1H648.96ZM832.94 87.1L827.83 95.94H784.1L762.27 58.1L767.38 49.26L789.23 87.1H832.94ZM826.52 93.66L828.99 89.38H787.92L767.38 53.83L764.91 58.1L785.45 93.67L826.52 93.66ZM879.26 113.84L857.41 151.71L879.26 189.56H869.1L847.2 151.71L869.1 113.86L879.26 113.84ZM870.36 187.26H875.36L854.77 151.71L875.31 116.1H870.31L849.83 151.71L870.36 187.26ZM703.01 71.48L681.15 109.33H670.94L692.79 71.48L670.94 33.63H681.15L703.01 71.48ZM679.83 107.1L700.37 71.48L679.83 35.91H674.89L695.43 71.48L674.89 107.1H679.83ZM710.73 84.91L688.87 122.71H645.17L640.1 113.86H683.77L705.62 76.01L710.73 84.91ZM687.56 120.42L708.1 84.86L705.63 80.57L685.1 116.1H644.01L646.48 120.38L687.56 120.42ZM740.3 33.63L718.45 71.48L740.3 109.33H730.1L708.23 71.48L730.1 33.63H740.3ZM715.81 71.48L736.35 35.91H731.35L710.87 71.48L731.4 107.1H736.4L715.81 71.48ZM771.18 33.63L749.33 71.48L771.18 109.33H760.97L739.1 71.48L760.96 33.63H771.18ZM759.1 50.1L767.28 35.93H762.33L741.75 71.48L762.28 107.1H767.23L746.69 71.48L759.1 50.1ZM825.27 100.51L820.1 109.33H776.4L754.56 71.48L759.66 62.64L781.51 100.49L825.27 100.51ZM818.8 107.1L821.27 102.82H780.2L759.66 67.2L757.19 71.48L777.72 107.1H818.8ZM755.74 109.38H745.53L723.67 71.48L745.53 33.63H755.74L733.89 71.48L755.74 109.38ZM731.25 71.48L751.79 35.91H746.79L726.31 71.48L746.84 107.1H751.84L731.25 71.48ZM825.25 260.95L820.1 269.79H776.4L754.55 231.94L759.65 223.1L781.5 260.95H825.25ZM818.83 267.51L821.3 263.23H780.2L759.66 227.66L757.19 231.94L777.72 267.51H818.83ZM915.23 198.33V216.02L907.68 202.94H863.94L869.1 194.1H912.81L915.23 198.33ZM912.95 207.51V198.94L911.47 196.37H870.36L867.89 200.65H908.97L912.95 207.51ZM915.23 171.59V189.28L893.52 151.71L898.62 142.87L915.23 171.59ZM912.95 180.76V172.2L898.65 147.43L896.18 151.71L912.95 180.76ZM915.23 144.84V162.53L901.23 138.34L906.33 129.5L915.23 144.84ZM912.95 154.02V145.46L906.34 134.1L903.87 138.38L912.95 154.02ZM915.23 91.36V109.1L913 105.19L892.21 69.22H848.5L853.61 60.38H897.31L915.23 91.36ZM912.95 100.53V91.97L896 62.66H854.93L852.45 66.94H893.52L912.95 100.53ZM915.23 114.15V135.79L908.99 124.97L915.23 114.15ZM912.95 127.28V122.66L911.62 124.97L912.95 127.28ZM915.23 64.61V82.3L899.93 55.85H856.22L861.33 47H905.03L915.23 64.61ZM912.95 73.79V65.23L903.75 49.28H862.65L860.17 53.57H901.25L912.95 73.79ZM902.45 256.42H858.71L849.03 273.2H838.82L853.61 247.58H897.31L902.45 256.42ZM847.74 270.92L857.4 254.1H898.47L896 249.82H854.93L842.77 270.88L847.74 270.92ZM894.74 243.05H850.99L833.59 273.2H823.38L845.89 234.2H889.59L894.74 243.05ZM832.31 270.92L849.72 240.77H890.79L888.32 236.49H847.2L827.33 270.92H832.31ZM915.2 225.1V242.79L899.93 216.34H856.22L861.33 207.49H905.03L915.2 225.1ZM912.92 234.28V225.71L903.72 209.77H862.65L860.17 214.06H901.25L912.92 234.28ZM910.1 269.79H866.43L864.43 273.2H854.26L861.33 260.95H905.03L910.1 269.79ZM863.1 270.92L865.1 267.51H906.17L903.7 263.23H862.65L858.21 270.92H863.1ZM915.15 251.82V269.55L912.92 265.63L892.16 229.68H848.5L853.61 220.83H897.31L915.15 251.82ZM912.87 260.99V252.43L896 223.1H854.93L852.45 227.39H893.52L912.87 260.99ZM915.2 11.1V28.79L893.52 -8.75L898.62 -17.59L915.2 11.1ZM912.92 20.27V11.71L898.62 -13.06L896.15 -8.78L912.92 20.27ZM726.82 -50L704.31 -11H660.61L655.5 -19.85H699.21L716.61 -50H726.82ZM703 -13.29L722.87 -47.72H717.93L700.52 -17.57H659.45L661.92 -13.29H703ZM834.9 -50L829.14 -40L823.38 -50H834.9ZM829.1 -44.58L830.91 -47.72H827.29L829.1 -44.58ZM850.31 -50L836.86 -26.65L831.76 -35.49L840.1 -50H850.31ZM836.86 -31.21L846.4 -47.72H841.4L834.34 -35.49L836.86 -31.21ZM695.94 -50L688.87 -37.75H645.17L640.1 -46.6H683.77L685.77 -50H695.94ZM687.56 -40L691.99 -47.69H687.1L685.1 -44.29H644.01L646.48 -40H687.56ZM711.38 -50L696.59 -24.38H652.89L647.78 -33.22H691.49L701.17 -50H711.38ZM695.28 -26.66L707.43 -47.72H702.49L692.8 -30.9H651.73L654.2 -26.66H695.28ZM865.79 -50L844.58 -13.27L839.47 -22.12L855.57 -50H865.79ZM844.58 -17.84L861.84 -47.72H856.84L842.1 -22.12L844.58 -17.84ZM726.82 273.2H715.3L721.06 263.2L726.82 273.2ZM719.25 270.92H722.87L721.1 267.77L719.25 270.92ZM915.25 -15.61V2.1L901.25 -22.09L906.35 -30.93L915.25 -15.61ZM912.97 -6.44V-15L906.39 -26.4L903.92 -22.12L912.97 -6.44ZM915.25 -46.31V-24.67L909.01 -35.49L915.25 -46.31ZM912.97 -33.18V-37.79L911.64 -35.49L912.97 -33.18ZM915.25 37.87V55.56L907.65 42.48H863.94L869.1 33.63H912.81L915.25 37.87ZM912.92 47.1V38.53L911.44 35.96H870.36L867.89 40.25H908.97L912.92 47.1ZM865.1 31.37L843.27 69.22H799.57L794.46 60.38H838.17L860.02 22.53L865.1 31.37ZM841.96 66.94L862.49 31.37L860.02 27.1L839.48 62.66H798.41L800.88 66.94H841.96ZM787.96 4.63L782.85 13.47L760.97 -24.38H717.26L722.37 -33.22H766.1L787.96 4.63ZM782.85 8.91L785.32 4.63L764.76 -30.9H723.68L721.21 -26.62H762.28L782.85 8.91ZM795.68 -8.75L790.54 0.0999985L768.69 -37.75H724.98L730.1 -46.6H773.8L795.68 -8.75ZM790.57 -4.46L793.04 -8.75L772.48 -44.32H731.4L728.93 -40.03H770L790.57 -4.46ZM811.1 -8.75L789.23 29.1H779.02L800.87 -8.76L779.02 -46.6H789.23L811.1 -8.75ZM787.92 26.82L808.45 -8.75L787.92 -44.32H782.97L803.51 -8.75L782.97 26.82H787.92ZM693.98 6.89L688.87 15.73H645.17L635 -1.9V-19.57L650.27 6.89H693.98ZM687.56 13.45L690.03 9.17H648.96L637.28 -11.05V-2.49L646.48 13.45H687.56ZM780.21 18L775.1 26.84L753.25 -11.01H709.54L714.65 -19.85H758.35L780.21 18ZM775.1 22.28L777.57 18L757.04 -17.57H715.96L713.49 -13.29H754.56L775.1 22.28ZM826.53 -8.72L804.67 29.1H794.46L816.32 -8.76L794.46 -46.6H804.67L826.53 -8.72ZM803.36 26.82L823.89 -8.75L803.36 -44.32H798.41L818.95 -8.75L798.41 26.82H803.36ZM686.26 20.26L681.15 29.1H637.45L635 24.86V7.18L642.55 20.26H686.26ZM679.84 26.82L682.31 22.54H641.23L637.28 15.69V24.25L638.76 26.82H679.84ZM894.7 -46.6L872.85 -8.75L894.7 29.1H884.49L862.63 -8.75L884.49 -46.6H894.7ZM870.21 -8.75L890.75 -44.32H885.81L865.27 -8.75L885.81 26.82H890.75L870.21 -8.75ZM910.1 29.1H899.93L878.1 -8.75L899.93 -46.6H910.1L888.29 -8.75L910.1 29.1ZM897.63 -29.5L906.19 -44.32H901.25L880.71 -8.75L901.25 26.82H906.19L885.65 -8.75L897.63 -29.5ZM841.97 -8.75L820.1 29.1H809.9L831.76 -8.76L809.9 -46.6H820.1L841.97 -8.75ZM818.8 26.82L839.33 -8.75L818.8 -44.32H813.85L834.39 -8.75L813.85 26.82H818.8ZM879.26 -46.6L857.41 -8.75L879.26 29.1H869.1L847.2 -8.75L869.1 -46.6H879.26ZM854.77 -8.75L875.31 -44.32H870.31L849.83 -8.75L870.36 26.82H875.36L854.77 -8.75ZM641.24 258.69L635 269.5V247.86L641.24 258.69ZM637.24 260.99L638.57 258.69L637.24 256.38V260.99ZM648.96 245.31L643.86 254.16L635 238.81V221.1L648.96 245.31ZM644.43 248.6L646.33 245.31L637.33 229.63V238.2L643.91 249.6L644.43 248.6ZM656.68 231.94L651.58 240.79L635 212.1V194.38L656.68 231.94ZM651.58 236.22L654.1 231.94L637.33 202.89V211.46L651.58 236.22ZM686.26 180.72L681.15 189.56H637.45L635 185.32V167.64L642.55 180.72H686.26ZM679.84 187.28L682.31 183H641.23L637.28 176.15V184.71L638.76 187.28H679.84ZM718.45 258.69L710.1 273.2H699.86L713.34 249.84L718.45 258.69ZM708.75 270.92L715.81 258.69L713.34 254.4L703.81 270.92H708.75ZM710.75 245.31L694.63 273.2H684.41L705.62 236.47L710.75 245.31ZM693.31 270.92L708.1 245.31L705.63 241.03L688.37 270.92H693.31ZM648.96 84.85L643.86 93.7L635 78.35V60.66L648.96 84.85ZM644.43 88.1L646.33 84.81L637.33 69.14V77.7L643.86 89.1L644.43 88.1ZM693.98 167.31L688.87 176.15H645.17L635 158.58V140.89L650.27 167.35L693.98 167.31ZM687.56 173.87L690.03 169.59H648.96L637.28 149.4V157.97L646.48 173.91L687.56 173.87ZM656.68 71.48L651.58 80.33L635 51.61V33.92L656.68 71.48ZM651.58 75.77L654.1 71.48L637.33 42.48V51L651.58 75.77ZM641.24 98.23L635 109.1V87.41L641.24 98.23ZM637.24 100.53L638.57 98.23L637.24 95.92V100.53ZM701.7 153.98L696.59 162.82H652.89L635 131.82V114.15L658 153.98H701.7ZM695.28 160.54L697.75 156.26H656.67L637.28 122.66V131.23L654.2 160.54H695.28Z" fill="#D1CF9C" fill-opacity="0.26"/>
<path d="M-96.26 162.82H-139.97L-161.82 200.67L-166.9 191.83L-145.04 153.98H-101.34L-96.26 162.82ZM-161.82 196.1L-141.28 160.53H-100.21L-102.68 156.25H-143.76L-164.29 191.83L-161.82 196.1ZM-64.07 165.1L-69.18 173.95L-91.03 136.1H-134.74L-129.63 127.25H-85.9L-64.07 165.1ZM-69.18 169.39L-66.71 165.1L-87.24 129.51H-128.32L-130.79 133.8H-89.72L-69.18 169.39ZM-40.9 151.71L-62.76 189.56H-72.98L-51.13 151.71L-72.98 113.86H-62.77L-40.9 151.71ZM-64.07 187.28L-43.54 151.71L-64.08 116.1H-69.03L-48.49 151.67L-69.03 187.24L-64.07 187.28ZM-56.34 151.71L-61.45 160.56L-83.31 122.71H-127.02L-121.9 113.86H-78.2L-56.34 151.71ZM-61.45 155.99L-58.98 151.71L-79.52 116.1H-120.6L-123.07 120.38H-82L-61.45 155.99ZM-11.33 73.75L-16.44 82.59H-60.14L-82.01 44.74L-76.9 35.9L-55.05 73.75H-11.33ZM-17.75 80.31L-15.28 76.03H-56.36L-76.9 40.46L-79.37 44.74L-58.83 80.31H-17.75ZM-25.46 151.71L-47.32 189.56H-57.54L-35.68 151.71L-57.54 113.86H-47.33L-25.46 151.71ZM-48.63 187.28L-28.1 151.71L-48.64 116.1H-53.59L-33.05 151.67L-53.59 187.24L-48.63 187.28ZM-10.02 151.71L-31.9 189.56H-42.1L-20.24 151.71L-42.1 113.86H-31.9L-10.02 151.71ZM-33.2 187.28L-12.67 151.71L-33.2 116.1H-38.15L-17.61 151.67L-38.15 187.24L-33.2 187.28ZM-2.31 165.1L-24.17 202.96H-67.9L-72.98 194.1H-29.27L-7.42 156.25L-2.31 165.1ZM-25.48 200.67L-4.89999 165.1L-7.37 160.82L-27.9 196.37H-69.03L-66.56 200.65L-25.48 200.67ZM-80.82 189.58H-124.53L-146.38 227.41L-151.49 218.57L-129.63 180.72H-85.9L-80.82 189.58ZM-146.38 222.85L-125.84 187.28H-84.77L-87.24 183H-128.32L-148.85 218.57L-146.38 222.85ZM5.41 178.46L-16.45 216.31H-60.15L-65.26 207.46H-21.55L0.300003 169.61L5.41 178.46ZM-17.76 214.03L2.77 178.46L0.300003 174.17L-20.23 209.74H-61.31L-58.84 214.03H-17.76ZM-88.54 176.19H-132.25L-154.1 214.04L-159.21 205.2L-137.35 167.35H-93.65L-88.54 176.19ZM-154.1 209.48L-133.56 173.91H-92.49L-94.96 169.63H-136.04L-156.57 205.2L-154.1 209.48ZM-164.43 231.94L-186.29 269.79H-196.5L-174.65 231.94L-196.5 194.1H-186.29L-164.43 231.94ZM-187.6 267.51L-167.07 231.94L-187.6 196.37H-192.6L-172.06 231.94L-192.55 267.51H-187.6ZM-19.06 247.58L-24.17 256.42H-67.9L-89.76 218.57L-84.65 209.73L-62.8 247.58H-19.06ZM-25.48 254.1L-23.01 249.82H-64.08L-84.62 214.25L-87.09 218.53L-66.55 254.1H-25.48ZM13.1 191.83L-8.75999 229.68H-52.46L-57.57 220.83H-13.86L7.99001 182.98L13.1 191.83ZM-10.04 227.4L10.49 191.83L8.02 187.55L-12.52 223.1H-53.59L-51.12 227.39L-10.04 227.4ZM58.1 109.33H14.43L-7.42 147.18L-12.53 138.34L9.33 100.49H53.03L58.1 109.33ZM-7.42 142.62L13.1 107.1H54.17L51.7 102.82H10.65L-9.89999 138.34L-7.42 142.62ZM58.1 189.56H47.93L26.1 151.71L47.95 113.86H58.1L36.29 151.71L58.1 189.56ZM45.59 130.96L54.19 116.1H49.25L28.71 151.71L49.25 187.28H54.19L33.65 151.71L45.59 130.96ZM-80.82 194.1L-102.67 231.95L-80.82 269.8H-91.03L-112.9 231.94L-91.03 194.1H-80.82ZM-105.31 231.94L-84.77 196.37H-89.72L-110.25 231.94L-89.72 267.51H-84.77L-105.31 231.94ZM-179.88 231.94L-201.73 269.79H-211.9L-190.05 231.94L-211.9 194.1H-201.73L-179.88 231.94ZM-203.04 267.51L-182.51 231.94L-203.04 196.37H-207.99L-187.45 231.94L-207.99 267.51H-203.04ZM-148.99 231.94L-170.85 269.79H-181.06L-159.21 231.94L-181.06 194.1H-170.85L-148.99 231.94ZM-172.17 267.51L-151.63 231.94L-172.17 196.37H-177.11L-156.57 231.94L-177.11 267.51H-172.17ZM-111.7 194.1L-133.55 231.94L-111.7 269.79H-121.9L-143.77 231.94L-121.9 194.1H-111.7ZM-136.19 231.94L-115.65 196.37H-120.65L-141.13 231.94L-120.6 267.51H-115.6L-136.19 231.94ZM-96.26 269.79H-106.47L-128.33 231.94L-106.47 194.1H-96.26L-118.11 231.94L-96.26 269.79ZM-120.75 231.94L-100.21 196.37H-105.21L-125.69 231.94L-105.16 267.51H-100.16L-120.75 231.94ZM-71.75 178.46L-76.9 187.3L-98.75 149.45H-142.46L-137.35 140.61H-93.65L-71.75 178.46ZM-76.9 182.74L-74.43 178.46L-94.96 142.89H-136.04L-138.51 147.17H-97.44L-76.9 182.74ZM-96.26 2.36H-139.97L-161.82 40.21L-166.9 31.37L-145.07 -6.48H-101.37L-96.26 2.36ZM-161.82 35.65L-141.28 0.0999985H-100.21L-102.68 -4.18H-143.76L-164.29 31.37L-161.82 35.65ZM42.7 113.86L20.85 151.71L42.7 189.56H32.49L10.63 151.71L32.49 113.86H42.7ZM33.81 187.28H38.75L18.21 151.71L38.75 116.1H33.81L13.27 151.71L33.81 187.28ZM5.41 18L-16.45 55.85H-60.15L-65.26 47H-21.55L0.300003 9.15L5.41 18ZM-17.76 53.57L2.77 18L0.300003 13.72L-20.23 49.28H-61.31L-58.84 53.57H-17.76ZM-133.55 98.23L-155.41 136.1H-199.11L-204.22 127.25H-160.51L-138.66 89.38L-133.55 98.23ZM-156.72 133.8L-136.19 98.23L-138.66 93.94L-159.2 129.51H-200.27L-197.8 133.8H-156.72ZM-80.82 29.1H-124.53L-146.38 66.96L-151.49 58.1L-129.63 20.26H-85.9L-80.82 29.1ZM-146.38 62.39L-125.84 26.82H-84.77L-87.24 22.54H-128.32L-148.85 58.1L-146.38 62.39ZM-88.54 15.73H-132.25L-154.1 53.58L-159.21 44.74L-137.35 6.89H-93.65L-88.54 15.73ZM-154.1 49.02L-133.56 13.45H-92.49L-94.96 9.17H-136.04L-156.57 44.74L-154.1 49.02ZM42.7 82.59H-1.00999L-22.9 120.44L-28 111.6L-6.14999 73.75H37.55L42.7 82.59ZM-22.9 115.88L-2.36 80.31H38.71L36.24 76.03H-4.79999L-25.33 111.6L-22.9 115.88ZM-150.3 -6.48L-155.41 2.36H-199.11L-217 -28.64V-46.31L-194 -6.48H-150.3ZM-156.72 0.0999985L-154.25 -4.18H-195.33L-214.72 -37.8V-29.23L-197.8 0.0999985H-156.72ZM50.42 95.96H6.71001L-15.14 133.81L-20.24 124.97L1.61 87.1H45.31L50.42 95.96ZM-15.14 129.25L5.40001 93.68H46.47L44 89.4H2.93001L-17.61 124.97L-15.14 129.25ZM-11.34 234.25L-16.45 243.1H-60.15L-82.01 205.2L-76.9 196.35L-55.05 234.21L-11.34 234.25ZM-17.76 240.81L-15.29 236.53H-56.36L-76.9 200.92L-79.37 205.2L-58.83 240.77L-17.76 240.81ZM-125.83 111.6L-147.69 149.45H-191.39L-196.5 140.61H-152.79L-130.9 102.75L-125.83 111.6ZM-149 147.17L-128.47 111.6L-130.9 107.32L-151.48 142.89H-192.55L-190.08 147.17H-149ZM-2.31 4.63L-24.17 42.48H-67.9L-73.01 33.63H-29.3L-7.45 -4.22L-2.31 4.63ZM-25.48 40.2L-4.89999 4.63L-7.37 0.34L-27.9 35.91H-69.03L-66.55 40.2H-25.48ZM-164.43 71.48L-186.29 109.33H-196.5L-174.65 71.48L-196.5 33.63H-186.29L-164.43 71.48ZM-187.6 107.1L-167.07 71.48L-187.6 35.91H-192.6L-172.01 71.48L-192.55 107.1H-187.6ZM-179.9 71.48L-201.73 109.33H-211.9L-190.09 71.48L-211.9 33.63H-201.73L-179.9 71.48ZM-203.04 107.1L-182.51 71.48L-203.04 35.91H-207.99L-187.45 71.48L-207.99 107.1H-203.04ZM-19.06 87.1L-24.17 95.94H-67.9L-89.73 58.1L-84.62 49.26L-62.77 87.1H-19.06ZM-25.48 93.66L-23.01 89.38H-64.08L-84.62 53.83L-87.09 58.1L-66.55 93.67L-25.48 93.66ZM27.26 113.84L5.41 151.71L27.26 189.56H17.1L-4.79999 151.71L17.1 113.86L27.26 113.84ZM18.36 187.26H23.36L2.77 151.71L23.31 116.1H18.31L-2.17 151.71L18.36 187.26ZM-148.99 71.48L-170.85 109.33H-181.06L-159.21 71.48L-181.06 33.63H-170.85L-148.99 71.48ZM-172.17 107.1L-151.63 71.48L-172.17 35.91H-177.11L-156.57 71.48L-177.11 107.1H-172.17ZM-141.27 84.91L-163.13 122.71H-206.83L-211.9 113.86H-168.23L-146.38 76.01L-141.27 84.91ZM-164.44 120.42L-143.9 84.86L-146.37 80.57L-166.9 116.1H-207.99L-205.52 120.38L-164.44 120.42ZM-111.7 33.63L-133.55 71.48L-111.7 109.33H-121.9L-143.77 71.48L-121.9 33.63H-111.7ZM-136.19 71.48L-115.65 35.91H-120.65L-141.13 71.48L-120.6 107.1H-115.6L-136.19 71.48ZM-80.82 33.63L-102.67 71.48L-80.82 109.33H-91.03L-112.9 71.48L-91.04 33.63H-80.82ZM-92.9 50.1L-84.72 35.93H-89.67L-110.25 71.48L-89.72 107.1H-84.77L-105.31 71.48L-92.9 50.1ZM-26.73 100.51L-31.9 109.33H-75.6L-97.44 71.48L-92.34 62.64L-70.49 100.49L-26.73 100.51ZM-33.2 107.1L-30.73 102.82H-71.8L-92.34 67.2L-94.81 71.48L-74.28 107.1H-33.2ZM-96.26 109.38H-106.47L-128.33 71.48L-106.47 33.63H-96.26L-118.11 71.48L-96.26 109.38ZM-120.75 71.48L-100.21 35.91H-105.21L-125.69 71.48L-105.16 107.1H-100.16L-120.75 71.48ZM-26.75 260.95L-31.9 269.79H-75.6L-97.45 231.94L-92.35 223.1L-70.5 260.95H-26.75ZM-33.17 267.51L-30.7 263.23H-71.8L-92.34 227.66L-94.81 231.94L-74.28 267.51H-33.17ZM63.23 198.33V216.02L55.68 202.94H11.94L17.1 194.1H60.81L63.23 198.33ZM60.95 207.51V198.94L59.47 196.37H18.36L15.89 200.65H56.97L60.95 207.51ZM63.23 171.59V189.28L41.52 151.71L46.62 142.87L63.23 171.59ZM60.95 180.76V172.2L46.65 147.43L44.18 151.71L60.95 180.76ZM63.23 144.84V162.53L49.23 138.34L54.33 129.5L63.23 144.84ZM60.95 154.02V145.46L54.34 134.1L51.87 138.38L60.95 154.02ZM63.23 91.36V109.1L61 105.19L40.21 69.22H-3.5L1.61 60.38H45.31L63.23 91.36ZM60.95 100.53V91.97L44 62.66H2.93001L0.450012 66.94H41.52L60.95 100.53ZM63.23 114.15V135.79L56.99 124.97L63.23 114.15ZM60.95 127.28V122.66L59.62 124.97L60.95 127.28ZM63.23 64.61V82.3L47.93 55.85H4.22L9.33 47H53.03L63.23 64.61ZM60.95 73.79V65.23L51.75 49.28H10.65L8.17001 53.57H49.25L60.95 73.79ZM50.45 256.42H6.71001L-2.97 273.2H-13.18L1.61 247.58H45.31L50.45 256.42ZM-4.25999 270.92L5.40001 254.1H46.47L44 249.82H2.93001L-9.23 270.88L-4.25999 270.92ZM42.74 243.05H-1.00999L-18.41 273.2H-28.62L-6.11 234.2H37.59L42.74 243.05ZM-19.69 270.92L-2.28 240.77H38.79L36.32 236.49H-4.79999L-24.67 270.92H-19.69ZM63.2 225.1V242.79L47.93 216.34H4.22L9.33 207.49H53.03L63.2 225.1ZM60.92 234.28V225.71L51.72 209.77H10.65L8.17001 214.06H49.25L60.92 234.28ZM58.1 269.79H14.43L12.43 273.2H2.26001L9.33 260.95H53.03L58.1 269.79ZM11.1 270.92L13.1 267.51H54.17L51.7 263.23H10.65L6.21001 270.92H11.1ZM63.15 251.82V269.55L60.92 265.63L40.16 229.68H-3.5L1.61 220.83H45.31L63.15 251.82ZM60.87 260.99V252.43L44 223.1H2.93001L0.450012 227.39H41.52L60.87 260.99ZM63.2 11.1V28.79L41.52 -8.75L46.62 -17.59L63.2 11.1ZM60.92 20.27V11.71L46.62 -13.06L44.15 -8.78L60.92 20.27ZM-125.18 -50L-147.69 -11H-191.39L-196.5 -19.85H-152.79L-135.39 -50H-125.18ZM-149 -13.29L-129.13 -47.72H-134.07L-151.48 -17.57H-192.55L-190.08 -13.29H-149ZM-17.1 -50L-22.86 -40L-28.62 -50H-17.1ZM-22.9 -44.58L-21.09 -47.72H-24.71L-22.9 -44.58ZM-1.68999 -50L-15.14 -26.65L-20.24 -35.49L-11.9 -50H-1.68999ZM-15.14 -31.21L-5.59999 -47.72H-10.6L-17.66 -35.49L-15.14 -31.21ZM-156.06 -50L-163.13 -37.75H-206.83L-211.9 -46.6H-168.23L-166.23 -50H-156.06ZM-164.44 -40L-160.01 -47.69H-164.9L-166.9 -44.29H-207.99L-205.52 -40H-164.44ZM-140.62 -50L-155.41 -24.38H-199.11L-204.22 -33.22H-160.51L-150.83 -50H-140.62ZM-156.72 -26.66L-144.57 -47.72H-149.51L-159.2 -30.9H-200.27L-197.8 -26.66H-156.72ZM13.79 -50L-7.42 -13.27L-12.53 -22.12L3.57001 -50H13.79ZM-7.42 -17.84L9.84001 -47.72H4.84001L-9.89999 -22.12L-7.42 -17.84ZM-125.18 273.2H-136.7L-130.94 263.2L-125.18 273.2ZM-132.75 270.92H-129.13L-130.9 267.77L-132.75 270.92ZM63.25 -15.61V2.1L49.25 -22.09L54.35 -30.93L63.25 -15.61ZM60.97 -6.44V-15L54.39 -26.4L51.92 -22.12L60.97 -6.44ZM63.25 -46.31V-24.67L57.01 -35.49L63.25 -46.31ZM60.97 -33.18V-37.79L59.64 -35.49L60.97 -33.18ZM63.25 37.87V55.56L55.65 42.48H11.94L17.1 33.63H60.81L63.25 37.87ZM60.92 47.1V38.53L59.44 35.96H18.36L15.89 40.25H56.97L60.92 47.1ZM13.1 31.37L-8.73 69.22H-52.43L-57.54 60.38H-13.83L8.02 22.53L13.1 31.37ZM-10.04 66.94L10.49 31.37L8.02 27.1L-12.52 62.66H-53.59L-51.12 66.94H-10.04ZM-64.04 4.63L-69.15 13.47L-91.03 -24.38H-134.74L-129.63 -33.22H-85.9L-64.04 4.63ZM-69.15 8.91L-66.68 4.63L-87.24 -30.9H-128.32L-130.79 -26.62H-89.72L-69.15 8.91ZM-56.32 -8.75L-61.46 0.0999985L-83.31 -37.75H-127.02L-121.9 -46.6H-78.2L-56.32 -8.75ZM-61.43 -4.46L-58.96 -8.75L-79.52 -44.32H-120.6L-123.07 -40.03H-82L-61.43 -4.46ZM-40.9 -8.75L-62.77 29.1H-72.98L-51.13 -8.76L-72.98 -46.6H-62.77L-40.9 -8.75ZM-64.08 26.82L-43.55 -8.75L-64.08 -44.32H-69.03L-48.49 -8.75L-69.03 26.82H-64.08ZM-158.02 6.89L-163.13 15.73H-206.83L-217 -1.9V-19.57L-201.73 6.89H-158.02ZM-164.44 13.45L-161.97 9.17H-203.04L-214.72 -11.05V-2.49L-205.52 13.45H-164.44ZM-71.79 18L-76.9 26.84L-98.75 -11.01H-142.46L-137.35 -19.85H-93.65L-71.79 18ZM-76.9 22.28L-74.43 18L-94.96 -17.57H-136.04L-138.51 -13.29H-97.44L-76.9 22.28ZM-25.47 -8.72L-47.33 29.1H-57.54L-35.68 -8.76L-57.54 -46.6H-47.33L-25.47 -8.72ZM-48.64 26.82L-28.11 -8.75L-48.64 -44.32H-53.59L-33.05 -8.75L-53.59 26.82H-48.64ZM-165.74 20.26L-170.85 29.1H-214.55L-217 24.86V7.18L-209.45 20.26H-165.74ZM-172.16 26.82L-169.69 22.54H-210.77L-214.72 15.69V24.25L-213.24 26.82H-172.16ZM42.7 -46.6L20.85 -8.75L42.7 29.1H32.49L10.63 -8.75L32.49 -46.6H42.7ZM18.21 -8.75L38.75 -44.32H33.81L13.27 -8.75L33.81 26.82H38.75L18.21 -8.75ZM58.1 29.1H47.93L26.1 -8.75L47.93 -46.6H58.1L36.29 -8.75L58.1 29.1ZM45.63 -29.5L54.19 -44.32H49.25L28.71 -8.75L49.25 26.82H54.19L33.65 -8.75L45.63 -29.5ZM-10.03 -8.75L-31.9 29.1H-42.1L-20.24 -8.76L-42.1 -46.6H-31.9L-10.03 -8.75ZM-33.2 26.82L-12.67 -8.75L-33.2 -44.32H-38.15L-17.61 -8.75L-38.15 26.82H-33.2ZM27.26 -46.6L5.41 -8.75L27.26 29.1H17.1L-4.79999 -8.75L17.1 -46.6H27.26ZM2.77 -8.75L23.31 -44.32H18.31L-2.17 -8.75L18.36 26.82H23.36L2.77 -8.75ZM-210.76 258.69L-217 269.5V247.86L-210.76 258.69ZM-214.76 260.99L-213.43 258.69L-214.76 256.38V260.99ZM-203.04 245.31L-208.14 254.16L-217 238.81V221.1L-203.04 245.31ZM-207.57 248.6L-205.67 245.31L-214.67 229.63V238.2L-208.09 249.6L-207.57 248.6ZM-195.32 231.94L-200.42 240.79L-217 212.1V194.38L-195.32 231.94ZM-200.42 236.22L-197.9 231.94L-214.67 202.89V211.46L-200.42 236.22ZM-165.74 180.72L-170.85 189.56H-214.55L-217 185.32V167.64L-209.45 180.72H-165.74ZM-172.16 187.28L-169.69 183H-210.77L-214.72 176.15V184.71L-213.24 187.28H-172.16ZM-133.55 258.69L-141.9 273.2H-152.14L-138.66 249.84L-133.55 258.69ZM-143.25 270.92L-136.19 258.69L-138.66 254.4L-148.19 270.92H-143.25ZM-141.25 245.31L-157.37 273.2H-167.59L-146.38 236.47L-141.25 245.31ZM-158.69 270.92L-143.9 245.31L-146.37 241.03L-163.63 270.92H-158.69ZM-203.04 84.85L-208.14 93.7L-217 78.35V60.66L-203.04 84.85ZM-207.57 88.1L-205.67 84.81L-214.67 69.14V77.7L-208.14 89.1L-207.57 88.1ZM-158.02 167.31L-163.13 176.15H-206.83L-217 158.58V140.89L-201.73 167.35L-158.02 167.31ZM-164.44 173.87L-161.97 169.59H-203.04L-214.72 149.4V157.97L-205.52 173.91L-164.44 173.87ZM-195.32 71.48L-200.42 80.33L-217 51.61V33.92L-195.32 71.48ZM-200.42 75.77L-197.9 71.48L-214.67 42.48V51L-200.42 75.77ZM-210.76 98.23L-217 109.1V87.41L-210.76 98.23ZM-214.76 100.53L-213.43 98.23L-214.76 95.92V100.53ZM-150.3 153.98L-155.41 162.82H-199.11L-217 131.82V114.15L-194 153.98H-150.3ZM-156.72 160.54L-154.25 156.26H-195.33L-214.72 122.66V131.23L-197.8 160.54H-156.72Z" fill="#D1CF9C" fill-opacity="0.26"/>
<path d="M471.74 162.82H428.03L406.18 200.67L401.1 191.83L422.96 153.98H466.66L471.74 162.82ZM406.18 196.1L426.72 160.53H467.79L465.32 156.25H424.24L403.71 191.83L406.18 196.1ZM503.93 165.1L498.82 173.95L476.97 136.1H433.26L438.37 127.25H482.1L503.93 165.1ZM498.82 169.39L501.29 165.1L480.76 129.51H439.68L437.21 133.8H478.28L498.82 169.39ZM527.1 151.71L505.24 189.56H495.02L516.87 151.71L495.02 113.86H505.23L527.1 151.71ZM503.93 187.28L524.46 151.71L503.92 116.1H498.97L519.51 151.67L498.97 187.24L503.93 187.28ZM511.66 151.71L506.55 160.56L484.69 122.71H440.98L446.1 113.86H489.8L511.66 151.71ZM506.55 155.99L509.02 151.71L488.48 116.1H447.4L444.93 120.38H486L506.55 155.99ZM556.67 73.75L551.56 82.59H507.86L485.99 44.74L491.1 35.9L512.95 73.75H556.67ZM550.25 80.31L552.72 76.03H511.64L491.1 40.46L488.63 44.74L509.17 80.31H550.25ZM542.54 151.71L520.68 189.56H510.46L532.32 151.71L510.46 113.86H520.67L542.54 151.71ZM519.37 187.28L539.9 151.71L519.36 116.1H514.41L534.95 151.67L514.41 187.24L519.37 187.28ZM557.98 151.71L536.1 189.56H525.9L547.76 151.71L525.9 113.86H536.1L557.98 151.71ZM534.8 187.28L555.33 151.71L534.8 116.1H529.85L550.39 151.67L529.85 187.24L534.8 187.28ZM565.69 165.1L543.83 202.96H500.1L495.02 194.1H538.73L560.58 156.25L565.69 165.1ZM542.52 200.67L563.1 165.1L560.63 160.82L540.1 196.37H498.97L501.44 200.65L542.52 200.67ZM487.18 189.58H443.47L421.62 227.41L416.51 218.57L438.37 180.72H482.1L487.18 189.58ZM421.62 222.85L442.16 187.28H483.23L480.76 183H439.68L419.15 218.57L421.62 222.85ZM573.41 178.46L551.55 216.31H507.85L502.74 207.46H546.45L568.3 169.61L573.41 178.46ZM550.24 214.03L570.77 178.46L568.3 174.17L547.77 209.74H506.69L509.16 214.03H550.24ZM479.46 176.19H435.75L413.9 214.04L408.79 205.2L430.65 167.35H474.35L479.46 176.19ZM413.9 209.48L434.44 173.91H475.51L473.04 169.63H431.96L411.43 205.2L413.9 209.48ZM403.57 231.94L381.71 269.79H371.5L393.35 231.94L371.5 194.1H381.71L403.57 231.94ZM380.4 267.51L400.93 231.94L380.4 196.37H375.4L395.94 231.94L375.45 267.51H380.4ZM548.94 247.58L543.83 256.42H500.1L478.24 218.57L483.35 209.73L505.2 247.58H548.94ZM542.52 254.1L544.99 249.82H503.92L483.38 214.25L480.91 218.53L501.45 254.1H542.52ZM581.1 191.83L559.24 229.68H515.54L510.43 220.83H554.14L575.99 182.98L581.1 191.83ZM557.96 227.4L578.49 191.83L576.02 187.55L555.48 223.1H514.41L516.88 227.39L557.96 227.4ZM626.1 109.33H582.43L560.58 147.18L555.47 138.34L577.33 100.49H621.03L626.1 109.33ZM560.58 142.62L581.1 107.1H622.17L619.7 102.82H578.65L558.1 138.34L560.58 142.62ZM626.1 189.56H615.93L594.1 151.71L615.95 113.86H626.1L604.29 151.71L626.1 189.56ZM613.59 130.96L622.19 116.1H617.25L596.71 151.71L617.25 187.28H622.19L601.65 151.71L613.59 130.96ZM487.18 194.1L465.33 231.95L487.18 269.8H476.97L455.1 231.94L476.97 194.1H487.18ZM462.69 231.94L483.23 196.37H478.28L457.75 231.94L478.28 267.51H483.23L462.69 231.94ZM388.12 231.94L366.27 269.79H356.1L377.95 231.94L356.1 194.1H366.27L388.12 231.94ZM364.96 267.51L385.49 231.94L364.96 196.37H360.01L380.55 231.94L360.01 267.51H364.96ZM419.01 231.94L397.15 269.79H386.94L408.79 231.94L386.94 194.1H397.15L419.01 231.94ZM395.83 267.51L416.37 231.94L395.83 196.37H390.89L411.43 231.94L390.89 267.51H395.83ZM456.3 194.1L434.45 231.94L456.3 269.79H446.1L424.23 231.94L446.1 194.1H456.3ZM431.81 231.94L452.35 196.37H447.35L426.87 231.94L447.4 267.51H452.4L431.81 231.94ZM471.74 269.79H461.53L439.67 231.94L461.53 194.1H471.74L449.89 231.94L471.74 269.79ZM447.25 231.94L467.79 196.37H462.79L442.31 231.94L462.84 267.51H467.84L447.25 231.94ZM496.25 178.46L491.1 187.3L469.25 149.45H425.54L430.65 140.61H474.35L496.25 178.46ZM491.1 182.74L493.57 178.46L473.04 142.89H431.96L429.49 147.17H470.56L491.1 182.74ZM471.74 2.36H428.03L406.18 40.21L401.1 31.37L422.93 -6.48H466.63L471.74 2.36ZM406.18 35.65L426.72 0.0999985H467.79L465.32 -4.18H424.24L403.71 31.37L406.18 35.65ZM610.7 113.86L588.85 151.71L610.7 189.56H600.49L578.63 151.71L600.49 113.86H610.7ZM601.81 187.28H606.75L586.21 151.71L606.75 116.1H601.81L581.27 151.71L601.81 187.28ZM573.41 18L551.55 55.85H507.85L502.74 47H546.45L568.3 9.15L573.41 18ZM550.24 53.57L570.77 18L568.3 13.72L547.77 49.28H506.69L509.16 53.57H550.24ZM434.45 98.23L412.59 136.1H368.89L363.78 127.25H407.49L429.34 89.38L434.45 98.23ZM411.28 133.8L431.81 98.23L429.34 93.94L408.8 129.51H367.73L370.2 133.8H411.28ZM487.18 29.1H443.47L421.62 66.96L416.51 58.1L438.37 20.26H482.1L487.18 29.1ZM421.62 62.39L442.16 26.82H483.23L480.76 22.54H439.68L419.15 58.1L421.62 62.39ZM479.46 15.73H435.75L413.9 53.58L408.79 44.74L430.65 6.89H474.35L479.46 15.73ZM413.9 49.02L434.44 13.45H475.51L473.04 9.17H431.96L411.43 44.74L413.9 49.02ZM610.7 82.59H566.99L545.1 120.44L540 111.6L561.85 73.75H605.55L610.7 82.59ZM545.1 115.88L565.64 80.31H606.71L604.24 76.03H563.2L542.67 111.6L545.1 115.88ZM417.7 -6.48L412.59 2.36H368.89L351 -28.64V-46.31L374 -6.48H417.7ZM411.28 0.0999985L413.75 -4.18H372.67L353.28 -37.8V-29.23L370.2 0.0999985H411.28ZM618.42 95.96H574.71L552.86 133.81L547.76 124.97L569.61 87.1H613.31L618.42 95.96ZM552.86 129.25L573.4 93.68H614.47L612 89.4H570.93L550.39 124.97L552.86 129.25ZM556.66 234.25L551.55 243.1H507.85L485.99 205.2L491.1 196.35L512.95 234.21L556.66 234.25ZM550.24 240.81L552.71 236.53H511.64L491.1 200.92L488.63 205.2L509.17 240.77L550.24 240.81ZM442.17 111.6L420.31 149.45H376.61L371.5 140.61H415.21L437.1 102.75L442.17 111.6ZM419 147.17L439.53 111.6L437.1 107.32L416.52 142.89H375.45L377.92 147.17H419ZM565.69 4.63L543.83 42.48H500.1L494.99 33.63H538.7L560.55 -4.22L565.69 4.63ZM542.52 40.2L563.1 4.63L560.63 0.34L540.1 35.91H498.97L501.45 40.2H542.52ZM403.57 71.48L381.71 109.33H371.5L393.35 71.48L371.5 33.63H381.71L403.57 71.48ZM380.4 107.1L400.93 71.48L380.4 35.91H375.4L395.99 71.48L375.45 107.1H380.4ZM388.1 71.48L366.27 109.33H356.1L377.91 71.48L356.1 33.63H366.27L388.1 71.48ZM364.96 107.1L385.49 71.48L364.96 35.91H360.01L380.55 71.48L360.01 107.1H364.96ZM548.94 87.1L543.83 95.94H500.1L478.27 58.1L483.38 49.26L505.23 87.1H548.94ZM542.52 93.66L544.99 89.38H503.92L483.38 53.83L480.91 58.1L501.45 93.67L542.52 93.66ZM595.26 113.84L573.41 151.71L595.26 189.56H585.1L563.2 151.71L585.1 113.86L595.26 113.84ZM586.36 187.26H591.36L570.77 151.71L591.31 116.1H586.31L565.83 151.71L586.36 187.26ZM419.01 71.48L397.15 109.33H386.94L408.79 71.48L386.94 33.63H397.15L419.01 71.48ZM395.83 107.1L416.37 71.48L395.83 35.91H390.89L411.43 71.48L390.89 107.1H395.83ZM426.73 84.91L404.87 122.71H361.17L356.1 113.86H399.77L421.62 76.01L426.73 84.91ZM403.56 120.42L424.1 84.86L421.63 80.57L401.1 116.1H360.01L362.48 120.38L403.56 120.42ZM456.3 33.63L434.45 71.48L456.3 109.33H446.1L424.23 71.48L446.1 33.63H456.3ZM431.81 71.48L452.35 35.91H447.35L426.87 71.48L447.4 107.1H452.4L431.81 71.48ZM487.18 33.63L465.33 71.48L487.18 109.33H476.97L455.1 71.48L476.96 33.63H487.18ZM475.1 50.1L483.28 35.93H478.33L457.75 71.48L478.28 107.1H483.23L462.69 71.48L475.1 50.1ZM541.27 100.51L536.1 109.33H492.4L470.56 71.48L475.66 62.64L497.51 100.49L541.27 100.51ZM534.8 107.1L537.27 102.82H496.2L475.66 67.2L473.19 71.48L493.72 107.1H534.8ZM471.74 109.38H461.53L439.67 71.48L461.53 33.63H471.74L449.89 71.48L471.74 109.38ZM447.25 71.48L467.79 35.91H462.79L442.31 71.48L462.84 107.1H467.84L447.25 71.48ZM541.25 260.95L536.1 269.79H492.4L470.55 231.94L475.65 223.1L497.5 260.95H541.25ZM534.83 267.51L537.3 263.23H496.2L475.66 227.66L473.19 231.94L493.72 267.51H534.83ZM631.23 198.33V216.02L623.68 202.94H579.94L585.1 194.1H628.81L631.23 198.33ZM628.95 207.51V198.94L627.47 196.37H586.36L583.89 200.65H624.97L628.95 207.51ZM631.23 171.59V189.28L609.52 151.71L614.62 142.87L631.23 171.59ZM628.95 180.76V172.2L614.65 147.43L612.18 151.71L628.95 180.76ZM631.23 144.84V162.53L617.23 138.34L622.33 129.5L631.23 144.84ZM628.95 154.02V145.46L622.34 134.1L619.87 138.38L628.95 154.02ZM631.23 91.36V109.1L629 105.19L608.21 69.22H564.5L569.61 60.38H613.31L631.23 91.36ZM628.95 100.53V91.97L612 62.66H570.93L568.45 66.94H609.52L628.95 100.53ZM631.23 114.15V135.79L624.99 124.97L631.23 114.15ZM628.95 127.28V122.66L627.62 124.97L628.95 127.28ZM631.23 64.61V82.3L615.93 55.85H572.22L577.33 47H621.03L631.23 64.61ZM628.95 73.79V65.23L619.75 49.28H578.65L576.17 53.57H617.25L628.95 73.79ZM618.45 256.42H574.71L565.03 273.2H554.82L569.61 247.58H613.31L618.45 256.42ZM563.74 270.92L573.4 254.1H614.47L612 249.82H570.93L558.77 270.88L563.74 270.92ZM610.74 243.05H566.99L549.59 273.2H539.38L561.89 234.2H605.59L610.74 243.05ZM548.31 270.92L565.72 240.77H606.79L604.32 236.49H563.2L543.33 270.92H548.31ZM631.2 225.1V242.79L615.93 216.34H572.22L577.33 207.49H621.03L631.2 225.1ZM628.92 234.28V225.71L619.72 209.77H578.65L576.17 214.06H617.25L628.92 234.28ZM626.1 269.79H582.43L580.43 273.2H570.26L577.33 260.95H621.03L626.1 269.79ZM579.1 270.92L581.1 267.51H622.17L619.7 263.23H578.65L574.21 270.92H579.1ZM631.15 251.82V269.55L628.92 265.63L608.16 229.68H564.5L569.61 220.83H613.31L631.15 251.82ZM628.87 260.99V252.43L612 223.1H570.93L568.45 227.39H609.52L628.87 260.99ZM631.2 11.1V28.79L609.52 -8.75L614.62 -17.59L631.2 11.1ZM628.92 20.27V11.71L614.62 -13.06L612.15 -8.78L628.92 20.27ZM442.82 -50L420.31 -11H376.61L371.5 -19.85H415.21L432.61 -50H442.82ZM419 -13.29L438.87 -47.72H433.93L416.52 -17.57H375.45L377.92 -13.29H419ZM550.9 -50L545.14 -40L539.38 -50H550.9ZM545.1 -44.58L546.91 -47.72H543.29L545.1 -44.58ZM566.31 -50L552.86 -26.65L547.76 -35.49L556.1 -50H566.31ZM552.86 -31.21L562.4 -47.72H557.4L550.34 -35.49L552.86 -31.21ZM411.94 -50L404.87 -37.75H361.17L356.1 -46.6H399.77L401.77 -50H411.94ZM403.56 -40L407.99 -47.69H403.1L401.1 -44.29H360.01L362.48 -40H403.56ZM427.38 -50L412.59 -24.38H368.89L363.78 -33.22H407.49L417.17 -50H427.38ZM411.28 -26.66L423.43 -47.72H418.49L408.8 -30.9H367.73L370.2 -26.66H411.28ZM581.79 -50L560.58 -13.27L555.47 -22.12L571.57 -50H581.79ZM560.58 -17.84L577.84 -47.72H572.84L558.1 -22.12L560.58 -17.84ZM442.82 273.2H431.3L437.06 263.2L442.82 273.2ZM435.25 270.92H438.87L437.1 267.77L435.25 270.92ZM631.25 -15.61V2.1L617.25 -22.09L622.35 -30.93L631.25 -15.61ZM628.97 -6.44V-15L622.39 -26.4L619.92 -22.12L628.97 -6.44ZM631.25 -46.31V-24.67L625.01 -35.49L631.25 -46.31ZM628.97 -33.18V-37.79L627.64 -35.49L628.97 -33.18ZM631.25 37.87V55.56L623.65 42.48H579.94L585.1 33.63H628.81L631.25 37.87ZM628.92 47.1V38.53L627.44 35.96H586.36L583.89 40.25H624.97L628.92 47.1ZM581.1 31.37L559.27 69.22H515.57L510.46 60.38H554.17L576.02 22.53L581.1 31.37ZM557.96 66.94L578.49 31.37L576.02 27.1L555.48 62.66H514.41L516.88 66.94H557.96ZM503.96 4.63L498.85 13.47L476.97 -24.38H433.26L438.37 -33.22H482.1L503.96 4.63ZM498.85 8.91L501.32 4.63L480.76 -30.9H439.68L437.21 -26.62H478.28L498.85 8.91ZM511.68 -8.75L506.54 0.0999985L484.69 -37.75H440.98L446.1 -46.6H489.8L511.68 -8.75ZM506.57 -4.46L509.04 -8.75L488.48 -44.32H447.4L444.93 -40.03H486L506.57 -4.46ZM527.1 -8.75L505.23 29.1H495.02L516.87 -8.76L495.02 -46.6H505.23L527.1 -8.75ZM503.92 26.82L524.45 -8.75L503.92 -44.32H498.97L519.51 -8.75L498.97 26.82H503.92ZM409.98 6.89L404.87 15.73H361.17L351 -1.9V-19.57L366.27 6.89H409.98ZM403.56 13.45L406.03 9.17H364.96L353.28 -11.05V-2.49L362.48 13.45H403.56ZM496.21 18L491.1 26.84L469.25 -11.01H425.54L430.65 -19.85H474.35L496.21 18ZM491.1 22.28L493.57 18L473.04 -17.57H431.96L429.49 -13.29H470.56L491.1 22.28ZM542.53 -8.72L520.67 29.1H510.46L532.32 -8.76L510.46 -46.6H520.67L542.53 -8.72ZM519.36 26.82L539.89 -8.75L519.36 -44.32H514.41L534.95 -8.75L514.41 26.82H519.36ZM402.26 20.26L397.15 29.1H353.45L351 24.86V7.18L358.55 20.26H402.26ZM395.84 26.82L398.31 22.54H357.23L353.28 15.69V24.25L354.76 26.82H395.84ZM610.7 -46.6L588.85 -8.75L610.7 29.1H600.49L578.63 -8.75L600.49 -46.6H610.7ZM586.21 -8.75L606.75 -44.32H601.81L581.27 -8.75L601.81 26.82H606.75L586.21 -8.75ZM626.1 29.1H615.93L594.1 -8.75L615.93 -46.6H626.1L604.29 -8.75L626.1 29.1ZM613.63 -29.5L622.19 -44.32H617.25L596.71 -8.75L617.25 26.82H622.19L601.65 -8.75L613.63 -29.5ZM557.97 -8.75L536.1 29.1H525.9L547.76 -8.76L525.9 -46.6H536.1L557.97 -8.75ZM534.8 26.82L555.33 -8.75L534.8 -44.32H529.85L550.39 -8.75L529.85 26.82H534.8ZM595.26 -46.6L573.41 -8.75L595.26 29.1H585.1L563.2 -8.75L585.1 -46.6H595.26ZM570.77 -8.75L591.31 -44.32H586.31L565.83 -8.75L586.36 26.82H591.36L570.77 -8.75ZM357.24 258.69L351 269.5V247.86L357.24 258.69ZM353.24 260.99L354.57 258.69L353.24 256.38V260.99ZM364.96 245.31L359.86 254.16L351 238.81V221.1L364.96 245.31ZM360.43 248.6L362.33 245.31L353.33 229.63V238.2L359.91 249.6L360.43 248.6ZM372.68 231.94L367.58 240.79L351 212.1V194.38L372.68 231.94ZM367.58 236.22L370.1 231.94L353.33 202.89V211.46L367.58 236.22ZM402.26 180.72L397.15 189.56H353.45L351 185.32V167.64L358.55 180.72H402.26ZM395.84 187.28L398.31 183H357.23L353.28 176.15V184.71L354.76 187.28H395.84ZM434.45 258.69L426.1 273.2H415.86L429.34 249.84L434.45 258.69ZM424.75 270.92L431.81 258.69L429.34 254.4L419.81 270.92H424.75ZM426.75 245.31L410.63 273.2H400.41L421.62 236.47L426.75 245.31ZM409.31 270.92L424.1 245.31L421.63 241.03L404.37 270.92H409.31ZM364.96 84.85L359.86 93.7L351 78.35V60.66L364.96 84.85ZM360.43 88.1L362.33 84.81L353.33 69.14V77.7L359.86 89.1L360.43 88.1ZM409.98 167.31L404.87 176.15H361.17L351 158.58V140.89L366.27 167.35L409.98 167.31ZM403.56 173.87L406.03 169.59H364.96L353.28 149.4V157.97L362.48 173.91L403.56 173.87ZM372.68 71.48L367.58 80.33L351 51.61V33.92L372.68 71.48ZM367.58 75.77L370.1 71.48L353.33 42.48V51L367.58 75.77ZM357.24 98.23L351 109.1V87.41L357.24 98.23ZM353.24 100.53L354.57 98.23L353.24 95.92V100.53ZM417.7 153.98L412.59 162.82H368.89L351 131.82V114.15L374 153.98H417.7ZM411.28 160.54L413.75 156.26H372.67L353.28 122.66V131.23L370.2 160.54H411.28Z" fill="#D1CF9C" fill-opacity="0.26"/>
<path d="M1039.74 162.82H996.03L974.18 200.67L969.1 191.83L990.96 153.98H1034.66L1039.74 162.82ZM974.18 196.1L994.72 160.53H1035.79L1033.32 156.25H992.24L971.71 191.83L974.18 196.1ZM1071.93 165.1L1066.82 173.95L1044.97 136.1H1001.26L1006.37 127.25H1050.1L1071.93 165.1ZM1066.82 169.39L1069.29 165.1L1048.76 129.51H1007.68L1005.21 133.8H1046.28L1066.82 169.39ZM1095.1 151.71L1073.24 189.56H1063.02L1084.87 151.71L1063.02 113.86H1073.23L1095.1 151.71ZM1071.93 187.28L1092.46 151.71L1071.92 116.1H1066.97L1087.51 151.67L1066.97 187.24L1071.93 187.28ZM1079.66 151.71L1074.55 160.56L1052.69 122.71H1008.98L1014.1 113.86H1057.8L1079.66 151.71ZM1074.55 155.99L1077.02 151.71L1056.48 116.1H1015.4L1012.93 120.38H1054L1074.55 155.99ZM1124.67 73.75L1119.56 82.59H1075.86L1053.99 44.74L1059.1 35.9L1080.95 73.75H1124.67ZM1118.25 80.31L1120.72 76.03H1079.64L1059.1 40.46L1056.63 44.74L1077.17 80.31H1118.25ZM1110.54 151.71L1088.68 189.56H1078.46L1100.32 151.71L1078.46 113.86H1088.67L1110.54 151.71ZM1087.37 187.28L1107.9 151.71L1087.36 116.1H1082.41L1102.95 151.67L1082.41 187.24L1087.37 187.28ZM1125.98 151.71L1104.1 189.56H1093.9L1115.76 151.71L1093.9 113.86H1104.1L1125.98 151.71ZM1102.8 187.28L1123.33 151.71L1102.8 116.1H1097.85L1118.39 151.67L1097.85 187.24L1102.8 187.28ZM1133.69 165.1L1111.83 202.96H1068.1L1063.02 194.1H1106.73L1128.58 156.25L1133.69 165.1ZM1110.52 200.67L1131.1 165.1L1128.63 160.82L1108.1 196.37H1066.97L1069.44 200.65L1110.52 200.67ZM1055.18 189.58H1011.47L989.62 227.41L984.51 218.57L1006.37 180.72H1050.1L1055.18 189.58ZM989.62 222.85L1010.16 187.28H1051.23L1048.76 183H1007.68L987.15 218.57L989.62 222.85ZM1141.41 178.46L1119.55 216.31H1075.85L1070.74 207.46H1114.45L1136.3 169.61L1141.41 178.46ZM1118.24 214.03L1138.77 178.46L1136.3 174.17L1115.77 209.74H1074.69L1077.16 214.03H1118.24ZM1047.46 176.19H1003.75L981.9 214.04L976.79 205.2L998.65 167.35H1042.35L1047.46 176.19ZM981.9 209.48L1002.44 173.91H1043.51L1041.04 169.63H999.96L979.43 205.2L981.9 209.48ZM971.57 231.94L949.71 269.79H939.5L961.35 231.94L939.5 194.1H949.71L971.57 231.94ZM948.4 267.51L968.93 231.94L948.4 196.37H943.4L963.94 231.94L943.45 267.51H948.4ZM1116.94 247.58L1111.83 256.42H1068.1L1046.24 218.57L1051.35 209.73L1073.2 247.58H1116.94ZM1110.52 254.1L1112.99 249.82H1071.92L1051.38 214.25L1048.91 218.53L1069.45 254.1H1110.52ZM1149.1 191.83L1127.24 229.68H1083.54L1078.43 220.83H1122.14L1143.99 182.98L1149.1 191.83ZM1125.96 227.4L1146.49 191.83L1144.02 187.55L1123.48 223.1H1082.41L1084.88 227.39L1125.96 227.4ZM1194.1 109.33H1150.43L1128.58 147.18L1123.47 138.34L1145.33 100.49H1189.03L1194.1 109.33ZM1128.58 142.62L1149.1 107.1H1190.17L1187.7 102.82H1146.65L1126.1 138.34L1128.58 142.62ZM1194.1 189.56H1183.93L1162.1 151.71L1183.95 113.86H1194.1L1172.29 151.71L1194.1 189.56ZM1181.59 130.96L1190.19 116.1H1185.25L1164.71 151.71L1185.25 187.28H1190.19L1169.65 151.71L1181.59 130.96ZM1055.18 194.1L1033.33 231.95L1055.18 269.8H1044.97L1023.1 231.94L1044.97 194.1H1055.18ZM1030.69 231.94L1051.23 196.37H1046.28L1025.75 231.94L1046.28 267.51H1051.23L1030.69 231.94ZM956.12 231.94L934.27 269.79H924.1L945.95 231.94L924.1 194.1H934.27L956.12 231.94ZM932.96 267.51L953.49 231.94L932.96 196.37H928.01L948.55 231.94L928.01 267.51H932.96ZM987.01 231.94L965.15 269.79H954.94L976.79 231.94L954.94 194.1H965.15L987.01 231.94ZM963.83 267.51L984.37 231.94L963.83 196.37H958.89L979.43 231.94L958.89 267.51H963.83ZM1024.3 194.1L1002.45 231.94L1024.3 269.79H1014.1L992.23 231.94L1014.1 194.1H1024.3ZM999.81 231.94L1020.35 196.37H1015.35L994.87 231.94L1015.4 267.51H1020.4L999.81 231.94ZM1039.74 269.79H1029.53L1007.67 231.94L1029.53 194.1H1039.74L1017.89 231.94L1039.74 269.79ZM1015.25 231.94L1035.79 196.37H1030.79L1010.31 231.94L1030.84 267.51H1035.84L1015.25 231.94ZM1064.25 178.46L1059.1 187.3L1037.25 149.45H993.54L998.65 140.61H1042.35L1064.25 178.46ZM1059.1 182.74L1061.57 178.46L1041.04 142.89H999.96L997.49 147.17H1038.56L1059.1 182.74ZM1039.74 2.36H996.03L974.18 40.21L969.1 31.37L990.93 -6.48H1034.63L1039.74 2.36ZM974.18 35.65L994.72 0.0999985H1035.79L1033.32 -4.18H992.24L971.71 31.37L974.18 35.65ZM1178.7 113.86L1156.85 151.71L1178.7 189.56H1168.49L1146.63 151.71L1168.49 113.86H1178.7ZM1169.81 187.28H1174.75L1154.21 151.71L1174.75 116.1H1169.81L1149.27 151.71L1169.81 187.28ZM1141.41 18L1119.55 55.85H1075.85L1070.74 47H1114.45L1136.3 9.15L1141.41 18ZM1118.24 53.57L1138.77 18L1136.3 13.72L1115.77 49.28H1074.69L1077.16 53.57H1118.24ZM1002.45 98.23L980.59 136.1H936.89L931.78 127.25H975.49L997.34 89.38L1002.45 98.23ZM979.28 133.8L999.81 98.23L997.34 93.94L976.8 129.51H935.73L938.2 133.8H979.28ZM1055.18 29.1H1011.47L989.62 66.96L984.51 58.1L1006.37 20.26H1050.1L1055.18 29.1ZM989.62 62.39L1010.16 26.82H1051.23L1048.76 22.54H1007.68L987.15 58.1L989.62 62.39ZM1047.46 15.73H1003.75L981.9 53.58L976.79 44.74L998.65 6.89H1042.35L1047.46 15.73ZM981.9 49.02L1002.44 13.45H1043.51L1041.04 9.17H999.96L979.43 44.74L981.9 49.02ZM1178.7 82.59H1134.99L1113.1 120.44L1108 111.6L1129.85 73.75H1173.55L1178.7 82.59ZM1113.1 115.88L1133.64 80.31H1174.71L1172.24 76.03H1131.2L1110.67 111.6L1113.1 115.88ZM985.7 -6.48L980.59 2.36H936.89L919 -28.64V-46.31L942 -6.48H985.7ZM979.28 0.0999985L981.75 -4.18H940.67L921.28 -37.8V-29.23L938.2 0.0999985H979.28ZM1186.42 95.96H1142.71L1120.86 133.81L1115.76 124.97L1137.61 87.1H1181.31L1186.42 95.96ZM1120.86 129.25L1141.4 93.68H1182.47L1180 89.4H1138.93L1118.39 124.97L1120.86 129.25ZM1124.66 234.25L1119.55 243.1H1075.85L1053.99 205.2L1059.1 196.35L1080.95 234.21L1124.66 234.25ZM1118.24 240.81L1120.71 236.53H1079.64L1059.1 200.92L1056.63 205.2L1077.17 240.77L1118.24 240.81ZM1010.17 111.6L988.31 149.45H944.61L939.5 140.61H983.21L1005.1 102.75L1010.17 111.6ZM987 147.17L1007.53 111.6L1005.1 107.32L984.52 142.89H943.45L945.92 147.17H987ZM1133.69 4.63L1111.83 42.48H1068.1L1062.99 33.63H1106.7L1128.55 -4.22L1133.69 4.63ZM1110.52 40.2L1131.1 4.63L1128.63 0.34L1108.1 35.91H1066.97L1069.45 40.2H1110.52ZM971.57 71.48L949.71 109.33H939.5L961.35 71.48L939.5 33.63H949.71L971.57 71.48ZM948.4 107.1L968.93 71.48L948.4 35.91H943.4L963.99 71.48L943.45 107.1H948.4ZM956.1 71.48L934.27 109.33H924.1L945.91 71.48L924.1 33.63H934.27L956.1 71.48ZM932.96 107.1L953.49 71.48L932.96 35.91H928.01L948.55 71.48L928.01 107.1H932.96ZM1116.94 87.1L1111.83 95.94H1068.1L1046.27 58.1L1051.38 49.26L1073.23 87.1H1116.94ZM1110.52 93.66L1112.99 89.38H1071.92L1051.38 53.83L1048.91 58.1L1069.45 93.67L1110.52 93.66ZM1163.26 113.84L1141.41 151.71L1163.26 189.56H1153.1L1131.2 151.71L1153.1 113.86L1163.26 113.84ZM1154.36 187.26H1159.36L1138.77 151.71L1159.31 116.1H1154.31L1133.83 151.71L1154.36 187.26ZM987.01 71.48L965.15 109.33H954.94L976.79 71.48L954.94 33.63H965.15L987.01 71.48ZM963.83 107.1L984.37 71.48L963.83 35.91H958.89L979.43 71.48L958.89 107.1H963.83ZM994.73 84.91L972.87 122.71H929.17L924.1 113.86H967.77L989.62 76.01L994.73 84.91ZM971.56 120.42L992.1 84.86L989.63 80.57L969.1 116.1H928.01L930.48 120.38L971.56 120.42ZM1024.3 33.63L1002.45 71.48L1024.3 109.33H1014.1L992.23 71.48L1014.1 33.63H1024.3ZM999.81 71.48L1020.35 35.91H1015.35L994.87 71.48L1015.4 107.1H1020.4L999.81 71.48ZM1055.18 33.63L1033.33 71.48L1055.18 109.33H1044.97L1023.1 71.48L1044.96 33.63H1055.18ZM1043.1 50.1L1051.28 35.93H1046.33L1025.75 71.48L1046.28 107.1H1051.23L1030.69 71.48L1043.1 50.1ZM1109.27 100.51L1104.1 109.33H1060.4L1038.56 71.48L1043.66 62.64L1065.51 100.49L1109.27 100.51ZM1102.8 107.1L1105.27 102.82H1064.2L1043.66 67.2L1041.19 71.48L1061.72 107.1H1102.8ZM1039.74 109.38H1029.53L1007.67 71.48L1029.53 33.63H1039.74L1017.89 71.48L1039.74 109.38ZM1015.25 71.48L1035.79 35.91H1030.79L1010.31 71.48L1030.84 107.1H1035.84L1015.25 71.48ZM1109.25 260.95L1104.1 269.79H1060.4L1038.55 231.94L1043.65 223.1L1065.5 260.95H1109.25ZM1102.83 267.51L1105.3 263.23H1064.2L1043.66 227.66L1041.19 231.94L1061.72 267.51H1102.83ZM1199.23 198.33V216.02L1191.68 202.94H1147.94L1153.1 194.1H1196.81L1199.23 198.33ZM1196.95 207.51V198.94L1195.47 196.37H1154.36L1151.89 200.65H1192.97L1196.95 207.51ZM1199.23 171.59V189.28L1177.52 151.71L1182.62 142.87L1199.23 171.59ZM1196.95 180.76V172.2L1182.65 147.43L1180.18 151.71L1196.95 180.76ZM1199.23 144.84V162.53L1185.23 138.34L1190.33 129.5L1199.23 144.84ZM1196.95 154.02V145.46L1190.34 134.1L1187.87 138.38L1196.95 154.02ZM1199.23 91.36V109.1L1197 105.19L1176.21 69.22H1132.5L1137.61 60.38H1181.31L1199.23 91.36ZM1196.95 100.53V91.97L1180 62.66H1138.93L1136.45 66.94H1177.52L1196.95 100.53ZM1199.23 114.15V135.79L1192.99 124.97L1199.23 114.15ZM1196.95 127.28V122.66L1195.62 124.97L1196.95 127.28ZM1199.23 64.61V82.3L1183.93 55.85H1140.22L1145.33 47H1189.03L1199.23 64.61ZM1196.95 73.79V65.23L1187.75 49.28H1146.65L1144.17 53.57H1185.25L1196.95 73.79ZM1186.45 256.42H1142.71L1133.03 273.2H1122.82L1137.61 247.58H1181.31L1186.45 256.42ZM1131.74 270.92L1141.4 254.1H1182.47L1180 249.82H1138.93L1126.77 270.88L1131.74 270.92ZM1178.74 243.05H1134.99L1117.59 273.2H1107.38L1129.89 234.2H1173.59L1178.74 243.05ZM1116.31 270.92L1133.72 240.77H1174.79L1172.32 236.49H1131.2L1111.33 270.92H1116.31ZM1199.2 225.1V242.79L1183.93 216.34H1140.22L1145.33 207.49H1189.03L1199.2 225.1ZM1196.92 234.28V225.71L1187.72 209.77H1146.65L1144.17 214.06H1185.25L1196.92 234.28ZM1194.1 269.79H1150.43L1148.43 273.2H1138.26L1145.33 260.95H1189.03L1194.1 269.79ZM1147.1 270.92L1149.1 267.51H1190.17L1187.7 263.23H1146.65L1142.21 270.92H1147.1ZM1199.15 251.82V269.55L1196.92 265.63L1176.16 229.68H1132.5L1137.61 220.83H1181.31L1199.15 251.82ZM1196.87 260.99V252.43L1180 223.1H1138.93L1136.45 227.39H1177.52L1196.87 260.99ZM1199.2 11.1V28.79L1177.52 -8.75L1182.62 -17.59L1199.2 11.1ZM1196.92 20.27V11.71L1182.62 -13.06L1180.15 -8.78L1196.92 20.27ZM1010.82 -50L988.31 -11H944.61L939.5 -19.85H983.21L1000.61 -50H1010.82ZM987 -13.29L1006.87 -47.72H1001.93L984.52 -17.57H943.45L945.92 -13.29H987ZM1118.9 -50L1113.14 -40L1107.38 -50H1118.9ZM1113.1 -44.58L1114.91 -47.72H1111.29L1113.1 -44.58ZM1134.31 -50L1120.86 -26.65L1115.76 -35.49L1124.1 -50H1134.31ZM1120.86 -31.21L1130.4 -47.72H1125.4L1118.34 -35.49L1120.86 -31.21ZM979.94 -50L972.87 -37.75H929.17L924.1 -46.6H967.77L969.77 -50H979.94ZM971.56 -40L975.99 -47.69H971.1L969.1 -44.29H928.01L930.48 -40H971.56ZM995.38 -50L980.59 -24.38H936.89L931.78 -33.22H975.49L985.17 -50H995.38ZM979.28 -26.66L991.43 -47.72H986.49L976.8 -30.9H935.73L938.2 -26.66H979.28ZM1149.79 -50L1128.58 -13.27L1123.47 -22.12L1139.57 -50H1149.79ZM1128.58 -17.84L1145.84 -47.72H1140.84L1126.1 -22.12L1128.58 -17.84ZM1010.82 273.2H999.3L1005.06 263.2L1010.82 273.2ZM1003.25 270.92H1006.87L1005.1 267.77L1003.25 270.92ZM1199.25 -15.61V2.1L1185.25 -22.09L1190.35 -30.93L1199.25 -15.61ZM1196.97 -6.44V-15L1190.39 -26.4L1187.92 -22.12L1196.97 -6.44ZM1199.25 -46.31V-24.67L1193.01 -35.49L1199.25 -46.31ZM1196.97 -33.18V-37.79L1195.64 -35.49L1196.97 -33.18ZM1199.25 37.87V55.56L1191.65 42.48H1147.94L1153.1 33.63H1196.81L1199.25 37.87ZM1196.92 47.1V38.53L1195.44 35.96H1154.36L1151.89 40.25H1192.97L1196.92 47.1ZM1149.1 31.37L1127.27 69.22H1083.57L1078.46 60.38H1122.17L1144.02 22.53L1149.1 31.37ZM1125.96 66.94L1146.49 31.37L1144.02 27.1L1123.48 62.66H1082.41L1084.88 66.94H1125.96ZM1071.96 4.63L1066.85 13.47L1044.97 -24.38H1001.26L1006.37 -33.22H1050.1L1071.96 4.63ZM1066.85 8.91L1069.32 4.63L1048.76 -30.9H1007.68L1005.21 -26.62H1046.28L1066.85 8.91ZM1079.68 -8.75L1074.54 0.0999985L1052.69 -37.75H1008.98L1014.1 -46.6H1057.8L1079.68 -8.75ZM1074.57 -4.46L1077.04 -8.75L1056.48 -44.32H1015.4L1012.93 -40.03H1054L1074.57 -4.46ZM1095.1 -8.75L1073.23 29.1H1063.02L1084.87 -8.76L1063.02 -46.6H1073.23L1095.1 -8.75ZM1071.92 26.82L1092.45 -8.75L1071.92 -44.32H1066.97L1087.51 -8.75L1066.97 26.82H1071.92ZM977.98 6.89L972.87 15.73H929.17L919 -1.9V-19.57L934.27 6.89H977.98ZM971.56 13.45L974.03 9.17H932.96L921.28 -11.05V-2.49L930.48 13.45H971.56ZM1064.21 18L1059.1 26.84L1037.25 -11.01H993.54L998.65 -19.85H1042.35L1064.21 18ZM1059.1 22.28L1061.57 18L1041.04 -17.57H999.96L997.49 -13.29H1038.56L1059.1 22.28ZM1110.53 -8.72L1088.67 29.1H1078.46L1100.32 -8.76L1078.46 -46.6H1088.67L1110.53 -8.72ZM1087.36 26.82L1107.89 -8.75L1087.36 -44.32H1082.41L1102.95 -8.75L1082.41 26.82H1087.36ZM970.26 20.26L965.15 29.1H921.45L919 24.86V7.18L926.55 20.26H970.26ZM963.84 26.82L966.31 22.54H925.23L921.28 15.69V24.25L922.76 26.82H963.84ZM1178.7 -46.6L1156.85 -8.75L1178.7 29.1H1168.49L1146.63 -8.75L1168.49 -46.6H1178.7ZM1154.21 -8.75L1174.75 -44.32H1169.81L1149.27 -8.75L1169.81 26.82H1174.75L1154.21 -8.75ZM1194.1 29.1H1183.93L1162.1 -8.75L1183.93 -46.6H1194.1L1172.29 -8.75L1194.1 29.1ZM1181.63 -29.5L1190.19 -44.32H1185.25L1164.71 -8.75L1185.25 26.82H1190.19L1169.65 -8.75L1181.63 -29.5ZM1125.97 -8.75L1104.1 29.1H1093.9L1115.76 -8.76L1093.9 -46.6H1104.1L1125.97 -8.75ZM1102.8 26.82L1123.33 -8.75L1102.8 -44.32H1097.85L1118.39 -8.75L1097.85 26.82H1102.8ZM1163.26 -46.6L1141.41 -8.75L1163.26 29.1H1153.1L1131.2 -8.75L1153.1 -46.6H1163.26ZM1138.77 -8.75L1159.31 -44.32H1154.31L1133.83 -8.75L1154.36 26.82H1159.36L1138.77 -8.75ZM925.24 258.69L919 269.5V247.86L925.24 258.69ZM921.24 260.99L922.57 258.69L921.24 256.38V260.99ZM932.96 245.31L927.86 254.16L919 238.81V221.1L932.96 245.31ZM928.43 248.6L930.33 245.31L921.33 229.63V238.2L927.91 249.6L928.43 248.6ZM940.68 231.94L935.58 240.79L919 212.1V194.38L940.68 231.94ZM935.58 236.22L938.1 231.94L921.33 202.89V211.46L935.58 236.22ZM970.26 180.72L965.15 189.56H921.45L919 185.32V167.64L926.55 180.72H970.26ZM963.84 187.28L966.31 183H925.23L921.28 176.15V184.71L922.76 187.28H963.84ZM1002.45 258.69L994.1 273.2H983.86L997.34 249.84L1002.45 258.69ZM992.75 270.92L999.81 258.69L997.34 254.4L987.81 270.92H992.75ZM994.75 245.31L978.63 273.2H968.41L989.62 236.47L994.75 245.31ZM977.31 270.92L992.1 245.31L989.63 241.03L972.37 270.92H977.31ZM932.96 84.85L927.86 93.7L919 78.35V60.66L932.96 84.85ZM928.43 88.1L930.33 84.81L921.33 69.14V77.7L927.86 89.1L928.43 88.1ZM977.98 167.31L972.87 176.15H929.17L919 158.58V140.89L934.27 167.35L977.98 167.31ZM971.56 173.87L974.03 169.59H932.96L921.28 149.4V157.97L930.48 173.91L971.56 173.87ZM940.68 71.48L935.58 80.33L919 51.61V33.92L940.68 71.48ZM935.58 75.77L938.1 71.48L921.33 42.48V51L935.58 75.77ZM925.24 98.23L919 109.1V87.41L925.24 98.23ZM921.24 100.53L922.57 98.23L921.24 95.92V100.53ZM985.7 153.98L980.59 162.82H936.89L919 131.82V114.15L942 153.98H985.7ZM979.28 160.54L981.75 156.26H940.67L921.28 122.66V131.23L938.2 160.54H979.28Z" fill="#D1CF9C" fill-opacity="0.26"/>
<path d="M1323.74 162.82H1280.03L1258.18 200.67L1253.1 191.83L1274.96 153.98H1318.66L1323.74 162.82ZM1258.18 196.1L1278.72 160.53H1319.79L1317.32 156.25H1276.24L1255.71 191.83L1258.18 196.1ZM1355.93 165.1L1350.82 173.95L1328.97 136.1H1285.26L1290.37 127.25H1334.1L1355.93 165.1ZM1350.82 169.39L1353.29 165.1L1332.76 129.51H1291.68L1289.21 133.8H1330.28L1350.82 169.39ZM1379.1 151.71L1357.24 189.56H1347.02L1368.87 151.71L1347.02 113.86H1357.23L1379.1 151.71ZM1355.93 187.28L1376.46 151.71L1355.92 116.1H1350.97L1371.51 151.67L1350.97 187.24L1355.93 187.28ZM1363.66 151.71L1358.55 160.56L1336.69 122.71H1292.98L1298.1 113.86H1341.8L1363.66 151.71ZM1358.55 155.99L1361.02 151.71L1340.48 116.1H1299.4L1296.93 120.38H1338L1358.55 155.99ZM1408.67 73.75L1403.56 82.59H1359.86L1337.99 44.74L1343.1 35.9L1364.95 73.75H1408.67ZM1402.25 80.31L1404.72 76.03H1363.64L1343.1 40.46L1340.63 44.74L1361.17 80.31H1402.25ZM1394.54 151.71L1372.68 189.56H1362.46L1384.32 151.71L1362.46 113.86H1372.67L1394.54 151.71ZM1371.37 187.28L1391.9 151.71L1371.36 116.1H1366.41L1386.95 151.67L1366.41 187.24L1371.37 187.28ZM1409.98 151.71L1388.1 189.56H1377.9L1399.76 151.71L1377.9 113.86H1388.1L1409.98 151.71ZM1386.8 187.28L1407.33 151.71L1386.8 116.1H1381.85L1402.39 151.67L1381.85 187.24L1386.8 187.28ZM1417.69 165.1L1395.83 202.96H1352.1L1347.02 194.1H1390.73L1412.58 156.25L1417.69 165.1ZM1394.52 200.67L1415.1 165.1L1412.63 160.82L1392.1 196.37H1350.97L1353.44 200.65L1394.52 200.67ZM1339.18 189.58H1295.47L1273.62 227.41L1268.51 218.57L1290.37 180.72H1334.1L1339.18 189.58ZM1273.62 222.85L1294.16 187.28H1335.23L1332.76 183H1291.68L1271.15 218.57L1273.62 222.85ZM1425.41 178.46L1403.55 216.31H1359.85L1354.74 207.46H1398.45L1420.3 169.61L1425.41 178.46ZM1402.24 214.03L1422.77 178.46L1420.3 174.17L1399.77 209.74H1358.69L1361.16 214.03H1402.24ZM1331.46 176.19H1287.75L1265.9 214.04L1260.79 205.2L1282.65 167.35H1326.35L1331.46 176.19ZM1265.9 209.48L1286.44 173.91H1327.51L1325.04 169.63H1283.96L1263.43 205.2L1265.9 209.48ZM1255.57 231.94L1233.71 269.79H1223.5L1245.35 231.94L1223.5 194.1H1233.71L1255.57 231.94ZM1232.4 267.51L1252.93 231.94L1232.4 196.37H1227.4L1247.94 231.94L1227.45 267.51H1232.4ZM1400.94 247.58L1395.83 256.42H1352.1L1330.24 218.57L1335.35 209.73L1357.2 247.58H1400.94ZM1394.52 254.1L1396.99 249.82H1355.92L1335.38 214.25L1332.91 218.53L1353.45 254.1H1394.52ZM1433.1 191.83L1411.24 229.68H1367.54L1362.43 220.83H1406.14L1427.99 182.98L1433.1 191.83ZM1409.96 227.4L1430.49 191.83L1428.02 187.55L1407.48 223.1H1366.41L1368.88 227.39L1409.96 227.4ZM1478.1 109.33H1434.43L1412.58 147.18L1407.47 138.34L1429.33 100.49H1473.03L1478.1 109.33ZM1412.58 142.62L1433.1 107.1H1474.17L1471.7 102.82H1430.65L1410.1 138.34L1412.58 142.62ZM1478.1 189.56H1467.93L1446.1 151.71L1467.95 113.86H1478.1L1456.29 151.71L1478.1 189.56ZM1465.59 130.96L1474.19 116.1H1469.25L1448.71 151.71L1469.25 187.28H1474.19L1453.65 151.71L1465.59 130.96ZM1339.18 194.1L1317.33 231.95L1339.18 269.8H1328.97L1307.1 231.94L1328.97 194.1H1339.18ZM1314.69 231.94L1335.23 196.37H1330.28L1309.75 231.94L1330.28 267.51H1335.23L1314.69 231.94ZM1240.12 231.94L1218.27 269.79H1208.1L1229.95 231.94L1208.1 194.1H1218.27L1240.12 231.94ZM1216.96 267.51L1237.49 231.94L1216.96 196.37H1212.01L1232.55 231.94L1212.01 267.51H1216.96ZM1271.01 231.94L1249.15 269.79H1238.94L1260.79 231.94L1238.94 194.1H1249.15L1271.01 231.94ZM1247.83 267.51L1268.37 231.94L1247.83 196.37H1242.89L1263.43 231.94L1242.89 267.51H1247.83ZM1308.3 194.1L1286.45 231.94L1308.3 269.79H1298.1L1276.23 231.94L1298.1 194.1H1308.3ZM1283.81 231.94L1304.35 196.37H1299.35L1278.87 231.94L1299.4 267.51H1304.4L1283.81 231.94ZM1323.74 269.79H1313.53L1291.67 231.94L1313.53 194.1H1323.74L1301.89 231.94L1323.74 269.79ZM1299.25 231.94L1319.79 196.37H1314.79L1294.31 231.94L1314.84 267.51H1319.84L1299.25 231.94ZM1348.25 178.46L1343.1 187.3L1321.25 149.45H1277.54L1282.65 140.61H1326.35L1348.25 178.46ZM1343.1 182.74L1345.57 178.46L1325.04 142.89H1283.96L1281.49 147.17H1322.56L1343.1 182.74ZM1323.74 2.36H1280.03L1258.18 40.21L1253.1 31.37L1274.93 -6.48H1318.63L1323.74 2.36ZM1258.18 35.65L1278.72 0.0999985H1319.79L1317.32 -4.18H1276.24L1255.71 31.37L1258.18 35.65ZM1462.7 113.86L1440.85 151.71L1462.7 189.56H1452.49L1430.63 151.71L1452.49 113.86H1462.7ZM1453.81 187.28H1458.75L1438.21 151.71L1458.75 116.1H1453.81L1433.27 151.71L1453.81 187.28ZM1425.41 18L1403.55 55.85H1359.85L1354.74 47H1398.45L1420.3 9.15L1425.41 18ZM1402.24 53.57L1422.77 18L1420.3 13.72L1399.77 49.28H1358.69L1361.16 53.57H1402.24ZM1286.45 98.23L1264.59 136.1H1220.89L1215.78 127.25H1259.49L1281.34 89.38L1286.45 98.23ZM1263.28 133.8L1283.81 98.23L1281.34 93.94L1260.8 129.51H1219.73L1222.2 133.8H1263.28ZM1339.18 29.1H1295.47L1273.62 66.96L1268.51 58.1L1290.37 20.26H1334.1L1339.18 29.1ZM1273.62 62.39L1294.16 26.82H1335.23L1332.76 22.54H1291.68L1271.15 58.1L1273.62 62.39ZM1331.46 15.73H1287.75L1265.9 53.58L1260.79 44.74L1282.65 6.89H1326.35L1331.46 15.73ZM1265.9 49.02L1286.44 13.45H1327.51L1325.04 9.17H1283.96L1263.43 44.74L1265.9 49.02ZM1462.7 82.59H1418.99L1397.1 120.44L1392 111.6L1413.85 73.75H1457.55L1462.7 82.59ZM1397.1 115.88L1417.64 80.31H1458.71L1456.24 76.03H1415.2L1394.67 111.6L1397.1 115.88ZM1269.7 -6.48L1264.59 2.36H1220.89L1203 -28.64V-46.31L1226 -6.48H1269.7ZM1263.28 0.0999985L1265.75 -4.18H1224.67L1205.28 -37.8V-29.23L1222.2 0.0999985H1263.28ZM1470.42 95.96H1426.71L1404.86 133.81L1399.76 124.97L1421.61 87.1H1465.31L1470.42 95.96ZM1404.86 129.25L1425.4 93.68H1466.47L1464 89.4H1422.93L1402.39 124.97L1404.86 129.25ZM1408.66 234.25L1403.55 243.1H1359.85L1337.99 205.2L1343.1 196.35L1364.95 234.21L1408.66 234.25ZM1402.24 240.81L1404.71 236.53H1363.64L1343.1 200.92L1340.63 205.2L1361.17 240.77L1402.24 240.81ZM1294.17 111.6L1272.31 149.45H1228.61L1223.5 140.61H1267.21L1289.1 102.75L1294.17 111.6ZM1271 147.17L1291.53 111.6L1289.1 107.32L1268.52 142.89H1227.45L1229.92 147.17H1271ZM1417.69 4.63L1395.83 42.48H1352.1L1346.99 33.63H1390.7L1412.55 -4.22L1417.69 4.63ZM1394.52 40.2L1415.1 4.63L1412.63 0.34L1392.1 35.91H1350.97L1353.45 40.2H1394.52ZM1255.57 71.48L1233.71 109.33H1223.5L1245.35 71.48L1223.5 33.63H1233.71L1255.57 71.48ZM1232.4 107.1L1252.93 71.48L1232.4 35.91H1227.4L1247.99 71.48L1227.45 107.1H1232.4ZM1240.1 71.48L1218.27 109.33H1208.1L1229.91 71.48L1208.1 33.63H1218.27L1240.1 71.48ZM1216.96 107.1L1237.49 71.48L1216.96 35.91H1212.01L1232.55 71.48L1212.01 107.1H1216.96ZM1400.94 87.1L1395.83 95.94H1352.1L1330.27 58.1L1335.38 49.26L1357.23 87.1H1400.94ZM1394.52 93.66L1396.99 89.38H1355.92L1335.38 53.83L1332.91 58.1L1353.45 93.67L1394.52 93.66ZM1447.26 113.84L1425.41 151.71L1447.26 189.56H1437.1L1415.2 151.71L1437.1 113.86L1447.26 113.84ZM1438.36 187.26H1443.36L1422.77 151.71L1443.31 116.1H1438.31L1417.83 151.71L1438.36 187.26ZM1271.01 71.48L1249.15 109.33H1238.94L1260.79 71.48L1238.94 33.63H1249.15L1271.01 71.48ZM1247.83 107.1L1268.37 71.48L1247.83 35.91H1242.89L1263.43 71.48L1242.89 107.1H1247.83ZM1278.73 84.91L1256.87 122.71H1213.17L1208.1 113.86H1251.77L1273.62 76.01L1278.73 84.91ZM1255.56 120.42L1276.1 84.86L1273.63 80.57L1253.1 116.1H1212.01L1214.48 120.38L1255.56 120.42ZM1308.3 33.63L1286.45 71.48L1308.3 109.33H1298.1L1276.23 71.48L1298.1 33.63H1308.3ZM1283.81 71.48L1304.35 35.91H1299.35L1278.87 71.48L1299.4 107.1H1304.4L1283.81 71.48ZM1339.18 33.63L1317.33 71.48L1339.18 109.33H1328.97L1307.1 71.48L1328.96 33.63H1339.18ZM1327.1 50.1L1335.28 35.93H1330.33L1309.75 71.48L1330.28 107.1H1335.23L1314.69 71.48L1327.1 50.1ZM1393.27 100.51L1388.1 109.33H1344.4L1322.56 71.48L1327.66 62.64L1349.51 100.49L1393.27 100.51ZM1386.8 107.1L1389.27 102.82H1348.2L1327.66 67.2L1325.19 71.48L1345.72 107.1H1386.8ZM1323.74 109.38H1313.53L1291.67 71.48L1313.53 33.63H1323.74L1301.89 71.48L1323.74 109.38ZM1299.25 71.48L1319.79 35.91H1314.79L1294.31 71.48L1314.84 107.1H1319.84L1299.25 71.48ZM1393.25 260.95L1388.1 269.79H1344.4L1322.55 231.94L1327.65 223.1L1349.5 260.95H1393.25ZM1386.83 267.51L1389.3 263.23H1348.2L1327.66 227.66L1325.19 231.94L1345.72 267.51H1386.83ZM1483.23 198.33V216.02L1475.68 202.94H1431.94L1437.1 194.1H1480.81L1483.23 198.33ZM1480.95 207.51V198.94L1479.47 196.37H1438.36L1435.89 200.65H1476.97L1480.95 207.51ZM1483.23 171.59V189.28L1461.52 151.71L1466.62 142.87L1483.23 171.59ZM1480.95 180.76V172.2L1466.65 147.43L1464.18 151.71L1480.95 180.76ZM1483.23 144.84V162.53L1469.23 138.34L1474.33 129.5L1483.23 144.84ZM1480.95 154.02V145.46L1474.34 134.1L1471.87 138.38L1480.95 154.02ZM1483.23 91.36V109.1L1481 105.19L1460.21 69.22H1416.5L1421.61 60.38H1465.31L1483.23 91.36ZM1480.95 100.53V91.97L1464 62.66H1422.93L1420.45 66.94H1461.52L1480.95 100.53ZM1483.23 114.15V135.79L1476.99 124.97L1483.23 114.15ZM1480.95 127.28V122.66L1479.62 124.97L1480.95 127.28ZM1483.23 64.61V82.3L1467.93 55.85H1424.22L1429.33 47H1473.03L1483.23 64.61ZM1480.95 73.79V65.23L1471.75 49.28H1430.65L1428.17 53.57H1469.25L1480.95 73.79ZM1470.45 256.42H1426.71L1417.03 273.2H1406.82L1421.61 247.58H1465.31L1470.45 256.42ZM1415.74 270.92L1425.4 254.1H1466.47L1464 249.82H1422.93L1410.77 270.88L1415.74 270.92ZM1462.74 243.05H1418.99L1401.59 273.2H1391.38L1413.89 234.2H1457.59L1462.74 243.05ZM1400.31 270.92L1417.72 240.77H1458.79L1456.32 236.49H1415.2L1395.33 270.92H1400.31ZM1483.2 225.1V242.79L1467.93 216.34H1424.22L1429.33 207.49H1473.03L1483.2 225.1ZM1480.92 234.28V225.71L1471.72 209.77H1430.65L1428.17 214.06H1469.25L1480.92 234.28ZM1478.1 269.79H1434.43L1432.43 273.2H1422.26L1429.33 260.95H1473.03L1478.1 269.79ZM1431.1 270.92L1433.1 267.51H1474.17L1471.7 263.23H1430.65L1426.21 270.92H1431.1ZM1483.15 251.82V269.55L1480.92 265.63L1460.16 229.68H1416.5L1421.61 220.83H1465.31L1483.15 251.82ZM1480.87 260.99V252.43L1464 223.1H1422.93L1420.45 227.39H1461.52L1480.87 260.99ZM1483.2 11.1V28.79L1461.52 -8.75L1466.62 -17.59L1483.2 11.1ZM1480.92 20.27V11.71L1466.62 -13.06L1464.15 -8.78L1480.92 20.27ZM1294.82 -50L1272.31 -11H1228.61L1223.5 -19.85H1267.21L1284.61 -50H1294.82ZM1271 -13.29L1290.87 -47.72H1285.93L1268.52 -17.57H1227.45L1229.92 -13.29H1271ZM1402.9 -50L1397.14 -40L1391.38 -50H1402.9ZM1397.1 -44.58L1398.91 -47.72H1395.29L1397.1 -44.58ZM1418.31 -50L1404.86 -26.65L1399.76 -35.49L1408.1 -50H1418.31ZM1404.86 -31.21L1414.4 -47.72H1409.4L1402.34 -35.49L1404.86 -31.21ZM1263.94 -50L1256.87 -37.75H1213.17L1208.1 -46.6H1251.77L1253.77 -50H1263.94ZM1255.56 -40L1259.99 -47.69H1255.1L1253.1 -44.29H1212.01L1214.48 -40H1255.56ZM1279.38 -50L1264.59 -24.38H1220.89L1215.78 -33.22H1259.49L1269.17 -50H1279.38ZM1263.28 -26.66L1275.43 -47.72H1270.49L1260.8 -30.9H1219.73L1222.2 -26.66H1263.28ZM1433.79 -50L1412.58 -13.27L1407.47 -22.12L1423.57 -50H1433.79ZM1412.58 -17.84L1429.84 -47.72H1424.84L1410.1 -22.12L1412.58 -17.84ZM1294.82 273.2H1283.3L1289.06 263.2L1294.82 273.2ZM1287.25 270.92H1290.87L1289.1 267.77L1287.25 270.92ZM1483.25 -15.61V2.1L1469.25 -22.09L1474.35 -30.93L1483.25 -15.61ZM1480.97 -6.44V-15L1474.39 -26.4L1471.92 -22.12L1480.97 -6.44ZM1483.25 -46.31V-24.67L1477.01 -35.49L1483.25 -46.31ZM1480.97 -33.18V-37.79L1479.64 -35.49L1480.97 -33.18ZM1483.25 37.87V55.56L1475.65 42.48H1431.94L1437.1 33.63H1480.81L1483.25 37.87ZM1480.92 47.1V38.53L1479.44 35.96H1438.36L1435.89 40.25H1476.97L1480.92 47.1ZM1433.1 31.37L1411.27 69.22H1367.57L1362.46 60.38H1406.17L1428.02 22.53L1433.1 31.37ZM1409.96 66.94L1430.49 31.37L1428.02 27.1L1407.48 62.66H1366.41L1368.88 66.94H1409.96ZM1355.96 4.63L1350.85 13.47L1328.97 -24.38H1285.26L1290.37 -33.22H1334.1L1355.96 4.63ZM1350.85 8.91L1353.32 4.63L1332.76 -30.9H1291.68L1289.21 -26.62H1330.28L1350.85 8.91ZM1363.68 -8.75L1358.54 0.0999985L1336.69 -37.75H1292.98L1298.1 -46.6H1341.8L1363.68 -8.75ZM1358.57 -4.46L1361.04 -8.75L1340.48 -44.32H1299.4L1296.93 -40.03H1338L1358.57 -4.46ZM1379.1 -8.75L1357.23 29.1H1347.02L1368.87 -8.76L1347.02 -46.6H1357.23L1379.1 -8.75ZM1355.92 26.82L1376.45 -8.75L1355.92 -44.32H1350.97L1371.51 -8.75L1350.97 26.82H1355.92ZM1261.98 6.89L1256.87 15.73H1213.17L1203 -1.9V-19.57L1218.27 6.89H1261.98ZM1255.56 13.45L1258.03 9.17H1216.96L1205.28 -11.05V-2.49L1214.48 13.45H1255.56ZM1348.21 18L1343.1 26.84L1321.25 -11.01H1277.54L1282.65 -19.85H1326.35L1348.21 18ZM1343.1 22.28L1345.57 18L1325.04 -17.57H1283.96L1281.49 -13.29H1322.56L1343.1 22.28ZM1394.53 -8.72L1372.67 29.1H1362.46L1384.32 -8.76L1362.46 -46.6H1372.67L1394.53 -8.72ZM1371.36 26.82L1391.89 -8.75L1371.36 -44.32H1366.41L1386.95 -8.75L1366.41 26.82H1371.36ZM1254.26 20.26L1249.15 29.1H1205.45L1203 24.86V7.18L1210.55 20.26H1254.26ZM1247.84 26.82L1250.31 22.54H1209.23L1205.28 15.69V24.25L1206.76 26.82H1247.84ZM1462.7 -46.6L1440.85 -8.75L1462.7 29.1H1452.49L1430.63 -8.75L1452.49 -46.6H1462.7ZM1438.21 -8.75L1458.75 -44.32H1453.81L1433.27 -8.75L1453.81 26.82H1458.75L1438.21 -8.75ZM1478.1 29.1H1467.93L1446.1 -8.75L1467.93 -46.6H1478.1L1456.29 -8.75L1478.1 29.1ZM1465.63 -29.5L1474.19 -44.32H1469.25L1448.71 -8.75L1469.25 26.82H1474.19L1453.65 -8.75L1465.63 -29.5ZM1409.97 -8.75L1388.1 29.1H1377.9L1399.76 -8.76L1377.9 -46.6H1388.1L1409.97 -8.75ZM1386.8 26.82L1407.33 -8.75L1386.8 -44.32H1381.85L1402.39 -8.75L1381.85 26.82H1386.8ZM1447.26 -46.6L1425.41 -8.75L1447.26 29.1H1437.1L1415.2 -8.75L1437.1 -46.6H1447.26ZM1422.77 -8.75L1443.31 -44.32H1438.31L1417.83 -8.75L1438.36 26.82H1443.36L1422.77 -8.75ZM1209.24 258.69L1203 269.5V247.86L1209.24 258.69ZM1205.24 260.99L1206.57 258.69L1205.24 256.38V260.99ZM1216.96 245.31L1211.86 254.16L1203 238.81V221.1L1216.96 245.31ZM1212.43 248.6L1214.33 245.31L1205.33 229.63V238.2L1211.91 249.6L1212.43 248.6ZM1224.68 231.94L1219.58 240.79L1203 212.1V194.38L1224.68 231.94ZM1219.58 236.22L1222.1 231.94L1205.33 202.89V211.46L1219.58 236.22ZM1254.26 180.72L1249.15 189.56H1205.45L1203 185.32V167.64L1210.55 180.72H1254.26ZM1247.84 187.28L1250.31 183H1209.23L1205.28 176.15V184.71L1206.76 187.28H1247.84ZM1286.45 258.69L1278.1 273.2H1267.86L1281.34 249.84L1286.45 258.69ZM1276.75 270.92L1283.81 258.69L1281.34 254.4L1271.81 270.92H1276.75ZM1278.75 245.31L1262.63 273.2H1252.41L1273.62 236.47L1278.75 245.31ZM1261.31 270.92L1276.1 245.31L1273.63 241.03L1256.37 270.92H1261.31ZM1216.96 84.85L1211.86 93.7L1203 78.35V60.66L1216.96 84.85ZM1212.43 88.1L1214.33 84.81L1205.33 69.14V77.7L1211.86 89.1L1212.43 88.1ZM1261.98 167.31L1256.87 176.15H1213.17L1203 158.58V140.89L1218.27 167.35L1261.98 167.31ZM1255.56 173.87L1258.03 169.59H1216.96L1205.28 149.4V157.97L1214.48 173.91L1255.56 173.87ZM1224.68 71.48L1219.58 80.33L1203 51.61V33.92L1224.68 71.48ZM1219.58 75.77L1222.1 71.48L1205.33 42.48V51L1219.58 75.77ZM1209.24 98.23L1203 109.1V87.41L1209.24 98.23ZM1205.24 100.53L1206.57 98.23L1205.24 95.92V100.53ZM1269.7 153.98L1264.59 162.82H1220.89L1203 131.82V114.15L1226 153.98H1269.7ZM1263.28 160.54L1265.75 156.26H1224.67L1205.28 122.66V131.23L1222.2 160.54H1263.28Z" fill="#D1CF9C" fill-opacity="0.26"/>
</g>
<defs>
<clipPath id="clip0">
<rect width="1216" height="189" rx="5" fill="white"/>
</clipPath>
</defs>
</svg>
