<svg width="1212" height="51" viewBox="0 0 1212 51" fill="none" xmlns="http://www.w3.org/2000/svg">
<g clip-path="url(#clip0)">
<path d="M183.74 24.82H140.03L118.18 62.67L113.1 53.83L134.96 15.98H178.66L183.74 24.82ZM118.18 58.1L138.72 22.53H179.79L177.32 18.25H136.24L115.71 53.83L118.18 58.1ZM215.93 27.1L210.82 35.95L188.97 -1.89999H145.26L150.37 -10.75H194.1L215.93 27.1ZM210.82 31.39L213.29 27.1L192.76 -8.48999H151.68L149.21 -4.20001H190.28L210.82 31.39ZM239.1 13.71L217.24 51.56H207.02L228.87 13.71L207.02 -24.14H217.23L239.1 13.71ZM215.93 49.28L236.46 13.71L215.92 -21.9H210.97L231.51 13.67L210.97 49.24L215.93 49.28ZM223.66 13.71L218.55 22.56L196.69 -15.29H152.98L158.1 -24.14H201.8L223.66 13.71ZM218.55 17.99L221.02 13.71L200.48 -21.9H159.4L156.93 -17.62H198L218.55 17.99ZM268.67 -64.25L263.56 -55.41H219.86L197.99 -93.26L203.1 -102.1L224.95 -64.25H268.67ZM262.25 -57.69L264.72 -61.97H223.64L203.1 -97.54L200.63 -93.26L221.17 -57.69H262.25ZM254.54 13.71L232.68 51.56H222.46L244.32 13.71L222.46 -24.14H232.67L254.54 13.71ZM231.37 49.28L251.9 13.71L231.36 -21.9H226.41L246.95 13.67L226.41 49.24L231.37 49.28ZM269.98 13.71L248.1 51.56H237.9L259.76 13.71L237.9 -24.14H248.1L269.98 13.71ZM246.8 49.28L267.33 13.71L246.8 -21.9H241.85L262.39 13.67L241.85 49.24L246.8 49.28ZM277.69 27.1L255.83 64.96H212.1L207.02 56.1H250.73L272.58 18.25L277.69 27.1ZM254.52 62.67L275.1 27.1L272.63 22.82L252.1 58.37H210.97L213.44 62.65L254.52 62.67ZM199.18 51.58H155.47L133.62 89.41L128.51 80.57L150.37 42.72H194.1L199.18 51.58ZM133.62 84.85L154.16 49.28H195.23L192.76 45H151.68L131.15 80.57L133.62 84.85ZM285.41 40.46L263.55 78.31H219.85L214.74 69.46H258.45L280.3 31.61L285.41 40.46ZM262.24 76.03L282.77 40.46L280.3 36.17L259.77 71.74H218.69L221.16 76.03H262.24ZM191.46 38.19H147.75L125.9 76.04L120.79 67.2L142.65 29.35H186.35L191.46 38.19ZM125.9 71.48L146.44 35.91H187.51L185.04 31.63H143.96L123.43 67.2L125.9 71.48ZM115.57 93.94L93.71 131.79H83.5L105.35 93.94L83.5 56.1H93.71L115.57 93.94ZM92.4 129.51L112.93 93.94L92.4 58.37H87.4L107.94 93.94L87.45 129.51H92.4ZM260.94 109.58L255.83 118.42H212.1L190.24 80.57L195.35 71.73L217.2 109.58H260.94ZM254.52 116.1L256.99 111.82H215.92L195.38 76.25L192.91 80.53L213.45 116.1H254.52ZM293.1 53.83L271.24 91.68H227.54L222.43 82.83H266.14L287.99 44.98L293.1 53.83ZM269.96 89.4L290.49 53.83L288.02 49.55L267.48 85.1H226.41L228.88 89.39L269.96 89.4ZM338.1 -28.67H294.43L272.58 9.17999L267.47 0.339996L289.33 -37.51H333.03L338.1 -28.67ZM272.58 4.62L293.1 -30.9H334.17L331.7 -35.18H290.65L270.1 0.339996L272.58 4.62ZM338.1 51.56H327.93L306.1 13.71L327.95 -24.14H338.1L316.29 13.71L338.1 51.56ZM325.59 -7.04001L334.19 -21.9H329.25L308.71 13.71L329.25 49.28H334.19L313.65 13.71L325.59 -7.04001ZM199.18 56.1L177.33 93.95L199.18 131.8H188.97L167.1 93.94L188.97 56.1H199.18ZM174.69 93.94L195.23 58.37H190.28L169.75 93.94L190.28 129.51H195.23L174.69 93.94ZM100.12 93.94L78.27 131.79H68.1L89.95 93.94L68.1 56.1H78.27L100.12 93.94ZM76.96 129.51L97.49 93.94L76.96 58.37H72.01L92.55 93.94L72.01 129.51H76.96ZM131.01 93.94L109.15 131.79H98.94L120.79 93.94L98.94 56.1H109.15L131.01 93.94ZM107.83 129.51L128.37 93.94L107.83 58.37H102.89L123.43 93.94L102.89 129.51H107.83ZM168.3 56.1L146.45 93.94L168.3 131.79H158.1L136.23 93.94L158.1 56.1H168.3ZM143.81 93.94L164.35 58.37H159.35L138.87 93.94L159.4 129.51H164.4L143.81 93.94ZM183.74 131.79H173.53L151.67 93.94L173.53 56.1H183.74L161.89 93.94L183.74 131.79ZM159.25 93.94L179.79 58.37H174.79L154.31 93.94L174.84 129.51H179.84L159.25 93.94ZM208.25 40.46L203.1 49.3L181.25 11.45H137.54L142.65 2.61H186.35L208.25 40.46ZM203.1 44.74L205.57 40.46L185.04 4.89H143.96L141.49 9.17H182.56L203.1 44.74ZM183.74 -135.64H140.03L118.18 -97.79L113.1 -106.63L134.93 -144.48H178.63L183.74 -135.64ZM118.18 -102.35L138.72 -137.9H179.79L177.32 -142.18H136.24L115.71 -106.63L118.18 -102.35ZM322.7 -24.14L300.85 13.71L322.7 51.56H312.49L290.63 13.71L312.49 -24.14H322.7ZM313.81 49.28H318.75L298.21 13.71L318.75 -21.9H313.81L293.27 13.71L313.81 49.28ZM285.41 -120L263.55 -82.15H219.85L214.74 -91H258.45L280.3 -128.85L285.41 -120ZM262.24 -84.43L282.77 -120L280.3 -124.28L259.77 -88.72H218.69L221.16 -84.43H262.24ZM146.45 -39.77L124.59 -1.89999H80.89L75.78 -10.75H119.49L141.34 -48.62L146.45 -39.77ZM123.28 -4.20001L143.81 -39.77L141.34 -44.06L120.8 -8.48999H79.73L82.2 -4.20001H123.28ZM199.18 -108.9H155.47L133.62 -71.04L128.51 -79.9L150.37 -117.74H194.1L199.18 -108.9ZM133.62 -75.61L154.16 -111.18H195.23L192.76 -115.46H151.68L131.15 -79.9L133.62 -75.61ZM191.46 -122.27H147.75L125.9 -84.42L120.79 -93.26L142.65 -131.11H186.35L191.46 -122.27ZM125.9 -88.98L146.44 -124.55H187.51L185.04 -128.83H143.96L123.43 -93.26L125.9 -88.98ZM322.7 -55.41H278.99L257.1 -17.56L252 -26.4L273.85 -64.25H317.55L322.7 -55.41ZM257.1 -22.12L277.64 -57.69H318.71L316.24 -61.97H275.2L254.67 -26.4L257.1 -22.12ZM129.7 -144.48L124.59 -135.64H80.89L63 -166.64V-184.31L86 -144.48H129.7ZM123.28 -137.9L125.75 -142.18H84.67L65.28 -175.8V-167.23L82.2 -137.9H123.28ZM330.42 -42.04H286.71L264.86 -4.19L259.76 -13.03L281.61 -50.9H325.31L330.42 -42.04ZM264.86 -8.75L285.4 -44.32H326.47L324 -48.6H282.93L262.39 -13.03L264.86 -8.75ZM268.66 96.25L263.55 105.1H219.85L197.99 67.2L203.1 58.35L224.95 96.21L268.66 96.25ZM262.24 102.81L264.71 98.53H223.64L203.1 62.92L200.63 67.2L221.17 102.77L262.24 102.81ZM154.17 -26.4L132.31 11.45H88.61L83.5 2.61H127.21L149.1 -35.25L154.17 -26.4ZM131 9.17L151.53 -26.4L149.1 -30.68L128.52 4.89H87.45L89.92 9.17H131ZM277.69 -133.37L255.83 -95.52H212.1L206.99 -104.37H250.7L272.55 -142.22L277.69 -133.37ZM254.52 -97.8L275.1 -133.37L272.63 -137.66L252.1 -102.09H210.97L213.45 -97.8H254.52ZM115.57 -66.52L93.71 -28.67H83.5L105.35 -66.52L83.5 -104.37H93.71L115.57 -66.52ZM92.4 -30.9L112.93 -66.52L92.4 -102.09H87.4L107.99 -66.52L87.45 -30.9H92.4ZM100.1 -66.52L78.27 -28.67H68.1L89.91 -66.52L68.1 -104.37H78.27L100.1 -66.52ZM76.96 -30.9L97.49 -66.52L76.96 -102.09H72.01L92.55 -66.52L72.01 -30.9H76.96ZM260.94 -50.9L255.83 -42.06H212.1L190.27 -79.9L195.38 -88.74L217.23 -50.9H260.94ZM254.52 -44.34L256.99 -48.62H215.92L195.38 -84.17L192.91 -79.9L213.45 -44.33L254.52 -44.34ZM307.26 -24.16L285.41 13.71L307.26 51.56H297.1L275.2 13.71L297.1 -24.14L307.26 -24.16ZM298.36 49.26H303.36L282.77 13.71L303.31 -21.9H298.31L277.83 13.71L298.36 49.26ZM131.01 -66.52L109.15 -28.67H98.94L120.79 -66.52L98.94 -104.37H109.15L131.01 -66.52ZM107.83 -30.9L128.37 -66.52L107.83 -102.09H102.89L123.43 -66.52L102.89 -30.9H107.83ZM138.73 -53.09L116.87 -15.29H73.17L68.1 -24.14H111.77L133.62 -61.99L138.73 -53.09ZM115.56 -17.58L136.1 -53.14L133.63 -57.43L113.1 -21.9H72.01L74.48 -17.62L115.56 -17.58ZM168.3 -104.37L146.45 -66.52L168.3 -28.67H158.1L136.23 -66.52L158.1 -104.37H168.3ZM143.81 -66.52L164.35 -102.09H159.35L138.87 -66.52L159.4 -30.9H164.4L143.81 -66.52ZM199.18 -104.37L177.33 -66.52L199.18 -28.67H188.97L167.1 -66.52L188.96 -104.37H199.18ZM187.1 -87.9L195.28 -102.07H190.33L169.75 -66.52L190.28 -30.9H195.23L174.69 -66.52L187.1 -87.9ZM253.27 -37.49L248.1 -28.67H204.4L182.56 -66.52L187.66 -75.36L209.51 -37.51L253.27 -37.49ZM246.8 -30.9L249.27 -35.18H208.2L187.66 -70.8L185.19 -66.52L205.72 -30.9H246.8ZM183.74 -28.62H173.53L151.67 -66.52L173.53 -104.37H183.74L161.89 -66.52L183.74 -28.62ZM159.25 -66.52L179.79 -102.09H174.79L154.31 -66.52L174.84 -30.9H179.84L159.25 -66.52ZM253.25 122.95L248.1 131.79H204.4L182.55 93.94L187.65 85.1L209.5 122.95H253.25ZM246.83 129.51L249.3 125.23H208.2L187.66 89.66L185.19 93.94L205.72 129.51H246.83ZM343.23 60.33V78.02L335.68 64.94H291.94L297.1 56.1H340.81L343.23 60.33ZM340.95 69.51V60.94L339.47 58.37H298.36L295.89 62.65H336.97L340.95 69.51ZM343.23 33.59V51.28L321.52 13.71L326.62 4.87L343.23 33.59ZM340.95 42.76V34.2L326.65 9.42999L324.18 13.71L340.95 42.76ZM343.23 6.84V24.53L329.23 0.339996L334.33 -8.5L343.23 6.84ZM340.95 16.02V7.45999L334.34 -3.89999L331.87 0.380005L340.95 16.02ZM343.23 -46.64V-28.9L341 -32.81L320.21 -68.78H276.5L281.61 -77.62H325.31L343.23 -46.64ZM340.95 -37.47V-46.03L324 -75.34H282.93L280.45 -71.06H321.52L340.95 -37.47ZM343.23 -23.85V-2.20999L336.99 -13.03L343.23 -23.85ZM340.95 -10.72V-15.34L339.62 -13.03L340.95 -10.72ZM343.23 -73.39V-55.7L327.93 -82.15H284.22L289.33 -91H333.03L343.23 -73.39ZM340.95 -64.21V-72.77L331.75 -88.72H290.65L288.17 -84.43H329.25L340.95 -64.21ZM330.45 118.42H286.71L277.03 135.2H266.82L281.61 109.58H325.31L330.45 118.42ZM275.74 132.92L285.4 116.1H326.47L324 111.82H282.93L270.77 132.88L275.74 132.92ZM322.74 105.05H278.99L261.59 135.2H251.38L273.89 96.2H317.59L322.74 105.05ZM260.31 132.92L277.72 102.77H318.79L316.32 98.49H275.2L255.33 132.92H260.31ZM343.2 87.1V104.79L327.93 78.34H284.22L289.33 69.49H333.03L343.2 87.1ZM340.92 96.28V87.71L331.72 71.77H290.65L288.17 76.06H329.25L340.92 96.28ZM338.1 131.79H294.43L292.43 135.2H282.26L289.33 122.95H333.03L338.1 131.79ZM291.1 132.92L293.1 129.51H334.17L331.7 125.23H290.65L286.21 132.92H291.1ZM343.15 113.82V131.55L340.92 127.63L320.16 91.68H276.5L281.61 82.83H325.31L343.15 113.82ZM340.87 122.99V114.43L324 85.1H282.93L280.45 89.39H321.52L340.87 122.99ZM343.2 -126.9V-109.21L321.52 -146.75L326.62 -155.59L343.2 -126.9ZM340.92 -117.73V-126.29L326.62 -151.06L324.15 -146.78L340.92 -117.73ZM154.82 -188L132.31 -149H88.61L83.5 -157.85H127.21L144.61 -188H154.82ZM131 -151.29L150.87 -185.72H145.93L128.52 -155.57H87.45L89.92 -151.29H131ZM262.9 -188L257.14 -178L251.38 -188H262.9ZM257.1 -182.58L258.91 -185.72H255.29L257.1 -182.58ZM278.31 -188L264.86 -164.65L259.76 -173.49L268.1 -188H278.31ZM264.86 -169.21L274.4 -185.72H269.4L262.34 -173.49L264.86 -169.21ZM123.94 -188L116.87 -175.75H73.17L68.1 -184.6H111.77L113.77 -188H123.94ZM115.56 -178L119.99 -185.69H115.1L113.1 -182.29H72.01L74.48 -178H115.56ZM139.38 -188L124.59 -162.38H80.89L75.78 -171.22H119.49L129.17 -188H139.38ZM123.28 -164.66L135.43 -185.72H130.49L120.8 -168.9H79.73L82.2 -164.66H123.28ZM293.79 -188L272.58 -151.27L267.47 -160.12L283.57 -188H293.79ZM272.58 -155.84L289.84 -185.72H284.84L270.1 -160.12L272.58 -155.84ZM154.82 135.2H143.3L149.06 125.2L154.82 135.2ZM147.25 132.92H150.87L149.1 129.77L147.25 132.92ZM343.25 -153.61V-135.9L329.25 -160.09L334.35 -168.93L343.25 -153.61ZM340.97 -144.44V-153L334.39 -164.4L331.92 -160.12L340.97 -144.44ZM343.25 -184.31V-162.67L337.01 -173.49L343.25 -184.31ZM340.97 -171.18V-175.79L339.64 -173.49L340.97 -171.18ZM343.25 -100.13V-82.44L335.65 -95.52H291.94L297.1 -104.37H340.81L343.25 -100.13ZM340.92 -90.9V-99.47L339.44 -102.04H298.36L295.89 -97.75H336.97L340.92 -90.9ZM293.1 -106.63L271.27 -68.78H227.57L222.46 -77.62H266.17L288.02 -115.47L293.1 -106.63ZM269.96 -71.06L290.49 -106.63L288.02 -110.9L267.48 -75.34H226.41L228.88 -71.06H269.96ZM215.96 -133.37L210.85 -124.53L188.97 -162.38H145.26L150.37 -171.22H194.1L215.96 -133.37ZM210.85 -129.09L213.32 -133.37L192.76 -168.9H151.68L149.21 -164.62H190.28L210.85 -129.09ZM223.68 -146.75L218.54 -137.9L196.69 -175.75H152.98L158.1 -184.6H201.8L223.68 -146.75ZM218.57 -142.46L221.04 -146.75L200.48 -182.32H159.4L156.93 -178.03H198L218.57 -142.46ZM239.1 -146.75L217.23 -108.9H207.02L228.87 -146.76L207.02 -184.6H217.23L239.1 -146.75ZM215.92 -111.18L236.45 -146.75L215.92 -182.32H210.97L231.51 -146.75L210.97 -111.18H215.92ZM121.98 -131.11L116.87 -122.27H73.17L63 -139.9V-157.57L78.27 -131.11H121.98ZM115.56 -124.55L118.03 -128.83H76.96L65.28 -149.05V-140.49L74.48 -124.55H115.56ZM208.21 -120L203.1 -111.16L181.25 -149.01H137.54L142.65 -157.85H186.35L208.21 -120ZM203.1 -115.72L205.57 -120L185.04 -155.57H143.96L141.49 -151.29H182.56L203.1 -115.72ZM254.53 -146.72L232.67 -108.9H222.46L244.32 -146.76L222.46 -184.6H232.67L254.53 -146.72ZM231.36 -111.18L251.89 -146.75L231.36 -182.32H226.41L246.95 -146.75L226.41 -111.18H231.36ZM114.26 -117.74L109.15 -108.9H65.45L63 -113.14V-130.82L70.55 -117.74H114.26ZM107.84 -111.18L110.31 -115.46H69.23L65.28 -122.31V-113.75L66.76 -111.18H107.84ZM322.7 -184.6L300.85 -146.75L322.7 -108.9H312.49L290.63 -146.75L312.49 -184.6H322.7ZM298.21 -146.75L318.75 -182.32H313.81L293.27 -146.75L313.81 -111.18H318.75L298.21 -146.75ZM338.1 -108.9H327.93L306.1 -146.75L327.93 -184.6H338.1L316.29 -146.75L338.1 -108.9ZM325.63 -167.5L334.19 -182.32H329.25L308.71 -146.75L329.25 -111.18H334.19L313.65 -146.75L325.63 -167.5ZM269.97 -146.75L248.1 -108.9H237.9L259.76 -146.76L237.9 -184.6H248.1L269.97 -146.75ZM246.8 -111.18L267.33 -146.75L246.8 -182.32H241.85L262.39 -146.75L241.85 -111.18H246.8ZM307.26 -184.6L285.41 -146.75L307.26 -108.9H297.1L275.2 -146.75L297.1 -184.6H307.26ZM282.77 -146.75L303.31 -182.32H298.31L277.83 -146.75L298.36 -111.18H303.36L282.77 -146.75ZM69.24 120.69L63 131.5V109.86L69.24 120.69ZM65.24 122.99L66.57 120.69L65.24 118.38V122.99ZM76.96 107.31L71.86 116.16L63 100.81V83.1L76.96 107.31ZM72.43 110.6L74.33 107.31L65.33 91.63V100.2L71.91 111.6L72.43 110.6ZM84.68 93.94L79.58 102.79L63 74.1V56.38L84.68 93.94ZM79.58 98.22L82.1 93.94L65.33 64.89V73.46L79.58 98.22ZM114.26 42.72L109.15 51.56H65.45L63 47.32V29.64L70.55 42.72H114.26ZM107.84 49.28L110.31 45H69.23L65.28 38.15V46.71L66.76 49.28H107.84ZM146.45 120.69L138.1 135.2H127.86L141.34 111.84L146.45 120.69ZM136.75 132.92L143.81 120.69L141.34 116.4L131.81 132.92H136.75ZM138.75 107.31L122.63 135.2H112.41L133.62 98.47L138.75 107.31ZM121.31 132.92L136.1 107.31L133.63 103.03L116.37 132.92H121.31ZM76.96 -53.15L71.86 -44.3L63 -59.65V-77.34L76.96 -53.15ZM72.43 -49.9L74.33 -53.19L65.33 -68.86V-60.3L71.86 -48.9L72.43 -49.9ZM121.98 29.31L116.87 38.15H73.17L63 20.58V2.89L78.27 29.35L121.98 29.31ZM115.56 35.87L118.03 31.59H76.96L65.28 11.4V19.97L74.48 35.91L115.56 35.87ZM84.68 -66.52L79.58 -57.67L63 -86.39V-104.08L84.68 -66.52ZM79.58 -62.23L82.1 -66.52L65.33 -95.52V-87L79.58 -62.23ZM69.24 -39.77L63 -28.9V-50.59L69.24 -39.77ZM65.24 -37.47L66.57 -39.77L65.24 -42.08V-37.47ZM129.7 15.98L124.59 24.82H80.89L63 -6.17999V-23.85L86 15.98H129.7ZM123.28 22.54L125.75 18.26H84.67L65.28 -15.34V-6.77L82.2 22.54H123.28Z" fill="#D1CF9C" fill-opacity="0.26"/>
<path d="M751.74 24.82H708.03L686.18 62.67L681.1 53.83L702.96 15.98H746.66L751.74 24.82ZM686.18 58.1L706.72 22.53H747.79L745.32 18.25H704.24L683.71 53.83L686.18 58.1ZM783.93 27.1L778.82 35.95L756.97 -1.89999H713.26L718.37 -10.75H762.1L783.93 27.1ZM778.82 31.39L781.29 27.1L760.76 -8.48999H719.68L717.21 -4.20001H758.28L778.82 31.39ZM807.1 13.71L785.24 51.56H775.02L796.87 13.71L775.02 -24.14H785.23L807.1 13.71ZM783.93 49.28L804.46 13.71L783.92 -21.9H778.97L799.51 13.67L778.97 49.24L783.93 49.28ZM791.66 13.71L786.55 22.56L764.69 -15.29H720.98L726.1 -24.14H769.8L791.66 13.71ZM786.55 17.99L789.02 13.71L768.48 -21.9H727.4L724.93 -17.62H766L786.55 17.99ZM836.67 -64.25L831.56 -55.41H787.86L765.99 -93.26L771.1 -102.1L792.95 -64.25H836.67ZM830.25 -57.69L832.72 -61.97H791.64L771.1 -97.54L768.63 -93.26L789.17 -57.69H830.25ZM822.54 13.71L800.68 51.56H790.46L812.32 13.71L790.46 -24.14H800.67L822.54 13.71ZM799.37 49.28L819.9 13.71L799.36 -21.9H794.41L814.95 13.67L794.41 49.24L799.37 49.28ZM837.98 13.71L816.1 51.56H805.9L827.76 13.71L805.9 -24.14H816.1L837.98 13.71ZM814.8 49.28L835.33 13.71L814.8 -21.9H809.85L830.39 13.67L809.85 49.24L814.8 49.28ZM845.69 27.1L823.83 64.96H780.1L775.02 56.1H818.73L840.58 18.25L845.69 27.1ZM822.52 62.67L843.1 27.1L840.63 22.82L820.1 58.37H778.97L781.44 62.65L822.52 62.67ZM767.18 51.58H723.47L701.62 89.41L696.51 80.57L718.37 42.72H762.1L767.18 51.58ZM701.62 84.85L722.16 49.28H763.23L760.76 45H719.68L699.15 80.57L701.62 84.85ZM853.41 40.46L831.55 78.31H787.85L782.74 69.46H826.45L848.3 31.61L853.41 40.46ZM830.24 76.03L850.77 40.46L848.3 36.17L827.77 71.74H786.69L789.16 76.03H830.24ZM759.46 38.19H715.75L693.9 76.04L688.79 67.2L710.65 29.35H754.35L759.46 38.19ZM693.9 71.48L714.44 35.91H755.51L753.04 31.63H711.96L691.43 67.2L693.9 71.48ZM683.57 93.94L661.71 131.79H651.5L673.35 93.94L651.5 56.1H661.71L683.57 93.94ZM660.4 129.51L680.93 93.94L660.4 58.37H655.4L675.94 93.94L655.45 129.51H660.4ZM828.94 109.58L823.83 118.42H780.1L758.24 80.57L763.35 71.73L785.2 109.58H828.94ZM822.52 116.1L824.99 111.82H783.92L763.38 76.25L760.91 80.53L781.45 116.1H822.52ZM861.1 53.83L839.24 91.68H795.54L790.43 82.83H834.14L855.99 44.98L861.1 53.83ZM837.96 89.4L858.49 53.83L856.02 49.55L835.48 85.1H794.41L796.88 89.39L837.96 89.4ZM906.1 -28.67H862.43L840.58 9.17999L835.47 0.339996L857.33 -37.51H901.03L906.1 -28.67ZM840.58 4.62L861.1 -30.9H902.17L899.7 -35.18H858.65L838.1 0.339996L840.58 4.62ZM906.1 51.56H895.93L874.1 13.71L895.95 -24.14H906.1L884.29 13.71L906.1 51.56ZM893.59 -7.04001L902.19 -21.9H897.25L876.71 13.71L897.25 49.28H902.19L881.65 13.71L893.59 -7.04001ZM767.18 56.1L745.33 93.95L767.18 131.8H756.97L735.1 93.94L756.97 56.1H767.18ZM742.69 93.94L763.23 58.37H758.28L737.75 93.94L758.28 129.51H763.23L742.69 93.94ZM668.12 93.94L646.27 131.79H636.1L657.95 93.94L636.1 56.1H646.27L668.12 93.94ZM644.96 129.51L665.49 93.94L644.96 58.37H640.01L660.55 93.94L640.01 129.51H644.96ZM699.01 93.94L677.15 131.79H666.94L688.79 93.94L666.94 56.1H677.15L699.01 93.94ZM675.83 129.51L696.37 93.94L675.83 58.37H670.89L691.43 93.94L670.89 129.51H675.83ZM736.3 56.1L714.45 93.94L736.3 131.79H726.1L704.23 93.94L726.1 56.1H736.3ZM711.81 93.94L732.35 58.37H727.35L706.87 93.94L727.4 129.51H732.4L711.81 93.94ZM751.74 131.79H741.53L719.67 93.94L741.53 56.1H751.74L729.89 93.94L751.74 131.79ZM727.25 93.94L747.79 58.37H742.79L722.31 93.94L742.84 129.51H747.84L727.25 93.94ZM776.25 40.46L771.1 49.3L749.25 11.45H705.54L710.65 2.61H754.35L776.25 40.46ZM771.1 44.74L773.57 40.46L753.04 4.89H711.96L709.49 9.17H750.56L771.1 44.74ZM751.74 -135.64H708.03L686.18 -97.79L681.1 -106.63L702.93 -144.48H746.63L751.74 -135.64ZM686.18 -102.35L706.72 -137.9H747.79L745.32 -142.18H704.24L683.71 -106.63L686.18 -102.35ZM890.7 -24.14L868.85 13.71L890.7 51.56H880.49L858.63 13.71L880.49 -24.14H890.7ZM881.81 49.28H886.75L866.21 13.71L886.75 -21.9H881.81L861.27 13.71L881.81 49.28ZM853.41 -120L831.55 -82.15H787.85L782.74 -91H826.45L848.3 -128.85L853.41 -120ZM830.24 -84.43L850.77 -120L848.3 -124.28L827.77 -88.72H786.69L789.16 -84.43H830.24ZM714.45 -39.77L692.59 -1.89999H648.89L643.78 -10.75H687.49L709.34 -48.62L714.45 -39.77ZM691.28 -4.20001L711.81 -39.77L709.34 -44.06L688.8 -8.48999H647.73L650.2 -4.20001H691.28ZM767.18 -108.9H723.47L701.62 -71.04L696.51 -79.9L718.37 -117.74H762.1L767.18 -108.9ZM701.62 -75.61L722.16 -111.18H763.23L760.76 -115.46H719.68L699.15 -79.9L701.62 -75.61ZM759.46 -122.27H715.75L693.9 -84.42L688.79 -93.26L710.65 -131.11H754.35L759.46 -122.27ZM693.9 -88.98L714.44 -124.55H755.51L753.04 -128.83H711.96L691.43 -93.26L693.9 -88.98ZM890.7 -55.41H846.99L825.1 -17.56L820 -26.4L841.85 -64.25H885.55L890.7 -55.41ZM825.1 -22.12L845.64 -57.69H886.71L884.24 -61.97H843.2L822.67 -26.4L825.1 -22.12ZM697.7 -144.48L692.59 -135.64H648.89L631 -166.64V-184.31L654 -144.48H697.7ZM691.28 -137.9L693.75 -142.18H652.67L633.28 -175.8V-167.23L650.2 -137.9H691.28ZM898.42 -42.04H854.71L832.86 -4.19L827.76 -13.03L849.61 -50.9H893.31L898.42 -42.04ZM832.86 -8.75L853.4 -44.32H894.47L892 -48.6H850.93L830.39 -13.03L832.86 -8.75ZM836.66 96.25L831.55 105.1H787.85L765.99 67.2L771.1 58.35L792.95 96.21L836.66 96.25ZM830.24 102.81L832.71 98.53H791.64L771.1 62.92L768.63 67.2L789.17 102.77L830.24 102.81ZM722.17 -26.4L700.31 11.45H656.61L651.5 2.61H695.21L717.1 -35.25L722.17 -26.4ZM699 9.17L719.53 -26.4L717.1 -30.68L696.52 4.89H655.45L657.92 9.17H699ZM845.69 -133.37L823.83 -95.52H780.1L774.99 -104.37H818.7L840.55 -142.22L845.69 -133.37ZM822.52 -97.8L843.1 -133.37L840.63 -137.66L820.1 -102.09H778.97L781.45 -97.8H822.52ZM683.57 -66.52L661.71 -28.67H651.5L673.35 -66.52L651.5 -104.37H661.71L683.57 -66.52ZM660.4 -30.9L680.93 -66.52L660.4 -102.09H655.4L675.99 -66.52L655.45 -30.9H660.4ZM668.1 -66.52L646.27 -28.67H636.1L657.91 -66.52L636.1 -104.37H646.27L668.1 -66.52ZM644.96 -30.9L665.49 -66.52L644.96 -102.09H640.01L660.55 -66.52L640.01 -30.9H644.96ZM828.94 -50.9L823.83 -42.06H780.1L758.27 -79.9L763.38 -88.74L785.23 -50.9H828.94ZM822.52 -44.34L824.99 -48.62H783.92L763.38 -84.17L760.91 -79.9L781.45 -44.33L822.52 -44.34ZM875.26 -24.16L853.41 13.71L875.26 51.56H865.1L843.2 13.71L865.1 -24.14L875.26 -24.16ZM866.36 49.26H871.36L850.77 13.71L871.31 -21.9H866.31L845.83 13.71L866.36 49.26ZM699.01 -66.52L677.15 -28.67H666.94L688.79 -66.52L666.94 -104.37H677.15L699.01 -66.52ZM675.83 -30.9L696.37 -66.52L675.83 -102.09H670.89L691.43 -66.52L670.89 -30.9H675.83ZM706.73 -53.09L684.87 -15.29H641.17L636.1 -24.14H679.77L701.62 -61.99L706.73 -53.09ZM683.56 -17.58L704.1 -53.14L701.63 -57.43L681.1 -21.9H640.01L642.48 -17.62L683.56 -17.58ZM736.3 -104.37L714.45 -66.52L736.3 -28.67H726.1L704.23 -66.52L726.1 -104.37H736.3ZM711.81 -66.52L732.35 -102.09H727.35L706.87 -66.52L727.4 -30.9H732.4L711.81 -66.52ZM767.18 -104.37L745.33 -66.52L767.18 -28.67H756.97L735.1 -66.52L756.96 -104.37H767.18ZM755.1 -87.9L763.28 -102.07H758.33L737.75 -66.52L758.28 -30.9H763.23L742.69 -66.52L755.1 -87.9ZM821.27 -37.49L816.1 -28.67H772.4L750.56 -66.52L755.66 -75.36L777.51 -37.51L821.27 -37.49ZM814.8 -30.9L817.27 -35.18H776.2L755.66 -70.8L753.19 -66.52L773.72 -30.9H814.8ZM751.74 -28.62H741.53L719.67 -66.52L741.53 -104.37H751.74L729.89 -66.52L751.74 -28.62ZM727.25 -66.52L747.79 -102.09H742.79L722.31 -66.52L742.84 -30.9H747.84L727.25 -66.52ZM821.25 122.95L816.1 131.79H772.4L750.55 93.94L755.65 85.1L777.5 122.95H821.25ZM814.83 129.51L817.3 125.23H776.2L755.66 89.66L753.19 93.94L773.72 129.51H814.83ZM911.23 60.33V78.02L903.68 64.94H859.94L865.1 56.1H908.81L911.23 60.33ZM908.95 69.51V60.94L907.47 58.37H866.36L863.89 62.65H904.97L908.95 69.51ZM911.23 33.59V51.28L889.52 13.71L894.62 4.87L911.23 33.59ZM908.95 42.76V34.2L894.65 9.42999L892.18 13.71L908.95 42.76ZM911.23 6.84V24.53L897.23 0.339996L902.33 -8.5L911.23 6.84ZM908.95 16.02V7.45999L902.34 -3.89999L899.87 0.380005L908.95 16.02ZM911.23 -46.64V-28.9L909 -32.81L888.21 -68.78H844.5L849.61 -77.62H893.31L911.23 -46.64ZM908.95 -37.47V-46.03L892 -75.34H850.93L848.45 -71.06H889.52L908.95 -37.47ZM911.23 -23.85V-2.20999L904.99 -13.03L911.23 -23.85ZM908.95 -10.72V-15.34L907.62 -13.03L908.95 -10.72ZM911.23 -73.39V-55.7L895.93 -82.15H852.22L857.33 -91H901.03L911.23 -73.39ZM908.95 -64.21V-72.77L899.75 -88.72H858.65L856.17 -84.43H897.25L908.95 -64.21ZM898.45 118.42H854.71L845.03 135.2H834.82L849.61 109.58H893.31L898.45 118.42ZM843.74 132.92L853.4 116.1H894.47L892 111.82H850.93L838.77 132.88L843.74 132.92ZM890.74 105.05H846.99L829.59 135.2H819.38L841.89 96.2H885.59L890.74 105.05ZM828.31 132.92L845.72 102.77H886.79L884.32 98.49H843.2L823.33 132.92H828.31ZM911.2 87.1V104.79L895.93 78.34H852.22L857.33 69.49H901.03L911.2 87.1ZM908.92 96.28V87.71L899.72 71.77H858.65L856.17 76.06H897.25L908.92 96.28ZM906.1 131.79H862.43L860.43 135.2H850.26L857.33 122.95H901.03L906.1 131.79ZM859.1 132.92L861.1 129.51H902.17L899.7 125.23H858.65L854.21 132.92H859.1ZM911.15 113.82V131.55L908.92 127.63L888.16 91.68H844.5L849.61 82.83H893.31L911.15 113.82ZM908.87 122.99V114.43L892 85.1H850.93L848.45 89.39H889.52L908.87 122.99ZM911.2 -126.9V-109.21L889.52 -146.75L894.62 -155.59L911.2 -126.9ZM908.92 -117.73V-126.29L894.62 -151.06L892.15 -146.78L908.92 -117.73ZM722.82 -188L700.31 -149H656.61L651.5 -157.85H695.21L712.61 -188H722.82ZM699 -151.29L718.87 -185.72H713.93L696.52 -155.57H655.45L657.92 -151.29H699ZM830.9 -188L825.14 -178L819.38 -188H830.9ZM825.1 -182.58L826.91 -185.72H823.29L825.1 -182.58ZM846.31 -188L832.86 -164.65L827.76 -173.49L836.1 -188H846.31ZM832.86 -169.21L842.4 -185.72H837.4L830.34 -173.49L832.86 -169.21ZM691.94 -188L684.87 -175.75H641.17L636.1 -184.6H679.77L681.77 -188H691.94ZM683.56 -178L687.99 -185.69H683.1L681.1 -182.29H640.01L642.48 -178H683.56ZM707.38 -188L692.59 -162.38H648.89L643.78 -171.22H687.49L697.17 -188H707.38ZM691.28 -164.66L703.43 -185.72H698.49L688.8 -168.9H647.73L650.2 -164.66H691.28ZM861.79 -188L840.58 -151.27L835.47 -160.12L851.57 -188H861.79ZM840.58 -155.84L857.84 -185.72H852.84L838.1 -160.12L840.58 -155.84ZM722.82 135.2H711.3L717.06 125.2L722.82 135.2ZM715.25 132.92H718.87L717.1 129.77L715.25 132.92ZM911.25 -153.61V-135.9L897.25 -160.09L902.35 -168.93L911.25 -153.61ZM908.97 -144.44V-153L902.39 -164.4L899.92 -160.12L908.97 -144.44ZM911.25 -184.31V-162.67L905.01 -173.49L911.25 -184.31ZM908.97 -171.18V-175.79L907.64 -173.49L908.97 -171.18ZM911.25 -100.13V-82.44L903.65 -95.52H859.94L865.1 -104.37H908.81L911.25 -100.13ZM908.92 -90.9V-99.47L907.44 -102.04H866.36L863.89 -97.75H904.97L908.92 -90.9ZM861.1 -106.63L839.27 -68.78H795.57L790.46 -77.62H834.17L856.02 -115.47L861.1 -106.63ZM837.96 -71.06L858.49 -106.63L856.02 -110.9L835.48 -75.34H794.41L796.88 -71.06H837.96ZM783.96 -133.37L778.85 -124.53L756.97 -162.38H713.26L718.37 -171.22H762.1L783.96 -133.37ZM778.85 -129.09L781.32 -133.37L760.76 -168.9H719.68L717.21 -164.62H758.28L778.85 -129.09ZM791.68 -146.75L786.54 -137.9L764.69 -175.75H720.98L726.1 -184.6H769.8L791.68 -146.75ZM786.57 -142.46L789.04 -146.75L768.48 -182.32H727.4L724.93 -178.03H766L786.57 -142.46ZM807.1 -146.75L785.23 -108.9H775.02L796.87 -146.76L775.02 -184.6H785.23L807.1 -146.75ZM783.92 -111.18L804.45 -146.75L783.92 -182.32H778.97L799.51 -146.75L778.97 -111.18H783.92ZM689.98 -131.11L684.87 -122.27H641.17L631 -139.9V-157.57L646.27 -131.11H689.98ZM683.56 -124.55L686.03 -128.83H644.96L633.28 -149.05V-140.49L642.48 -124.55H683.56ZM776.21 -120L771.1 -111.16L749.25 -149.01H705.54L710.65 -157.85H754.35L776.21 -120ZM771.1 -115.72L773.57 -120L753.04 -155.57H711.96L709.49 -151.29H750.56L771.1 -115.72ZM822.53 -146.72L800.67 -108.9H790.46L812.32 -146.76L790.46 -184.6H800.67L822.53 -146.72ZM799.36 -111.18L819.89 -146.75L799.36 -182.32H794.41L814.95 -146.75L794.41 -111.18H799.36ZM682.26 -117.74L677.15 -108.9H633.45L631 -113.14V-130.82L638.55 -117.74H682.26ZM675.84 -111.18L678.31 -115.46H637.23L633.28 -122.31V-113.75L634.76 -111.18H675.84ZM890.7 -184.6L868.85 -146.75L890.7 -108.9H880.49L858.63 -146.75L880.49 -184.6H890.7ZM866.21 -146.75L886.75 -182.32H881.81L861.27 -146.75L881.81 -111.18H886.75L866.21 -146.75ZM906.1 -108.9H895.93L874.1 -146.75L895.93 -184.6H906.1L884.29 -146.75L906.1 -108.9ZM893.63 -167.5L902.19 -182.32H897.25L876.71 -146.75L897.25 -111.18H902.19L881.65 -146.75L893.63 -167.5ZM837.97 -146.75L816.1 -108.9H805.9L827.76 -146.76L805.9 -184.6H816.1L837.97 -146.75ZM814.8 -111.18L835.33 -146.75L814.8 -182.32H809.85L830.39 -146.75L809.85 -111.18H814.8ZM875.26 -184.6L853.41 -146.75L875.26 -108.9H865.1L843.2 -146.75L865.1 -184.6H875.26ZM850.77 -146.75L871.31 -182.32H866.31L845.83 -146.75L866.36 -111.18H871.36L850.77 -146.75ZM637.24 120.69L631 131.5V109.86L637.24 120.69ZM633.24 122.99L634.57 120.69L633.24 118.38V122.99ZM644.96 107.31L639.86 116.16L631 100.81V83.1L644.96 107.31ZM640.43 110.6L642.33 107.31L633.33 91.63V100.2L639.91 111.6L640.43 110.6ZM652.68 93.94L647.58 102.79L631 74.1V56.38L652.68 93.94ZM647.58 98.22L650.1 93.94L633.33 64.89V73.46L647.58 98.22ZM682.26 42.72L677.15 51.56H633.45L631 47.32V29.64L638.55 42.72H682.26ZM675.84 49.28L678.31 45H637.23L633.28 38.15V46.71L634.76 49.28H675.84ZM714.45 120.69L706.1 135.2H695.86L709.34 111.84L714.45 120.69ZM704.75 132.92L711.81 120.69L709.34 116.4L699.81 132.92H704.75ZM706.75 107.31L690.63 135.2H680.41L701.62 98.47L706.75 107.31ZM689.31 132.92L704.1 107.31L701.63 103.03L684.37 132.92H689.31ZM644.96 -53.15L639.86 -44.3L631 -59.65V-77.34L644.96 -53.15ZM640.43 -49.9L642.33 -53.19L633.33 -68.86V-60.3L639.86 -48.9L640.43 -49.9ZM689.98 29.31L684.87 38.15H641.17L631 20.58V2.89L646.27 29.35L689.98 29.31ZM683.56 35.87L686.03 31.59H644.96L633.28 11.4V19.97L642.48 35.91L683.56 35.87ZM652.68 -66.52L647.58 -57.67L631 -86.39V-104.08L652.68 -66.52ZM647.58 -62.23L650.1 -66.52L633.33 -95.52V-87L647.58 -62.23ZM637.24 -39.77L631 -28.9V-50.59L637.24 -39.77ZM633.24 -37.47L634.57 -39.77L633.24 -42.08V-37.47ZM697.7 15.98L692.59 24.82H648.89L631 -6.17999V-23.85L654 15.98H697.7ZM691.28 22.54L693.75 18.26H652.67L633.28 -15.34V-6.77L650.2 22.54H691.28Z" fill="#D1CF9C" fill-opacity="0.26"/>
<path d="M-100.26 24.82H-143.97L-165.82 62.67L-170.9 53.83L-149.04 15.98H-105.34L-100.26 24.82ZM-165.82 58.1L-145.28 22.53H-104.21L-106.68 18.25H-147.76L-168.29 53.83L-165.82 58.1ZM-68.07 27.1L-73.18 35.95L-95.03 -1.89999H-138.74L-133.63 -10.75H-89.9L-68.07 27.1ZM-73.18 31.39L-70.71 27.1L-91.24 -8.48999H-132.32L-134.79 -4.20001H-93.72L-73.18 31.39ZM-44.9 13.71L-66.76 51.56H-76.98L-55.13 13.71L-76.98 -24.14H-66.77L-44.9 13.71ZM-68.07 49.28L-47.54 13.71L-68.08 -21.9H-73.03L-52.49 13.67L-73.03 49.24L-68.07 49.28ZM-60.34 13.71L-65.45 22.56L-87.31 -15.29H-131.02L-125.9 -24.14H-82.2L-60.34 13.71ZM-65.45 17.99L-62.98 13.71L-83.52 -21.9H-124.6L-127.07 -17.62H-86L-65.45 17.99ZM-15.33 -64.25L-20.44 -55.41H-64.14L-86.01 -93.26L-80.9 -102.1L-59.05 -64.25H-15.33ZM-21.75 -57.69L-19.28 -61.97H-60.36L-80.9 -97.54L-83.37 -93.26L-62.83 -57.69H-21.75ZM-29.46 13.71L-51.32 51.56H-61.54L-39.68 13.71L-61.54 -24.14H-51.33L-29.46 13.71ZM-52.63 49.28L-32.1 13.71L-52.64 -21.9H-57.59L-37.05 13.67L-57.59 49.24L-52.63 49.28ZM-14.02 13.71L-35.9 51.56H-46.1L-24.24 13.71L-46.1 -24.14H-35.9L-14.02 13.71ZM-37.2 49.28L-16.67 13.71L-37.2 -21.9H-42.15L-21.61 13.67L-42.15 49.24L-37.2 49.28ZM-6.31 27.1L-28.17 64.96H-71.9L-76.98 56.1H-33.27L-11.42 18.25L-6.31 27.1ZM-29.48 62.67L-8.89999 27.1L-11.37 22.82L-31.9 58.37H-73.03L-70.56 62.65L-29.48 62.67ZM-84.82 51.58H-128.53L-150.38 89.41L-155.49 80.57L-133.63 42.72H-89.9L-84.82 51.58ZM-150.38 84.85L-129.84 49.28H-88.77L-91.24 45H-132.32L-152.85 80.57L-150.38 84.85ZM1.41 40.46L-20.45 78.31H-64.15L-69.26 69.46H-25.55L-3.7 31.61L1.41 40.46ZM-21.76 76.03L-1.23 40.46L-3.7 36.17L-24.23 71.74H-65.31L-62.84 76.03H-21.76ZM-92.54 38.19H-136.25L-158.1 76.04L-163.21 67.2L-141.35 29.35H-97.65L-92.54 38.19ZM-158.1 71.48L-137.56 35.91H-96.49L-98.96 31.63H-140.04L-160.57 67.2L-158.1 71.48ZM-168.43 93.94L-190.29 131.79H-200.5L-178.65 93.94L-200.5 56.1H-190.29L-168.43 93.94ZM-191.6 129.51L-171.07 93.94L-191.6 58.37H-196.6L-176.06 93.94L-196.55 129.51H-191.6ZM-23.06 109.58L-28.17 118.42H-71.9L-93.76 80.57L-88.65 71.73L-66.8 109.58H-23.06ZM-29.48 116.1L-27.01 111.82H-68.08L-88.62 76.25L-91.09 80.53L-70.55 116.1H-29.48ZM9.10001 53.83L-12.76 91.68H-56.46L-61.57 82.83H-17.86L3.99001 44.98L9.10001 53.83ZM-14.04 89.4L6.49001 53.83L4.02 49.55L-16.52 85.1H-57.59L-55.12 89.39L-14.04 89.4ZM54.1 -28.67H10.43L-11.42 9.17999L-16.53 0.339996L5.33 -37.51H49.03L54.1 -28.67ZM-11.42 4.62L9.10001 -30.9H50.17L47.7 -35.18H6.65001L-13.9 0.339996L-11.42 4.62ZM54.1 51.56H43.93L22.1 13.71L43.95 -24.14H54.1L32.29 13.71L54.1 51.56ZM41.59 -7.04001L50.19 -21.9H45.25L24.71 13.71L45.25 49.28H50.19L29.65 13.71L41.59 -7.04001ZM-84.82 56.1L-106.67 93.95L-84.82 131.8H-95.03L-116.9 93.94L-95.03 56.1H-84.82ZM-109.31 93.94L-88.77 58.37H-93.72L-114.25 93.94L-93.72 129.51H-88.77L-109.31 93.94ZM-183.88 93.94L-205.73 131.79H-215.9L-194.05 93.94L-215.9 56.1H-205.73L-183.88 93.94ZM-207.04 129.51L-186.51 93.94L-207.04 58.37H-211.99L-191.45 93.94L-211.99 129.51H-207.04ZM-152.99 93.94L-174.85 131.79H-185.06L-163.21 93.94L-185.06 56.1H-174.85L-152.99 93.94ZM-176.17 129.51L-155.63 93.94L-176.17 58.37H-181.11L-160.57 93.94L-181.11 129.51H-176.17ZM-115.7 56.1L-137.55 93.94L-115.7 131.79H-125.9L-147.77 93.94L-125.9 56.1H-115.7ZM-140.19 93.94L-119.65 58.37H-124.65L-145.13 93.94L-124.6 129.51H-119.6L-140.19 93.94ZM-100.26 131.79H-110.47L-132.33 93.94L-110.47 56.1H-100.26L-122.11 93.94L-100.26 131.79ZM-124.75 93.94L-104.21 58.37H-109.21L-129.69 93.94L-109.16 129.51H-104.16L-124.75 93.94ZM-75.75 40.46L-80.9 49.3L-102.75 11.45H-146.46L-141.35 2.61H-97.65L-75.75 40.46ZM-80.9 44.74L-78.43 40.46L-98.96 4.89H-140.04L-142.51 9.17H-101.44L-80.9 44.74ZM-100.26 -135.64H-143.97L-165.82 -97.79L-170.9 -106.63L-149.07 -144.48H-105.37L-100.26 -135.64ZM-165.82 -102.35L-145.28 -137.9H-104.21L-106.68 -142.18H-147.76L-168.29 -106.63L-165.82 -102.35ZM38.7 -24.14L16.85 13.71L38.7 51.56H28.49L6.63 13.71L28.49 -24.14H38.7ZM29.81 49.28H34.75L14.21 13.71L34.75 -21.9H29.81L9.27 13.71L29.81 49.28ZM1.41 -120L-20.45 -82.15H-64.15L-69.26 -91H-25.55L-3.7 -128.85L1.41 -120ZM-21.76 -84.43L-1.23 -120L-3.7 -124.28L-24.23 -88.72H-65.31L-62.84 -84.43H-21.76ZM-137.55 -39.77L-159.41 -1.89999H-203.11L-208.22 -10.75H-164.51L-142.66 -48.62L-137.55 -39.77ZM-160.72 -4.20001L-140.19 -39.77L-142.66 -44.06L-163.2 -8.48999H-204.27L-201.8 -4.20001H-160.72ZM-84.82 -108.9H-128.53L-150.38 -71.04L-155.49 -79.9L-133.63 -117.74H-89.9L-84.82 -108.9ZM-150.38 -75.61L-129.84 -111.18H-88.77L-91.24 -115.46H-132.32L-152.85 -79.9L-150.38 -75.61ZM-92.54 -122.27H-136.25L-158.1 -84.42L-163.21 -93.26L-141.35 -131.11H-97.65L-92.54 -122.27ZM-158.1 -88.98L-137.56 -124.55H-96.49L-98.96 -128.83H-140.04L-160.57 -93.26L-158.1 -88.98ZM38.7 -55.41H-5.00999L-26.9 -17.56L-32 -26.4L-10.15 -64.25H33.55L38.7 -55.41ZM-26.9 -22.12L-6.36 -57.69H34.71L32.24 -61.97H-8.79999L-29.33 -26.4L-26.9 -22.12ZM-154.3 -144.48L-159.41 -135.64H-203.11L-221 -166.64V-184.31L-198 -144.48H-154.3ZM-160.72 -137.9L-158.25 -142.18H-199.33L-218.72 -175.8V-167.23L-201.8 -137.9H-160.72ZM46.42 -42.04H2.71001L-19.14 -4.19L-24.24 -13.03L-2.39 -50.9H41.31L46.42 -42.04ZM-19.14 -8.75L1.40001 -44.32H42.47L40 -48.6H-1.06999L-21.61 -13.03L-19.14 -8.75ZM-15.34 96.25L-20.45 105.1H-64.15L-86.01 67.2L-80.9 58.35L-59.05 96.21L-15.34 96.25ZM-21.76 102.81L-19.29 98.53H-60.36L-80.9 62.92L-83.37 67.2L-62.83 102.77L-21.76 102.81ZM-129.83 -26.4L-151.69 11.45H-195.39L-200.5 2.61H-156.79L-134.9 -35.25L-129.83 -26.4ZM-153 9.17L-132.47 -26.4L-134.9 -30.68L-155.48 4.89H-196.55L-194.08 9.17H-153ZM-6.31 -133.37L-28.17 -95.52H-71.9L-77.01 -104.37H-33.3L-11.45 -142.22L-6.31 -133.37ZM-29.48 -97.8L-8.89999 -133.37L-11.37 -137.66L-31.9 -102.09H-73.03L-70.55 -97.8H-29.48ZM-168.43 -66.52L-190.29 -28.67H-200.5L-178.65 -66.52L-200.5 -104.37H-190.29L-168.43 -66.52ZM-191.6 -30.9L-171.07 -66.52L-191.6 -102.09H-196.6L-176.01 -66.52L-196.55 -30.9H-191.6ZM-183.9 -66.52L-205.73 -28.67H-215.9L-194.09 -66.52L-215.9 -104.37H-205.73L-183.9 -66.52ZM-207.04 -30.9L-186.51 -66.52L-207.04 -102.09H-211.99L-191.45 -66.52L-211.99 -30.9H-207.04ZM-23.06 -50.9L-28.17 -42.06H-71.9L-93.73 -79.9L-88.62 -88.74L-66.77 -50.9H-23.06ZM-29.48 -44.34L-27.01 -48.62H-68.08L-88.62 -84.17L-91.09 -79.9L-70.55 -44.33L-29.48 -44.34ZM23.26 -24.16L1.41 13.71L23.26 51.56H13.1L-8.79999 13.71L13.1 -24.14L23.26 -24.16ZM14.36 49.26H19.36L-1.23 13.71L19.31 -21.9H14.31L-6.17 13.71L14.36 49.26ZM-152.99 -66.52L-174.85 -28.67H-185.06L-163.21 -66.52L-185.06 -104.37H-174.85L-152.99 -66.52ZM-176.17 -30.9L-155.63 -66.52L-176.17 -102.09H-181.11L-160.57 -66.52L-181.11 -30.9H-176.17ZM-145.27 -53.09L-167.13 -15.29H-210.83L-215.9 -24.14H-172.23L-150.38 -61.99L-145.27 -53.09ZM-168.44 -17.58L-147.9 -53.14L-150.37 -57.43L-170.9 -21.9H-211.99L-209.52 -17.62L-168.44 -17.58ZM-115.7 -104.37L-137.55 -66.52L-115.7 -28.67H-125.9L-147.77 -66.52L-125.9 -104.37H-115.7ZM-140.19 -66.52L-119.65 -102.09H-124.65L-145.13 -66.52L-124.6 -30.9H-119.6L-140.19 -66.52ZM-84.82 -104.37L-106.67 -66.52L-84.82 -28.67H-95.03L-116.9 -66.52L-95.04 -104.37H-84.82ZM-96.9 -87.9L-88.72 -102.07H-93.67L-114.25 -66.52L-93.72 -30.9H-88.77L-109.31 -66.52L-96.9 -87.9ZM-30.73 -37.49L-35.9 -28.67H-79.6L-101.44 -66.52L-96.34 -75.36L-74.49 -37.51L-30.73 -37.49ZM-37.2 -30.9L-34.73 -35.18H-75.8L-96.34 -70.8L-98.81 -66.52L-78.28 -30.9H-37.2ZM-100.26 -28.62H-110.47L-132.33 -66.52L-110.47 -104.37H-100.26L-122.11 -66.52L-100.26 -28.62ZM-124.75 -66.52L-104.21 -102.09H-109.21L-129.69 -66.52L-109.16 -30.9H-104.16L-124.75 -66.52ZM-30.75 122.95L-35.9 131.79H-79.6L-101.45 93.94L-96.35 85.1L-74.5 122.95H-30.75ZM-37.17 129.51L-34.7 125.23H-75.8L-96.34 89.66L-98.81 93.94L-78.28 129.51H-37.17ZM59.23 60.33V78.02L51.68 64.94H7.94L13.1 56.1H56.81L59.23 60.33ZM56.95 69.51V60.94L55.47 58.37H14.36L11.89 62.65H52.97L56.95 69.51ZM59.23 33.59V51.28L37.52 13.71L42.62 4.87L59.23 33.59ZM56.95 42.76V34.2L42.65 9.42999L40.18 13.71L56.95 42.76ZM59.23 6.84V24.53L45.23 0.339996L50.33 -8.5L59.23 6.84ZM56.95 16.02V7.45999L50.34 -3.89999L47.87 0.380005L56.95 16.02ZM59.23 -46.64V-28.9L57 -32.81L36.21 -68.78H-7.5L-2.39 -77.62H41.31L59.23 -46.64ZM56.95 -37.47V-46.03L40 -75.34H-1.06999L-3.54999 -71.06H37.52L56.95 -37.47ZM59.23 -23.85V-2.20999L52.99 -13.03L59.23 -23.85ZM56.95 -10.72V-15.34L55.62 -13.03L56.95 -10.72ZM59.23 -73.39V-55.7L43.93 -82.15H0.220001L5.33 -91H49.03L59.23 -73.39ZM56.95 -64.21V-72.77L47.75 -88.72H6.65001L4.17001 -84.43H45.25L56.95 -64.21ZM46.45 118.42H2.71001L-6.97 135.2H-17.18L-2.39 109.58H41.31L46.45 118.42ZM-8.25999 132.92L1.40001 116.1H42.47L40 111.82H-1.06999L-13.23 132.88L-8.25999 132.92ZM38.74 105.05H-5.00999L-22.41 135.2H-32.62L-10.11 96.2H33.59L38.74 105.05ZM-23.69 132.92L-6.28 102.77H34.79L32.32 98.49H-8.79999L-28.67 132.92H-23.69ZM59.2 87.1V104.79L43.93 78.34H0.220001L5.33 69.49H49.03L59.2 87.1ZM56.92 96.28V87.71L47.72 71.77H6.65001L4.17001 76.06H45.25L56.92 96.28ZM54.1 131.79H10.43L8.43001 135.2H-1.73999L5.33 122.95H49.03L54.1 131.79ZM7.10001 132.92L9.10001 129.51H50.17L47.7 125.23H6.65001L2.21001 132.92H7.10001ZM59.15 113.82V131.55L56.92 127.63L36.16 91.68H-7.5L-2.39 82.83H41.31L59.15 113.82ZM56.87 122.99V114.43L40 85.1H-1.06999L-3.54999 89.39H37.52L56.87 122.99ZM59.2 -126.9V-109.21L37.52 -146.75L42.62 -155.59L59.2 -126.9ZM56.92 -117.73V-126.29L42.62 -151.06L40.15 -146.78L56.92 -117.73ZM-129.18 -188L-151.69 -149H-195.39L-200.5 -157.85H-156.79L-139.39 -188H-129.18ZM-153 -151.29L-133.13 -185.72H-138.07L-155.48 -155.57H-196.55L-194.08 -151.29H-153ZM-21.1 -188L-26.86 -178L-32.62 -188H-21.1ZM-26.9 -182.58L-25.09 -185.72H-28.71L-26.9 -182.58ZM-5.68999 -188L-19.14 -164.65L-24.24 -173.49L-15.9 -188H-5.68999ZM-19.14 -169.21L-9.59999 -185.72H-14.6L-21.66 -173.49L-19.14 -169.21ZM-160.06 -188L-167.13 -175.75H-210.83L-215.9 -184.6H-172.23L-170.23 -188H-160.06ZM-168.44 -178L-164.01 -185.69H-168.9L-170.9 -182.29H-211.99L-209.52 -178H-168.44ZM-144.62 -188L-159.41 -162.38H-203.11L-208.22 -171.22H-164.51L-154.83 -188H-144.62ZM-160.72 -164.66L-148.57 -185.72H-153.51L-163.2 -168.9H-204.27L-201.8 -164.66H-160.72ZM9.79001 -188L-11.42 -151.27L-16.53 -160.12L-0.429993 -188H9.79001ZM-11.42 -155.84L5.84001 -185.72H0.840012L-13.9 -160.12L-11.42 -155.84ZM-129.18 135.2H-140.7L-134.94 125.2L-129.18 135.2ZM-136.75 132.92H-133.13L-134.9 129.77L-136.75 132.92ZM59.25 -153.61V-135.9L45.25 -160.09L50.35 -168.93L59.25 -153.61ZM56.97 -144.44V-153L50.39 -164.4L47.92 -160.12L56.97 -144.44ZM59.25 -184.31V-162.67L53.01 -173.49L59.25 -184.31ZM56.97 -171.18V-175.79L55.64 -173.49L56.97 -171.18ZM59.25 -100.13V-82.44L51.65 -95.52H7.94L13.1 -104.37H56.81L59.25 -100.13ZM56.92 -90.9V-99.47L55.44 -102.04H14.36L11.89 -97.75H52.97L56.92 -90.9ZM9.10001 -106.63L-12.73 -68.78H-56.43L-61.54 -77.62H-17.83L4.02 -115.47L9.10001 -106.63ZM-14.04 -71.06L6.49001 -106.63L4.02 -110.9L-16.52 -75.34H-57.59L-55.12 -71.06H-14.04ZM-68.04 -133.37L-73.15 -124.53L-95.03 -162.38H-138.74L-133.63 -171.22H-89.9L-68.04 -133.37ZM-73.15 -129.09L-70.68 -133.37L-91.24 -168.9H-132.32L-134.79 -164.62H-93.72L-73.15 -129.09ZM-60.32 -146.75L-65.46 -137.9L-87.31 -175.75H-131.02L-125.9 -184.6H-82.2L-60.32 -146.75ZM-65.43 -142.46L-62.96 -146.75L-83.52 -182.32H-124.6L-127.07 -178.03H-86L-65.43 -142.46ZM-44.9 -146.75L-66.77 -108.9H-76.98L-55.13 -146.76L-76.98 -184.6H-66.77L-44.9 -146.75ZM-68.08 -111.18L-47.55 -146.75L-68.08 -182.32H-73.03L-52.49 -146.75L-73.03 -111.18H-68.08ZM-162.02 -131.11L-167.13 -122.27H-210.83L-221 -139.9V-157.57L-205.73 -131.11H-162.02ZM-168.44 -124.55L-165.97 -128.83H-207.04L-218.72 -149.05V-140.49L-209.52 -124.55H-168.44ZM-75.79 -120L-80.9 -111.16L-102.75 -149.01H-146.46L-141.35 -157.85H-97.65L-75.79 -120ZM-80.9 -115.72L-78.43 -120L-98.96 -155.57H-140.04L-142.51 -151.29H-101.44L-80.9 -115.72ZM-29.47 -146.72L-51.33 -108.9H-61.54L-39.68 -146.76L-61.54 -184.6H-51.33L-29.47 -146.72ZM-52.64 -111.18L-32.11 -146.75L-52.64 -182.32H-57.59L-37.05 -146.75L-57.59 -111.18H-52.64ZM-169.74 -117.74L-174.85 -108.9H-218.55L-221 -113.14V-130.82L-213.45 -117.74H-169.74ZM-176.16 -111.18L-173.69 -115.46H-214.77L-218.72 -122.31V-113.75L-217.24 -111.18H-176.16ZM38.7 -184.6L16.85 -146.75L38.7 -108.9H28.49L6.63 -146.75L28.49 -184.6H38.7ZM14.21 -146.75L34.75 -182.32H29.81L9.27 -146.75L29.81 -111.18H34.75L14.21 -146.75ZM54.1 -108.9H43.93L22.1 -146.75L43.93 -184.6H54.1L32.29 -146.75L54.1 -108.9ZM41.63 -167.5L50.19 -182.32H45.25L24.71 -146.75L45.25 -111.18H50.19L29.65 -146.75L41.63 -167.5ZM-14.03 -146.75L-35.9 -108.9H-46.1L-24.24 -146.76L-46.1 -184.6H-35.9L-14.03 -146.75ZM-37.2 -111.18L-16.67 -146.75L-37.2 -182.32H-42.15L-21.61 -146.75L-42.15 -111.18H-37.2ZM23.26 -184.6L1.41 -146.75L23.26 -108.9H13.1L-8.79999 -146.75L13.1 -184.6H23.26ZM-1.23 -146.75L19.31 -182.32H14.31L-6.17 -146.75L14.36 -111.18H19.36L-1.23 -146.75ZM-214.76 120.69L-221 131.5V109.86L-214.76 120.69ZM-218.76 122.99L-217.43 120.69L-218.76 118.38V122.99ZM-207.04 107.31L-212.14 116.16L-221 100.81V83.1L-207.04 107.31ZM-211.57 110.6L-209.67 107.31L-218.67 91.63V100.2L-212.09 111.6L-211.57 110.6ZM-199.32 93.94L-204.42 102.79L-221 74.1V56.38L-199.32 93.94ZM-204.42 98.22L-201.9 93.94L-218.67 64.89V73.46L-204.42 98.22ZM-169.74 42.72L-174.85 51.56H-218.55L-221 47.32V29.64L-213.45 42.72H-169.74ZM-176.16 49.28L-173.69 45H-214.77L-218.72 38.15V46.71L-217.24 49.28H-176.16ZM-137.55 120.69L-145.9 135.2H-156.14L-142.66 111.84L-137.55 120.69ZM-147.25 132.92L-140.19 120.69L-142.66 116.4L-152.19 132.92H-147.25ZM-145.25 107.31L-161.37 135.2H-171.59L-150.38 98.47L-145.25 107.31ZM-162.69 132.92L-147.9 107.31L-150.37 103.03L-167.63 132.92H-162.69ZM-207.04 -53.15L-212.14 -44.3L-221 -59.65V-77.34L-207.04 -53.15ZM-211.57 -49.9L-209.67 -53.19L-218.67 -68.86V-60.3L-212.14 -48.9L-211.57 -49.9ZM-162.02 29.31L-167.13 38.15H-210.83L-221 20.58V2.89L-205.73 29.35L-162.02 29.31ZM-168.44 35.87L-165.97 31.59H-207.04L-218.72 11.4V19.97L-209.52 35.91L-168.44 35.87ZM-199.32 -66.52L-204.42 -57.67L-221 -86.39V-104.08L-199.32 -66.52ZM-204.42 -62.23L-201.9 -66.52L-218.67 -95.52V-87L-204.42 -62.23ZM-214.76 -39.77L-221 -28.9V-50.59L-214.76 -39.77ZM-218.76 -37.47L-217.43 -39.77L-218.76 -42.08V-37.47ZM-154.3 15.98L-159.41 24.82H-203.11L-221 -6.17999V-23.85L-198 15.98H-154.3ZM-160.72 22.54L-158.25 18.26H-199.33L-218.72 -15.34V-6.77L-201.8 22.54H-160.72Z" fill="#D1CF9C" fill-opacity="0.26"/>
<path d="M467.74 24.82H424.03L402.18 62.67L397.1 53.83L418.96 15.98H462.66L467.74 24.82ZM402.18 58.1L422.72 22.53H463.79L461.32 18.25H420.24L399.71 53.83L402.18 58.1ZM499.93 27.1L494.82 35.95L472.97 -1.89999H429.26L434.37 -10.75H478.1L499.93 27.1ZM494.82 31.39L497.29 27.1L476.76 -8.48999H435.68L433.21 -4.20001H474.28L494.82 31.39ZM523.1 13.71L501.24 51.56H491.02L512.87 13.71L491.02 -24.14H501.23L523.1 13.71ZM499.93 49.28L520.46 13.71L499.92 -21.9H494.97L515.51 13.67L494.97 49.24L499.93 49.28ZM507.66 13.71L502.55 22.56L480.69 -15.29H436.98L442.1 -24.14H485.8L507.66 13.71ZM502.55 17.99L505.02 13.71L484.48 -21.9H443.4L440.93 -17.62H482L502.55 17.99ZM552.67 -64.25L547.56 -55.41H503.86L481.99 -93.26L487.1 -102.1L508.95 -64.25H552.67ZM546.25 -57.69L548.72 -61.97H507.64L487.1 -97.54L484.63 -93.26L505.17 -57.69H546.25ZM538.54 13.71L516.68 51.56H506.46L528.32 13.71L506.46 -24.14H516.67L538.54 13.71ZM515.37 49.28L535.9 13.71L515.36 -21.9H510.41L530.95 13.67L510.41 49.24L515.37 49.28ZM553.98 13.71L532.1 51.56H521.9L543.76 13.71L521.9 -24.14H532.1L553.98 13.71ZM530.8 49.28L551.33 13.71L530.8 -21.9H525.85L546.39 13.67L525.85 49.24L530.8 49.28ZM561.69 27.1L539.83 64.96H496.1L491.02 56.1H534.73L556.58 18.25L561.69 27.1ZM538.52 62.67L559.1 27.1L556.63 22.82L536.1 58.37H494.97L497.44 62.65L538.52 62.67ZM483.18 51.58H439.47L417.62 89.41L412.51 80.57L434.37 42.72H478.1L483.18 51.58ZM417.62 84.85L438.16 49.28H479.23L476.76 45H435.68L415.15 80.57L417.62 84.85ZM569.41 40.46L547.55 78.31H503.85L498.74 69.46H542.45L564.3 31.61L569.41 40.46ZM546.24 76.03L566.77 40.46L564.3 36.17L543.77 71.74H502.69L505.16 76.03H546.24ZM475.46 38.19H431.75L409.9 76.04L404.79 67.2L426.65 29.35H470.35L475.46 38.19ZM409.9 71.48L430.44 35.91H471.51L469.04 31.63H427.96L407.43 67.2L409.9 71.48ZM399.57 93.94L377.71 131.79H367.5L389.35 93.94L367.5 56.1H377.71L399.57 93.94ZM376.4 129.51L396.93 93.94L376.4 58.37H371.4L391.94 93.94L371.45 129.51H376.4ZM544.94 109.58L539.83 118.42H496.1L474.24 80.57L479.35 71.73L501.2 109.58H544.94ZM538.52 116.1L540.99 111.82H499.92L479.38 76.25L476.91 80.53L497.45 116.1H538.52ZM577.1 53.83L555.24 91.68H511.54L506.43 82.83H550.14L571.99 44.98L577.1 53.83ZM553.96 89.4L574.49 53.83L572.02 49.55L551.48 85.1H510.41L512.88 89.39L553.96 89.4ZM622.1 -28.67H578.43L556.58 9.17999L551.47 0.339996L573.33 -37.51H617.03L622.1 -28.67ZM556.58 4.62L577.1 -30.9H618.17L615.7 -35.18H574.65L554.1 0.339996L556.58 4.62ZM622.1 51.56H611.93L590.1 13.71L611.95 -24.14H622.1L600.29 13.71L622.1 51.56ZM609.59 -7.04001L618.19 -21.9H613.25L592.71 13.71L613.25 49.28H618.19L597.65 13.71L609.59 -7.04001ZM483.18 56.1L461.33 93.95L483.18 131.8H472.97L451.1 93.94L472.97 56.1H483.18ZM458.69 93.94L479.23 58.37H474.28L453.75 93.94L474.28 129.51H479.23L458.69 93.94ZM384.12 93.94L362.27 131.79H352.1L373.95 93.94L352.1 56.1H362.27L384.12 93.94ZM360.96 129.51L381.49 93.94L360.96 58.37H356.01L376.55 93.94L356.01 129.51H360.96ZM415.01 93.94L393.15 131.79H382.94L404.79 93.94L382.94 56.1H393.15L415.01 93.94ZM391.83 129.51L412.37 93.94L391.83 58.37H386.89L407.43 93.94L386.89 129.51H391.83ZM452.3 56.1L430.45 93.94L452.3 131.79H442.1L420.23 93.94L442.1 56.1H452.3ZM427.81 93.94L448.35 58.37H443.35L422.87 93.94L443.4 129.51H448.4L427.81 93.94ZM467.74 131.79H457.53L435.67 93.94L457.53 56.1H467.74L445.89 93.94L467.74 131.79ZM443.25 93.94L463.79 58.37H458.79L438.31 93.94L458.84 129.51H463.84L443.25 93.94ZM492.25 40.46L487.1 49.3L465.25 11.45H421.54L426.65 2.61H470.35L492.25 40.46ZM487.1 44.74L489.57 40.46L469.04 4.89H427.96L425.49 9.17H466.56L487.1 44.74ZM467.74 -135.64H424.03L402.18 -97.79L397.1 -106.63L418.93 -144.48H462.63L467.74 -135.64ZM402.18 -102.35L422.72 -137.9H463.79L461.32 -142.18H420.24L399.71 -106.63L402.18 -102.35ZM606.7 -24.14L584.85 13.71L606.7 51.56H596.49L574.63 13.71L596.49 -24.14H606.7ZM597.81 49.28H602.75L582.21 13.71L602.75 -21.9H597.81L577.27 13.71L597.81 49.28ZM569.41 -120L547.55 -82.15H503.85L498.74 -91H542.45L564.3 -128.85L569.41 -120ZM546.24 -84.43L566.77 -120L564.3 -124.28L543.77 -88.72H502.69L505.16 -84.43H546.24ZM430.45 -39.77L408.59 -1.89999H364.89L359.78 -10.75H403.49L425.34 -48.62L430.45 -39.77ZM407.28 -4.20001L427.81 -39.77L425.34 -44.06L404.8 -8.48999H363.73L366.2 -4.20001H407.28ZM483.18 -108.9H439.47L417.62 -71.04L412.51 -79.9L434.37 -117.74H478.1L483.18 -108.9ZM417.62 -75.61L438.16 -111.18H479.23L476.76 -115.46H435.68L415.15 -79.9L417.62 -75.61ZM475.46 -122.27H431.75L409.9 -84.42L404.79 -93.26L426.65 -131.11H470.35L475.46 -122.27ZM409.9 -88.98L430.44 -124.55H471.51L469.04 -128.83H427.96L407.43 -93.26L409.9 -88.98ZM606.7 -55.41H562.99L541.1 -17.56L536 -26.4L557.85 -64.25H601.55L606.7 -55.41ZM541.1 -22.12L561.64 -57.69H602.71L600.24 -61.97H559.2L538.67 -26.4L541.1 -22.12ZM413.7 -144.48L408.59 -135.64H364.89L347 -166.64V-184.31L370 -144.48H413.7ZM407.28 -137.9L409.75 -142.18H368.67L349.28 -175.8V-167.23L366.2 -137.9H407.28ZM614.42 -42.04H570.71L548.86 -4.19L543.76 -13.03L565.61 -50.9H609.31L614.42 -42.04ZM548.86 -8.75L569.4 -44.32H610.47L608 -48.6H566.93L546.39 -13.03L548.86 -8.75ZM552.66 96.25L547.55 105.1H503.85L481.99 67.2L487.1 58.35L508.95 96.21L552.66 96.25ZM546.24 102.81L548.71 98.53H507.64L487.1 62.92L484.63 67.2L505.17 102.77L546.24 102.81ZM438.17 -26.4L416.31 11.45H372.61L367.5 2.61H411.21L433.1 -35.25L438.17 -26.4ZM415 9.17L435.53 -26.4L433.1 -30.68L412.52 4.89H371.45L373.92 9.17H415ZM561.69 -133.37L539.83 -95.52H496.1L490.99 -104.37H534.7L556.55 -142.22L561.69 -133.37ZM538.52 -97.8L559.1 -133.37L556.63 -137.66L536.1 -102.09H494.97L497.45 -97.8H538.52ZM399.57 -66.52L377.71 -28.67H367.5L389.35 -66.52L367.5 -104.37H377.71L399.57 -66.52ZM376.4 -30.9L396.93 -66.52L376.4 -102.09H371.4L391.99 -66.52L371.45 -30.9H376.4ZM384.1 -66.52L362.27 -28.67H352.1L373.91 -66.52L352.1 -104.37H362.27L384.1 -66.52ZM360.96 -30.9L381.49 -66.52L360.96 -102.09H356.01L376.55 -66.52L356.01 -30.9H360.96ZM544.94 -50.9L539.83 -42.06H496.1L474.27 -79.9L479.38 -88.74L501.23 -50.9H544.94ZM538.52 -44.34L540.99 -48.62H499.92L479.38 -84.17L476.91 -79.9L497.45 -44.33L538.52 -44.34ZM591.26 -24.16L569.41 13.71L591.26 51.56H581.1L559.2 13.71L581.1 -24.14L591.26 -24.16ZM582.36 49.26H587.36L566.77 13.71L587.31 -21.9H582.31L561.83 13.71L582.36 49.26ZM415.01 -66.52L393.15 -28.67H382.94L404.79 -66.52L382.94 -104.37H393.15L415.01 -66.52ZM391.83 -30.9L412.37 -66.52L391.83 -102.09H386.89L407.43 -66.52L386.89 -30.9H391.83ZM422.73 -53.09L400.87 -15.29H357.17L352.1 -24.14H395.77L417.62 -61.99L422.73 -53.09ZM399.56 -17.58L420.1 -53.14L417.63 -57.43L397.1 -21.9H356.01L358.48 -17.62L399.56 -17.58ZM452.3 -104.37L430.45 -66.52L452.3 -28.67H442.1L420.23 -66.52L442.1 -104.37H452.3ZM427.81 -66.52L448.35 -102.09H443.35L422.87 -66.52L443.4 -30.9H448.4L427.81 -66.52ZM483.18 -104.37L461.33 -66.52L483.18 -28.67H472.97L451.1 -66.52L472.96 -104.37H483.18ZM471.1 -87.9L479.28 -102.07H474.33L453.75 -66.52L474.28 -30.9H479.23L458.69 -66.52L471.1 -87.9ZM537.27 -37.49L532.1 -28.67H488.4L466.56 -66.52L471.66 -75.36L493.51 -37.51L537.27 -37.49ZM530.8 -30.9L533.27 -35.18H492.2L471.66 -70.8L469.19 -66.52L489.72 -30.9H530.8ZM467.74 -28.62H457.53L435.67 -66.52L457.53 -104.37H467.74L445.89 -66.52L467.74 -28.62ZM443.25 -66.52L463.79 -102.09H458.79L438.31 -66.52L458.84 -30.9H463.84L443.25 -66.52ZM537.25 122.95L532.1 131.79H488.4L466.55 93.94L471.65 85.1L493.5 122.95H537.25ZM530.83 129.51L533.3 125.23H492.2L471.66 89.66L469.19 93.94L489.72 129.51H530.83ZM627.23 60.33V78.02L619.68 64.94H575.94L581.1 56.1H624.81L627.23 60.33ZM624.95 69.51V60.94L623.47 58.37H582.36L579.89 62.65H620.97L624.95 69.51ZM627.23 33.59V51.28L605.52 13.71L610.62 4.87L627.23 33.59ZM624.95 42.76V34.2L610.65 9.42999L608.18 13.71L624.95 42.76ZM627.23 6.84V24.53L613.23 0.339996L618.33 -8.5L627.23 6.84ZM624.95 16.02V7.45999L618.34 -3.89999L615.87 0.380005L624.95 16.02ZM627.23 -46.64V-28.9L625 -32.81L604.21 -68.78H560.5L565.61 -77.62H609.31L627.23 -46.64ZM624.95 -37.47V-46.03L608 -75.34H566.93L564.45 -71.06H605.52L624.95 -37.47ZM627.23 -23.85V-2.20999L620.99 -13.03L627.23 -23.85ZM624.95 -10.72V-15.34L623.62 -13.03L624.95 -10.72ZM627.23 -73.39V-55.7L611.93 -82.15H568.22L573.33 -91H617.03L627.23 -73.39ZM624.95 -64.21V-72.77L615.75 -88.72H574.65L572.17 -84.43H613.25L624.95 -64.21ZM614.45 118.42H570.71L561.03 135.2H550.82L565.61 109.58H609.31L614.45 118.42ZM559.74 132.92L569.4 116.1H610.47L608 111.82H566.93L554.77 132.88L559.74 132.92ZM606.74 105.05H562.99L545.59 135.2H535.38L557.89 96.2H601.59L606.74 105.05ZM544.31 132.92L561.72 102.77H602.79L600.32 98.49H559.2L539.33 132.92H544.31ZM627.2 87.1V104.79L611.93 78.34H568.22L573.33 69.49H617.03L627.2 87.1ZM624.92 96.28V87.71L615.72 71.77H574.65L572.17 76.06H613.25L624.92 96.28ZM622.1 131.79H578.43L576.43 135.2H566.26L573.33 122.95H617.03L622.1 131.79ZM575.1 132.92L577.1 129.51H618.17L615.7 125.23H574.65L570.21 132.92H575.1ZM627.15 113.82V131.55L624.92 127.63L604.16 91.68H560.5L565.61 82.83H609.31L627.15 113.82ZM624.87 122.99V114.43L608 85.1H566.93L564.45 89.39H605.52L624.87 122.99ZM627.2 -126.9V-109.21L605.52 -146.75L610.62 -155.59L627.2 -126.9ZM624.92 -117.73V-126.29L610.62 -151.06L608.15 -146.78L624.92 -117.73ZM438.82 -188L416.31 -149H372.61L367.5 -157.85H411.21L428.61 -188H438.82ZM415 -151.29L434.87 -185.72H429.93L412.52 -155.57H371.45L373.92 -151.29H415ZM546.9 -188L541.14 -178L535.38 -188H546.9ZM541.1 -182.58L542.91 -185.72H539.29L541.1 -182.58ZM562.31 -188L548.86 -164.65L543.76 -173.49L552.1 -188H562.31ZM548.86 -169.21L558.4 -185.72H553.4L546.34 -173.49L548.86 -169.21ZM407.94 -188L400.87 -175.75H357.17L352.1 -184.6H395.77L397.77 -188H407.94ZM399.56 -178L403.99 -185.69H399.1L397.1 -182.29H356.01L358.48 -178H399.56ZM423.38 -188L408.59 -162.38H364.89L359.78 -171.22H403.49L413.17 -188H423.38ZM407.28 -164.66L419.43 -185.72H414.49L404.8 -168.9H363.73L366.2 -164.66H407.28ZM577.79 -188L556.58 -151.27L551.47 -160.12L567.57 -188H577.79ZM556.58 -155.84L573.84 -185.72H568.84L554.1 -160.12L556.58 -155.84ZM438.82 135.2H427.3L433.06 125.2L438.82 135.2ZM431.25 132.92H434.87L433.1 129.77L431.25 132.92ZM627.25 -153.61V-135.9L613.25 -160.09L618.35 -168.93L627.25 -153.61ZM624.97 -144.44V-153L618.39 -164.4L615.92 -160.12L624.97 -144.44ZM627.25 -184.31V-162.67L621.01 -173.49L627.25 -184.31ZM624.97 -171.18V-175.79L623.64 -173.49L624.97 -171.18ZM627.25 -100.13V-82.44L619.65 -95.52H575.94L581.1 -104.37H624.81L627.25 -100.13ZM624.92 -90.9V-99.47L623.44 -102.04H582.36L579.89 -97.75H620.97L624.92 -90.9ZM577.1 -106.63L555.27 -68.78H511.57L506.46 -77.62H550.17L572.02 -115.47L577.1 -106.63ZM553.96 -71.06L574.49 -106.63L572.02 -110.9L551.48 -75.34H510.41L512.88 -71.06H553.96ZM499.96 -133.37L494.85 -124.53L472.97 -162.38H429.26L434.37 -171.22H478.1L499.96 -133.37ZM494.85 -129.09L497.32 -133.37L476.76 -168.9H435.68L433.21 -164.62H474.28L494.85 -129.09ZM507.68 -146.75L502.54 -137.9L480.69 -175.75H436.98L442.1 -184.6H485.8L507.68 -146.75ZM502.57 -142.46L505.04 -146.75L484.48 -182.32H443.4L440.93 -178.03H482L502.57 -142.46ZM523.1 -146.75L501.23 -108.9H491.02L512.87 -146.76L491.02 -184.6H501.23L523.1 -146.75ZM499.92 -111.18L520.45 -146.75L499.92 -182.32H494.97L515.51 -146.75L494.97 -111.18H499.92ZM405.98 -131.11L400.87 -122.27H357.17L347 -139.9V-157.57L362.27 -131.11H405.98ZM399.56 -124.55L402.03 -128.83H360.96L349.28 -149.05V-140.49L358.48 -124.55H399.56ZM492.21 -120L487.1 -111.16L465.25 -149.01H421.54L426.65 -157.85H470.35L492.21 -120ZM487.1 -115.72L489.57 -120L469.04 -155.57H427.96L425.49 -151.29H466.56L487.1 -115.72ZM538.53 -146.72L516.67 -108.9H506.46L528.32 -146.76L506.46 -184.6H516.67L538.53 -146.72ZM515.36 -111.18L535.89 -146.75L515.36 -182.32H510.41L530.95 -146.75L510.41 -111.18H515.36ZM398.26 -117.74L393.15 -108.9H349.45L347 -113.14V-130.82L354.55 -117.74H398.26ZM391.84 -111.18L394.31 -115.46H353.23L349.28 -122.31V-113.75L350.76 -111.18H391.84ZM606.7 -184.6L584.85 -146.75L606.7 -108.9H596.49L574.63 -146.75L596.49 -184.6H606.7ZM582.21 -146.75L602.75 -182.32H597.81L577.27 -146.75L597.81 -111.18H602.75L582.21 -146.75ZM622.1 -108.9H611.93L590.1 -146.75L611.93 -184.6H622.1L600.29 -146.75L622.1 -108.9ZM609.63 -167.5L618.19 -182.32H613.25L592.71 -146.75L613.25 -111.18H618.19L597.65 -146.75L609.63 -167.5ZM553.97 -146.75L532.1 -108.9H521.9L543.76 -146.76L521.9 -184.6H532.1L553.97 -146.75ZM530.8 -111.18L551.33 -146.75L530.8 -182.32H525.85L546.39 -146.75L525.85 -111.18H530.8ZM591.26 -184.6L569.41 -146.75L591.26 -108.9H581.1L559.2 -146.75L581.1 -184.6H591.26ZM566.77 -146.75L587.31 -182.32H582.31L561.83 -146.75L582.36 -111.18H587.36L566.77 -146.75ZM353.24 120.69L347 131.5V109.86L353.24 120.69ZM349.24 122.99L350.57 120.69L349.24 118.38V122.99ZM360.96 107.31L355.86 116.16L347 100.81V83.1L360.96 107.31ZM356.43 110.6L358.33 107.31L349.33 91.63V100.2L355.91 111.6L356.43 110.6ZM368.68 93.94L363.58 102.79L347 74.1V56.38L368.68 93.94ZM363.58 98.22L366.1 93.94L349.33 64.89V73.46L363.58 98.22ZM398.26 42.72L393.15 51.56H349.45L347 47.32V29.64L354.55 42.72H398.26ZM391.84 49.28L394.31 45H353.23L349.28 38.15V46.71L350.76 49.28H391.84ZM430.45 120.69L422.1 135.2H411.86L425.34 111.84L430.45 120.69ZM420.75 132.92L427.81 120.69L425.34 116.4L415.81 132.92H420.75ZM422.75 107.31L406.63 135.2H396.41L417.62 98.47L422.75 107.31ZM405.31 132.92L420.1 107.31L417.63 103.03L400.37 132.92H405.31ZM360.96 -53.15L355.86 -44.3L347 -59.65V-77.34L360.96 -53.15ZM356.43 -49.9L358.33 -53.19L349.33 -68.86V-60.3L355.86 -48.9L356.43 -49.9ZM405.98 29.31L400.87 38.15H357.17L347 20.58V2.89L362.27 29.35L405.98 29.31ZM399.56 35.87L402.03 31.59H360.96L349.28 11.4V19.97L358.48 35.91L399.56 35.87ZM368.68 -66.52L363.58 -57.67L347 -86.39V-104.08L368.68 -66.52ZM363.58 -62.23L366.1 -66.52L349.33 -95.52V-87L363.58 -62.23ZM353.24 -39.77L347 -28.9V-50.59L353.24 -39.77ZM349.24 -37.47L350.57 -39.77L349.24 -42.08V-37.47ZM413.7 15.98L408.59 24.82H364.89L347 -6.17999V-23.85L370 15.98H413.7ZM407.28 22.54L409.75 18.26H368.67L349.28 -15.34V-6.77L366.2 22.54H407.28Z" fill="#D1CF9C" fill-opacity="0.26"/>
<path d="M1035.74 24.82H992.03L970.18 62.67L965.1 53.83L986.96 15.98H1030.66L1035.74 24.82ZM970.18 58.1L990.72 22.53H1031.79L1029.32 18.25H988.24L967.71 53.83L970.18 58.1ZM1067.93 27.1L1062.82 35.95L1040.97 -1.89999H997.26L1002.37 -10.75H1046.1L1067.93 27.1ZM1062.82 31.39L1065.29 27.1L1044.76 -8.48999H1003.68L1001.21 -4.20001H1042.28L1062.82 31.39ZM1091.1 13.71L1069.24 51.56H1059.02L1080.87 13.71L1059.02 -24.14H1069.23L1091.1 13.71ZM1067.93 49.28L1088.46 13.71L1067.92 -21.9H1062.97L1083.51 13.67L1062.97 49.24L1067.93 49.28ZM1075.66 13.71L1070.55 22.56L1048.69 -15.29H1004.98L1010.1 -24.14H1053.8L1075.66 13.71ZM1070.55 17.99L1073.02 13.71L1052.48 -21.9H1011.4L1008.93 -17.62H1050L1070.55 17.99ZM1120.67 -64.25L1115.56 -55.41H1071.86L1049.99 -93.26L1055.1 -102.1L1076.95 -64.25H1120.67ZM1114.25 -57.69L1116.72 -61.97H1075.64L1055.1 -97.54L1052.63 -93.26L1073.17 -57.69H1114.25ZM1106.54 13.71L1084.68 51.56H1074.46L1096.32 13.71L1074.46 -24.14H1084.67L1106.54 13.71ZM1083.37 49.28L1103.9 13.71L1083.36 -21.9H1078.41L1098.95 13.67L1078.41 49.24L1083.37 49.28ZM1121.98 13.71L1100.1 51.56H1089.9L1111.76 13.71L1089.9 -24.14H1100.1L1121.98 13.71ZM1098.8 49.28L1119.33 13.71L1098.8 -21.9H1093.85L1114.39 13.67L1093.85 49.24L1098.8 49.28ZM1129.69 27.1L1107.83 64.96H1064.1L1059.02 56.1H1102.73L1124.58 18.25L1129.69 27.1ZM1106.52 62.67L1127.1 27.1L1124.63 22.82L1104.1 58.37H1062.97L1065.44 62.65L1106.52 62.67ZM1051.18 51.58H1007.47L985.62 89.41L980.51 80.57L1002.37 42.72H1046.1L1051.18 51.58ZM985.62 84.85L1006.16 49.28H1047.23L1044.76 45H1003.68L983.15 80.57L985.62 84.85ZM1137.41 40.46L1115.55 78.31H1071.85L1066.74 69.46H1110.45L1132.3 31.61L1137.41 40.46ZM1114.24 76.03L1134.77 40.46L1132.3 36.17L1111.77 71.74H1070.69L1073.16 76.03H1114.24ZM1043.46 38.19H999.75L977.9 76.04L972.79 67.2L994.65 29.35H1038.35L1043.46 38.19ZM977.9 71.48L998.44 35.91H1039.51L1037.04 31.63H995.96L975.43 67.2L977.9 71.48ZM967.57 93.94L945.71 131.79H935.5L957.35 93.94L935.5 56.1H945.71L967.57 93.94ZM944.4 129.51L964.93 93.94L944.4 58.37H939.4L959.94 93.94L939.45 129.51H944.4ZM1112.94 109.58L1107.83 118.42H1064.1L1042.24 80.57L1047.35 71.73L1069.2 109.58H1112.94ZM1106.52 116.1L1108.99 111.82H1067.92L1047.38 76.25L1044.91 80.53L1065.45 116.1H1106.52ZM1145.1 53.83L1123.24 91.68H1079.54L1074.43 82.83H1118.14L1139.99 44.98L1145.1 53.83ZM1121.96 89.4L1142.49 53.83L1140.02 49.55L1119.48 85.1H1078.41L1080.88 89.39L1121.96 89.4ZM1190.1 -28.67H1146.43L1124.58 9.17999L1119.47 0.339996L1141.33 -37.51H1185.03L1190.1 -28.67ZM1124.58 4.62L1145.1 -30.9H1186.17L1183.7 -35.18H1142.65L1122.1 0.339996L1124.58 4.62ZM1190.1 51.56H1179.93L1158.1 13.71L1179.95 -24.14H1190.1L1168.29 13.71L1190.1 51.56ZM1177.59 -7.04001L1186.19 -21.9H1181.25L1160.71 13.71L1181.25 49.28H1186.19L1165.65 13.71L1177.59 -7.04001ZM1051.18 56.1L1029.33 93.95L1051.18 131.8H1040.97L1019.1 93.94L1040.97 56.1H1051.18ZM1026.69 93.94L1047.23 58.37H1042.28L1021.75 93.94L1042.28 129.51H1047.23L1026.69 93.94ZM952.12 93.94L930.27 131.79H920.1L941.95 93.94L920.1 56.1H930.27L952.12 93.94ZM928.96 129.51L949.49 93.94L928.96 58.37H924.01L944.55 93.94L924.01 129.51H928.96ZM983.01 93.94L961.15 131.79H950.94L972.79 93.94L950.94 56.1H961.15L983.01 93.94ZM959.83 129.51L980.37 93.94L959.83 58.37H954.89L975.43 93.94L954.89 129.51H959.83ZM1020.3 56.1L998.45 93.94L1020.3 131.79H1010.1L988.23 93.94L1010.1 56.1H1020.3ZM995.81 93.94L1016.35 58.37H1011.35L990.87 93.94L1011.4 129.51H1016.4L995.81 93.94ZM1035.74 131.79H1025.53L1003.67 93.94L1025.53 56.1H1035.74L1013.89 93.94L1035.74 131.79ZM1011.25 93.94L1031.79 58.37H1026.79L1006.31 93.94L1026.84 129.51H1031.84L1011.25 93.94ZM1060.25 40.46L1055.1 49.3L1033.25 11.45H989.54L994.65 2.61H1038.35L1060.25 40.46ZM1055.1 44.74L1057.57 40.46L1037.04 4.89H995.96L993.49 9.17H1034.56L1055.1 44.74ZM1035.74 -135.64H992.03L970.18 -97.79L965.1 -106.63L986.93 -144.48H1030.63L1035.74 -135.64ZM970.18 -102.35L990.72 -137.9H1031.79L1029.32 -142.18H988.24L967.71 -106.63L970.18 -102.35ZM1174.7 -24.14L1152.85 13.71L1174.7 51.56H1164.49L1142.63 13.71L1164.49 -24.14H1174.7ZM1165.81 49.28H1170.75L1150.21 13.71L1170.75 -21.9H1165.81L1145.27 13.71L1165.81 49.28ZM1137.41 -120L1115.55 -82.15H1071.85L1066.74 -91H1110.45L1132.3 -128.85L1137.41 -120ZM1114.24 -84.43L1134.77 -120L1132.3 -124.28L1111.77 -88.72H1070.69L1073.16 -84.43H1114.24ZM998.45 -39.77L976.59 -1.89999H932.89L927.78 -10.75H971.49L993.34 -48.62L998.45 -39.77ZM975.28 -4.20001L995.81 -39.77L993.34 -44.06L972.8 -8.48999H931.73L934.2 -4.20001H975.28ZM1051.18 -108.9H1007.47L985.62 -71.04L980.51 -79.9L1002.37 -117.74H1046.1L1051.18 -108.9ZM985.62 -75.61L1006.16 -111.18H1047.23L1044.76 -115.46H1003.68L983.15 -79.9L985.62 -75.61ZM1043.46 -122.27H999.75L977.9 -84.42L972.79 -93.26L994.65 -131.11H1038.35L1043.46 -122.27ZM977.9 -88.98L998.44 -124.55H1039.51L1037.04 -128.83H995.96L975.43 -93.26L977.9 -88.98ZM1174.7 -55.41H1130.99L1109.1 -17.56L1104 -26.4L1125.85 -64.25H1169.55L1174.7 -55.41ZM1109.1 -22.12L1129.64 -57.69H1170.71L1168.24 -61.97H1127.2L1106.67 -26.4L1109.1 -22.12ZM981.7 -144.48L976.59 -135.64H932.89L915 -166.64V-184.31L938 -144.48H981.7ZM975.28 -137.9L977.75 -142.18H936.67L917.28 -175.8V-167.23L934.2 -137.9H975.28ZM1182.42 -42.04H1138.71L1116.86 -4.19L1111.76 -13.03L1133.61 -50.9H1177.31L1182.42 -42.04ZM1116.86 -8.75L1137.4 -44.32H1178.47L1176 -48.6H1134.93L1114.39 -13.03L1116.86 -8.75ZM1120.66 96.25L1115.55 105.1H1071.85L1049.99 67.2L1055.1 58.35L1076.95 96.21L1120.66 96.25ZM1114.24 102.81L1116.71 98.53H1075.64L1055.1 62.92L1052.63 67.2L1073.17 102.77L1114.24 102.81ZM1006.17 -26.4L984.31 11.45H940.61L935.5 2.61H979.21L1001.1 -35.25L1006.17 -26.4ZM983 9.17L1003.53 -26.4L1001.1 -30.68L980.52 4.89H939.45L941.92 9.17H983ZM1129.69 -133.37L1107.83 -95.52H1064.1L1058.99 -104.37H1102.7L1124.55 -142.22L1129.69 -133.37ZM1106.52 -97.8L1127.1 -133.37L1124.63 -137.66L1104.1 -102.09H1062.97L1065.45 -97.8H1106.52ZM967.57 -66.52L945.71 -28.67H935.5L957.35 -66.52L935.5 -104.37H945.71L967.57 -66.52ZM944.4 -30.9L964.93 -66.52L944.4 -102.09H939.4L959.99 -66.52L939.45 -30.9H944.4ZM952.1 -66.52L930.27 -28.67H920.1L941.91 -66.52L920.1 -104.37H930.27L952.1 -66.52ZM928.96 -30.9L949.49 -66.52L928.96 -102.09H924.01L944.55 -66.52L924.01 -30.9H928.96ZM1112.94 -50.9L1107.83 -42.06H1064.1L1042.27 -79.9L1047.38 -88.74L1069.23 -50.9H1112.94ZM1106.52 -44.34L1108.99 -48.62H1067.92L1047.38 -84.17L1044.91 -79.9L1065.45 -44.33L1106.52 -44.34ZM1159.26 -24.16L1137.41 13.71L1159.26 51.56H1149.1L1127.2 13.71L1149.1 -24.14L1159.26 -24.16ZM1150.36 49.26H1155.36L1134.77 13.71L1155.31 -21.9H1150.31L1129.83 13.71L1150.36 49.26ZM983.01 -66.52L961.15 -28.67H950.94L972.79 -66.52L950.94 -104.37H961.15L983.01 -66.52ZM959.83 -30.9L980.37 -66.52L959.83 -102.09H954.89L975.43 -66.52L954.89 -30.9H959.83ZM990.73 -53.09L968.87 -15.29H925.17L920.1 -24.14H963.77L985.62 -61.99L990.73 -53.09ZM967.56 -17.58L988.1 -53.14L985.63 -57.43L965.1 -21.9H924.01L926.48 -17.62L967.56 -17.58ZM1020.3 -104.37L998.45 -66.52L1020.3 -28.67H1010.1L988.23 -66.52L1010.1 -104.37H1020.3ZM995.81 -66.52L1016.35 -102.09H1011.35L990.87 -66.52L1011.4 -30.9H1016.4L995.81 -66.52ZM1051.18 -104.37L1029.33 -66.52L1051.18 -28.67H1040.97L1019.1 -66.52L1040.96 -104.37H1051.18ZM1039.1 -87.9L1047.28 -102.07H1042.33L1021.75 -66.52L1042.28 -30.9H1047.23L1026.69 -66.52L1039.1 -87.9ZM1105.27 -37.49L1100.1 -28.67H1056.4L1034.56 -66.52L1039.66 -75.36L1061.51 -37.51L1105.27 -37.49ZM1098.8 -30.9L1101.27 -35.18H1060.2L1039.66 -70.8L1037.19 -66.52L1057.72 -30.9H1098.8ZM1035.74 -28.62H1025.53L1003.67 -66.52L1025.53 -104.37H1035.74L1013.89 -66.52L1035.74 -28.62ZM1011.25 -66.52L1031.79 -102.09H1026.79L1006.31 -66.52L1026.84 -30.9H1031.84L1011.25 -66.52ZM1105.25 122.95L1100.1 131.79H1056.4L1034.55 93.94L1039.65 85.1L1061.5 122.95H1105.25ZM1098.83 129.51L1101.3 125.23H1060.2L1039.66 89.66L1037.19 93.94L1057.72 129.51H1098.83ZM1195.23 60.33V78.02L1187.68 64.94H1143.94L1149.1 56.1H1192.81L1195.23 60.33ZM1192.95 69.51V60.94L1191.47 58.37H1150.36L1147.89 62.65H1188.97L1192.95 69.51ZM1195.23 33.59V51.28L1173.52 13.71L1178.62 4.87L1195.23 33.59ZM1192.95 42.76V34.2L1178.65 9.42999L1176.18 13.71L1192.95 42.76ZM1195.23 6.84V24.53L1181.23 0.339996L1186.33 -8.5L1195.23 6.84ZM1192.95 16.02V7.45999L1186.34 -3.89999L1183.87 0.380005L1192.95 16.02ZM1195.23 -46.64V-28.9L1193 -32.81L1172.21 -68.78H1128.5L1133.61 -77.62H1177.31L1195.23 -46.64ZM1192.95 -37.47V-46.03L1176 -75.34H1134.93L1132.45 -71.06H1173.52L1192.95 -37.47ZM1195.23 -23.85V-2.20999L1188.99 -13.03L1195.23 -23.85ZM1192.95 -10.72V-15.34L1191.62 -13.03L1192.95 -10.72ZM1195.23 -73.39V-55.7L1179.93 -82.15H1136.22L1141.33 -91H1185.03L1195.23 -73.39ZM1192.95 -64.21V-72.77L1183.75 -88.72H1142.65L1140.17 -84.43H1181.25L1192.95 -64.21ZM1182.45 118.42H1138.71L1129.03 135.2H1118.82L1133.61 109.58H1177.31L1182.45 118.42ZM1127.74 132.92L1137.4 116.1H1178.47L1176 111.82H1134.93L1122.77 132.88L1127.74 132.92ZM1174.74 105.05H1130.99L1113.59 135.2H1103.38L1125.89 96.2H1169.59L1174.74 105.05ZM1112.31 132.92L1129.72 102.77H1170.79L1168.32 98.49H1127.2L1107.33 132.92H1112.31ZM1195.2 87.1V104.79L1179.93 78.34H1136.22L1141.33 69.49H1185.03L1195.2 87.1ZM1192.92 96.28V87.71L1183.72 71.77H1142.65L1140.17 76.06H1181.25L1192.92 96.28ZM1190.1 131.79H1146.43L1144.43 135.2H1134.26L1141.33 122.95H1185.03L1190.1 131.79ZM1143.1 132.92L1145.1 129.51H1186.17L1183.7 125.23H1142.65L1138.21 132.92H1143.1ZM1195.15 113.82V131.55L1192.92 127.63L1172.16 91.68H1128.5L1133.61 82.83H1177.31L1195.15 113.82ZM1192.87 122.99V114.43L1176 85.1H1134.93L1132.45 89.39H1173.52L1192.87 122.99ZM1195.2 -126.9V-109.21L1173.52 -146.75L1178.62 -155.59L1195.2 -126.9ZM1192.92 -117.73V-126.29L1178.62 -151.06L1176.15 -146.78L1192.92 -117.73ZM1006.82 -188L984.31 -149H940.61L935.5 -157.85H979.21L996.61 -188H1006.82ZM983 -151.29L1002.87 -185.72H997.93L980.52 -155.57H939.45L941.92 -151.29H983ZM1114.9 -188L1109.14 -178L1103.38 -188H1114.9ZM1109.1 -182.58L1110.91 -185.72H1107.29L1109.1 -182.58ZM1130.31 -188L1116.86 -164.65L1111.76 -173.49L1120.1 -188H1130.31ZM1116.86 -169.21L1126.4 -185.72H1121.4L1114.34 -173.49L1116.86 -169.21ZM975.94 -188L968.87 -175.75H925.17L920.1 -184.6H963.77L965.77 -188H975.94ZM967.56 -178L971.99 -185.69H967.1L965.1 -182.29H924.01L926.48 -178H967.56ZM991.38 -188L976.59 -162.38H932.89L927.78 -171.22H971.49L981.17 -188H991.38ZM975.28 -164.66L987.43 -185.72H982.49L972.8 -168.9H931.73L934.2 -164.66H975.28ZM1145.79 -188L1124.58 -151.27L1119.47 -160.12L1135.57 -188H1145.79ZM1124.58 -155.84L1141.84 -185.72H1136.84L1122.1 -160.12L1124.58 -155.84ZM1006.82 135.2H995.3L1001.06 125.2L1006.82 135.2ZM999.25 132.92H1002.87L1001.1 129.77L999.25 132.92ZM1195.25 -153.61V-135.9L1181.25 -160.09L1186.35 -168.93L1195.25 -153.61ZM1192.97 -144.44V-153L1186.39 -164.4L1183.92 -160.12L1192.97 -144.44ZM1195.25 -184.31V-162.67L1189.01 -173.49L1195.25 -184.31ZM1192.97 -171.18V-175.79L1191.64 -173.49L1192.97 -171.18ZM1195.25 -100.13V-82.44L1187.65 -95.52H1143.94L1149.1 -104.37H1192.81L1195.25 -100.13ZM1192.92 -90.9V-99.47L1191.44 -102.04H1150.36L1147.89 -97.75H1188.97L1192.92 -90.9ZM1145.1 -106.63L1123.27 -68.78H1079.57L1074.46 -77.62H1118.17L1140.02 -115.47L1145.1 -106.63ZM1121.96 -71.06L1142.49 -106.63L1140.02 -110.9L1119.48 -75.34H1078.41L1080.88 -71.06H1121.96ZM1067.96 -133.37L1062.85 -124.53L1040.97 -162.38H997.26L1002.37 -171.22H1046.1L1067.96 -133.37ZM1062.85 -129.09L1065.32 -133.37L1044.76 -168.9H1003.68L1001.21 -164.62H1042.28L1062.85 -129.09ZM1075.68 -146.75L1070.54 -137.9L1048.69 -175.75H1004.98L1010.1 -184.6H1053.8L1075.68 -146.75ZM1070.57 -142.46L1073.04 -146.75L1052.48 -182.32H1011.4L1008.93 -178.03H1050L1070.57 -142.46ZM1091.1 -146.75L1069.23 -108.9H1059.02L1080.87 -146.76L1059.02 -184.6H1069.23L1091.1 -146.75ZM1067.92 -111.18L1088.45 -146.75L1067.92 -182.32H1062.97L1083.51 -146.75L1062.97 -111.18H1067.92ZM973.98 -131.11L968.87 -122.27H925.17L915 -139.9V-157.57L930.27 -131.11H973.98ZM967.56 -124.55L970.03 -128.83H928.96L917.28 -149.05V-140.49L926.48 -124.55H967.56ZM1060.21 -120L1055.1 -111.16L1033.25 -149.01H989.54L994.65 -157.85H1038.35L1060.21 -120ZM1055.1 -115.72L1057.57 -120L1037.04 -155.57H995.96L993.49 -151.29H1034.56L1055.1 -115.72ZM1106.53 -146.72L1084.67 -108.9H1074.46L1096.32 -146.76L1074.46 -184.6H1084.67L1106.53 -146.72ZM1083.36 -111.18L1103.89 -146.75L1083.36 -182.32H1078.41L1098.95 -146.75L1078.41 -111.18H1083.36ZM966.26 -117.74L961.15 -108.9H917.45L915 -113.14V-130.82L922.55 -117.74H966.26ZM959.84 -111.18L962.31 -115.46H921.23L917.28 -122.31V-113.75L918.76 -111.18H959.84ZM1174.7 -184.6L1152.85 -146.75L1174.7 -108.9H1164.49L1142.63 -146.75L1164.49 -184.6H1174.7ZM1150.21 -146.75L1170.75 -182.32H1165.81L1145.27 -146.75L1165.81 -111.18H1170.75L1150.21 -146.75ZM1190.1 -108.9H1179.93L1158.1 -146.75L1179.93 -184.6H1190.1L1168.29 -146.75L1190.1 -108.9ZM1177.63 -167.5L1186.19 -182.32H1181.25L1160.71 -146.75L1181.25 -111.18H1186.19L1165.65 -146.75L1177.63 -167.5ZM1121.97 -146.75L1100.1 -108.9H1089.9L1111.76 -146.76L1089.9 -184.6H1100.1L1121.97 -146.75ZM1098.8 -111.18L1119.33 -146.75L1098.8 -182.32H1093.85L1114.39 -146.75L1093.85 -111.18H1098.8ZM1159.26 -184.6L1137.41 -146.75L1159.26 -108.9H1149.1L1127.2 -146.75L1149.1 -184.6H1159.26ZM1134.77 -146.75L1155.31 -182.32H1150.31L1129.83 -146.75L1150.36 -111.18H1155.36L1134.77 -146.75ZM921.24 120.69L915 131.5V109.86L921.24 120.69ZM917.24 122.99L918.57 120.69L917.24 118.38V122.99ZM928.96 107.31L923.86 116.16L915 100.81V83.1L928.96 107.31ZM924.43 110.6L926.33 107.31L917.33 91.63V100.2L923.91 111.6L924.43 110.6ZM936.68 93.94L931.58 102.79L915 74.1V56.38L936.68 93.94ZM931.58 98.22L934.1 93.94L917.33 64.89V73.46L931.58 98.22ZM966.26 42.72L961.15 51.56H917.45L915 47.32V29.64L922.55 42.72H966.26ZM959.84 49.28L962.31 45H921.23L917.28 38.15V46.71L918.76 49.28H959.84ZM998.45 120.69L990.1 135.2H979.86L993.34 111.84L998.45 120.69ZM988.75 132.92L995.81 120.69L993.34 116.4L983.81 132.92H988.75ZM990.75 107.31L974.63 135.2H964.41L985.62 98.47L990.75 107.31ZM973.31 132.92L988.1 107.31L985.63 103.03L968.37 132.92H973.31ZM928.96 -53.15L923.86 -44.3L915 -59.65V-77.34L928.96 -53.15ZM924.43 -49.9L926.33 -53.19L917.33 -68.86V-60.3L923.86 -48.9L924.43 -49.9ZM973.98 29.31L968.87 38.15H925.17L915 20.58V2.89L930.27 29.35L973.98 29.31ZM967.56 35.87L970.03 31.59H928.96L917.28 11.4V19.97L926.48 35.91L967.56 35.87ZM936.68 -66.52L931.58 -57.67L915 -86.39V-104.08L936.68 -66.52ZM931.58 -62.23L934.1 -66.52L917.33 -95.52V-87L931.58 -62.23ZM921.24 -39.77L915 -28.9V-50.59L921.24 -39.77ZM917.24 -37.47L918.57 -39.77L917.24 -42.08V-37.47ZM981.7 15.98L976.59 24.82H932.89L915 -6.17999V-23.85L938 15.98H981.7ZM975.28 22.54L977.75 18.26H936.67L917.28 -15.34V-6.77L934.2 22.54H975.28Z" fill="#D1CF9C" fill-opacity="0.26"/>
<path d="M1319.74 24.82H1276.03L1254.18 62.67L1249.1 53.83L1270.96 15.98H1314.66L1319.74 24.82ZM1254.18 58.1L1274.72 22.53H1315.79L1313.32 18.25H1272.24L1251.71 53.83L1254.18 58.1ZM1351.93 27.1L1346.82 35.95L1324.97 -1.89999H1281.26L1286.37 -10.75H1330.1L1351.93 27.1ZM1346.82 31.39L1349.29 27.1L1328.76 -8.48999H1287.68L1285.21 -4.20001H1326.28L1346.82 31.39ZM1375.1 13.71L1353.24 51.56H1343.02L1364.87 13.71L1343.02 -24.14H1353.23L1375.1 13.71ZM1351.93 49.28L1372.46 13.71L1351.92 -21.9H1346.97L1367.51 13.67L1346.97 49.24L1351.93 49.28ZM1359.66 13.71L1354.55 22.56L1332.69 -15.29H1288.98L1294.1 -24.14H1337.8L1359.66 13.71ZM1354.55 17.99L1357.02 13.71L1336.48 -21.9H1295.4L1292.93 -17.62H1334L1354.55 17.99ZM1404.67 -64.25L1399.56 -55.41H1355.86L1333.99 -93.26L1339.1 -102.1L1360.95 -64.25H1404.67ZM1398.25 -57.69L1400.72 -61.97H1359.64L1339.1 -97.54L1336.63 -93.26L1357.17 -57.69H1398.25ZM1390.54 13.71L1368.68 51.56H1358.46L1380.32 13.71L1358.46 -24.14H1368.67L1390.54 13.71ZM1367.37 49.28L1387.9 13.71L1367.36 -21.9H1362.41L1382.95 13.67L1362.41 49.24L1367.37 49.28ZM1405.98 13.71L1384.1 51.56H1373.9L1395.76 13.71L1373.9 -24.14H1384.1L1405.98 13.71ZM1382.8 49.28L1403.33 13.71L1382.8 -21.9H1377.85L1398.39 13.67L1377.85 49.24L1382.8 49.28ZM1413.69 27.1L1391.83 64.96H1348.1L1343.02 56.1H1386.73L1408.58 18.25L1413.69 27.1ZM1390.52 62.67L1411.1 27.1L1408.63 22.82L1388.1 58.37H1346.97L1349.44 62.65L1390.52 62.67ZM1335.18 51.58H1291.47L1269.62 89.41L1264.51 80.57L1286.37 42.72H1330.1L1335.18 51.58ZM1269.62 84.85L1290.16 49.28H1331.23L1328.76 45H1287.68L1267.15 80.57L1269.62 84.85ZM1421.41 40.46L1399.55 78.31H1355.85L1350.74 69.46H1394.45L1416.3 31.61L1421.41 40.46ZM1398.24 76.03L1418.77 40.46L1416.3 36.17L1395.77 71.74H1354.69L1357.16 76.03H1398.24ZM1327.46 38.19H1283.75L1261.9 76.04L1256.79 67.2L1278.65 29.35H1322.35L1327.46 38.19ZM1261.9 71.48L1282.44 35.91H1323.51L1321.04 31.63H1279.96L1259.43 67.2L1261.9 71.48ZM1251.57 93.94L1229.71 131.79H1219.5L1241.35 93.94L1219.5 56.1H1229.71L1251.57 93.94ZM1228.4 129.51L1248.93 93.94L1228.4 58.37H1223.4L1243.94 93.94L1223.45 129.51H1228.4ZM1396.94 109.58L1391.83 118.42H1348.1L1326.24 80.57L1331.35 71.73L1353.2 109.58H1396.94ZM1390.52 116.1L1392.99 111.82H1351.92L1331.38 76.25L1328.91 80.53L1349.45 116.1H1390.52ZM1429.1 53.83L1407.24 91.68H1363.54L1358.43 82.83H1402.14L1423.99 44.98L1429.1 53.83ZM1405.96 89.4L1426.49 53.83L1424.02 49.55L1403.48 85.1H1362.41L1364.88 89.39L1405.96 89.4ZM1474.1 -28.67H1430.43L1408.58 9.17999L1403.47 0.339996L1425.33 -37.51H1469.03L1474.1 -28.67ZM1408.58 4.62L1429.1 -30.9H1470.17L1467.7 -35.18H1426.65L1406.1 0.339996L1408.58 4.62ZM1474.1 51.56H1463.93L1442.1 13.71L1463.95 -24.14H1474.1L1452.29 13.71L1474.1 51.56ZM1461.59 -7.04001L1470.19 -21.9H1465.25L1444.71 13.71L1465.25 49.28H1470.19L1449.65 13.71L1461.59 -7.04001ZM1335.18 56.1L1313.33 93.95L1335.18 131.8H1324.97L1303.1 93.94L1324.97 56.1H1335.18ZM1310.69 93.94L1331.23 58.37H1326.28L1305.75 93.94L1326.28 129.51H1331.23L1310.69 93.94ZM1236.12 93.94L1214.27 131.79H1204.1L1225.95 93.94L1204.1 56.1H1214.27L1236.12 93.94ZM1212.96 129.51L1233.49 93.94L1212.96 58.37H1208.01L1228.55 93.94L1208.01 129.51H1212.96ZM1267.01 93.94L1245.15 131.79H1234.94L1256.79 93.94L1234.94 56.1H1245.15L1267.01 93.94ZM1243.83 129.51L1264.37 93.94L1243.83 58.37H1238.89L1259.43 93.94L1238.89 129.51H1243.83ZM1304.3 56.1L1282.45 93.94L1304.3 131.79H1294.1L1272.23 93.94L1294.1 56.1H1304.3ZM1279.81 93.94L1300.35 58.37H1295.35L1274.87 93.94L1295.4 129.51H1300.4L1279.81 93.94ZM1319.74 131.79H1309.53L1287.67 93.94L1309.53 56.1H1319.74L1297.89 93.94L1319.74 131.79ZM1295.25 93.94L1315.79 58.37H1310.79L1290.31 93.94L1310.84 129.51H1315.84L1295.25 93.94ZM1344.25 40.46L1339.1 49.3L1317.25 11.45H1273.54L1278.65 2.61H1322.35L1344.25 40.46ZM1339.1 44.74L1341.57 40.46L1321.04 4.89H1279.96L1277.49 9.17H1318.56L1339.1 44.74ZM1319.74 -135.64H1276.03L1254.18 -97.79L1249.1 -106.63L1270.93 -144.48H1314.63L1319.74 -135.64ZM1254.18 -102.35L1274.72 -137.9H1315.79L1313.32 -142.18H1272.24L1251.71 -106.63L1254.18 -102.35ZM1458.7 -24.14L1436.85 13.71L1458.7 51.56H1448.49L1426.63 13.71L1448.49 -24.14H1458.7ZM1449.81 49.28H1454.75L1434.21 13.71L1454.75 -21.9H1449.81L1429.27 13.71L1449.81 49.28ZM1421.41 -120L1399.55 -82.15H1355.85L1350.74 -91H1394.45L1416.3 -128.85L1421.41 -120ZM1398.24 -84.43L1418.77 -120L1416.3 -124.28L1395.77 -88.72H1354.69L1357.16 -84.43H1398.24ZM1282.45 -39.77L1260.59 -1.89999H1216.89L1211.78 -10.75H1255.49L1277.34 -48.62L1282.45 -39.77ZM1259.28 -4.20001L1279.81 -39.77L1277.34 -44.06L1256.8 -8.48999H1215.73L1218.2 -4.20001H1259.28ZM1335.18 -108.9H1291.47L1269.62 -71.04L1264.51 -79.9L1286.37 -117.74H1330.1L1335.18 -108.9ZM1269.62 -75.61L1290.16 -111.18H1331.23L1328.76 -115.46H1287.68L1267.15 -79.9L1269.62 -75.61ZM1327.46 -122.27H1283.75L1261.9 -84.42L1256.79 -93.26L1278.65 -131.11H1322.35L1327.46 -122.27ZM1261.9 -88.98L1282.44 -124.55H1323.51L1321.04 -128.83H1279.96L1259.43 -93.26L1261.9 -88.98ZM1458.7 -55.41H1414.99L1393.1 -17.56L1388 -26.4L1409.85 -64.25H1453.55L1458.7 -55.41ZM1393.1 -22.12L1413.64 -57.69H1454.71L1452.24 -61.97H1411.2L1390.67 -26.4L1393.1 -22.12ZM1265.7 -144.48L1260.59 -135.64H1216.89L1199 -166.64V-184.31L1222 -144.48H1265.7ZM1259.28 -137.9L1261.75 -142.18H1220.67L1201.28 -175.8V-167.23L1218.2 -137.9H1259.28ZM1466.42 -42.04H1422.71L1400.86 -4.19L1395.76 -13.03L1417.61 -50.9H1461.31L1466.42 -42.04ZM1400.86 -8.75L1421.4 -44.32H1462.47L1460 -48.6H1418.93L1398.39 -13.03L1400.86 -8.75ZM1404.66 96.25L1399.55 105.1H1355.85L1333.99 67.2L1339.1 58.35L1360.95 96.21L1404.66 96.25ZM1398.24 102.81L1400.71 98.53H1359.64L1339.1 62.92L1336.63 67.2L1357.17 102.77L1398.24 102.81ZM1290.17 -26.4L1268.31 11.45H1224.61L1219.5 2.61H1263.21L1285.1 -35.25L1290.17 -26.4ZM1267 9.17L1287.53 -26.4L1285.1 -30.68L1264.52 4.89H1223.45L1225.92 9.17H1267ZM1413.69 -133.37L1391.83 -95.52H1348.1L1342.99 -104.37H1386.7L1408.55 -142.22L1413.69 -133.37ZM1390.52 -97.8L1411.1 -133.37L1408.63 -137.66L1388.1 -102.09H1346.97L1349.45 -97.8H1390.52ZM1251.57 -66.52L1229.71 -28.67H1219.5L1241.35 -66.52L1219.5 -104.37H1229.71L1251.57 -66.52ZM1228.4 -30.9L1248.93 -66.52L1228.4 -102.09H1223.4L1243.99 -66.52L1223.45 -30.9H1228.4ZM1236.1 -66.52L1214.27 -28.67H1204.1L1225.91 -66.52L1204.1 -104.37H1214.27L1236.1 -66.52ZM1212.96 -30.9L1233.49 -66.52L1212.96 -102.09H1208.01L1228.55 -66.52L1208.01 -30.9H1212.96ZM1396.94 -50.9L1391.83 -42.06H1348.1L1326.27 -79.9L1331.38 -88.74L1353.23 -50.9H1396.94ZM1390.52 -44.34L1392.99 -48.62H1351.92L1331.38 -84.17L1328.91 -79.9L1349.45 -44.33L1390.52 -44.34ZM1443.26 -24.16L1421.41 13.71L1443.26 51.56H1433.1L1411.2 13.71L1433.1 -24.14L1443.26 -24.16ZM1434.36 49.26H1439.36L1418.77 13.71L1439.31 -21.9H1434.31L1413.83 13.71L1434.36 49.26ZM1267.01 -66.52L1245.15 -28.67H1234.94L1256.79 -66.52L1234.94 -104.37H1245.15L1267.01 -66.52ZM1243.83 -30.9L1264.37 -66.52L1243.83 -102.09H1238.89L1259.43 -66.52L1238.89 -30.9H1243.83ZM1274.73 -53.09L1252.87 -15.29H1209.17L1204.1 -24.14H1247.77L1269.62 -61.99L1274.73 -53.09ZM1251.56 -17.58L1272.1 -53.14L1269.63 -57.43L1249.1 -21.9H1208.01L1210.48 -17.62L1251.56 -17.58ZM1304.3 -104.37L1282.45 -66.52L1304.3 -28.67H1294.1L1272.23 -66.52L1294.1 -104.37H1304.3ZM1279.81 -66.52L1300.35 -102.09H1295.35L1274.87 -66.52L1295.4 -30.9H1300.4L1279.81 -66.52ZM1335.18 -104.37L1313.33 -66.52L1335.18 -28.67H1324.97L1303.1 -66.52L1324.96 -104.37H1335.18ZM1323.1 -87.9L1331.28 -102.07H1326.33L1305.75 -66.52L1326.28 -30.9H1331.23L1310.69 -66.52L1323.1 -87.9ZM1389.27 -37.49L1384.1 -28.67H1340.4L1318.56 -66.52L1323.66 -75.36L1345.51 -37.51L1389.27 -37.49ZM1382.8 -30.9L1385.27 -35.18H1344.2L1323.66 -70.8L1321.19 -66.52L1341.72 -30.9H1382.8ZM1319.74 -28.62H1309.53L1287.67 -66.52L1309.53 -104.37H1319.74L1297.89 -66.52L1319.74 -28.62ZM1295.25 -66.52L1315.79 -102.09H1310.79L1290.31 -66.52L1310.84 -30.9H1315.84L1295.25 -66.52ZM1389.25 122.95L1384.1 131.79H1340.4L1318.55 93.94L1323.65 85.1L1345.5 122.95H1389.25ZM1382.83 129.51L1385.3 125.23H1344.2L1323.66 89.66L1321.19 93.94L1341.72 129.51H1382.83ZM1479.23 60.33V78.02L1471.68 64.94H1427.94L1433.1 56.1H1476.81L1479.23 60.33ZM1476.95 69.51V60.94L1475.47 58.37H1434.36L1431.89 62.65H1472.97L1476.95 69.51ZM1479.23 33.59V51.28L1457.52 13.71L1462.62 4.87L1479.23 33.59ZM1476.95 42.76V34.2L1462.65 9.42999L1460.18 13.71L1476.95 42.76ZM1479.23 6.84V24.53L1465.23 0.339996L1470.33 -8.5L1479.23 6.84ZM1476.95 16.02V7.45999L1470.34 -3.89999L1467.87 0.380005L1476.95 16.02ZM1479.23 -46.64V-28.9L1477 -32.81L1456.21 -68.78H1412.5L1417.61 -77.62H1461.31L1479.23 -46.64ZM1476.95 -37.47V-46.03L1460 -75.34H1418.93L1416.45 -71.06H1457.52L1476.95 -37.47ZM1479.23 -23.85V-2.20999L1472.99 -13.03L1479.23 -23.85ZM1476.95 -10.72V-15.34L1475.62 -13.03L1476.95 -10.72ZM1479.23 -73.39V-55.7L1463.93 -82.15H1420.22L1425.33 -91H1469.03L1479.23 -73.39ZM1476.95 -64.21V-72.77L1467.75 -88.72H1426.65L1424.17 -84.43H1465.25L1476.95 -64.21ZM1466.45 118.42H1422.71L1413.03 135.2H1402.82L1417.61 109.58H1461.31L1466.45 118.42ZM1411.74 132.92L1421.4 116.1H1462.47L1460 111.82H1418.93L1406.77 132.88L1411.74 132.92ZM1458.74 105.05H1414.99L1397.59 135.2H1387.38L1409.89 96.2H1453.59L1458.74 105.05ZM1396.31 132.92L1413.72 102.77H1454.79L1452.32 98.49H1411.2L1391.33 132.92H1396.31ZM1479.2 87.1V104.79L1463.93 78.34H1420.22L1425.33 69.49H1469.03L1479.2 87.1ZM1476.92 96.28V87.71L1467.72 71.77H1426.65L1424.17 76.06H1465.25L1476.92 96.28ZM1474.1 131.79H1430.43L1428.43 135.2H1418.26L1425.33 122.95H1469.03L1474.1 131.79ZM1427.1 132.92L1429.1 129.51H1470.17L1467.7 125.23H1426.65L1422.21 132.92H1427.1ZM1479.15 113.82V131.55L1476.92 127.63L1456.16 91.68H1412.5L1417.61 82.83H1461.31L1479.15 113.82ZM1476.87 122.99V114.43L1460 85.1H1418.93L1416.45 89.39H1457.52L1476.87 122.99ZM1479.2 -126.9V-109.21L1457.52 -146.75L1462.62 -155.59L1479.2 -126.9ZM1476.92 -117.73V-126.29L1462.62 -151.06L1460.15 -146.78L1476.92 -117.73ZM1290.82 -188L1268.31 -149H1224.61L1219.5 -157.85H1263.21L1280.61 -188H1290.82ZM1267 -151.29L1286.87 -185.72H1281.93L1264.52 -155.57H1223.45L1225.92 -151.29H1267ZM1398.9 -188L1393.14 -178L1387.38 -188H1398.9ZM1393.1 -182.58L1394.91 -185.72H1391.29L1393.1 -182.58ZM1414.31 -188L1400.86 -164.65L1395.76 -173.49L1404.1 -188H1414.31ZM1400.86 -169.21L1410.4 -185.72H1405.4L1398.34 -173.49L1400.86 -169.21ZM1259.94 -188L1252.87 -175.75H1209.17L1204.1 -184.6H1247.77L1249.77 -188H1259.94ZM1251.56 -178L1255.99 -185.69H1251.1L1249.1 -182.29H1208.01L1210.48 -178H1251.56ZM1275.38 -188L1260.59 -162.38H1216.89L1211.78 -171.22H1255.49L1265.17 -188H1275.38ZM1259.28 -164.66L1271.43 -185.72H1266.49L1256.8 -168.9H1215.73L1218.2 -164.66H1259.28ZM1429.79 -188L1408.58 -151.27L1403.47 -160.12L1419.57 -188H1429.79ZM1408.58 -155.84L1425.84 -185.72H1420.84L1406.1 -160.12L1408.58 -155.84ZM1290.82 135.2H1279.3L1285.06 125.2L1290.82 135.2ZM1283.25 132.92H1286.87L1285.1 129.77L1283.25 132.92ZM1479.25 -153.61V-135.9L1465.25 -160.09L1470.35 -168.93L1479.25 -153.61ZM1476.97 -144.44V-153L1470.39 -164.4L1467.92 -160.12L1476.97 -144.44ZM1479.25 -184.31V-162.67L1473.01 -173.49L1479.25 -184.31ZM1476.97 -171.18V-175.79L1475.64 -173.49L1476.97 -171.18ZM1479.25 -100.13V-82.44L1471.65 -95.52H1427.94L1433.1 -104.37H1476.81L1479.25 -100.13ZM1476.92 -90.9V-99.47L1475.44 -102.04H1434.36L1431.89 -97.75H1472.97L1476.92 -90.9ZM1429.1 -106.63L1407.27 -68.78H1363.57L1358.46 -77.62H1402.17L1424.02 -115.47L1429.1 -106.63ZM1405.96 -71.06L1426.49 -106.63L1424.02 -110.9L1403.48 -75.34H1362.41L1364.88 -71.06H1405.96ZM1351.96 -133.37L1346.85 -124.53L1324.97 -162.38H1281.26L1286.37 -171.22H1330.1L1351.96 -133.37ZM1346.85 -129.09L1349.32 -133.37L1328.76 -168.9H1287.68L1285.21 -164.62H1326.28L1346.85 -129.09ZM1359.68 -146.75L1354.54 -137.9L1332.69 -175.75H1288.98L1294.1 -184.6H1337.8L1359.68 -146.75ZM1354.57 -142.46L1357.04 -146.75L1336.48 -182.32H1295.4L1292.93 -178.03H1334L1354.57 -142.46ZM1375.1 -146.75L1353.23 -108.9H1343.02L1364.87 -146.76L1343.02 -184.6H1353.23L1375.1 -146.75ZM1351.92 -111.18L1372.45 -146.75L1351.92 -182.32H1346.97L1367.51 -146.75L1346.97 -111.18H1351.92ZM1257.98 -131.11L1252.87 -122.27H1209.17L1199 -139.9V-157.57L1214.27 -131.11H1257.98ZM1251.56 -124.55L1254.03 -128.83H1212.96L1201.28 -149.05V-140.49L1210.48 -124.55H1251.56ZM1344.21 -120L1339.1 -111.16L1317.25 -149.01H1273.54L1278.65 -157.85H1322.35L1344.21 -120ZM1339.1 -115.72L1341.57 -120L1321.04 -155.57H1279.96L1277.49 -151.29H1318.56L1339.1 -115.72ZM1390.53 -146.72L1368.67 -108.9H1358.46L1380.32 -146.76L1358.46 -184.6H1368.67L1390.53 -146.72ZM1367.36 -111.18L1387.89 -146.75L1367.36 -182.32H1362.41L1382.95 -146.75L1362.41 -111.18H1367.36ZM1250.26 -117.74L1245.15 -108.9H1201.45L1199 -113.14V-130.82L1206.55 -117.74H1250.26ZM1243.84 -111.18L1246.31 -115.46H1205.23L1201.28 -122.31V-113.75L1202.76 -111.18H1243.84ZM1458.7 -184.6L1436.85 -146.75L1458.7 -108.9H1448.49L1426.63 -146.75L1448.49 -184.6H1458.7ZM1434.21 -146.75L1454.75 -182.32H1449.81L1429.27 -146.75L1449.81 -111.18H1454.75L1434.21 -146.75ZM1474.1 -108.9H1463.93L1442.1 -146.75L1463.93 -184.6H1474.1L1452.29 -146.75L1474.1 -108.9ZM1461.63 -167.5L1470.19 -182.32H1465.25L1444.71 -146.75L1465.25 -111.18H1470.19L1449.65 -146.75L1461.63 -167.5ZM1405.97 -146.75L1384.1 -108.9H1373.9L1395.76 -146.76L1373.9 -184.6H1384.1L1405.97 -146.75ZM1382.8 -111.18L1403.33 -146.75L1382.8 -182.32H1377.85L1398.39 -146.75L1377.85 -111.18H1382.8ZM1443.26 -184.6L1421.41 -146.75L1443.26 -108.9H1433.1L1411.2 -146.75L1433.1 -184.6H1443.26ZM1418.77 -146.75L1439.31 -182.32H1434.31L1413.83 -146.75L1434.36 -111.18H1439.36L1418.77 -146.75ZM1205.24 120.69L1199 131.5V109.86L1205.24 120.69ZM1201.24 122.99L1202.57 120.69L1201.24 118.38V122.99ZM1212.96 107.31L1207.86 116.16L1199 100.81V83.1L1212.96 107.31ZM1208.43 110.6L1210.33 107.31L1201.33 91.63V100.2L1207.91 111.6L1208.43 110.6ZM1220.68 93.94L1215.58 102.79L1199 74.1V56.38L1220.68 93.94ZM1215.58 98.22L1218.1 93.94L1201.33 64.89V73.46L1215.58 98.22ZM1250.26 42.72L1245.15 51.56H1201.45L1199 47.32V29.64L1206.55 42.72H1250.26ZM1243.84 49.28L1246.31 45H1205.23L1201.28 38.15V46.71L1202.76 49.28H1243.84ZM1282.45 120.69L1274.1 135.2H1263.86L1277.34 111.84L1282.45 120.69ZM1272.75 132.92L1279.81 120.69L1277.34 116.4L1267.81 132.92H1272.75ZM1274.75 107.31L1258.63 135.2H1248.41L1269.62 98.47L1274.75 107.31ZM1257.31 132.92L1272.1 107.31L1269.63 103.03L1252.37 132.92H1257.31ZM1212.96 -53.15L1207.86 -44.3L1199 -59.65V-77.34L1212.96 -53.15ZM1208.43 -49.9L1210.33 -53.19L1201.33 -68.86V-60.3L1207.86 -48.9L1208.43 -49.9ZM1257.98 29.31L1252.87 38.15H1209.17L1199 20.58V2.89L1214.27 29.35L1257.98 29.31ZM1251.56 35.87L1254.03 31.59H1212.96L1201.28 11.4V19.97L1210.48 35.91L1251.56 35.87ZM1220.68 -66.52L1215.58 -57.67L1199 -86.39V-104.08L1220.68 -66.52ZM1215.58 -62.23L1218.1 -66.52L1201.33 -95.52V-87L1215.58 -62.23ZM1205.24 -39.77L1199 -28.9V-50.59L1205.24 -39.77ZM1201.24 -37.47L1202.57 -39.77L1201.24 -42.08V-37.47ZM1265.7 15.98L1260.59 24.82H1216.89L1199 -6.17999V-23.85L1222 15.98H1265.7ZM1259.28 22.54L1261.75 18.26H1220.67L1201.28 -15.34V-6.77L1218.2 22.54H1259.28Z" fill="#D1CF9C" fill-opacity="0.26"/>
</g>
<defs>
<clipPath id="clip0">
<rect width="1212" height="51" rx="5" fill="white"/>
</clipPath>
</defs>
</svg>
