<svg width="1212" height="189" viewBox="0 0 1212 189" fill="none" xmlns="http://www.w3.org/2000/svg">
<g clip-path="url(#clip0)">
<path d="M183.74 162.82H140.03L118.18 200.67L113.1 191.83L134.96 153.98H178.66L183.74 162.82ZM118.18 196.1L138.72 160.53H179.79L177.32 156.25H136.24L115.71 191.83L118.18 196.1ZM215.93 165.1L210.82 173.95L188.97 136.1H145.26L150.37 127.25H194.1L215.93 165.1ZM210.82 169.39L213.29 165.1L192.76 129.51H151.68L149.21 133.8H190.28L210.82 169.39ZM239.1 151.71L217.24 189.56H207.02L228.87 151.71L207.02 113.86H217.23L239.1 151.71ZM215.93 187.28L236.46 151.71L215.92 116.1H210.97L231.51 151.67L210.97 187.24L215.93 187.28ZM223.66 151.71L218.55 160.56L196.69 122.71H152.98L158.1 113.86H201.8L223.66 151.71ZM218.55 155.99L221.02 151.71L200.48 116.1H159.4L156.93 120.38H198L218.55 155.99ZM268.67 73.75L263.56 82.59H219.86L197.99 44.74L203.1 35.9L224.95 73.75H268.67ZM262.25 80.31L264.72 76.03H223.64L203.1 40.46L200.63 44.74L221.17 80.31H262.25ZM254.54 151.71L232.68 189.56H222.46L244.32 151.71L222.46 113.86H232.67L254.54 151.71ZM231.37 187.28L251.9 151.71L231.36 116.1H226.41L246.95 151.67L226.41 187.24L231.37 187.28ZM269.98 151.71L248.1 189.56H237.9L259.76 151.71L237.9 113.86H248.1L269.98 151.71ZM246.8 187.28L267.33 151.71L246.8 116.1H241.85L262.39 151.67L241.85 187.24L246.8 187.28ZM277.69 165.1L255.83 202.96H212.1L207.02 194.1H250.73L272.58 156.25L277.69 165.1ZM254.52 200.67L275.1 165.1L272.63 160.82L252.1 196.37H210.97L213.44 200.65L254.52 200.67ZM199.18 189.58H155.47L133.62 227.41L128.51 218.57L150.37 180.72H194.1L199.18 189.58ZM133.62 222.85L154.16 187.28H195.23L192.76 183H151.68L131.15 218.57L133.62 222.85ZM285.41 178.46L263.55 216.31H219.85L214.74 207.46H258.45L280.3 169.61L285.41 178.46ZM262.24 214.03L282.77 178.46L280.3 174.17L259.77 209.74H218.69L221.16 214.03H262.24ZM191.46 176.19H147.75L125.9 214.04L120.79 205.2L142.65 167.35H186.35L191.46 176.19ZM125.9 209.48L146.44 173.91H187.51L185.04 169.63H143.96L123.43 205.2L125.9 209.48ZM115.57 231.94L93.71 269.79H83.5L105.35 231.94L83.5 194.1H93.71L115.57 231.94ZM92.4 267.51L112.93 231.94L92.4 196.37H87.4L107.94 231.94L87.45 267.51H92.4ZM260.94 247.58L255.83 256.42H212.1L190.24 218.57L195.35 209.73L217.2 247.58H260.94ZM254.52 254.1L256.99 249.82H215.92L195.38 214.25L192.91 218.53L213.45 254.1H254.52ZM293.1 191.83L271.24 229.68H227.54L222.43 220.83H266.14L287.99 182.98L293.1 191.83ZM269.96 227.4L290.49 191.83L288.02 187.55L267.48 223.1H226.41L228.88 227.39L269.96 227.4ZM338.1 109.33H294.43L272.58 147.18L267.47 138.34L289.33 100.49H333.03L338.1 109.33ZM272.58 142.62L293.1 107.1H334.17L331.7 102.82H290.65L270.1 138.34L272.58 142.62ZM338.1 189.56H327.93L306.1 151.71L327.95 113.86H338.1L316.29 151.71L338.1 189.56ZM325.59 130.96L334.19 116.1H329.25L308.71 151.71L329.25 187.28H334.19L313.65 151.71L325.59 130.96ZM199.18 194.1L177.33 231.95L199.18 269.8H188.97L167.1 231.94L188.97 194.1H199.18ZM174.69 231.94L195.23 196.37H190.28L169.75 231.94L190.28 267.51H195.23L174.69 231.94ZM100.12 231.94L78.27 269.79H68.1L89.95 231.94L68.1 194.1H78.27L100.12 231.94ZM76.96 267.51L97.49 231.94L76.96 196.37H72.01L92.55 231.94L72.01 267.51H76.96ZM131.01 231.94L109.15 269.79H98.94L120.79 231.94L98.94 194.1H109.15L131.01 231.94ZM107.83 267.51L128.37 231.94L107.83 196.37H102.89L123.43 231.94L102.89 267.51H107.83ZM168.3 194.1L146.45 231.94L168.3 269.79H158.1L136.23 231.94L158.1 194.1H168.3ZM143.81 231.94L164.35 196.37H159.35L138.87 231.94L159.4 267.51H164.4L143.81 231.94ZM183.74 269.79H173.53L151.67 231.94L173.53 194.1H183.74L161.89 231.94L183.74 269.79ZM159.25 231.94L179.79 196.37H174.79L154.31 231.94L174.84 267.51H179.84L159.25 231.94ZM208.25 178.46L203.1 187.3L181.25 149.45H137.54L142.65 140.61H186.35L208.25 178.46ZM203.1 182.74L205.57 178.46L185.04 142.89H143.96L141.49 147.17H182.56L203.1 182.74ZM183.74 2.36H140.03L118.18 40.21L113.1 31.37L134.93 -6.48H178.63L183.74 2.36ZM118.18 35.65L138.72 0.0999985H179.79L177.32 -4.18H136.24L115.71 31.37L118.18 35.65ZM322.7 113.86L300.85 151.71L322.7 189.56H312.49L290.63 151.71L312.49 113.86H322.7ZM313.81 187.28H318.75L298.21 151.71L318.75 116.1H313.81L293.27 151.71L313.81 187.28ZM285.41 18L263.55 55.85H219.85L214.74 47H258.45L280.3 9.15L285.41 18ZM262.24 53.57L282.77 18L280.3 13.72L259.77 49.28H218.69L221.16 53.57H262.24ZM146.45 98.23L124.59 136.1H80.89L75.78 127.25H119.49L141.34 89.38L146.45 98.23ZM123.28 133.8L143.81 98.23L141.34 93.94L120.8 129.51H79.73L82.2 133.8H123.28ZM199.18 29.1H155.47L133.62 66.96L128.51 58.1L150.37 20.26H194.1L199.18 29.1ZM133.62 62.39L154.16 26.82H195.23L192.76 22.54H151.68L131.15 58.1L133.62 62.39ZM191.46 15.73H147.75L125.9 53.58L120.79 44.74L142.65 6.89H186.35L191.46 15.73ZM125.9 49.02L146.44 13.45H187.51L185.04 9.17H143.96L123.43 44.74L125.9 49.02ZM322.7 82.59H278.99L257.1 120.44L252 111.6L273.85 73.75H317.55L322.7 82.59ZM257.1 115.88L277.64 80.31H318.71L316.24 76.03H275.2L254.67 111.6L257.1 115.88ZM129.7 -6.48L124.59 2.36H80.89L63 -28.64V-46.31L86 -6.48H129.7ZM123.28 0.0999985L125.75 -4.18H84.67L65.28 -37.8V-29.23L82.2 0.0999985H123.28ZM330.42 95.96H286.71L264.86 133.81L259.76 124.97L281.61 87.1H325.31L330.42 95.96ZM264.86 129.25L285.4 93.68H326.47L324 89.4H282.93L262.39 124.97L264.86 129.25ZM268.66 234.25L263.55 243.1H219.85L197.99 205.2L203.1 196.35L224.95 234.21L268.66 234.25ZM262.24 240.81L264.71 236.53H223.64L203.1 200.92L200.63 205.2L221.17 240.77L262.24 240.81ZM154.17 111.6L132.31 149.45H88.61L83.5 140.61H127.21L149.1 102.75L154.17 111.6ZM131 147.17L151.53 111.6L149.1 107.32L128.52 142.89H87.45L89.92 147.17H131ZM277.69 4.63L255.83 42.48H212.1L206.99 33.63H250.7L272.55 -4.22L277.69 4.63ZM254.52 40.2L275.1 4.63L272.63 0.34L252.1 35.91H210.97L213.45 40.2H254.52ZM115.57 71.48L93.71 109.33H83.5L105.35 71.48L83.5 33.63H93.71L115.57 71.48ZM92.4 107.1L112.93 71.48L92.4 35.91H87.4L107.99 71.48L87.45 107.1H92.4ZM100.1 71.48L78.27 109.33H68.1L89.91 71.48L68.1 33.63H78.27L100.1 71.48ZM76.96 107.1L97.49 71.48L76.96 35.91H72.01L92.55 71.48L72.01 107.1H76.96ZM260.94 87.1L255.83 95.94H212.1L190.27 58.1L195.38 49.26L217.23 87.1H260.94ZM254.52 93.66L256.99 89.38H215.92L195.38 53.83L192.91 58.1L213.45 93.67L254.52 93.66ZM307.26 113.84L285.41 151.71L307.26 189.56H297.1L275.2 151.71L297.1 113.86L307.26 113.84ZM298.36 187.26H303.36L282.77 151.71L303.31 116.1H298.31L277.83 151.71L298.36 187.26ZM131.01 71.48L109.15 109.33H98.94L120.79 71.48L98.94 33.63H109.15L131.01 71.48ZM107.83 107.1L128.37 71.48L107.83 35.91H102.89L123.43 71.48L102.89 107.1H107.83ZM138.73 84.91L116.87 122.71H73.17L68.1 113.86H111.77L133.62 76.01L138.73 84.91ZM115.56 120.42L136.1 84.86L133.63 80.57L113.1 116.1H72.01L74.48 120.38L115.56 120.42ZM168.3 33.63L146.45 71.48L168.3 109.33H158.1L136.23 71.48L158.1 33.63H168.3ZM143.81 71.48L164.35 35.91H159.35L138.87 71.48L159.4 107.1H164.4L143.81 71.48ZM199.18 33.63L177.33 71.48L199.18 109.33H188.97L167.1 71.48L188.96 33.63H199.18ZM187.1 50.1L195.28 35.93H190.33L169.75 71.48L190.28 107.1H195.23L174.69 71.48L187.1 50.1ZM253.27 100.51L248.1 109.33H204.4L182.56 71.48L187.66 62.64L209.51 100.49L253.27 100.51ZM246.8 107.1L249.27 102.82H208.2L187.66 67.2L185.19 71.48L205.72 107.1H246.8ZM183.74 109.38H173.53L151.67 71.48L173.53 33.63H183.74L161.89 71.48L183.74 109.38ZM159.25 71.48L179.79 35.91H174.79L154.31 71.48L174.84 107.1H179.84L159.25 71.48ZM253.25 260.95L248.1 269.79H204.4L182.55 231.94L187.65 223.1L209.5 260.95H253.25ZM246.83 267.51L249.3 263.23H208.2L187.66 227.66L185.19 231.94L205.72 267.51H246.83ZM343.23 198.33V216.02L335.68 202.94H291.94L297.1 194.1H340.81L343.23 198.33ZM340.95 207.51V198.94L339.47 196.37H298.36L295.89 200.65H336.97L340.95 207.51ZM343.23 171.59V189.28L321.52 151.71L326.62 142.87L343.23 171.59ZM340.95 180.76V172.2L326.65 147.43L324.18 151.71L340.95 180.76ZM343.23 144.84V162.53L329.23 138.34L334.33 129.5L343.23 144.84ZM340.95 154.02V145.46L334.34 134.1L331.87 138.38L340.95 154.02ZM343.23 91.36V109.1L341 105.19L320.21 69.22H276.5L281.61 60.38H325.31L343.23 91.36ZM340.95 100.53V91.97L324 62.66H282.93L280.45 66.94H321.52L340.95 100.53ZM343.23 114.15V135.79L336.99 124.97L343.23 114.15ZM340.95 127.28V122.66L339.62 124.97L340.95 127.28ZM343.23 64.61V82.3L327.93 55.85H284.22L289.33 47H333.03L343.23 64.61ZM340.95 73.79V65.23L331.75 49.28H290.65L288.17 53.57H329.25L340.95 73.79ZM330.45 256.42H286.71L277.03 273.2H266.82L281.61 247.58H325.31L330.45 256.42ZM275.74 270.92L285.4 254.1H326.47L324 249.82H282.93L270.77 270.88L275.74 270.92ZM322.74 243.05H278.99L261.59 273.2H251.38L273.89 234.2H317.59L322.74 243.05ZM260.31 270.92L277.72 240.77H318.79L316.32 236.49H275.2L255.33 270.92H260.31ZM343.2 225.1V242.79L327.93 216.34H284.22L289.33 207.49H333.03L343.2 225.1ZM340.92 234.28V225.71L331.72 209.77H290.65L288.17 214.06H329.25L340.92 234.28ZM338.1 269.79H294.43L292.43 273.2H282.26L289.33 260.95H333.03L338.1 269.79ZM291.1 270.92L293.1 267.51H334.17L331.7 263.23H290.65L286.21 270.92H291.1ZM343.15 251.82V269.55L340.92 265.63L320.16 229.68H276.5L281.61 220.83H325.31L343.15 251.82ZM340.87 260.99V252.43L324 223.1H282.93L280.45 227.39H321.52L340.87 260.99ZM343.2 11.1V28.79L321.52 -8.75L326.62 -17.59L343.2 11.1ZM340.92 20.27V11.71L326.62 -13.06L324.15 -8.78L340.92 20.27ZM154.82 -50L132.31 -11H88.61L83.5 -19.85H127.21L144.61 -50H154.82ZM131 -13.29L150.87 -47.72H145.93L128.52 -17.57H87.45L89.92 -13.29H131ZM262.9 -50L257.14 -40L251.38 -50H262.9ZM257.1 -44.58L258.91 -47.72H255.29L257.1 -44.58ZM278.31 -50L264.86 -26.65L259.76 -35.49L268.1 -50H278.31ZM264.86 -31.21L274.4 -47.72H269.4L262.34 -35.49L264.86 -31.21ZM123.94 -50L116.87 -37.75H73.17L68.1 -46.6H111.77L113.77 -50H123.94ZM115.56 -40L119.99 -47.69H115.1L113.1 -44.29H72.01L74.48 -40H115.56ZM139.38 -50L124.59 -24.38H80.89L75.78 -33.22H119.49L129.17 -50H139.38ZM123.28 -26.66L135.43 -47.72H130.49L120.8 -30.9H79.73L82.2 -26.66H123.28ZM293.79 -50L272.58 -13.27L267.47 -22.12L283.57 -50H293.79ZM272.58 -17.84L289.84 -47.72H284.84L270.1 -22.12L272.58 -17.84ZM154.82 273.2H143.3L149.06 263.2L154.82 273.2ZM147.25 270.92H150.87L149.1 267.77L147.25 270.92ZM343.25 -15.61V2.1L329.25 -22.09L334.35 -30.93L343.25 -15.61ZM340.97 -6.44V-15L334.39 -26.4L331.92 -22.12L340.97 -6.44ZM343.25 -46.31V-24.67L337.01 -35.49L343.25 -46.31ZM340.97 -33.18V-37.79L339.64 -35.49L340.97 -33.18ZM343.25 37.87V55.56L335.65 42.48H291.94L297.1 33.63H340.81L343.25 37.87ZM340.92 47.1V38.53L339.44 35.96H298.36L295.89 40.25H336.97L340.92 47.1ZM293.1 31.37L271.27 69.22H227.57L222.46 60.38H266.17L288.02 22.53L293.1 31.37ZM269.96 66.94L290.49 31.37L288.02 27.1L267.48 62.66H226.41L228.88 66.94H269.96ZM215.96 4.63L210.85 13.47L188.97 -24.38H145.26L150.37 -33.22H194.1L215.96 4.63ZM210.85 8.91L213.32 4.63L192.76 -30.9H151.68L149.21 -26.62H190.28L210.85 8.91ZM223.68 -8.75L218.54 0.0999985L196.69 -37.75H152.98L158.1 -46.6H201.8L223.68 -8.75ZM218.57 -4.46L221.04 -8.75L200.48 -44.32H159.4L156.93 -40.03H198L218.57 -4.46ZM239.1 -8.75L217.23 29.1H207.02L228.87 -8.76L207.02 -46.6H217.23L239.1 -8.75ZM215.92 26.82L236.45 -8.75L215.92 -44.32H210.97L231.51 -8.75L210.97 26.82H215.92ZM121.98 6.89L116.87 15.73H73.17L63 -1.9V-19.57L78.27 6.89H121.98ZM115.56 13.45L118.03 9.17H76.96L65.28 -11.05V-2.49L74.48 13.45H115.56ZM208.21 18L203.1 26.84L181.25 -11.01H137.54L142.65 -19.85H186.35L208.21 18ZM203.1 22.28L205.57 18L185.04 -17.57H143.96L141.49 -13.29H182.56L203.1 22.28ZM254.53 -8.72L232.67 29.1H222.46L244.32 -8.76L222.46 -46.6H232.67L254.53 -8.72ZM231.36 26.82L251.89 -8.75L231.36 -44.32H226.41L246.95 -8.75L226.41 26.82H231.36ZM114.26 20.26L109.15 29.1H65.45L63 24.86V7.18L70.55 20.26H114.26ZM107.84 26.82L110.31 22.54H69.23L65.28 15.69V24.25L66.76 26.82H107.84ZM322.7 -46.6L300.85 -8.75L322.7 29.1H312.49L290.63 -8.75L312.49 -46.6H322.7ZM298.21 -8.75L318.75 -44.32H313.81L293.27 -8.75L313.81 26.82H318.75L298.21 -8.75ZM338.1 29.1H327.93L306.1 -8.75L327.93 -46.6H338.1L316.29 -8.75L338.1 29.1ZM325.63 -29.5L334.19 -44.32H329.25L308.71 -8.75L329.25 26.82H334.19L313.65 -8.75L325.63 -29.5ZM269.97 -8.75L248.1 29.1H237.9L259.76 -8.76L237.9 -46.6H248.1L269.97 -8.75ZM246.8 26.82L267.33 -8.75L246.8 -44.32H241.85L262.39 -8.75L241.85 26.82H246.8ZM307.26 -46.6L285.41 -8.75L307.26 29.1H297.1L275.2 -8.75L297.1 -46.6H307.26ZM282.77 -8.75L303.31 -44.32H298.31L277.83 -8.75L298.36 26.82H303.36L282.77 -8.75ZM69.24 258.69L63 269.5V247.86L69.24 258.69ZM65.24 260.99L66.57 258.69L65.24 256.38V260.99ZM76.96 245.31L71.86 254.16L63 238.81V221.1L76.96 245.31ZM72.43 248.6L74.33 245.31L65.33 229.63V238.2L71.91 249.6L72.43 248.6ZM84.68 231.94L79.58 240.79L63 212.1V194.38L84.68 231.94ZM79.58 236.22L82.1 231.94L65.33 202.89V211.46L79.58 236.22ZM114.26 180.72L109.15 189.56H65.45L63 185.32V167.64L70.55 180.72H114.26ZM107.84 187.28L110.31 183H69.23L65.28 176.15V184.71L66.76 187.28H107.84ZM146.45 258.69L138.1 273.2H127.86L141.34 249.84L146.45 258.69ZM136.75 270.92L143.81 258.69L141.34 254.4L131.81 270.92H136.75ZM138.75 245.31L122.63 273.2H112.41L133.62 236.47L138.75 245.31ZM121.31 270.92L136.1 245.31L133.63 241.03L116.37 270.92H121.31ZM76.96 84.85L71.86 93.7L63 78.35V60.66L76.96 84.85ZM72.43 88.1L74.33 84.81L65.33 69.14V77.7L71.86 89.1L72.43 88.1ZM121.98 167.31L116.87 176.15H73.17L63 158.58V140.89L78.27 167.35L121.98 167.31ZM115.56 173.87L118.03 169.59H76.96L65.28 149.4V157.97L74.48 173.91L115.56 173.87ZM84.68 71.48L79.58 80.33L63 51.61V33.92L84.68 71.48ZM79.58 75.77L82.1 71.48L65.33 42.48V51L79.58 75.77ZM69.24 98.23L63 109.1V87.41L69.24 98.23ZM65.24 100.53L66.57 98.23L65.24 95.92V100.53ZM129.7 153.98L124.59 162.82H80.89L63 131.82V114.15L86 153.98H129.7ZM123.28 160.54L125.75 156.26H84.67L65.28 122.66V131.23L82.2 160.54H123.28Z" fill="#D1CF9C" fill-opacity="0.26"/>
<path d="M751.74 162.82H708.03L686.18 200.67L681.1 191.83L702.96 153.98H746.66L751.74 162.82ZM686.18 196.1L706.72 160.53H747.79L745.32 156.25H704.24L683.71 191.83L686.18 196.1ZM783.93 165.1L778.82 173.95L756.97 136.1H713.26L718.37 127.25H762.1L783.93 165.1ZM778.82 169.39L781.29 165.1L760.76 129.51H719.68L717.21 133.8H758.28L778.82 169.39ZM807.1 151.71L785.24 189.56H775.02L796.87 151.71L775.02 113.86H785.23L807.1 151.71ZM783.93 187.28L804.46 151.71L783.92 116.1H778.97L799.51 151.67L778.97 187.24L783.93 187.28ZM791.66 151.71L786.55 160.56L764.69 122.71H720.98L726.1 113.86H769.8L791.66 151.71ZM786.55 155.99L789.02 151.71L768.48 116.1H727.4L724.93 120.38H766L786.55 155.99ZM836.67 73.75L831.56 82.59H787.86L765.99 44.74L771.1 35.9L792.95 73.75H836.67ZM830.25 80.31L832.72 76.03H791.64L771.1 40.46L768.63 44.74L789.17 80.31H830.25ZM822.54 151.71L800.68 189.56H790.46L812.32 151.71L790.46 113.86H800.67L822.54 151.71ZM799.37 187.28L819.9 151.71L799.36 116.1H794.41L814.95 151.67L794.41 187.24L799.37 187.28ZM837.98 151.71L816.1 189.56H805.9L827.76 151.71L805.9 113.86H816.1L837.98 151.71ZM814.8 187.28L835.33 151.71L814.8 116.1H809.85L830.39 151.67L809.85 187.24L814.8 187.28ZM845.69 165.1L823.83 202.96H780.1L775.02 194.1H818.73L840.58 156.25L845.69 165.1ZM822.52 200.67L843.1 165.1L840.63 160.82L820.1 196.37H778.97L781.44 200.65L822.52 200.67ZM767.18 189.58H723.47L701.62 227.41L696.51 218.57L718.37 180.72H762.1L767.18 189.58ZM701.62 222.85L722.16 187.28H763.23L760.76 183H719.68L699.15 218.57L701.62 222.85ZM853.41 178.46L831.55 216.31H787.85L782.74 207.46H826.45L848.3 169.61L853.41 178.46ZM830.24 214.03L850.77 178.46L848.3 174.17L827.77 209.74H786.69L789.16 214.03H830.24ZM759.46 176.19H715.75L693.9 214.04L688.79 205.2L710.65 167.35H754.35L759.46 176.19ZM693.9 209.48L714.44 173.91H755.51L753.04 169.63H711.96L691.43 205.2L693.9 209.48ZM683.57 231.94L661.71 269.79H651.5L673.35 231.94L651.5 194.1H661.71L683.57 231.94ZM660.4 267.51L680.93 231.94L660.4 196.37H655.4L675.94 231.94L655.45 267.51H660.4ZM828.94 247.58L823.83 256.42H780.1L758.24 218.57L763.35 209.73L785.2 247.58H828.94ZM822.52 254.1L824.99 249.82H783.92L763.38 214.25L760.91 218.53L781.45 254.1H822.52ZM861.1 191.83L839.24 229.68H795.54L790.43 220.83H834.14L855.99 182.98L861.1 191.83ZM837.96 227.4L858.49 191.83L856.02 187.55L835.48 223.1H794.41L796.88 227.39L837.96 227.4ZM906.1 109.33H862.43L840.58 147.18L835.47 138.34L857.33 100.49H901.03L906.1 109.33ZM840.58 142.62L861.1 107.1H902.17L899.7 102.82H858.65L838.1 138.34L840.58 142.62ZM906.1 189.56H895.93L874.1 151.71L895.95 113.86H906.1L884.29 151.71L906.1 189.56ZM893.59 130.96L902.19 116.1H897.25L876.71 151.71L897.25 187.28H902.19L881.65 151.71L893.59 130.96ZM767.18 194.1L745.33 231.95L767.18 269.8H756.97L735.1 231.94L756.97 194.1H767.18ZM742.69 231.94L763.23 196.37H758.28L737.75 231.94L758.28 267.51H763.23L742.69 231.94ZM668.12 231.94L646.27 269.79H636.1L657.95 231.94L636.1 194.1H646.27L668.12 231.94ZM644.96 267.51L665.49 231.94L644.96 196.37H640.01L660.55 231.94L640.01 267.51H644.96ZM699.01 231.94L677.15 269.79H666.94L688.79 231.94L666.94 194.1H677.15L699.01 231.94ZM675.83 267.51L696.37 231.94L675.83 196.37H670.89L691.43 231.94L670.89 267.51H675.83ZM736.3 194.1L714.45 231.94L736.3 269.79H726.1L704.23 231.94L726.1 194.1H736.3ZM711.81 231.94L732.35 196.37H727.35L706.87 231.94L727.4 267.51H732.4L711.81 231.94ZM751.74 269.79H741.53L719.67 231.94L741.53 194.1H751.74L729.89 231.94L751.74 269.79ZM727.25 231.94L747.79 196.37H742.79L722.31 231.94L742.84 267.51H747.84L727.25 231.94ZM776.25 178.46L771.1 187.3L749.25 149.45H705.54L710.65 140.61H754.35L776.25 178.46ZM771.1 182.74L773.57 178.46L753.04 142.89H711.96L709.49 147.17H750.56L771.1 182.74ZM751.74 2.36H708.03L686.18 40.21L681.1 31.37L702.93 -6.48H746.63L751.74 2.36ZM686.18 35.65L706.72 0.0999985H747.79L745.32 -4.18H704.24L683.71 31.37L686.18 35.65ZM890.7 113.86L868.85 151.71L890.7 189.56H880.49L858.63 151.71L880.49 113.86H890.7ZM881.81 187.28H886.75L866.21 151.71L886.75 116.1H881.81L861.27 151.71L881.81 187.28ZM853.41 18L831.55 55.85H787.85L782.74 47H826.45L848.3 9.15L853.41 18ZM830.24 53.57L850.77 18L848.3 13.72L827.77 49.28H786.69L789.16 53.57H830.24ZM714.45 98.23L692.59 136.1H648.89L643.78 127.25H687.49L709.34 89.38L714.45 98.23ZM691.28 133.8L711.81 98.23L709.34 93.94L688.8 129.51H647.73L650.2 133.8H691.28ZM767.18 29.1H723.47L701.62 66.96L696.51 58.1L718.37 20.26H762.1L767.18 29.1ZM701.62 62.39L722.16 26.82H763.23L760.76 22.54H719.68L699.15 58.1L701.62 62.39ZM759.46 15.73H715.75L693.9 53.58L688.79 44.74L710.65 6.89H754.35L759.46 15.73ZM693.9 49.02L714.44 13.45H755.51L753.04 9.17H711.96L691.43 44.74L693.9 49.02ZM890.7 82.59H846.99L825.1 120.44L820 111.6L841.85 73.75H885.55L890.7 82.59ZM825.1 115.88L845.64 80.31H886.71L884.24 76.03H843.2L822.67 111.6L825.1 115.88ZM697.7 -6.48L692.59 2.36H648.89L631 -28.64V-46.31L654 -6.48H697.7ZM691.28 0.0999985L693.75 -4.18H652.67L633.28 -37.8V-29.23L650.2 0.0999985H691.28ZM898.42 95.96H854.71L832.86 133.81L827.76 124.97L849.61 87.1H893.31L898.42 95.96ZM832.86 129.25L853.4 93.68H894.47L892 89.4H850.93L830.39 124.97L832.86 129.25ZM836.66 234.25L831.55 243.1H787.85L765.99 205.2L771.1 196.35L792.95 234.21L836.66 234.25ZM830.24 240.81L832.71 236.53H791.64L771.1 200.92L768.63 205.2L789.17 240.77L830.24 240.81ZM722.17 111.6L700.31 149.45H656.61L651.5 140.61H695.21L717.1 102.75L722.17 111.6ZM699 147.17L719.53 111.6L717.1 107.32L696.52 142.89H655.45L657.92 147.17H699ZM845.69 4.63L823.83 42.48H780.1L774.99 33.63H818.7L840.55 -4.22L845.69 4.63ZM822.52 40.2L843.1 4.63L840.63 0.34L820.1 35.91H778.97L781.45 40.2H822.52ZM683.57 71.48L661.71 109.33H651.5L673.35 71.48L651.5 33.63H661.71L683.57 71.48ZM660.4 107.1L680.93 71.48L660.4 35.91H655.4L675.99 71.48L655.45 107.1H660.4ZM668.1 71.48L646.27 109.33H636.1L657.91 71.48L636.1 33.63H646.27L668.1 71.48ZM644.96 107.1L665.49 71.48L644.96 35.91H640.01L660.55 71.48L640.01 107.1H644.96ZM828.94 87.1L823.83 95.94H780.1L758.27 58.1L763.38 49.26L785.23 87.1H828.94ZM822.52 93.66L824.99 89.38H783.92L763.38 53.83L760.91 58.1L781.45 93.67L822.52 93.66ZM875.26 113.84L853.41 151.71L875.26 189.56H865.1L843.2 151.71L865.1 113.86L875.26 113.84ZM866.36 187.26H871.36L850.77 151.71L871.31 116.1H866.31L845.83 151.71L866.36 187.26ZM699.01 71.48L677.15 109.33H666.94L688.79 71.48L666.94 33.63H677.15L699.01 71.48ZM675.83 107.1L696.37 71.48L675.83 35.91H670.89L691.43 71.48L670.89 107.1H675.83ZM706.73 84.91L684.87 122.71H641.17L636.1 113.86H679.77L701.62 76.01L706.73 84.91ZM683.56 120.42L704.1 84.86L701.63 80.57L681.1 116.1H640.01L642.48 120.38L683.56 120.42ZM736.3 33.63L714.45 71.48L736.3 109.33H726.1L704.23 71.48L726.1 33.63H736.3ZM711.81 71.48L732.35 35.91H727.35L706.87 71.48L727.4 107.1H732.4L711.81 71.48ZM767.18 33.63L745.33 71.48L767.18 109.33H756.97L735.1 71.48L756.96 33.63H767.18ZM755.1 50.1L763.28 35.93H758.33L737.75 71.48L758.28 107.1H763.23L742.69 71.48L755.1 50.1ZM821.27 100.51L816.1 109.33H772.4L750.56 71.48L755.66 62.64L777.51 100.49L821.27 100.51ZM814.8 107.1L817.27 102.82H776.2L755.66 67.2L753.19 71.48L773.72 107.1H814.8ZM751.74 109.38H741.53L719.67 71.48L741.53 33.63H751.74L729.89 71.48L751.74 109.38ZM727.25 71.48L747.79 35.91H742.79L722.31 71.48L742.84 107.1H747.84L727.25 71.48ZM821.25 260.95L816.1 269.79H772.4L750.55 231.94L755.65 223.1L777.5 260.95H821.25ZM814.83 267.51L817.3 263.23H776.2L755.66 227.66L753.19 231.94L773.72 267.51H814.83ZM911.23 198.33V216.02L903.68 202.94H859.94L865.1 194.1H908.81L911.23 198.33ZM908.95 207.51V198.94L907.47 196.37H866.36L863.89 200.65H904.97L908.95 207.51ZM911.23 171.59V189.28L889.52 151.71L894.62 142.87L911.23 171.59ZM908.95 180.76V172.2L894.65 147.43L892.18 151.71L908.95 180.76ZM911.23 144.84V162.53L897.23 138.34L902.33 129.5L911.23 144.84ZM908.95 154.02V145.46L902.34 134.1L899.87 138.38L908.95 154.02ZM911.23 91.36V109.1L909 105.19L888.21 69.22H844.5L849.61 60.38H893.31L911.23 91.36ZM908.95 100.53V91.97L892 62.66H850.93L848.45 66.94H889.52L908.95 100.53ZM911.23 114.15V135.79L904.99 124.97L911.23 114.15ZM908.95 127.28V122.66L907.62 124.97L908.95 127.28ZM911.23 64.61V82.3L895.93 55.85H852.22L857.33 47H901.03L911.23 64.61ZM908.95 73.79V65.23L899.75 49.28H858.65L856.17 53.57H897.25L908.95 73.79ZM898.45 256.42H854.71L845.03 273.2H834.82L849.61 247.58H893.31L898.45 256.42ZM843.74 270.92L853.4 254.1H894.47L892 249.82H850.93L838.77 270.88L843.74 270.92ZM890.74 243.05H846.99L829.59 273.2H819.38L841.89 234.2H885.59L890.74 243.05ZM828.31 270.92L845.72 240.77H886.79L884.32 236.49H843.2L823.33 270.92H828.31ZM911.2 225.1V242.79L895.93 216.34H852.22L857.33 207.49H901.03L911.2 225.1ZM908.92 234.28V225.71L899.72 209.77H858.65L856.17 214.06H897.25L908.92 234.28ZM906.1 269.79H862.43L860.43 273.2H850.26L857.33 260.95H901.03L906.1 269.79ZM859.1 270.92L861.1 267.51H902.17L899.7 263.23H858.65L854.21 270.92H859.1ZM911.15 251.82V269.55L908.92 265.63L888.16 229.68H844.5L849.61 220.83H893.31L911.15 251.82ZM908.87 260.99V252.43L892 223.1H850.93L848.45 227.39H889.52L908.87 260.99ZM911.2 11.1V28.79L889.52 -8.75L894.62 -17.59L911.2 11.1ZM908.92 20.27V11.71L894.62 -13.06L892.15 -8.78L908.92 20.27ZM722.82 -50L700.31 -11H656.61L651.5 -19.85H695.21L712.61 -50H722.82ZM699 -13.29L718.87 -47.72H713.93L696.52 -17.57H655.45L657.92 -13.29H699ZM830.9 -50L825.14 -40L819.38 -50H830.9ZM825.1 -44.58L826.91 -47.72H823.29L825.1 -44.58ZM846.31 -50L832.86 -26.65L827.76 -35.49L836.1 -50H846.31ZM832.86 -31.21L842.4 -47.72H837.4L830.34 -35.49L832.86 -31.21ZM691.94 -50L684.87 -37.75H641.17L636.1 -46.6H679.77L681.77 -50H691.94ZM683.56 -40L687.99 -47.69H683.1L681.1 -44.29H640.01L642.48 -40H683.56ZM707.38 -50L692.59 -24.38H648.89L643.78 -33.22H687.49L697.17 -50H707.38ZM691.28 -26.66L703.43 -47.72H698.49L688.8 -30.9H647.73L650.2 -26.66H691.28ZM861.79 -50L840.58 -13.27L835.47 -22.12L851.57 -50H861.79ZM840.58 -17.84L857.84 -47.72H852.84L838.1 -22.12L840.58 -17.84ZM722.82 273.2H711.3L717.06 263.2L722.82 273.2ZM715.25 270.92H718.87L717.1 267.77L715.25 270.92ZM911.25 -15.61V2.1L897.25 -22.09L902.35 -30.93L911.25 -15.61ZM908.97 -6.44V-15L902.39 -26.4L899.92 -22.12L908.97 -6.44ZM911.25 -46.31V-24.67L905.01 -35.49L911.25 -46.31ZM908.97 -33.18V-37.79L907.64 -35.49L908.97 -33.18ZM911.25 37.87V55.56L903.65 42.48H859.94L865.1 33.63H908.81L911.25 37.87ZM908.92 47.1V38.53L907.44 35.96H866.36L863.89 40.25H904.97L908.92 47.1ZM861.1 31.37L839.27 69.22H795.57L790.46 60.38H834.17L856.02 22.53L861.1 31.37ZM837.96 66.94L858.49 31.37L856.02 27.1L835.48 62.66H794.41L796.88 66.94H837.96ZM783.96 4.63L778.85 13.47L756.97 -24.38H713.26L718.37 -33.22H762.1L783.96 4.63ZM778.85 8.91L781.32 4.63L760.76 -30.9H719.68L717.21 -26.62H758.28L778.85 8.91ZM791.68 -8.75L786.54 0.0999985L764.69 -37.75H720.98L726.1 -46.6H769.8L791.68 -8.75ZM786.57 -4.46L789.04 -8.75L768.48 -44.32H727.4L724.93 -40.03H766L786.57 -4.46ZM807.1 -8.75L785.23 29.1H775.02L796.87 -8.76L775.02 -46.6H785.23L807.1 -8.75ZM783.92 26.82L804.45 -8.75L783.92 -44.32H778.97L799.51 -8.75L778.97 26.82H783.92ZM689.98 6.89L684.87 15.73H641.17L631 -1.9V-19.57L646.27 6.89H689.98ZM683.56 13.45L686.03 9.17H644.96L633.28 -11.05V-2.49L642.48 13.45H683.56ZM776.21 18L771.1 26.84L749.25 -11.01H705.54L710.65 -19.85H754.35L776.21 18ZM771.1 22.28L773.57 18L753.04 -17.57H711.96L709.49 -13.29H750.56L771.1 22.28ZM822.53 -8.72L800.67 29.1H790.46L812.32 -8.76L790.46 -46.6H800.67L822.53 -8.72ZM799.36 26.82L819.89 -8.75L799.36 -44.32H794.41L814.95 -8.75L794.41 26.82H799.36ZM682.26 20.26L677.15 29.1H633.45L631 24.86V7.18L638.55 20.26H682.26ZM675.84 26.82L678.31 22.54H637.23L633.28 15.69V24.25L634.76 26.82H675.84ZM890.7 -46.6L868.85 -8.75L890.7 29.1H880.49L858.63 -8.75L880.49 -46.6H890.7ZM866.21 -8.75L886.75 -44.32H881.81L861.27 -8.75L881.81 26.82H886.75L866.21 -8.75ZM906.1 29.1H895.93L874.1 -8.75L895.93 -46.6H906.1L884.29 -8.75L906.1 29.1ZM893.63 -29.5L902.19 -44.32H897.25L876.71 -8.75L897.25 26.82H902.19L881.65 -8.75L893.63 -29.5ZM837.97 -8.75L816.1 29.1H805.9L827.76 -8.76L805.9 -46.6H816.1L837.97 -8.75ZM814.8 26.82L835.33 -8.75L814.8 -44.32H809.85L830.39 -8.75L809.85 26.82H814.8ZM875.26 -46.6L853.41 -8.75L875.26 29.1H865.1L843.2 -8.75L865.1 -46.6H875.26ZM850.77 -8.75L871.31 -44.32H866.31L845.83 -8.75L866.36 26.82H871.36L850.77 -8.75ZM637.24 258.69L631 269.5V247.86L637.24 258.69ZM633.24 260.99L634.57 258.69L633.24 256.38V260.99ZM644.96 245.31L639.86 254.16L631 238.81V221.1L644.96 245.31ZM640.43 248.6L642.33 245.31L633.33 229.63V238.2L639.91 249.6L640.43 248.6ZM652.68 231.94L647.58 240.79L631 212.1V194.38L652.68 231.94ZM647.58 236.22L650.1 231.94L633.33 202.89V211.46L647.58 236.22ZM682.26 180.72L677.15 189.56H633.45L631 185.32V167.64L638.55 180.72H682.26ZM675.84 187.28L678.31 183H637.23L633.28 176.15V184.71L634.76 187.28H675.84ZM714.45 258.69L706.1 273.2H695.86L709.34 249.84L714.45 258.69ZM704.75 270.92L711.81 258.69L709.34 254.4L699.81 270.92H704.75ZM706.75 245.31L690.63 273.2H680.41L701.62 236.47L706.75 245.31ZM689.31 270.92L704.1 245.31L701.63 241.03L684.37 270.92H689.31ZM644.96 84.85L639.86 93.7L631 78.35V60.66L644.96 84.85ZM640.43 88.1L642.33 84.81L633.33 69.14V77.7L639.86 89.1L640.43 88.1ZM689.98 167.31L684.87 176.15H641.17L631 158.58V140.89L646.27 167.35L689.98 167.31ZM683.56 173.87L686.03 169.59H644.96L633.28 149.4V157.97L642.48 173.91L683.56 173.87ZM652.68 71.48L647.58 80.33L631 51.61V33.92L652.68 71.48ZM647.58 75.77L650.1 71.48L633.33 42.48V51L647.58 75.77ZM637.24 98.23L631 109.1V87.41L637.24 98.23ZM633.24 100.53L634.57 98.23L633.24 95.92V100.53ZM697.7 153.98L692.59 162.82H648.89L631 131.82V114.15L654 153.98H697.7ZM691.28 160.54L693.75 156.26H652.67L633.28 122.66V131.23L650.2 160.54H691.28Z" fill="#D1CF9C" fill-opacity="0.26"/>
<path d="M-100.26 162.82H-143.97L-165.82 200.67L-170.9 191.83L-149.04 153.98H-105.34L-100.26 162.82ZM-165.82 196.1L-145.28 160.53H-104.21L-106.68 156.25H-147.76L-168.29 191.83L-165.82 196.1ZM-68.07 165.1L-73.18 173.95L-95.03 136.1H-138.74L-133.63 127.25H-89.9L-68.07 165.1ZM-73.18 169.39L-70.71 165.1L-91.24 129.51H-132.32L-134.79 133.8H-93.72L-73.18 169.39ZM-44.9 151.71L-66.76 189.56H-76.98L-55.13 151.71L-76.98 113.86H-66.77L-44.9 151.71ZM-68.07 187.28L-47.54 151.71L-68.08 116.1H-73.03L-52.49 151.67L-73.03 187.24L-68.07 187.28ZM-60.34 151.71L-65.45 160.56L-87.31 122.71H-131.02L-125.9 113.86H-82.2L-60.34 151.71ZM-65.45 155.99L-62.98 151.71L-83.52 116.1H-124.6L-127.07 120.38H-86L-65.45 155.99ZM-15.33 73.75L-20.44 82.59H-64.14L-86.01 44.74L-80.9 35.9L-59.05 73.75H-15.33ZM-21.75 80.31L-19.28 76.03H-60.36L-80.9 40.46L-83.37 44.74L-62.83 80.31H-21.75ZM-29.46 151.71L-51.32 189.56H-61.54L-39.68 151.71L-61.54 113.86H-51.33L-29.46 151.71ZM-52.63 187.28L-32.1 151.71L-52.64 116.1H-57.59L-37.05 151.67L-57.59 187.24L-52.63 187.28ZM-14.02 151.71L-35.9 189.56H-46.1L-24.24 151.71L-46.1 113.86H-35.9L-14.02 151.71ZM-37.2 187.28L-16.67 151.71L-37.2 116.1H-42.15L-21.61 151.67L-42.15 187.24L-37.2 187.28ZM-6.31 165.1L-28.17 202.96H-71.9L-76.98 194.1H-33.27L-11.42 156.25L-6.31 165.1ZM-29.48 200.67L-8.89999 165.1L-11.37 160.82L-31.9 196.37H-73.03L-70.56 200.65L-29.48 200.67ZM-84.82 189.58H-128.53L-150.38 227.41L-155.49 218.57L-133.63 180.72H-89.9L-84.82 189.58ZM-150.38 222.85L-129.84 187.28H-88.77L-91.24 183H-132.32L-152.85 218.57L-150.38 222.85ZM1.41 178.46L-20.45 216.31H-64.15L-69.26 207.46H-25.55L-3.7 169.61L1.41 178.46ZM-21.76 214.03L-1.23 178.46L-3.7 174.17L-24.23 209.74H-65.31L-62.84 214.03H-21.76ZM-92.54 176.19H-136.25L-158.1 214.04L-163.21 205.2L-141.35 167.35H-97.65L-92.54 176.19ZM-158.1 209.48L-137.56 173.91H-96.49L-98.96 169.63H-140.04L-160.57 205.2L-158.1 209.48ZM-168.43 231.94L-190.29 269.79H-200.5L-178.65 231.94L-200.5 194.1H-190.29L-168.43 231.94ZM-191.6 267.51L-171.07 231.94L-191.6 196.37H-196.6L-176.06 231.94L-196.55 267.51H-191.6ZM-23.06 247.58L-28.17 256.42H-71.9L-93.76 218.57L-88.65 209.73L-66.8 247.58H-23.06ZM-29.48 254.1L-27.01 249.82H-68.08L-88.62 214.25L-91.09 218.53L-70.55 254.1H-29.48ZM9.10001 191.83L-12.76 229.68H-56.46L-61.57 220.83H-17.86L3.99001 182.98L9.10001 191.83ZM-14.04 227.4L6.49001 191.83L4.02 187.55L-16.52 223.1H-57.59L-55.12 227.39L-14.04 227.4ZM54.1 109.33H10.43L-11.42 147.18L-16.53 138.34L5.33 100.49H49.03L54.1 109.33ZM-11.42 142.62L9.10001 107.1H50.17L47.7 102.82H6.65001L-13.9 138.34L-11.42 142.62ZM54.1 189.56H43.93L22.1 151.71L43.95 113.86H54.1L32.29 151.71L54.1 189.56ZM41.59 130.96L50.19 116.1H45.25L24.71 151.71L45.25 187.28H50.19L29.65 151.71L41.59 130.96ZM-84.82 194.1L-106.67 231.95L-84.82 269.8H-95.03L-116.9 231.94L-95.03 194.1H-84.82ZM-109.31 231.94L-88.77 196.37H-93.72L-114.25 231.94L-93.72 267.51H-88.77L-109.31 231.94ZM-183.88 231.94L-205.73 269.79H-215.9L-194.05 231.94L-215.9 194.1H-205.73L-183.88 231.94ZM-207.04 267.51L-186.51 231.94L-207.04 196.37H-211.99L-191.45 231.94L-211.99 267.51H-207.04ZM-152.99 231.94L-174.85 269.79H-185.06L-163.21 231.94L-185.06 194.1H-174.85L-152.99 231.94ZM-176.17 267.51L-155.63 231.94L-176.17 196.37H-181.11L-160.57 231.94L-181.11 267.51H-176.17ZM-115.7 194.1L-137.55 231.94L-115.7 269.79H-125.9L-147.77 231.94L-125.9 194.1H-115.7ZM-140.19 231.94L-119.65 196.37H-124.65L-145.13 231.94L-124.6 267.51H-119.6L-140.19 231.94ZM-100.26 269.79H-110.47L-132.33 231.94L-110.47 194.1H-100.26L-122.11 231.94L-100.26 269.79ZM-124.75 231.94L-104.21 196.37H-109.21L-129.69 231.94L-109.16 267.51H-104.16L-124.75 231.94ZM-75.75 178.46L-80.9 187.3L-102.75 149.45H-146.46L-141.35 140.61H-97.65L-75.75 178.46ZM-80.9 182.74L-78.43 178.46L-98.96 142.89H-140.04L-142.51 147.17H-101.44L-80.9 182.74ZM-100.26 2.36H-143.97L-165.82 40.21L-170.9 31.37L-149.07 -6.48H-105.37L-100.26 2.36ZM-165.82 35.65L-145.28 0.0999985H-104.21L-106.68 -4.18H-147.76L-168.29 31.37L-165.82 35.65ZM38.7 113.86L16.85 151.71L38.7 189.56H28.49L6.63 151.71L28.49 113.86H38.7ZM29.81 187.28H34.75L14.21 151.71L34.75 116.1H29.81L9.27 151.71L29.81 187.28ZM1.41 18L-20.45 55.85H-64.15L-69.26 47H-25.55L-3.7 9.15L1.41 18ZM-21.76 53.57L-1.23 18L-3.7 13.72L-24.23 49.28H-65.31L-62.84 53.57H-21.76ZM-137.55 98.23L-159.41 136.1H-203.11L-208.22 127.25H-164.51L-142.66 89.38L-137.55 98.23ZM-160.72 133.8L-140.19 98.23L-142.66 93.94L-163.2 129.51H-204.27L-201.8 133.8H-160.72ZM-84.82 29.1H-128.53L-150.38 66.96L-155.49 58.1L-133.63 20.26H-89.9L-84.82 29.1ZM-150.38 62.39L-129.84 26.82H-88.77L-91.24 22.54H-132.32L-152.85 58.1L-150.38 62.39ZM-92.54 15.73H-136.25L-158.1 53.58L-163.21 44.74L-141.35 6.89H-97.65L-92.54 15.73ZM-158.1 49.02L-137.56 13.45H-96.49L-98.96 9.17H-140.04L-160.57 44.74L-158.1 49.02ZM38.7 82.59H-5.00999L-26.9 120.44L-32 111.6L-10.15 73.75H33.55L38.7 82.59ZM-26.9 115.88L-6.36 80.31H34.71L32.24 76.03H-8.79999L-29.33 111.6L-26.9 115.88ZM-154.3 -6.48L-159.41 2.36H-203.11L-221 -28.64V-46.31L-198 -6.48H-154.3ZM-160.72 0.0999985L-158.25 -4.18H-199.33L-218.72 -37.8V-29.23L-201.8 0.0999985H-160.72ZM46.42 95.96H2.71001L-19.14 133.81L-24.24 124.97L-2.39 87.1H41.31L46.42 95.96ZM-19.14 129.25L1.40001 93.68H42.47L40 89.4H-1.06999L-21.61 124.97L-19.14 129.25ZM-15.34 234.25L-20.45 243.1H-64.15L-86.01 205.2L-80.9 196.35L-59.05 234.21L-15.34 234.25ZM-21.76 240.81L-19.29 236.53H-60.36L-80.9 200.92L-83.37 205.2L-62.83 240.77L-21.76 240.81ZM-129.83 111.6L-151.69 149.45H-195.39L-200.5 140.61H-156.79L-134.9 102.75L-129.83 111.6ZM-153 147.17L-132.47 111.6L-134.9 107.32L-155.48 142.89H-196.55L-194.08 147.17H-153ZM-6.31 4.63L-28.17 42.48H-71.9L-77.01 33.63H-33.3L-11.45 -4.22L-6.31 4.63ZM-29.48 40.2L-8.89999 4.63L-11.37 0.34L-31.9 35.91H-73.03L-70.55 40.2H-29.48ZM-168.43 71.48L-190.29 109.33H-200.5L-178.65 71.48L-200.5 33.63H-190.29L-168.43 71.48ZM-191.6 107.1L-171.07 71.48L-191.6 35.91H-196.6L-176.01 71.48L-196.55 107.1H-191.6ZM-183.9 71.48L-205.73 109.33H-215.9L-194.09 71.48L-215.9 33.63H-205.73L-183.9 71.48ZM-207.04 107.1L-186.51 71.48L-207.04 35.91H-211.99L-191.45 71.48L-211.99 107.1H-207.04ZM-23.06 87.1L-28.17 95.94H-71.9L-93.73 58.1L-88.62 49.26L-66.77 87.1H-23.06ZM-29.48 93.66L-27.01 89.38H-68.08L-88.62 53.83L-91.09 58.1L-70.55 93.67L-29.48 93.66ZM23.26 113.84L1.41 151.71L23.26 189.56H13.1L-8.79999 151.71L13.1 113.86L23.26 113.84ZM14.36 187.26H19.36L-1.23 151.71L19.31 116.1H14.31L-6.17 151.71L14.36 187.26ZM-152.99 71.48L-174.85 109.33H-185.06L-163.21 71.48L-185.06 33.63H-174.85L-152.99 71.48ZM-176.17 107.1L-155.63 71.48L-176.17 35.91H-181.11L-160.57 71.48L-181.11 107.1H-176.17ZM-145.27 84.91L-167.13 122.71H-210.83L-215.9 113.86H-172.23L-150.38 76.01L-145.27 84.91ZM-168.44 120.42L-147.9 84.86L-150.37 80.57L-170.9 116.1H-211.99L-209.52 120.38L-168.44 120.42ZM-115.7 33.63L-137.55 71.48L-115.7 109.33H-125.9L-147.77 71.48L-125.9 33.63H-115.7ZM-140.19 71.48L-119.65 35.91H-124.65L-145.13 71.48L-124.6 107.1H-119.6L-140.19 71.48ZM-84.82 33.63L-106.67 71.48L-84.82 109.33H-95.03L-116.9 71.48L-95.04 33.63H-84.82ZM-96.9 50.1L-88.72 35.93H-93.67L-114.25 71.48L-93.72 107.1H-88.77L-109.31 71.48L-96.9 50.1ZM-30.73 100.51L-35.9 109.33H-79.6L-101.44 71.48L-96.34 62.64L-74.49 100.49L-30.73 100.51ZM-37.2 107.1L-34.73 102.82H-75.8L-96.34 67.2L-98.81 71.48L-78.28 107.1H-37.2ZM-100.26 109.38H-110.47L-132.33 71.48L-110.47 33.63H-100.26L-122.11 71.48L-100.26 109.38ZM-124.75 71.48L-104.21 35.91H-109.21L-129.69 71.48L-109.16 107.1H-104.16L-124.75 71.48ZM-30.75 260.95L-35.9 269.79H-79.6L-101.45 231.94L-96.35 223.1L-74.5 260.95H-30.75ZM-37.17 267.51L-34.7 263.23H-75.8L-96.34 227.66L-98.81 231.94L-78.28 267.51H-37.17ZM59.23 198.33V216.02L51.68 202.94H7.94L13.1 194.1H56.81L59.23 198.33ZM56.95 207.51V198.94L55.47 196.37H14.36L11.89 200.65H52.97L56.95 207.51ZM59.23 171.59V189.28L37.52 151.71L42.62 142.87L59.23 171.59ZM56.95 180.76V172.2L42.65 147.43L40.18 151.71L56.95 180.76ZM59.23 144.84V162.53L45.23 138.34L50.33 129.5L59.23 144.84ZM56.95 154.02V145.46L50.34 134.1L47.87 138.38L56.95 154.02ZM59.23 91.36V109.1L57 105.19L36.21 69.22H-7.5L-2.39 60.38H41.31L59.23 91.36ZM56.95 100.53V91.97L40 62.66H-1.06999L-3.54999 66.94H37.52L56.95 100.53ZM59.23 114.15V135.79L52.99 124.97L59.23 114.15ZM56.95 127.28V122.66L55.62 124.97L56.95 127.28ZM59.23 64.61V82.3L43.93 55.85H0.220001L5.33 47H49.03L59.23 64.61ZM56.95 73.79V65.23L47.75 49.28H6.65001L4.17001 53.57H45.25L56.95 73.79ZM46.45 256.42H2.71001L-6.97 273.2H-17.18L-2.39 247.58H41.31L46.45 256.42ZM-8.25999 270.92L1.40001 254.1H42.47L40 249.82H-1.06999L-13.23 270.88L-8.25999 270.92ZM38.74 243.05H-5.00999L-22.41 273.2H-32.62L-10.11 234.2H33.59L38.74 243.05ZM-23.69 270.92L-6.28 240.77H34.79L32.32 236.49H-8.79999L-28.67 270.92H-23.69ZM59.2 225.1V242.79L43.93 216.34H0.220001L5.33 207.49H49.03L59.2 225.1ZM56.92 234.28V225.71L47.72 209.77H6.65001L4.17001 214.06H45.25L56.92 234.28ZM54.1 269.79H10.43L8.43001 273.2H-1.73999L5.33 260.95H49.03L54.1 269.79ZM7.10001 270.92L9.10001 267.51H50.17L47.7 263.23H6.65001L2.21001 270.92H7.10001ZM59.15 251.82V269.55L56.92 265.63L36.16 229.68H-7.5L-2.39 220.83H41.31L59.15 251.82ZM56.87 260.99V252.43L40 223.1H-1.06999L-3.54999 227.39H37.52L56.87 260.99ZM59.2 11.1V28.79L37.52 -8.75L42.62 -17.59L59.2 11.1ZM56.92 20.27V11.71L42.62 -13.06L40.15 -8.78L56.92 20.27ZM-129.18 -50L-151.69 -11H-195.39L-200.5 -19.85H-156.79L-139.39 -50H-129.18ZM-153 -13.29L-133.13 -47.72H-138.07L-155.48 -17.57H-196.55L-194.08 -13.29H-153ZM-21.1 -50L-26.86 -40L-32.62 -50H-21.1ZM-26.9 -44.58L-25.09 -47.72H-28.71L-26.9 -44.58ZM-5.68999 -50L-19.14 -26.65L-24.24 -35.49L-15.9 -50H-5.68999ZM-19.14 -31.21L-9.59999 -47.72H-14.6L-21.66 -35.49L-19.14 -31.21ZM-160.06 -50L-167.13 -37.75H-210.83L-215.9 -46.6H-172.23L-170.23 -50H-160.06ZM-168.44 -40L-164.01 -47.69H-168.9L-170.9 -44.29H-211.99L-209.52 -40H-168.44ZM-144.62 -50L-159.41 -24.38H-203.11L-208.22 -33.22H-164.51L-154.83 -50H-144.62ZM-160.72 -26.66L-148.57 -47.72H-153.51L-163.2 -30.9H-204.27L-201.8 -26.66H-160.72ZM9.79001 -50L-11.42 -13.27L-16.53 -22.12L-0.429993 -50H9.79001ZM-11.42 -17.84L5.84001 -47.72H0.840012L-13.9 -22.12L-11.42 -17.84ZM-129.18 273.2H-140.7L-134.94 263.2L-129.18 273.2ZM-136.75 270.92H-133.13L-134.9 267.77L-136.75 270.92ZM59.25 -15.61V2.1L45.25 -22.09L50.35 -30.93L59.25 -15.61ZM56.97 -6.44V-15L50.39 -26.4L47.92 -22.12L56.97 -6.44ZM59.25 -46.31V-24.67L53.01 -35.49L59.25 -46.31ZM56.97 -33.18V-37.79L55.64 -35.49L56.97 -33.18ZM59.25 37.87V55.56L51.65 42.48H7.94L13.1 33.63H56.81L59.25 37.87ZM56.92 47.1V38.53L55.44 35.96H14.36L11.89 40.25H52.97L56.92 47.1ZM9.10001 31.37L-12.73 69.22H-56.43L-61.54 60.38H-17.83L4.02 22.53L9.10001 31.37ZM-14.04 66.94L6.49001 31.37L4.02 27.1L-16.52 62.66H-57.59L-55.12 66.94H-14.04ZM-68.04 4.63L-73.15 13.47L-95.03 -24.38H-138.74L-133.63 -33.22H-89.9L-68.04 4.63ZM-73.15 8.91L-70.68 4.63L-91.24 -30.9H-132.32L-134.79 -26.62H-93.72L-73.15 8.91ZM-60.32 -8.75L-65.46 0.0999985L-87.31 -37.75H-131.02L-125.9 -46.6H-82.2L-60.32 -8.75ZM-65.43 -4.46L-62.96 -8.75L-83.52 -44.32H-124.6L-127.07 -40.03H-86L-65.43 -4.46ZM-44.9 -8.75L-66.77 29.1H-76.98L-55.13 -8.76L-76.98 -46.6H-66.77L-44.9 -8.75ZM-68.08 26.82L-47.55 -8.75L-68.08 -44.32H-73.03L-52.49 -8.75L-73.03 26.82H-68.08ZM-162.02 6.89L-167.13 15.73H-210.83L-221 -1.9V-19.57L-205.73 6.89H-162.02ZM-168.44 13.45L-165.97 9.17H-207.04L-218.72 -11.05V-2.49L-209.52 13.45H-168.44ZM-75.79 18L-80.9 26.84L-102.75 -11.01H-146.46L-141.35 -19.85H-97.65L-75.79 18ZM-80.9 22.28L-78.43 18L-98.96 -17.57H-140.04L-142.51 -13.29H-101.44L-80.9 22.28ZM-29.47 -8.72L-51.33 29.1H-61.54L-39.68 -8.76L-61.54 -46.6H-51.33L-29.47 -8.72ZM-52.64 26.82L-32.11 -8.75L-52.64 -44.32H-57.59L-37.05 -8.75L-57.59 26.82H-52.64ZM-169.74 20.26L-174.85 29.1H-218.55L-221 24.86V7.18L-213.45 20.26H-169.74ZM-176.16 26.82L-173.69 22.54H-214.77L-218.72 15.69V24.25L-217.24 26.82H-176.16ZM38.7 -46.6L16.85 -8.75L38.7 29.1H28.49L6.63 -8.75L28.49 -46.6H38.7ZM14.21 -8.75L34.75 -44.32H29.81L9.27 -8.75L29.81 26.82H34.75L14.21 -8.75ZM54.1 29.1H43.93L22.1 -8.75L43.93 -46.6H54.1L32.29 -8.75L54.1 29.1ZM41.63 -29.5L50.19 -44.32H45.25L24.71 -8.75L45.25 26.82H50.19L29.65 -8.75L41.63 -29.5ZM-14.03 -8.75L-35.9 29.1H-46.1L-24.24 -8.76L-46.1 -46.6H-35.9L-14.03 -8.75ZM-37.2 26.82L-16.67 -8.75L-37.2 -44.32H-42.15L-21.61 -8.75L-42.15 26.82H-37.2ZM23.26 -46.6L1.41 -8.75L23.26 29.1H13.1L-8.79999 -8.75L13.1 -46.6H23.26ZM-1.23 -8.75L19.31 -44.32H14.31L-6.17 -8.75L14.36 26.82H19.36L-1.23 -8.75ZM-214.76 258.69L-221 269.5V247.86L-214.76 258.69ZM-218.76 260.99L-217.43 258.69L-218.76 256.38V260.99ZM-207.04 245.31L-212.14 254.16L-221 238.81V221.1L-207.04 245.31ZM-211.57 248.6L-209.67 245.31L-218.67 229.63V238.2L-212.09 249.6L-211.57 248.6ZM-199.32 231.94L-204.42 240.79L-221 212.1V194.38L-199.32 231.94ZM-204.42 236.22L-201.9 231.94L-218.67 202.89V211.46L-204.42 236.22ZM-169.74 180.72L-174.85 189.56H-218.55L-221 185.32V167.64L-213.45 180.72H-169.74ZM-176.16 187.28L-173.69 183H-214.77L-218.72 176.15V184.71L-217.24 187.28H-176.16ZM-137.55 258.69L-145.9 273.2H-156.14L-142.66 249.84L-137.55 258.69ZM-147.25 270.92L-140.19 258.69L-142.66 254.4L-152.19 270.92H-147.25ZM-145.25 245.31L-161.37 273.2H-171.59L-150.38 236.47L-145.25 245.31ZM-162.69 270.92L-147.9 245.31L-150.37 241.03L-167.63 270.92H-162.69ZM-207.04 84.85L-212.14 93.7L-221 78.35V60.66L-207.04 84.85ZM-211.57 88.1L-209.67 84.81L-218.67 69.14V77.7L-212.14 89.1L-211.57 88.1ZM-162.02 167.31L-167.13 176.15H-210.83L-221 158.58V140.89L-205.73 167.35L-162.02 167.31ZM-168.44 173.87L-165.97 169.59H-207.04L-218.72 149.4V157.97L-209.52 173.91L-168.44 173.87ZM-199.32 71.48L-204.42 80.33L-221 51.61V33.92L-199.32 71.48ZM-204.42 75.77L-201.9 71.48L-218.67 42.48V51L-204.42 75.77ZM-214.76 98.23L-221 109.1V87.41L-214.76 98.23ZM-218.76 100.53L-217.43 98.23L-218.76 95.92V100.53ZM-154.3 153.98L-159.41 162.82H-203.11L-221 131.82V114.15L-198 153.98H-154.3ZM-160.72 160.54L-158.25 156.26H-199.33L-218.72 122.66V131.23L-201.8 160.54H-160.72Z" fill="#D1CF9C" fill-opacity="0.26"/>
<path d="M467.74 162.82H424.03L402.18 200.67L397.1 191.83L418.96 153.98H462.66L467.74 162.82ZM402.18 196.1L422.72 160.53H463.79L461.32 156.25H420.24L399.71 191.83L402.18 196.1ZM499.93 165.1L494.82 173.95L472.97 136.1H429.26L434.37 127.25H478.1L499.93 165.1ZM494.82 169.39L497.29 165.1L476.76 129.51H435.68L433.21 133.8H474.28L494.82 169.39ZM523.1 151.71L501.24 189.56H491.02L512.87 151.71L491.02 113.86H501.23L523.1 151.71ZM499.93 187.28L520.46 151.71L499.92 116.1H494.97L515.51 151.67L494.97 187.24L499.93 187.28ZM507.66 151.71L502.55 160.56L480.69 122.71H436.98L442.1 113.86H485.8L507.66 151.71ZM502.55 155.99L505.02 151.71L484.48 116.1H443.4L440.93 120.38H482L502.55 155.99ZM552.67 73.75L547.56 82.59H503.86L481.99 44.74L487.1 35.9L508.95 73.75H552.67ZM546.25 80.31L548.72 76.03H507.64L487.1 40.46L484.63 44.74L505.17 80.31H546.25ZM538.54 151.71L516.68 189.56H506.46L528.32 151.71L506.46 113.86H516.67L538.54 151.71ZM515.37 187.28L535.9 151.71L515.36 116.1H510.41L530.95 151.67L510.41 187.24L515.37 187.28ZM553.98 151.71L532.1 189.56H521.9L543.76 151.71L521.9 113.86H532.1L553.98 151.71ZM530.8 187.28L551.33 151.71L530.8 116.1H525.85L546.39 151.67L525.85 187.24L530.8 187.28ZM561.69 165.1L539.83 202.96H496.1L491.02 194.1H534.73L556.58 156.25L561.69 165.1ZM538.52 200.67L559.1 165.1L556.63 160.82L536.1 196.37H494.97L497.44 200.65L538.52 200.67ZM483.18 189.58H439.47L417.62 227.41L412.51 218.57L434.37 180.72H478.1L483.18 189.58ZM417.62 222.85L438.16 187.28H479.23L476.76 183H435.68L415.15 218.57L417.62 222.85ZM569.41 178.46L547.55 216.31H503.85L498.74 207.46H542.45L564.3 169.61L569.41 178.46ZM546.24 214.03L566.77 178.46L564.3 174.17L543.77 209.74H502.69L505.16 214.03H546.24ZM475.46 176.19H431.75L409.9 214.04L404.79 205.2L426.65 167.35H470.35L475.46 176.19ZM409.9 209.48L430.44 173.91H471.51L469.04 169.63H427.96L407.43 205.2L409.9 209.48ZM399.57 231.94L377.71 269.79H367.5L389.35 231.94L367.5 194.1H377.71L399.57 231.94ZM376.4 267.51L396.93 231.94L376.4 196.37H371.4L391.94 231.94L371.45 267.51H376.4ZM544.94 247.58L539.83 256.42H496.1L474.24 218.57L479.35 209.73L501.2 247.58H544.94ZM538.52 254.1L540.99 249.82H499.92L479.38 214.25L476.91 218.53L497.45 254.1H538.52ZM577.1 191.83L555.24 229.68H511.54L506.43 220.83H550.14L571.99 182.98L577.1 191.83ZM553.96 227.4L574.49 191.83L572.02 187.55L551.48 223.1H510.41L512.88 227.39L553.96 227.4ZM622.1 109.33H578.43L556.58 147.18L551.47 138.34L573.33 100.49H617.03L622.1 109.33ZM556.58 142.62L577.1 107.1H618.17L615.7 102.82H574.65L554.1 138.34L556.58 142.62ZM622.1 189.56H611.93L590.1 151.71L611.95 113.86H622.1L600.29 151.71L622.1 189.56ZM609.59 130.96L618.19 116.1H613.25L592.71 151.71L613.25 187.28H618.19L597.65 151.71L609.59 130.96ZM483.18 194.1L461.33 231.95L483.18 269.8H472.97L451.1 231.94L472.97 194.1H483.18ZM458.69 231.94L479.23 196.37H474.28L453.75 231.94L474.28 267.51H479.23L458.69 231.94ZM384.12 231.94L362.27 269.79H352.1L373.95 231.94L352.1 194.1H362.27L384.12 231.94ZM360.96 267.51L381.49 231.94L360.96 196.37H356.01L376.55 231.94L356.01 267.51H360.96ZM415.01 231.94L393.15 269.79H382.94L404.79 231.94L382.94 194.1H393.15L415.01 231.94ZM391.83 267.51L412.37 231.94L391.83 196.37H386.89L407.43 231.94L386.89 267.51H391.83ZM452.3 194.1L430.45 231.94L452.3 269.79H442.1L420.23 231.94L442.1 194.1H452.3ZM427.81 231.94L448.35 196.37H443.35L422.87 231.94L443.4 267.51H448.4L427.81 231.94ZM467.74 269.79H457.53L435.67 231.94L457.53 194.1H467.74L445.89 231.94L467.74 269.79ZM443.25 231.94L463.79 196.37H458.79L438.31 231.94L458.84 267.51H463.84L443.25 231.94ZM492.25 178.46L487.1 187.3L465.25 149.45H421.54L426.65 140.61H470.35L492.25 178.46ZM487.1 182.74L489.57 178.46L469.04 142.89H427.96L425.49 147.17H466.56L487.1 182.74ZM467.74 2.36H424.03L402.18 40.21L397.1 31.37L418.93 -6.48H462.63L467.74 2.36ZM402.18 35.65L422.72 0.0999985H463.79L461.32 -4.18H420.24L399.71 31.37L402.18 35.65ZM606.7 113.86L584.85 151.71L606.7 189.56H596.49L574.63 151.71L596.49 113.86H606.7ZM597.81 187.28H602.75L582.21 151.71L602.75 116.1H597.81L577.27 151.71L597.81 187.28ZM569.41 18L547.55 55.85H503.85L498.74 47H542.45L564.3 9.15L569.41 18ZM546.24 53.57L566.77 18L564.3 13.72L543.77 49.28H502.69L505.16 53.57H546.24ZM430.45 98.23L408.59 136.1H364.89L359.78 127.25H403.49L425.34 89.38L430.45 98.23ZM407.28 133.8L427.81 98.23L425.34 93.94L404.8 129.51H363.73L366.2 133.8H407.28ZM483.18 29.1H439.47L417.62 66.96L412.51 58.1L434.37 20.26H478.1L483.18 29.1ZM417.62 62.39L438.16 26.82H479.23L476.76 22.54H435.68L415.15 58.1L417.62 62.39ZM475.46 15.73H431.75L409.9 53.58L404.79 44.74L426.65 6.89H470.35L475.46 15.73ZM409.9 49.02L430.44 13.45H471.51L469.04 9.17H427.96L407.43 44.74L409.9 49.02ZM606.7 82.59H562.99L541.1 120.44L536 111.6L557.85 73.75H601.55L606.7 82.59ZM541.1 115.88L561.64 80.31H602.71L600.24 76.03H559.2L538.67 111.6L541.1 115.88ZM413.7 -6.48L408.59 2.36H364.89L347 -28.64V-46.31L370 -6.48H413.7ZM407.28 0.0999985L409.75 -4.18H368.67L349.28 -37.8V-29.23L366.2 0.0999985H407.28ZM614.42 95.96H570.71L548.86 133.81L543.76 124.97L565.61 87.1H609.31L614.42 95.96ZM548.86 129.25L569.4 93.68H610.47L608 89.4H566.93L546.39 124.97L548.86 129.25ZM552.66 234.25L547.55 243.1H503.85L481.99 205.2L487.1 196.35L508.95 234.21L552.66 234.25ZM546.24 240.81L548.71 236.53H507.64L487.1 200.92L484.63 205.2L505.17 240.77L546.24 240.81ZM438.17 111.6L416.31 149.45H372.61L367.5 140.61H411.21L433.1 102.75L438.17 111.6ZM415 147.17L435.53 111.6L433.1 107.32L412.52 142.89H371.45L373.92 147.17H415ZM561.69 4.63L539.83 42.48H496.1L490.99 33.63H534.7L556.55 -4.22L561.69 4.63ZM538.52 40.2L559.1 4.63L556.63 0.34L536.1 35.91H494.97L497.45 40.2H538.52ZM399.57 71.48L377.71 109.33H367.5L389.35 71.48L367.5 33.63H377.71L399.57 71.48ZM376.4 107.1L396.93 71.48L376.4 35.91H371.4L391.99 71.48L371.45 107.1H376.4ZM384.1 71.48L362.27 109.33H352.1L373.91 71.48L352.1 33.63H362.27L384.1 71.48ZM360.96 107.1L381.49 71.48L360.96 35.91H356.01L376.55 71.48L356.01 107.1H360.96ZM544.94 87.1L539.83 95.94H496.1L474.27 58.1L479.38 49.26L501.23 87.1H544.94ZM538.52 93.66L540.99 89.38H499.92L479.38 53.83L476.91 58.1L497.45 93.67L538.52 93.66ZM591.26 113.84L569.41 151.71L591.26 189.56H581.1L559.2 151.71L581.1 113.86L591.26 113.84ZM582.36 187.26H587.36L566.77 151.71L587.31 116.1H582.31L561.83 151.71L582.36 187.26ZM415.01 71.48L393.15 109.33H382.94L404.79 71.48L382.94 33.63H393.15L415.01 71.48ZM391.83 107.1L412.37 71.48L391.83 35.91H386.89L407.43 71.48L386.89 107.1H391.83ZM422.73 84.91L400.87 122.71H357.17L352.1 113.86H395.77L417.62 76.01L422.73 84.91ZM399.56 120.42L420.1 84.86L417.63 80.57L397.1 116.1H356.01L358.48 120.38L399.56 120.42ZM452.3 33.63L430.45 71.48L452.3 109.33H442.1L420.23 71.48L442.1 33.63H452.3ZM427.81 71.48L448.35 35.91H443.35L422.87 71.48L443.4 107.1H448.4L427.81 71.48ZM483.18 33.63L461.33 71.48L483.18 109.33H472.97L451.1 71.48L472.96 33.63H483.18ZM471.1 50.1L479.28 35.93H474.33L453.75 71.48L474.28 107.1H479.23L458.69 71.48L471.1 50.1ZM537.27 100.51L532.1 109.33H488.4L466.56 71.48L471.66 62.64L493.51 100.49L537.27 100.51ZM530.8 107.1L533.27 102.82H492.2L471.66 67.2L469.19 71.48L489.72 107.1H530.8ZM467.74 109.38H457.53L435.67 71.48L457.53 33.63H467.74L445.89 71.48L467.74 109.38ZM443.25 71.48L463.79 35.91H458.79L438.31 71.48L458.84 107.1H463.84L443.25 71.48ZM537.25 260.95L532.1 269.79H488.4L466.55 231.94L471.65 223.1L493.5 260.95H537.25ZM530.83 267.51L533.3 263.23H492.2L471.66 227.66L469.19 231.94L489.72 267.51H530.83ZM627.23 198.33V216.02L619.68 202.94H575.94L581.1 194.1H624.81L627.23 198.33ZM624.95 207.51V198.94L623.47 196.37H582.36L579.89 200.65H620.97L624.95 207.51ZM627.23 171.59V189.28L605.52 151.71L610.62 142.87L627.23 171.59ZM624.95 180.76V172.2L610.65 147.43L608.18 151.71L624.95 180.76ZM627.23 144.84V162.53L613.23 138.34L618.33 129.5L627.23 144.84ZM624.95 154.02V145.46L618.34 134.1L615.87 138.38L624.95 154.02ZM627.23 91.36V109.1L625 105.19L604.21 69.22H560.5L565.61 60.38H609.31L627.23 91.36ZM624.95 100.53V91.97L608 62.66H566.93L564.45 66.94H605.52L624.95 100.53ZM627.23 114.15V135.79L620.99 124.97L627.23 114.15ZM624.95 127.28V122.66L623.62 124.97L624.95 127.28ZM627.23 64.61V82.3L611.93 55.85H568.22L573.33 47H617.03L627.23 64.61ZM624.95 73.79V65.23L615.75 49.28H574.65L572.17 53.57H613.25L624.95 73.79ZM614.45 256.42H570.71L561.03 273.2H550.82L565.61 247.58H609.31L614.45 256.42ZM559.74 270.92L569.4 254.1H610.47L608 249.82H566.93L554.77 270.88L559.74 270.92ZM606.74 243.05H562.99L545.59 273.2H535.38L557.89 234.2H601.59L606.74 243.05ZM544.31 270.92L561.72 240.77H602.79L600.32 236.49H559.2L539.33 270.92H544.31ZM627.2 225.1V242.79L611.93 216.34H568.22L573.33 207.49H617.03L627.2 225.1ZM624.92 234.28V225.71L615.72 209.77H574.65L572.17 214.06H613.25L624.92 234.28ZM622.1 269.79H578.43L576.43 273.2H566.26L573.33 260.95H617.03L622.1 269.79ZM575.1 270.92L577.1 267.51H618.17L615.7 263.23H574.65L570.21 270.92H575.1ZM627.15 251.82V269.55L624.92 265.63L604.16 229.68H560.5L565.61 220.83H609.31L627.15 251.82ZM624.87 260.99V252.43L608 223.1H566.93L564.45 227.39H605.52L624.87 260.99ZM627.2 11.1V28.79L605.52 -8.75L610.62 -17.59L627.2 11.1ZM624.92 20.27V11.71L610.62 -13.06L608.15 -8.78L624.92 20.27ZM438.82 -50L416.31 -11H372.61L367.5 -19.85H411.21L428.61 -50H438.82ZM415 -13.29L434.87 -47.72H429.93L412.52 -17.57H371.45L373.92 -13.29H415ZM546.9 -50L541.14 -40L535.38 -50H546.9ZM541.1 -44.58L542.91 -47.72H539.29L541.1 -44.58ZM562.31 -50L548.86 -26.65L543.76 -35.49L552.1 -50H562.31ZM548.86 -31.21L558.4 -47.72H553.4L546.34 -35.49L548.86 -31.21ZM407.94 -50L400.87 -37.75H357.17L352.1 -46.6H395.77L397.77 -50H407.94ZM399.56 -40L403.99 -47.69H399.1L397.1 -44.29H356.01L358.48 -40H399.56ZM423.38 -50L408.59 -24.38H364.89L359.78 -33.22H403.49L413.17 -50H423.38ZM407.28 -26.66L419.43 -47.72H414.49L404.8 -30.9H363.73L366.2 -26.66H407.28ZM577.79 -50L556.58 -13.27L551.47 -22.12L567.57 -50H577.79ZM556.58 -17.84L573.84 -47.72H568.84L554.1 -22.12L556.58 -17.84ZM438.82 273.2H427.3L433.06 263.2L438.82 273.2ZM431.25 270.92H434.87L433.1 267.77L431.25 270.92ZM627.25 -15.61V2.1L613.25 -22.09L618.35 -30.93L627.25 -15.61ZM624.97 -6.44V-15L618.39 -26.4L615.92 -22.12L624.97 -6.44ZM627.25 -46.31V-24.67L621.01 -35.49L627.25 -46.31ZM624.97 -33.18V-37.79L623.64 -35.49L624.97 -33.18ZM627.25 37.87V55.56L619.65 42.48H575.94L581.1 33.63H624.81L627.25 37.87ZM624.92 47.1V38.53L623.44 35.96H582.36L579.89 40.25H620.97L624.92 47.1ZM577.1 31.37L555.27 69.22H511.57L506.46 60.38H550.17L572.02 22.53L577.1 31.37ZM553.96 66.94L574.49 31.37L572.02 27.1L551.48 62.66H510.41L512.88 66.94H553.96ZM499.96 4.63L494.85 13.47L472.97 -24.38H429.26L434.37 -33.22H478.1L499.96 4.63ZM494.85 8.91L497.32 4.63L476.76 -30.9H435.68L433.21 -26.62H474.28L494.85 8.91ZM507.68 -8.75L502.54 0.0999985L480.69 -37.75H436.98L442.1 -46.6H485.8L507.68 -8.75ZM502.57 -4.46L505.04 -8.75L484.48 -44.32H443.4L440.93 -40.03H482L502.57 -4.46ZM523.1 -8.75L501.23 29.1H491.02L512.87 -8.76L491.02 -46.6H501.23L523.1 -8.75ZM499.92 26.82L520.45 -8.75L499.92 -44.32H494.97L515.51 -8.75L494.97 26.82H499.92ZM405.98 6.89L400.87 15.73H357.17L347 -1.9V-19.57L362.27 6.89H405.98ZM399.56 13.45L402.03 9.17H360.96L349.28 -11.05V-2.49L358.48 13.45H399.56ZM492.21 18L487.1 26.84L465.25 -11.01H421.54L426.65 -19.85H470.35L492.21 18ZM487.1 22.28L489.57 18L469.04 -17.57H427.96L425.49 -13.29H466.56L487.1 22.28ZM538.53 -8.72L516.67 29.1H506.46L528.32 -8.76L506.46 -46.6H516.67L538.53 -8.72ZM515.36 26.82L535.89 -8.75L515.36 -44.32H510.41L530.95 -8.75L510.41 26.82H515.36ZM398.26 20.26L393.15 29.1H349.45L347 24.86V7.18L354.55 20.26H398.26ZM391.84 26.82L394.31 22.54H353.23L349.28 15.69V24.25L350.76 26.82H391.84ZM606.7 -46.6L584.85 -8.75L606.7 29.1H596.49L574.63 -8.75L596.49 -46.6H606.7ZM582.21 -8.75L602.75 -44.32H597.81L577.27 -8.75L597.81 26.82H602.75L582.21 -8.75ZM622.1 29.1H611.93L590.1 -8.75L611.93 -46.6H622.1L600.29 -8.75L622.1 29.1ZM609.63 -29.5L618.19 -44.32H613.25L592.71 -8.75L613.25 26.82H618.19L597.65 -8.75L609.63 -29.5ZM553.97 -8.75L532.1 29.1H521.9L543.76 -8.76L521.9 -46.6H532.1L553.97 -8.75ZM530.8 26.82L551.33 -8.75L530.8 -44.32H525.85L546.39 -8.75L525.85 26.82H530.8ZM591.26 -46.6L569.41 -8.75L591.26 29.1H581.1L559.2 -8.75L581.1 -46.6H591.26ZM566.77 -8.75L587.31 -44.32H582.31L561.83 -8.75L582.36 26.82H587.36L566.77 -8.75ZM353.24 258.69L347 269.5V247.86L353.24 258.69ZM349.24 260.99L350.57 258.69L349.24 256.38V260.99ZM360.96 245.31L355.86 254.16L347 238.81V221.1L360.96 245.31ZM356.43 248.6L358.33 245.31L349.33 229.63V238.2L355.91 249.6L356.43 248.6ZM368.68 231.94L363.58 240.79L347 212.1V194.38L368.68 231.94ZM363.58 236.22L366.1 231.94L349.33 202.89V211.46L363.58 236.22ZM398.26 180.72L393.15 189.56H349.45L347 185.32V167.64L354.55 180.72H398.26ZM391.84 187.28L394.31 183H353.23L349.28 176.15V184.71L350.76 187.28H391.84ZM430.45 258.69L422.1 273.2H411.86L425.34 249.84L430.45 258.69ZM420.75 270.92L427.81 258.69L425.34 254.4L415.81 270.92H420.75ZM422.75 245.31L406.63 273.2H396.41L417.62 236.47L422.75 245.31ZM405.31 270.92L420.1 245.31L417.63 241.03L400.37 270.92H405.31ZM360.96 84.85L355.86 93.7L347 78.35V60.66L360.96 84.85ZM356.43 88.1L358.33 84.81L349.33 69.14V77.7L355.86 89.1L356.43 88.1ZM405.98 167.31L400.87 176.15H357.17L347 158.58V140.89L362.27 167.35L405.98 167.31ZM399.56 173.87L402.03 169.59H360.96L349.28 149.4V157.97L358.48 173.91L399.56 173.87ZM368.68 71.48L363.58 80.33L347 51.61V33.92L368.68 71.48ZM363.58 75.77L366.1 71.48L349.33 42.48V51L363.58 75.77ZM353.24 98.23L347 109.1V87.41L353.24 98.23ZM349.24 100.53L350.57 98.23L349.24 95.92V100.53ZM413.7 153.98L408.59 162.82H364.89L347 131.82V114.15L370 153.98H413.7ZM407.28 160.54L409.75 156.26H368.67L349.28 122.66V131.23L366.2 160.54H407.28Z" fill="#D1CF9C" fill-opacity="0.26"/>
<path d="M1035.74 162.82H992.03L970.18 200.67L965.1 191.83L986.96 153.98H1030.66L1035.74 162.82ZM970.18 196.1L990.72 160.53H1031.79L1029.32 156.25H988.24L967.71 191.83L970.18 196.1ZM1067.93 165.1L1062.82 173.95L1040.97 136.1H997.26L1002.37 127.25H1046.1L1067.93 165.1ZM1062.82 169.39L1065.29 165.1L1044.76 129.51H1003.68L1001.21 133.8H1042.28L1062.82 169.39ZM1091.1 151.71L1069.24 189.56H1059.02L1080.87 151.71L1059.02 113.86H1069.23L1091.1 151.71ZM1067.93 187.28L1088.46 151.71L1067.92 116.1H1062.97L1083.51 151.67L1062.97 187.24L1067.93 187.28ZM1075.66 151.71L1070.55 160.56L1048.69 122.71H1004.98L1010.1 113.86H1053.8L1075.66 151.71ZM1070.55 155.99L1073.02 151.71L1052.48 116.1H1011.4L1008.93 120.38H1050L1070.55 155.99ZM1120.67 73.75L1115.56 82.59H1071.86L1049.99 44.74L1055.1 35.9L1076.95 73.75H1120.67ZM1114.25 80.31L1116.72 76.03H1075.64L1055.1 40.46L1052.63 44.74L1073.17 80.31H1114.25ZM1106.54 151.71L1084.68 189.56H1074.46L1096.32 151.71L1074.46 113.86H1084.67L1106.54 151.71ZM1083.37 187.28L1103.9 151.71L1083.36 116.1H1078.41L1098.95 151.67L1078.41 187.24L1083.37 187.28ZM1121.98 151.71L1100.1 189.56H1089.9L1111.76 151.71L1089.9 113.86H1100.1L1121.98 151.71ZM1098.8 187.28L1119.33 151.71L1098.8 116.1H1093.85L1114.39 151.67L1093.85 187.24L1098.8 187.28ZM1129.69 165.1L1107.83 202.96H1064.1L1059.02 194.1H1102.73L1124.58 156.25L1129.69 165.1ZM1106.52 200.67L1127.1 165.1L1124.63 160.82L1104.1 196.37H1062.97L1065.44 200.65L1106.52 200.67ZM1051.18 189.58H1007.47L985.62 227.41L980.51 218.57L1002.37 180.72H1046.1L1051.18 189.58ZM985.62 222.85L1006.16 187.28H1047.23L1044.76 183H1003.68L983.15 218.57L985.62 222.85ZM1137.41 178.46L1115.55 216.31H1071.85L1066.74 207.46H1110.45L1132.3 169.61L1137.41 178.46ZM1114.24 214.03L1134.77 178.46L1132.3 174.17L1111.77 209.74H1070.69L1073.16 214.03H1114.24ZM1043.46 176.19H999.75L977.9 214.04L972.79 205.2L994.65 167.35H1038.35L1043.46 176.19ZM977.9 209.48L998.44 173.91H1039.51L1037.04 169.63H995.96L975.43 205.2L977.9 209.48ZM967.57 231.94L945.71 269.79H935.5L957.35 231.94L935.5 194.1H945.71L967.57 231.94ZM944.4 267.51L964.93 231.94L944.4 196.37H939.4L959.94 231.94L939.45 267.51H944.4ZM1112.94 247.58L1107.83 256.42H1064.1L1042.24 218.57L1047.35 209.73L1069.2 247.58H1112.94ZM1106.52 254.1L1108.99 249.82H1067.92L1047.38 214.25L1044.91 218.53L1065.45 254.1H1106.52ZM1145.1 191.83L1123.24 229.68H1079.54L1074.43 220.83H1118.14L1139.99 182.98L1145.1 191.83ZM1121.96 227.4L1142.49 191.83L1140.02 187.55L1119.48 223.1H1078.41L1080.88 227.39L1121.96 227.4ZM1190.1 109.33H1146.43L1124.58 147.18L1119.47 138.34L1141.33 100.49H1185.03L1190.1 109.33ZM1124.58 142.62L1145.1 107.1H1186.17L1183.7 102.82H1142.65L1122.1 138.34L1124.58 142.62ZM1190.1 189.56H1179.93L1158.1 151.71L1179.95 113.86H1190.1L1168.29 151.71L1190.1 189.56ZM1177.59 130.96L1186.19 116.1H1181.25L1160.71 151.71L1181.25 187.28H1186.19L1165.65 151.71L1177.59 130.96ZM1051.18 194.1L1029.33 231.95L1051.18 269.8H1040.97L1019.1 231.94L1040.97 194.1H1051.18ZM1026.69 231.94L1047.23 196.37H1042.28L1021.75 231.94L1042.28 267.51H1047.23L1026.69 231.94ZM952.12 231.94L930.27 269.79H920.1L941.95 231.94L920.1 194.1H930.27L952.12 231.94ZM928.96 267.51L949.49 231.94L928.96 196.37H924.01L944.55 231.94L924.01 267.51H928.96ZM983.01 231.94L961.15 269.79H950.94L972.79 231.94L950.94 194.1H961.15L983.01 231.94ZM959.83 267.51L980.37 231.94L959.83 196.37H954.89L975.43 231.94L954.89 267.51H959.83ZM1020.3 194.1L998.45 231.94L1020.3 269.79H1010.1L988.23 231.94L1010.1 194.1H1020.3ZM995.81 231.94L1016.35 196.37H1011.35L990.87 231.94L1011.4 267.51H1016.4L995.81 231.94ZM1035.74 269.79H1025.53L1003.67 231.94L1025.53 194.1H1035.74L1013.89 231.94L1035.74 269.79ZM1011.25 231.94L1031.79 196.37H1026.79L1006.31 231.94L1026.84 267.51H1031.84L1011.25 231.94ZM1060.25 178.46L1055.1 187.3L1033.25 149.45H989.54L994.65 140.61H1038.35L1060.25 178.46ZM1055.1 182.74L1057.57 178.46L1037.04 142.89H995.96L993.49 147.17H1034.56L1055.1 182.74ZM1035.74 2.36H992.03L970.18 40.21L965.1 31.37L986.93 -6.48H1030.63L1035.74 2.36ZM970.18 35.65L990.72 0.0999985H1031.79L1029.32 -4.18H988.24L967.71 31.37L970.18 35.65ZM1174.7 113.86L1152.85 151.71L1174.7 189.56H1164.49L1142.63 151.71L1164.49 113.86H1174.7ZM1165.81 187.28H1170.75L1150.21 151.71L1170.75 116.1H1165.81L1145.27 151.71L1165.81 187.28ZM1137.41 18L1115.55 55.85H1071.85L1066.74 47H1110.45L1132.3 9.15L1137.41 18ZM1114.24 53.57L1134.77 18L1132.3 13.72L1111.77 49.28H1070.69L1073.16 53.57H1114.24ZM998.45 98.23L976.59 136.1H932.89L927.78 127.25H971.49L993.34 89.38L998.45 98.23ZM975.28 133.8L995.81 98.23L993.34 93.94L972.8 129.51H931.73L934.2 133.8H975.28ZM1051.18 29.1H1007.47L985.62 66.96L980.51 58.1L1002.37 20.26H1046.1L1051.18 29.1ZM985.62 62.39L1006.16 26.82H1047.23L1044.76 22.54H1003.68L983.15 58.1L985.62 62.39ZM1043.46 15.73H999.75L977.9 53.58L972.79 44.74L994.65 6.89H1038.35L1043.46 15.73ZM977.9 49.02L998.44 13.45H1039.51L1037.04 9.17H995.96L975.43 44.74L977.9 49.02ZM1174.7 82.59H1130.99L1109.1 120.44L1104 111.6L1125.85 73.75H1169.55L1174.7 82.59ZM1109.1 115.88L1129.64 80.31H1170.71L1168.24 76.03H1127.2L1106.67 111.6L1109.1 115.88ZM981.7 -6.48L976.59 2.36H932.89L915 -28.64V-46.31L938 -6.48H981.7ZM975.28 0.0999985L977.75 -4.18H936.67L917.28 -37.8V-29.23L934.2 0.0999985H975.28ZM1182.42 95.96H1138.71L1116.86 133.81L1111.76 124.97L1133.61 87.1H1177.31L1182.42 95.96ZM1116.86 129.25L1137.4 93.68H1178.47L1176 89.4H1134.93L1114.39 124.97L1116.86 129.25ZM1120.66 234.25L1115.55 243.1H1071.85L1049.99 205.2L1055.1 196.35L1076.95 234.21L1120.66 234.25ZM1114.24 240.81L1116.71 236.53H1075.64L1055.1 200.92L1052.63 205.2L1073.17 240.77L1114.24 240.81ZM1006.17 111.6L984.31 149.45H940.61L935.5 140.61H979.21L1001.1 102.75L1006.17 111.6ZM983 147.17L1003.53 111.6L1001.1 107.32L980.52 142.89H939.45L941.92 147.17H983ZM1129.69 4.63L1107.83 42.48H1064.1L1058.99 33.63H1102.7L1124.55 -4.22L1129.69 4.63ZM1106.52 40.2L1127.1 4.63L1124.63 0.34L1104.1 35.91H1062.97L1065.45 40.2H1106.52ZM967.57 71.48L945.71 109.33H935.5L957.35 71.48L935.5 33.63H945.71L967.57 71.48ZM944.4 107.1L964.93 71.48L944.4 35.91H939.4L959.99 71.48L939.45 107.1H944.4ZM952.1 71.48L930.27 109.33H920.1L941.91 71.48L920.1 33.63H930.27L952.1 71.48ZM928.96 107.1L949.49 71.48L928.96 35.91H924.01L944.55 71.48L924.01 107.1H928.96ZM1112.94 87.1L1107.83 95.94H1064.1L1042.27 58.1L1047.38 49.26L1069.23 87.1H1112.94ZM1106.52 93.66L1108.99 89.38H1067.92L1047.38 53.83L1044.91 58.1L1065.45 93.67L1106.52 93.66ZM1159.26 113.84L1137.41 151.71L1159.26 189.56H1149.1L1127.2 151.71L1149.1 113.86L1159.26 113.84ZM1150.36 187.26H1155.36L1134.77 151.71L1155.31 116.1H1150.31L1129.83 151.71L1150.36 187.26ZM983.01 71.48L961.15 109.33H950.94L972.79 71.48L950.94 33.63H961.15L983.01 71.48ZM959.83 107.1L980.37 71.48L959.83 35.91H954.89L975.43 71.48L954.89 107.1H959.83ZM990.73 84.91L968.87 122.71H925.17L920.1 113.86H963.77L985.62 76.01L990.73 84.91ZM967.56 120.42L988.1 84.86L985.63 80.57L965.1 116.1H924.01L926.48 120.38L967.56 120.42ZM1020.3 33.63L998.45 71.48L1020.3 109.33H1010.1L988.23 71.48L1010.1 33.63H1020.3ZM995.81 71.48L1016.35 35.91H1011.35L990.87 71.48L1011.4 107.1H1016.4L995.81 71.48ZM1051.18 33.63L1029.33 71.48L1051.18 109.33H1040.97L1019.1 71.48L1040.96 33.63H1051.18ZM1039.1 50.1L1047.28 35.93H1042.33L1021.75 71.48L1042.28 107.1H1047.23L1026.69 71.48L1039.1 50.1ZM1105.27 100.51L1100.1 109.33H1056.4L1034.56 71.48L1039.66 62.64L1061.51 100.49L1105.27 100.51ZM1098.8 107.1L1101.27 102.82H1060.2L1039.66 67.2L1037.19 71.48L1057.72 107.1H1098.8ZM1035.74 109.38H1025.53L1003.67 71.48L1025.53 33.63H1035.74L1013.89 71.48L1035.74 109.38ZM1011.25 71.48L1031.79 35.91H1026.79L1006.31 71.48L1026.84 107.1H1031.84L1011.25 71.48ZM1105.25 260.95L1100.1 269.79H1056.4L1034.55 231.94L1039.65 223.1L1061.5 260.95H1105.25ZM1098.83 267.51L1101.3 263.23H1060.2L1039.66 227.66L1037.19 231.94L1057.72 267.51H1098.83ZM1195.23 198.33V216.02L1187.68 202.94H1143.94L1149.1 194.1H1192.81L1195.23 198.33ZM1192.95 207.51V198.94L1191.47 196.37H1150.36L1147.89 200.65H1188.97L1192.95 207.51ZM1195.23 171.59V189.28L1173.52 151.71L1178.62 142.87L1195.23 171.59ZM1192.95 180.76V172.2L1178.65 147.43L1176.18 151.71L1192.95 180.76ZM1195.23 144.84V162.53L1181.23 138.34L1186.33 129.5L1195.23 144.84ZM1192.95 154.02V145.46L1186.34 134.1L1183.87 138.38L1192.95 154.02ZM1195.23 91.36V109.1L1193 105.19L1172.21 69.22H1128.5L1133.61 60.38H1177.31L1195.23 91.36ZM1192.95 100.53V91.97L1176 62.66H1134.93L1132.45 66.94H1173.52L1192.95 100.53ZM1195.23 114.15V135.79L1188.99 124.97L1195.23 114.15ZM1192.95 127.28V122.66L1191.62 124.97L1192.95 127.28ZM1195.23 64.61V82.3L1179.93 55.85H1136.22L1141.33 47H1185.03L1195.23 64.61ZM1192.95 73.79V65.23L1183.75 49.28H1142.65L1140.17 53.57H1181.25L1192.95 73.79ZM1182.45 256.42H1138.71L1129.03 273.2H1118.82L1133.61 247.58H1177.31L1182.45 256.42ZM1127.74 270.92L1137.4 254.1H1178.47L1176 249.82H1134.93L1122.77 270.88L1127.74 270.92ZM1174.74 243.05H1130.99L1113.59 273.2H1103.38L1125.89 234.2H1169.59L1174.74 243.05ZM1112.31 270.92L1129.72 240.77H1170.79L1168.32 236.49H1127.2L1107.33 270.92H1112.31ZM1195.2 225.1V242.79L1179.93 216.34H1136.22L1141.33 207.49H1185.03L1195.2 225.1ZM1192.92 234.28V225.71L1183.72 209.77H1142.65L1140.17 214.06H1181.25L1192.92 234.28ZM1190.1 269.79H1146.43L1144.43 273.2H1134.26L1141.33 260.95H1185.03L1190.1 269.79ZM1143.1 270.92L1145.1 267.51H1186.17L1183.7 263.23H1142.65L1138.21 270.92H1143.1ZM1195.15 251.82V269.55L1192.92 265.63L1172.16 229.68H1128.5L1133.61 220.83H1177.31L1195.15 251.82ZM1192.87 260.99V252.43L1176 223.1H1134.93L1132.45 227.39H1173.52L1192.87 260.99ZM1195.2 11.1V28.79L1173.52 -8.75L1178.62 -17.59L1195.2 11.1ZM1192.92 20.27V11.71L1178.62 -13.06L1176.15 -8.78L1192.92 20.27ZM1006.82 -50L984.31 -11H940.61L935.5 -19.85H979.21L996.61 -50H1006.82ZM983 -13.29L1002.87 -47.72H997.93L980.52 -17.57H939.45L941.92 -13.29H983ZM1114.9 -50L1109.14 -40L1103.38 -50H1114.9ZM1109.1 -44.58L1110.91 -47.72H1107.29L1109.1 -44.58ZM1130.31 -50L1116.86 -26.65L1111.76 -35.49L1120.1 -50H1130.31ZM1116.86 -31.21L1126.4 -47.72H1121.4L1114.34 -35.49L1116.86 -31.21ZM975.94 -50L968.87 -37.75H925.17L920.1 -46.6H963.77L965.77 -50H975.94ZM967.56 -40L971.99 -47.69H967.1L965.1 -44.29H924.01L926.48 -40H967.56ZM991.38 -50L976.59 -24.38H932.89L927.78 -33.22H971.49L981.17 -50H991.38ZM975.28 -26.66L987.43 -47.72H982.49L972.8 -30.9H931.73L934.2 -26.66H975.28ZM1145.79 -50L1124.58 -13.27L1119.47 -22.12L1135.57 -50H1145.79ZM1124.58 -17.84L1141.84 -47.72H1136.84L1122.1 -22.12L1124.58 -17.84ZM1006.82 273.2H995.3L1001.06 263.2L1006.82 273.2ZM999.25 270.92H1002.87L1001.1 267.77L999.25 270.92ZM1195.25 -15.61V2.1L1181.25 -22.09L1186.35 -30.93L1195.25 -15.61ZM1192.97 -6.44V-15L1186.39 -26.4L1183.92 -22.12L1192.97 -6.44ZM1195.25 -46.31V-24.67L1189.01 -35.49L1195.25 -46.31ZM1192.97 -33.18V-37.79L1191.64 -35.49L1192.97 -33.18ZM1195.25 37.87V55.56L1187.65 42.48H1143.94L1149.1 33.63H1192.81L1195.25 37.87ZM1192.92 47.1V38.53L1191.44 35.96H1150.36L1147.89 40.25H1188.97L1192.92 47.1ZM1145.1 31.37L1123.27 69.22H1079.57L1074.46 60.38H1118.17L1140.02 22.53L1145.1 31.37ZM1121.96 66.94L1142.49 31.37L1140.02 27.1L1119.48 62.66H1078.41L1080.88 66.94H1121.96ZM1067.96 4.63L1062.85 13.47L1040.97 -24.38H997.26L1002.37 -33.22H1046.1L1067.96 4.63ZM1062.85 8.91L1065.32 4.63L1044.76 -30.9H1003.68L1001.21 -26.62H1042.28L1062.85 8.91ZM1075.68 -8.75L1070.54 0.0999985L1048.69 -37.75H1004.98L1010.1 -46.6H1053.8L1075.68 -8.75ZM1070.57 -4.46L1073.04 -8.75L1052.48 -44.32H1011.4L1008.93 -40.03H1050L1070.57 -4.46ZM1091.1 -8.75L1069.23 29.1H1059.02L1080.87 -8.76L1059.02 -46.6H1069.23L1091.1 -8.75ZM1067.92 26.82L1088.45 -8.75L1067.92 -44.32H1062.97L1083.51 -8.75L1062.97 26.82H1067.92ZM973.98 6.89L968.87 15.73H925.17L915 -1.9V-19.57L930.27 6.89H973.98ZM967.56 13.45L970.03 9.17H928.96L917.28 -11.05V-2.49L926.48 13.45H967.56ZM1060.21 18L1055.1 26.84L1033.25 -11.01H989.54L994.65 -19.85H1038.35L1060.21 18ZM1055.1 22.28L1057.57 18L1037.04 -17.57H995.96L993.49 -13.29H1034.56L1055.1 22.28ZM1106.53 -8.72L1084.67 29.1H1074.46L1096.32 -8.76L1074.46 -46.6H1084.67L1106.53 -8.72ZM1083.36 26.82L1103.89 -8.75L1083.36 -44.32H1078.41L1098.95 -8.75L1078.41 26.82H1083.36ZM966.26 20.26L961.15 29.1H917.45L915 24.86V7.18L922.55 20.26H966.26ZM959.84 26.82L962.31 22.54H921.23L917.28 15.69V24.25L918.76 26.82H959.84ZM1174.7 -46.6L1152.85 -8.75L1174.7 29.1H1164.49L1142.63 -8.75L1164.49 -46.6H1174.7ZM1150.21 -8.75L1170.75 -44.32H1165.81L1145.27 -8.75L1165.81 26.82H1170.75L1150.21 -8.75ZM1190.1 29.1H1179.93L1158.1 -8.75L1179.93 -46.6H1190.1L1168.29 -8.75L1190.1 29.1ZM1177.63 -29.5L1186.19 -44.32H1181.25L1160.71 -8.75L1181.25 26.82H1186.19L1165.65 -8.75L1177.63 -29.5ZM1121.97 -8.75L1100.1 29.1H1089.9L1111.76 -8.76L1089.9 -46.6H1100.1L1121.97 -8.75ZM1098.8 26.82L1119.33 -8.75L1098.8 -44.32H1093.85L1114.39 -8.75L1093.85 26.82H1098.8ZM1159.26 -46.6L1137.41 -8.75L1159.26 29.1H1149.1L1127.2 -8.75L1149.1 -46.6H1159.26ZM1134.77 -8.75L1155.31 -44.32H1150.31L1129.83 -8.75L1150.36 26.82H1155.36L1134.77 -8.75ZM921.24 258.69L915 269.5V247.86L921.24 258.69ZM917.24 260.99L918.57 258.69L917.24 256.38V260.99ZM928.96 245.31L923.86 254.16L915 238.81V221.1L928.96 245.31ZM924.43 248.6L926.33 245.31L917.33 229.63V238.2L923.91 249.6L924.43 248.6ZM936.68 231.94L931.58 240.79L915 212.1V194.38L936.68 231.94ZM931.58 236.22L934.1 231.94L917.33 202.89V211.46L931.58 236.22ZM966.26 180.72L961.15 189.56H917.45L915 185.32V167.64L922.55 180.72H966.26ZM959.84 187.28L962.31 183H921.23L917.28 176.15V184.71L918.76 187.28H959.84ZM998.45 258.69L990.1 273.2H979.86L993.34 249.84L998.45 258.69ZM988.75 270.92L995.81 258.69L993.34 254.4L983.81 270.92H988.75ZM990.75 245.31L974.63 273.2H964.41L985.62 236.47L990.75 245.31ZM973.31 270.92L988.1 245.31L985.63 241.03L968.37 270.92H973.31ZM928.96 84.85L923.86 93.7L915 78.35V60.66L928.96 84.85ZM924.43 88.1L926.33 84.81L917.33 69.14V77.7L923.86 89.1L924.43 88.1ZM973.98 167.31L968.87 176.15H925.17L915 158.58V140.89L930.27 167.35L973.98 167.31ZM967.56 173.87L970.03 169.59H928.96L917.28 149.4V157.97L926.48 173.91L967.56 173.87ZM936.68 71.48L931.58 80.33L915 51.61V33.92L936.68 71.48ZM931.58 75.77L934.1 71.48L917.33 42.48V51L931.58 75.77ZM921.24 98.23L915 109.1V87.41L921.24 98.23ZM917.24 100.53L918.57 98.23L917.24 95.92V100.53ZM981.7 153.98L976.59 162.82H932.89L915 131.82V114.15L938 153.98H981.7ZM975.28 160.54L977.75 156.26H936.67L917.28 122.66V131.23L934.2 160.54H975.28Z" fill="#D1CF9C" fill-opacity="0.26"/>
<path d="M1319.74 162.82H1276.03L1254.18 200.67L1249.1 191.83L1270.96 153.98H1314.66L1319.74 162.82ZM1254.18 196.1L1274.72 160.53H1315.79L1313.32 156.25H1272.24L1251.71 191.83L1254.18 196.1ZM1351.93 165.1L1346.82 173.95L1324.97 136.1H1281.26L1286.37 127.25H1330.1L1351.93 165.1ZM1346.82 169.39L1349.29 165.1L1328.76 129.51H1287.68L1285.21 133.8H1326.28L1346.82 169.39ZM1375.1 151.71L1353.24 189.56H1343.02L1364.87 151.71L1343.02 113.86H1353.23L1375.1 151.71ZM1351.93 187.28L1372.46 151.71L1351.92 116.1H1346.97L1367.51 151.67L1346.97 187.24L1351.93 187.28ZM1359.66 151.71L1354.55 160.56L1332.69 122.71H1288.98L1294.1 113.86H1337.8L1359.66 151.71ZM1354.55 155.99L1357.02 151.71L1336.48 116.1H1295.4L1292.93 120.38H1334L1354.55 155.99ZM1404.67 73.75L1399.56 82.59H1355.86L1333.99 44.74L1339.1 35.9L1360.95 73.75H1404.67ZM1398.25 80.31L1400.72 76.03H1359.64L1339.1 40.46L1336.63 44.74L1357.17 80.31H1398.25ZM1390.54 151.71L1368.68 189.56H1358.46L1380.32 151.71L1358.46 113.86H1368.67L1390.54 151.71ZM1367.37 187.28L1387.9 151.71L1367.36 116.1H1362.41L1382.95 151.67L1362.41 187.24L1367.37 187.28ZM1405.98 151.71L1384.1 189.56H1373.9L1395.76 151.71L1373.9 113.86H1384.1L1405.98 151.71ZM1382.8 187.28L1403.33 151.71L1382.8 116.1H1377.85L1398.39 151.67L1377.85 187.24L1382.8 187.28ZM1413.69 165.1L1391.83 202.96H1348.1L1343.02 194.1H1386.73L1408.58 156.25L1413.69 165.1ZM1390.52 200.67L1411.1 165.1L1408.63 160.82L1388.1 196.37H1346.97L1349.44 200.65L1390.52 200.67ZM1335.18 189.58H1291.47L1269.62 227.41L1264.51 218.57L1286.37 180.72H1330.1L1335.18 189.58ZM1269.62 222.85L1290.16 187.28H1331.23L1328.76 183H1287.68L1267.15 218.57L1269.62 222.85ZM1421.41 178.46L1399.55 216.31H1355.85L1350.74 207.46H1394.45L1416.3 169.61L1421.41 178.46ZM1398.24 214.03L1418.77 178.46L1416.3 174.17L1395.77 209.74H1354.69L1357.16 214.03H1398.24ZM1327.46 176.19H1283.75L1261.9 214.04L1256.79 205.2L1278.65 167.35H1322.35L1327.46 176.19ZM1261.9 209.48L1282.44 173.91H1323.51L1321.04 169.63H1279.96L1259.43 205.2L1261.9 209.48ZM1251.57 231.94L1229.71 269.79H1219.5L1241.35 231.94L1219.5 194.1H1229.71L1251.57 231.94ZM1228.4 267.51L1248.93 231.94L1228.4 196.37H1223.4L1243.94 231.94L1223.45 267.51H1228.4ZM1396.94 247.58L1391.83 256.42H1348.1L1326.24 218.57L1331.35 209.73L1353.2 247.58H1396.94ZM1390.52 254.1L1392.99 249.82H1351.92L1331.38 214.25L1328.91 218.53L1349.45 254.1H1390.52ZM1429.1 191.83L1407.24 229.68H1363.54L1358.43 220.83H1402.14L1423.99 182.98L1429.1 191.83ZM1405.96 227.4L1426.49 191.83L1424.02 187.55L1403.48 223.1H1362.41L1364.88 227.39L1405.96 227.4ZM1474.1 109.33H1430.43L1408.58 147.18L1403.47 138.34L1425.33 100.49H1469.03L1474.1 109.33ZM1408.58 142.62L1429.1 107.1H1470.17L1467.7 102.82H1426.65L1406.1 138.34L1408.58 142.62ZM1474.1 189.56H1463.93L1442.1 151.71L1463.95 113.86H1474.1L1452.29 151.71L1474.1 189.56ZM1461.59 130.96L1470.19 116.1H1465.25L1444.71 151.71L1465.25 187.28H1470.19L1449.65 151.71L1461.59 130.96ZM1335.18 194.1L1313.33 231.95L1335.18 269.8H1324.97L1303.1 231.94L1324.97 194.1H1335.18ZM1310.69 231.94L1331.23 196.37H1326.28L1305.75 231.94L1326.28 267.51H1331.23L1310.69 231.94ZM1236.12 231.94L1214.27 269.79H1204.1L1225.95 231.94L1204.1 194.1H1214.27L1236.12 231.94ZM1212.96 267.51L1233.49 231.94L1212.96 196.37H1208.01L1228.55 231.94L1208.01 267.51H1212.96ZM1267.01 231.94L1245.15 269.79H1234.94L1256.79 231.94L1234.94 194.1H1245.15L1267.01 231.94ZM1243.83 267.51L1264.37 231.94L1243.83 196.37H1238.89L1259.43 231.94L1238.89 267.51H1243.83ZM1304.3 194.1L1282.45 231.94L1304.3 269.79H1294.1L1272.23 231.94L1294.1 194.1H1304.3ZM1279.81 231.94L1300.35 196.37H1295.35L1274.87 231.94L1295.4 267.51H1300.4L1279.81 231.94ZM1319.74 269.79H1309.53L1287.67 231.94L1309.53 194.1H1319.74L1297.89 231.94L1319.74 269.79ZM1295.25 231.94L1315.79 196.37H1310.79L1290.31 231.94L1310.84 267.51H1315.84L1295.25 231.94ZM1344.25 178.46L1339.1 187.3L1317.25 149.45H1273.54L1278.65 140.61H1322.35L1344.25 178.46ZM1339.1 182.74L1341.57 178.46L1321.04 142.89H1279.96L1277.49 147.17H1318.56L1339.1 182.74ZM1319.74 2.36H1276.03L1254.18 40.21L1249.1 31.37L1270.93 -6.48H1314.63L1319.74 2.36ZM1254.18 35.65L1274.72 0.0999985H1315.79L1313.32 -4.18H1272.24L1251.71 31.37L1254.18 35.65ZM1458.7 113.86L1436.85 151.71L1458.7 189.56H1448.49L1426.63 151.71L1448.49 113.86H1458.7ZM1449.81 187.28H1454.75L1434.21 151.71L1454.75 116.1H1449.81L1429.27 151.71L1449.81 187.28ZM1421.41 18L1399.55 55.85H1355.85L1350.74 47H1394.45L1416.3 9.15L1421.41 18ZM1398.24 53.57L1418.77 18L1416.3 13.72L1395.77 49.28H1354.69L1357.16 53.57H1398.24ZM1282.45 98.23L1260.59 136.1H1216.89L1211.78 127.25H1255.49L1277.34 89.38L1282.45 98.23ZM1259.28 133.8L1279.81 98.23L1277.34 93.94L1256.8 129.51H1215.73L1218.2 133.8H1259.28ZM1335.18 29.1H1291.47L1269.62 66.96L1264.51 58.1L1286.37 20.26H1330.1L1335.18 29.1ZM1269.62 62.39L1290.16 26.82H1331.23L1328.76 22.54H1287.68L1267.15 58.1L1269.62 62.39ZM1327.46 15.73H1283.75L1261.9 53.58L1256.79 44.74L1278.65 6.89H1322.35L1327.46 15.73ZM1261.9 49.02L1282.44 13.45H1323.51L1321.04 9.17H1279.96L1259.43 44.74L1261.9 49.02ZM1458.7 82.59H1414.99L1393.1 120.44L1388 111.6L1409.85 73.75H1453.55L1458.7 82.59ZM1393.1 115.88L1413.64 80.31H1454.71L1452.24 76.03H1411.2L1390.67 111.6L1393.1 115.88ZM1265.7 -6.48L1260.59 2.36H1216.89L1199 -28.64V-46.31L1222 -6.48H1265.7ZM1259.28 0.0999985L1261.75 -4.18H1220.67L1201.28 -37.8V-29.23L1218.2 0.0999985H1259.28ZM1466.42 95.96H1422.71L1400.86 133.81L1395.76 124.97L1417.61 87.1H1461.31L1466.42 95.96ZM1400.86 129.25L1421.4 93.68H1462.47L1460 89.4H1418.93L1398.39 124.97L1400.86 129.25ZM1404.66 234.25L1399.55 243.1H1355.85L1333.99 205.2L1339.1 196.35L1360.95 234.21L1404.66 234.25ZM1398.24 240.81L1400.71 236.53H1359.64L1339.1 200.92L1336.63 205.2L1357.17 240.77L1398.24 240.81ZM1290.17 111.6L1268.31 149.45H1224.61L1219.5 140.61H1263.21L1285.1 102.75L1290.17 111.6ZM1267 147.17L1287.53 111.6L1285.1 107.32L1264.52 142.89H1223.45L1225.92 147.17H1267ZM1413.69 4.63L1391.83 42.48H1348.1L1342.99 33.63H1386.7L1408.55 -4.22L1413.69 4.63ZM1390.52 40.2L1411.1 4.63L1408.63 0.34L1388.1 35.91H1346.97L1349.45 40.2H1390.52ZM1251.57 71.48L1229.71 109.33H1219.5L1241.35 71.48L1219.5 33.63H1229.71L1251.57 71.48ZM1228.4 107.1L1248.93 71.48L1228.4 35.91H1223.4L1243.99 71.48L1223.45 107.1H1228.4ZM1236.1 71.48L1214.27 109.33H1204.1L1225.91 71.48L1204.1 33.63H1214.27L1236.1 71.48ZM1212.96 107.1L1233.49 71.48L1212.96 35.91H1208.01L1228.55 71.48L1208.01 107.1H1212.96ZM1396.94 87.1L1391.83 95.94H1348.1L1326.27 58.1L1331.38 49.26L1353.23 87.1H1396.94ZM1390.52 93.66L1392.99 89.38H1351.92L1331.38 53.83L1328.91 58.1L1349.45 93.67L1390.52 93.66ZM1443.26 113.84L1421.41 151.71L1443.26 189.56H1433.1L1411.2 151.71L1433.1 113.86L1443.26 113.84ZM1434.36 187.26H1439.36L1418.77 151.71L1439.31 116.1H1434.31L1413.83 151.71L1434.36 187.26ZM1267.01 71.48L1245.15 109.33H1234.94L1256.79 71.48L1234.94 33.63H1245.15L1267.01 71.48ZM1243.83 107.1L1264.37 71.48L1243.83 35.91H1238.89L1259.43 71.48L1238.89 107.1H1243.83ZM1274.73 84.91L1252.87 122.71H1209.17L1204.1 113.86H1247.77L1269.62 76.01L1274.73 84.91ZM1251.56 120.42L1272.1 84.86L1269.63 80.57L1249.1 116.1H1208.01L1210.48 120.38L1251.56 120.42ZM1304.3 33.63L1282.45 71.48L1304.3 109.33H1294.1L1272.23 71.48L1294.1 33.63H1304.3ZM1279.81 71.48L1300.35 35.91H1295.35L1274.87 71.48L1295.4 107.1H1300.4L1279.81 71.48ZM1335.18 33.63L1313.33 71.48L1335.18 109.33H1324.97L1303.1 71.48L1324.96 33.63H1335.18ZM1323.1 50.1L1331.28 35.93H1326.33L1305.75 71.48L1326.28 107.1H1331.23L1310.69 71.48L1323.1 50.1ZM1389.27 100.51L1384.1 109.33H1340.4L1318.56 71.48L1323.66 62.64L1345.51 100.49L1389.27 100.51ZM1382.8 107.1L1385.27 102.82H1344.2L1323.66 67.2L1321.19 71.48L1341.72 107.1H1382.8ZM1319.74 109.38H1309.53L1287.67 71.48L1309.53 33.63H1319.74L1297.89 71.48L1319.74 109.38ZM1295.25 71.48L1315.79 35.91H1310.79L1290.31 71.48L1310.84 107.1H1315.84L1295.25 71.48ZM1389.25 260.95L1384.1 269.79H1340.4L1318.55 231.94L1323.65 223.1L1345.5 260.95H1389.25ZM1382.83 267.51L1385.3 263.23H1344.2L1323.66 227.66L1321.19 231.94L1341.72 267.51H1382.83ZM1479.23 198.33V216.02L1471.68 202.94H1427.94L1433.1 194.1H1476.81L1479.23 198.33ZM1476.95 207.51V198.94L1475.47 196.37H1434.36L1431.89 200.65H1472.97L1476.95 207.51ZM1479.23 171.59V189.28L1457.52 151.71L1462.62 142.87L1479.23 171.59ZM1476.95 180.76V172.2L1462.65 147.43L1460.18 151.71L1476.95 180.76ZM1479.23 144.84V162.53L1465.23 138.34L1470.33 129.5L1479.23 144.84ZM1476.95 154.02V145.46L1470.34 134.1L1467.87 138.38L1476.95 154.02ZM1479.23 91.36V109.1L1477 105.19L1456.21 69.22H1412.5L1417.61 60.38H1461.31L1479.23 91.36ZM1476.95 100.53V91.97L1460 62.66H1418.93L1416.45 66.94H1457.52L1476.95 100.53ZM1479.23 114.15V135.79L1472.99 124.97L1479.23 114.15ZM1476.95 127.28V122.66L1475.62 124.97L1476.95 127.28ZM1479.23 64.61V82.3L1463.93 55.85H1420.22L1425.33 47H1469.03L1479.23 64.61ZM1476.95 73.79V65.23L1467.75 49.28H1426.65L1424.17 53.57H1465.25L1476.95 73.79ZM1466.45 256.42H1422.71L1413.03 273.2H1402.82L1417.61 247.58H1461.31L1466.45 256.42ZM1411.74 270.92L1421.4 254.1H1462.47L1460 249.82H1418.93L1406.77 270.88L1411.74 270.92ZM1458.74 243.05H1414.99L1397.59 273.2H1387.38L1409.89 234.2H1453.59L1458.74 243.05ZM1396.31 270.92L1413.72 240.77H1454.79L1452.32 236.49H1411.2L1391.33 270.92H1396.31ZM1479.2 225.1V242.79L1463.93 216.34H1420.22L1425.33 207.49H1469.03L1479.2 225.1ZM1476.92 234.28V225.71L1467.72 209.77H1426.65L1424.17 214.06H1465.25L1476.92 234.28ZM1474.1 269.79H1430.43L1428.43 273.2H1418.26L1425.33 260.95H1469.03L1474.1 269.79ZM1427.1 270.92L1429.1 267.51H1470.17L1467.7 263.23H1426.65L1422.21 270.92H1427.1ZM1479.15 251.82V269.55L1476.92 265.63L1456.16 229.68H1412.5L1417.61 220.83H1461.31L1479.15 251.82ZM1476.87 260.99V252.43L1460 223.1H1418.93L1416.45 227.39H1457.52L1476.87 260.99ZM1479.2 11.1V28.79L1457.52 -8.75L1462.62 -17.59L1479.2 11.1ZM1476.92 20.27V11.71L1462.62 -13.06L1460.15 -8.78L1476.92 20.27ZM1290.82 -50L1268.31 -11H1224.61L1219.5 -19.85H1263.21L1280.61 -50H1290.82ZM1267 -13.29L1286.87 -47.72H1281.93L1264.52 -17.57H1223.45L1225.92 -13.29H1267ZM1398.9 -50L1393.14 -40L1387.38 -50H1398.9ZM1393.1 -44.58L1394.91 -47.72H1391.29L1393.1 -44.58ZM1414.31 -50L1400.86 -26.65L1395.76 -35.49L1404.1 -50H1414.31ZM1400.86 -31.21L1410.4 -47.72H1405.4L1398.34 -35.49L1400.86 -31.21ZM1259.94 -50L1252.87 -37.75H1209.17L1204.1 -46.6H1247.77L1249.77 -50H1259.94ZM1251.56 -40L1255.99 -47.69H1251.1L1249.1 -44.29H1208.01L1210.48 -40H1251.56ZM1275.38 -50L1260.59 -24.38H1216.89L1211.78 -33.22H1255.49L1265.17 -50H1275.38ZM1259.28 -26.66L1271.43 -47.72H1266.49L1256.8 -30.9H1215.73L1218.2 -26.66H1259.28ZM1429.79 -50L1408.58 -13.27L1403.47 -22.12L1419.57 -50H1429.79ZM1408.58 -17.84L1425.84 -47.72H1420.84L1406.1 -22.12L1408.58 -17.84ZM1290.82 273.2H1279.3L1285.06 263.2L1290.82 273.2ZM1283.25 270.92H1286.87L1285.1 267.77L1283.25 270.92ZM1479.25 -15.61V2.1L1465.25 -22.09L1470.35 -30.93L1479.25 -15.61ZM1476.97 -6.44V-15L1470.39 -26.4L1467.92 -22.12L1476.97 -6.44ZM1479.25 -46.31V-24.67L1473.01 -35.49L1479.25 -46.31ZM1476.97 -33.18V-37.79L1475.64 -35.49L1476.97 -33.18ZM1479.25 37.87V55.56L1471.65 42.48H1427.94L1433.1 33.63H1476.81L1479.25 37.87ZM1476.92 47.1V38.53L1475.44 35.96H1434.36L1431.89 40.25H1472.97L1476.92 47.1ZM1429.1 31.37L1407.27 69.22H1363.57L1358.46 60.38H1402.17L1424.02 22.53L1429.1 31.37ZM1405.96 66.94L1426.49 31.37L1424.02 27.1L1403.48 62.66H1362.41L1364.88 66.94H1405.96ZM1351.96 4.63L1346.85 13.47L1324.97 -24.38H1281.26L1286.37 -33.22H1330.1L1351.96 4.63ZM1346.85 8.91L1349.32 4.63L1328.76 -30.9H1287.68L1285.21 -26.62H1326.28L1346.85 8.91ZM1359.68 -8.75L1354.54 0.0999985L1332.69 -37.75H1288.98L1294.1 -46.6H1337.8L1359.68 -8.75ZM1354.57 -4.46L1357.04 -8.75L1336.48 -44.32H1295.4L1292.93 -40.03H1334L1354.57 -4.46ZM1375.1 -8.75L1353.23 29.1H1343.02L1364.87 -8.76L1343.02 -46.6H1353.23L1375.1 -8.75ZM1351.92 26.82L1372.45 -8.75L1351.92 -44.32H1346.97L1367.51 -8.75L1346.97 26.82H1351.92ZM1257.98 6.89L1252.87 15.73H1209.17L1199 -1.9V-19.57L1214.27 6.89H1257.98ZM1251.56 13.45L1254.03 9.17H1212.96L1201.28 -11.05V-2.49L1210.48 13.45H1251.56ZM1344.21 18L1339.1 26.84L1317.25 -11.01H1273.54L1278.65 -19.85H1322.35L1344.21 18ZM1339.1 22.28L1341.57 18L1321.04 -17.57H1279.96L1277.49 -13.29H1318.56L1339.1 22.28ZM1390.53 -8.72L1368.67 29.1H1358.46L1380.32 -8.76L1358.46 -46.6H1368.67L1390.53 -8.72ZM1367.36 26.82L1387.89 -8.75L1367.36 -44.32H1362.41L1382.95 -8.75L1362.41 26.82H1367.36ZM1250.26 20.26L1245.15 29.1H1201.45L1199 24.86V7.18L1206.55 20.26H1250.26ZM1243.84 26.82L1246.31 22.54H1205.23L1201.28 15.69V24.25L1202.76 26.82H1243.84ZM1458.7 -46.6L1436.85 -8.75L1458.7 29.1H1448.49L1426.63 -8.75L1448.49 -46.6H1458.7ZM1434.21 -8.75L1454.75 -44.32H1449.81L1429.27 -8.75L1449.81 26.82H1454.75L1434.21 -8.75ZM1474.1 29.1H1463.93L1442.1 -8.75L1463.93 -46.6H1474.1L1452.29 -8.75L1474.1 29.1ZM1461.63 -29.5L1470.19 -44.32H1465.25L1444.71 -8.75L1465.25 26.82H1470.19L1449.65 -8.75L1461.63 -29.5ZM1405.97 -8.75L1384.1 29.1H1373.9L1395.76 -8.76L1373.9 -46.6H1384.1L1405.97 -8.75ZM1382.8 26.82L1403.33 -8.75L1382.8 -44.32H1377.85L1398.39 -8.75L1377.85 26.82H1382.8ZM1443.26 -46.6L1421.41 -8.75L1443.26 29.1H1433.1L1411.2 -8.75L1433.1 -46.6H1443.26ZM1418.77 -8.75L1439.31 -44.32H1434.31L1413.83 -8.75L1434.36 26.82H1439.36L1418.77 -8.75ZM1205.24 258.69L1199 269.5V247.86L1205.24 258.69ZM1201.24 260.99L1202.57 258.69L1201.24 256.38V260.99ZM1212.96 245.31L1207.86 254.16L1199 238.81V221.1L1212.96 245.31ZM1208.43 248.6L1210.33 245.31L1201.33 229.63V238.2L1207.91 249.6L1208.43 248.6ZM1220.68 231.94L1215.58 240.79L1199 212.1V194.38L1220.68 231.94ZM1215.58 236.22L1218.1 231.94L1201.33 202.89V211.46L1215.58 236.22ZM1250.26 180.72L1245.15 189.56H1201.45L1199 185.32V167.64L1206.55 180.72H1250.26ZM1243.84 187.28L1246.31 183H1205.23L1201.28 176.15V184.71L1202.76 187.28H1243.84ZM1282.45 258.69L1274.1 273.2H1263.86L1277.34 249.84L1282.45 258.69ZM1272.75 270.92L1279.81 258.69L1277.34 254.4L1267.81 270.92H1272.75ZM1274.75 245.31L1258.63 273.2H1248.41L1269.62 236.47L1274.75 245.31ZM1257.31 270.92L1272.1 245.31L1269.63 241.03L1252.37 270.92H1257.31ZM1212.96 84.85L1207.86 93.7L1199 78.35V60.66L1212.96 84.85ZM1208.43 88.1L1210.33 84.81L1201.33 69.14V77.7L1207.86 89.1L1208.43 88.1ZM1257.98 167.31L1252.87 176.15H1209.17L1199 158.58V140.89L1214.27 167.35L1257.98 167.31ZM1251.56 173.87L1254.03 169.59H1212.96L1201.28 149.4V157.97L1210.48 173.91L1251.56 173.87ZM1220.68 71.48L1215.58 80.33L1199 51.61V33.92L1220.68 71.48ZM1215.58 75.77L1218.1 71.48L1201.33 42.48V51L1215.58 75.77ZM1205.24 98.23L1199 109.1V87.41L1205.24 98.23ZM1201.24 100.53L1202.57 98.23L1201.24 95.92V100.53ZM1265.7 153.98L1260.59 162.82H1216.89L1199 131.82V114.15L1222 153.98H1265.7ZM1259.28 160.54L1261.75 156.26H1220.67L1201.28 122.66V131.23L1218.2 160.54H1259.28Z" fill="#D1CF9C" fill-opacity="0.26"/>
</g>
<defs>
<clipPath id="clip0">
<rect width="1212" height="189" rx="5" fill="white"/>
</clipPath>
</defs>
</svg>
