<svg width="51" height="44" viewBox="0 0 51 44" fill="none" xmlns="http://www.w3.org/2000/svg">
<path d="M45.3809 42.99C45.6004 42.649 45.9003 42.408 46.1199 42.067C46.0396 41.967 45.9592 41.867 45.8691 41.8572C45.0656 40.8575 44.0818 39.8381 43.4881 38.5875C42.8846 37.4271 43.1122 36.1747 43.3201 35.1026C43.6378 33.86 44.0457 32.6272 44.4437 31.4846C45.5674 27.8666 48.553 23.9039 47.2914 19.5701C46.6959 17.4983 46.553 16.2968 44.1874 15.4007C42.7841 14.8831 39.5991 14.8101 38.7092 15.443C38.4093 15.6841 38.4227 17.2364 38.2032 17.5774C37.864 18.1791 37.0838 18.6415 36.725 19.4235C36.1074 20.9072 37.4144 23.1476 34.3275 22.173C32.3367 18.6722 35.9603 8.84913 29.6056 11.0767C28.6298 9.14595 29.5142 6.04928 27.968 4.33012C25.1068 1.28188 25.8097 6.55832 23.687 6.7834C21.3741 7.07902 21.2453 3.23345 19.4403 2.21594C17.1238 0.869064 17.1311 4.15405 14.4147 3.12856C12.4901 2.37171 10.8323 0.00181042 8.82302 1.69888C6.81376 3.39595 8.97142 5.36412 9.3161 7.22618C9.80369 10.2898 6.45617 9.19556 6.86157 11.3379C7.09463 12.5492 8.3863 12.4162 8.9389 13.2061C9.56204 14.1862 9.71475 15.2976 9.85765 16.4991C7.62514 16.8947 4.04638 15.4104 2.87983 17.7466C1.58386 20.4335 4.8216 21.6982 6.21875 23.9486C7.85694 26.4988 5.35395 26.8649 7.14118 28.884C8.83825 30.8933 12.9954 31.2545 10.1784 34.5057C12.693 34.8707 15.9197 31.2079 18.1265 32.7253C18.7183 33.1546 18.3712 34.6677 19.1237 35.297C20.037 36.1262 20.968 35.9539 21.9597 36.0618C23.8433 36.3581 25.5446 35.8134 27.4085 36.29C28.3273 39.5829 35.4542 37.8043 37.3573 37.9202C38.5392 37.9576 40.0425 38.395 41.2753 38.8028C43.1195 39.4597 44.0757 41.5708 45.3809 42.99C45.3809 42.99 45.3005 42.89 45.3809 42.99Z" fill="#82AA05"/>
<path d="M30.1956 24.0952C31.3106 25.585 32.1944 26.6847 32.5256 26.9944C31.8123 26.0045 31.099 25.0146 30.1956 24.0952Z" fill="#A7C108"/>
<path d="M6.21875 23.9486C7.85694 26.4988 5.35395 26.8649 7.14118 28.884C8.75791 30.7933 12.7249 31.2251 10.4881 34.1746C10.6586 34.2843 10.7389 34.3843 10.9094 34.4941C13.3026 34.2985 16.2706 31.3373 18.2265 32.6449C18.8183 33.0743 18.4712 34.5874 19.2237 35.2166C20.1369 36.0459 21.068 35.8735 22.0597 35.9815C23.9433 36.2777 25.6446 35.7331 27.5085 36.2096C28.2862 39.1223 33.9626 38.0981 36.6361 37.8417C35.8344 37.6632 35.023 37.5749 34.3919 37.5062C31.4265 37.0922 30.9818 35.3105 28.7162 34.3341C26.8817 33.587 25.3116 34.6021 23.4575 34.0354C21.5133 33.4589 22.1425 32.7063 21.1998 32.1475C20.8588 31.928 19.0949 31.3711 18.9637 30.9006C17.9664 28.329 21.704 29.1919 22.8466 29.59C26.8155 30.843 30.6451 32.5371 34.579 31.5968C30.7021 31.1749 26.8038 30.1119 22.9448 28.6884C21.1103 27.9413 19.6267 27.3237 17.7235 27.2078C15.9105 27.1017 14.4698 27.7659 12.6452 26.9287C12.5826 25.8272 13.4628 25.2844 13.5002 24.1025C11.6068 23.8964 10.0195 21.7167 11.1879 20.2017C12.3465 18.777 15.0531 19.8926 16.5171 20.6906C19.696 22.4962 23.2312 26.895 26.8866 26.8368C23.7157 24.1197 20.0646 21.6241 16.8428 18.5366C15.4377 17.1977 12.9881 14.5591 15.9731 14.7928C18.0468 15.0185 19.9456 17.6884 21.8605 18.5354C20.183 16.3458 14.9839 11.3097 15.3586 8.70494C18.7436 8.61724 21.4005 14.3801 23.2484 16.6795C25.2571 19.1788 28.0262 21.396 30.225 23.8247C27.2816 19.8553 22.8804 13.3552 25.936 13.779C27.9195 13.9949 30.3943 18.9169 31.3192 20.4772C32.0129 21.6474 32.6967 22.9078 33.7903 23.7567C34.633 24.3958 35.6032 23.8628 36.5772 24.9723C37.9652 23.1164 39.4924 20.8194 39.5016 24.9257C39.5071 27.3894 38.8422 30.1451 39.7493 32.707C41.0864 30.4806 41.4084 26.6841 41.8028 23.899C42.0107 22.8269 42.2934 19.391 43.3539 18.8679C44.8044 18.1135 45.0197 20.3264 45.8838 21.6064C46.6327 20.5932 46.1783 18.9016 47.0075 17.9884C46.6039 16.6672 46.0611 15.7871 44.2169 15.1303C42.8136 14.6126 39.6286 14.5396 38.7386 15.1726C38.4387 15.4136 38.4522 16.9659 38.2326 17.3069C37.8934 17.9086 37.1133 18.371 36.7545 19.153C36.1369 20.6367 37.4439 22.8772 34.357 21.9026C32.3661 18.4017 35.9897 8.57866 29.635 10.8062C28.6592 8.87549 29.5436 5.77879 27.9974 4.05963C25.1363 1.01139 25.8391 6.28785 23.7164 6.51294C21.4036 6.80856 21.2748 2.96299 19.4697 1.94548C17.1532 0.598602 17.1606 3.88359 14.4441 2.85809C12.5195 2.10124 10.8617 -0.268652 8.85246 1.42842C6.84319 3.12549 9.00085 5.09366 9.34554 6.95572C9.83312 10.0193 6.48561 8.9251 6.89101 11.0674C7.12407 12.2788 8.41574 12.1457 8.96834 12.9356C9.59148 13.9157 9.74419 15.0271 9.88709 16.2286C7.65458 16.6242 4.07582 15.1399 2.90926 17.4761C1.49369 20.4237 4.82159 21.6983 6.21875 23.9486Z" fill="#A7C108"/>
<path d="M38.0303 34.2532C38.8731 34.8923 39.4355 35.5921 40.3781 36.1508C41.3208 36.7096 42.3537 37.2781 42.9866 38.1681C42.7714 35.9552 42.6462 33.7521 43.1424 31.7079C43.7778 29.2227 44.6739 26.8571 45.0487 24.2523C43.8232 27.1294 43.2093 30.2556 42.4248 33.2719C42.2464 34.0735 42.0716 36.5176 40.6075 35.7197C39.4845 35.1413 39.4692 32.7677 39.3968 31.7563C39.2521 29.7336 39.5385 27.9402 39.5741 25.9371C39.6802 24.1241 39.7962 22.2209 39.9924 20.4178C39.1749 22.0621 39.3705 24.4553 39.0841 26.2487C38.7388 28.583 38.7443 31.0467 38.4989 33.3007C37.2073 33.4338 35.4476 30.323 34.8147 29.433C33.6291 27.7531 32.5337 26.0831 31.4481 24.3228C30.2019 22.3626 28.2656 20.8747 27.0291 18.8243C25.5418 16.5642 24.3054 14.5138 23.5688 12.0618C23.1045 10.4604 22.6402 8.85895 21.9858 7.32809C22.2716 9.7311 23.018 12.093 23.8546 14.4648C24.7715 16.9365 26.4078 18.6655 28.1049 20.6747C26.4998 19.4965 25.1438 17.7068 24.0484 16.0367C23.4958 15.2468 22.8334 14.6273 22.2808 13.8373C21.7282 13.0474 21.2461 12.4475 20.6837 11.7477C19.1473 9.9384 17.9715 8.16833 16.1254 6.69021C14.44 5.41203 12.8135 3.59288 10.6693 3.17704C11.9843 4.50613 13.6286 5.3237 15.0632 6.39212C15.8255 6.93123 16.2076 7.61141 16.8602 8.32103C17.4324 8.93068 18.0243 9.36002 18.5965 9.96967C20.0624 11.5889 21.2087 13.6294 22.5647 15.4191C23.67 16.999 25.026 18.7887 26.5311 20.0473C27.6952 21.0863 29.3297 21.994 29.894 23.515C28.7532 23.9382 27.7498 23.0992 26.617 22.611C25.6645 22.1424 24.7923 21.7738 23.8496 21.215C22.0544 20.1074 20.0593 19.1604 18.1739 18.0429C15.6065 16.4863 13.5881 14.0771 11.0207 12.5205C11.9849 13.7202 13.3391 14.6886 14.513 15.6374C15.8574 16.696 17.1116 17.7448 18.456 18.8034C21.9876 21.5597 25.8485 23.8045 29.9173 24.9772C31.5107 25.4243 33.6702 28.2137 33.5034 29.7464C32.5626 30.0089 31.8315 30.0206 30.7496 29.9028C29.3972 29.7556 28.0742 29.338 26.8709 28.6596C25.6577 28.0714 24.4151 27.7537 23.202 27.1656C22.6806 26.9264 22.079 26.5872 21.5576 26.348C20.515 25.8696 19.4331 25.7518 18.3708 25.4537C17.3085 25.1556 15.2036 24.3792 14.7055 25.6021C18.2297 25.0735 22.2709 27.3379 25.6595 28.8927C26.5317 29.2613 27.3333 29.4398 28.2153 29.7182C29.7989 30.2555 31.4021 30.6125 33.0446 30.6088C35.0281 30.8247 36.4449 32.8947 38.0303 34.2532Z" fill="#618706"/>
</svg>
