<svg width="45" height="45" viewBox="0 0 45 45" fill="none" xmlns="http://www.w3.org/2000/svg">
<path d="M25.5 43.5H19.5C19.0857 43.5 18.75 43.8357 18.75 44.25C18.75 44.6642 19.0857 44.9999 19.5 44.9999H25.5C25.9142 44.9999 26.2499 44.6642 26.2499 44.25C26.2499 43.8357 25.9142 43.5 25.5 43.5Z" fill="#F07C00"/>
<path d="M29.2456 32.0046C29.1799 30.1708 28.3694 28.4429 27.0014 27.2198C25.1625 25.5738 22.5721 25.0624 20.2456 25.8859C17.9192 26.7094 16.2274 28.7367 15.8335 31.173C15.4959 33.2615 16.1597 35.3872 17.6258 36.9126C18.354 37.677 18.757 38.6942 18.7501 39.75C18.7514 40.992 19.758 41.9986 21.0001 41.9999H24C25.2421 41.9986 26.2487 40.992 26.25 39.75C26.2361 38.705 26.6308 37.6959 27.3502 36.9378C28.6269 35.6199 29.3114 33.8384 29.2456 32.0046ZM26.2734 35.8942C25.2817 36.9313 24.7349 38.3151 24.75 39.75C24.7496 40.1641 24.414 40.4997 24 40.5H21.0001C20.5859 40.4994 20.2503 40.1635 20.2501 39.7492C20.2578 38.3067 19.7051 36.9176 18.7083 35.8748C17.3281 34.4363 16.8829 32.3396 17.5594 30.4643C18.236 28.589 19.9174 27.2596 21.8981 27.0337C22.1001 27.0111 22.3033 26.9998 22.5067 26.9997C23.7971 26.9956 25.0427 27.4726 26.0003 28.3374C27.0645 29.2881 27.6951 30.6315 27.7466 32.0576C27.7981 33.4836 27.2661 34.869 26.2734 35.8942Z" fill="#F07C00"/>
<path d="M35.25 4.50009C32.3505 4.50009 30 6.85064 30 9.75005C30 12.6495 32.3505 15 35.25 15C38.1494 15 40.4999 12.6495 40.4999 9.75005C40.4966 6.85195 38.1481 4.50343 35.25 4.50009ZM35.25 13.5001C33.1789 13.5001 31.4999 11.8211 31.4999 9.75005C31.4999 7.679 33.1788 6.00003 35.25 6.00003C37.321 6.00003 39 7.679 39 9.75005C38.9975 11.8201 37.32 13.4976 35.25 13.5001Z" fill="black"/>
<path d="M43.7668 7.50027H43.1889C43.0131 6.88346 42.766 6.28932 42.4528 5.72963L42.863 5.31909C43.3442 4.83719 43.3442 4.05672 42.863 3.57482L41.426 2.13746C40.9381 1.67076 40.1694 1.67067 39.6813 2.1371L39.2705 2.54764C38.7112 2.23396 38.117 1.98708 37.5002 1.81191V1.23368C37.4995 0.552791 36.9477 0.000926205 36.2668 0.000310972H34.2336C33.5527 0.0010141 33.0009 0.552791 33.0003 1.23368V1.81191C32.3834 1.98716 31.7893 2.23414 31.23 2.54764L30.8184 2.1364C30.3303 1.6712 29.5629 1.67146 29.0753 2.13719L27.6375 3.57491C27.1563 4.05672 27.1563 4.83728 27.6375 5.31918L28.0477 5.72972C27.7345 6.28932 27.4874 6.88354 27.3116 7.50027H26.7338C26.0529 7.50097 25.5011 8.05275 25.5004 8.73364V9.00021H19.4624C19.0654 3.82654 14.6842 -0.128976 9.49687 0.00347503C4.30966 0.135838 0.135834 4.30967 0.00347087 9.49688C-0.128892 14.6842 3.82653 19.0654 9.00029 19.4623V30.7502C9.00161 31.9923 10.0082 32.9989 11.2503 33.0002H13.5003C13.9145 33.0002 14.2502 32.6645 14.2502 32.2502C14.2502 31.836 13.9144 31.5003 13.5003 31.5003H11.2503C10.8362 31.4998 10.5007 31.1643 10.5003 30.7503V19.4623C15.2861 19.0877 19.0877 15.2861 19.4623 10.5002H25.5003V10.7668C25.501 11.4477 26.0528 11.9996 26.7337 12.0002H27.3116C27.4873 12.617 27.7344 13.2111 28.0476 13.7708L27.6375 14.1814C27.1563 14.6632 27.1563 15.4437 27.6375 15.9256L29.0745 17.363C29.5623 17.8297 30.331 17.8298 30.8191 17.3633L31.23 16.9528C31.7892 17.2665 32.3834 17.5134 33.0003 17.6885V18.2668C33.001 18.9477 33.5527 19.4995 34.2336 19.5001H34.5002V30.7501C34.4998 31.1642 34.1643 31.4997 33.7502 31.5001H31.5002C31.086 31.5001 30.7503 31.8358 30.7503 32.2501C30.7503 32.6643 31.086 33 31.5002 33H33.7502C34.9923 32.9987 35.9989 31.9921 36.0002 30.75V19.5H36.2668C36.9477 19.4993 37.4996 18.9476 37.5002 18.2667V17.6884C38.117 17.5134 38.7112 17.2664 39.2705 16.9527L39.682 17.364C40.1701 17.8292 40.9376 17.8289 41.4252 17.3632L42.8629 15.9255C43.3441 15.4436 43.3441 14.6631 42.8629 14.1812L42.4527 13.7706C42.7659 13.211 43.013 12.6168 43.1888 12H43.7667C44.4476 11.9993 44.9993 11.4475 45 10.7666V8.73364C44.9995 8.05275 44.4477 7.50097 43.7668 7.50027ZM9.75026 18.0003C5.19393 18.0003 1.50025 14.3066 1.50025 9.75027C1.50025 5.19394 5.19393 1.50025 9.75026 1.50025C14.3066 1.50025 18.0003 5.19394 18.0003 9.75027C17.9951 14.3045 14.3045 17.9951 9.75026 18.0003ZM43.5002 10.5002H42.9787C42.4154 10.5036 41.9256 10.8875 41.7878 11.4337C41.6296 12.0473 41.3853 12.6353 41.062 13.1802C40.7721 13.6639 40.8469 14.2825 41.2437 14.6831L41.6143 15.0533L40.553 16.1142L40.1839 15.7448C39.7836 15.347 39.1642 15.2716 38.6803 15.562C38.1357 15.8852 37.5481 16.1295 36.9349 16.2878C36.3878 16.4248 36.0031 16.9151 36.0003 17.4791V18.0002H34.5003V17.4791C34.4977 16.9154 34.1132 16.4252 33.5665 16.2882C32.9533 16.1298 32.3657 15.8855 31.8211 15.5624C31.3375 15.2713 30.7178 15.3461 30.3175 15.744L29.9477 16.1143L28.8864 15.0534L29.257 14.6832C29.6538 14.2826 29.7285 13.6639 29.4387 13.1803C29.1153 12.6353 28.871 12.0471 28.7129 11.4335C28.5749 10.8874 28.0852 10.5037 27.522 10.5003H27.0005V9.0003H27.522C28.0853 8.99696 28.5751 8.61305 28.7129 8.06681C28.8711 7.45325 29.1154 6.86526 29.4388 6.32034C29.7287 5.83668 29.6539 5.21802 29.2571 4.81741L28.8865 4.44713L29.9477 3.3862L30.3169 3.7557C30.7171 4.15366 31.3366 4.22899 31.8205 3.93842C32.3651 3.61525 32.9527 3.37091 33.5658 3.21262C34.113 3.07569 34.4977 2.58535 34.5004 2.02135V1.50025H36.0004V2.02135C36.003 2.58508 36.3875 3.07525 36.9342 3.21227C37.5479 3.37082 38.136 3.61542 38.6811 3.93886C39.1647 4.22828 39.7829 4.15322 40.1833 3.75649L40.5531 3.38629L41.6144 4.44722L41.2438 4.8175C40.847 5.21811 40.7722 5.83677 41.0621 6.32043C41.3855 6.86544 41.6298 7.4536 41.7879 8.06725C41.9259 8.61332 42.4156 8.99705 42.9788 9.00039H43.5003V10.5002H43.5002Z" fill="black"/>
<path d="M35.25 10.5C35.6642 10.5 35.9999 10.1642 35.9999 9.75005C35.9999 9.33585 35.6642 9.00008 35.25 9.00008C34.8358 9.00008 34.5 9.33585 34.5 9.75005C34.5 10.1642 34.8358 10.5 35.25 10.5Z" fill="black"/>
<path d="M9.74999 3.00006C6.02211 3.00006 3 6.02218 3 9.75005C3 13.4779 6.02211 16.5 9.74999 16.5C13.4779 16.5 16.5 13.4779 16.5 9.75005C16.4958 6.02385 13.4762 3.00428 9.74999 3.00006ZM9.74999 15C6.85048 15 4.50003 12.6495 4.50003 9.75005C4.50003 6.85063 6.85057 4.50009 9.74999 4.50009C12.6494 4.50009 15 6.85063 15 9.75005C14.9966 12.6482 12.6481 14.9967 9.74999 15Z" fill="black"/>
<path d="M10.4999 9.43953V6.75008C10.4999 6.33585 10.1642 6.00011 9.74997 6.00011C9.33574 6.00011 9 6.33585 9 6.75008V9.75004C9.00009 9.94894 9.0791 10.1397 9.21973 10.2803L10.7198 11.7803C11.0134 12.0687 11.4845 12.0665 11.7755 11.7756C12.0665 11.4846 12.0686 11.0135 11.7802 10.7198L10.4999 9.43953Z" fill="black"/>
<path d="M23.2499 23.25V21C23.2499 20.5858 22.9142 20.25 22.5 20.25C22.0857 20.25 21.75 20.5858 21.75 21V23.25C21.75 23.6642 22.0857 24 22.5 24C22.9142 24 23.2499 23.6642 23.2499 23.25Z" fill="#F07C00"/>
<path d="M16.3301 26.6103C16.5889 26.541 16.791 26.3388 16.8604 26.0801C16.9297 25.8213 16.8557 25.5452 16.6663 25.3557L15.0755 23.7649C14.8862 23.5749 14.6098 23.5005 14.3507 23.5698C14.0916 23.639 13.8891 23.8414 13.8199 24.1005C13.7506 24.3596 13.825 24.636 14.015 24.8254L15.6058 26.4162C15.7952 26.6058 16.0713 26.6797 16.3301 26.6103Z" fill="#F07C00"/>
<path d="M28.6699 26.6103C28.9286 26.6797 29.2048 26.6057 29.3943 26.4163L30.9851 24.8255C31.1258 24.6848 31.2048 24.4941 31.2048 24.2952C31.2048 24.0963 31.1258 23.9056 30.9851 23.765C30.8444 23.6243 30.6537 23.5452 30.4548 23.5452C30.2559 23.5452 30.0651 23.6243 29.9246 23.765L28.3338 25.3558C28.1444 25.5453 28.0704 25.8213 28.1397 26.0802C28.2089 26.3389 28.411 26.541 28.6699 26.6103Z" fill="#F07C00"/>
<path d="M16.3301 37.8897C16.0714 37.8203 15.7952 37.8943 15.6057 38.0837L14.0149 39.6745C13.8742 39.8152 13.7952 40.0059 13.7952 40.2048C13.7952 40.4037 13.8742 40.5944 14.0149 40.735C14.1555 40.8758 14.3462 40.9548 14.5451 40.9548C14.744 40.9548 14.9348 40.8758 15.0754 40.735L16.6662 39.1442C16.8557 38.9547 16.9296 38.6787 16.8603 38.4198C16.791 38.1612 16.5889 37.959 16.3301 37.8897Z" fill="#F07C00"/>
<path d="M29.3942 38.0837C29.2536 37.943 29.0629 37.864 28.864 37.864C28.6651 37.864 28.4744 37.943 28.3337 38.0837C28.193 38.2244 28.114 38.4151 28.114 38.614C28.114 38.8129 28.193 39.0036 28.3337 39.1442L29.9246 40.735C30.2176 41.027 30.6917 41.0267 30.9842 40.7342C31.2767 40.4417 31.2771 39.9676 30.985 39.6745L29.3942 38.0837Z" fill="#F07C00"/>
</svg>
