<svg width="45" height="45" viewBox="0 0 45 45" fill="none" xmlns="http://www.w3.org/2000/svg">
<path d="M6.75 27C2.1716 27 0.322998 28.6245 0.246797 28.6937C0.0894729 28.8359 -0.000175523 29.038 2.58017e-07 29.25V42.75C-0.000175523 42.962 0.0894729 43.1641 0.246797 43.3063C0.322998 43.3755 2.1716 45 6.75 45C11.3284 45 13.177 43.3755 13.2532 43.3063C13.4105 43.1641 13.5002 42.962 13.5 42.75V29.25C13.5002 29.038 13.4105 28.8359 13.2532 28.6937C13.177 28.6245 11.3284 27 6.75 27ZM2.59093 29.1293L2.61738 29.1192C2.77444 29.0632 2.95102 29.0082 3.13778 28.9545C3.18683 28.9404 3.23912 28.9269 3.29019 28.9131C3.44821 28.8706 3.6174 28.83 3.79582 28.7915C3.84724 28.7803 3.89593 28.7686 3.9491 28.758C4.17665 28.7124 4.4202 28.6714 4.67982 28.6353C4.73273 28.628 4.79057 28.6226 4.84497 28.6159C5.06285 28.5887 5.29269 28.5662 5.53289 28.5482C5.61498 28.542 5.69698 28.5359 5.78171 28.531C6.0888 28.5129 6.40749 28.5001 6.75009 28.5001C7.09321 28.5001 7.41226 28.5129 7.7197 28.531C7.80486 28.536 7.88748 28.5421 7.97001 28.5484C8.20995 28.5665 8.43952 28.589 8.65714 28.6161C8.71189 28.623 8.77034 28.6284 8.82369 28.6357C9.08306 28.6714 9.3259 28.7129 9.55301 28.7584C9.60803 28.7694 9.6583 28.7815 9.71139 28.7931C9.88813 28.8313 10.0558 28.8715 10.2125 28.9138C10.2642 28.9277 10.3172 28.9415 10.3668 28.9557C10.5526 29.0092 10.728 29.064 10.8844 29.1197C10.8988 29.1249 10.9105 29.13 10.9247 29.1352C11.0326 29.1744 11.1254 29.2131 11.2192 29.2519C9.79233 29.7896 8.27437 30.0437 6.75018 30.0003C5.22606 30.0437 3.70811 29.7896 2.2812 29.2524C2.37964 29.2113 2.47685 29.1705 2.59093 29.1293ZM1.50003 30.5474C3.16406 31.2287 4.95264 31.5532 6.75 31.5C8.54736 31.5532 10.3359 31.2287 12 30.5474V33.3614L11.9791 33.3744C11.9136 33.4141 11.8368 33.4582 11.7461 33.5062C11.7315 33.5139 11.7135 33.5224 11.6982 33.5304C11.6149 33.5733 11.5196 33.6189 11.4159 33.6656C11.3883 33.6781 11.3618 33.6904 11.3326 33.703C11.2088 33.7566 11.0714 33.8115 10.9203 33.8663C10.8896 33.8774 10.8555 33.8884 10.8236 33.8996C10.6847 33.9479 10.5341 33.9957 10.373 34.0421C10.3377 34.0523 10.3047 34.0628 10.2683 34.0728C10.0807 34.1245 9.87636 34.1735 9.65927 34.2194C9.60987 34.2299 9.55767 34.2395 9.50678 34.2496C9.29821 34.2906 9.07787 34.3283 8.84268 34.3611C8.81209 34.3653 8.78423 34.3706 8.7532 34.3746C8.49463 34.4087 8.21558 34.4352 7.92466 34.4562C7.85619 34.4611 7.78597 34.4653 7.71557 34.4693C7.40927 34.4872 7.09163 34.5 6.75 34.5C6.40837 34.5 6.09073 34.4871 5.78443 34.4692C5.71403 34.4651 5.6439 34.461 5.57534 34.4561C5.28416 34.435 5.00484 34.4086 4.74609 34.3745C4.7163 34.3705 4.68958 34.3655 4.66014 34.3615C4.42257 34.3285 4.20012 34.2903 3.98971 34.2489C3.94102 34.2393 3.89101 34.23 3.84372 34.22C3.62399 34.1736 3.4171 34.1241 3.22752 34.0718C3.19632 34.0632 3.16802 34.0541 3.13761 34.0454C2.9671 33.9964 2.80819 33.9461 2.66247 33.895C2.63795 33.8864 2.61158 33.878 2.58776 33.8694C2.42921 33.812 2.28524 33.7546 2.1564 33.6986L2.10428 33.6752C1.97956 33.6196 1.8653 33.5651 1.76906 33.5146L1.76687 33.5135C1.66324 33.4592 1.57667 33.4092 1.50495 33.3653L1.49994 33.3622V30.5474H1.50003ZM12 42.3626C11.4184 42.7196 9.79831 43.5001 6.75 43.5001C3.6958 43.5001 2.07571 42.7168 1.50003 42.3634V39.5487C1.53053 39.5622 1.56735 39.5759 1.59899 39.5895C1.68565 39.6267 1.77363 39.6638 1.86935 39.7011C1.92164 39.7215 1.97824 39.7413 2.03326 39.7616C2.12599 39.7957 2.22029 39.8294 2.32093 39.8629C2.38544 39.8842 2.45303 39.905 2.52079 39.9259C2.62204 39.9573 2.72584 39.9878 2.83465 40.0178C2.91006 40.0387 2.98749 40.0588 3.0665 40.0788C3.17813 40.1071 3.29361 40.1341 3.41262 40.1605C3.49796 40.1794 3.58365 40.1978 3.67277 40.2156C3.79731 40.2404 3.92713 40.2631 4.05923 40.2854C4.15274 40.3011 4.24494 40.317 4.34224 40.3313C4.48409 40.3522 4.63315 40.3698 4.78327 40.3873C4.88109 40.3987 4.97593 40.4111 5.07718 40.421C5.24769 40.4375 5.4276 40.4492 5.6083 40.4607C5.69927 40.4665 5.78558 40.4745 5.87909 40.479C6.15814 40.4923 6.44722 40.5003 6.74991 40.5003C7.05261 40.5003 7.34168 40.4923 7.62082 40.479C7.71442 40.4745 7.80064 40.4665 7.89161 40.4607C8.07231 40.4492 8.25231 40.4374 8.42273 40.421C8.52407 40.4111 8.61891 40.3987 8.71664 40.3873C8.86667 40.3698 9.01582 40.3523 9.15768 40.3313C9.25497 40.317 9.34717 40.3011 9.44068 40.2854C9.57278 40.2631 9.7026 40.2405 9.82714 40.2156C9.91635 40.1978 10.002 40.1794 10.0873 40.1605C10.2063 40.1341 10.3218 40.1071 10.4334 40.0788C10.5125 40.0588 10.5899 40.0387 10.6653 40.0178C10.774 39.9879 10.8779 39.9573 10.9791 39.9259C11.0469 39.9049 11.1146 39.8842 11.179 39.8629C11.2796 39.8295 11.3739 39.7957 11.4667 39.7616C11.5218 39.7414 11.5783 39.7215 11.6306 39.7011C11.7263 39.6638 11.8143 39.6268 11.9009 39.5895C11.9326 39.5759 11.9694 39.5623 11.9999 39.5487L12 42.3626ZM12.0001 37.8615L11.9792 37.8744C11.9137 37.9142 11.8369 37.9583 11.7462 38.0063C11.7316 38.014 11.7136 38.0225 11.6983 38.0304C11.615 38.0734 11.5196 38.119 11.416 38.1657C11.3883 38.1782 11.3619 38.1905 11.3327 38.2031C11.2089 38.2567 11.0715 38.3116 10.9204 38.3664C10.8897 38.3775 10.8555 38.3885 10.8236 38.3997C10.6848 38.448 10.5342 38.4957 10.3731 38.5422C10.3378 38.5524 10.3048 38.5629 10.2683 38.5729C10.0808 38.6246 9.87645 38.6736 9.65936 38.7195C9.60996 38.73 9.55775 38.7396 9.50687 38.7497C9.2983 38.7907 9.07796 38.8284 8.84276 38.8612C8.81218 38.8654 8.78432 38.8707 8.75329 38.8747C8.49472 38.9088 8.21566 38.9353 7.92475 38.9563C7.85628 38.9612 7.78606 38.9653 7.71565 38.9694C7.40927 38.9872 7.09163 39.0001 6.75 39.0001C6.40802 39.0001 6.09012 38.9872 5.78355 38.9693C5.71272 38.9652 5.64188 38.961 5.57297 38.9561C5.28231 38.935 5.00361 38.9086 4.7453 38.8745C4.71234 38.8701 4.68255 38.8646 4.65012 38.86C4.41624 38.8273 4.19669 38.7897 3.98918 38.7489C3.93882 38.7389 3.88696 38.7294 3.83818 38.7191C3.62083 38.6731 3.4164 38.6241 3.22866 38.5722C3.19166 38.5619 3.158 38.5514 3.12214 38.5409C2.96077 38.4942 2.80986 38.4464 2.671 38.398C2.64041 38.3874 2.60745 38.3767 2.57792 38.366C2.42613 38.311 2.28832 38.2559 2.16413 38.202C2.13601 38.1898 2.11017 38.1778 2.08336 38.1659C1.97648 38.1178 1.87805 38.0708 1.79288 38.0267L1.75553 38.0079C1.66298 37.959 1.58546 37.9143 1.51928 37.8742L1.50003 37.8622V35.0486C1.53053 35.0621 1.56735 35.0758 1.59899 35.0894C1.68565 35.1266 1.77363 35.1637 1.86926 35.201C1.92155 35.2214 1.97815 35.2412 2.03317 35.2615C2.1259 35.2956 2.22021 35.3293 2.32084 35.3628C2.38535 35.3841 2.45294 35.4049 2.5207 35.4258C2.62195 35.4572 2.72575 35.4877 2.83456 35.5177C2.90997 35.5386 2.9874 35.5587 3.06642 35.5787C3.17804 35.607 3.29353 35.634 3.41253 35.6604C3.49787 35.6793 3.58356 35.6977 3.67269 35.7155C3.79723 35.7403 3.92704 35.763 4.05914 35.7853C4.15266 35.801 4.24485 35.8169 4.34215 35.8312C4.484 35.8521 4.63307 35.8697 4.78318 35.8872C4.88101 35.8987 4.97584 35.9111 5.07709 35.9209C5.2476 35.9374 5.4276 35.9491 5.60821 35.9606C5.69918 35.9664 5.78549 35.9744 5.879 35.9789C6.15806 35.9922 6.44713 36.0002 6.74982 36.0002C7.05252 36.0002 7.34159 35.9922 7.62073 35.9789C7.71434 35.9744 7.80056 35.9664 7.89152 35.9606C8.07223 35.9491 8.25223 35.9373 8.42265 35.9209C8.52398 35.9111 8.61882 35.8987 8.71655 35.8872C8.86658 35.8697 9.01573 35.8522 9.15759 35.8312C9.25488 35.8169 9.34708 35.801 9.4406 35.7853C9.5727 35.763 9.70251 35.7403 9.82705 35.7155C9.91626 35.6977 10.002 35.6793 10.0872 35.6604C10.2062 35.634 10.3217 35.607 10.4333 35.5787C10.5124 35.5587 10.5898 35.5386 10.6652 35.5177C10.7739 35.4878 10.8778 35.4572 10.979 35.4258C11.0468 35.4048 11.1145 35.3841 11.1789 35.3628C11.2795 35.3294 11.3738 35.2956 11.4666 35.2615C11.5217 35.2413 11.5782 35.2214 11.6305 35.201C11.7262 35.1637 11.8142 35.1267 11.9008 35.0894C11.9325 35.0758 11.9693 35.0622 11.9998 35.0486V37.8615H12.0001Z" fill="black"/>
<path d="M44.7532 10.6937C44.677 10.6245 42.8284 9 38.25 9C33.6716 9 31.823 10.6245 31.7468 10.6937C31.5895 10.8359 31.4998 11.038 31.5 11.25V42.75C31.4998 42.962 31.5895 43.1641 31.7468 43.3063C31.823 43.3755 33.6716 45 38.25 45C42.8284 45 44.677 43.3755 44.7532 43.3063C44.9105 43.1641 45.0002 42.962 45 42.75V11.25C45.0002 11.038 44.9105 10.8359 44.7532 10.6937ZM34.0909 11.1293L34.1174 11.1192C34.2744 11.0632 34.451 11.0081 34.6378 10.9545C34.6868 10.9404 34.7391 10.9269 34.7902 10.9131C34.9482 10.8706 35.1174 10.83 35.2958 10.7915C35.3472 10.7803 35.3959 10.7686 35.4491 10.758C35.6767 10.7124 35.9202 10.6714 36.1798 10.6353C36.2327 10.628 36.2906 10.6226 36.345 10.6159C36.5629 10.5887 36.7927 10.5662 37.0329 10.5482C37.115 10.542 37.197 10.5359 37.2817 10.531C37.5888 10.5129 37.9075 10.5001 38.2501 10.5001C38.5932 10.5001 38.9123 10.5129 39.2197 10.531C39.3049 10.536 39.3875 10.5421 39.47 10.5484C39.71 10.5665 39.9395 10.589 40.1571 10.6161C40.2119 10.623 40.2703 10.6284 40.3236 10.6357C40.583 10.6714 40.8258 10.7129 41.0529 10.7584C41.1079 10.7695 41.1582 10.7815 41.2113 10.7931C41.3881 10.8313 41.5557 10.8715 41.7125 10.9138C41.7641 10.9277 41.8171 10.9415 41.8667 10.9557C42.0525 11.0092 42.2279 11.064 42.3843 11.1197C42.3987 11.1249 42.4104 11.13 42.4246 11.1352C42.5326 11.1744 42.6253 11.2131 42.7192 11.2519C41.2923 11.7896 39.7743 12.0437 38.2501 12.0003C36.726 12.0437 35.208 11.7896 33.7811 11.2524C33.8796 11.2113 33.9768 11.1705 34.0909 11.1293ZM33 12.5474C34.6642 13.2286 36.4526 13.5532 38.25 13.5C40.0474 13.5532 41.8359 13.2287 43.5 12.5474V15.3614L43.4792 15.3744C43.4136 15.4141 43.3369 15.4582 43.2462 15.5062C43.2315 15.5139 43.2135 15.5225 43.1983 15.5304C43.1149 15.5733 43.0196 15.6189 42.9159 15.6656C42.8883 15.6781 42.8618 15.6904 42.8326 15.703C42.7088 15.7566 42.5714 15.8115 42.4203 15.8663C42.3896 15.8774 42.3555 15.8884 42.3236 15.8996C42.1847 15.9479 42.0341 15.9957 41.873 16.0421C41.8377 16.0523 41.8047 16.0628 41.7683 16.0729C41.5807 16.1246 41.3764 16.1736 41.1593 16.2195C41.1099 16.23 41.0577 16.2396 41.0068 16.2497C40.7982 16.2907 40.5779 16.3284 40.3427 16.3612C40.3121 16.3654 40.2842 16.3707 40.2532 16.3747C39.9946 16.4088 39.7156 16.4353 39.4247 16.4563C39.3562 16.4612 39.286 16.4653 39.2156 16.4695C38.9093 16.4873 38.5916 16.5001 38.25 16.5001C37.9084 16.5001 37.5907 16.4873 37.2844 16.4695C37.214 16.4653 37.1439 16.4613 37.0753 16.4563C36.7842 16.4352 36.5048 16.4087 36.2461 16.3746C36.2163 16.3707 36.1896 16.3657 36.1601 16.3616C35.9226 16.3287 35.7001 16.2905 35.4897 16.249C35.441 16.2395 35.391 16.2302 35.3437 16.2202C35.124 16.1738 34.9171 16.1243 34.7275 16.0719C34.6963 16.0633 34.668 16.0543 34.6376 16.0456C34.4671 15.9966 34.3082 15.9463 34.1625 15.8952C34.138 15.8866 34.1116 15.8781 34.0878 15.8695C33.9292 15.8122 33.7852 15.7547 33.6564 15.6988L33.6043 15.6754C33.4796 15.6197 33.3653 15.5653 33.2691 15.5148L33.2669 15.5137C33.1632 15.4593 33.0767 15.4094 33.005 15.3655L32.9999 15.3623V12.5474H33ZM33 17.0486C33.0305 17.0621 33.0674 17.0758 33.099 17.0895C33.1857 17.1266 33.2736 17.1637 33.3693 17.201C33.4216 17.2214 33.4782 17.2412 33.5333 17.2615C33.626 17.2956 33.7203 17.3293 33.8209 17.3628C33.8854 17.3842 33.953 17.4049 34.0208 17.4258C34.122 17.4572 34.2258 17.4877 34.3347 17.5177C34.4101 17.5386 34.4875 17.5587 34.5665 17.5787C34.6781 17.607 34.7936 17.634 34.9126 17.6604C34.998 17.6793 35.0837 17.6977 35.1728 17.7155C35.2973 17.7403 35.4271 17.763 35.5592 17.7853C35.6527 17.801 35.7449 17.8169 35.8422 17.8313C35.9841 17.8521 36.1332 17.8697 36.2832 17.8871C36.381 17.8986 36.4758 17.911 36.5771 17.9208C36.7476 17.9373 36.9276 17.949 37.1082 17.9605C37.1992 17.9663 37.2855 17.9743 37.379 17.9788C37.6581 17.9922 37.9471 18.0001 38.2499 18.0001C38.5526 18.0001 38.8417 17.9921 39.1208 17.9788C39.2144 17.9743 39.3007 17.9663 39.3916 17.9605C39.5723 17.949 39.7523 17.9372 39.9227 17.9208C40.0241 17.911 40.1189 17.8986 40.2166 17.8871C40.3667 17.8697 40.5158 17.8521 40.6576 17.8313C40.7549 17.8169 40.8471 17.801 40.9406 17.7853C41.0727 17.763 41.2025 17.7404 41.3271 17.7155C41.4163 17.6977 41.502 17.6793 41.5872 17.6604C41.7062 17.634 41.8217 17.607 41.9333 17.5787C42.0124 17.5587 42.0898 17.5386 42.1653 17.5177C42.274 17.4878 42.3779 17.4572 42.4791 17.4258C42.5469 17.4048 42.6146 17.3842 42.679 17.3628C42.7796 17.3294 42.8739 17.2956 42.9667 17.2615C43.0218 17.2413 43.0783 17.2214 43.1306 17.201C43.2263 17.1637 43.3143 17.1267 43.4009 17.0895C43.4326 17.0757 43.4694 17.0621 43.4999 17.0486V19.8614L43.4791 19.8744C43.4135 19.9141 43.3368 19.9582 43.2461 20.0062C43.2314 20.0139 43.2135 20.0225 43.1982 20.0304C43.1148 20.0733 43.0195 20.1189 42.9159 20.1656C42.8882 20.1781 42.8617 20.1904 42.8325 20.203C42.7087 20.2566 42.5713 20.3115 42.4202 20.3663C42.3895 20.3774 42.3554 20.3884 42.3235 20.3996C42.1846 20.4479 42.034 20.4957 41.8729 20.5421C41.8376 20.5523 41.8047 20.5628 41.7682 20.5729C41.5806 20.6246 41.3763 20.6736 41.1592 20.7195C41.1098 20.73 41.0576 20.7396 41.0067 20.7497C40.7981 20.7907 40.5778 20.8284 40.3426 20.8612C40.312 20.8654 40.2841 20.8707 40.2531 20.8747C39.9945 20.9088 39.7155 20.9353 39.4246 20.9563C39.3561 20.9612 39.2859 20.9653 39.2155 20.9695C38.9092 20.9873 38.5915 21.0001 38.2499 21.0001C37.9079 21.0001 37.59 20.9873 37.2835 20.9694C37.2126 20.9653 37.1418 20.9611 37.0729 20.9562C36.7822 20.9351 36.5035 20.9087 36.2452 20.8745C36.2123 20.8702 36.1825 20.8647 36.1499 20.8601C35.9161 20.8274 35.6965 20.7898 35.489 20.749C35.4386 20.739 35.3869 20.7295 35.338 20.7192C35.1207 20.6732 34.9162 20.6241 34.7285 20.5723C34.6915 20.562 34.6578 20.5515 34.6219 20.541C34.4605 20.4943 34.3096 20.4465 34.1707 20.3981C34.1401 20.3875 34.1072 20.3768 34.0777 20.3661C33.9259 20.3111 33.7881 20.256 33.6639 20.2021C33.6357 20.1899 33.6099 20.178 33.5831 20.166C33.4762 20.1179 33.3778 20.0709 33.2926 20.0268L33.2553 20.0079C33.1627 19.9591 33.0852 19.9144 33.019 19.8743L32.9998 19.8623V17.0486H33ZM33 21.5486C33.0305 21.5621 33.0674 21.5758 33.099 21.5895C33.1857 21.6266 33.2736 21.6637 33.3693 21.701C33.4216 21.7214 33.4782 21.7412 33.5333 21.7615C33.626 21.7956 33.7203 21.8293 33.8209 21.8628C33.8854 21.8842 33.953 21.9049 34.0208 21.9258C34.122 21.9572 34.2258 21.9877 34.3347 22.0177C34.4101 22.0386 34.4875 22.0587 34.5665 22.0787C34.6781 22.107 34.7936 22.134 34.9126 22.1604C34.998 22.1793 35.0837 22.1977 35.1728 22.2155C35.2973 22.2403 35.4271 22.263 35.5592 22.2853C35.6527 22.301 35.7449 22.3169 35.8422 22.3312C35.9841 22.3521 36.1332 22.3697 36.2832 22.3871C36.381 22.3986 36.4758 22.411 36.5771 22.4208C36.7476 22.4373 36.9276 22.449 37.1082 22.4605C37.1992 22.4663 37.2855 22.4743 37.379 22.4788C37.6581 22.4922 37.9471 22.5001 38.2499 22.5001C38.5526 22.5001 38.8417 22.4921 39.1208 22.4788C39.2144 22.4743 39.3007 22.4663 39.3916 22.4605C39.5723 22.449 39.7523 22.4372 39.9227 22.4208C40.0241 22.411 40.1189 22.3986 40.2166 22.3871C40.3667 22.3697 40.5158 22.3521 40.6576 22.3312C40.7549 22.3169 40.8471 22.301 40.9406 22.2853C41.0727 22.263 41.2025 22.2404 41.3271 22.2155C41.4163 22.1977 41.502 22.1793 41.5872 22.1604C41.7062 22.134 41.8217 22.107 41.9333 22.0787C42.0124 22.0587 42.0898 22.0386 42.1653 22.0177C42.274 21.9878 42.3779 21.9572 42.4791 21.9258C42.5469 21.9048 42.6146 21.8842 42.679 21.8628C42.7796 21.8294 42.8739 21.7956 42.9667 21.7615C43.0218 21.7413 43.0783 21.7214 43.1306 21.701C43.2263 21.6637 43.3143 21.6267 43.4009 21.5895C43.4326 21.5757 43.4694 21.5621 43.4999 21.5486V24.3614L43.4791 24.3744C43.4135 24.4141 43.3368 24.4582 43.2461 24.5062C43.2314 24.5139 43.2135 24.5225 43.1982 24.5304C43.1148 24.5733 43.0195 24.6189 42.9159 24.6656C42.8882 24.6781 42.8617 24.6904 42.8325 24.703C42.7087 24.7566 42.5713 24.8115 42.4202 24.8663C42.3895 24.8774 42.3554 24.8884 42.3235 24.8996C42.1846 24.9479 42.034 24.9957 41.8729 25.0422C41.8376 25.0523 41.8047 25.0628 41.7682 25.0728C41.5806 25.1245 41.3763 25.1735 41.1592 25.2194C41.1098 25.2299 41.0576 25.2396 41.0067 25.2496C40.7981 25.2906 40.5778 25.3283 40.3426 25.3611C40.312 25.3653 40.2841 25.3706 40.2531 25.3746C39.9945 25.4087 39.7155 25.4352 39.4246 25.4562C39.3561 25.4611 39.2859 25.4653 39.2155 25.4693C38.9092 25.4872 38.5915 25.5 38.2499 25.5C37.9079 25.5 37.59 25.4871 37.2835 25.4692C37.2126 25.4651 37.1418 25.4609 37.0729 25.4559C36.7822 25.4348 36.5035 25.4084 36.2452 25.3743C36.2123 25.3699 36.1825 25.3644 36.1499 25.3599C35.9161 25.3272 35.6965 25.2896 35.489 25.2487C35.4386 25.2388 35.3869 25.2293 35.338 25.2189C35.1207 25.1729 34.9162 25.1239 34.7285 25.072C34.6915 25.0617 34.6578 25.0512 34.6219 25.0407C34.4605 24.9941 34.3096 24.9463 34.1707 24.8978C34.1401 24.8872 34.1072 24.8766 34.0777 24.8658C33.9259 24.8108 33.7881 24.7557 33.6639 24.7018C33.6357 24.6896 33.6099 24.6777 33.5831 24.6657C33.4762 24.6176 33.3778 24.5706 33.2926 24.5265L33.2553 24.5077C33.1627 24.4588 33.0852 24.4142 33.019 24.374L32.9998 24.3621V21.5486H33ZM33 26.0486C33.0305 26.0621 33.0674 26.0758 33.099 26.0895C33.1857 26.1266 33.2736 26.1637 33.3693 26.201C33.4216 26.2214 33.4782 26.2412 33.5333 26.2615C33.626 26.2956 33.7203 26.3293 33.8209 26.3628C33.8854 26.3842 33.953 26.4049 34.0208 26.4258C34.122 26.4572 34.2258 26.4877 34.3347 26.5177C34.4101 26.5386 34.4875 26.5587 34.5665 26.5787C34.6781 26.607 34.7936 26.634 34.9126 26.6604C34.998 26.6793 35.0837 26.6977 35.1728 26.7155C35.2973 26.7403 35.4271 26.763 35.5592 26.7853C35.6527 26.801 35.7449 26.8169 35.8422 26.8313C35.9841 26.8522 36.1332 26.8697 36.2832 26.8872C36.381 26.8987 36.4758 26.9111 36.5771 26.9209C36.7476 26.9374 36.9276 26.9491 37.1082 26.9606C37.1992 26.9664 37.2855 26.9744 37.379 26.9789C37.6581 26.9922 37.9471 27.0002 38.2499 27.0002C38.5526 27.0002 38.8417 26.9922 39.1208 26.9789C39.2144 26.9744 39.3007 26.9664 39.3916 26.9606C39.5723 26.9491 39.7523 26.9373 39.9227 26.9209C40.0241 26.9111 40.1189 26.8987 40.2166 26.8872C40.3667 26.8697 40.5158 26.8522 40.6576 26.8313C40.7549 26.8169 40.8471 26.801 40.9406 26.7853C41.0727 26.763 41.2025 26.7404 41.3271 26.7155C41.4163 26.6977 41.502 26.6793 41.5872 26.6604C41.7062 26.634 41.8217 26.607 41.9333 26.5787C42.0124 26.5587 42.0898 26.5386 42.1653 26.5177C42.274 26.4878 42.3779 26.4572 42.4791 26.4258C42.5469 26.4048 42.6146 26.3842 42.679 26.3628C42.7796 26.3294 42.8739 26.2956 42.9667 26.2615C43.0218 26.2413 43.0783 26.2214 43.1306 26.201C43.2263 26.1637 43.3143 26.1267 43.4009 26.0895C43.4326 26.0758 43.4694 26.0621 43.4999 26.0486V28.8614L43.4791 28.8744C43.4135 28.9141 43.3368 28.9582 43.2461 29.0062C43.2314 29.0139 43.2135 29.0225 43.1982 29.0304C43.1148 29.0733 43.0195 29.1189 42.9159 29.1656C42.8882 29.1781 42.8617 29.1904 42.8325 29.203C42.7087 29.2566 42.5713 29.3115 42.4202 29.3663C42.3895 29.3774 42.3554 29.3884 42.3235 29.3996C42.1846 29.448 42.034 29.4957 41.8729 29.5421C41.8376 29.5523 41.8047 29.5628 41.7682 29.5728C41.5806 29.6245 41.3763 29.6735 41.1592 29.7194C41.1098 29.7299 41.0576 29.7396 41.0067 29.7496C40.7981 29.7906 40.5778 29.8283 40.3426 29.8611C40.312 29.8653 40.2841 29.8706 40.2531 29.8746C39.9945 29.9087 39.7155 29.9352 39.4246 29.9562C39.3561 29.9611 39.2859 29.9653 39.2155 29.9693C38.9092 29.9872 38.5915 30 38.2499 30C37.9079 30 37.59 29.9871 37.2835 29.9692C37.2126 29.9651 37.1418 29.9609 37.0729 29.956C36.7822 29.9349 36.5035 29.9085 36.2452 29.8744C36.2123 29.87 36.1825 29.8645 36.1499 29.86C35.9161 29.8273 35.6965 29.7896 35.489 29.7488C35.4386 29.7388 35.3869 29.7294 35.338 29.719C35.1207 29.673 34.9162 29.624 34.7285 29.5721C34.6915 29.5618 34.6578 29.5513 34.6219 29.5408C34.4605 29.4942 34.3096 29.4464 34.1707 29.3979C34.1401 29.3873 34.1072 29.3766 34.0777 29.3659C33.9259 29.3109 33.7881 29.2558 33.6639 29.2019C33.6357 29.1897 33.6099 29.1778 33.5831 29.1658C33.4762 29.1177 33.3778 29.0707 33.2926 29.0266L33.2553 29.0078C33.1627 28.9589 33.0852 28.9143 33.019 28.8741L32.9998 28.8621V26.0486H33ZM33 30.5486C33.0305 30.5621 33.0674 30.5758 33.099 30.5895C33.1857 30.6266 33.2736 30.6637 33.3693 30.701C33.4216 30.7214 33.4782 30.7412 33.5333 30.7615C33.626 30.7956 33.7203 30.8293 33.8209 30.8628C33.8854 30.8841 33.953 30.9049 34.0208 30.9258C34.122 30.9572 34.2258 30.9877 34.3347 31.0177C34.4101 31.0386 34.4875 31.0587 34.5665 31.0787C34.6781 31.107 34.7936 31.134 34.9126 31.1604C34.998 31.1793 35.0837 31.1977 35.1728 31.2155C35.2973 31.2403 35.4271 31.263 35.5592 31.2853C35.6527 31.301 35.7449 31.3169 35.8422 31.3313C35.9841 31.3522 36.1332 31.3697 36.2832 31.3872C36.381 31.3987 36.4758 31.4111 36.5771 31.4209C36.7476 31.4374 36.9276 31.4491 37.1082 31.4606C37.1992 31.4664 37.2855 31.4744 37.379 31.4789C37.6581 31.4922 37.9471 31.5002 38.2499 31.5002C38.5526 31.5002 38.8417 31.4922 39.1208 31.4789C39.2144 31.4744 39.3007 31.4664 39.3916 31.4606C39.5723 31.4491 39.7523 31.4373 39.9227 31.4209C40.0241 31.4111 40.1189 31.3987 40.2166 31.3872C40.3667 31.3697 40.5158 31.3522 40.6576 31.3313C40.7549 31.3169 40.8471 31.301 40.9406 31.2853C41.0727 31.263 41.2025 31.2404 41.3271 31.2155C41.4163 31.1977 41.502 31.1793 41.5872 31.1604C41.7062 31.134 41.8217 31.107 41.9333 31.0787C42.0124 31.0587 42.0898 31.0386 42.1653 31.0177C42.274 30.9878 42.3779 30.9572 42.4791 30.9258C42.5469 30.9048 42.6146 30.8841 42.679 30.8628C42.7796 30.8294 42.8739 30.7956 42.9667 30.7615C43.0218 30.7413 43.0783 30.7214 43.1306 30.701C43.2263 30.6637 43.3143 30.6267 43.4009 30.5895C43.4326 30.5758 43.4694 30.5621 43.4999 30.5486V33.3614L43.4791 33.3744C43.4135 33.4141 43.3368 33.4582 43.2461 33.5062C43.2314 33.5139 43.2135 33.5225 43.1982 33.5304C43.1148 33.5733 43.0195 33.6189 42.9159 33.6656C42.8882 33.6781 42.8617 33.6904 42.8325 33.703C42.7087 33.7566 42.5713 33.8115 42.4202 33.8663C42.3895 33.8774 42.3554 33.8884 42.3235 33.8996C42.1846 33.9479 42.034 33.9957 41.8729 34.0421C41.8376 34.0523 41.8047 34.0628 41.7682 34.0728C41.5806 34.1245 41.3763 34.1735 41.1592 34.2194C41.1098 34.2299 41.0576 34.2395 41.0067 34.2496C40.7981 34.2906 40.5778 34.3283 40.3426 34.3611C40.312 34.3653 40.2841 34.3706 40.2531 34.3746C39.9945 34.4087 39.7155 34.4352 39.4246 34.4562C39.3561 34.4611 39.2859 34.4653 39.2155 34.4693C38.9092 34.4872 38.5915 34.5 38.2499 34.5C37.9079 34.5 37.59 34.4871 37.2835 34.4692C37.2126 34.4651 37.1418 34.4609 37.0729 34.456C36.7822 34.4349 36.5035 34.4085 36.2452 34.3744C36.2123 34.37 36.1825 34.3645 36.1499 34.36C35.9161 34.3273 35.6965 34.2896 35.489 34.2488C35.4386 34.2388 35.3869 34.2294 35.338 34.219C35.1207 34.173 34.9162 34.124 34.7285 34.0721C34.6915 34.0618 34.6578 34.0513 34.6219 34.0408C34.4605 33.9942 34.3096 33.9464 34.1707 33.8979C34.1401 33.8873 34.1072 33.8767 34.0777 33.8659C33.9259 33.8109 33.7881 33.7558 33.6639 33.7019C33.6357 33.6897 33.6099 33.6778 33.5831 33.6658C33.4762 33.6177 33.3778 33.5707 33.2926 33.5266L33.2553 33.5078C33.1627 33.4589 33.0852 33.4143 33.019 33.3741L32.9998 33.3621V30.5486H33ZM33 35.0486C33.0305 35.0621 33.0674 35.0758 33.099 35.0895C33.1857 35.1266 33.2736 35.1637 33.3693 35.201C33.4216 35.2214 33.4782 35.2412 33.5333 35.2615C33.626 35.2956 33.7203 35.3293 33.8209 35.3628C33.8854 35.3842 33.953 35.4049 34.0208 35.4258C34.122 35.4572 34.2258 35.4877 34.3347 35.5177C34.4101 35.5386 34.4875 35.5587 34.5665 35.5787C34.6781 35.607 34.7936 35.634 34.9126 35.6604C34.998 35.6793 35.0837 35.6977 35.1728 35.7155C35.2973 35.7403 35.4271 35.763 35.5592 35.7853C35.6527 35.801 35.7449 35.8169 35.8422 35.8312C35.9841 35.8521 36.1332 35.8697 36.2832 35.8872C36.381 35.8987 36.4758 35.9111 36.5771 35.9209C36.7476 35.9374 36.9276 35.9491 37.1082 35.9606C37.1992 35.9664 37.2855 35.9744 37.379 35.9789C37.6581 35.9922 37.9471 36.0002 38.2499 36.0002C38.5526 36.0002 38.8417 35.9922 39.1208 35.9789C39.2144 35.9744 39.3007 35.9664 39.3916 35.9606C39.5723 35.9491 39.7523 35.9373 39.9227 35.9209C40.0241 35.9111 40.1189 35.8987 40.2166 35.8872C40.3667 35.8697 40.5158 35.8522 40.6576 35.8312C40.7549 35.8169 40.8471 35.801 40.9406 35.7853C41.0727 35.763 41.2025 35.7403 41.3271 35.7155C41.4163 35.6977 41.502 35.6793 41.5872 35.6604C41.7062 35.634 41.8217 35.607 41.9333 35.5787C42.0124 35.5587 42.0898 35.5386 42.1653 35.5177C42.274 35.4878 42.3779 35.4572 42.4791 35.4258C42.5469 35.4048 42.6146 35.3842 42.679 35.3628C42.7796 35.3294 42.8739 35.2956 42.9667 35.2615C43.0218 35.2413 43.0783 35.2214 43.1306 35.201C43.2263 35.1637 43.3143 35.1267 43.4009 35.0895C43.4326 35.0758 43.4694 35.0621 43.4999 35.0486V37.8614L43.4791 37.8744C43.4135 37.9141 43.3368 37.9582 43.2461 38.0062C43.2314 38.0139 43.2135 38.0225 43.1982 38.0304C43.1148 38.0733 43.0195 38.1189 42.9159 38.1656C42.8882 38.1781 42.8617 38.1904 42.8325 38.203C42.7087 38.2566 42.5713 38.3115 42.4202 38.3663C42.3895 38.3774 42.3554 38.3884 42.3235 38.3996C42.1846 38.4479 42.034 38.4957 41.8729 38.5421C41.8376 38.5523 41.8047 38.5628 41.7682 38.5728C41.5806 38.6245 41.3763 38.6735 41.1592 38.7194C41.1098 38.7299 41.0576 38.7396 41.0067 38.7496C40.7981 38.7906 40.5778 38.8283 40.3426 38.8611C40.312 38.8653 40.2841 38.8706 40.2531 38.8746C39.9945 38.9087 39.7155 38.9352 39.4246 38.9562C39.3561 38.9611 39.2859 38.9653 39.2155 38.9694C38.9092 38.9873 38.5915 39.0001 38.2499 39.0001C37.9079 39.0001 37.59 38.9872 37.2835 38.9693C37.2126 38.9652 37.1418 38.961 37.0729 38.9561C36.7822 38.935 36.5035 38.9086 36.2452 38.8745C36.2123 38.8701 36.1825 38.8646 36.1499 38.86C35.9161 38.8274 35.6965 38.7897 35.489 38.7489C35.4386 38.7389 35.3869 38.7294 35.338 38.7191C35.1207 38.6731 34.9162 38.6241 34.7285 38.5722C34.6915 38.5619 34.6578 38.5514 34.6219 38.5409C34.4605 38.4942 34.3096 38.4464 34.1707 38.398C34.1401 38.3874 34.1072 38.3767 34.0777 38.366C33.9259 38.311 33.7881 38.2559 33.6639 38.202C33.6357 38.1898 33.6099 38.1778 33.5831 38.1659C33.4762 38.1178 33.3778 38.0708 33.2926 38.0267L33.2553 38.0079C33.1627 37.959 33.0852 37.9143 33.019 37.8742L32.9998 37.8622V35.0486H33ZM43.5 42.3626C42.9184 42.7196 41.2983 43.5001 38.25 43.5001C35.1958 43.5001 33.5757 42.7168 33 42.3634V39.5487C33.0305 39.5622 33.0674 39.5759 33.099 39.5895C33.1857 39.6267 33.2736 39.6638 33.3693 39.7011C33.4216 39.7215 33.4782 39.7413 33.5333 39.7616C33.626 39.7957 33.7203 39.8294 33.8209 39.8629C33.8854 39.8842 33.953 39.905 34.0208 39.9259C34.122 39.9573 34.2258 39.9878 34.3347 40.0178C34.4101 40.0387 34.4875 40.0588 34.5665 40.0788C34.6781 40.1071 34.7936 40.1341 34.9126 40.1605C34.998 40.1794 35.0837 40.1978 35.1728 40.2156C35.2973 40.2404 35.4271 40.2631 35.5592 40.2854C35.6527 40.3011 35.7449 40.317 35.8422 40.3313C35.9841 40.3522 36.1332 40.3698 36.2832 40.3873C36.381 40.3988 36.4758 40.4111 36.5771 40.421C36.7476 40.4375 36.9276 40.4492 37.1082 40.4607C37.1992 40.4665 37.2855 40.4745 37.379 40.479C37.6581 40.4923 37.9471 40.5003 38.2499 40.5003C38.5526 40.5003 38.8417 40.4923 39.1208 40.479C39.2144 40.4745 39.3007 40.4665 39.3916 40.4607C39.5723 40.4492 39.7523 40.4374 39.9227 40.421C40.0241 40.4111 40.1189 40.3988 40.2166 40.3873C40.3667 40.3698 40.5158 40.3523 40.6576 40.3313C40.7549 40.317 40.8471 40.3011 40.9406 40.2854C41.0727 40.2631 41.2025 40.2405 41.3271 40.2156C41.4163 40.1978 41.502 40.1794 41.5872 40.1605C41.7062 40.1341 41.8217 40.1071 41.9333 40.0788C42.0124 40.0588 42.0898 40.0387 42.1653 40.0178C42.274 39.9879 42.3779 39.9573 42.4791 39.9259C42.5469 39.9049 42.6146 39.8842 42.679 39.8629C42.7796 39.8295 42.8739 39.7957 42.9667 39.7616C43.0218 39.7414 43.0783 39.7215 43.1306 39.7011C43.2263 39.6638 43.3143 39.6268 43.4009 39.5895C43.4326 39.5759 43.4694 39.5623 43.4999 39.5487L43.5 42.3626Z" fill="black"/>
<path d="M22.5 18C17.9216 18 16.073 19.6245 15.9968 19.6937C15.8395 19.8359 15.7498 20.038 15.75 20.25V42.75C15.7498 42.962 15.8395 43.1641 15.9968 43.3063C16.073 43.3755 17.9216 45 22.5 45C27.0784 45 28.927 43.3755 29.0032 43.3063C29.1605 43.1641 29.2502 42.962 29.25 42.75V20.25C29.2502 20.038 29.1605 19.8359 29.0032 19.6937C28.927 19.6245 27.0784 18 22.5 18ZM18.3409 20.1293L18.3674 20.1192C18.5244 20.0632 18.701 20.0081 18.8878 19.9545C18.9368 19.9404 18.9891 19.9269 19.0402 19.9131C19.1982 19.8706 19.3674 19.83 19.5458 19.7915C19.5972 19.7803 19.6459 19.7686 19.6991 19.758C19.9267 19.7124 20.1702 19.6714 20.4298 19.6353C20.4827 19.628 20.5406 19.6226 20.595 19.6159C20.8129 19.5887 21.0427 19.5662 21.2829 19.5482C21.365 19.542 21.447 19.5359 21.5317 19.531C21.8388 19.5129 22.1575 19.5001 22.5001 19.5001C22.8432 19.5001 23.1623 19.5129 23.4697 19.531C23.5549 19.536 23.6375 19.5421 23.72 19.5484C23.96 19.5665 24.1895 19.589 24.4071 19.6161C24.4619 19.623 24.5203 19.6284 24.5736 19.6357C24.833 19.6714 25.0758 19.7129 25.3029 19.7584C25.3579 19.7695 25.4082 19.7815 25.4613 19.7931C25.638 19.8313 25.8057 19.8715 25.9624 19.9138C26.0141 19.9277 26.0671 19.9415 26.1167 19.9557C26.3025 20.0092 26.4779 20.064 26.6343 20.1197C26.6487 20.1249 26.6604 20.13 26.6746 20.1352C26.7826 20.1744 26.8753 20.2131 26.9691 20.2519C25.5423 20.7896 24.0243 21.0437 22.5001 21.0003C20.976 21.0437 19.458 20.7896 18.0311 20.2524C18.1296 20.2113 18.2268 20.1705 18.3409 20.1293ZM17.25 21.5474C18.9141 22.2287 20.7026 22.5532 22.5 22.5C24.2974 22.5532 26.0859 22.2287 27.75 21.5474V24.3614L27.7291 24.3744C27.6636 24.4141 27.5868 24.4582 27.4961 24.5062C27.4815 24.5139 27.4635 24.5225 27.4482 24.5304C27.3649 24.5733 27.2696 24.6189 27.1659 24.6656C27.1383 24.6781 27.1118 24.6904 27.0826 24.703C26.9588 24.7566 26.8214 24.8115 26.6703 24.8663C26.6396 24.8774 26.6055 24.8884 26.5736 24.8996C26.4347 24.9479 26.2841 24.9957 26.123 25.0421C26.0877 25.0523 26.0547 25.0628 26.0183 25.0728C25.8307 25.1245 25.6264 25.1735 25.4093 25.2194C25.3599 25.2299 25.3077 25.2396 25.2568 25.2496C25.0482 25.2906 24.8279 25.3283 24.5927 25.3611C24.5621 25.3653 24.5342 25.3706 24.5032 25.3746C24.2446 25.4087 23.9656 25.4352 23.6747 25.4562C23.6062 25.4611 23.536 25.4653 23.4656 25.4693C23.1593 25.4872 22.8416 25.5 22.5 25.5C22.1584 25.5 21.8407 25.4871 21.5344 25.4692C21.464 25.4651 21.3939 25.461 21.3253 25.456C21.0342 25.4349 20.7548 25.4085 20.4961 25.3744C20.4663 25.3704 20.4396 25.3654 20.4101 25.3614C20.1726 25.3284 19.9501 25.2903 19.7397 25.2488C19.691 25.2392 19.641 25.2299 19.5937 25.22C19.374 25.1735 19.1671 25.1241 18.9775 25.0717C18.9463 25.0631 18.918 25.054 18.8876 25.0453C18.7171 24.9964 18.5582 24.946 18.4125 24.8949C18.3879 24.8863 18.3616 24.8779 18.3378 24.8693C18.1792 24.812 18.0352 24.7545 17.9064 24.6985L17.8543 24.6751C17.7296 24.6195 17.6153 24.565 17.5191 24.5145L17.5169 24.5134C17.4132 24.4591 17.3267 24.4092 17.255 24.3652L17.2499 24.3621V21.5474H17.25ZM27.75 42.3626C27.1684 42.7196 25.5483 43.5001 22.5 43.5001C19.4458 43.5001 17.8257 42.7168 17.25 42.3634V39.5487C17.2805 39.5622 17.3174 39.5759 17.349 39.5895C17.4357 39.6267 17.5236 39.6638 17.6193 39.7011C17.6716 39.7215 17.7282 39.7413 17.7833 39.7616C17.876 39.7957 17.9703 39.8294 18.0709 39.8629C18.1354 39.8842 18.203 39.905 18.2708 39.9259C18.372 39.9573 18.4758 39.9878 18.5846 40.0178C18.6601 40.0387 18.7375 40.0588 18.8166 40.0788C18.9282 40.1071 19.0437 40.1341 19.1627 40.1605C19.248 40.1794 19.3337 40.1978 19.4229 40.2156C19.5474 40.2404 19.6772 40.2631 19.8093 40.2854C19.9028 40.3011 19.995 40.317 20.0923 40.3313C20.2342 40.3522 20.3832 40.3698 20.5333 40.3873C20.6311 40.3988 20.7259 40.4111 20.8272 40.421C20.9977 40.4375 21.1777 40.4492 21.3583 40.4607C21.4493 40.4665 21.5356 40.4745 21.6291 40.479C21.9081 40.4923 22.1972 40.5003 22.4999 40.5003C22.8026 40.5003 23.0917 40.4923 23.3708 40.479C23.4644 40.4745 23.5506 40.4665 23.6416 40.4607C23.8223 40.4492 24.0023 40.4374 24.1727 40.421C24.2741 40.4111 24.3689 40.3988 24.4666 40.3873C24.6167 40.3698 24.7658 40.3523 24.9076 40.3313C25.0049 40.317 25.0971 40.3011 25.1906 40.2854C25.3227 40.2631 25.4525 40.2405 25.577 40.2156C25.6663 40.1978 25.752 40.1794 25.8372 40.1605C25.9562 40.1341 26.0717 40.1071 26.1833 40.0788C26.2624 40.0588 26.3398 40.0387 26.4152 40.0178C26.5239 39.9879 26.6278 39.9573 26.729 39.9259C26.7968 39.9049 26.8645 39.8842 26.9289 39.8629C27.0295 39.8295 27.1238 39.7957 27.2166 39.7616C27.2717 39.7414 27.3282 39.7215 27.3805 39.7011C27.4762 39.6638 27.5642 39.6268 27.6508 39.5895C27.6825 39.5759 27.7193 39.5623 27.7498 39.5487L27.75 42.3626ZM27.7501 37.8615L27.7292 37.8744C27.6637 37.9142 27.5869 37.9583 27.4962 38.0063C27.4816 38.014 27.4636 38.0225 27.4483 38.0304C27.365 38.0734 27.2696 38.119 27.166 38.1657C27.1383 38.1782 27.1119 38.1905 27.0827 38.2031C26.9589 38.2567 26.8215 38.3116 26.6704 38.3664C26.6396 38.3775 26.6055 38.3885 26.5736 38.3997C26.4348 38.448 26.2842 38.4957 26.1231 38.5422C26.0878 38.5524 26.0548 38.5629 26.0183 38.5729C25.8308 38.6246 25.6264 38.6736 25.4094 38.7195C25.36 38.73 25.3078 38.7396 25.2569 38.7497C25.0483 38.7907 24.828 38.8284 24.5928 38.8612C24.5622 38.8654 24.5343 38.8707 24.5033 38.8747C24.2447 38.9088 23.9657 38.9353 23.6747 38.9563C23.6063 38.9612 23.5361 38.9653 23.4657 38.9695C23.1594 38.9874 22.8417 39.0001 22.5001 39.0001C22.1581 39.0001 21.8402 38.9873 21.5336 38.9694C21.4628 38.9653 21.392 38.9611 21.3231 38.9562C21.0324 38.9351 20.7537 38.9087 20.4954 38.8745C20.4624 38.8702 20.4326 38.8647 20.4001 38.8601C20.1662 38.8274 19.9467 38.7898 19.7392 38.749C19.6888 38.739 19.637 38.7295 19.5882 38.7192C19.3708 38.6732 19.1664 38.6242 18.9787 38.5723C18.9417 38.562 18.908 38.5515 18.8721 38.541C18.7108 38.4943 18.5599 38.4465 18.421 38.3981C18.3904 38.3875 18.3575 38.3768 18.3279 38.3661C18.1761 38.3111 18.0383 38.256 17.9141 38.2021C17.886 38.1899 17.8602 38.1779 17.8334 38.166C17.7265 38.1179 17.628 38.0709 17.5429 38.0268L17.5055 38.0079C17.413 37.9591 17.3355 37.9144 17.2693 37.8743L17.25 37.8623V35.0487C17.2805 35.0622 17.3174 35.0759 17.349 35.0895C17.4357 35.1267 17.5236 35.1638 17.6193 35.2011C17.6716 35.2215 17.7282 35.2413 17.7833 35.2616C17.876 35.2957 17.9703 35.3294 18.0709 35.3629C18.1354 35.3842 18.203 35.405 18.2708 35.4259C18.372 35.4573 18.4758 35.4878 18.5846 35.5178C18.6601 35.5387 18.7375 35.5588 18.8166 35.5788C18.9282 35.6071 19.0437 35.6341 19.1627 35.6605C19.248 35.6794 19.3337 35.6978 19.4229 35.7156C19.5474 35.7404 19.6772 35.7631 19.8093 35.7854C19.9028 35.8011 19.995 35.817 20.0923 35.8313C20.2342 35.8522 20.3832 35.8698 20.5333 35.8873C20.6311 35.8987 20.7259 35.9111 20.8272 35.921C20.9977 35.9375 21.1777 35.9492 21.3583 35.9607C21.4493 35.9665 21.5356 35.9745 21.6291 35.979C21.9081 35.9923 22.1972 36.0003 22.4999 36.0003C22.8026 36.0003 23.0917 35.9923 23.3708 35.979C23.4644 35.9745 23.5506 35.9665 23.6416 35.9607C23.8223 35.9492 24.0023 35.9374 24.1727 35.921C24.2741 35.9111 24.3689 35.8987 24.4666 35.8873C24.6167 35.8698 24.7658 35.8523 24.9076 35.8313C25.0049 35.817 25.0971 35.8011 25.1906 35.7854C25.3227 35.7631 25.4525 35.7404 25.577 35.7156C25.6663 35.6978 25.752 35.6794 25.8372 35.6605C25.9562 35.6341 26.0717 35.6071 26.1833 35.5788C26.2624 35.5588 26.3398 35.5387 26.4152 35.5178C26.5239 35.4879 26.6278 35.4573 26.729 35.4259C26.7968 35.4049 26.8645 35.3842 26.9289 35.3629C27.0295 35.3295 27.1238 35.2957 27.2166 35.2616C27.2717 35.2414 27.3282 35.2215 27.3805 35.2011C27.4762 35.1638 27.5642 35.1268 27.6508 35.0895C27.6825 35.0759 27.7193 35.0623 27.7498 35.0487V37.8615H27.7501ZM27.7501 33.3615L27.7292 33.3744C27.6637 33.4142 27.5869 33.4583 27.4962 33.5063C27.4816 33.514 27.4636 33.5225 27.4483 33.5304C27.365 33.5734 27.2696 33.619 27.166 33.6657C27.1383 33.6782 27.1119 33.6905 27.0827 33.7031C26.9589 33.7567 26.8215 33.8116 26.6704 33.8664C26.6396 33.8775 26.6055 33.8885 26.5736 33.8997C26.4348 33.948 26.2842 33.9957 26.1231 34.0422C26.0878 34.0524 26.0548 34.0629 26.0183 34.0729C25.8308 34.1246 25.6264 34.1736 25.4094 34.2195C25.36 34.23 25.3078 34.2396 25.2569 34.2497C25.0483 34.2907 24.828 34.3284 24.5928 34.3612C24.5622 34.3654 24.5343 34.3707 24.5033 34.3747C24.2447 34.4088 23.9657 34.4353 23.6747 34.4563C23.6063 34.4612 23.5361 34.4653 23.4657 34.4694C23.1594 34.4872 22.8417 34.5001 22.5001 34.5001C22.1581 34.5001 21.8402 34.4872 21.5336 34.4693C21.4628 34.4652 21.392 34.461 21.3231 34.4561C21.0324 34.435 20.7537 34.4086 20.4954 34.3745C20.4624 34.3701 20.4326 34.3646 20.4001 34.3601C20.1662 34.3274 19.9467 34.2897 19.7392 34.2489C19.6888 34.2389 19.637 34.2294 19.5882 34.2191C19.3708 34.1731 19.1664 34.1241 18.9787 34.0722C18.9417 34.0619 18.908 34.0514 18.8721 34.0409C18.7108 33.9942 18.5599 33.9465 18.421 33.898C18.3904 33.8874 18.3575 33.8767 18.3279 33.866C18.1761 33.811 18.0383 33.7559 17.9141 33.702C17.886 33.6898 17.8602 33.6778 17.8334 33.6659C17.7265 33.6178 17.628 33.5708 17.5429 33.5267L17.5055 33.5079C17.413 33.459 17.3355 33.4143 17.2693 33.3742L17.25 33.3622V30.5486C17.2805 30.5621 17.3174 30.5758 17.349 30.5895C17.4357 30.6266 17.5236 30.6637 17.6193 30.701C17.6716 30.7214 17.7282 30.7412 17.7832 30.7615C17.8759 30.7956 17.9702 30.8293 18.0708 30.8628C18.1354 30.8841 18.2029 30.9049 18.2707 30.9258C18.372 30.9572 18.4758 30.9877 18.5846 31.0177C18.66 31.0386 18.7374 31.0587 18.8164 31.0787C18.928 31.107 19.0435 31.134 19.1625 31.1604C19.2479 31.1793 19.3336 31.1977 19.4227 31.2155C19.5472 31.2403 19.677 31.263 19.8091 31.2853C19.9027 31.301 19.9949 31.3169 20.0921 31.3313C20.234 31.3522 20.3831 31.3697 20.5331 31.3872C20.6309 31.3987 20.7258 31.4111 20.827 31.4209C20.9975 31.4374 21.1775 31.4491 21.3581 31.4606C21.4491 31.4664 21.5354 31.4744 21.6289 31.4789C21.9081 31.4922 22.1971 31.5002 22.4998 31.5002C22.8025 31.5002 23.0916 31.4922 23.3707 31.4789C23.4643 31.4744 23.5506 31.4664 23.6415 31.4606C23.8222 31.4491 24.0022 31.4373 24.1726 31.4209C24.274 31.4111 24.3688 31.3987 24.4666 31.3872C24.6166 31.3697 24.7657 31.3522 24.9075 31.3313C25.0048 31.3169 25.097 31.301 25.1905 31.2853C25.3226 31.263 25.4524 31.2404 25.577 31.2155C25.6662 31.1977 25.7519 31.1793 25.8371 31.1604C25.9561 31.134 26.0716 31.107 26.1832 31.0787C26.2623 31.0587 26.3397 31.0386 26.4151 31.0177C26.5238 30.9878 26.6277 30.9572 26.7289 30.9258C26.7967 30.9048 26.8644 30.8841 26.9288 30.8628C27.0294 30.8294 27.1237 30.7956 27.2165 30.7615C27.2716 30.7413 27.3281 30.7214 27.3804 30.701C27.4761 30.6637 27.5641 30.6267 27.6507 30.5895C27.6824 30.5758 27.7192 30.5622 27.7497 30.5486V33.3615H27.7501ZM27.7501 28.8615L27.7292 28.8744C27.6637 28.9142 27.5869 28.9583 27.4962 29.0063C27.4816 29.014 27.4636 29.0225 27.4483 29.0304C27.365 29.0734 27.2696 29.119 27.166 29.1657C27.1383 29.1782 27.1119 29.1905 27.0827 29.2031C26.9589 29.2567 26.8215 29.3116 26.6704 29.3664C26.6396 29.3775 26.6055 29.3885 26.5736 29.3997C26.4348 29.448 26.2842 29.4957 26.1231 29.5422C26.0878 29.5524 26.0548 29.5629 26.0183 29.5729C25.8308 29.6246 25.6264 29.6736 25.4094 29.7195C25.36 29.73 25.3078 29.7396 25.2569 29.7497C25.0483 29.7907 24.828 29.8284 24.5928 29.8612C24.5622 29.8654 24.5343 29.8707 24.5033 29.8747C24.2447 29.9088 23.9657 29.9353 23.6747 29.9563C23.6063 29.9612 23.5361 29.9653 23.4657 29.9694C23.1594 29.9872 22.8417 30.0001 22.5001 30.0001C22.1581 30.0001 21.8402 29.9872 21.5336 29.9693C21.4628 29.9652 21.392 29.961 21.3231 29.9561C21.0324 29.935 20.7537 29.9086 20.4954 29.8745C20.4624 29.8701 20.4326 29.8646 20.4001 29.86C20.1662 29.8274 19.9467 29.7897 19.7392 29.7489C19.6888 29.7389 19.637 29.7294 19.5882 29.7191C19.3708 29.6731 19.1664 29.6241 18.9787 29.5722C18.9417 29.5619 18.908 29.5514 18.8721 29.5409C18.7108 29.4942 18.5599 29.4465 18.421 29.398C18.3904 29.3874 18.3575 29.3767 18.3279 29.366C18.1761 29.311 18.0383 29.2559 17.9141 29.202C17.886 29.1898 17.8602 29.1778 17.8334 29.1659C17.7265 29.1178 17.628 29.0708 17.5429 29.0267L17.5055 29.0079C17.413 28.959 17.3355 28.9143 17.2693 28.8742L17.25 28.8622V26.0486C17.2805 26.0621 17.3174 26.0758 17.349 26.0895C17.4357 26.1266 17.5236 26.1637 17.6193 26.201C17.6716 26.2214 17.7282 26.2412 17.7832 26.2615C17.8759 26.2956 17.9702 26.3293 18.0708 26.3628C18.1354 26.3842 18.2029 26.4049 18.2707 26.4258C18.372 26.4572 18.4758 26.4877 18.5846 26.5177C18.66 26.5386 18.7374 26.5587 18.8164 26.5787C18.928 26.607 19.0435 26.634 19.1625 26.6604C19.2479 26.6793 19.3336 26.6977 19.4227 26.7155C19.5472 26.7403 19.677 26.763 19.8091 26.7853C19.9027 26.801 19.9949 26.8169 20.0921 26.8312C20.234 26.8522 20.3831 26.8697 20.5331 26.8872C20.6309 26.8987 20.7258 26.9111 20.827 26.9209C20.9975 26.9374 21.1775 26.9491 21.3581 26.9606C21.4491 26.9664 21.5354 26.9744 21.6289 26.9789C21.9081 26.9922 22.1971 27.0002 22.4998 27.0002C22.8025 27.0002 23.0916 26.9922 23.3707 26.9789C23.4643 26.9744 23.5506 26.9664 23.6415 26.9606C23.8222 26.9491 24.0022 26.9373 24.1726 26.9209C24.274 26.9111 24.3688 26.8987 24.4666 26.8872C24.6166 26.8697 24.7657 26.8522 24.9075 26.8312C25.0048 26.8169 25.097 26.801 25.1905 26.7853C25.3226 26.763 25.4524 26.7404 25.577 26.7155C25.6662 26.6977 25.7519 26.6793 25.8371 26.6604C25.9561 26.634 26.0716 26.607 26.1832 26.5787C26.2623 26.5587 26.3397 26.5386 26.4151 26.5177C26.5238 26.4878 26.6277 26.4572 26.7289 26.4258C26.7967 26.4048 26.8644 26.3842 26.9288 26.3628C27.0294 26.3294 27.1237 26.2956 27.2165 26.2615C27.2716 26.2413 27.3281 26.2214 27.3804 26.201C27.4761 26.1637 27.5641 26.1267 27.6507 26.0895C27.6824 26.0758 27.7192 26.0622 27.7497 26.0486V28.8615H27.7501Z" fill="black"/>
<path d="M6.74997 25.5C6.94887 25.5001 7.13968 25.421 7.28039 25.2803C7.42102 25.1397 7.50003 24.9489 7.50003 24.7499V11.25C7.50047 10.8359 7.83595 10.5004 8.25 10.5H21.75V14.5364L21.3354 14.3292C21.0957 14.2086 20.8097 14.2253 20.5856 14.3729C20.3615 14.5207 20.2334 14.7769 20.2497 15.0448C20.266 15.3127 20.4242 15.5515 20.6646 15.6709L22.1646 16.4209C22.1712 16.4241 22.1788 16.4227 22.1854 16.4258C22.3835 16.5248 22.6167 16.5248 22.8148 16.4258C22.8214 16.4227 22.829 16.4241 22.8355 16.4209L24.3356 15.6709C24.576 15.5515 24.7342 15.3127 24.7504 15.0448C24.7667 14.7769 24.6386 14.5207 24.4145 14.3729C24.1904 14.2252 23.9045 14.2085 23.6647 14.3292L23.2501 14.5364V2.25C23.2506 1.83595 23.5861 1.50038 24.0001 1.50003H36.7501C37.1642 1.50047 37.4997 1.83595 37.5001 2.25V5.53641L37.0855 5.32916C36.8457 5.20857 36.5598 5.22527 36.3356 5.37293C36.1115 5.52067 35.9835 5.77688 35.9997 6.04477C36.016 6.31266 36.1742 6.55146 36.4146 6.6709L37.9146 7.42087C37.9212 7.42412 37.9288 7.42271 37.9354 7.42579C38.1335 7.52476 38.3667 7.52476 38.5648 7.42579C38.5714 7.42271 38.579 7.42412 38.5855 7.42087L40.0856 6.6709C40.4551 6.4851 40.6044 6.03527 40.4195 5.66534C40.2345 5.29541 39.7851 5.14503 39.4147 5.32907L39.0001 5.53632V2.25C38.9988 1.00793 37.9922 0.00131836 36.7501 0H24C22.7579 0.00131836 21.7513 1.00793 21.75 2.25V9H8.25C7.00793 9.00132 6.00132 10.0079 6 11.25V24.75C5.99991 24.9489 6.07893 25.1397 6.21964 25.2804C6.36026 25.421 6.55107 25.5001 6.74997 25.5Z" fill="#F07C00"/>
</svg>
