<svg width="160" height="20" viewBox="0 0 127 20" fill="none" xmlns="http://www.w3.org/2000/svg">
<path d="M50.9687 -36L-28 43.5934V44.9205L52.3167 -36H50.9687ZM55.044 -36L-28 47.701V49.0281L56.3607 -36H55.044ZM46.9246 -36L-28 39.5174V40.8444L48.2413 -36H46.9246ZM38.7738 -36L-28 31.3021V32.6292L40.1218 -36H38.7738ZM42.8492 -36L-28 35.4097V36.7368L44.1659 -36H42.8492ZM30.6544 -36L-28 23.1184V24.4455L31.971 -36H30.6544ZM59.1194 -36L-28 51.8087V53.1358L60.4361 -36H59.1194ZM34.7298 -36L-28 27.226V28.5531L36.0464 -36H34.7298ZM83.4778 -36L-6.80794 55H-5.49127L84.7944 -36H83.4778ZM79.4337 -36L-10.852 55H-9.53532L80.7504 -36H79.4337ZM87.5532 -36L-2.73254 55H-1.41587L88.8698 -36H87.5532ZM67.2389 -36L-23.0468 55H-21.7302L68.5556 -36H67.2389ZM75.3583 -36L-14.9274 55H-13.5794L76.7063 -36H75.3583ZM63.1635 -36L-27.1222 55H-25.8056L64.4802 -36H63.1635ZM71.2829 -36L-19.0028 55H-17.6548L72.631 -36H71.2829ZM14.3841 -36L-28 6.71944V8.04652L15.7321 -36H14.3841ZM26.579 -36L-28 19.0108V20.3378L27.927 -36H26.579ZM-9.97421 -36L-28 -17.8316V-16.5045L-8.65754 -36H-9.97421ZM-5.93016 -36L-28 -13.7556V-12.4285L-4.58214 -36H-5.93016ZM-26.2444 -36L-28 -34.2306V-32.9035L-24.9278 -36H-26.2444ZM-1.85476 -36L-28 -9.64792V-8.32084L-0.538095 -36H-1.85476ZM-18.125 -36L-28 -26.0469V-24.7198L-16.777 -36H-18.125ZM-22.169 -36L-28 -30.1229V-28.7958L-20.8524 -36H-22.169ZM-14.0496 -36L-28 -21.9392V-20.6122L-12.7329 -36H-14.0496ZM18.4595 -36L-28 10.8271V12.1542L19.8075 -36H18.4595ZM22.5349 -36L-28 14.9347V16.2618L23.8516 -36H22.5349ZM91.6286 -36L1.34286 55H2.65952L92.9452 -36H91.6286ZM10.3401 -36L-28 2.6434V3.97049L11.6567 -36H10.3401ZM2.18929 -36L-28 -5.57187V-4.24479L3.5373 -36H2.18929ZM6.26468 -36L-28 -1.46424V-0.137154L7.6127 -36H6.26468ZM79.8726 55L130 4.47604V3.14896L78.5559 55H79.8726ZM92.0675 55L130 16.7674V15.4403L90.7508 55H92.0675ZM88.0234 55L130 12.6913V11.3642L86.6754 55H88.0234ZM96.1429 55L130 20.875V19.5479L94.8262 55H96.1429ZM95.6726 -36L5.38691 55H6.70357L96.9893 -36H95.6726ZM71.7532 55L130 -3.70764V-5.03472L70.4365 55H71.7532ZM75.8286 55L130 0.399998V-0.927086L74.4806 55H75.8286ZM83.948 55L130 8.58368V7.25659L82.6313 55H83.948ZM100.218 55L130 24.9826V23.6556L98.8702 55H100.218ZM120.533 55L130 45.4576V44.1306L119.185 55H120.533ZM124.608 55L130 49.5653V48.2382L123.26 55H124.608ZM128.652 55L130 53.6413V52.3142L127.335 55H128.652ZM112.413 55L130 37.274V35.9469L111.065 55H112.413ZM116.457 55L130 41.35V40.0229L115.14 55H116.457ZM108.338 55L130 33.1663V31.8392L107.021 55H108.338ZM104.262 55L130 29.0587V27.7316L102.946 55H104.262ZM67.6778 55L130 -7.81528V-9.14236L66.3611 55H67.6778ZM111.943 -36L21.6571 55H22.9738L113.26 -36H111.943ZM116.018 -36L25.7325 55H27.0492L117.335 -36H116.018ZM120.062 -36L29.7766 55H31.0933L121.379 -36H120.062ZM99.748 -36L9.4623 55H10.779L101.065 -36H99.748ZM124.138 -36L33.852 55H35.1687L125.454 -36H124.138ZM107.867 -36L17.5817 55H18.8984L109.184 -36H107.867ZM103.823 -36L13.5377 55H14.8544L105.14 -36H103.823ZM59.5583 55L130 -15.999V-17.326L58.2417 55H59.5583ZM55.5143 55L130 -20.075V-21.4021L54.1663 55H55.5143ZM128.213 -36L37.9274 55H39.244L129.53 -36H128.213ZM51.4389 55L130 -24.1826V-25.5097L50.0909 55H51.4389ZM63.6337 55L130 -11.8913V-13.25L62.2857 55H63.6337ZM41.9714 55H43.2881L130 -32.3663V-33.725L41.9714 55ZM47.3635 55L130 -28.2903V-29.6174L46.0468 55H47.3635Z" fill="url(#paint0_radial)" fill-opacity="0.34"/>
<defs>
<radialGradient id="paint0_radial" cx="0" cy="0" r="1" gradientUnits="userSpaceOnUse" gradientTransform="translate(50.2002 -24.5355) scale(134.018 135.079)">
<stop stop-color="white"/>
<stop offset="1" stop-color="#AEB6BD"/>
</radialGradient>
</defs>
</svg>
