<svg width="392" height="260" viewBox="0 0 392 260" fill="none" xmlns="http://www.w3.org/2000/svg">
<path d="M362.853 -164L-7 206.853V213.036L369.167 -164H362.853ZM381.94 -164L-7 225.992V232.175L388.107 -164H381.94ZM343.913 -164L-7 187.861V194.044L350.079 -164H343.913ZM305.738 -164L-7 149.583V155.767L312.052 -164H305.738ZM324.825 -164L-7 168.722V174.906L330.992 -164H324.825ZM267.71 -164L-7 111.453V117.636L273.877 -164H267.71ZM401.028 -164L-7 245.131V251.314L407.194 -164H401.028ZM286.798 -164L-7 130.592V136.775L292.964 -164H286.798ZM515.111 -164L92.254 260H98.4206L521.278 -164H515.111ZM496.171 -164L73.3135 260H79.4802L502.337 -164H496.171ZM534.198 -164L111.341 260H117.508L540.365 -164H534.198ZM439.056 -164L16.1984 260H22.3651L445.222 -164H439.056ZM477.083 -164L54.2262 260H60.5397L483.397 -164H477.083ZM419.968 -164L-2.88889 260H3.27778L426.135 -164H419.968ZM457.996 -164L35.1389 260H41.4524L464.31 -164H457.996ZM191.508 -164L-7 35.0444V41.2278L197.821 -164H191.508ZM248.623 -164L-7 92.3139V98.4972L254.936 -164H248.623ZM77.4246 -164L-7 -79.3472V-73.1639L83.5913 -164H77.4246ZM96.3651 -164L-7 -60.3556V-54.1722L102.679 -164H96.3651ZM1.22222 -164L-7 -155.756V-149.572L7.38889 -164H1.22222ZM115.452 -164L-7 -41.2167V-35.0333L121.619 -164H115.452ZM39.25 -164L-7 -117.625V-111.442L45.5635 -164H39.25ZM20.3095 -164L-7 -136.617V-130.433L26.4762 -164H20.3095ZM58.3373 -164L-7 -98.4861V-92.3028L64.504 -164H58.3373ZM210.595 -164L-7 54.1833V60.3667L216.909 -164H210.595ZM229.683 -164L-7 73.3222V79.5055L235.849 -164H229.683ZM553.286 -164L130.429 260H136.595L559.452 -164H553.286ZM172.567 -164L-7 16.0528V22.2361L178.734 -164H172.567ZM134.393 -164L-7 -22.225V-16.0417L140.706 -164H134.393ZM153.48 -164L-7 -3.08611V3.09721L159.794 -164H153.48ZM498.226 260L733 24.5917V18.4083L492.06 260H498.226ZM555.341 260L733 81.8611V75.6778L549.175 260H555.341ZM536.401 260L733 62.8694V56.6861L530.087 260H536.401ZM574.429 260L733 101V94.8167L568.262 260H574.429ZM572.226 -164L149.369 260H155.536L578.393 -164H572.226ZM460.198 260L733 -13.5389V-19.7222L454.032 260H460.198ZM479.286 260L733 5.59999V-0.583328L472.972 260H479.286ZM517.313 260L733 43.7306V37.5472L511.147 260H517.313ZM593.516 260L733 120.139V113.956L587.202 260H593.516ZM688.659 260L733 215.539V209.356L682.345 260H688.659ZM707.746 260L733 234.678V228.494L701.433 260H707.746ZM726.687 260L733 253.669V247.486L720.52 260H726.687ZM650.631 260L733 177.408V171.225L644.317 260H650.631ZM669.571 260L733 196.4V190.217L663.405 260H669.571ZM631.544 260L733 158.269V152.086L625.377 260H631.544ZM612.456 260L733 139.131V132.947L606.29 260H612.456ZM441.111 260L733 -32.6778V-38.8611L434.944 260H441.111ZM648.429 -164L225.571 260H231.738L654.595 -164H648.429ZM667.516 -164L244.659 260H250.825L673.683 -164H667.516ZM686.456 -164L263.599 260H269.766L692.623 -164H686.456ZM591.313 -164L168.456 260H174.623L597.48 -164H591.313ZM705.544 -164L282.687 260H288.853L711.71 -164H705.544ZM629.341 -164L206.484 260H212.651L635.508 -164H629.341ZM610.401 -164L187.544 260H193.71L616.568 -164H610.401ZM403.083 260L733 -70.8083V-76.9917L396.917 260H403.083ZM384.143 260L733 -89.8V-95.9833L377.829 260H384.143ZM724.631 -164L301.774 260H307.94L730.798 -164H724.631ZM365.056 260L733 -108.939V-115.122L358.742 260H365.056ZM422.171 260L733 -51.6694V-58L415.857 260H422.171ZM320.714 260H326.881L733 -147.069V-153.4L320.714 260ZM345.968 260L733 -128.078V-134.261L339.802 260H345.968Z" fill="url(#paint0_radial)" fill-opacity="0.04"/>
<defs>
<radialGradient id="paint0_radial" cx="0" cy="0" r="1" gradientUnits="userSpaceOnUse" gradientTransform="translate(359.254 -110.583) scale(627.681 629.378)">
<stop stop-color="white"/>
<stop offset="1" stop-color="#AEB6BD"/>
</radialGradient>
</defs>
</svg>
