<svg width="353" height="422" viewBox="0 0 353 422" fill="none" xmlns="http://www.w3.org/2000/svg">
<g clip-path="url(#clip0)">
<path d="M329.853 0L-40 370.853V377.036L336.167 0H329.853ZM348.94 0L-40 389.992V396.175L355.107 0H348.94ZM310.913 0L-40 351.861V358.044L317.079 0H310.913ZM272.738 0L-40 313.583V319.767L279.052 0H272.738ZM291.825 0L-40 332.722V338.906L297.992 0H291.825ZM234.71 0L-40 275.453V281.636L240.877 0H234.71ZM368.028 0L-40 409.131V415.314L374.194 0H368.028ZM253.798 0L-40 294.592V300.775L259.964 0H253.798ZM482.111 0L59.254 424H65.4206L488.278 0H482.111ZM463.171 0L40.3135 424H46.4802L469.337 0H463.171ZM501.198 0L78.3413 424H84.5079L507.365 0H501.198ZM406.056 0L-16.8016 424H-10.6349L412.222 0H406.056ZM444.083 0L21.2262 424H27.5397L450.397 0H444.083ZM386.968 0L-35.8889 424H-29.7222L393.135 0H386.968ZM424.996 0L2.13889 424H8.45238L431.31 0H424.996ZM158.508 0L-40 199.044V205.228L164.821 0H158.508ZM215.623 0L-40 256.314V262.497L221.936 0H215.623ZM44.4246 0L-40 84.6528V90.8361L50.5913 0H44.4246ZM63.3651 0L-40 103.644V109.828L69.6786 0H63.3651ZM-31.7778 0L-40 8.24444V14.4278L-25.6111 0H-31.7778ZM82.4524 0L-40 122.783V128.967L88.619 0H82.4524ZM6.25 0L-40 46.375V52.5583L12.5635 0H6.25ZM-12.6905 0L-40 27.3833V33.5667L-6.52381 0H-12.6905ZM25.3373 0L-40 65.5139V71.6972L31.504 0H25.3373ZM177.595 0L-40 218.183V224.367L183.909 0H177.595ZM196.683 0L-40 237.322V243.506L202.849 0H196.683ZM520.286 0L97.4286 424H103.595L526.452 0H520.286ZM139.567 0L-40 180.053V186.236L145.734 0H139.567ZM101.393 0L-40 141.775V147.958L107.706 0H101.393ZM120.48 0L-40 160.914V167.097L126.794 0H120.48ZM465.226 424L700 188.592V182.408L459.06 424H465.226ZM522.341 424L700 245.861V239.678L516.175 424H522.341ZM503.401 424L700 226.869V220.686L497.087 424H503.401ZM541.429 424L700 265V258.817L535.262 424H541.429ZM539.226 0L116.369 424H122.536L545.393 0H539.226ZM427.198 424L700 150.461V144.278L421.032 424H427.198ZM446.286 424L700 169.6V163.417L439.972 424H446.286ZM484.313 424L700 207.731V201.547L478.147 424H484.313ZM560.516 424L700 284.139V277.956L554.202 424H560.516ZM655.659 424L700 379.539V373.356L649.345 424H655.659ZM674.746 424L700 398.678V392.494L668.433 424H674.746ZM693.687 424L700 417.669V411.486L687.52 424H693.687ZM617.631 424L700 341.408V335.225L611.317 424H617.631ZM636.571 424L700 360.4V354.217L630.405 424H636.571ZM598.544 424L700 322.269V316.086L592.377 424H598.544ZM579.456 424L700 303.131V296.947L573.29 424H579.456ZM408.111 424L700 131.322V125.139L401.944 424H408.111ZM615.429 0L192.571 424H198.738L621.595 0H615.429ZM634.516 0L211.659 424H217.825L640.683 0H634.516ZM653.456 0L230.599 424H236.766L659.623 0H653.456ZM558.313 0L135.456 424H141.623L564.48 0H558.313ZM672.544 0L249.687 424H255.853L678.71 0H672.544ZM596.341 0L173.484 424H179.651L602.508 0H596.341ZM577.401 0L154.544 424H160.71L583.568 0H577.401ZM370.083 424L700 93.1917V87.0083L363.917 424H370.083ZM351.143 424L700 74.2V68.0167L344.829 424H351.143ZM691.631 0L268.774 424H274.94L697.798 0H691.631ZM332.056 424L700 55.0611V48.8778L325.742 424H332.056ZM389.171 424L700 112.331V106L382.857 424H389.171ZM287.714 424H293.881L700 16.9306V10.6L287.714 424ZM312.968 424L700 35.9222V29.7389L306.802 424H312.968Z" fill="url(#paint0_radial)" fill-opacity="0.08"/>
</g>
<defs>
<radialGradient id="paint0_radial" cx="0" cy="0" r="1" gradientUnits="userSpaceOnUse" gradientTransform="translate(326.254 53.4172) scale(627.681 629.378)">
<stop stop-color="white"/>
<stop offset="1" stop-color="#AEB6BD"/>
</radialGradient>
<clipPath id="clip0">
<rect width="353" height="422" rx="5" fill="white"/>
</clipPath>
</defs>
</svg>
