<svg width="280" height="335" viewBox="0 0 280 335" fill="none" xmlns="http://www.w3.org/2000/svg">
<g clip-path="url(#clip0)">
<path d="M261.64 0L-31.728 294.161V299.065L266.648 0H261.64ZM276.78 0L-31.728 309.342V314.246L281.671 0H276.78ZM246.616 0L-31.728 279.097V284.001L251.508 0H246.616ZM216.336 0L-31.728 248.735V253.639L221.344 0H216.336ZM231.476 0L-31.728 263.916V268.82L236.368 0H231.476ZM186.173 0L-31.728 218.489V223.394L191.064 0H186.173ZM291.92 0L-31.728 324.523V329.427L296.811 0H291.92ZM201.313 0L-31.728 233.67V238.575L206.204 0H201.313ZM382.411 0L47.0003 336.317H51.8917L387.302 0H382.411ZM367.387 0L31.9767 336.317H36.8681L372.279 0H367.387ZM397.551 0L62.1404 336.317H67.0318L402.443 0H397.551ZM322.084 0L-13.327 336.317H-8.43562L326.975 0H322.084ZM352.247 0L16.8367 336.317H21.8445L357.255 0H352.247ZM306.944 0L-28.4671 336.317H-23.5757L311.835 0H306.944ZM337.107 0L1.69659 336.317H6.70445L342.115 0H337.107ZM125.729 0L-31.728 157.882V162.787L130.737 0H125.729ZM171.032 0L-31.728 203.308V208.213L176.04 0H171.032ZM35.2377 0L-31.728 67.1467V72.0513L40.1291 0H35.2377ZM50.2613 0L-31.728 82.2109V87.1155L55.2691 0H50.2613ZM-25.2062 0L-31.728 6.5395V11.4441L-20.3147 0H-25.2062ZM65.4013 0L-31.728 97.3919V102.297L70.2927 0H65.4013ZM4.95752 0L-31.728 36.7847V41.6893L9.96539 0H4.95752ZM-10.0661 0L-31.728 21.7205V26.6251L-5.17468 0H-10.0661ZM20.0976 0L-31.728 51.9657V56.8703L24.989 0H20.0976ZM140.869 0L-31.728 173.063V177.968L145.877 0H140.869ZM156.009 0L-31.728 188.244V193.149L160.9 0H156.009ZM412.691 0L77.2805 336.317H82.1719L417.583 0H412.691ZM110.705 0L-31.728 142.818V147.723L115.596 0H110.705ZM80.4249 0L-31.728 112.456V117.361L85.4328 0H80.4249ZM95.565 0L-31.728 127.637V132.542L100.573 0H95.565ZM369.018 336.317L555.241 149.591V144.687L364.127 336.317H369.018ZM414.322 336.317L555.241 195.017V190.113L409.43 336.317H414.322ZM399.298 336.317L555.241 179.953V175.048L394.29 336.317H399.298ZM429.462 336.317L555.241 210.198V205.294L424.57 336.317H429.462ZM427.715 0L92.3041 336.317H97.1955L432.606 0H427.715ZM338.854 336.317L555.241 119.346V114.441L333.963 336.317H338.854ZM353.994 336.317L555.241 134.527V129.622L348.986 336.317H353.994ZM384.158 336.317L555.241 164.772V159.867L379.267 336.317H384.158ZM444.602 336.317L555.241 225.379V220.475L439.594 336.317H444.602ZM520.069 336.317L555.241 301.051V296.146L515.061 336.317H520.069ZM535.209 336.317L555.241 316.232V311.327L530.201 336.317H535.209ZM550.233 336.317L555.241 331.296V326.391L545.341 336.317H550.233ZM489.906 336.317L555.241 270.805V265.901L484.898 336.317H489.906ZM504.929 336.317L555.241 285.87V280.965L500.038 336.317H504.929ZM474.765 336.317L555.241 255.624V250.72L469.874 336.317H474.765ZM459.625 336.317L555.241 240.443V235.539L454.734 336.317H459.625ZM323.714 336.317L555.241 104.165V99.2603L318.823 336.317H323.714ZM488.159 0L152.748 336.317H157.639L493.05 0H488.159ZM503.299 0L167.888 336.317H172.779L508.19 0H503.299ZM518.322 0L182.912 336.317H187.803L523.214 0H518.322ZM442.855 0L107.444 336.317H112.336L447.746 0H442.855ZM533.462 0L198.052 336.317H202.943L538.354 0H533.462ZM473.019 0L137.608 336.317H142.499L477.91 0H473.019ZM457.995 0L122.584 336.317H127.476L462.886 0H457.995ZM293.551 336.317L555.241 73.9197V69.0151L288.659 336.317H293.551ZM278.527 336.317L555.241 58.8555V53.9509L273.519 336.317H278.527ZM548.602 0L213.192 336.317H218.083L553.494 0H548.602ZM263.387 336.317L555.241 43.6745V38.7699L258.379 336.317H263.387ZM308.691 336.317L555.241 89.1007V84.0793L303.683 336.317H308.691ZM228.215 336.317H233.107L555.241 13.4293V8.40793L228.215 336.317ZM248.247 336.317L555.241 28.4935V23.5889L243.355 336.317H248.247Z" fill="url(#paint0_radial)" fill-opacity="0.08"/>
</g>
<defs>
<radialGradient id="paint0_radial" cx="0" cy="0" r="1" gradientUnits="userSpaceOnUse" gradientTransform="translate(258.785 42.3706) scale(497.877 499.223)">
<stop stop-color="white"/>
<stop offset="1" stop-color="#AEB6BD"/>
</radialGradient>
<clipPath id="clip0">
<rect width="280" height="334.731" rx="5" fill="white"/>
</clipPath>
</defs>
</svg>
