<svg width="740" height="424" viewBox="0 0 740 178" fill="none" xmlns="http://www.w3.org/2000/svg">
<path d="M369.853 -108L0 262.853V269.036L376.167 -108H369.853ZM388.94 -108L0 281.992V288.175L395.107 -108H388.94ZM350.913 -108L0 243.861V250.044L357.079 -108H350.913ZM312.738 -108L0 205.583V211.767L319.052 -108H312.738ZM331.825 -108L0 224.722V230.906L337.992 -108H331.825ZM274.71 -108L0 167.453V173.636L280.877 -108H274.71ZM408.028 -108L0 301.131V307.314L414.194 -108H408.028ZM293.798 -108L0 186.592V192.775L299.964 -108H293.798ZM522.111 -108L99.254 316H105.421L528.278 -108H522.111ZM503.171 -108L80.3135 316H86.4802L509.337 -108H503.171ZM541.198 -108L118.341 316H124.508L547.365 -108H541.198ZM446.056 -108L23.1984 316H29.3651L452.222 -108H446.056ZM484.083 -108L61.2262 316H67.5397L490.397 -108H484.083ZM426.968 -108L4.11111 316H10.2778L433.135 -108H426.968ZM464.996 -108L42.1389 316H48.4524L471.31 -108H464.996ZM198.508 -108L0 91.0444V97.2278L204.821 -108H198.508ZM255.623 -108L0 148.314V154.497L261.936 -108H255.623ZM84.4246 -108L0 -23.3472V-17.1639L90.5913 -108H84.4246ZM103.365 -108L0 -4.35555V1.82777L109.679 -108H103.365ZM8.22222 -108L0 -99.7556V-93.5722L14.3889 -108H8.22222ZM122.452 -108L0 14.7833V20.9667L128.619 -108H122.452ZM46.25 -108L0 -61.625V-55.4417L52.5635 -108H46.25ZM27.3095 -108L0 -80.6167V-74.4333L33.4762 -108H27.3095ZM65.3373 -108L0 -42.4861V-36.3028L71.504 -108H65.3373ZM217.595 -108L0 110.183V116.367L223.909 -108H217.595ZM236.683 -108L0 129.322V135.506L242.849 -108H236.683ZM560.286 -108L137.429 316H143.595L566.452 -108H560.286ZM179.567 -108L0 72.0528V78.2361L185.734 -108H179.567ZM141.393 -108L0 33.775V39.9583L147.706 -108H141.393ZM160.48 -108L0 52.9139V59.0972L166.794 -108H160.48ZM505.226 316L740 80.5917V74.4083L499.06 316H505.226ZM562.341 316L740 137.861V131.678L556.175 316H562.341ZM543.401 316L740 118.869V112.686L537.087 316H543.401ZM581.429 316L740 157V150.817L575.262 316H581.429ZM579.226 -108L156.369 316H162.536L585.393 -108H579.226ZM467.198 316L740 42.4611V36.2778L461.032 316H467.198ZM486.286 316L740 61.6V55.4167L479.972 316H486.286ZM524.313 316L740 99.7306V93.5472L518.147 316H524.313ZM600.516 316L740 176.139V169.956L594.202 316H600.516ZM695.659 316L740 271.539V265.356L689.345 316H695.659ZM714.746 316L740 290.678V284.494L708.433 316H714.746ZM733.687 316L740 309.669V303.486L727.52 316H733.687ZM657.631 316L740 233.408V227.225L651.317 316H657.631ZM676.571 316L740 252.4V246.217L670.405 316H676.571ZM638.544 316L740 214.269V208.086L632.377 316H638.544ZM619.456 316L740 195.131V188.947L613.29 316H619.456ZM448.111 316L740 23.3222V17.1389L441.944 316H448.111ZM655.429 -108L232.571 316H238.738L661.595 -108H655.429ZM674.516 -108L251.659 316H257.825L680.683 -108H674.516ZM693.456 -108L270.599 316H276.766L699.623 -108H693.456ZM598.313 -108L175.456 316H181.623L604.48 -108H598.313ZM712.544 -108L289.687 316H295.853L718.71 -108H712.544ZM636.341 -108L213.484 316H219.651L642.508 -108H636.341ZM617.401 -108L194.544 316H200.71L623.568 -108H617.401ZM410.083 316L740 -14.8083V-20.9917L403.917 316H410.083ZM391.143 316L740 -33.8V-39.9833L384.829 316H391.143ZM731.631 -108L308.774 316H314.94L737.798 -108H731.631ZM372.056 316L740 -52.9389V-59.1222L365.742 316H372.056ZM429.171 316L740 4.33056V-2L422.857 316H429.171ZM327.714 316H333.881L740 -91.0694V-97.4L327.714 316ZM352.968 316L740 -72.0778V-78.2611L346.802 316H352.968Z" fill="url(#paint0_radial)" fill-opacity="0.08"/>
<defs>
<radialGradient id="paint0_radial" cx="0" cy="0" r="1" gradientUnits="userSpaceOnUse" gradientTransform="translate(366.254 -54.5828) scale(627.681 629.378)">
<stop stop-color="white"/>
<stop offset="1" stop-color="#AEB6BD"/>
</radialGradient>
</defs>
</svg>
