<svg width="137" height="54" viewBox="0 0 137 54" fill="none" xmlns="http://www.w3.org/2000/svg">
<path d="M2.512 18C2.38 18 2.272 17.958 2.188 17.874C2.104 17.79 2.062 17.682 2.062 17.55V9.09C2.062 8.958 2.104 8.85 2.188 8.766C2.272 8.682 2.38 8.64 2.512 8.64H10.756C10.888 8.64 10.996 8.682 11.08 8.766C11.176 8.85 11.224 8.958 11.224 9.09V17.55C11.224 17.682 11.176 17.79 11.08 17.874C10.996 17.958 10.888 18 10.756 18H8.632C8.512 18 8.404 17.958 8.308 17.874C8.224 17.778 8.182 17.67 8.182 17.55V10.998H5.086V17.55C5.086 17.67 5.044 17.778 4.96 17.874C4.876 17.958 4.768 18 4.636 18H2.512ZM16.2259 18C16.1059 18 15.9979 17.958 15.9019 17.874C15.8179 17.778 15.7759 17.67 15.7759 17.55V10.998H13.0399C12.9199 10.998 12.8119 10.956 12.7159 10.872C12.6319 10.776 12.5899 10.668 12.5899 10.548V9.09C12.5899 8.958 12.6319 8.85 12.7159 8.766C12.8119 8.682 12.9199 8.64 13.0399 8.64H21.4999C21.6319 8.64 21.7399 8.682 21.8239 8.766C21.9079 8.85 21.9499 8.958 21.9499 9.09V10.548C21.9499 10.668 21.9079 10.776 21.8239 10.872C21.7399 10.956 21.6319 10.998 21.4999 10.998H18.7639V17.55C18.7639 17.67 18.7219 17.778 18.6379 17.874C18.5539 17.958 18.4459 18 18.3139 18H16.2259ZM32.3512 8.64C32.4712 8.64 32.5732 8.682 32.6572 8.766C32.7412 8.85 32.7832 8.952 32.7832 9.072V17.55C32.7832 17.67 32.7412 17.778 32.6572 17.874C32.5732 17.958 32.4652 18 32.3332 18H30.2092C30.0892 18 29.9812 17.958 29.8852 17.874C29.8012 17.778 29.7592 17.67 29.7592 17.55V12.51L26.1052 17.712C25.9732 17.904 25.8052 18 25.6012 18H23.6932C23.5732 18 23.4712 17.958 23.3872 17.874C23.3032 17.79 23.2612 17.688 23.2612 17.568V9.09C23.2612 8.958 23.3032 8.85 23.3872 8.766C23.4712 8.682 23.5792 8.64 23.7112 8.64H25.8352C25.9672 8.64 26.0752 8.682 26.1592 8.766C26.2432 8.85 26.2852 8.958 26.2852 9.09V14.112L29.9212 8.928C30.0532 8.736 30.2212 8.64 30.4252 8.64H32.3512ZM42.5337 20.124C42.4017 20.124 42.2937 20.076 42.2097 19.98C42.1257 19.896 42.0837 19.788 42.0837 19.656V18H35.1897C35.0577 18 34.9497 17.958 34.8657 17.874C34.7817 17.79 34.7397 17.682 34.7397 17.55V9.09C34.7397 8.958 34.7817 8.85 34.8657 8.766C34.9497 8.682 35.0577 8.64 35.1897 8.64H37.3137C37.4457 8.64 37.5537 8.682 37.6377 8.766C37.7217 8.85 37.7637 8.958 37.7637 9.09V15.642H40.8597V9.09C40.8597 8.958 40.9017 8.85 40.9857 8.766C41.0817 8.682 41.1897 8.64 41.3097 8.64H43.4337C43.5657 8.64 43.6737 8.682 43.7577 8.766C43.8537 8.85 43.9017 8.958 43.9017 9.09L43.8837 15.642H44.6577C44.7897 15.642 44.8977 15.684 44.9817 15.768C45.0657 15.852 45.1077 15.96 45.1077 16.092V19.656C45.1077 19.788 45.0657 19.896 44.9817 19.98C44.8977 20.076 44.7897 20.124 44.6577 20.124H42.5337ZM50.8195 18.18C49.3795 18.18 48.2455 17.79 47.4175 17.01C46.5895 16.23 46.1575 15.096 46.1215 13.608V12.978C46.1695 11.562 46.6075 10.458 47.4355 9.666C48.2755 8.862 49.3975 8.46 50.8015 8.46C51.8215 8.46 52.6795 8.67 53.3755 9.09C54.0835 9.498 54.6115 10.062 54.9595 10.782C55.3195 11.502 55.4995 12.33 55.4995 13.266V13.698C55.4995 13.818 55.4575 13.926 55.3735 14.022C55.2895 14.106 55.1815 14.148 55.0495 14.148H49.2895V14.274C49.3135 14.838 49.4515 15.294 49.7035 15.642C49.9555 15.99 50.3215 16.164 50.8015 16.164C51.1015 16.164 51.3475 16.104 51.5395 15.984C51.7315 15.852 51.9055 15.696 52.0615 15.516C52.1695 15.384 52.2535 15.306 52.3135 15.282C52.3855 15.246 52.4935 15.228 52.6375 15.228H54.8695C54.9775 15.228 55.0675 15.264 55.1395 15.336C55.2235 15.396 55.2655 15.48 55.2655 15.588C55.2655 15.9 55.0855 16.26 54.7255 16.668C54.3775 17.076 53.8675 17.43 53.1955 17.73C52.5235 18.03 51.7315 18.18 50.8195 18.18ZM52.3315 12.366V12.33C52.3315 11.742 52.1935 11.28 51.9175 10.944C51.6535 10.596 51.2815 10.422 50.8015 10.422C50.3335 10.422 49.9615 10.596 49.6855 10.944C49.4215 11.28 49.2895 11.742 49.2895 12.33V12.366H52.3315ZM62.317 21.42C62.197 21.42 62.089 21.378 61.993 21.294C61.909 21.21 61.867 21.102 61.867 20.97V18C60.271 18 59.053 17.658 58.213 16.974C57.385 16.29 56.935 15.318 56.863 14.058C56.851 13.89 56.845 13.644 56.845 13.32C56.845 12.984 56.851 12.738 56.863 12.582C56.935 11.334 57.397 10.368 58.249 9.684C59.113 8.988 60.319 8.64 61.867 8.64V5.67C61.867 5.538 61.909 5.43 61.993 5.346C62.089 5.262 62.197 5.22 62.317 5.22H64.441C64.573 5.22 64.681 5.262 64.765 5.346C64.861 5.43 64.909 5.538 64.909 5.67V8.64C66.457 8.64 67.657 8.988 68.509 9.684C69.361 10.368 69.829 11.334 69.913 12.582C69.925 12.738 69.931 12.984 69.931 13.32C69.931 13.644 69.925 13.89 69.913 14.058C69.829 15.318 69.373 16.29 68.545 16.974C67.717 17.658 66.505 18 64.909 18V20.97C64.909 21.102 64.861 21.21 64.765 21.294C64.681 21.378 64.573 21.42 64.441 21.42H62.317ZM61.885 10.836C61.201 10.836 60.703 10.992 60.391 11.304C60.079 11.616 59.905 12.108 59.869 12.78L59.851 13.32C59.851 14.22 60.001 14.862 60.301 15.246C60.613 15.618 61.141 15.804 61.885 15.804V10.836ZM64.873 15.804C65.641 15.804 66.175 15.612 66.475 15.228C66.775 14.844 66.925 14.208 66.925 13.32C66.925 13.068 66.919 12.888 66.907 12.78C66.871 12.096 66.691 11.604 66.367 11.304C66.055 10.992 65.557 10.836 64.873 10.836V15.804ZM74.5145 18.18C73.8785 18.18 73.2965 18.06 72.7685 17.82C72.2525 17.568 71.8445 17.232 71.5445 16.812C71.2565 16.38 71.1125 15.906 71.1125 15.39C71.1125 14.562 71.4485 13.896 72.1205 13.392C72.8045 12.888 73.7405 12.54 74.9285 12.348L77.1785 12.006V11.754C77.1785 11.298 77.0825 10.962 76.8905 10.746C76.6985 10.53 76.3745 10.422 75.9185 10.422C75.6425 10.422 75.4145 10.47 75.2345 10.566C75.0545 10.662 74.8685 10.794 74.6765 10.962C74.5085 11.106 74.3825 11.202 74.2985 11.25C74.2625 11.346 74.1965 11.394 74.1005 11.394H72.1385C72.0185 11.394 71.9165 11.358 71.8325 11.286C71.7605 11.202 71.7305 11.106 71.7425 10.998C71.7545 10.674 71.9105 10.314 72.2105 9.918C72.5225 9.522 72.9905 9.18 73.6145 8.892C74.2505 8.604 75.0305 8.46 75.9545 8.46C77.4305 8.46 78.5225 8.79 79.2305 9.45C79.9385 10.098 80.2925 10.974 80.2925 12.078V17.55C80.2925 17.67 80.2505 17.778 80.1665 17.874C80.0825 17.958 79.9745 18 79.8425 18H77.7545C77.6345 18 77.5265 17.958 77.4305 17.874C77.3465 17.778 77.3045 17.67 77.3045 17.55V16.92C77.0405 17.292 76.6685 17.598 76.1885 17.838C75.7205 18.066 75.1625 18.18 74.5145 18.18ZM75.3605 16.128C75.9125 16.128 76.3565 15.948 76.6925 15.588C77.0405 15.228 77.2145 14.7 77.2145 14.004V13.752L75.6845 14.022C74.6045 14.214 74.0645 14.592 74.0645 15.156C74.0645 15.456 74.1905 15.696 74.4425 15.876C74.6945 16.044 75.0005 16.128 75.3605 16.128ZM91.5757 13.104C91.5997 13.392 91.6117 13.614 91.6117 13.77C91.6117 13.926 91.5997 14.136 91.5757 14.4C91.5037 15.6 91.0657 16.53 90.2617 17.19C89.4577 17.85 88.3117 18.18 86.8237 18.18C85.2157 18.18 84.0337 17.796 83.2777 17.028C82.5337 16.248 82.1257 15.018 82.0537 13.338L82.0357 12.24L82.0537 11.16C82.1017 9.504 82.3777 8.256 82.8817 7.416C83.3857 6.576 84.1357 5.946 85.1317 5.526C86.1397 5.106 87.7177 4.656 89.8657 4.176C89.9017 4.164 89.9377 4.158 89.9737 4.158C90.0697 4.158 90.1537 4.182 90.2257 4.23C90.3337 4.302 90.3937 4.404 90.4057 4.536L90.7117 6.192L90.7297 6.3C90.7297 6.408 90.6937 6.498 90.6217 6.57C90.5617 6.642 90.4837 6.69 90.3877 6.714C88.7797 7.038 87.6517 7.302 87.0037 7.506C86.3557 7.71 85.8697 8.016 85.5457 8.424C85.2217 8.82 85.0297 9.438 84.9697 10.278C85.2457 9.99 85.5937 9.762 86.0137 9.594C86.4457 9.414 86.9017 9.324 87.3817 9.324C88.6897 9.324 89.6977 9.654 90.4057 10.314C91.1137 10.974 91.5037 11.904 91.5757 13.104ZM88.4077 14.328C88.4197 14.232 88.4257 14.046 88.4257 13.77C88.4257 13.482 88.4197 13.284 88.4077 13.176C88.3477 11.94 87.8557 11.322 86.9317 11.322C85.8517 11.322 85.2817 11.94 85.2217 13.176L85.2037 13.77L85.2217 14.328C85.2457 14.952 85.3837 15.42 85.6357 15.732C85.8997 16.032 86.2957 16.182 86.8237 16.182C87.3397 16.182 87.7237 16.032 87.9757 15.732C88.2397 15.42 88.3837 14.952 88.4077 14.328ZM93.8304 21.42C93.7104 21.42 93.6024 21.378 93.5064 21.294C93.4224 21.21 93.3804 21.102 93.3804 20.97V9.09C93.3804 8.958 93.4224 8.85 93.5064 8.766C93.6024 8.682 93.7104 8.64 93.8304 8.64H95.8644C95.9964 8.64 96.1044 8.682 96.1884 8.766C96.2724 8.85 96.3144 8.958 96.3144 9.09V9.738C96.9624 8.886 97.8924 8.46 99.1044 8.46C100.28 8.46 101.198 8.826 101.858 9.558C102.518 10.29 102.878 11.322 102.938 12.654C102.95 12.81 102.956 13.032 102.956 13.32C102.956 13.608 102.95 13.83 102.938 13.986C102.89 15.282 102.53 16.308 101.858 17.064C101.186 17.808 100.268 18.18 99.1044 18.18C97.9284 18.18 97.0524 17.778 96.4764 16.974V20.97C96.4764 21.102 96.4344 21.21 96.3504 21.294C96.2664 21.378 96.1584 21.42 96.0264 21.42H93.8304ZM98.1324 15.768C98.6964 15.768 99.0984 15.6 99.3384 15.264C99.5904 14.928 99.7344 14.466 99.7704 13.878C99.7944 13.638 99.8064 13.452 99.8064 13.32C99.8064 13.188 99.7944 13.002 99.7704 12.762C99.7344 12.174 99.5904 11.712 99.3384 11.376C99.0984 11.04 98.6964 10.872 98.1324 10.872C97.5804 10.872 97.1724 11.046 96.9084 11.394C96.6564 11.73 96.5124 12.168 96.4764 12.708L96.4584 13.374L96.4764 14.058C96.5004 14.55 96.6504 14.958 96.9264 15.282C97.2024 15.606 97.6044 15.768 98.1324 15.768ZM113.826 8.64C113.946 8.64 114.048 8.682 114.132 8.766C114.216 8.85 114.258 8.952 114.258 9.072V17.55C114.258 17.67 114.216 17.778 114.132 17.874C114.048 17.958 113.94 18 113.808 18H111.684C111.564 18 111.456 17.958 111.36 17.874C111.276 17.778 111.234 17.67 111.234 17.55V12.51L107.58 17.712C107.448 17.904 107.28 18 107.076 18H105.168C105.048 18 104.946 17.958 104.862 17.874C104.778 17.79 104.736 17.688 104.736 17.568V9.09C104.736 8.958 104.778 8.85 104.862 8.766C104.946 8.682 105.054 8.64 105.186 8.64H107.31C107.442 8.64 107.55 8.682 107.634 8.766C107.718 8.85 107.76 8.958 107.76 9.09V14.112L111.396 8.928C111.528 8.736 111.696 8.64 111.9 8.64H113.826ZM125.646 17.406C125.694 17.454 125.718 17.532 125.718 17.64C125.718 17.736 125.682 17.82 125.61 17.892C125.538 17.964 125.442 18 125.322 18H122.784C122.568 18 122.394 17.904 122.262 17.712L120.156 14.436H119.202V17.55C119.202 17.682 119.154 17.79 119.058 17.874C118.974 17.958 118.866 18 118.734 18H116.664C116.532 18 116.424 17.958 116.34 17.874C116.256 17.79 116.214 17.682 116.214 17.55V9.09C116.214 8.958 116.256 8.85 116.34 8.766C116.424 8.682 116.532 8.64 116.664 8.64H118.734C118.866 8.64 118.974 8.682 119.058 8.766C119.154 8.85 119.202 8.958 119.202 9.09V12.078H120.192L122.118 8.928C122.25 8.736 122.418 8.64 122.622 8.64H124.926C125.034 8.64 125.124 8.676 125.196 8.748C125.28 8.82 125.322 8.904 125.322 9C125.322 9.084 125.292 9.168 125.232 9.252L122.784 13.176L125.646 17.406ZM129.938 18.18C129.302 18.18 128.72 18.06 128.192 17.82C127.676 17.568 127.268 17.232 126.968 16.812C126.68 16.38 126.536 15.906 126.536 15.39C126.536 14.562 126.872 13.896 127.544 13.392C128.228 12.888 129.164 12.54 130.352 12.348L132.602 12.006V11.754C132.602 11.298 132.506 10.962 132.314 10.746C132.122 10.53 131.798 10.422 131.342 10.422C131.066 10.422 130.838 10.47 130.658 10.566C130.478 10.662 130.292 10.794 130.1 10.962C129.932 11.106 129.806 11.202 129.722 11.25C129.686 11.346 129.62 11.394 129.524 11.394H127.562C127.442 11.394 127.34 11.358 127.256 11.286C127.184 11.202 127.154 11.106 127.166 10.998C127.178 10.674 127.334 10.314 127.634 9.918C127.946 9.522 128.414 9.18 129.038 8.892C129.674 8.604 130.454 8.46 131.378 8.46C132.854 8.46 133.946 8.79 134.654 9.45C135.362 10.098 135.716 10.974 135.716 12.078V17.55C135.716 17.67 135.674 17.778 135.59 17.874C135.506 17.958 135.398 18 135.266 18H133.178C133.058 18 132.95 17.958 132.854 17.874C132.77 17.778 132.728 17.67 132.728 17.55V16.92C132.464 17.292 132.092 17.598 131.612 17.838C131.144 18.066 130.586 18.18 129.938 18.18ZM130.784 16.128C131.336 16.128 131.78 15.948 132.116 15.588C132.464 15.228 132.638 14.7 132.638 14.004V13.752L131.108 14.022C130.028 14.214 129.488 14.592 129.488 15.156C129.488 15.456 129.614 15.696 129.866 15.876C130.118 16.044 130.424 16.128 130.784 16.128Z" fill="white"/>
<path d="M2.28 47C2.104 47 1.96 46.944 1.848 46.832C1.736 46.72 1.68 46.576 1.68 46.4V30.8C1.68 30.624 1.736 30.48 1.848 30.368C1.976 30.256 2.12 30.2 2.28 30.2H15.6C15.776 30.2 15.92 30.256 16.032 30.368C16.144 30.48 16.2 30.624 16.2 30.8V46.4C16.2 46.576 16.144 46.72 16.032 46.832C15.92 46.944 15.776 47 15.6 47H12.504C12.328 47 12.184 46.944 12.072 46.832C11.96 46.72 11.904 46.576 11.904 46.4V34.04H6V46.4C6 46.576 5.936 46.72 5.808 46.832C5.696 46.944 5.552 47 5.376 47H2.28ZM20.1628 47C20.0028 47 19.8588 46.944 19.7308 46.832C19.6188 46.704 19.5628 46.56 19.5628 46.4V30.8C19.5628 30.624 19.6188 30.48 19.7308 30.368C19.8588 30.256 20.0028 30.2 20.1628 30.2H31.3708C31.5468 30.2 31.6908 30.256 31.8028 30.368C31.9148 30.48 31.9708 30.624 31.9708 30.8V33.056C31.9708 33.216 31.9148 33.36 31.8028 33.488C31.6908 33.6 31.5468 33.656 31.3708 33.656H23.7148V36.896H30.8428C31.0188 36.896 31.1628 36.96 31.2748 37.088C31.3868 37.2 31.4428 37.344 31.4428 37.52V39.608C31.4428 39.768 31.3868 39.912 31.2748 40.04C31.1628 40.152 31.0188 40.208 30.8428 40.208H23.7148V43.544H31.5628C31.7388 43.544 31.8828 43.6 31.9948 43.712C32.1068 43.824 32.1628 43.968 32.1628 44.144V46.4C32.1628 46.56 32.1068 46.704 31.9948 46.832C31.8828 46.944 31.7388 47 31.5628 47H20.1628ZM35.4909 47C35.3309 47 35.1869 46.944 35.0589 46.832C34.9469 46.704 34.8909 46.56 34.8909 46.4V30.8C34.8909 30.624 34.9469 30.48 35.0589 30.368C35.1869 30.256 35.3309 30.2 35.4909 30.2H42.2109C44.2589 30.2 45.8669 30.672 47.0349 31.616C48.2189 32.56 48.8109 33.936 48.8109 35.744C48.8109 37.536 48.2269 38.888 47.0589 39.8C45.8909 40.696 44.2749 41.144 42.2109 41.144H39.3549V46.4C39.3549 46.576 39.2909 46.72 39.1629 46.832C39.0509 46.944 38.9069 47 38.7309 47H35.4909ZM42.0909 37.832C42.7949 37.832 43.3469 37.656 43.7469 37.304C44.1469 36.936 44.3469 36.4 44.3469 35.696C44.3469 35.04 44.1549 34.52 43.7709 34.136C43.4029 33.736 42.8429 33.536 42.0909 33.536H39.2829V37.832H42.0909ZM51.7097 47C51.5497 47 51.4057 46.944 51.2777 46.832C51.1657 46.704 51.1097 46.56 51.1097 46.4V30.8C51.1097 30.624 51.1657 30.48 51.2777 30.368C51.4057 30.256 51.5497 30.2 51.7097 30.2H54.3017C54.6857 30.2 54.9657 30.376 55.1417 30.728L59.3657 38.288L63.5897 30.728C63.7657 30.376 64.0457 30.2 64.4297 30.2H66.9977C67.1737 30.2 67.3177 30.256 67.4297 30.368C67.5577 30.48 67.6217 30.624 67.6217 30.8V46.4C67.6217 46.576 67.5577 46.72 67.4297 46.832C67.3177 46.944 67.1737 47 66.9977 47H64.1417C63.9657 47 63.8137 46.944 63.6857 46.832C63.5737 46.72 63.5177 46.576 63.5177 46.4V37.4L60.8297 42.416C60.6217 42.784 60.3417 42.968 59.9897 42.968H58.7417C58.5337 42.968 58.3657 42.92 58.2377 42.824C58.1097 42.728 57.9977 42.592 57.9017 42.416L55.1897 37.4V46.4C55.1897 46.56 55.1337 46.704 55.0217 46.832C54.9097 46.944 54.7657 47 54.5897 47H51.7097ZM77.8727 47.24C75.5847 47.24 73.7927 46.688 72.4967 45.584C71.2167 44.464 70.5367 42.848 70.4567 40.736C70.4407 40.304 70.4327 39.6 70.4327 38.624C70.4327 37.632 70.4407 36.912 70.4567 36.464C70.5367 34.384 71.2327 32.784 72.5447 31.664C73.8567 30.528 75.6327 29.96 77.8727 29.96C79.2807 29.96 80.5447 30.2 81.6647 30.68C82.7847 31.144 83.6647 31.816 84.3047 32.696C84.9607 33.56 85.2967 34.576 85.3127 35.744V35.792C85.3127 35.92 85.2567 36.032 85.1447 36.128C85.0487 36.208 84.9367 36.248 84.8087 36.248H81.5687C81.3607 36.248 81.2007 36.208 81.0887 36.128C80.9767 36.032 80.8807 35.864 80.8007 35.624C80.5767 34.808 80.2247 34.24 79.7447 33.92C79.2647 33.584 78.6327 33.416 77.8487 33.416C75.9607 33.416 74.9847 34.472 74.9207 36.584C74.9047 37.016 74.8967 37.68 74.8967 38.576C74.8967 39.472 74.9047 40.152 74.9207 40.616C74.9847 42.728 75.9607 43.784 77.8487 43.784C78.6327 43.784 79.2727 43.616 79.7687 43.28C80.2647 42.928 80.6087 42.36 80.8007 41.576C80.8647 41.336 80.9527 41.176 81.0647 41.096C81.1767 41 81.3447 40.952 81.5687 40.952H84.8087C84.9527 40.952 85.0727 41 85.1687 41.096C85.2807 41.192 85.3287 41.312 85.3127 41.456C85.2967 42.624 84.9607 43.648 84.3047 44.528C83.6647 45.392 82.7847 46.064 81.6647 46.544C80.5447 47.008 79.2807 47.24 77.8727 47.24ZM102.356 46.184C102.404 46.248 102.428 46.336 102.428 46.448C102.428 46.608 102.372 46.744 102.26 46.856C102.164 46.952 102.036 47 101.876 47H98.3243C98.1003 47 97.9323 46.96 97.8203 46.88C97.7243 46.8 97.6123 46.688 97.4843 46.544L93.8123 40.424H92.1562V46.4C92.1562 46.576 92.0923 46.72 91.9643 46.832C91.8523 46.944 91.7083 47 91.5323 47H88.4363C88.2603 47 88.1163 46.944 88.0043 46.832C87.8923 46.72 87.8363 46.576 87.8363 46.4V30.8C87.8363 30.624 87.8923 30.48 88.0043 30.368C88.1323 30.256 88.2763 30.2 88.4363 30.2H91.5323C91.7083 30.2 91.8523 30.256 91.9643 30.368C92.0923 30.48 92.1562 30.624 92.1562 30.8V36.584L93.6203 36.608L97.1483 30.656C97.3243 30.352 97.6203 30.2 98.0363 30.2H101.516C101.66 30.2 101.78 30.248 101.876 30.344C101.972 30.44 102.02 30.56 102.02 30.704C102.02 30.768 101.988 30.864 101.924 30.992L97.4603 38.288L102.356 46.184ZM103.704 47C103.576 47 103.456 46.952 103.344 46.856C103.248 46.744 103.2 46.624 103.2 46.496C103.2 46.4 103.208 46.328 103.224 46.28L108.864 30.872C108.912 30.68 109.016 30.52 109.176 30.392C109.336 30.264 109.544 30.2 109.8 30.2H113.352C113.608 30.2 113.816 30.264 113.976 30.392C114.136 30.52 114.24 30.68 114.288 30.872L119.904 46.28L119.952 46.496C119.952 46.624 119.896 46.744 119.784 46.856C119.688 46.952 119.568 47 119.424 47H116.472C116.088 47 115.832 46.832 115.704 46.496L114.768 44.048H108.36L107.448 46.496C107.32 46.832 107.056 47 106.656 47H103.704ZM113.808 40.592L111.576 34.256L109.344 40.592H113.808ZM134.732 30.2C134.908 30.2 135.052 30.256 135.164 30.368C135.276 30.48 135.332 30.624 135.332 30.8V46.4C135.332 46.56 135.276 46.704 135.164 46.832C135.052 46.944 134.908 47 134.732 47H131.612C131.452 47 131.308 46.944 131.18 46.832C131.068 46.704 131.012 46.56 131.012 46.4V41.24H128.972L126.188 46.352C125.948 46.784 125.62 47 125.204 47H122.012C121.868 47 121.748 46.952 121.652 46.856C121.556 46.744 121.508 46.624 121.508 46.496C121.508 46.416 121.532 46.328 121.58 46.232L124.844 40.64C123.916 40.192 123.188 39.552 122.66 38.72C122.132 37.888 121.868 36.904 121.868 35.768C121.868 34.68 122.116 33.72 122.612 32.888C123.124 32.04 123.868 31.384 124.844 30.92C125.82 30.44 126.988 30.2 128.348 30.2H134.732ZM131.012 33.536H128.444C127.788 33.536 127.276 33.744 126.908 34.16C126.54 34.56 126.356 35.096 126.356 35.768C126.356 36.424 126.532 36.936 126.884 37.304C127.236 37.672 127.756 37.856 128.444 37.856H131.012V33.536Z" fill="white"/>
</svg>
