<svg width="140" height="50" viewBox="0 0 140 50" fill="none" xmlns="http://www.w3.org/2000/svg">
<path d="M51.282 25.26C48.8033 25.26 46.862 24.662 45.458 23.466C44.0713 22.2527 43.3347 20.502 43.248 18.214C43.2307 17.746 43.222 16.9833 43.222 15.926C43.222 14.8513 43.2307 14.0713 43.248 13.586C43.3347 11.3327 44.0887 9.59933 45.51 8.386C46.9313 7.15533 48.8553 6.54 51.282 6.54C52.8073 6.54 54.1767 6.8 55.39 7.32C56.6033 7.82267 57.5567 8.55067 58.25 9.504C58.9607 10.44 59.3247 11.5407 59.342 12.806V12.858C59.342 12.9967 59.2813 13.118 59.16 13.222C59.056 13.3087 58.9347 13.352 58.796 13.352H55.286C55.0607 13.352 54.8873 13.3087 54.766 13.222C54.6447 13.118 54.5407 12.936 54.454 12.676C54.2113 11.792 53.83 11.1767 53.31 10.83C52.79 10.466 52.1053 10.284 51.256 10.284C49.2107 10.284 48.1533 11.428 48.084 13.716C48.0667 14.184 48.058 14.9033 48.058 15.874C48.058 16.8447 48.0667 17.5813 48.084 18.084C48.1533 20.372 49.2107 21.516 51.256 21.516C52.1053 21.516 52.7987 21.334 53.336 20.97C53.8733 20.5887 54.246 19.9733 54.454 19.124C54.5233 18.864 54.6187 18.6907 54.74 18.604C54.8613 18.5 55.0433 18.448 55.286 18.448H58.796C58.952 18.448 59.082 18.5 59.186 18.604C59.3073 18.708 59.3593 18.838 59.342 18.994C59.3247 20.2593 58.9607 21.3687 58.25 22.322C57.5567 23.258 56.6033 23.986 55.39 24.506C54.1767 25.0087 52.8073 25.26 51.282 25.26ZM62.7259 25C62.5352 25 62.3792 24.9393 62.2579 24.818C62.1365 24.6967 62.0759 24.5407 62.0759 24.35V7.45C62.0759 7.25933 62.1365 7.10333 62.2579 6.982C62.3965 6.86067 62.5525 6.8 62.7259 6.8H77.1559C77.3465 6.8 77.5025 6.86067 77.6239 6.982C77.7452 7.10333 77.8059 7.25933 77.8059 7.45V24.35C77.8059 24.5407 77.7452 24.6967 77.6239 24.818C77.5025 24.9393 77.3465 25 77.1559 25H73.8019C73.6112 25 73.4552 24.9393 73.3339 24.818C73.2125 24.6967 73.1519 24.5407 73.1519 24.35V10.96H66.7559V24.35C66.7559 24.5407 66.6865 24.6967 66.5479 24.818C66.4265 24.9393 66.2705 25 66.0799 25H62.7259ZM97.1789 24.116C97.2309 24.1853 97.2569 24.2807 97.2569 24.402C97.2569 24.5753 97.1962 24.7227 97.0749 24.844C96.9709 24.948 96.8322 25 96.6589 25H92.8109C92.5682 25 92.3862 24.9567 92.2649 24.87C92.1609 24.7833 92.0396 24.662 91.9009 24.506L87.9229 17.876H86.1289V24.35C86.1289 24.5407 86.0596 24.6967 85.9209 24.818C85.7996 24.9393 85.6436 25 85.4529 25H82.0989C81.9082 25 81.7522 24.9393 81.6309 24.818C81.5096 24.6967 81.4489 24.5407 81.4489 24.35V7.45C81.4489 7.25933 81.5096 7.10333 81.6309 6.982C81.7696 6.86067 81.9256 6.8 82.0989 6.8H85.4529C85.6436 6.8 85.7996 6.86067 85.9209 6.982C86.0596 7.10333 86.1289 7.25933 86.1289 7.45V13.716L87.7149 13.742L91.5369 7.294C91.7276 6.96467 92.0482 6.8 92.4989 6.8H96.2689C96.4249 6.8 96.5549 6.852 96.6589 6.956C96.7629 7.06 96.8149 7.19 96.8149 7.346C96.8149 7.41533 96.7802 7.51933 96.7109 7.658L91.8749 15.562L97.1789 24.116Z" fill="white"/>
<path d="M10.494 44.406C10.542 44.454 10.566 44.532 10.566 44.64C10.566 44.736 10.53 44.82 10.458 44.892C10.386 44.964 10.29 45 10.17 45H7.632C7.416 45 7.242 44.904 7.11 44.712L5.004 41.436H4.05V44.55C4.05 44.682 4.002 44.79 3.906 44.874C3.822 44.958 3.714 45 3.582 45H1.512C1.38 45 1.272 44.958 1.188 44.874C1.104 44.79 1.062 44.682 1.062 44.55V36.09C1.062 35.958 1.104 35.85 1.188 35.766C1.272 35.682 1.38 35.64 1.512 35.64H3.582C3.714 35.64 3.822 35.682 3.906 35.766C4.002 35.85 4.05 35.958 4.05 36.09V39.078H5.04L6.966 35.928C7.098 35.736 7.266 35.64 7.47 35.64H9.774C9.882 35.64 9.972 35.676 10.044 35.748C10.128 35.82 10.17 35.904 10.17 36C10.17 36.084 10.14 36.168 10.08 36.252L7.632 40.176L10.494 44.406ZM16.0017 45.18C14.5137 45.18 13.3677 44.826 12.5637 44.118C11.7597 43.41 11.3217 42.414 11.2497 41.13C11.2377 40.974 11.2317 40.704 11.2317 40.32C11.2317 39.936 11.2377 39.666 11.2497 39.51C11.3217 38.238 11.7717 37.248 12.5997 36.54C13.4277 35.82 14.5617 35.46 16.0017 35.46C17.4537 35.46 18.5937 35.82 19.4217 36.54C20.2497 37.248 20.6997 38.238 20.7717 39.51C20.7837 39.666 20.7897 39.936 20.7897 40.32C20.7897 40.704 20.7837 40.974 20.7717 41.13C20.6997 42.414 20.2617 43.41 19.4577 44.118C18.6537 44.826 17.5017 45.18 16.0017 45.18ZM16.0017 42.984C16.5297 42.984 16.9197 42.828 17.1717 42.516C17.4237 42.192 17.5677 41.7 17.6037 41.04C17.6157 40.92 17.6217 40.68 17.6217 40.32C17.6217 39.96 17.6157 39.72 17.6037 39.6C17.5677 38.952 17.4177 38.466 17.1537 38.142C16.9017 37.818 16.5177 37.656 16.0017 37.656C15.0057 37.656 14.4777 38.304 14.4177 39.6L14.3997 40.32L14.4177 41.04C14.4417 41.7 14.5797 42.192 14.8317 42.516C15.0957 42.828 15.4857 42.984 16.0017 42.984ZM22.293 45C22.161 45 22.047 44.958 21.951 44.874C21.867 44.778 21.825 44.664 21.825 44.532V42.966C21.825 42.846 21.861 42.75 21.933 42.678C22.017 42.594 22.125 42.54 22.257 42.516C22.605 42.48 22.869 42.324 23.049 42.048C23.229 41.76 23.355 41.346 23.427 40.806C23.499 40.266 23.535 39.54 23.535 38.628V36.09C23.535 35.958 23.577 35.85 23.661 35.766C23.757 35.682 23.865 35.64 23.985 35.64H31.041C31.173 35.64 31.281 35.682 31.365 35.766C31.461 35.85 31.509 35.958 31.509 36.09V44.55C31.509 44.682 31.461 44.79 31.365 44.874C31.281 44.958 31.173 45 31.041 45H28.917C28.797 45 28.689 44.958 28.593 44.874C28.509 44.778 28.467 44.67 28.467 44.55V37.998H26.415V38.952C26.415 40.524 26.295 41.742 26.055 42.606C25.815 43.458 25.401 44.07 24.813 44.442C24.237 44.814 23.397 45 22.293 45ZM33.309 45C33.201 45 33.105 44.964 33.021 44.892C32.949 44.808 32.913 44.706 32.913 44.586C32.913 44.49 32.943 44.4 33.003 44.316L36.009 40.194L33.273 36.324C33.201 36.228 33.165 36.132 33.165 36.036C33.165 35.928 33.207 35.838 33.291 35.766C33.375 35.682 33.471 35.64 33.579 35.64H35.775C35.991 35.64 36.165 35.742 36.297 35.946L37.971 38.25L39.627 35.964C39.699 35.868 39.771 35.79 39.843 35.73C39.915 35.67 40.023 35.64 40.167 35.64H42.273C42.381 35.64 42.471 35.682 42.543 35.766C42.627 35.838 42.669 35.928 42.669 36.036C42.669 36.156 42.639 36.252 42.579 36.324L39.771 40.194L42.831 44.316C42.891 44.4 42.921 44.49 42.921 44.586C42.921 44.706 42.879 44.808 42.795 44.892C42.723 44.964 42.633 45 42.525 45H40.221C40.017 45 39.849 44.904 39.717 44.712L37.899 42.246L36.063 44.712C35.991 44.808 35.919 44.88 35.847 44.928C35.775 44.976 35.679 45 35.559 45H33.309ZM48.697 45.18C47.209 45.18 46.063 44.826 45.259 44.118C44.455 43.41 44.017 42.414 43.945 41.13C43.933 40.974 43.927 40.704 43.927 40.32C43.927 39.936 43.933 39.666 43.945 39.51C44.017 38.238 44.467 37.248 45.295 36.54C46.123 35.82 47.257 35.46 48.697 35.46C50.149 35.46 51.289 35.82 52.117 36.54C52.945 37.248 53.395 38.238 53.467 39.51C53.479 39.666 53.485 39.936 53.485 40.32C53.485 40.704 53.479 40.974 53.467 41.13C53.395 42.414 52.957 43.41 52.153 44.118C51.349 44.826 50.197 45.18 48.697 45.18ZM48.697 42.984C49.225 42.984 49.615 42.828 49.867 42.516C50.119 42.192 50.263 41.7 50.299 41.04C50.311 40.92 50.317 40.68 50.317 40.32C50.317 39.96 50.311 39.72 50.299 39.6C50.263 38.952 50.113 38.466 49.849 38.142C49.597 37.818 49.213 37.656 48.697 37.656C47.701 37.656 47.173 38.304 47.113 39.6L47.095 40.32L47.113 41.04C47.137 41.7 47.275 42.192 47.527 42.516C47.791 42.828 48.181 42.984 48.697 42.984ZM59.1969 45.18C58.1649 45.18 57.3309 45.036 56.6949 44.748C56.0709 44.448 55.6209 44.094 55.3449 43.686C55.0689 43.278 54.9069 42.864 54.8589 42.444V42.39C54.8589 42.318 54.8889 42.258 54.9489 42.21C55.0209 42.15 55.0989 42.12 55.1829 42.12H57.2709C57.3909 42.12 57.4809 42.144 57.5409 42.192C57.6129 42.228 57.6789 42.294 57.7389 42.39C57.8469 42.63 58.0209 42.804 58.2609 42.912C58.5009 43.02 58.8249 43.074 59.2329 43.074C59.6649 43.074 60.0009 42.996 60.2409 42.84C60.4809 42.672 60.6009 42.426 60.6009 42.102C60.6009 41.79 60.5049 41.556 60.3129 41.4C60.1329 41.244 59.8269 41.166 59.3949 41.166H58.3869C58.2789 41.166 58.1889 41.13 58.1169 41.058C58.0449 40.974 58.0089 40.878 58.0089 40.77V39.744C58.0089 39.636 58.0449 39.546 58.1169 39.474C58.1889 39.39 58.2789 39.348 58.3869 39.348H59.3589C59.7189 39.348 59.9829 39.282 60.1509 39.15C60.3309 39.018 60.4209 38.814 60.4209 38.538C60.4209 38.262 60.3189 38.034 60.1149 37.854C59.9109 37.674 59.5929 37.584 59.1609 37.584C58.7409 37.584 58.4349 37.644 58.2429 37.764C58.0509 37.884 57.8949 38.082 57.7749 38.358C57.7149 38.454 57.6489 38.526 57.5769 38.574C57.5049 38.61 57.4089 38.628 57.2889 38.628H55.2729C55.1769 38.628 55.0929 38.598 55.0209 38.538C54.9609 38.466 54.9369 38.388 54.9489 38.304C54.9849 37.836 55.1469 37.392 55.4349 36.972C55.7229 36.54 56.1789 36.18 56.8029 35.892C57.4269 35.604 58.2249 35.46 59.1969 35.46C60.6249 35.46 61.6689 35.712 62.3289 36.216C63.0009 36.708 63.3369 37.344 63.3369 38.124C63.3369 39.048 62.9529 39.696 62.1849 40.068C62.6889 40.248 63.0489 40.542 63.2649 40.95C63.4929 41.358 63.6069 41.826 63.6069 42.354C63.6189 43.218 63.2289 43.908 62.4369 44.424C61.6449 44.928 60.5649 45.18 59.1969 45.18ZM68.9441 46.98C68.8241 46.98 68.7161 46.938 68.6201 46.854C68.5361 46.77 68.4941 46.662 68.4941 46.53V43.092C68.4941 42.96 68.5361 42.852 68.6201 42.768C68.7161 42.684 68.8241 42.642 68.9441 42.642H69.1241C69.5681 42.63 69.8741 42.3 70.0421 41.652C70.2221 41.004 70.3121 39.996 70.3121 38.628V36.09C70.3121 35.958 70.3541 35.85 70.4381 35.766C70.5341 35.682 70.6421 35.64 70.7621 35.64H77.8361C77.9681 35.64 78.0761 35.682 78.1601 35.766C78.2561 35.85 78.3041 35.958 78.3041 36.09V42.624H79.0601C79.1921 42.624 79.3001 42.666 79.3841 42.75C79.4681 42.834 79.5101 42.942 79.5101 43.074V46.53C79.5101 46.662 79.4681 46.77 79.3841 46.854C79.3001 46.938 79.1921 46.98 79.0601 46.98H76.9361C76.8161 46.98 76.7081 46.938 76.6121 46.854C76.5281 46.77 76.4861 46.662 76.4861 46.53V45H71.5361V46.53C71.5361 46.662 71.4941 46.77 71.4101 46.854C71.3261 46.938 71.2181 46.98 71.0861 46.98H68.9441ZM75.2621 42.624V37.998H73.2101V38.952C73.2101 40.68 72.9941 41.91 72.5621 42.642L75.2621 42.624ZM81.4046 48.42C81.2846 48.42 81.1766 48.378 81.0806 48.294C80.9966 48.21 80.9546 48.102 80.9546 47.97V36.09C80.9546 35.958 80.9966 35.85 81.0806 35.766C81.1766 35.682 81.2846 35.64 81.4046 35.64H83.4386C83.5706 35.64 83.6786 35.682 83.7626 35.766C83.8466 35.85 83.8886 35.958 83.8886 36.09V36.738C84.5366 35.886 85.4666 35.46 86.6786 35.46C87.8546 35.46 88.7726 35.826 89.4326 36.558C90.0926 37.29 90.4526 38.322 90.5126 39.654C90.5246 39.81 90.5306 40.032 90.5306 40.32C90.5306 40.608 90.5246 40.83 90.5126 40.986C90.4646 42.282 90.1046 43.308 89.4326 44.064C88.7606 44.808 87.8426 45.18 86.6786 45.18C85.5026 45.18 84.6266 44.778 84.0506 43.974V47.97C84.0506 48.102 84.0086 48.21 83.9246 48.294C83.8406 48.378 83.7326 48.42 83.6006 48.42H81.4046ZM85.7066 42.768C86.2706 42.768 86.6726 42.6 86.9126 42.264C87.1646 41.928 87.3086 41.466 87.3446 40.878C87.3686 40.638 87.3806 40.452 87.3806 40.32C87.3806 40.188 87.3686 40.002 87.3446 39.762C87.3086 39.174 87.1646 38.712 86.9126 38.376C86.6726 38.04 86.2706 37.872 85.7066 37.872C85.1546 37.872 84.7466 38.046 84.4826 38.394C84.2306 38.73 84.0866 39.168 84.0506 39.708L84.0326 40.374L84.0506 41.058C84.0746 41.55 84.2246 41.958 84.5006 42.282C84.7766 42.606 85.1786 42.768 85.7066 42.768ZM100.798 35.64C100.906 35.64 100.996 35.682 101.068 35.766C101.152 35.838 101.194 35.922 101.194 36.018C101.194 36.102 101.176 36.18 101.14 36.252L97.7198 44.496C97.3358 45.396 96.9698 46.122 96.6218 46.674C96.2858 47.226 95.8778 47.658 95.3978 47.97C94.9298 48.282 94.3598 48.438 93.6878 48.438H92.8058C92.6738 48.438 92.5658 48.396 92.4818 48.312C92.3978 48.228 92.3558 48.12 92.3558 47.988V46.53C92.3558 46.398 92.3978 46.29 92.4818 46.206C92.5658 46.122 92.6738 46.08 92.8058 46.08H93.4358C93.7478 46.08 93.9878 45.99 94.1558 45.81C94.3238 45.63 94.5158 45.288 94.7318 44.784L94.8218 44.55L91.2398 36.252C91.2038 36.156 91.1858 36.084 91.1858 36.036C91.2098 35.928 91.2578 35.838 91.3298 35.766C91.4138 35.682 91.5098 35.64 91.6178 35.64H93.6338C93.8858 35.64 94.0598 35.766 94.1558 36.018L96.1898 41.22L98.3318 36.018C98.4278 35.766 98.6078 35.64 98.8718 35.64H100.798ZM117.552 44.406C117.6 44.454 117.624 44.532 117.624 44.64C117.624 44.736 117.588 44.82 117.516 44.892C117.444 44.964 117.348 45 117.228 45H114.69C114.498 45 114.324 44.904 114.168 44.712L112.062 41.436H111.234V44.55C111.234 44.682 111.192 44.79 111.108 44.874C111.024 44.958 110.916 45 110.784 45H108.714C108.582 45 108.468 44.958 108.372 44.874C108.288 44.79 108.246 44.682 108.246 44.55V41.436H107.418L105.312 44.712C105.192 44.904 105.018 45 104.79 45H102.252C102.132 45 102.036 44.964 101.964 44.892C101.892 44.82 101.856 44.736 101.856 44.64C101.856 44.556 101.88 44.478 101.928 44.406L104.826 40.158L102.342 36.252C102.282 36.132 102.252 36.048 102.252 36C102.252 35.904 102.288 35.82 102.36 35.748C102.444 35.676 102.54 35.64 102.648 35.64H104.952C105.156 35.64 105.324 35.736 105.456 35.928L107.382 39.078H108.246V36.09C108.246 35.958 108.288 35.85 108.372 35.766C108.468 35.682 108.582 35.64 108.714 35.64H110.784C110.916 35.64 111.024 35.682 111.108 35.766C111.192 35.85 111.234 35.958 111.234 36.09V39.078H112.098L114.024 35.928C114.156 35.736 114.324 35.64 114.528 35.64H116.832C116.94 35.64 117.03 35.676 117.102 35.748C117.186 35.82 117.228 35.904 117.228 36C117.228 36.084 117.198 36.168 117.138 36.252L114.654 40.158L117.552 44.406ZM128.281 40.104C128.305 40.392 128.317 40.614 128.317 40.77C128.317 40.926 128.305 41.136 128.281 41.4C128.209 42.6 127.771 43.53 126.967 44.19C126.163 44.85 125.017 45.18 123.529 45.18C121.921 45.18 120.739 44.796 119.983 44.028C119.239 43.248 118.831 42.018 118.759 40.338L118.741 39.24L118.759 38.16C118.807 36.504 119.083 35.256 119.587 34.416C120.091 33.576 120.841 32.946 121.837 32.526C122.845 32.106 124.423 31.656 126.571 31.176C126.607 31.164 126.643 31.158 126.679 31.158C126.775 31.158 126.859 31.182 126.931 31.23C127.039 31.302 127.099 31.404 127.111 31.536L127.417 33.192L127.435 33.3C127.435 33.408 127.399 33.498 127.327 33.57C127.267 33.642 127.189 33.69 127.093 33.714C125.485 34.038 124.357 34.302 123.709 34.506C123.061 34.71 122.575 35.016 122.251 35.424C121.927 35.82 121.735 36.438 121.675 37.278C121.951 36.99 122.299 36.762 122.719 36.594C123.151 36.414 123.607 36.324 124.087 36.324C125.395 36.324 126.403 36.654 127.111 37.314C127.819 37.974 128.209 38.904 128.281 40.104ZM125.113 41.328C125.125 41.232 125.131 41.046 125.131 40.77C125.131 40.482 125.125 40.284 125.113 40.176C125.053 38.94 124.561 38.322 123.637 38.322C122.557 38.322 121.987 38.94 121.927 40.176L121.909 40.77L121.927 41.328C121.951 41.952 122.089 42.42 122.341 42.732C122.605 43.032 123.001 43.182 123.529 43.182C124.045 43.182 124.429 43.032 124.681 42.732C124.945 42.42 125.089 41.952 125.113 41.328ZM132.893 45.18C132.257 45.18 131.675 45.06 131.147 44.82C130.631 44.568 130.223 44.232 129.923 43.812C129.635 43.38 129.491 42.906 129.491 42.39C129.491 41.562 129.827 40.896 130.499 40.392C131.183 39.888 132.119 39.54 133.307 39.348L135.557 39.006V38.754C135.557 38.298 135.461 37.962 135.269 37.746C135.077 37.53 134.753 37.422 134.297 37.422C134.021 37.422 133.793 37.47 133.613 37.566C133.433 37.662 133.247 37.794 133.055 37.962C132.887 38.106 132.761 38.202 132.677 38.25C132.641 38.346 132.575 38.394 132.479 38.394H130.517C130.397 38.394 130.295 38.358 130.211 38.286C130.139 38.202 130.109 38.106 130.121 37.998C130.133 37.674 130.289 37.314 130.589 36.918C130.901 36.522 131.369 36.18 131.993 35.892C132.629 35.604 133.409 35.46 134.333 35.46C135.809 35.46 136.901 35.79 137.609 36.45C138.317 37.098 138.671 37.974 138.671 39.078V44.55C138.671 44.67 138.629 44.778 138.545 44.874C138.461 44.958 138.353 45 138.221 45H136.133C136.013 45 135.905 44.958 135.809 44.874C135.725 44.778 135.683 44.67 135.683 44.55V43.92C135.419 44.292 135.047 44.598 134.567 44.838C134.099 45.066 133.541 45.18 132.893 45.18ZM133.739 43.128C134.291 43.128 134.735 42.948 135.071 42.588C135.419 42.228 135.593 41.7 135.593 41.004V40.752L134.063 41.022C132.983 41.214 132.443 41.592 132.443 42.156C132.443 42.456 132.569 42.696 132.821 42.876C133.073 43.044 133.379 43.128 133.739 43.128Z" fill="white"/>
</svg>
