<svg width="89" height="62" viewBox="0 0 89 62" fill="none" xmlns="http://www.w3.org/2000/svg">
<path d="M25.763 58.3459C25.5222 58.3994 25.2546 58.4262 25.0405 58.4262L24.9067 56.7403C25.2279 56.7135 25.5757 56.66 25.9504 56.5797C30.9812 55.4826 30.4192 45.9294 29.8037 35.8411C29.4559 29.9272 29.0812 23.826 29.8573 19.0093C30.7671 13.256 33.2022 10.1519 37.2964 9.48291C37.2964 9.48291 37.2964 9.48291 37.3232 9.48291L37.5908 11.142C30.1249 12.3462 30.8206 24.2274 31.5163 35.734C32.1853 46.5717 32.8008 56.8206 26.325 58.2388C26.1109 58.2924 25.9504 58.3191 25.763 58.3459Z" fill="#2E5D7D"/>
<g opacity="0.3">
<path opacity="0.3" d="M26.3248 59.9782C26.084 60.0317 25.8164 60.0585 25.6023 60.0585L25.4685 58.3726C25.7896 58.3459 26.1375 58.2924 26.5121 58.2121C28.0642 57.8642 29.0543 56.66 29.643 55.2685C30.6063 52.9672 30.2317 50.9335 29.4289 48.6321C28.974 47.3209 28.4388 46.0097 28.198 44.6182C27.9839 43.3605 28.0374 42.0761 27.8234 40.7648C27.3149 37.6875 26.8065 34.5834 26.3248 31.506C26.1375 30.3286 25.9502 29.1512 25.8967 27.9738C25.8164 25.4584 26.4051 22.943 27.0741 20.5078C27.2346 19.8656 27.422 19.1966 27.8501 18.6882C29.2684 16.9756 31.0613 15.6108 32.7204 14.1391C34.3259 12.7208 35.6371 11.4899 37.8582 11.1152C37.8582 11.1152 37.8582 11.1152 37.885 11.1152L38.1525 12.7743C30.6866 13.9785 31.3824 25.8598 32.0781 37.3664C32.7471 48.204 33.3626 58.4529 26.8868 59.8712C26.6995 59.9247 26.5121 59.9514 26.3248 59.9782Z" fill="#2E5D7D"/>
</g>
<path d="M71.4416 18.6342C66.8925 8.59939 53.8873 7.44873 47.2509 18.9821C46.2876 20.6412 44.2004 21.2031 42.5413 20.213C31.1149 13.4161 20.3308 20.775 21.2942 31.7464C22.097 40.8982 36.9217 53.609 51.5592 59.0679C53.9944 59.9777 56.7506 59.2552 58.4364 57.275C68.5248 45.3403 75.2147 27.01 71.4416 18.6342Z" fill="#DD392D"/>
<path d="M71.3077 15.2626C69.9965 11.4895 67.0797 8.33184 63.2263 6.9671C57.5265 4.93337 51.5592 7.39526 47.7325 11.7571C46.127 13.6035 44.8425 15.7175 43.8524 17.9653C31.0881 6.45867 17.0126 13.9781 17.5478 26.7424C17.7886 32.8436 22.6321 38.4364 26.6995 42.5306C30.4726 46.3037 34.7809 50.5852 40.1328 51.8964C56.2956 55.8301 69.8895 39.9081 71.8429 25.2439C72.1373 23.0496 72.1908 20.8286 72.0035 18.6343C71.9232 17.4836 71.6824 16.3597 71.3077 15.2626Z" fill="#F04438"/>
<path d="M62.5572 60.0847C62.2629 60.1114 61.9418 60.165 61.6207 60.165C53.2449 60.6466 50.4887 47.5344 47.8127 34.8504C45.2706 22.7551 42.6481 10.2584 35.5568 11.195L35.3428 9.5091C43.9861 8.3852 46.7691 21.6579 49.4718 34.4758C51.9872 46.4641 54.5829 58.8537 61.5136 58.4524C61.7812 58.4256 62.0756 58.3988 62.3164 58.3721L62.5572 60.0847Z" fill="#B72025"/>
<path d="M62.6376 23.8255L62.1024 23.9593C61.2996 20.7214 60.7644 17.537 60.3095 14.5934C59.7743 11.0344 60.2292 8.3317 61.6207 6.77965C62.8517 5.44167 64.484 5.25435 65.6614 5.33463L65.7417 4.21073C63.7348 4.07693 61.9954 4.71916 60.7912 6.03038C59.1321 7.82327 58.5969 10.8471 59.1856 14.7808C59.6405 17.7778 60.1757 20.989 61.0053 24.2536L60.4701 24.3874C62.8784 33.9406 66.3839 38.7306 71.2274 39.0249L71.3612 36.7771C67.6416 36.5363 64.7249 32.1745 62.6376 23.8255Z" fill="#B72025"/>
<path opacity="0.2" d="M54.0746 14.9948C54.9309 14.1385 55.8675 13.309 56.9914 12.9878C57.4998 12.8273 58.1688 12.8808 58.4632 13.416C58.6773 13.8442 58.5167 14.3793 58.2759 14.7807C57.6336 15.8511 56.483 16.3328 55.4929 17.0018C53.3521 18.42 51.6127 20.5876 49.0973 21.1228C48.6157 21.2298 48.1072 21.2566 47.6523 20.989C47.6256 20.8016 47.7326 20.6143 47.8664 20.5073C48.027 20.427 48.1875 20.4002 48.3481 20.3467C49.4184 20.0791 50.4621 19.0087 51.1846 18.1257C52.0944 17.0018 53.0845 15.9849 54.0746 14.9948Z" fill="#C1E3F9"/>
<path opacity="0.2" d="M22.98 28.5618C22.7659 29.8462 22.7927 31.1842 23.3814 32.3616C23.6222 32.8433 24.1307 33.3517 24.6391 33.1644C25.0673 33.0039 25.2011 32.4687 25.2546 32.0138C25.6292 29.3378 26.3517 26.5816 28.2249 24.6549C28.9742 23.8788 29.8572 23.2634 30.4994 22.4071C30.6332 22.2197 30.7403 22.0324 30.767 21.8184C31.1149 19.1692 26.539 22.5141 26.0574 22.9155C24.3715 24.307 23.3279 26.421 22.98 28.5618Z" fill="#C1E3F9"/>
<path opacity="0.2" d="M33.6838 21.3104C34.326 21.471 35.1555 21.4175 35.6907 21.3372C35.878 21.3104 36.0921 21.2569 36.2527 21.1766C36.4132 21.0696 36.547 20.909 36.547 20.6949C36.547 19.2767 34.4063 19.3837 33.55 19.7048C33.2556 19.8119 32.9077 19.9724 32.8007 20.2936C32.6937 20.6147 32.881 20.9625 33.1753 21.1231C33.3359 21.1766 33.4964 21.2569 33.6838 21.3104Z" fill="#C1E3F9"/>
<path d="M8.47623 29.7935C8.98467 32.0949 7.51289 34.3962 5.21157 34.9046C2.91025 35.4131 0.608921 33.9413 0.100489 31.64C-0.407942 29.3386 1.06383 27.0373 3.36516 26.5289C5.69324 25.9937 7.9678 27.4655 8.47623 29.7935Z" fill="#C1E3F9"/>
<path d="M7.59318 30.0075C7.94105 31.6398 6.92419 33.2722 5.2651 33.62C3.63276 33.9679 2.00043 32.951 1.65256 31.292C1.30468 29.6596 2.32154 28.0273 3.98064 27.6794C5.61297 27.3315 7.21854 28.3484 7.59318 30.0075Z" fill="#A2C6DB"/>
<path d="M25.0403 58.4532C19.6884 58.8546 18.3505 53.69 16.7984 47.6958C16.1294 45.1002 15.3534 42.1299 14.176 39.2398C11.9014 33.6203 9.62683 31.8542 8.1283 31.3725C6.71004 30.9176 5.71994 31.5063 5.69318 31.5331L4.75659 30.1148C4.81011 30.0613 6.38893 29.0444 8.58321 29.7134C11.3127 30.543 13.721 33.54 15.7548 38.5976C16.959 41.5947 17.735 44.5917 18.4307 47.2409C20.1166 53.69 21.1602 57.0349 24.9333 56.7406L25.0403 58.4532Z" fill="#2E5D7D"/>
<path d="M65.9823 59.2559H65.9556L65.688 57.5968H65.7147C69.7822 56.9279 73.8497 53.9843 73.2877 37.2596L74.9736 37.2061C75.4552 51.5224 72.7793 58.132 65.9823 59.2559Z" fill="#2E5D7D"/>
<g opacity="0.3">
<path opacity="0.3" d="M64.1629 57.7034H64.1361L64.0291 56.0176H64.0558C68.1768 55.7232 72.4851 53.1276 73.3681 36.4028L75.054 36.4831C74.278 50.853 71.0401 57.195 64.1629 57.7034Z" fill="#2E5D7D"/>
</g>
<path d="M65.9556 59.2555C65.6613 59.309 65.3402 59.3358 65.0191 59.3625C56.6433 60.0851 53.5392 47.0531 50.4886 34.4494C47.5986 22.4343 44.6283 10.0179 37.5637 11.1686L37.2961 9.50947C45.9127 8.11797 49.0704 21.3104 52.1477 34.0748C55.011 45.9828 57.9545 58.2922 64.8853 57.7034C65.1529 57.6767 65.4472 57.6499 65.688 57.5964L65.9556 59.2555Z" fill="#2E5D7D"/>
<g opacity="0.3">
<path opacity="0.3" d="M65.7684 60.9953C65.474 61.0488 65.1529 61.0755 64.8318 61.1023C56.4561 61.8248 53.3519 48.7929 50.3014 36.1891C47.4113 24.1741 44.441 11.7576 37.3765 12.9083L37.1089 11.2492C45.7255 9.85772 48.8831 23.0502 51.9604 35.8145C54.8237 47.7225 57.7673 60.0319 64.698 59.4432C64.9656 59.4164 65.26 59.3897 65.5008 59.3362L65.7684 60.9953Z" fill="#2E5D7D"/>
</g>
<path d="M63.1192 24.1203C62.1291 20.8824 61.4066 17.698 60.7911 14.7544C59.9883 10.8743 60.363 7.8237 61.915 5.95053C63.0389 4.58579 64.7516 3.86328 66.7585 3.86328V4.98718C65.5811 4.98718 63.9488 5.25478 62.7981 6.64628C61.4601 8.25185 61.1658 10.9813 61.8883 14.5136C62.5037 17.4304 63.1995 20.588 64.1896 23.7724L63.1192 24.1203Z" fill="#C1E3F9"/>
<path d="M83.7509 23.7723C81.0482 31.9607 77.837 36.1084 74.1442 36.0549C70.4514 36.0282 67.2938 31.8269 64.7516 23.585L62.6108 24.254C65.5276 33.6733 69.274 38.2492 74.1175 38.3027C74.5456 38.3027 74.947 38.276 75.3751 38.1957C79.6299 37.4999 83.0819 32.9776 85.8917 24.4413L83.7509 23.7723Z" fill="#2E5D7D"/>
<path d="M85.3566 24.308L84.2862 23.9601C85.3298 20.8025 86.0791 17.6448 86.7481 14.728C87.5509 11.2225 87.2833 8.49307 85.9988 6.83398C84.8749 5.41572 83.2426 5.0946 82.0652 5.0946V3.9707C84.0722 3.99746 85.758 4.74673 86.8552 6.13823C88.3804 8.06492 88.7016 11.1155 87.8185 14.9689C87.1763 17.9392 86.4002 21.0968 85.3566 24.308Z" fill="#C1E3F9"/>
<path d="M66.4207 3.28676L64.7295 3.55615L65.0999 5.88156L66.7911 5.61216L66.4207 3.28676Z" fill="#2E5D7D"/>
<path d="M71.4414 3.70233C71.4414 3.70233 71.4414 3.67557 71.4414 3.70233C71.4414 3.64882 71.4147 3.5953 71.3879 3.54178C70.933 2.52491 68.7922 2.25732 68.1768 2.2038C67.5345 2.15028 66.9726 2.39112 66.4106 3.3277L66.5177 4.02345L66.6782 4.96003L66.7853 5.65578C67.5881 6.35153 68.2035 6.43181 68.7923 6.16421C69.3542 5.92338 71.3344 4.98679 71.4414 3.88965C71.4682 3.80937 71.4682 3.75585 71.4414 3.70233Z" fill="#A2C6DB"/>
<path d="M75.5357 2.3378C75.7497 3.67577 74.0371 5.06727 71.7358 5.4419C69.4345 5.81654 67.374 5.01375 67.1599 3.67577C66.9458 2.3378 68.6585 0.946298 70.9598 0.571664C73.2611 0.19703 75.3216 0.999817 75.5357 2.3378Z" fill="#C1E3F9"/>
<path d="M82.1555 5.60702L83.8501 5.85449L84.1904 3.52438L82.4958 3.27691L82.1555 5.60702Z" fill="#2E5D7D"/>
<path d="M77.4626 3.72959C77.4626 3.67607 77.4894 3.62255 77.5162 3.56903C77.9443 2.55217 80.1118 2.25781 80.7273 2.17753C81.3695 2.09726 81.9315 2.36485 82.4935 3.27468L82.3864 3.97043L82.2526 4.93377L82.1456 5.62952C81.3428 6.35203 80.7273 6.4323 80.1386 6.16471C79.5766 5.92387 77.5964 5.01405 77.4626 3.91691C77.4626 3.86339 77.4626 3.78311 77.4626 3.72959Z" fill="#A2C6DB"/>
<path d="M81.7911 3.66567C81.9875 2.32028 80.2619 0.95437 77.9367 0.614817C75.6115 0.275265 73.5673 1.09065 73.3709 2.43604C73.1744 3.78142 74.9001 5.14733 77.2252 5.48688C79.5504 5.82644 81.5946 5.01105 81.7911 3.66567Z" fill="#C1E3F9"/>
<path d="M6.9775 30.1147C7.29861 31.5865 6.36203 33.0582 4.89025 33.3794C3.41847 33.7005 1.9467 32.7639 1.62558 31.2921C1.30447 29.8203 2.24105 28.3486 3.71283 28.0274C5.18461 27.7063 6.62962 28.6429 6.9775 30.1147Z" fill="#2E5D7D"/>
<path opacity="0.2" d="M5.3184 32.2284C3.84662 32.5495 2.37485 31.613 2.05373 30.1412C1.97346 29.8201 1.97345 29.4989 2.02697 29.2046C1.62558 29.7933 1.46502 30.5426 1.65234 31.2918C1.97346 32.7636 3.44523 33.7002 4.91701 33.3791C6.06767 33.1115 6.89722 32.1749 7.05777 31.051C6.62962 31.6397 6.04091 32.0679 5.3184 32.2284Z" fill="#C1E3F9"/>
</svg>
