<svg width="67" height="76" viewBox="0 0 67 76" fill="none" xmlns="http://www.w3.org/2000/svg">
<path d="M56.2369 22.5702L45.0197 12.7484C44.929 12.669 44.8236 12.6083 44.7094 12.5697C44.5952 12.5311 44.4745 12.5155 44.3542 12.5236C44.234 12.5317 44.1165 12.5634 44.0085 12.6169C43.9005 12.6705 43.8041 12.7448 43.7249 12.8356L2.07203 60.4102C0.611168 62.08 -0.126787 64.2616 0.020405 66.4754C0.167597 68.6891 1.18789 70.7538 2.85696 72.2155C3.68392 72.9397 4.64544 73.494 5.68662 73.8466C6.72779 74.1992 7.82822 74.3433 8.92508 74.2706C10.0219 74.1979 11.0937 73.9099 12.0793 73.423C13.0648 72.9361 13.9448 72.2598 14.669 71.4328L56.3219 23.8627C56.4818 23.6799 56.5626 23.4412 56.5467 23.1989C56.5308 22.9565 56.4193 22.7304 56.2369 22.5702Z" fill="#B6EFEF"/>
<path d="M45.3842 34.9637L34.1693 25.142C34.0786 25.0626 33.9731 25.0019 33.859 24.9633C33.7448 24.9247 33.6241 24.909 33.5038 24.9171C33.3836 24.9252 33.2661 24.9569 33.1581 25.0105C33.0501 25.0641 32.9537 25.1384 32.8745 25.2292L2.07203 60.4103C0.611168 62.0801 -0.126787 64.2617 0.020405 66.4755C0.167597 68.6892 1.18789 70.7539 2.85696 72.2156C3.68392 72.9398 4.64544 73.4941 5.68662 73.8467C6.72779 74.1993 7.82822 74.3434 8.92508 74.2707C10.0219 74.198 11.0937 73.91 12.0793 73.4231C13.0648 72.9362 13.9448 72.2599 14.669 71.4329L45.4715 36.2563C45.5508 36.1658 45.6115 36.0605 45.65 35.9465C45.6886 35.8325 45.7042 35.712 45.6961 35.5919C45.688 35.4718 45.6563 35.3545 45.6028 35.2467C45.5493 35.1389 45.475 35.0428 45.3842 34.9637Z" fill="#EF4576"/>
<path d="M34.6162 25.5308L44.9457 34.5736L14.3748 69.4944C13.3072 70.714 11.7987 71.4596 10.1813 71.567C8.56396 71.6744 6.97016 71.1349 5.75054 70.0673L4.61983 69.0774C4.01594 68.5487 3.52209 67.9063 3.16648 67.1868C2.81087 66.4672 2.60045 65.6847 2.54726 64.8839C2.49407 64.083 2.59914 63.2796 2.85647 62.5193C3.11379 61.7591 3.51833 61.057 4.047 60.4531L34.6179 25.5322L34.6162 25.5308Z" fill="#F04438"/>
<path d="M46.3037 35.3059C46.8739 34.6544 44.5203 31.6612 41.0466 28.6202C37.573 25.5793 34.2948 23.6422 33.7245 24.2936C33.1542 24.9451 35.5078 27.9383 38.9815 30.9793C42.4551 34.0202 45.7334 35.9573 46.3037 35.3059Z" fill="#D62D30"/>
<path d="M55.0339 23.0467L13.533 70.4557C12.3242 71.7908 10.6393 72.5974 8.84134 72.7016C7.04339 72.8059 5.27648 72.1995 3.92146 71.0132C2.56644 69.8268 1.73184 68.1556 1.59758 66.3596C1.46331 64.5637 2.04012 62.7869 3.20368 61.4122L44.7045 14.0032L55.0339 23.0467ZM57.1583 22.9058L44.5636 11.8765L2.07435 60.4037C1.34985 61.2305 0.795361 62.192 0.442577 63.2332C0.0897922 64.2744 -0.0543747 65.3749 0.0183116 66.4719C0.0909979 67.5688 0.379114 68.6407 0.866197 69.6262C1.35328 70.6118 2.02978 71.4917 2.85705 72.2157C3.68402 72.9399 4.64553 73.4942 5.68671 73.8468C6.72788 74.1994 7.82831 74.3435 8.92517 74.2708C10.022 74.1981 11.0938 73.9101 12.0794 73.4232C13.0649 72.9363 13.9449 72.26 14.6691 71.433L57.1583 22.9058Z" fill="#D2FAFB"/>
<g style="mix-blend-mode:hard-light" opacity="0.13">
<g style="mix-blend-mode:hard-light" opacity="0.13">
<path d="M51.371 18.321L46.3349 13.8999L0.0439453 66.7722C0.257235 68.8778 1.26289 70.8235 2.85718 72.2153C3.1054 72.4332 3.3668 72.6356 3.63988 72.8213L51.371 18.321Z" fill="white"/>
</g>
</g>
<g style="mix-blend-mode:hard-light" opacity="0.13">
<g style="mix-blend-mode:hard-light" opacity="0.13">
<path d="M4.97705 73.58C5.51909 73.8191 6.08508 73.9998 6.66544 74.1189L53.7256 20.37L52.5002 19.2988L4.97705 73.58Z" fill="white"/>
</g>
</g>
<path d="M65.6963 14.3875L51.8784 2.2915L42.9936 12.4397C42.9745 12.4621 42.9573 12.486 42.9422 12.5113C42.925 12.5228 42.9093 12.5363 42.8952 12.5515C42.2691 13.2671 44.8542 16.5545 48.6715 19.8955C52.4889 23.2365 56.087 25.3632 56.7221 24.6476C56.7359 24.6301 56.7478 24.6114 56.7579 24.5917C56.7791 24.575 56.7993 24.557 56.8183 24.538L65.6963 14.3875Z" fill="#9576B7"/>
<path d="M65.6945 14.3882C66.3209 13.6726 63.7355 10.3847 59.9199 7.04437C56.1043 3.70405 52.5033 1.57625 51.8769 2.29179C51.2505 3.00734 53.8358 6.29527 57.6515 9.63559C61.4671 12.9759 65.0681 15.1037 65.6945 14.3882Z" fill="#604F77"/>
<path d="M64.3122 12.9075C64.7281 12.4334 62.6506 9.93551 59.6719 7.32801C56.6932 4.72051 53.9426 2.99187 53.5288 3.46596C53.1151 3.94005 55.1904 6.44021 58.1691 9.05665C61.1478 11.6731 63.8985 13.3838 64.3122 12.9075Z" fill="#9576B7"/>
<path d="M54.8103 5.72644C55.8541 6.90602 56.9747 8.01539 58.1647 9.04731C59.345 10.095 60.5942 11.0625 61.9038 11.9433L62.4718 11.2948L55.3694 5.07568L54.8103 5.72644Z" fill="#604F77"/>
<path d="M62.4718 11.2949C62.7446 10.9841 61.376 9.33818 59.417 7.62072C57.458 5.90326 55.6444 4.76723 55.3693 5.07807C55.0943 5.38891 56.4651 7.03705 58.4263 8.75227C60.3876 10.4675 62.19 11.6125 62.4718 11.2949Z" fill="#8267A5"/>
<path d="M56.7558 24.5828C56.7763 24.5653 56.7957 24.5466 56.814 24.5269L57.6705 23.5474L57.1561 23.4467C57.1069 23.4373 57.061 23.4149 57.0232 23.382C56.9854 23.349 56.957 23.3067 56.9409 23.2592C56.9247 23.2117 56.9215 23.1608 56.9314 23.1117C56.9413 23.0625 56.964 23.0169 56.9973 22.9794L63.9298 15.0629C63.9827 15.0001 64.0088 14.9191 64.0025 14.8372C63.9962 14.7554 63.958 14.6792 63.8961 14.6253C63.8342 14.5713 63.7536 14.5438 63.6717 14.5487C63.5897 14.5536 63.513 14.5905 63.4579 14.6515L56.2415 22.9011C56.1997 22.949 56.1433 22.9817 56.081 22.9942C56.0188 23.0068 55.9541 22.9984 55.8971 22.9704L55.7741 22.9078C55.735 22.8878 55.701 22.8591 55.6747 22.8239C55.6484 22.7888 55.6305 22.7481 55.6223 22.7049C55.6141 22.6618 55.6159 22.6174 55.6274 22.575C55.639 22.5327 55.6601 22.4935 55.6891 22.4605L62.749 14.3943C62.7798 14.3641 62.804 14.3279 62.8201 14.2879C62.8362 14.248 62.8439 14.2051 62.8427 14.162C62.8415 14.1189 62.8314 14.0766 62.813 14.0376C62.7947 13.9986 62.7685 13.9638 62.7361 13.9354C62.7037 13.907 62.6657 13.8856 62.6247 13.8725C62.5836 13.8594 62.5403 13.855 62.4974 13.8594C62.4545 13.8639 62.413 13.8772 62.3755 13.8984C62.338 13.9196 62.3053 13.9484 62.2794 13.9828L55.0562 22.2324C55.012 22.2842 54.9506 22.3183 54.8833 22.3286C54.8159 22.3388 54.7472 22.3246 54.6895 22.2884L54.5754 22.219C54.538 22.197 54.5061 22.1668 54.482 22.1307C54.4579 22.0946 54.4423 22.0535 54.4362 22.0105C54.4302 21.9675 54.434 21.9237 54.4472 21.8824C54.4605 21.8411 54.4829 21.8032 54.5128 21.7718L61.5996 13.6742C61.6303 13.644 61.6546 13.6078 61.6707 13.5678C61.6868 13.5279 61.6945 13.485 61.6933 13.4419C61.692 13.3988 61.6819 13.3565 61.6636 13.3175C61.6453 13.2785 61.619 13.2437 61.5866 13.2153C61.5542 13.1869 61.5163 13.1655 61.4752 13.1524C61.4341 13.1393 61.3908 13.1349 61.3479 13.1394C61.3051 13.1438 61.2636 13.1571 61.2261 13.1783C61.1886 13.1995 61.1559 13.2283 61.13 13.2627L53.9336 21.4833C53.8873 21.5366 53.823 21.5711 53.7529 21.5802C53.6828 21.5892 53.6119 21.5723 53.5535 21.5325L53.4439 21.4565C53.4109 21.433 53.3831 21.4029 53.3624 21.3681C53.3417 21.3332 53.3285 21.2945 53.3237 21.2543C53.3189 21.2141 53.3225 21.1733 53.3343 21.1345C53.3461 21.0958 53.366 21.06 53.3925 21.0293L60.4501 12.9653C60.4976 12.9022 60.5194 12.8235 60.5112 12.7449C60.503 12.6664 60.4655 12.5939 60.4061 12.5418C60.3467 12.4898 60.2699 12.4621 60.191 12.4643C60.112 12.4666 60.0369 12.4985 59.9805 12.5538L52.849 20.7006C52.8014 20.7554 52.7347 20.7901 52.6624 20.7976C52.5902 20.805 52.5178 20.7848 52.4599 20.7409L52.3548 20.6626C52.3232 20.6386 52.2969 20.6084 52.2775 20.5739C52.258 20.5393 52.246 20.5011 52.242 20.4616C52.238 20.4222 52.2422 20.3823 52.2543 20.3446C52.2664 20.3068 52.2861 20.2719 52.3123 20.2422L59.4505 12.0887C59.5034 12.0259 59.5295 11.9448 59.5232 11.863C59.5169 11.7811 59.4787 11.705 59.4168 11.651C59.355 11.5971 59.2744 11.5696 59.1924 11.5745C59.1104 11.5794 59.0337 11.6163 58.9787 11.6772L51.7957 19.8866C51.7469 19.9428 51.6781 19.9779 51.6039 19.9846C51.5297 19.9913 51.4558 19.969 51.3977 19.9224L51.2971 19.8419C51.2669 19.8173 51.242 19.7868 51.2238 19.7524C51.2056 19.718 51.1945 19.6803 51.1911 19.6415C51.1878 19.6027 51.1923 19.5636 51.2043 19.5266C51.2164 19.4895 51.2357 19.4553 51.2613 19.4259L58.4487 11.2165C58.5016 11.1538 58.5277 11.0727 58.5214 10.9908C58.5151 10.909 58.4769 10.8329 58.415 10.7789C58.3531 10.7249 58.2725 10.6974 58.1905 10.7023C58.1086 10.7072 58.0318 10.7441 57.9768 10.8051L50.7693 19.039C50.7193 19.0962 50.6487 19.1313 50.5729 19.1368C50.4971 19.1422 50.4222 19.1176 50.3645 19.0681L50.2661 18.9854C50.2371 18.9603 50.2133 18.9298 50.1961 18.8955C50.1789 18.8613 50.1687 18.8239 50.166 18.7857C50.1633 18.7474 50.1682 18.709 50.1804 18.6727C50.1926 18.6363 50.2118 18.6028 50.2371 18.5739L57.4468 10.3399C57.4997 10.2771 57.5258 10.1961 57.5195 10.1142C57.5132 10.0323 57.475 9.95623 57.4131 9.90227C57.3513 9.84831 57.2707 9.82081 57.1887 9.82571C57.1067 9.83061 57.03 9.86751 56.975 9.92845L49.7674 18.1624C49.7421 18.1911 49.7113 18.2146 49.6769 18.2314C49.6425 18.2482 49.6051 18.258 49.5668 18.2603C49.5286 18.2625 49.4903 18.2573 49.4541 18.2447C49.4179 18.2321 49.3846 18.2125 49.356 18.187L49.2598 18.102C49.2317 18.077 49.2089 18.0466 49.1925 18.0127C49.1762 17.9787 49.1667 17.9419 49.1646 17.9043C49.1626 17.8667 49.1679 17.8291 49.1804 17.7935C49.1929 17.758 49.2123 17.7253 49.2374 17.6973L56.445 9.46331C56.4757 9.43312 56.4999 9.39691 56.516 9.35693C56.5322 9.31696 56.5399 9.27409 56.5386 9.23101C56.5374 9.18793 56.5273 9.14556 56.509 9.10656C56.4906 9.06757 56.4644 9.03277 56.432 9.00437C56.3996 8.97597 56.3617 8.95456 56.3206 8.9415C56.2795 8.92844 56.2362 8.92399 56.1933 8.92845C56.1505 8.9329 56.109 8.94616 56.0715 8.96739C56.034 8.98862 56.0012 9.01737 55.9753 9.05183L48.788 17.259C48.7626 17.2886 48.7315 17.3127 48.6964 17.3299C48.6614 17.347 48.6233 17.3569 48.5843 17.3588C48.5454 17.3606 48.5065 17.3545 48.4699 17.3408C48.4334 17.3271 48.4001 17.3061 48.372 17.2791L48.2781 17.1896C48.2233 17.1385 48.1908 17.068 48.1874 16.9931C48.1841 16.9183 48.2102 16.8451 48.2602 16.7893L55.4431 8.58669C55.4718 8.5561 55.494 8.52006 55.5085 8.48071C55.523 8.44136 55.5294 8.39951 55.5274 8.35763C55.5254 8.31574 55.515 8.27469 55.4969 8.2369C55.4787 8.19911 55.4531 8.16536 55.4217 8.13764C55.3902 8.10993 55.3535 8.08881 55.3137 8.07555C55.2739 8.06229 55.2319 8.05716 55.1901 8.06045C55.1483 8.06375 55.1076 8.07541 55.0704 8.09474C55.0332 8.11407 55.0002 8.14067 54.9735 8.17298L47.8353 16.3264C47.8092 16.3564 47.7773 16.3806 47.7414 16.3976C47.7056 16.4146 47.6666 16.4241 47.6269 16.4253C47.5872 16.4266 47.5477 16.4196 47.5109 16.4049C47.474 16.3902 47.4406 16.3681 47.4126 16.3399L47.321 16.2482C47.2701 16.1959 47.2407 16.1265 47.2386 16.0536C47.2365 15.9807 47.2619 15.9096 47.3098 15.8546L54.4413 7.70783C54.472 7.67764 54.4962 7.64143 54.5123 7.60146C54.5285 7.56149 54.5361 7.51862 54.5349 7.47553C54.5337 7.43245 54.5236 7.39009 54.5053 7.35109C54.4869 7.31209 54.4607 7.2773 54.4283 7.24889C54.3959 7.22049 54.358 7.19909 54.3169 7.18602C54.2758 7.17296 54.2325 7.16851 54.1896 7.17297C54.1467 7.17742 54.1053 7.19068 54.0678 7.21192C54.0303 7.23315 53.9975 7.26189 53.9716 7.29635L46.9117 15.3604C46.8849 15.3908 46.8518 15.4152 46.8148 15.4319C46.7778 15.4486 46.7376 15.4573 46.697 15.4573C46.6564 15.4573 46.6163 15.4486 46.5793 15.4319C46.5423 15.4152 46.5092 15.3908 46.4824 15.3604C46.4511 15.3291 46.422 15.2955 46.3929 15.2642C46.346 15.2111 46.3202 15.1427 46.3202 15.0719C46.3202 15.0011 46.346 14.9327 46.3929 14.8796L53.5892 6.65902C53.6367 6.59588 53.6585 6.51717 53.6503 6.43863C53.6421 6.3601 53.6046 6.28755 53.5452 6.23552C53.4858 6.18349 53.409 6.15582 53.3301 6.15805C53.2511 6.16027 53.176 6.19224 53.1196 6.24754L46.0306 14.3451C46.0033 14.3779 45.9692 14.4044 45.9305 14.4225C45.8919 14.4407 45.8497 14.4501 45.807 14.4501C45.7643 14.4501 45.7221 14.4407 45.6835 14.4225C45.6448 14.4044 45.6107 14.3779 45.5834 14.3451L45.4984 14.24C45.4545 14.1877 45.4305 14.1215 45.4305 14.0533C45.4305 13.985 45.4545 13.9189 45.4984 13.8665L52.7216 5.61915C52.769 5.55601 52.7908 5.4773 52.7826 5.39877C52.7745 5.32024 52.7369 5.24769 52.6776 5.19565C52.6182 5.14362 52.5413 5.11595 52.4624 5.11818C52.3835 5.12041 52.3083 5.15237 52.2519 5.20767L45.1943 13.2784C45.1651 13.3097 45.1293 13.3341 45.0896 13.35C45.0498 13.3659 45.007 13.3728 44.9643 13.3702C44.9216 13.3677 44.88 13.3557 44.8424 13.3352C44.8048 13.3147 44.7723 13.2861 44.747 13.2516C44.7202 13.2158 44.6956 13.1778 44.6687 13.1397C44.6335 13.0867 44.6168 13.0235 44.6213 12.96C44.6257 12.8965 44.6511 12.8363 44.6933 12.7886L51.9031 4.54797C51.9505 4.48484 51.9723 4.40612 51.9642 4.32759C51.956 4.24906 51.9185 4.17651 51.8591 4.12448C51.7997 4.07245 51.7228 4.04477 51.6439 4.047C51.565 4.04923 51.4898 4.08119 51.4335 4.1365L44.501 12.044C44.4682 12.0821 44.4259 12.111 44.3785 12.1278C44.331 12.1446 44.28 12.1486 44.2305 12.1396C44.181 12.1306 44.1347 12.1087 44.0962 12.0762C44.0578 12.0438 44.0285 12.0018 44.0113 11.9545C43.9017 11.6347 43.8995 11.3932 44.0225 11.2523C44.0366 11.2372 44.0523 11.2237 44.0694 11.2121C44.0837 11.1869 44.1002 11.1629 44.1186 11.1405L42.9848 12.4353C42.9664 12.4582 42.9493 12.4821 42.9334 12.5069C42.9174 12.5191 42.9025 12.5326 42.8887 12.5471C42.2625 13.2627 44.8476 16.5523 48.6627 19.8911C52.4778 23.2298 56.0805 25.361 56.7133 24.6454C56.73 24.6263 56.7443 24.6053 56.7558 24.5828Z" fill="#8267A5"/>
<path d="M13.0454 7.14648H11.4375V13.1978H13.0454V7.14648Z" fill="#604F77"/>
<path d="M14.3717 6.24507C14.3717 5.61221 13.4168 5.1001 12.2405 5.1001C11.0642 5.1001 10.1116 5.61221 10.1116 6.24507C10.1116 6.87794 11.0642 7.39228 12.2405 7.39228C13.4168 7.39228 14.3717 6.86676 14.3717 6.24507Z" fill="#604F77"/>
<path d="M12.2407 6.09811C12.9274 6.09811 13.4841 5.91689 13.4841 5.69334C13.4841 5.46979 12.9274 5.28857 12.2407 5.28857C11.554 5.28857 10.9973 5.46979 10.9973 5.69334C10.9973 5.91689 11.554 6.09811 12.2407 6.09811Z" fill="#FF5A81"/>
<path d="M3.70801 28.2888L4.96216 29.2856L8.71401 24.5656L7.45986 23.5687L3.70801 28.2888Z" fill="#604F77"/>
<path d="M2.17949 27.9957C1.78591 28.4899 2.2108 29.4851 3.13215 30.2186C4.05349 30.9521 5.11572 31.1444 5.51154 30.6502C5.90736 30.156 5.478 29.1608 4.55889 28.4273C3.63978 27.6938 2.57531 27.5015 2.17949 27.9957Z" fill="#604F77"/>
<path d="M2.53488 28.9703C2.39623 29.1447 2.71825 29.6412 3.25496 30.0616C3.79166 30.482 4.33955 30.6944 4.4782 30.52C4.61685 30.3456 4.29483 29.8491 3.75812 29.4309C3.22141 29.0128 2.67353 28.7958 2.53488 28.9703Z" fill="#FF5A81"/>
<path d="M22.2404 26.803L23.1743 25.4941L18.2484 21.9792L17.3145 23.2881L22.2404 26.803Z" fill="#604F77"/>
<path d="M22.2143 28.4112C22.7286 28.7779 23.6992 28.3016 24.3835 27.3423C25.0678 26.3829 25.2019 25.3117 24.6876 24.945C24.1733 24.5782 23.2005 25.0545 22.5184 26.0117C21.8364 26.9688 21.6977 28.0444 22.2143 28.4112Z" fill="#604F77"/>
<path d="M23.1693 28.0043C23.3504 28.134 23.8223 27.7807 24.2204 27.2283C24.6184 26.6759 24.7951 26.1102 24.6139 25.9805C24.4328 25.8508 23.961 26.2041 23.5629 26.7587C23.1648 27.3133 22.9882 27.8746 23.1693 28.0043Z" fill="#FF5A81"/>
<path d="M21.9587 13.8645L21.2551 12.7378L17.0137 15.3861L17.7172 16.5128L21.9587 13.8645Z" fill="#604F77"/>
<path d="M23.1781 14.3943C23.6254 14.117 23.565 13.2247 23.0484 12.3995C22.5319 11.5743 21.7581 11.1316 21.3153 11.4089C20.8725 11.6861 20.9284 12.5784 21.4428 13.4036C21.9571 14.2288 22.7354 14.6716 23.1781 14.3943Z" fill="#604F77"/>
<path d="M23.1691 13.5355C23.3256 13.4371 23.2094 12.9698 22.9097 12.489C22.61 12.0082 22.2388 11.6951 22.0823 11.7935C21.9257 11.8919 22.042 12.3593 22.3439 12.8423C22.6458 13.3253 23.0148 13.625 23.1691 13.5355Z" fill="#FF5A81"/>
<path d="M3.15781 14.0054L2.55615 14.8672L5.80169 17.133L6.40335 16.2712L3.15781 14.0054Z" fill="#604F77"/>
<path d="M3.16577 12.9545C2.82586 12.7174 2.19299 13.035 1.75245 13.6679C1.3119 14.3007 1.22916 15.0096 1.56907 15.2332C1.90899 15.4569 2.54185 15.1505 2.9824 14.5199C3.42294 13.8892 3.50345 13.1915 3.16577 12.9545Z" fill="#604F77"/>
<path d="M2.54169 13.2248C2.42317 13.1421 2.1168 13.3724 1.87081 13.7414C1.62482 14.1104 1.50182 14.4749 1.62258 14.5599C1.74334 14.6449 2.04747 14.4123 2.29346 14.0433C2.53946 13.6743 2.66245 13.3098 2.54169 13.2248Z" fill="#FF5A81"/>
<path d="M13.4712 29.7728L14.5107 29.6177L13.9264 25.7028L12.8868 25.858L13.4712 29.7728Z" fill="#604F77"/>
<path d="M12.6965 30.4934C12.7569 30.9027 13.4233 31.1442 14.1859 31.0301C14.9485 30.9161 15.5143 30.4912 15.4516 30.0819C15.389 29.6727 14.7248 29.4334 13.9645 29.5475C13.2042 29.6615 12.6362 30.0842 12.6965 30.4934Z" fill="#604F77"/>
<path d="M13.3231 30.7594C13.3454 30.9025 13.7234 30.9674 14.1661 30.9003C14.6089 30.8332 14.9533 30.6633 14.9309 30.5179C14.9086 30.3725 14.5329 30.3122 14.0879 30.377C13.6428 30.4419 13.3007 30.6208 13.3231 30.7594Z" fill="#FF5A81"/>
<path d="M2.74514 21.4999L2.9043 22.3164L5.98164 21.7166L5.82248 20.9L2.74514 21.4999Z" fill="#604F77"/>
<path d="M2.14815 20.9108C1.82612 20.9734 1.66064 21.5101 1.77692 22.1072C1.89321 22.7043 2.24878 23.1403 2.5708 23.0777C2.89283 23.0151 3.05831 22.4784 2.94202 21.8813C2.82574 21.2842 2.48135 20.8482 2.14815 20.9108Z" fill="#604F77"/>
<path d="M1.96021 21.4164C1.84616 21.4387 1.81038 21.7384 1.87747 22.0872C1.94456 22.4361 2.1011 22.7022 2.2062 22.6798C2.31131 22.6575 2.35827 22.3578 2.28895 22.009C2.21962 21.6601 2.07426 21.394 1.96021 21.4164Z" fill="#FF5A81"/>
<path d="M13.4034 26.4993C17.314 25.8554 19.9622 22.1632 19.3183 18.2525C18.6744 14.3419 14.9822 11.6936 11.0716 12.3375C7.16094 12.9814 4.51271 16.6736 5.15661 20.5843C5.8005 24.4949 9.4927 27.1432 13.4034 26.4993Z" fill="#604F77"/>
<path d="M13.3467 26.2243C17.1089 25.6136 19.6636 22.0687 19.053 18.3066C18.4423 14.5444 14.8974 11.9896 11.1352 12.6003C7.37307 13.211 4.8183 16.7559 5.42898 20.518C6.03967 24.2802 9.58456 26.835 13.3467 26.2243Z" fill="#604F77"/>
<path d="M12.2405 12.5068C10.868 12.5042 9.52584 12.9108 8.3856 13.6748C7.24537 14.4388 6.35886 15.5255 5.83936 16.7959C5.31986 18.0663 5.19098 19.4628 5.46919 20.8068C5.7474 22.1509 6.42007 23.3814 7.40121 24.3412C7.72519 24.3691 8.05152 24.3488 8.36952 24.2808C9.1947 24.0863 9.43846 23.2879 9.61512 22.55C9.68668 22.2525 9.73365 21.7539 9.91479 21.5146C10.3128 20.989 10.9301 20.8862 11.516 20.9376C12.1019 20.989 12.5558 21.0405 13.0948 20.8347C13.4712 20.6988 13.801 20.4583 14.0454 20.1414C14.2899 19.8244 14.4387 19.4443 14.4746 19.0457C14.5439 18.0551 13.8149 17.5318 13.2424 16.8542C12.6699 16.1766 13.0635 15.3447 13.8864 15.2441C14.1391 15.2127 14.3963 15.2195 14.6467 15.177C15.1195 15.1095 15.5654 14.9155 15.9371 14.6157C16.1549 14.4354 16.3428 14.2218 16.4939 13.9828C15.2821 13.0272 13.7838 12.5073 12.2405 12.5068Z" fill="#8267A5"/>
<path d="M17.1402 17.8136C17.0083 17.628 16.845 17.4491 16.7175 17.2411C16.5163 16.9191 16.6214 16.6686 16.8204 16.3846C16.962 16.1811 17.0263 15.9336 17.0015 15.6869C16.9837 15.3358 16.8517 14.9132 16.4246 14.9266C16.2898 14.9367 16.1611 14.9874 16.0556 15.0719C15.7671 15.2956 15.5837 15.669 15.2371 15.8054C14.8905 15.9418 14.488 15.8256 14.119 15.8815C14.072 15.8833 14.026 15.8955 13.9842 15.9171C13.9425 15.9388 13.906 15.9694 13.8775 16.0067C13.8598 16.0413 13.8506 16.0796 13.8506 16.1185C13.8506 16.1574 13.8598 16.1957 13.8775 16.2303C14.081 16.6485 14.5707 16.9012 14.8547 17.2724C15.0568 17.5547 15.1796 17.886 15.2103 18.2318C15.2112 18.4593 15.2459 18.6854 15.3132 18.9027C15.3869 19.0834 15.5134 19.2377 15.6762 19.3454C15.8389 19.4531 16.0304 19.5092 16.2256 19.5065C16.4711 19.5114 16.7116 19.4361 16.9106 19.2921C17.1095 19.148 17.2561 18.943 17.328 18.7081C17.373 18.5551 17.3794 18.3933 17.3466 18.2372C17.3138 18.0812 17.2429 17.9356 17.1402 17.8136Z" fill="#8267A5"/>
<path d="M40.7687 54.0815H39.5588V58.6346H40.7687V54.0815Z" fill="#604F77"/>
<path d="M41.7637 53.3974C41.7637 52.9211 41.0458 52.5342 40.1625 52.5342C39.2792 52.5342 38.5591 52.9211 38.5591 53.3974C38.5591 53.8737 39.2769 54.2584 40.1625 54.2584C41.0481 54.2584 41.7637 53.8782 41.7637 53.3974Z" fill="#604F77"/>
<path d="M41.0976 52.9835C41.0976 52.8158 40.6794 52.6816 40.1628 52.6816C39.6462 52.6816 39.228 52.8158 39.228 52.9835C39.228 53.1513 39.6462 53.2877 40.1628 53.2877C40.6794 53.2877 41.0976 53.1557 41.0976 52.9835Z" fill="#FF5A81"/>
<path d="M33.8042 69.8499L34.7502 70.604L37.5883 67.0437L36.6423 66.2896L33.8042 69.8499Z" fill="#604F77"/>
<path d="M32.5928 69.7557C32.2976 70.1292 32.6174 70.8739 33.3084 71.4285C33.9994 71.9831 34.8023 72.1262 35.0974 71.7527C35.3926 71.3793 35.0728 70.6346 34.3818 70.0822C33.6908 69.5299 32.8947 69.3935 32.5928 69.7557Z" fill="#604F77"/>
<path d="M32.8614 70.5003C32.7563 70.6322 33 70.999 33.4025 71.321C33.8051 71.643 34.2188 71.7973 34.3239 71.6654C34.429 71.5335 34.1852 71.1667 33.7827 70.8447C33.3802 70.5227 32.9665 70.3684 32.8614 70.5003Z" fill="#FF5A81"/>
<path d="M47.684 68.8681L48.3867 67.8833L44.6805 65.2387L43.9777 66.2235L47.684 68.8681Z" fill="#604F77"/>
<path d="M47.6543 70.0795C48.0434 70.3545 48.7724 69.9945 49.2868 69.2744C49.8011 68.5543 49.904 67.747 49.5104 67.4697C49.1168 67.1924 48.3923 67.5547 47.8779 68.2748C47.3636 68.9949 47.2764 69.8022 47.6543 70.0795Z" fill="#604F77"/>
<path d="M48.3831 69.7736C48.5196 69.8698 48.8729 69.6081 49.1748 69.1877C49.4767 68.7673 49.6064 68.3491 49.47 68.2507C49.3336 68.1523 48.978 68.4139 48.6783 68.8344C48.3787 69.2548 48.2467 69.6752 48.3831 69.7736Z" fill="#FF5A81"/>
<path d="M47.4701 59.1355L46.9407 58.2876L43.7501 60.2797L44.2795 61.1276L47.4701 59.1355Z" fill="#604F77"/>
<path d="M48.3898 59.5339C48.723 59.326 48.6805 58.6551 48.2936 58.0356C47.9067 57.4162 47.3208 57.0807 46.9876 57.2887C46.6544 57.4967 46.6969 58.1698 47.0838 58.7892C47.4707 59.4087 48.0566 59.7441 48.3898 59.5339Z" fill="#604F77"/>
<path d="M48.3834 58.8895C48.5019 58.8158 48.4147 58.4624 48.1866 58.1001C47.9585 57.7379 47.6834 57.5053 47.5649 57.5791C47.4464 57.6529 47.5358 58.004 47.7617 58.3663C47.9876 58.7285 48.2671 58.9611 48.3834 58.8895Z" fill="#FF5A81"/>
<path d="M33.3299 59.2361L32.8767 59.8853L35.3191 61.5904L35.7723 60.9413L33.3299 59.2361Z" fill="#604F77"/>
<path d="M33.1952 59.629C33.5268 59.154 33.5887 58.6245 33.3335 58.4464C33.0783 58.2682 32.6026 58.5088 32.271 58.9838C31.9395 59.4587 31.8775 59.9882 32.1327 60.1663C32.3879 60.3445 32.8636 60.1039 33.1952 59.629Z" fill="#604F77"/>
<path d="M32.8655 58.6548C32.776 58.5922 32.5457 58.7666 32.3534 59.0439C32.161 59.3212 32.0761 59.5963 32.1655 59.6589C32.255 59.7215 32.4853 59.5471 32.6776 59.272C32.8699 58.997 32.9549 58.7174 32.8655 58.6548Z" fill="#FF5A81"/>
<path d="M41.0789 71.1116L41.8618 70.9946L41.4215 68.0486L40.6386 68.1656L41.0789 71.1116Z" fill="#604F77"/>
<path d="M40.498 71.6453C40.545 71.9539 41.0459 72.1328 41.6161 72.0478C42.1864 71.9629 42.6157 71.6431 42.5688 71.3367C42.5218 71.0303 42.0209 70.847 41.4506 70.9319C40.8804 71.0169 40.46 71.3367 40.498 71.6453Z" fill="#604F77"/>
<path d="M40.9767 71.8442C40.9924 71.9538 41.2764 72.0008 41.6096 71.9516C41.9428 71.9024 42.2022 71.7727 42.1865 71.6631C42.1709 71.5535 41.8869 71.5088 41.5514 71.558C41.216 71.6072 40.9588 71.7369 40.9767 71.8442Z" fill="#FF5A81"/>
<path d="M33.0213 64.8805L33.1411 65.4951L35.4546 65.0442L35.3348 64.4296L33.0213 64.8805Z" fill="#604F77"/>
<path d="M32.5705 64.438C32.3289 64.4849 32.2037 64.8852 32.2909 65.3325C32.3781 65.7797 32.6465 66.1085 32.888 66.0615C33.1295 66.0145 33.2548 65.6142 33.1676 65.167C33.0803 64.7197 32.812 64.3888 32.5705 64.438Z" fill="#604F77"/>
<path d="M32.4297 64.8158C32.3447 64.8337 32.3156 65.0596 32.3671 65.3212C32.4185 65.5828 32.5281 65.7841 32.6153 65.7685C32.7025 65.7528 32.7271 65.5247 32.6757 65.2631C32.6242 65.0014 32.5147 64.8001 32.4297 64.8158Z" fill="#FF5A81"/>
<path d="M40.1625 68.7089C43.144 68.7089 45.5609 66.2919 45.5609 63.3105C45.5609 60.329 43.144 57.9121 40.1625 57.9121C37.1811 57.9121 34.7642 60.329 34.7642 63.3105C34.7642 66.2919 37.1811 68.7089 40.1625 68.7089Z" fill="#604F77"/>
<path d="M40.1628 68.5034C43.0307 68.5034 45.3555 66.1786 45.3555 63.3108C45.3555 60.443 43.0307 58.1182 40.1628 58.1182C37.295 58.1182 34.9702 60.443 34.9702 63.3108C34.9702 66.1786 37.295 68.5034 40.1628 68.5034Z" fill="#604F77"/>
<path d="M40.1628 58.127C39.1318 58.1266 38.1241 58.4333 37.2681 59.008C36.4121 59.5826 35.7467 60.3992 35.3566 61.3535C34.9665 62.3079 34.8694 63.3567 35.0778 64.3665C35.2862 65.3762 35.7906 66.3009 36.5266 67.0229C36.7705 67.0443 37.0162 67.0292 37.2557 66.9781C37.8751 66.8305 38.0585 66.2312 38.1927 65.6766C38.2463 65.453 38.2799 65.0773 38.4163 64.8984C38.7182 64.5026 39.1811 64.4243 39.6216 64.4646C40.018 64.5341 40.4253 64.5072 40.8091 64.3863C41.0918 64.2846 41.3396 64.1043 41.5234 63.8666C41.7072 63.6289 41.8194 63.3437 41.8467 63.0445C41.9004 62.2998 41.3525 61.9063 40.9209 61.3964C40.8241 61.2975 40.7581 61.1726 40.731 61.0369C40.704 60.9012 40.7169 60.7606 40.7683 60.6321C40.8198 60.5037 40.9075 60.3929 41.0207 60.3134C41.134 60.2339 41.2679 60.1891 41.4062 60.1843C41.594 60.1597 41.7886 60.1664 41.9764 60.1329C42.332 60.0818 42.6673 59.9358 42.947 59.7102C43.112 59.5753 43.254 59.4145 43.3674 59.2339C42.454 58.5152 41.3251 58.1253 40.1628 58.127Z" fill="#8267A5"/>
<path d="M43.8524 62.105C43.754 61.9664 43.6287 61.8322 43.5326 61.6757C43.3827 61.4341 43.461 61.2441 43.6108 61.0316C43.7179 60.8785 43.7663 60.692 43.7473 60.5061C43.7338 60.2422 43.6354 59.9247 43.3134 59.9358C43.2121 59.942 43.1152 59.9795 43.0361 60.0432C42.8125 60.2064 42.6806 60.4904 42.4211 60.5955C42.1617 60.7006 41.8576 60.6112 41.5781 60.6537C41.5424 60.6547 41.5075 60.6636 41.4758 60.6799C41.444 60.6961 41.4163 60.7193 41.3947 60.7476C41.3809 60.7746 41.3738 60.8045 41.3738 60.8348C41.3738 60.8651 41.3809 60.895 41.3947 60.922C41.549 61.2373 41.918 61.4319 42.1304 61.707C42.283 61.9183 42.375 62.1673 42.3965 62.427C42.3991 62.5969 42.4254 62.7655 42.4748 62.928C42.5318 63.0624 42.6275 63.1767 42.7498 63.2564C42.8721 63.3361 43.0154 63.3774 43.1614 63.3752C43.3463 63.3789 43.5273 63.3221 43.6771 63.2136C43.8268 63.105 43.937 62.9506 43.991 62.7737C44.0242 62.6594 44.029 62.5387 44.0048 62.4221C43.9806 62.3056 43.9283 62.1967 43.8524 62.105Z" fill="#8267A5"/>
<path d="M50.6219 31.4839H49.7498V34.769H50.6219V31.4839Z" fill="#604F77"/>
<path d="M50.1855 31.611C50.824 31.611 51.3416 31.3327 51.3416 30.9894C51.3416 30.646 50.824 30.3677 50.1855 30.3677C49.5469 30.3677 49.0293 30.646 49.0293 30.9894C49.0293 31.3327 49.5469 31.611 50.1855 31.611Z" fill="#604F77"/>
<path d="M50.1856 30.9159C50.5586 30.9159 50.861 30.8177 50.861 30.6967C50.861 30.5757 50.5586 30.4775 50.1856 30.4775C49.8126 30.4775 49.5103 30.5757 49.5103 30.6967C49.5103 30.8177 49.8126 30.9159 50.1856 30.9159Z" fill="#FF5A81"/>
<path d="M45.5998 42.8616L46.2817 43.4053L48.3294 40.8365L47.6475 40.2928L45.5998 42.8616Z" fill="#604F77"/>
<path d="M44.7246 42.799C44.5121 43.0696 44.7424 43.6085 45.2411 44.0066C45.7398 44.4046 46.319 44.5097 46.5337 44.2414C46.7484 43.973 46.5158 43.4319 46.0171 43.0338C45.5184 42.6357 44.9392 42.5306 44.7246 42.799Z" fill="#604F77"/>
<path d="M44.9192 43.3295C44.8431 43.4256 45.0176 43.6895 45.3083 43.9221C45.599 44.1546 45.8987 44.2665 45.9792 44.1725C46.0597 44.0786 45.8651 43.8147 45.5834 43.5911C45.3016 43.3675 44.993 43.2355 44.9192 43.3295Z" fill="#FF5A81"/>
<path d="M55.6133 42.1514L56.1199 41.4414L53.4458 39.5333L52.9392 40.2432L55.6133 42.1514Z" fill="#604F77"/>
<path d="M55.5995 43.0276C55.879 43.2266 56.4046 42.9672 56.7758 42.4462C57.147 41.9251 57.2231 41.3437 56.9413 41.1446C56.6595 40.9456 56.134 41.205 55.7628 41.7238C55.3915 42.2426 55.32 42.8263 55.5995 43.0276Z" fill="#604F77"/>
<path d="M56.1184 42.8063C56.2168 42.8756 56.4717 42.6877 56.6886 42.3836C56.9056 42.0795 56.9995 41.7776 56.9123 41.7127C56.8251 41.6479 56.5589 41.8312 56.342 42.1331C56.1251 42.435 56.02 42.7347 56.1184 42.8063Z" fill="#FF5A81"/>
<path d="M55.4583 35.1303L55.0769 34.5195L52.776 35.9562L53.1574 36.567L55.4583 35.1303Z" fill="#604F77"/>
<path d="M56.1229 35.4201C56.3622 35.2681 56.3308 34.785 56.0513 34.3378C55.7718 33.8905 55.3514 33.649 55.1098 33.7988C54.8683 33.9486 54.9019 34.4339 55.1814 34.8812C55.4609 35.3284 55.8814 35.5699 56.1229 35.4201Z" fill="#604F77"/>
<path d="M56.1183 34.9523C56.2032 34.8986 56.1384 34.6459 55.9751 34.3843C55.8119 34.1226 55.6129 33.9549 55.5279 34.0063C55.4429 34.0578 55.5055 34.3149 55.6688 34.5766C55.832 34.8382 56.0333 35.006 56.1183 34.9523Z" fill="#FF5A81"/>
<path d="M45.2534 35.2028L44.927 35.6704L46.6891 36.9006L47.0156 36.433L45.2534 35.2028Z" fill="#604F77"/>
<path d="M45.1592 35.4854C45.3982 35.1431 45.4425 34.7613 45.2582 34.6326C45.0738 34.5039 44.7307 34.6771 44.4918 35.0194C44.2528 35.3617 44.2085 35.7435 44.3928 35.8721C44.5771 36.0008 44.9202 35.8276 45.1592 35.4854Z" fill="#604F77"/>
<path d="M44.9213 34.7849C44.8565 34.7402 44.6977 34.8654 44.5523 35.0645C44.407 35.2635 44.3511 35.4625 44.4159 35.5117C44.4808 35.5609 44.6395 35.4312 44.7871 35.23C44.9347 35.0287 44.9862 34.8297 44.9213 34.7849Z" fill="#FF5A81"/>
<path d="M50.8564 43.7624L51.4204 43.6782L51.1031 41.5527L50.5391 41.6369L50.8564 43.7624Z" fill="#604F77"/>
<path d="M50.4337 44.1569C50.4672 44.3805 50.8273 44.508 51.241 44.4476C51.6547 44.3872 51.9633 44.1546 51.9297 43.9333C51.8962 43.7119 51.5339 43.5799 51.1202 43.6425C50.7065 43.7052 50.4001 43.9355 50.4337 44.1569Z" fill="#604F77"/>
<path d="M50.785 44.3001C50.7962 44.3784 51.0086 44.4142 51.2322 44.3784C51.4559 44.3426 51.6594 44.2487 51.6482 44.1704C51.637 44.0921 51.4245 44.0586 51.1897 44.0944C50.9549 44.1302 50.7626 44.2219 50.785 44.3001Z" fill="#FF5A81"/>
<path d="M45.0337 39.2729L45.1201 39.7163L46.7905 39.3907L46.7041 38.9473L45.0337 39.2729Z" fill="#604F77"/>
<path d="M44.7092 38.9554C44.5348 38.9889 44.4431 39.2796 44.5079 39.6061C44.5728 39.9326 44.7629 40.1652 44.9373 40.1316C45.1117 40.0981 45.2034 39.8074 45.1386 39.4809C45.0737 39.1544 44.8836 38.9218 44.7092 38.9554Z" fill="#604F77"/>
<path d="M44.6061 39.2304C44.5458 39.2415 44.5256 39.4048 44.5614 39.5949C44.5972 39.785 44.6777 39.9281 44.7403 39.9169C44.8029 39.9057 44.8208 39.7402 44.7851 39.5501C44.7493 39.3601 44.6688 39.2169 44.6061 39.2304Z" fill="#FF5A81"/>
<path d="M50.1856 42.0392C52.3371 42.0392 54.0812 40.2951 54.0812 38.1436C54.0812 35.9922 52.3371 34.248 50.1856 34.248C48.0342 34.248 46.29 35.9922 46.29 38.1436C46.29 40.2951 48.0342 42.0392 50.1856 42.0392Z" fill="#604F77"/>
<path d="M50.1857 41.889C52.2544 41.889 53.9315 40.212 53.9315 38.1432C53.9315 36.0745 52.2544 34.3975 50.1857 34.3975C48.117 34.3975 46.4399 36.0745 46.4399 38.1432C46.4399 40.212 48.117 41.889 50.1857 41.889Z" fill="#604F77"/>
<path d="M50.1857 34.3975C49.4416 34.3973 48.7144 34.6188 48.0967 35.0336C47.479 35.4484 46.9989 36.0377 46.7175 36.7265C46.4361 37.4153 46.3661 38.1723 46.5166 38.9009C46.6671 39.6296 47.0312 40.2969 47.5625 40.8178C47.7384 40.8318 47.9154 40.8206 48.088 40.7843C48.5353 40.6792 48.6695 40.2453 48.7589 39.845C48.7802 39.6501 48.8346 39.4603 48.9199 39.2837C49.0246 39.1597 49.1602 39.0655 49.3129 39.0105C49.4656 38.9555 49.6301 38.9418 49.7898 38.9706C50.0758 39.0194 50.3692 39.0003 50.6463 38.9147C50.8502 38.841 51.0289 38.7108 51.1615 38.5394C51.2942 38.3679 51.3753 38.1623 51.3955 37.9464C51.4335 37.4075 51.0377 37.1235 50.7246 36.7567C50.6547 36.6855 50.607 36.5955 50.5873 36.4977C50.5677 36.3999 50.5769 36.2985 50.6139 36.2058C50.6509 36.1131 50.714 36.0332 50.7956 35.9757C50.8772 35.9183 50.9737 35.8859 51.0735 35.8823C51.2099 35.8645 51.3508 35.8689 51.4872 35.8443C51.7438 35.8083 51.9857 35.7032 52.1871 35.5402C52.3052 35.4428 52.4071 35.3273 52.489 35.198C51.8328 34.6804 51.0215 34.3984 50.1857 34.3975Z" fill="#8267A5"/>
<path d="M52.8444 37.2737C52.7728 37.173 52.6856 37.0769 52.6207 36.965C52.5768 36.8924 52.5584 36.8071 52.5685 36.7228C52.5787 36.6385 52.6167 36.5601 52.6767 36.4999C52.7553 36.3897 52.7904 36.2543 52.7751 36.1197C52.7751 35.9297 52.6945 35.6993 52.4642 35.7083C52.3906 35.7126 52.3201 35.7399 52.2629 35.7865C52.1064 35.9028 52.0058 36.1108 51.8157 36.1846C51.6256 36.2584 51.4109 36.1958 51.2074 36.2248C51.1821 36.2263 51.1573 36.2332 51.1349 36.2452C51.1125 36.2571 51.093 36.2739 51.0777 36.2942C51.0679 36.314 51.0627 36.3358 51.0627 36.3579C51.0627 36.38 51.0679 36.4018 51.0777 36.4216C51.1895 36.6453 51.4556 36.7884 51.6077 36.9852C51.7175 37.1386 51.7846 37.3184 51.8023 37.5062C51.8039 37.6283 51.8228 37.7495 51.8582 37.8663C51.8981 37.9643 51.9666 38.0481 52.0547 38.1067C52.1428 38.1653 52.2466 38.1961 52.3524 38.195C52.4858 38.1975 52.6165 38.1566 52.7246 38.0783C52.8327 38 52.9124 37.8887 52.9517 37.7612C52.975 37.6773 52.9775 37.589 52.9587 37.504C52.94 37.4191 52.9008 37.3399 52.8444 37.2737Z" fill="#8267A5"/>
<path d="M5.07768 35.8135H4.4314V38.2488H5.07768V35.8135Z" fill="#604F77"/>
<path d="M5.61216 35.4487C5.61216 35.1938 5.22976 34.9858 4.75566 34.9858C4.28157 34.9858 3.89917 35.1938 3.89917 35.4487C3.89917 35.7037 4.28157 35.9094 4.75566 35.9094C5.22976 35.9094 5.61216 35.7014 5.61216 35.4487Z" fill="#604F77"/>
<path d="M5.25649 35.2297C5.25649 35.1402 5.03286 35.0664 4.75556 35.0664C4.47827 35.0664 4.25464 35.1402 4.25464 35.2297C4.25464 35.3191 4.47827 35.3929 4.75556 35.3929C5.03286 35.3929 5.25649 35.3169 5.25649 35.2297Z" fill="#FF5A81"/>
<path d="M1.35401 44.2514L1.85938 44.6543L3.37738 42.75L2.87202 42.3471L1.35401 44.2514Z" fill="#604F77"/>
<path d="M0.708132 44.2041C0.549356 44.4031 0.719313 44.8034 1.09054 45.0986C1.46176 45.3938 1.88889 45.472 2.04766 45.2708C2.20644 45.0695 2.03424 44.6715 1.66526 44.3763C1.29627 44.0811 0.866908 44.005 0.708132 44.2041Z" fill="#604F77"/>
<path d="M0.851131 44.5978C0.795224 44.6671 0.924928 44.8639 1.13961 45.0451C1.35429 45.2262 1.58687 45.3 1.63159 45.2285C1.67632 45.1569 1.5578 44.9623 1.34311 44.7812C1.12843 44.6001 0.915983 44.5263 0.851131 44.5978Z" fill="#FF5A81"/>
<path d="M8.7811 43.7243L9.15649 43.1982L7.17412 41.7837L6.79873 42.3098L8.7811 43.7243Z" fill="#604F77"/>
<path d="M8.76768 44.3719C8.97565 44.5195 9.367 44.3272 9.64207 43.9425C9.91713 43.5579 9.9708 43.124 9.76282 42.9765C9.55485 42.8289 9.16574 43.0212 8.89068 43.4058C8.61561 43.7905 8.56194 44.2243 8.76768 44.3719Z" fill="#604F77"/>
<path d="M9.15215 44.2086C9.22595 44.2601 9.41603 44.1192 9.57481 43.8955C9.73358 43.6719 9.79843 43.4483 9.73358 43.3924C9.66873 43.3365 9.47194 43.4818 9.31092 43.7055C9.14991 43.9291 9.08059 44.1549 9.15215 44.2086Z" fill="#FF5A81"/>
<path d="M8.66368 38.5144L8.38062 38.061L6.67342 39.127L6.95649 39.5803L8.66368 38.5144Z" fill="#604F77"/>
<path d="M9.15677 38.7318C9.33567 38.6199 9.31107 38.2599 9.10533 37.9289C8.89959 37.598 8.58428 37.4191 8.40761 37.5309C8.23095 37.6427 8.25107 38.0005 8.45905 38.3315C8.66702 38.6624 8.97786 38.8413 9.15677 38.7318Z" fill="#604F77"/>
<path d="M9.15204 38.3853C9.21689 38.3473 9.16993 38.1617 9.04917 37.9649C8.92841 37.7681 8.77858 37.6451 8.71597 37.6854C8.65335 37.7256 8.70031 37.909 8.82107 38.1058C8.94183 38.3026 9.08942 38.4256 9.15204 38.3853Z" fill="#FF5A81"/>
<path d="M1.10083 38.5729L0.858887 38.9194L2.16444 39.8309L2.40638 39.4843L1.10083 38.5729Z" fill="#604F77"/>
<path d="M1.10392 38.15C0.967511 38.0561 0.712577 38.1835 0.535911 38.4385C0.359245 38.6934 0.3257 38.9752 0.462113 39.0691C0.598526 39.163 0.853462 39.0378 1.03013 38.7829C1.20679 38.5279 1.24034 38.2461 1.10392 38.15Z" fill="#604F77"/>
<path d="M0.853326 38.2597C0.804128 38.2262 0.681132 38.3201 0.578264 38.4677C0.475395 38.6153 0.43067 38.7629 0.477632 38.7964C0.524594 38.83 0.649824 38.7383 0.752693 38.5907C0.855562 38.4431 0.900288 38.2933 0.853326 38.2597Z" fill="#FF5A81"/>
<path d="M5.2536 44.9164L5.67163 44.854L5.43656 43.2792L5.01853 43.3416L5.2536 44.9164Z" fill="#604F77"/>
<path d="M4.94134 45.208C4.96593 45.3735 5.23429 45.4696 5.54066 45.4316C5.84703 45.3936 6.07513 45.208 6.05053 45.0492C6.02593 44.8904 5.75758 44.7898 5.45121 44.8256C5.14484 44.8614 4.9145 45.0447 4.94134 45.208Z" fill="#604F77"/>
<path d="M5.19158 45.3153C5.19158 45.3734 5.35035 45.398 5.52925 45.3734C5.70816 45.3488 5.84681 45.2772 5.83786 45.2191C5.82892 45.1609 5.67685 45.1364 5.49795 45.1632C5.31904 45.19 5.18263 45.2571 5.19158 45.3153Z" fill="#FF5A81"/>
<path d="M0.931126 41.5843L0.995361 41.9136L2.23328 41.6721L2.16904 41.3428L0.931126 41.5843Z" fill="#604F77"/>
<path d="M0.692404 41.3552C0.5627 41.382 0.495612 41.5967 0.542574 41.8382C0.589536 42.0798 0.732658 42.252 0.862362 42.2274C0.992066 42.2028 1.05915 41.9858 1.01219 41.7466C0.96523 41.5073 0.824345 41.3284 0.692404 41.3552Z" fill="#604F77"/>
<path d="M0.618735 41.5562C0.57401 41.5562 0.558355 41.6859 0.585191 41.8268C0.612026 41.9676 0.672407 42.075 0.719369 42.066C0.76633 42.0571 0.779748 41.9341 0.750676 41.7955C0.721605 41.6568 0.665697 41.5472 0.618735 41.5562Z" fill="#FF5A81"/>
<path d="M4.75568 43.6378C6.35015 43.6378 7.64272 42.3453 7.64272 40.7508C7.64272 39.1563 6.35015 37.8638 4.75568 37.8638C3.16122 37.8638 1.86865 39.1563 1.86865 40.7508C1.86865 42.3453 3.16122 43.6378 4.75568 43.6378Z" fill="#604F77"/>
<path d="M4.75573 43.5281C6.28967 43.5281 7.53318 42.2845 7.53318 40.7506C7.53318 39.2167 6.28967 37.9731 4.75573 37.9731C3.22178 37.9731 1.97827 39.2167 1.97827 40.7506C1.97827 42.2845 3.22178 43.5281 4.75573 43.5281Z" fill="#604F77"/>
<path d="M4.7556 37.9731C4.20424 37.9733 3.66541 38.1376 3.20772 38.445C2.75004 38.7525 2.39421 39.1892 2.18556 39.6995C1.97691 40.2099 1.92488 40.7708 2.03609 41.3108C2.1473 41.8508 2.41672 42.3456 2.81004 42.7319C2.94097 42.7443 3.07303 42.736 3.20139 42.7073C3.53236 42.6291 3.63075 42.3093 3.70232 42.0119C3.71863 41.8674 3.75947 41.7267 3.82307 41.5959C3.90137 41.5054 4.0021 41.4371 4.11515 41.3979C4.2282 41.3586 4.34959 41.3498 4.46712 41.3723C4.67914 41.4098 4.8971 41.3952 5.10223 41.3298C5.25333 41.2752 5.38575 41.1787 5.48397 41.0516C5.58219 40.9244 5.64215 40.7719 5.65682 40.6119C5.68366 40.2139 5.39071 40.0037 5.16037 39.7309C5.1089 39.6779 5.07388 39.6111 5.05955 39.5386C5.04523 39.4661 5.05221 39.391 5.07965 39.3224C5.10709 39.2538 5.15381 39.1946 5.21418 39.152C5.27454 39.1094 5.34595 39.0852 5.41978 39.0823C5.52264 39.0712 5.62551 39.0823 5.72614 39.0555C5.91607 39.0291 6.09532 38.9518 6.24496 38.8319C6.33345 38.7602 6.40908 38.674 6.46859 38.5769C5.982 38.1883 5.37834 37.9755 4.7556 37.9731Z" fill="#8267A5"/>
<path d="M6.73038 40.1072C6.67894 40.0312 6.61186 39.9596 6.56042 39.8836C6.52767 39.8298 6.51405 39.7665 6.52176 39.704C6.52947 39.6415 6.55807 39.5834 6.60291 39.5392C6.65988 39.457 6.68529 39.3569 6.67447 39.2575C6.67447 39.1166 6.61633 38.9466 6.45084 38.9533C6.39638 38.9563 6.34411 38.9758 6.30101 39.0092C6.18473 39.0964 6.11093 39.2507 5.97228 39.3066C5.82474 39.333 5.67473 39.3427 5.52503 39.3357C5.50629 39.3371 5.48805 39.3424 5.47148 39.3512C5.45492 39.3601 5.4404 39.3723 5.42887 39.3872C5.42123 39.4016 5.41724 39.4178 5.41724 39.4341C5.41724 39.4505 5.42123 39.4666 5.42887 39.4811C5.51161 39.6488 5.7084 39.7517 5.82245 39.8993C5.90419 40.0129 5.95364 40.1466 5.96557 40.2861C5.96639 40.3765 5.98071 40.4662 6.00806 40.5523C6.03768 40.625 6.08849 40.6871 6.1539 40.7306C6.2193 40.7741 6.29628 40.7969 6.37481 40.796C6.47461 40.8 6.57287 40.7704 6.65393 40.7121C6.73499 40.6537 6.79418 40.5699 6.82207 40.474C6.83943 40.4101 6.84012 40.3429 6.82407 40.2787C6.80802 40.2144 6.77576 40.1554 6.73038 40.1072Z" fill="#8267A5"/>
<path d="M27.0625 69.2412H26.6555V70.7753H27.0625V69.2412Z" fill="#604F77"/>
<path d="M27.3977 69.0109C27.3977 68.8499 27.1562 68.7202 26.8588 68.7202C26.5614 68.7202 26.3176 68.8499 26.3176 69.0109C26.3176 69.1719 26.5591 69.3016 26.8588 69.3016C27.1585 69.3016 27.3977 69.1719 27.3977 69.0109Z" fill="#604F77"/>
<path d="M27.1743 68.8748C27.1743 68.8167 27.0312 68.772 26.859 68.772C26.6868 68.772 26.5437 68.8167 26.5437 68.8748C26.5437 68.933 26.6846 68.9755 26.859 68.9755C27.0334 68.9755 27.1743 68.9307 27.1743 68.8748Z" fill="#FF5A81"/>
<path d="M24.7127 74.5568L25.031 74.8105L25.9873 73.611L25.669 73.3573L24.7127 74.5568Z" fill="#604F77"/>
<path d="M24.3075 74.5278C24.2069 74.653 24.3075 74.9057 24.5491 75.0913C24.7906 75.277 25.0522 75.3262 25.1528 75.2009C25.2535 75.0757 25.1528 74.823 24.9113 74.6374C24.6698 74.4518 24.4082 74.4026 24.3075 74.5278Z" fill="#604F77"/>
<path d="M24.397 74.774C24.3635 74.8187 24.444 74.9417 24.5804 75.0513C24.7168 75.1608 24.8554 75.2123 24.8912 75.1676C24.927 75.1228 24.8443 74.9998 24.7078 74.8903C24.5714 74.7807 24.4328 74.7315 24.397 74.774Z" fill="#FF5A81"/>
<path d="M29.3949 74.2234L29.6313 73.8921L28.3826 73.001L28.1462 73.3323L29.3949 74.2234Z" fill="#604F77"/>
<path d="M29.386 74.6329C29.5157 74.7269 29.7639 74.6039 29.9361 74.3624C30.1083 74.1208 30.144 73.8458 30.0143 73.7541C29.8846 73.6624 29.6364 73.7809 29.4642 74.0247C29.292 74.2684 29.2562 74.539 29.386 74.6329Z" fill="#604F77"/>
<path d="M29.6274 74.5302C29.6744 74.5615 29.7929 74.4743 29.8958 74.3334C29.9987 74.1925 30.0412 74.0494 29.9942 74.0158C29.9472 73.9823 29.8287 74.0718 29.7281 74.2126C29.6274 74.3535 29.5827 74.4966 29.6274 74.5302Z" fill="#FF5A81"/>
<path d="M29.3214 70.9451L29.1426 70.6587L28.067 71.3302L28.2459 71.6167L29.3214 70.9451Z" fill="#604F77"/>
<path d="M29.6298 71.0795C29.7438 71.0079 29.7282 70.7821 29.5985 70.5741C29.4688 70.3661 29.2697 70.2521 29.1512 70.3236C29.0327 70.3952 29.0528 70.6188 29.1848 70.829C29.3167 71.0393 29.518 71.1488 29.6298 71.0795Z" fill="#604F77"/>
<path d="M29.6298 70.8735C29.6678 70.8466 29.6298 70.7281 29.5627 70.6074C29.4956 70.4866 29.3927 70.4061 29.3525 70.4307C29.3122 70.4553 29.3525 70.5738 29.4196 70.6968C29.4867 70.8198 29.5895 70.8869 29.6298 70.8735Z" fill="#FF5A81"/>
<path d="M24.5549 70.9771L24.4026 71.1953L25.2259 71.7701L25.3782 71.5519L24.5549 70.9771Z" fill="#604F77"/>
<path d="M24.558 70.7149C24.4708 70.6545 24.312 70.735 24.2002 70.8938C24.0884 71.0526 24.066 71.2337 24.1533 71.2941C24.2405 71.3545 24.3992 71.2717 24.5111 71.113C24.6229 70.9542 24.643 70.773 24.558 70.7149Z" fill="#604F77"/>
<path d="M24.3969 70.7818C24.3678 70.7617 24.2895 70.8198 24.2247 70.9137C24.1598 71.0077 24.1307 71.0994 24.1621 71.1217C24.1934 71.1441 24.2694 71.0837 24.3343 70.9898C24.3991 70.8959 24.4304 70.8042 24.3969 70.7818Z" fill="#FF5A81"/>
<path d="M27.1614 74.9851L27.4246 74.9458L27.2761 73.9527L27.013 73.9921L27.1614 74.9851Z" fill="#604F77"/>
<path d="M26.9731 75.1608C26.9887 75.2637 27.1587 75.3241 27.351 75.2972C27.5433 75.2704 27.6887 75.1608 27.673 75.0557C27.6574 74.9506 27.4874 74.8925 27.2951 74.9215C27.1028 74.9506 26.9574 75.0557 26.9731 75.1608Z" fill="#604F77"/>
<path d="M27.1318 75.2277C27.1318 75.2635 27.2324 75.2791 27.3554 75.2635C27.4784 75.2478 27.5544 75.2031 27.55 75.1673C27.5455 75.1315 27.4471 75.1136 27.3263 75.1315C27.2056 75.1494 27.1273 75.1919 27.1318 75.2277Z" fill="#FF5A81"/>
<path d="M24.4488 72.8801L24.489 73.0864L25.2682 72.9345L25.228 72.7282L24.4488 72.8801Z" fill="#604F77"/>
<path d="M24.3009 72.7324C24.2181 72.7481 24.1756 72.8823 24.2047 73.0343C24.2338 73.1864 24.3255 73.296 24.406 73.2803C24.4865 73.2647 24.5312 73.1282 24.4999 72.9784C24.4686 72.8286 24.3814 72.7168 24.3009 72.7324Z" fill="#604F77"/>
<path d="M24.2515 72.8598C24.2224 72.8598 24.2135 72.9403 24.2314 73.0298C24.2493 73.1192 24.2851 73.1863 24.3141 73.1796C24.3432 73.1729 24.3521 73.0991 24.3365 73.0097C24.3208 72.9202 24.2806 72.8531 24.2515 72.8598Z" fill="#FF5A81"/>
<path d="M26.8591 74.1699C27.8632 74.1699 28.6772 73.3559 28.6772 72.3518C28.6772 71.3477 27.8632 70.5337 26.8591 70.5337C25.855 70.5337 25.041 71.3477 25.041 72.3518C25.041 73.3559 25.855 74.1699 26.8591 74.1699Z" fill="#604F77"/>
<path d="M26.8591 74.1006C27.8249 74.1006 28.6079 73.3176 28.6079 72.3518C28.6079 71.386 27.8249 70.603 26.8591 70.603C25.8933 70.603 25.1104 71.386 25.1104 72.3518C25.1104 73.3176 25.8933 74.1006 26.8591 74.1006Z" fill="#604F77"/>
<path d="M26.8568 70.6031C26.5091 70.6019 26.1689 70.7046 25.8798 70.898C25.5908 71.0913 25.3661 71.3666 25.2345 71.6885C25.1028 72.0103 25.0703 72.3642 25.141 72.7047C25.2117 73.0452 25.3824 73.3568 25.6313 73.5997C25.7135 73.6077 25.7965 73.6031 25.8773 73.5862C26.0853 73.5348 26.1479 73.3335 26.1926 73.139C26.2023 73.0472 26.228 72.9579 26.2687 72.8751C26.3173 72.8172 26.3803 72.7733 26.4514 72.7478C26.5225 72.7222 26.5991 72.716 26.6734 72.7297C26.8071 72.7523 26.9442 72.7431 27.0737 72.7029C27.1683 72.6691 27.2513 72.6091 27.313 72.5299C27.3748 72.4507 27.4128 72.3556 27.4226 72.2557C27.4405 72.003 27.2571 71.871 27.1117 71.6988C27.0791 71.6657 27.0568 71.6237 27.0477 71.5781C27.0385 71.5324 27.0429 71.4851 27.0602 71.4419C27.0775 71.3987 27.1071 71.3615 27.1452 71.3349C27.1834 71.3082 27.2285 71.2932 27.275 71.2918C27.3376 71.2918 27.4047 71.2918 27.4673 71.2739C27.5873 71.2574 27.7004 71.2079 27.7938 71.1308C27.8496 71.0857 27.8979 71.0322 27.9369 70.972C27.6287 70.7309 27.2481 70.6009 26.8568 70.6031Z" fill="#8267A5"/>
<path d="M28.1003 71.9446C28.0667 71.8976 28.0265 71.8529 27.9929 71.8014C27.9702 71.767 27.9605 71.7256 27.9654 71.6847C27.9703 71.6438 27.9896 71.6059 28.0198 71.5778C28.0555 71.5254 28.0714 71.462 28.0645 71.3989C28.0645 71.3117 28.0265 71.2043 27.9191 71.2066C27.8849 71.2102 27.8523 71.2234 27.8252 71.2446C27.7514 71.2983 27.7044 71.3944 27.6172 71.4302C27.5236 71.4475 27.4283 71.4535 27.3332 71.4481C27.3214 71.4493 27.31 71.4529 27.2996 71.4586C27.2892 71.4644 27.2801 71.4722 27.2728 71.4816C27.2679 71.4906 27.2654 71.5006 27.2654 71.5107C27.2654 71.5209 27.2679 71.5309 27.2728 71.5398C27.3243 71.6449 27.4495 71.712 27.5211 71.8037C27.572 71.8755 27.6029 71.9597 27.6105 72.0474C27.6103 72.1044 27.6194 72.161 27.6374 72.2151C27.6556 72.2598 27.6865 72.2982 27.7262 72.3256C27.7659 72.353 27.8127 72.3682 27.861 72.3694C27.9233 72.3703 27.9842 72.3509 28.0346 72.3142C28.085 72.2775 28.1222 72.2255 28.1405 72.1659C28.1519 72.1285 28.1542 72.0889 28.1472 72.0504C28.1402 72.0119 28.1241 71.9756 28.1003 71.9446Z" fill="#8267A5"/>
</svg>
