<svg width="28" height="38" viewBox="0 0 28 38" fill="none" xmlns="http://www.w3.org/2000/svg">
<path d="M0.295235 21.3838C-0.670828 24.3563 0.815418 29.9298 3.56498 31.7133C4.75398 32.4564 6.53748 32.2335 7.28061 33.6454C8.02373 34.9087 7.35491 35.7261 8.98979 36.2463C10.0302 36.6179 11.1449 36.4693 12.1852 36.7665C14.266 37.4353 15.8265 38.55 17.1642 36.0977C17.9816 34.6115 18.3532 32.828 19.2449 31.416C20.211 29.8555 21.6229 29.9298 22.9606 29.038C24.0752 28.3692 24.8184 27.1059 24.967 25.7683C25.1156 24.5049 25.7844 23.3159 26.0817 22.0526C26.4532 20.4178 26.9734 18.7086 27.122 17.0737C27.1964 15.5131 27.0477 13.6553 26.0074 12.4663C25.4129 11.7232 25.0413 12.0205 25.3385 10.7571C25.4872 9.9397 26.0817 9.12225 26.156 8.30482C26.3046 6.89288 25.7101 5.10939 24.4468 4.36626C24.0009 4.14332 23.4807 4.14331 23.0349 3.84606C22.366 3.40019 22.2174 2.65706 21.8459 1.98825C20.211 -0.761315 15.6779 -0.538359 14.0431 1.91396C13.5972 2.58277 13.6715 3.4002 12.7797 3.62313C12.0366 3.77176 11.1449 3.10294 10.3274 3.17725C5.94299 3.54882 6.16592 8.37914 3.93654 11.1287C3.41636 11.7975 2.74755 12.5406 2.52461 13.4324C2.30167 14.4728 2.82185 14.9186 3.1191 15.8847C3.56498 17.8911 0.889736 19.526 0.295235 21.3838Z" fill="url(#paint0_radial)"/>
<path opacity="0.35" d="M1.55835 29.4849C2.07854 30.451 2.74735 31.1941 3.49048 31.7143C4.67948 32.4574 6.46298 32.2345 7.20611 33.6464C7.20611 33.6464 7.20611 33.6464 7.20611 33.7207C7.57767 33.4978 8.02355 33.2748 8.39511 32.9033C9.95568 31.2684 11.0704 29.3363 12.8539 27.85C14.6374 26.3638 16.4952 24.8775 18.4273 23.5399C18.2044 24.283 18.0557 25.1005 18.0557 25.3234C17.9071 26.9583 18.2787 28.4445 18.353 30.0794C18.4273 32.0859 17.164 33.1262 17.2383 35.207C17.2383 35.5042 17.2383 35.7272 17.2383 36.0244C17.9814 34.6125 18.353 32.9776 19.1704 31.64C20.1365 30.0794 21.5484 30.1537 22.8861 29.262C24.0007 28.5932 24.7439 27.3298 24.8925 25.9922C24.9668 25.0262 25.4127 24.0601 25.7842 23.094C25.5613 23.3913 25.2641 23.8372 25.1154 24.2087C24.4466 25.3977 22.5888 30.8225 20.3594 28.8904C18.8732 27.6271 20.1365 24.283 19.0961 22.7225C18.9475 22.4995 18.7245 22.9454 18.5759 23.5399C15.5291 25.1005 13.1511 27.3298 10.3272 29.262C7.80062 30.9712 5.86847 31.5657 3.34185 30.7482C2.67303 30.3767 2.07854 30.0051 1.55835 29.4849Z" fill="#0677BC"/>
<path opacity="0.35" d="M20.9539 5.63002C21.697 5.18415 23.1833 6.1502 23.8521 6.59608C24.8925 7.26489 25.1897 8.60251 24.7439 9.79151C24.0007 11.7979 21.3998 13.6558 19.9135 15.2907C19.1704 16.1081 18.1301 17.6686 18.5016 18.7833C19.1704 20.5668 20.0622 18.4861 20.8053 17.743C22.2172 16.331 24.8925 14.2503 26.5274 16.1081C26.8246 16.4053 26.9732 16.7026 27.1962 16.9998C27.2705 15.4393 27.0475 13.6558 26.0072 12.4668C25.4127 11.7236 25.0411 12.0209 25.3384 10.7576C25.487 9.94015 26.0815 9.12269 26.1558 8.30526C26.3044 6.89332 25.7099 5.10983 24.4466 4.3667C24.0007 4.14376 23.4805 4.14375 23.0347 3.8465C22.5145 3.47494 22.3659 2.95476 22.0686 2.43457C21.9943 2.5832 21.92 2.65751 21.7714 2.80613C21.2512 3.54926 20.731 4.81259 20.9539 5.63002Z" fill="#0677BC"/>
<path opacity="0.35" d="M6.01705 12.8384C5.7198 11.5751 4.82806 11.3521 4.01063 10.9062C3.93631 10.9806 3.86199 11.0549 3.78767 11.2035C3.26749 11.8723 2.59868 12.6154 2.37574 13.5072C2.1528 14.5476 2.67298 14.9935 2.97023 15.9595C3.26748 17.0742 2.59869 18.0403 1.78125 19.0806C2.15281 19.0063 2.52438 18.932 2.89594 18.7834C4.15925 18.2632 4.60512 17.8916 6.09137 18.1889C6.98312 18.4118 7.87487 18.5604 8.76662 18.7091C10.9217 19.2293 13.8942 21.0871 16.1979 20.4926C13.6713 18.1889 9.95562 17.2228 7.28037 15.1421C6.24 14.3246 6.3143 13.9531 6.01705 12.8384Z" fill="#0677BC"/>
<path opacity="0.35" d="M10.2529 3.17723C9.28685 3.25154 8.54372 3.54879 7.94922 3.99467C8.17216 4.36623 8.4694 4.66348 8.98959 4.73779C10.03 4.81211 9.95567 3.92036 11.0704 4.73779C12.1107 5.55523 12.5566 7.85893 13.0025 8.97362C13.5227 10.5342 14.3401 11.7232 15.2318 13.0608C14.1915 10.7571 12.9282 6.22404 13.597 2.80566C13.4484 3.17723 13.2254 3.54879 12.7052 3.62311C11.9621 3.84604 10.996 3.10291 10.2529 3.17723Z" fill="#0677BC"/>
<path d="M25.8588 12.392C25.7102 12.2433 25.6359 12.169 25.4873 12.0947C25.413 12.169 25.2643 12.169 25.19 12.2434C24.001 12.7635 22.9607 13.6553 22.2175 14.6957C23.2579 14.0269 24.5212 12.8378 25.8588 12.392Z" fill="#1A78C6"/>
<path d="M6.16602 32.68C6.53758 32.8286 6.83481 33.0515 7.05775 33.3488C7.13207 33.1259 7.28069 32.9029 7.42932 32.68C8.39538 30.8965 10.1046 29.6332 11.5908 28.2956C13.6716 26.4377 16.1982 25.1001 18.2046 23.168C14.1918 25.1001 11.2936 28.1469 8.09815 30.9708C7.28071 31.5653 6.6862 32.2341 6.16602 32.68Z" fill="#1A78C6"/>
<path d="M20.1368 30.4499C19.6909 29.8554 19.3194 29.038 19.2451 28.2205C19.0964 27.2545 19.2451 26.2141 19.2451 25.248C18.6506 26.8829 19.0221 29.2609 19.5423 30.9701C19.7652 30.7472 19.9139 30.5985 20.1368 30.4499Z" fill="#1A78C6"/>
<path d="M2.97063 15.7363C2.97063 15.8106 2.97064 15.8106 3.04495 15.885C3.19358 16.4795 3.04496 17.074 2.82202 17.6685C3.19358 17.5941 3.63946 17.5942 4.01103 17.4455C7.35509 16.6281 10.9221 19.0804 14.1175 19.7492C11.8881 18.7088 9.51015 17.9657 7.20646 17.1483C6.01746 16.7767 4.30826 16.4051 2.97063 15.7363Z" fill="#1A78C6"/>
<path d="M20.9542 6.00125C21.5487 5.18382 22.2175 4.51499 23.0349 3.92049C23.0349 3.92049 22.9606 3.92048 22.9606 3.84617C22.812 3.77186 22.6633 3.62323 22.589 3.47461C21.7716 4.06911 21.0285 4.81223 20.434 5.70399C19.7651 6.67005 19.5422 7.41319 19.1707 8.52788C19.7652 7.71044 20.211 6.74438 20.9542 6.00125Z" fill="#1A78C6"/>
<path d="M12.4083 3.69746C12.334 4.44059 12.2597 5.10939 12.334 5.70389C12.4083 7.71033 13.3001 11.1287 14.712 12.6893C13.3744 9.86541 12.4083 6.52133 13.0771 3.54883C13.0028 3.62314 12.8542 3.69746 12.7056 3.69746C12.5569 3.69746 12.4826 3.69746 12.4083 3.69746Z" fill="#1A78C6"/>
<path opacity="0.37" d="M16.0496 27.1803C15.9753 27.8492 15.8266 28.518 15.678 29.1868C15.9009 28.9638 16.1982 28.8152 16.3468 28.518C16.4954 28.295 16.5698 27.6262 16.867 27.6262C17.0156 27.6262 17.1643 27.7005 17.1643 27.9235C17.3872 27.7748 17.5358 27.4033 17.6844 27.1803C17.9817 26.8831 18.279 26.7345 18.5019 26.4372C18.7991 25.917 18.7248 25.2482 19.3193 24.951C19.8395 24.6537 20.434 25.0996 20.9542 24.8766C20.7313 24.4308 20.5083 24.0592 20.3597 23.6133C20.1368 23.0931 20.434 23.0931 20.8799 22.8702C20.8056 22.7216 20.6569 22.4986 20.5826 22.2757C20.5083 21.9785 20.5826 22.0528 20.6569 21.8298C20.7313 21.6069 20.8056 21.3096 21.0285 21.161C20.8799 20.7895 20.8056 20.7151 21.0285 20.3436C21.2515 19.8977 21.4744 19.5261 21.7716 19.1546C22.4405 18.3371 23.3322 17.817 24.1496 17.1481C23.6294 17.594 22.4404 17.9656 21.6973 18.2628C21.623 17.9656 22.0689 17.4454 22.2175 17.1481C22.5148 16.5536 22.8863 16.0334 23.1836 15.4389C23.5551 14.8444 24.0753 14.2499 24.2983 13.5811C23.1093 13.5811 22.2918 14.9931 21.5487 15.6619C21.3257 15.2903 21.7716 14.7701 21.623 14.3243C21.4001 14.3986 21.1771 14.6215 21.0285 14.8445C20.6569 14.1756 20.5083 13.9527 19.9881 14.6958C19.6909 15.0674 19.4679 15.6619 19.0964 15.8848C18.7991 15.439 18.9478 14.6958 19.0221 14.1756C19.0221 13.6555 18.9478 13.061 18.8735 12.5408C18.7248 11.5747 18.5019 10.6829 18.1303 9.86551C18.1303 10.5343 18.4276 11.2031 18.4276 11.872C18.4276 12.3921 18.4276 12.838 18.5019 13.3582C18.1303 12.6894 18.2046 11.872 17.8331 11.2031C17.5358 10.5343 17.0899 10.0885 16.5698 9.64258C16.5698 9.93983 16.7927 10.2371 16.867 10.5343C16.9413 10.9802 17.0156 11.3518 17.0156 11.7976C17.09 12.4665 17.0899 13.061 17.1643 13.6555C16.9413 13.5068 16.7927 13.2839 16.4211 13.2839C16.7184 14.027 16.867 14.9931 16.4211 15.7362C16.1239 15.0674 15.6037 14.5472 15.1578 13.8784C14.9349 13.5811 14.6376 13.1353 14.2661 13.061C14.1918 13.6555 14.5633 14.25 14.7119 14.8445C14.6376 14.7701 14.489 14.7701 14.4147 14.6958C14.3404 15.0674 14.8606 15.439 14.7863 15.8848C14.712 16.405 14.1917 16.2564 13.7459 16.1821C12.6312 15.8848 11.3679 15.2903 10.1789 15.8105C10.4018 16.2564 11.0706 16.5536 11.4422 16.8509C11.7394 17.0738 12.4826 17.4454 12.7055 17.817C12.9284 18.1885 12.6312 17.9656 12.6312 18.3371C12.6312 18.7087 13.3743 19.2289 13.6716 19.3775C13.6716 19.3775 13.7459 19.5261 13.7459 19.6005C13.0771 20.2693 11.9624 20.2693 11.1449 20.6408C10.3275 21.0124 9.36144 21.4583 8.69263 22.0528C9.95594 21.4583 11.6651 20.3436 13.1514 20.7895C12.6312 21.7555 11.5165 22.4243 10.8477 23.2418C11.6651 23.0931 12.4083 22.4243 13.1514 22.4243C13.0028 22.7216 12.6312 23.0188 12.4826 23.3904C12.9284 23.539 13.3743 23.2418 13.8202 23.0932C14.0431 23.3161 14.4147 22.8702 14.5633 23.0932C14.6376 23.1675 14.4147 23.9106 14.4147 24.0592C14.5633 24.0592 14.6376 24.1335 14.7119 24.0592C15.0092 24.951 13.2257 26.0656 13.5973 26.8831C14.3404 26.8088 15.0092 25.8427 15.5294 25.4711C15.901 25.1739 16.4211 24.6537 16.4954 25.3968C16.4211 26.0656 16.1239 26.7345 16.0496 27.1803Z" fill="#057CCE"/>
<path opacity="0.37" d="M16.7185 27.2548C18.1304 26.8832 18.4277 25.0255 19.8396 24.5796C19.7653 24.3566 19.6167 24.1337 19.6167 23.9107C19.8396 23.7621 20.0626 23.8364 20.2112 23.6135C20.2855 23.3906 20.1369 23.0933 20.1369 22.8704C20.1369 22.2759 20.5084 21.9043 20.6571 21.3098C20.7314 21.0126 20.6571 20.7896 20.7314 20.4924C20.8057 20.2695 21.0286 20.0465 21.0286 19.8236C21.1029 19.452 21.0286 19.452 21.2515 19.0804C21.4002 18.8575 21.6974 18.7089 21.8461 18.5603C21.4002 18.4859 21.1772 18.7089 21.2515 18.1144C21.3259 17.7428 21.6974 17.2226 21.8461 16.8511C22.2176 16.1079 22.8864 15.2905 23.035 14.4731C22.2176 14.8446 21.7717 15.6621 20.9543 15.9593C20.88 15.6621 21.1772 15.5134 21.1029 15.2905C20.88 15.3648 20.5827 15.4391 20.3598 15.5134C20.3598 15.4391 20.2855 15.2905 20.2112 15.1419C20.0626 15.2162 19.6167 15.7364 19.6167 15.885C19.4681 15.0676 19.9139 14.2501 20.1369 13.4327C19.6167 13.9529 19.468 14.696 19.0222 15.2905C18.7992 14.9189 18.9479 14.3987 18.9479 13.9529C18.9479 13.507 18.8736 12.9125 18.7249 12.4666C18.4277 12.8382 18.6506 13.507 18.3534 13.8786C17.9818 14.5474 17.5359 13.2097 17.3873 12.7639C17.313 12.4666 16.8671 11.3519 17.0157 11.0547C16.7185 11.6492 16.7928 12.2437 16.8671 12.9125C16.9414 13.3584 17.3873 14.6217 17.09 14.9189C16.7185 14.2501 16.4956 13.5813 16.124 12.9125C15.9011 13.4327 16.124 14.1758 16.124 14.696C16.1983 15.2162 16.2726 15.6621 16.4212 16.1822C16.124 16.0336 15.5295 15.0676 15.2322 15.1419C14.935 15.2905 15.1579 16.1823 15.2322 16.3309C15.3065 16.5538 15.5295 16.8511 15.2322 16.9254C15.0093 16.9997 14.6377 16.7024 14.4148 16.6281C13.8946 16.4052 12.6313 16.0336 12.1111 16.4052C12.557 16.5538 13.3744 17.2969 13.523 17.7428C13.2258 17.8914 12.9285 17.5199 12.6313 17.4456C12.7799 17.6685 12.9285 17.9658 13.0772 18.1887C13.2258 18.4116 13.6717 18.7089 13.8203 18.9318C14.0432 19.3777 13.6717 19.3034 13.6717 19.6006C13.6717 19.8979 14.1919 19.9722 14.2662 20.1951C14.3405 20.4924 13.746 20.641 13.523 20.864C12.7799 21.3841 12.1111 22.1272 11.5166 22.7961C12.1111 22.5731 12.7799 22.2016 13.4487 22.1273C14.0432 22.0529 15.0093 21.9043 14.5634 22.7218C15.3065 22.6475 15.2322 22.7961 15.0836 23.3906C14.935 23.9108 14.6377 24.6539 14.6377 25.2484C15.0093 24.8768 15.3809 24.3566 15.9011 24.208C15.9011 24.5053 15.6781 24.7282 15.6781 25.0254C16.4955 25.0254 17.5359 23.8364 17.0157 25.397C17.0901 25.397 17.1644 25.3227 17.2387 25.3227C17.1644 26.0658 16.7928 26.586 16.7185 27.2548Z" fill="#046DAD"/>
<path opacity="0.37" d="M17.4615 26.6597C17.7587 26.2138 18.056 25.322 18.1303 24.7275C18.2789 23.6871 18.056 23.9101 17.1642 24.356C17.1642 24.2816 17.0899 23.9844 17.1642 23.7615C17.1642 24.0587 15.6037 24.2816 15.3807 24.2816C15.5294 24.2816 16.2725 23.4642 16.3468 23.3156C16.7184 22.8697 16.7184 22.3495 16.1239 22.1266C15.3064 21.8293 14.5633 22.4238 13.7459 22.4238C14.1174 21.978 15.3064 21.4578 14.0431 21.3835C13.5229 21.3091 13.0771 21.4578 12.5569 21.5321C12.2596 21.6064 11.3679 21.6064 11.2192 21.8293C11.8137 21.1605 12.9284 20.7147 13.8202 20.4917C14.1917 20.4174 15.1578 20.4917 15.3807 20.1202C15.678 19.6743 14.2661 18.7082 14.0431 18.3366C14.1918 18.2623 14.4147 18.1137 14.5633 18.0394C14.1917 17.3706 13.2257 17.5935 12.9284 16.9247C13.5973 16.7761 14.1917 16.9247 14.8605 17.0733C15.3064 17.1477 16.1239 17.6678 16.5698 17.2963C16.2725 16.6275 15.3807 15.4385 15.678 14.6953C16.2725 14.9926 16.3468 15.8843 16.7184 16.4045C17.3129 17.3706 17.8331 16.4788 17.6844 15.6614C17.6101 15.2155 17.3872 14.6953 17.4615 14.2495C17.6844 14.7696 17.9817 15.3641 18.2046 15.8843C18.5019 15.5871 17.9817 14.0265 17.9074 13.5806C17.8331 12.9861 17.6844 12.1687 17.8331 11.5742C17.9817 12.3173 18.3532 13.0605 18.5762 13.8779C18.7991 14.5467 18.7248 15.8843 19.3936 16.3302C20.0624 16.7761 20.5083 15.81 20.7313 15.3641C20.5826 15.8843 20.7312 16.999 21.5487 16.7761C21.9946 16.6275 22.2175 15.4385 22.812 15.2155C22.812 16.7018 21.4001 18.188 21.1028 19.6743C20.8799 20.9376 20.5826 22.4981 19.9881 23.6128C19.3193 24.8761 18.1303 25.6193 17.4615 26.6597Z" fill="#055DA0"/>
<path opacity="0.6" d="M17.9816 24.2082C17.5357 24.0596 17.7586 23.3908 17.6843 22.8706C17.61 22.1275 16.7183 22.0532 16.2724 21.4587C16.0495 21.2357 16.0495 20.7898 15.8265 20.5669C15.6036 20.1953 15.232 20.0467 15.1577 19.6009C15.6779 19.2293 16.1981 19.8981 16.644 19.7495C17.3128 19.5266 16.6439 19.2293 16.7183 18.7091C16.7926 18.2632 17.833 17.2229 18.2788 16.9999C18.7247 17.743 18.9477 16.5541 19.2449 16.4054C19.988 15.9596 20.5082 17.0742 20.8798 17.6687C21.5486 18.7091 20.6568 19.155 20.5825 20.1211C20.5825 20.6412 21.0284 20.8642 21.0284 21.3844C20.9541 21.9789 20.6568 21.9789 20.1366 22.2018C20.5825 23.0192 19.1706 23.9853 18.5761 24.1339C18.2788 24.2826 18.0559 24.2826 17.9816 24.2082Z" fill="white"/>
<path opacity="0.6" d="M18.5017 23.39C18.2788 23.2414 17.9815 23.0184 17.9072 22.9441C17.61 22.6469 17.6843 22.1267 17.387 21.8294C17.0898 21.5322 16.7925 21.6808 16.6439 21.0863C16.5696 20.8634 16.421 20.4175 16.9412 20.5661C16.7182 19.7487 17.3127 19.6743 17.5357 19.0798C17.7586 18.4853 17.387 18.1881 18.0559 17.8165C18.5017 17.5193 18.9476 17.445 19.3935 17.222C19.6907 17.0734 20.4339 16.8505 20.2109 17.5193C20.2852 17.3707 20.7311 18.1138 20.7311 18.1881C20.8797 18.4854 20.954 18.8569 20.8797 19.2285C20.8054 19.5257 20.5825 19.7487 20.5082 20.0459C20.3595 20.4918 20.5082 20.8633 20.4338 21.3092C20.3595 21.7551 19.8393 21.6808 19.6907 21.978C19.4678 22.4239 20.0623 23.6872 18.8733 23.6129C18.799 23.6129 18.6504 23.5386 18.5017 23.39Z" fill="white"/>
<path opacity="0.6" d="M11.4421 35.5026C12.4825 35.2796 12.4825 35.7255 13.2999 36.0971C14.3403 36.6173 16.2724 36.6916 16.7926 35.354C17.3128 33.942 16.0495 34.3136 15.1577 34.2393C14.266 34.165 14.5632 33.8677 14.7862 33.1989C15.3807 31.6383 13.4485 33.2732 13.0027 33.5705C12.7054 33.7934 12.1109 34.5365 11.665 34.5365C10.4017 34.6108 12.0366 33.1246 11.7394 32.6044C11.5164 32.6044 11.2192 32.6787 11.0705 32.8273C11.0705 32.8273 11.3678 31.8613 11.4421 31.787C11.665 31.4154 11.9623 31.1182 12.3338 30.8209C13.0027 30.2264 13.7458 29.7062 13.9687 28.8145C12.9284 29.7062 11.888 31.1925 10.699 31.787C10.699 31.7126 10.5503 31.564 10.5503 31.4897C10.0302 31.6383 9.80723 32.2328 9.50998 32.6787C9.28704 33.1246 8.91547 33.4218 8.61822 33.7934C8.09803 34.5365 8.46961 35.131 9.21273 35.5026C9.88154 35.8741 10.6247 35.6512 11.4421 35.5026Z" fill="white"/>
<path opacity="0.6" d="M4.45658 27.9976C4.45658 27.9976 4.5309 27.9977 4.5309 27.9234C5.1254 27.6261 5.71992 27.3288 6.2401 26.9573C6.31442 26.883 7.13185 26.0655 6.90891 26.0655C5.86854 26.2142 4.90246 27.3289 3.78778 27.1059C2.7474 26.9573 4.01073 26.0655 4.38229 25.7683C5.12542 25.1738 4.90247 25.0995 3.93641 24.9509C3.11897 24.8765 1.85565 24.3563 3.04465 23.6132C4.67953 22.6472 7.20615 23.093 8.98965 22.6472C7.72634 21.904 5.34835 22.7958 3.93641 22.8701C3.11897 22.8701 2.45015 22.3499 2.67309 21.4582C2.89603 20.5664 3.78779 20.938 4.38229 20.4921C4.08504 20.1205 3.86209 20.1205 4.15934 19.749C4.38228 19.526 5.1254 19.6003 5.19971 19.3031C5.7199 18.1141 3.11898 19.0058 2.89604 19.0801C1.78135 19.4517 1.33547 20.2692 0.889592 21.3838C0.740967 21.7554 0.81528 22.0526 0.889592 22.4242C0.889592 22.8701 0.889588 23.1673 0.815275 23.6132C0.66665 24.6536 1.11253 25.1738 1.18684 26.0655C1.33546 26.9573 1.18685 27.9977 1.70703 28.8151C2.22722 29.4839 2.97034 30.0784 3.86209 30.227C4.53091 30.3013 5.94284 30.3013 6.46303 29.8555C6.90891 29.5582 6.98322 28.9637 7.5034 28.5922C8.54378 27.7747 9.73278 27.1802 10.9218 26.5857C9.58416 26.5114 8.46948 27.7004 7.35479 28.3692C6.68598 28.7408 4.38227 30.1527 3.71346 29.1123C3.19327 28.5178 4.01071 28.2206 4.45658 27.9976Z" fill="white"/>
<path opacity="0.6" d="M9.06384 13.4316C9.13815 12.8371 8.2464 11.6481 8.02347 11.1279C7.87484 10.7564 7.7262 10.3848 7.80051 10.0132C7.87483 9.71598 8.17208 9.41873 8.17208 9.27011C8.17208 8.52698 7.05739 8.30405 7.42895 7.48661C8.02345 6.14899 9.06385 7.70955 9.9556 7.48661C10.3272 7.4123 10.4015 7.04072 10.773 7.18934C11.0703 7.26366 11.2932 7.70953 11.4418 7.93247C11.8877 8.60128 12.0363 9.34442 12.3336 10.0132C12.7795 10.905 13.2253 11.871 13.8198 12.7628C12.9281 10.9793 12.0363 9.04717 11.962 7.04073C11.8877 5.92604 11.8877 5.18291 10.4758 5.70309C10.1042 5.85172 10.4015 6.00035 9.9556 5.85173C9.43541 5.7031 9.28677 5.25722 8.54364 5.33153C7.94914 5.33153 7.6519 5.55449 7.28034 6.00036C6.61153 6.8178 6.4629 7.93247 5.79409 8.74991C5.42253 9.19579 4.97666 9.8646 5.12528 10.5334C5.34822 11.2022 6.09134 11.3509 6.4629 11.7967C6.98309 12.3169 6.98308 13.1344 7.50327 13.6545C7.80052 13.8032 8.91521 14.2491 9.06384 13.4316Z" fill="white"/>
<path opacity="0.6" d="M22.5888 27.2537C22.6631 26.8822 22.2172 26.4363 22.4402 26.0647C22.5888 25.7675 23.0347 25.8418 23.2576 25.6189C23.6292 25.2473 23.5549 24.5042 23.7035 23.984C23.9264 23.4638 24.075 22.8693 24.3723 22.3491C24.8182 21.3087 25.9329 20.5656 25.8585 19.228C25.7842 18.5592 25.9328 18.1876 26.0072 17.5188C26.0815 16.85 26.2301 16.4041 25.5613 15.9582C24.5952 15.3637 23.4805 16.3298 22.886 17.0729C23.3319 16.85 24.1494 16.3298 24.6695 16.4041C25.7842 16.5527 24.8925 17.3702 24.8182 17.9647C24.8182 18.2619 25.1154 18.5592 25.1154 18.7078C25.1154 19.005 24.5952 19.3023 24.3723 19.3766C24.0007 19.5252 22.2916 19.6738 22.5888 20.3427C23.0347 20.2683 24.2237 19.8225 24.6695 20.1197C25.5613 20.7885 23.4805 21.0858 24.3723 21.9032C24.0007 22.4234 23.6292 22.9436 23.0347 22.795C22.3658 22.6463 21.8457 22.1262 21.2512 21.7546C21.3998 22.2005 21.4741 22.4977 21.92 22.7207C21.9943 22.7207 23.109 23.1665 22.9604 23.3152C22.5888 23.6124 23.1833 24.2069 23.0347 24.5042C22.6631 25.0987 21.697 24.5785 21.3255 24.3555C21.5484 25.173 22.6631 25.5445 21.92 26.362C21.1768 27.1794 20.5823 25.9904 20.1365 25.4702C20.508 25.8418 20.2851 27.1794 20.5824 27.6996C21.0282 28.517 22.4402 28.2941 22.5888 27.2537Z" fill="white"/>
<path opacity="0.6" d="M21.1769 10.0883C21.0283 10.4598 20.8797 10.8314 20.8054 11.2772C21.0283 10.5341 21.8458 8.89925 22.7375 8.82494C23.7036 8.75063 23.4806 10.1626 23.1834 10.7571C22.6632 11.7974 21.9201 12.6892 21.3999 13.6553C22.143 13.1351 22.6632 12.3919 23.1091 11.6488C23.4806 10.9057 23.9265 9.7167 23.9265 8.89926C23.9265 8.60201 23.1091 7.19006 22.8861 8.0075C23.0348 7.413 22.8118 6.96713 22.143 6.96713C21.4742 6.96713 21.1026 7.48731 20.6568 7.93318C20.0623 8.602 18.1301 9.86532 18.576 8.15613C18.7989 7.26438 19.2448 6.44695 19.3934 5.62951C19.6164 4.66345 20.1366 4.29187 20.5824 3.47443C21.4742 1.76524 18.7989 0.873505 17.5356 1.46801C16.2723 0.42763 14.6375 1.61663 14.4145 3.02857C14.1173 4.9607 14.3402 7.19008 14.5631 8.97358C14.0429 7.11576 14.2659 3.1772 16.3466 2.28545C16.2723 2.50839 16.2723 2.73132 16.2723 2.95426C17.2384 2.80563 17.2384 3.40012 17.1641 4.29187C17.0898 4.66344 17.0155 5.10931 17.0155 5.48088C17.0155 5.6295 17.2384 6.29832 17.2384 6.37264C17.387 5.92676 17.5356 4.44051 18.1301 4.44051C18.576 4.44051 18.576 4.88638 18.576 5.18363C18.6503 6.00107 18.3531 6.96713 18.0558 7.71025C17.5356 9.04788 17.9815 11.5745 19.765 9.93963C20.2852 9.41944 20.4338 8.67632 21.0283 8.15613C21.5485 7.71026 22.0687 7.63594 21.9201 8.45338C21.7714 9.04788 21.4742 9.56808 21.1769 10.0883Z" fill="white"/>
<path d="M19.6163 18.6343C19.9879 18.4114 20.4337 18.1884 20.6567 18.56C21.1769 19.2288 19.8392 21.0866 19.6906 21.7554C19.542 22.3499 19.8392 22.7215 19.319 23.1674C18.7988 23.6876 17.9071 23.9105 17.8328 22.9444C17.8328 22.4243 18.2787 22.3499 17.9814 21.7554C17.8328 21.3839 17.3126 21.3096 17.164 20.8637C16.7181 19.749 17.6099 19.2288 18.1301 18.4114C18.2787 18.1884 18.2787 17.6683 18.5759 17.5196C18.7245 17.4453 19.542 17.371 19.542 17.5939C19.4677 18.0398 19.0218 18.3371 19.319 18.7829C19.4677 18.7086 19.542 18.7086 19.6163 18.6343Z" fill="#BFAA13"/>
<path d="M13.9683 15.2176C13.5968 14.6974 13.2995 14.1029 13.1509 13.4341C13.1509 13.3598 13.0766 13.0625 13.2252 13.1368C13.3738 13.1368 13.3738 13.4341 13.4481 13.5084C13.6711 13.88 13.894 14.2515 14.117 14.6231C14.9344 15.8864 16.1977 16.8525 17.3867 17.7442C17.6097 17.9672 17.9069 18.1158 18.1298 18.3387C18.3528 18.5616 18.7243 18.8589 18.7987 19.1561C18.9473 19.6763 18.5014 19.6763 18.2041 19.4534C17.8326 19.1561 17.461 18.8589 17.1638 18.5617C16.7922 18.1901 16.4206 17.8185 16.0491 17.5213C15.5289 17.0011 14.9344 16.4809 14.4885 15.8864C14.2656 15.5891 14.117 15.4405 13.9683 15.2176Z" fill="url(#paint1_linear)"/>
<path d="M13.9686 13.8059C13.82 13.2857 13.4484 11.4279 12.7053 11.5022C11.6649 11.5765 12.1851 13.8802 12.408 14.4004C12.5566 14.8462 12.8539 15.4407 13.2998 15.5894C14.1915 15.738 14.1172 14.326 13.9686 13.8059Z" fill="#FFEE76"/>
<path d="M12.1851 12.0214C12.5566 11.9471 12.8539 12.2443 13.0025 12.5416C13.4484 13.4333 13.8942 15.1425 13.2997 15.5884C14.1172 15.737 14.0429 14.3251 13.8942 13.8049C13.7456 13.2847 13.374 11.4269 12.6309 11.5012C12.408 11.5012 12.2594 11.7241 12.1851 12.0214Z" fill="#CDC844"/>
<path d="M12.8537 13.8054V13.7311C12.7794 13.5081 12.4822 13.2852 12.4822 13.6567C12.4822 13.954 12.5565 14.1769 12.7051 14.4742C12.7794 14.6228 12.8537 14.9201 13.0024 14.9201C13.151 14.9201 13.151 14.6971 13.151 14.6228C13.0767 14.3255 12.9281 14.1026 12.8537 13.8054Z" fill="white"/>
<path d="M17.0156 14.5487C16.7926 14.0285 16.644 13.4339 16.7183 12.8394C16.7183 12.7651 16.7183 12.5422 16.8669 12.6165C16.9413 12.6908 16.9413 12.9138 16.9413 12.9881C17.0156 13.3596 17.1642 13.7312 17.2385 14.1028C17.6844 15.3661 18.5761 16.4065 19.3192 17.4468C19.4679 17.6698 19.6908 17.8927 19.8394 18.1156C19.9881 18.3386 20.211 18.6358 20.211 18.9331C20.211 19.379 19.8394 19.3046 19.6908 19.0817C19.3936 18.7844 19.1706 18.4129 18.9477 18.1156C18.7247 17.7441 18.4275 17.3725 18.2046 16.9266C17.833 16.3321 17.5358 15.812 17.2385 15.2175C17.1642 14.9202 17.0899 14.6973 17.0156 14.5487Z" fill="url(#paint2_linear)"/>
<path d="M17.3127 13.359C17.3127 12.9132 17.387 11.204 16.7182 11.1297C15.8265 10.981 15.7522 13.0618 15.8265 13.5076C15.8265 13.8792 15.9751 14.4737 16.3466 14.6966C17.0898 14.9939 17.3127 13.8049 17.3127 13.359Z" fill="#FFEE76"/>
<path d="M16.198 11.4273C16.5696 11.4273 16.7182 11.7245 16.7925 12.0961C17.0154 12.9135 17.0154 14.4741 16.4209 14.7714C17.0897 15.0686 17.3127 13.8796 17.3127 13.4337C17.3127 12.9879 17.387 11.2787 16.7182 11.2044C16.4952 11.0557 16.2723 11.2044 16.198 11.4273Z" fill="#CDC844"/>
<path d="M16.3466 13.062V12.9877C16.3466 12.8391 16.1237 12.5418 16.0494 12.8391C15.9751 13.062 16.0494 13.3593 16.0494 13.5822C16.0494 13.7308 16.0494 14.0281 16.198 14.0281C16.3466 14.1024 16.3466 13.8795 16.4209 13.8052C16.4209 13.5822 16.3466 13.3593 16.3466 13.062Z" fill="white"/>
<path d="M12.9281 17.2241C12.4822 16.7782 12.0364 16.2581 11.7391 15.5892C11.6648 15.5149 11.5905 15.292 11.8134 15.292C11.8877 15.292 12.0364 15.5149 12.1107 15.5892C12.4079 15.9608 12.7052 16.258 13.0024 16.5553C14.0428 17.67 15.4547 18.3388 16.7923 19.0076C17.0896 19.1562 17.3125 19.3049 17.6098 19.4535C17.907 19.6021 18.2786 19.8251 18.4272 20.1223C18.6502 20.6425 18.2043 20.6425 17.907 20.4939C17.4612 20.2709 17.0896 20.048 16.718 19.825C16.2722 19.5278 15.8263 19.3049 15.3804 19.0076C14.7859 18.5617 14.1171 18.1902 13.5226 17.67C13.2997 17.5214 13.0767 17.3727 12.9281 17.2241Z" fill="url(#paint3_linear)"/>
<path d="M12.7051 15.8112C12.4822 15.3653 11.7391 13.5818 11.0703 13.7305C10.0299 13.9534 10.9959 16.1828 11.2932 16.6286C11.5161 17.0002 11.8877 17.5947 12.4079 17.5947C13.2253 17.669 12.9281 16.3314 12.7051 15.8112Z" fill="#FFEE76"/>
<path d="M10.5503 14.3993C10.9219 14.2506 11.2191 14.4736 11.5163 14.7708C12.1108 15.5139 12.854 17.1488 12.4081 17.669C13.2255 17.5947 12.9283 16.3314 12.7054 15.8112C12.4824 15.3653 11.7393 13.5818 11.0705 13.7305C10.6989 13.8791 10.6246 14.102 10.5503 14.3993Z" fill="#CDC844"/>
<path d="M11.5907 16.0345C11.5907 16.0345 11.5907 15.9602 11.5163 15.9602C11.442 15.8116 11.0705 15.5886 11.1448 15.9602C11.2191 16.2574 11.3677 16.4804 11.5163 16.7033C11.5907 16.8519 11.7393 17.1492 11.8879 17.1492C12.0365 17.1492 12.0365 16.9262 11.9622 16.8519C11.8879 16.5547 11.665 16.3317 11.5907 16.0345Z" fill="white"/>
<path d="M15.0088 17.5206C14.563 17.1491 14.1914 16.7775 13.8942 16.183C13.8198 16.1087 13.7455 15.8857 13.8942 15.8857C13.9685 15.8857 14.1171 16.1087 14.1914 16.1087C14.4887 16.4059 14.7116 16.6289 15.0088 16.8518C15.9749 17.7435 17.3125 18.1894 18.5015 18.7096C18.7245 18.7839 19.0217 18.9326 19.2447 19.0069C19.5419 19.1555 19.8392 19.3041 19.9878 19.5271C20.2107 19.8986 19.8392 19.9729 19.5419 19.8986C19.1704 19.75 18.7988 19.6014 18.4272 19.4527C17.9814 19.2298 17.6098 19.0812 17.1639 18.8582C16.5694 18.561 15.9749 18.2637 15.4547 17.8179C15.3061 17.7436 15.1575 17.6693 15.0088 17.5206Z" fill="url(#paint4_linear)"/>
<path d="M14.6374 16.3314C14.4145 15.9598 13.597 14.4736 13.0025 14.6965C12.1108 14.9937 13.1512 16.8516 13.4484 17.2231C13.6713 17.5204 14.0429 18.0406 14.4888 17.9662C15.3062 17.8919 14.8604 16.7773 14.6374 16.3314Z" fill="#FFEE76"/>
<path d="M12.7053 15.291C13.0026 15.1424 13.2998 15.291 13.5228 15.5139C14.1173 16.1084 14.8604 17.4461 14.5631 17.9662C15.3063 17.8919 14.8604 16.7029 14.6375 16.3314C14.4145 15.9598 13.5971 14.4736 13.0026 14.6965C12.7796 14.7708 12.7053 14.9938 12.7053 15.291Z" fill="#CDC844"/>
<path d="M13.6714 16.6294C13.5228 16.4065 13.2255 16.2579 13.2998 16.5551C13.3741 16.7781 13.5228 17.001 13.6714 17.1496C13.7457 17.224 13.8943 17.5212 14.0429 17.4469C14.1916 17.4469 14.1172 17.224 14.1172 17.1496C14.0429 17.001 13.82 16.8524 13.6714 16.6294Z" fill="white"/>
<path d="M13.8945 20.9384C13.3743 20.7155 12.8541 20.4926 12.334 20.121C12.2596 20.0467 12.111 19.8981 12.2596 19.8238C12.3339 19.7494 12.5569 19.9724 12.5569 19.9724C12.9285 20.121 13.2257 20.2696 13.5973 20.4183C14.8606 20.9385 16.1982 20.9385 17.5358 21.0128C17.8331 21.0128 18.056 21.0128 18.3533 21.0128C18.6505 21.0128 19.0221 21.0871 19.245 21.2357C19.6166 21.533 19.3193 21.7559 18.9478 21.7559C18.5762 21.7559 18.1303 21.7559 17.7588 21.6816C17.3129 21.6073 16.867 21.6073 16.4211 21.533C15.7523 21.4586 15.0835 21.31 14.489 21.1614C14.2661 21.0871 14.0431 21.0128 13.8945 20.9384Z" fill="url(#paint5_linear)"/>
<path d="M13.1518 19.8986C12.8545 19.6013 11.5912 18.4866 11.071 18.8582C10.3279 19.4527 11.9628 20.7903 12.3343 21.0876C12.6316 21.3105 13.1518 21.6078 13.5977 21.4591C14.2665 21.1619 13.5233 20.2701 13.1518 19.8986Z" fill="#FFEE76"/>
<path d="M10.9219 19.527C11.1448 19.3041 11.5164 19.3041 11.8136 19.4527C12.6311 19.8242 13.7458 20.8646 13.5971 21.4591C14.266 21.0876 13.4485 20.1958 13.1513 19.8986C12.854 19.6013 11.5907 18.4866 11.0705 18.8582C10.8476 19.0811 10.8476 19.3041 10.9219 19.527Z" fill="#CDC844"/>
<path d="M12.3339 20.4924C12.111 20.3437 11.8137 20.2694 11.9624 20.5667C12.111 20.7896 12.3339 20.9382 12.4826 21.0125C12.5569 21.0868 12.7798 21.2355 12.9284 21.1612C13.0771 21.0869 12.9284 20.9382 12.8541 20.8639C12.7798 20.7896 12.5569 20.641 12.3339 20.4924Z" fill="white"/>
<path d="M18.9479 22.2755C18.7993 22.4241 18.6506 22.4984 18.502 22.647C18.4277 22.7957 18.502 22.87 18.502 23.0186C18.5763 23.1672 18.7993 23.3902 18.9479 23.3158C18.9479 23.3158 18.9479 23.3158 19.0222 23.3158C19.0222 23.3158 19.0222 23.3158 19.0965 23.3158C19.2451 23.1672 19.3938 23.0929 19.4681 22.9443C19.691 22.647 19.0965 22.0525 18.9479 22.2755Z" fill="#EDE324"/>
<path d="M18.9477 21.8291C19.2449 21.8291 19.5422 21.7548 19.7651 21.6804C20.1367 21.5318 19.6908 20.863 19.3936 21.0116C19.1706 21.086 18.9477 21.1603 18.7248 21.1603C18.2046 21.086 18.5761 21.8291 18.9477 21.8291Z" fill="#EDE324"/>
<path d="M18.8735 20.4916C19.2451 20.6402 19.6166 20.4916 19.9139 20.2687C20.2111 20.0457 19.6909 19.4512 19.3937 19.6742C19.2451 19.8228 19.0221 19.8971 18.7992 19.8228C18.6506 19.7485 18.502 19.8971 18.502 20.0457C18.502 20.1944 18.6506 20.4173 18.8735 20.4916Z" fill="#EDE324"/>
<path d="M18.4275 23.8357C18.5018 23.4641 18.5761 23.1668 18.6505 22.7953C18.7248 22.5723 18.1303 22.0521 18.056 22.2751C17.9073 22.5723 17.9073 22.9439 17.833 23.3155C17.833 23.4641 17.9816 23.687 18.056 23.7613C18.1303 23.7613 18.3532 23.9843 18.4275 23.8357Z" fill="#EDE324"/>
<path d="M18.5762 22.2744C18.5762 22.2001 18.6505 22.2001 18.7248 22.1258C19.022 21.9771 18.5762 21.3083 18.2789 21.457C18.1303 21.5313 18.056 21.6056 17.9817 21.7542C17.833 22.0514 18.4275 22.5716 18.5762 22.2744Z" fill="#EDE324"/>
<path d="M19.2451 19.5999C19.3194 19.4513 19.3937 19.3026 19.468 19.2283C19.8396 19.0054 19.3937 18.3366 19.0965 18.4852C18.8735 18.6338 18.7249 18.7824 18.5763 19.0797C18.502 19.3026 18.5763 19.4513 18.7249 19.5999C18.9478 19.7485 19.1708 19.8228 19.2451 19.5999Z" fill="#EDE324"/>
<path d="M18.2047 21.0858C18.2047 21.0858 18.279 21.0858 18.279 21.0115C18.6505 20.8629 18.1303 20.1941 17.8331 20.3427C17.8331 20.3427 17.7588 20.3427 17.7588 20.417C17.3872 20.5656 17.9074 21.2344 18.2047 21.0858Z" fill="#EDE324"/>
<path d="M20.5825 19.8969C20.5825 19.8226 20.5825 19.674 20.6568 19.5997C20.7312 19.3024 20.1367 18.7822 19.988 19.2281C19.988 19.3024 19.988 19.451 19.9137 19.5254C19.8394 19.8226 20.5082 20.3428 20.5825 19.8969Z" fill="#EDE324"/>
<path d="M20.2112 20.4922C20.0625 20.4922 19.9139 20.4922 19.7653 20.4922C19.6167 20.4922 19.3194 20.5665 19.2451 20.7151C19.1708 20.8637 19.3194 21.0124 19.468 21.0124C19.6167 21.0124 19.7653 21.0124 19.9139 21.0124C20.1369 21.0124 20.3598 20.9381 20.4341 20.7894C20.5084 20.6408 20.3598 20.4922 20.2112 20.4922Z" fill="#EDE324"/>
<path d="M19.0963 20.938C19.1706 20.8637 19.2449 20.7151 19.3192 20.6407C19.4678 20.4178 18.9476 19.8233 18.799 20.0463C18.7247 20.1949 18.5761 20.2692 18.5018 20.4178C18.4275 20.5664 19.022 21.1609 19.0963 20.938Z" fill="#FFF471"/>
<path d="M17.8331 20.2685C17.9074 20.1942 18.0561 20.1942 18.1304 20.1199C18.3533 20.0456 17.8331 19.3768 17.6102 19.5254C17.5359 19.5997 17.3873 19.5997 17.3129 19.674C17.09 19.7483 17.5359 20.4171 17.8331 20.2685Z" fill="#FFF471"/>
<path d="M18.7992 18.7082C18.8735 18.7082 18.9478 18.6339 19.0221 18.6339C19.1707 18.5596 18.7992 18.0394 18.6506 18.1137C18.5762 18.1137 18.5019 18.188 18.4276 18.2623C18.2047 18.2623 18.5763 18.7825 18.7992 18.7082Z" fill="#FFF471"/>
<path d="M19.988 21.0119C19.9137 20.9376 19.9137 20.8633 19.8394 20.789C19.7651 20.6404 19.2449 21.012 19.3935 21.2349C19.4678 21.3092 19.4678 21.3835 19.5421 21.4578C19.6165 21.6064 20.1366 21.1606 19.988 21.0119Z" fill="#FFF471"/>
<path d="M18.4277 22.1262C18.3534 22.0519 18.3534 21.9776 18.2791 21.9033C18.2048 21.7546 17.6846 22.1262 17.8332 22.3492C17.9075 22.4235 17.9075 22.4978 17.9818 22.5721C17.9818 22.7207 18.502 22.2748 18.4277 22.1262Z" fill="#FFF471"/>
<path d="M19.0964 21.9784C18.8734 22.0527 18.9478 22.2756 19.0221 22.4242C19.0221 22.4986 19.0964 22.4986 19.0964 22.5729C19.1707 22.6472 19.3936 22.7958 19.5423 22.7215C19.6166 22.6472 19.6909 22.6472 19.6909 22.4986C19.7652 22.2756 19.6909 22.127 19.5423 21.9784C19.4679 21.9041 19.245 21.8298 19.0964 21.9784Z" fill="#FFF471"/>
<path d="M20.1367 19.897C20.0624 19.8227 20.1367 19.6741 20.211 19.5998C20.3597 19.3768 19.8395 18.7823 19.6165 19.0796C19.4679 19.3025 19.4679 19.5998 19.5422 19.8227C19.6165 19.9713 19.7652 20.1943 19.9881 20.1943C20.1367 20.2686 20.211 20.0457 20.1367 19.897Z" fill="#FFF471"/>
<path d="M20.3599 18.485C20.3599 18.8566 20.4342 19.3767 20.8057 19.674C20.9543 19.7483 20.9544 19.3767 20.9544 19.3767C20.9544 19.2281 20.8801 19.0052 20.7314 18.8566C20.6571 18.7822 20.7314 18.7822 20.7314 18.8566C20.7314 18.7079 20.7314 18.4107 20.5828 18.3364C20.4342 18.1134 20.3599 18.4107 20.3599 18.485Z" fill="#FFF471"/>
<defs>
<radialGradient id="paint0_radial" cx="0" cy="0" r="1" gradientUnits="userSpaceOnUse" gradientTransform="translate(14.4645 19.5003) rotate(-115.271) scale(16.413)">
<stop offset="0.2364" stop-color="#0091D1"/>
<stop offset="0.9273" stop-color="#B6F1FF"/>
</radialGradient>
<linearGradient id="paint1_linear" x1="17.631" y1="19.981" x2="14.1546" y2="12.617" gradientUnits="userSpaceOnUse">
<stop offset="0.2" stop-color="#B59200"/>
<stop offset="0.4788" stop-color="#CEC823"/>
<stop offset="0.9273" stop-color="#FFF985"/>
</linearGradient>
<linearGradient id="paint2_linear" x1="19.8551" y1="19.2423" x2="16.704" y2="12.5674" gradientUnits="userSpaceOnUse">
<stop offset="0.2" stop-color="#B59200"/>
<stop offset="0.4788" stop-color="#CEC823"/>
<stop offset="0.9273" stop-color="#FFF985"/>
</linearGradient>
<linearGradient id="paint3_linear" x1="16.6958" y1="21.3329" x2="13.4578" y2="14.4739" gradientUnits="userSpaceOnUse">
<stop offset="0.2" stop-color="#B59200"/>
<stop offset="0.4788" stop-color="#CEC823"/>
<stop offset="0.9273" stop-color="#FFF985"/>
</linearGradient>
<linearGradient id="paint4_linear" x1="19.1461" y1="20.6631" x2="14.6335" y2="15.2452" gradientUnits="userSpaceOnUse">
<stop offset="0.2364" stop-color="#CEC823"/>
<stop offset="0.9273" stop-color="#FFF985"/>
</linearGradient>
<linearGradient id="paint5_linear" x1="18.8377" y1="22.4861" x2="12.77" y2="18.8971" gradientUnits="userSpaceOnUse">
<stop offset="0.2364" stop-color="#CEC823"/>
<stop offset="0.9273" stop-color="#FFF985"/>
</linearGradient>
</defs>
</svg>
