<svg width="67" height="67" viewBox="0 0 67 67" fill="none" xmlns="http://www.w3.org/2000/svg">
<g clip-path="url(#clip0)">
<path d="M21.3873 9.26458C21.6609 9.73895 22.2653 9.89074 22.7279 9.62379C23.1973 9.35278 23.3581 8.75253 23.0871 8.28314L20.7399 4.21747C20.4689 3.74794 19.8685 3.58712 19.3992 3.85826C18.9298 4.12927 18.769 4.72952 19.04 5.19891L21.3873 9.26458ZM10.676 27.8169H5.98145C5.43943 27.8169 5 28.2563 5 28.7984C5 29.3404 5.43943 29.7798 5.98145 29.7798H10.676C11.218 29.7798 11.6575 29.3404 11.6575 28.7984C11.6575 28.2563 11.218 27.8169 10.676 27.8169ZM33.7983 6.65747C34.3404 6.65747 34.7798 6.21804 34.7798 5.67603V0.981445C34.7798 0.439426 34.3404 0 33.7983 0C33.2563 0 32.8169 0.439426 32.8169 0.981445V5.67603C32.8169 6.21804 33.2563 6.65747 33.7983 6.65747ZM44.8688 9.62379C45.3303 9.89022 45.9357 9.73908 46.2094 9.26458L48.5568 5.19891C48.8278 4.72952 48.667 4.12927 48.1976 3.85826C47.7282 3.58699 47.1279 3.74807 46.8569 4.21747L44.5096 8.28314C44.2384 8.75253 44.3993 9.35278 44.8688 9.62379ZM61.6153 27.8169H56.9207C56.3787 27.8169 55.9392 28.2563 55.9392 28.7984C55.9392 29.3404 56.3787 29.7798 56.9207 29.7798H61.6153C62.1573 29.7798 62.5967 29.3404 62.5967 28.7984C62.5967 28.2563 62.1573 27.8169 61.6153 27.8169ZM58.7384 14.3991C58.4674 13.9297 57.8673 13.7689 57.3978 14.0399L53.3321 16.3873C52.8627 16.6583 52.7019 17.2585 52.9729 17.7279C53.2467 18.2021 53.8514 18.3547 54.3136 18.0871L58.3792 15.7398C58.8486 15.4688 59.0095 14.8686 58.7384 14.3991ZM33.7985 10.2931C33.7982 10.2931 33.7983 10.2931 33.798 10.2931C31.4163 10.2931 29.0976 10.7368 26.907 11.6115C26.4036 11.8125 26.1585 12.3836 26.3595 12.887C26.5605 13.3904 27.1312 13.6355 27.635 13.4345C29.5932 12.6525 31.6667 12.2562 33.798 12.2562H33.7985C42.939 12.2563 50.3754 19.685 50.3754 28.8159C50.3754 34.1593 47.771 39.2036 43.4085 42.3096C40.6329 44.2858 38.8801 47.3567 38.5983 50.6606H34.7798V41.9009C34.8976 41.8278 35.0097 41.742 35.1119 41.6398L40.7483 36.0054C42.6738 34.0806 43.7342 31.5211 43.7342 28.7986C43.7342 26.076 42.6738 23.5166 40.7483 21.5917L35.112 15.9574C34.3876 15.2331 33.2091 15.2331 32.4848 15.9574L26.8485 21.5918C24.9231 23.5166 23.8626 26.0761 23.8626 28.7987C23.8626 31.5213 24.9231 34.0808 26.8485 36.0056L32.4848 41.64C32.587 41.7422 32.6991 41.828 32.8169 41.901V50.6608H28.9996C28.7241 47.3371 27.0011 44.287 24.2713 42.3686C19.8456 39.2583 17.2101 34.1789 17.2212 28.7811C17.2325 23.3055 19.9422 18.198 24.4696 15.1182C24.9178 14.8133 25.034 14.2028 24.7291 13.7548C24.4244 13.3067 23.8139 13.1904 23.3657 13.4953C18.3019 16.9399 15.271 22.6527 15.2583 28.777C15.2458 34.815 18.1932 40.4964 23.1426 43.9746C25.4049 45.5646 26.8289 48.0995 27.0464 50.8611C26.0746 51.2604 25.3882 52.2156 25.3882 53.329V55.0156C25.3882 55.655 25.6148 56.2423 25.9914 56.7023C25.6148 57.1623 25.3882 57.7496 25.3882 58.3889V60.0756C25.3882 61.5468 26.5858 62.7437 28.0579 62.7437H29.0325V64.894C29.0325 66.0555 29.9774 67.0004 31.1389 67.0004H36.4575C37.6191 67.0004 38.564 66.0555 38.564 64.894V62.7437H39.5385C41.0107 62.7437 42.2082 61.5468 42.2082 60.0756V58.3889C42.2082 57.7496 41.9815 57.1623 41.6049 56.7023C41.9815 56.2422 42.2082 55.655 42.2082 55.0156V53.329C42.2082 52.216 41.5222 51.261 40.5511 50.8615C40.775 48.1154 42.2324 45.5567 44.5469 43.9088C49.4254 40.4354 52.3381 34.7933 52.3381 28.8162C52.3382 18.6024 44.0215 10.2933 33.7985 10.2931ZM28.2362 34.617C26.6816 33.0629 25.8255 30.9965 25.8255 28.7984C25.8255 26.6002 26.6816 24.5338 28.2362 22.9797L33.7983 17.4193L39.3605 22.9796C40.915 24.5336 41.7712 26.6 41.7712 28.7982C41.7712 30.9963 40.915 33.0628 39.3605 34.6169L34.7798 39.1962V35.1437L37.0456 32.8786C37.429 32.4953 37.429 31.8739 37.0459 31.4907C36.6626 31.1072 36.0413 31.1071 35.658 31.4904L34.7798 32.3683V31.1998L37.0456 28.9346C37.429 28.5513 37.429 27.93 37.0459 27.5467C36.6626 27.1633 36.0413 27.1633 35.658 27.5464L34.7798 28.4242V26.169C34.7798 25.627 34.3404 25.1875 33.7983 25.1875C33.2563 25.1875 32.8169 25.627 32.8169 26.169V29.739L31.9387 28.861C31.5554 28.4779 30.934 28.4779 30.5508 28.8613C30.1677 29.2446 30.1677 29.866 30.5511 30.2492L32.8169 32.5144V33.6831L31.9387 32.8051C31.5554 32.422 30.934 32.422 30.5508 32.8054C30.1677 33.1887 30.1677 33.8101 30.5511 34.1933L32.8169 36.4585V39.1962L28.2362 34.617ZM36.6012 64.8936C36.6012 64.9727 36.5368 65.0371 36.4577 65.0371H31.139C31.0599 65.0371 30.9955 64.9727 30.9955 64.8936V62.7433H36.6012V64.8936ZM40.2455 55.0152C40.2455 55.4042 39.9285 55.7204 39.5388 55.7204H37.7241C37.1821 55.7204 36.7427 56.1599 36.7427 56.7019C36.7427 57.2439 37.1821 57.6833 37.7241 57.6833H39.5386C39.9285 57.6833 40.2454 57.9996 40.2454 58.3885V60.0752C40.2454 60.4641 39.9283 60.7804 39.5386 60.7804H28.0581C27.6682 60.7804 27.3512 60.4641 27.3512 60.0752V58.3885C27.3512 57.9998 27.6682 57.6833 28.0581 57.6833H33.7983C34.3404 57.6833 34.7798 57.2439 34.7798 56.7019C34.7798 56.1599 34.3404 55.7204 33.7983 55.7204H28.0581C27.6682 55.7204 27.3512 55.4042 27.3512 55.0152V53.3286C27.3512 52.9397 27.6682 52.6234 28.0581 52.6234H39.5386C39.9285 52.6234 40.2454 52.9397 40.2454 53.3286V55.0152H40.2455ZM14.2646 16.3873L10.1989 14.0399C9.72952 13.7688 9.12927 13.9297 8.85826 14.3991C8.58725 14.8685 8.74807 15.4688 9.21747 15.7398L13.2831 18.0871C13.7444 18.3541 14.3499 18.2023 14.6238 17.7279C14.8948 17.2584 14.734 16.6581 14.2646 16.3873Z" fill="url(#paint0_linear)"/>
</g>
<defs>
<linearGradient id="paint0_linear" x1="5.46497" y1="0.000153579" x2="61.241" y2="0.397281" gradientUnits="userSpaceOnUse">
<stop stop-color="#A5C436"/>
<stop offset="1" stop-color="#74AF35"/>
</linearGradient>
<clipPath id="clip0">
<rect width="67" height="67" fill="white"/>
</clipPath>
</defs>
</svg>
